# SSTK version 0.8.0
# 23
mtllib original-23.mtl
o Group12/mesh19/mesh19-geometry#mesh19-geometry
v 0.221047 0.277016 0.537377
v 0.221047 0.277016 0.523599
v 0.220237 0.277016 0.530488
v 0.223413 0.277016 0.543797
v 0.220237 -0.263286 0.530488
v 0.223413 -0.263286 0.543797
v 0.223413 0.277016 0.517179
v 0.221047 -0.263286 0.537377
v 0.221047 -0.263286 0.523599
v 0.227177 -0.263286 0.549309
v 0.227177 0.277016 0.549309
v 0.223413 -0.263286 0.517179
v 0.227177 -0.263286 0.511667
v 0.227177 0.277016 0.511667
v 0.232082 0.277016 0.553539
v 0.227736 -0.263286 0.530488
v 0.232082 -0.263286 0.553539
v 0.228287 -0.263286 0.525779
v 0.228287 -0.263286 0.535197
v 0.232082 0.277016 0.507437
v 0.232082 -0.263286 0.507437
v 0.237797 0.277016 0.556198
v 0.227736 -0.308536 0.530488
v 0.228287 -0.308536 0.535197
v 0.229905 -0.263286 0.539586
v 0.237797 -0.263286 0.556198
v 0.229905 -0.263286 0.521390
v 0.228287 -0.308536 0.525779
v 0.229905 -0.308536 0.539586
v 0.237797 0.277016 0.504778
v 0.237797 -0.263286 0.504778
v 0.232479 -0.263286 0.543352
v 0.243927 0.277016 0.557106
v 0.232479 -0.263286 0.517624
v 0.229905 -0.308536 0.521390
v 0.232479 -0.308536 0.543352
v 0.235833 -0.263286 0.546246
v 0.243927 -0.263286 0.557106
v 0.232479 -0.308536 0.517624
v 0.243927 0.277016 0.503870
v 0.243927 -0.263286 0.503870
v 0.235833 -0.263286 0.514730
v 0.239738 -0.263286 0.548061
v 0.250060 0.277016 0.556198
v 0.239738 -0.263286 0.512915
v 0.235833 -0.308536 0.514730
v 0.235833 -0.308536 0.546246
v 0.243927 -0.263286 0.548681
v 0.250060 -0.263286 0.556198
v 0.250060 0.277016 0.504778
v 0.250060 -0.263286 0.504778
v 0.243927 -0.263286 0.512295
v 0.239738 -0.308536 0.512915
v 0.239738 -0.308536 0.548061
v 0.248119 -0.263286 0.548061
v 0.255772 0.277016 0.553539
v 0.243927 -0.308536 0.512295
v 0.243927 -0.308536 0.548681
v 0.252024 -0.263286 0.546246
v 0.255772 -0.263286 0.553539
v 0.255772 0.277016 0.507437
v 0.255772 -0.263286 0.507437
v 0.248119 -0.263286 0.512915
v 0.248119 -0.308536 0.512915
v 0.248119 -0.308536 0.548061
v 0.260680 0.277016 0.549309
v 0.252024 -0.263286 0.514730
v 0.252024 -0.308536 0.546246
v 0.255378 -0.263286 0.543352
v 0.260680 -0.263286 0.549309
v 0.260680 0.277016 0.511667
v 0.260680 -0.263286 0.511667
v 0.255378 -0.263286 0.517624
v 0.252024 -0.308536 0.514730
v 0.257952 -0.263286 0.539586
v 0.264444 -0.263286 0.543797
v 0.264444 0.277016 0.543797
v 0.257952 -0.263286 0.521390
v 0.255378 -0.308536 0.517624
v 0.255378 -0.308536 0.543352
v 0.257952 -0.308536 0.539586
v 0.259568 -0.263286 0.535197
v 0.264444 -0.263286 0.517179
v 0.264444 0.277016 0.517179
v 0.259568 -0.263286 0.525779
v 0.259568 -0.308536 0.535197
v 0.260121 -0.263286 0.530488
v 0.266810 -0.263286 0.537377
v 0.266810 -0.263286 0.523599
v 0.266810 0.277016 0.537377
v 0.257952 -0.308536 0.521390
v 0.259568 -0.308536 0.525779
v 0.260121 -0.308536 0.530488
v 0.266810 0.277016 0.523599
v 0.267617 -0.263286 0.530488
v 0.267617 0.277016 0.530488
vn 0 1 0
vn -0.9575446800604372 0 -0.2882849036768227
vn -1 0 0
vn -0.9575446800604372 0 0.2882849036768227
vn -0.8389384585135503 0 0.5442262974415218
vn -0.6648271801887998 0 0.7469972024594262
vn -0.8389384585135503 0 -0.5442262974415218
vn 0 -1 0
vn -0.4570360799813209 0 0.8894481556534407
vn -0.6648271801887998 0 -0.7469972024594262
vn -0.4570360799813209 0 -0.8894481556534407
vn -0.2319699865887716 0 0.972722943762511
vn -0.2319699865887716 0 -0.972722943762511
vn 0 0 1
vn 0 0 -1
vn 0.2319699865887716 0 0.972722943762511
vn 0.2319699865887716 0 -0.972722943762511
vn 0.4570360799813209 0 0.8894481556534407
vn 0.4570360799813209 0 -0.8894481556534407
vn 0.6648271801887998 0 0.7469972024594262
vn 0.6648271801887998 0 -0.7469972024594262
vn 0.8389384585135503 0 0.5442262974415218
vn 0.8389384585135503 0 -0.5442262974415218
vn 0.9575446800604372 0 0.2882849036768227
vn 0.9575446800604372 0 -0.2882849036768227
vn 1 0 0
usemtl material_0_0
f 1//1 2//1 3//1
f 2//1 1//1 4//1
f 2//2 5//3 3//3
f 1//4 6//5 4//5
f 2//1 4//1 7//1
f 3//3 8//4 1//4
f 5//3 2//2 9//2
f 8//4 3//3 5//3
f 6//5 1//4 8//4
f 10//6 4//5 6//5
f 7//1 4//1 11//1
f 7//7 9//2 2//2
f 9//8 8//8 5//8
f 8//8 12//8 6//8
f 4//5 10//6 11//6
f 6//8 13//8 10//8
f 7//1 11//1 14//1
f 9//2 7//7 12//7
f 8//8 9//8 12//8
f 6//8 12//8 13//8
f 10//6 15//9 11//6
f 10//8 13//8 16//8
f 14//1 11//1 15//1
f 14//10 12//7 7//7
f 12//7 14//10 13//10
f 15//9 10//6 17//9
f 16//8 13//8 18//8
f 19//8 10//8 16//8
f 14//1 15//1 20//1
f 14//10 21//11 13//10
f 10//8 19//8 17//8
f 17//9 22//12 15//9
f 18//8 13//8 21//8
f 18//2 23//3 16//3
f 16//3 24//4 19//4
f 20//1 15//1 22//1
f 21//11 14//10 20//11
f 17//8 19//8 25//8
f 22//12 17//9 26//12
f 18//8 21//8 27//8
f 23//3 18//2 28//2
f 24//4 16//3 23//3
f 29//5 19//4 24//4
f 20//1 22//1 30//1
f 20//11 31//13 21//11
f 19//4 29//5 25//5
f 17//8 25//8 32//8
f 17//8 32//8 26//8
f 26//12 33//14 22//12
f 27//8 21//8 34//8
f 27//7 28//2 18//2
f 28//8 24//8 23//8
f 24//8 35//8 29//8
f 30//1 22//1 33//1
f 31//13 20//11 30//13
f 34//8 21//8 31//8
f 36//6 25//5 29//5
f 25//5 36//6 32//6
f 26//8 32//8 37//8
f 33//14 26//12 38//14
f 34//10 35//7 27//7
f 28//2 27//7 35//7
f 24//8 28//8 35//8
f 29//8 35//8 39//8
f 30//1 33//1 40//1
f 30//13 41//15 31//13
f 34//8 31//8 42//8
f 29//8 39//8 36//8
f 36//6 37//9 32//6
f 26//8 37//8 43//8
f 26//8 43//8 38//8
f 38//14 44//16 33//14
f 35//7 34//10 39//10
f 40//1 33//1 44//1
f 41//15 30//13 40//15
f 45//8 31//8 41//8
f 42//8 31//8 45//8
f 46//11 34//10 42//11
f 36//8 39//8 47//8
f 37//9 36//6 47//9
f 47//9 43//12 37//9
f 38//8 43//8 48//8
f 44//16 38//14 49//16
f 34//10 46//11 39//10
f 40//1 44//1 50//1
f 40//15 51//17 41//15
f 45//8 41//8 52//8
f 53//13 42//11 45//13
f 42//11 53//13 46//11
f 47//8 39//8 46//8
f 43//12 47//9 54//12
f 54//12 48//14 43//12
f 38//8 48//8 55//8
f 38//8 55//8 49//8
f 49//16 56//18 44//16
f 50//1 44//1 56//1
f 51//17 40//15 50//17
f 52//8 41//8 51//8
f 57//15 45//13 52//15
f 45//13 57//15 53//13
f 54//8 46//8 53//8
f 47//8 46//8 54//8
f 48//14 54//12 58//14
f 58//14 55//16 48//14
f 49//8 55//8 59//8
f 56//18 49//16 60//18
f 50//1 56//1 61//1
f 50//17 62//19 51//17
f 52//8 51//8 63//8
f 52//15 64//17 57//15
f 58//8 53//8 57//8
f 54//8 53//8 58//8
f 55//16 58//14 65//16
f 65//16 59//18 55//16
f 49//8 59//8 60//8
f 60//18 66//20 56//18
f 61//1 56//1 66//1
f 62//19 50//17 61//19
f 67//8 51//8 62//8
f 63//8 51//8 67//8
f 64//17 52//15 63//17
f 58//8 57//8 64//8
f 58//8 64//8 65//8
f 59//18 65//16 68//18
f 60//8 59//8 69//8
f 66//20 60//18 70//20
f 61//1 66//1 71//1
f 61//19 72//21 62//19
f 67//8 62//8 73//8
f 74//19 63//17 67//19
f 63//17 74//19 64//17
f 65//8 64//8 68//8
f 68//18 69//20 59//18
f 60//8 69//8 75//8
f 60//8 75//8 70//8
f 76//22 66//20 70//20
f 71//1 66//1 77//1
f 72//21 61//19 71//21
f 78//8 62//8 72//8
f 73//8 62//8 78//8
f 79//21 67//19 73//21
f 67//19 79//21 74//19
f 68//8 64//8 74//8
f 69//20 68//18 80//20
f 69//20 81//22 75//22
f 70//8 75//8 82//8
f 66//20 76//22 77//22
f 70//8 83//8 76//8
f 71//1 77//1 84//1
f 84//23 72//21 71//21
f 78//8 72//8 85//8
f 78//23 79//21 73//21
f 80//8 74//8 79//8
f 68//8 74//8 80//8
f 81//22 69//20 80//20
f 86//24 75//22 81//22
f 75//22 86//24 82//24
f 70//8 82//8 87//8
f 88//24 77//22 76//22
f 70//8 72//8 83//8
f 76//8 83//8 89//8
f 84//1 77//1 90//1
f 72//21 84//23 83//23
f 85//8 72//8 87//8
f 85//25 91//23 78//23
f 79//21 78//23 91//23
f 80//8 79//8 81//8
f 81//8 92//8 86//8
f 93//26 82//24 86//24
f 82//24 93//26 87//26
f 70//8 87//8 72//8
f 77//22 88//24 90//24
f 76//8 89//8 88//8
f 83//23 94//25 89//25
f 84//1 90//1 94//1
f 94//25 83//23 84//23
f 87//26 92//25 85//25
f 91//23 85//25 92//25
f 81//8 79//8 91//8
f 81//8 91//8 92//8
f 86//8 92//8 93//8
f 92//25 87//26 93//26
f 95//26 90//24 88//24
f 88//8 89//8 95//8
f 96//26 89//25 94//25
f 94//1 90//1 96//1
f 90//24 95//26 96//26
f 89//25 96//26 95//26
usemtl material_1_0
f 3//8 2//8 1//8
f 3//26 5//26 2//24
f 4//8 1//8 2//8
f 7//8 4//8 2//8
f 1//25 8//25 3//26
f 9//24 2//24 5//26
f 5//26 3//26 8//25
f 4//23 6//23 1//25
f 8//25 1//25 6//23
f 6//23 4//23 10//21
f 11//8 4//8 7//8
f 2//24 9//24 7//22
f 5//1 8//1 9//1
f 6//1 12//1 8//1
f 11//21 10//21 4//23
f 10//1 13//1 6//1
f 14//8 11//8 7//8
f 12//22 7//22 9//24
f 12//1 9//1 8//1
f 13//1 12//1 6//1
f 11//21 15//19 10//21
f 16//1 13//1 10//1
f 15//8 11//8 14//8
f 7//22 12//22 14//20
f 13//20 14//20 12//22
f 17//19 10//21 15//19
f 18//1 13//1 16//1
f 16//1 10//1 19//1
f 20//8 15//8 14//8
f 13//20 21//18 14//20
f 17//1 19//1 10//1
f 15//19 22//17 17//19
f 21//1 13//1 18//1
f 16//26 23//26 18//24
f 19//25 24//25 16//26
f 22//8 15//8 20//8
f 20//18 14//20 21//18
f 25//1 19//1 17//1
f 26//17 17//19 22//17
f 27//1 21//1 18//1
f 28//24 18//24 23//26
f 23//26 16//26 24//25
f 24//25 19//25 29//23
f 30//8 22//8 20//8
f 21//18 31//16 20//18
f 25//23 29//23 19//25
f 32//1 25//1 17//1
f 26//1 32//1 17//1
f 22//17 33//15 26//17
f 34//1 21//1 27//1
f 18//24 28//24 27//22
f 23//1 24//1 28//1
f 29//1 35//1 24//1
f 33//8 22//8 30//8
f 30//16 20//18 31//16
f 31//1 21//1 34//1
f 29//23 25//23 36//21
f 32//21 36//21 25//23
f 37//1 32//1 26//1
f 38//15 26//17 33//15
f 27//22 35//22 34//20
f 35//22 27//22 28//24
f 35//1 28//1 24//1
f 39//1 35//1 29//1
f 40//8 33//8 30//8
f 31//16 41//14 30//16
f 42//1 31//1 34//1
f 36//1 39//1 29//1
f 32//21 37//19 36//21
f 43//1 37//1 26//1
f 38//1 43//1 26//1
f 33//15 44//13 38//15
f 39//20 34//20 35//22
f 44//8 33//8 40//8
f 40//14 30//16 41//14
f 41//1 31//1 45//1
f 45//1 31//1 42//1
f 42//18 34//20 46//18
f 47//1 39//1 36//1
f 47//19 36//21 37//19
f 37//19 43//17 47//19
f 48//1 43//1 38//1
f 49//13 38//15 44//13
f 39//20 46//18 34//20
f 50//8 44//8 40//8
f 41//14 51//12 40//14
f 52//1 41//1 45//1
f 45//16 42//18 53//16
f 46//18 53//16 42//18
f 46//1 39//1 47//1
f 54//17 47//19 43//17
f 43//17 48//15 54//17
f 55//1 48//1 38//1
f 49//1 55//1 38//1
f 44//13 56//11 49//13
f 56//8 44//8 50//8
f 50//12 40//14 51//12
f 51//1 41//1 52//1
f 52//14 45//16 57//14
f 53//16 57//14 45//16
f 53//1 46//1 54//1
f 54//1 46//1 47//1
f 58//15 54//17 48//15
f 48//15 55//13 58//15
f 59//1 55//1 49//1
f 60//11 49//13 56//11
f 61//8 56//8 50//8
f 51//12 62//9 50//12
f 63//1 51//1 52//1
f 57//14 64//12 52//14
f 57//1 53//1 58//1
f 58//1 53//1 54//1
f 65//13 58//15 55//13
f 55//13 59//11 65//13
f 60//1 59//1 49//1
f 56//11 66//10 60//11
f 66//8 56//8 61//8
f 61//9 50//12 62//9
f 62//1 51//1 67//1
f 67//1 51//1 63//1
f 63//12 52//14 64//12
f 64//1 57//1 58//1
f 65//1 64//1 58//1
f 68//11 65//13 59//11
f 69//1 59//1 60//1
f 70//10 60//11 66//10
f 71//8 66//8 61//8
f 62//9 72//6 61//9
f 73//1 62//1 67//1
f 67//9 63//12 74//9
f 64//12 74//9 63//12
f 68//1 64//1 65//1
f 59//11 69//10 68//11
f 75//1 69//1 60//1
f 70//1 75//1 60//1
f 70//10 66//10 76//7
f 77//8 66//8 71//8
f 71//6 61//9 72//6
f 72//1 62//1 78//1
f 78//1 62//1 73//1
f 73//6 67//9 79//6
f 74//9 79//6 67//9
f 74//1 64//1 68//1
f 80//10 68//11 69//10
f 75//7 81//7 69//10
f 82//1 75//1 70//1
f 77//7 76//7 66//10
f 76//1 83//1 70//1
f 84//8 77//8 71//8
f 71//6 72//6 84//5
f 85//1 72//1 78//1
f 73//6 79//6 78//5
f 79//1 74//1 80//1
f 80//1 74//1 68//1
f 80//10 69//10 81//7
f 81//7 75//7 86//2
f 82//2 86//2 75//7
f 87//1 82//1 70//1
f 76//7 77//7 88//2
f 83//1 72//1 70//1
f 89//1 83//1 76//1
f 90//8 77//8 84//8
f 83//5 84//5 72//6
f 87//1 72//1 85//1
f 78//5 91//5 85//4
f 91//5 78//5 79//6
f 81//1 79//1 80//1
f 86//1 92//1 81//1
f 86//2 82//2 93//3
f 87//3 93//3 82//2
f 72//1 87//1 70//1
f 90//2 88//2 77//7
f 88//1 89//1 76//1
f 89//4 94//4 83//5
f 94//8 90//8 84//8
f 84//5 83//5 94//4
f 85//4 92//4 87//3
f 92//4 85//4 91//5
f 91//1 79//1 81//1
f 92//1 91//1 81//1
f 93//1 92//1 86//1
f 93//3 87//3 92//4
f 88//2 90//2 95//3
f 95//1 89//1 88//1
f 94//4 89//4 96//3
f 96//8 90//8 94//8
f 96//3 95//3 90//2
f 95//3 96//3 89//4
