# SSTK version 0.8.0
# 4
mtllib original-4.mtl
o mesh2/mesh2-geometry#mesh2-geometry
v -0.087554 -0.177545 0.541135
v -0.087780 -0.177545 0.541135
v -0.087620 -0.177545 0.540368
v -0.092949 -0.177545 0.557574
v -0.047907 -0.177545 0.530488
v -0.087234 -0.177545 0.564444
v -0.087620 -0.230781 0.540368
v -0.095286 -0.177545 0.530488
v -0.055572 -0.177545 0.540368
v -0.087114 -0.177545 0.546224
v -0.087114 -0.230781 0.546224
v -0.087780 -0.230781 0.541135
v -0.055413 -0.230781 0.541135
v -0.096396 -0.177545 0.549003
v -0.092949 0.081149 0.557574
v -0.095286 0.081149 0.530488
v -0.055413 -0.177545 0.541135
v -0.050244 -0.177545 0.557574
v -0.055639 -0.177545 0.541135
v -0.079853 -0.177545 0.568881
v -0.055639 -0.230781 0.541135
v -0.087554 -0.230781 0.541135
v -0.097202 -0.177545 0.539642
v -0.096396 0.081149 0.549003
v -0.087234 0.081149 0.564444
v -0.047907 0.081149 0.530488
v -0.046797 -0.177545 0.549003
v -0.055958 -0.177545 0.564444
v -0.055572 -0.230781 0.540368
v -0.056078 -0.177545 0.546224
v -0.084958 -0.230781 0.551588
v -0.084958 -0.177545 0.551588
v -0.079853 0.081149 0.568881
v -0.097202 0.081149 0.539642
v -0.045990 0.081149 0.539642
v -0.045990 -0.177545 0.539642
v -0.050244 0.081149 0.557574
v -0.055958 0.081149 0.564444
v -0.056078 -0.230781 0.546224
v -0.081381 -0.177545 0.555887
v -0.071596 0.081149 0.570414
v -0.081381 -0.230781 0.555887
v -0.046797 0.081149 0.549003
v -0.058234 -0.177545 0.551588
v -0.063339 -0.177545 0.568881
v -0.058234 -0.230781 0.551588
v -0.076763 -0.177545 0.558663
v -0.071596 -0.177545 0.570414
v -0.076763 -0.230781 0.558663
v -0.061812 -0.177545 0.555887
v -0.063339 0.081149 0.568881
v -0.061812 -0.230781 0.555887
v -0.071596 -0.230781 0.559624
v -0.066430 -0.177545 0.558663
v -0.066430 -0.230781 0.558663
v -0.071596 -0.177545 0.559624
vn 0 -1 0
vn 0.9668122119794017 0 0.25548805601729535
vn -0.059785016538152054 0 0.9982112761322288
vn -0.9579875285533774 0 0.2868098588545934
vn 0 0 -1
vn -0.564513764041199 0 0.8254236549845402
vn -0.8003598559352388 0 0.5995198920864292
vn -0.9971535974865672 0 -0.07539696956507692
vn -0.9668122119794017 0 -0.25548805601729535
vn 0.059785016538152054 0 0.9982112761322288
vn -0.9668122119794017 0 0.25548805601729535
vn 0.9579875285533774 0 0.2868098588545934
vn -0.2895078875204174 0 0.9571756281181973
vn 0 1 0
vn 0.9971535974865672 0 -0.07539696956507692
vn 0.9668122119794017 0 -0.25548805601729535
vn 0.8003598559352388 0 0.5995198920864292
vn 0.564513764041199 0 0.8254236549845402
vn 0 0 1
vn 0.2895078875204174 0 0.9571756281181973
vn 0.059785016538152054 0 -0.9982112761322288
vn 0.9579875285533774 0 -0.2868098588545934
vn 0.8003598559352388 0 -0.5995198920864292
vn 0.564513764041199 0 -0.8254236549845402
vn 0.9971535974865672 0 0.07539696956507692
vn -0.059785016538152054 0 -0.9982112761322288
vn -0.9579875285533774 0 -0.2868098588545934
vn 0.2895078875204174 0 -0.9571756281181973
vn -0.9971535974865672 0 0.07539696956507692
vn -0.8003598559352388 0 -0.5995198920864292
vn -0.564513764041199 0 -0.8254236549845402
vn -0.2895078875204174 0 -0.9571756281181973
usemtl material_0_0
f 1//1 2//1 3//1
f 4//1 3//1 2//1
f 3//1 5//1 1//1
f 6//1 2//1 1//1
f 2//2 7//3 3//3
f 4//1 8//1 3//1
f 2//1 6//1 4//1
f 3//1 8//1 5//1
f 1//1 5//1 9//1
f 6//1 1//1 10//1
f 11//4 3//3 7//3
f 7//3 2//2 12//2
f 2//5 13//5 12//5
f 14//1 8//1 4//1
f 6//6 15//7 4//7
f 16//5 5//5 8//5
f 9//1 5//1 17//1
f 17//1 5//1 18//1
f 1//1 9//1 19//1
f 13//5 2//5 17//5
f 3//3 11//4 10//4
f 6//1 10//1 20//1
f 21//1 11//1 22//1
f 8//1 14//1 23//1
f 4//7 24//4 14//4
f 15//7 6//6 25//6
f 24//4 4//7 15//7
f 5//5 16//5 26//5
f 23//8 16//9 8//9
f 17//1 19//1 9//1
f 18//1 19//1 17//1
f 9//10 13//11 17//11
f 18//1 5//1 27//1
f 28//1 19//1 18//1
f 13//11 9//10 29//10
f 30//12 29//10 9//10
f 31//7 10//4 11//4
f 20//1 10//1 32//1
f 33//13 6//6 20//13
f 11//1 21//1 31//1
f 14//4 34//8 23//8
f 34//8 14//4 24//4
f 6//6 33//13 25//6
f 26//14 15//14 25//14
f 16//14 24//14 15//14
f 16//14 15//14 26//14
f 35//15 5//16 26//16
f 16//9 23//8 34//8
f 27//1 5//1 36//1
f 27//12 37//17 18//17
f 28//1 30//1 19//1
f 18//17 38//18 28//18
f 29//10 30//12 39//12
f 10//4 31//7 32//7
f 20//1 32//1 40//1
f 20//13 41//19 33//13
f 31//1 21//1 42//1
f 24//14 16//14 34//14
f 26//14 25//14 33//14
f 5//16 35//15 36//15
f 26//14 43//14 35//14
f 36//15 43//12 27//12
f 37//17 27//12 43//12
f 38//18 18//17 37//17
f 28//1 44//1 30//1
f 38//18 45//20 28//18
f 44//17 39//12 30//12
f 46//1 21//1 39//1
f 42//6 32//7 31//7
f 32//7 42//6 40//6
f 20//1 40//1 47//1
f 41//19 20//13 48//19
f 26//14 33//14 41//14
f 42//1 21//1 49//1
f 43//12 36//15 35//15
f 26//14 37//14 43//14
f 26//14 38//14 37//14
f 28//1 50//1 44//1
f 45//20 38//18 51//20
f 45//1 50//1 28//1
f 39//12 44//17 46//17
f 52//1 21//1 46//1
f 42//6 47//13 40//6
f 20//1 47//1 48//1
f 48//19 51//20 41//19
f 26//14 41//14 51//14
f 49//1 21//1 53//1
f 47//13 42//6 49//13
f 26//14 51//14 38//14
f 50//18 46//17 44//17
f 51//20 48//19 45//20
f 45//1 54//1 50//1
f 55//1 21//1 52//1
f 46//17 50//18 52//18
f 48//1 47//1 56//1
f 53//1 21//1 55//1
f 56//19 49//13 53//19
f 49//13 56//19 47//13
f 48//1 54//1 45//1
f 55//20 50//18 54//20
f 50//18 55//20 52//18
f 48//1 56//1 54//1
f 54//20 53//19 55//20
f 53//19 54//20 56//19
usemtl material_1_0
f 3//14 2//14 1//14
f 2//14 3//14 4//14
f 1//14 5//14 3//14
f 1//14 2//14 6//14
f 3//21 7//21 2//9
f 3//14 8//14 4//14
f 4//14 6//14 2//14
f 5//14 8//14 3//14
f 9//14 5//14 1//14
f 10//14 1//14 6//14
f 7//21 3//21 11//22
f 12//9 2//9 7//21
f 12//19 13//19 2//19
f 4//14 8//14 14//14
f 4//23 15//23 6//24
f 8//19 5//19 16//19
f 17//14 5//14 9//14
f 18//14 5//14 17//14
f 19//14 9//14 1//14
f 17//19 2//19 13//19
f 10//22 11//22 3//21
f 20//14 10//14 6//14
f 22//14 11//14 21//14
f 23//14 14//14 8//14
f 14//22 24//22 4//23
f 25//24 6//24 15//23
f 15//23 4//23 24//22
f 26//19 16//19 5//19
f 8//2 16//2 23//25
f 9//14 19//14 17//14
f 17//14 19//14 18//14
f 17//16 13//16 9//26
f 27//14 5//14 18//14
f 18//14 19//14 28//14
f 29//26 9//26 13//16
f 9//26 29//26 30//27
f 11//22 10//22 31//23
f 32//14 10//14 20//14
f 20//28 6//24 33//28
f 31//14 21//14 11//14
f 23//25 34//25 14//22
f 24//22 14//22 34//25
f 25//24 33//28 6//24
f 25//1 15//1 26//1
f 15//1 24//1 16//1
f 26//1 15//1 16//1
f 26//11 5//11 35//29
f 34//25 23//25 16//2
f 36//14 5//14 27//14
f 18//30 37//30 27//27
f 19//14 30//14 28//14
f 28//31 38//31 18//30
f 39//27 30//27 29//26
f 32//23 31//23 10//22
f 40//14 32//14 20//14
f 33//28 41//5 20//28
f 42//14 21//14 31//14
f 34//1 16//1 24//1
f 33//1 25//1 26//1
f 36//29 35//29 5//11
f 35//1 43//1 26//1
f 27//27 43//27 36//29
f 43//27 27//27 37//30
f 37//30 18//30 38//31
f 30//14 44//14 28//14
f 28//31 45//32 38//31
f 30//27 39//27 44//30
f 39//14 21//14 46//14
f 31//23 32//23 42//24
f 40//24 42//24 32//23
f 47//14 40//14 20//14
f 48//5 20//28 41//5
f 41//1 33//1 26//1
f 49//14 21//14 42//14
f 35//29 36//29 43//27
f 43//1 37//1 26//1
f 37//1 38//1 26//1
f 44//14 50//14 28//14
f 51//32 38//31 45//32
f 28//14 50//14 45//14
f 46//30 44//30 39//27
f 46//14 21//14 52//14
f 40//24 47//28 42//24
f 48//14 47//14 20//14
f 41//5 51//32 48//5
f 51//1 41//1 26//1
f 53//14 21//14 49//14
f 49//28 42//24 47//28
f 38//1 51//1 26//1
f 44//30 46//30 50//31
f 45//32 48//5 51//32
f 50//14 54//14 45//14
f 52//14 21//14 55//14
f 52//31 50//31 46//30
f 56//14 47//14 48//14
f 55//14 21//14 53//14
f 53//5 49//28 56//5
f 47//28 56//5 49//28
f 45//14 54//14 48//14
f 54//32 50//31 55//32
f 52//31 55//32 50//31
f 54//14 56//14 48//14
f 55//32 53//5 54//32
f 56//5 54//32 53//5
