# SSTK version 0.8.0
# 25
mtllib original-25.mtl
o mesh21/mesh21-geometry#mesh21-geometry
v 0.236570 0.186292 0.463944
v 0.251284 0.186292 0.463944
v 0.243927 0.185203 0.463944
v 0.258141 0.189483 0.463944
v 0.251284 0.186292 0.466605
v 0.236570 0.186292 0.466605
v 0.243927 0.185203 0.466605
v 0.258141 0.189483 0.466605
v 0.229713 0.189483 0.463944
v 0.229713 0.189483 0.466605
v 0.223825 0.194559 0.463944
v 0.264029 0.194559 0.466605
v 0.264029 0.194559 0.463944
v 0.223825 0.194559 0.466605
v 0.243927 0.194538 0.466605
v 0.238721 0.195310 0.466605
v 0.219308 0.201174 0.463944
v 0.268546 0.201174 0.466605
v 0.249136 0.195310 0.466605
v 0.238721 0.195310 0.530488
v 0.219308 0.201174 0.466605
v 0.268546 0.201174 0.463944
v 0.243927 0.194538 0.530488
v 0.233868 0.197567 0.530488
v 0.233868 0.197567 0.466605
v 0.216468 0.208877 0.463944
v 0.253989 0.197567 0.466605
v 0.271386 0.208877 0.466605
v 0.249136 0.195310 0.530488
v 0.243927 0.239751 0.530488
v 0.229700 0.201161 0.466605
v 0.226503 0.205843 0.466605
v 0.216468 0.208877 0.466605
v 0.271386 0.208877 0.463944
v 0.258154 0.201161 0.466605
v 0.261351 0.205843 0.466605
v 0.229700 0.201161 0.530488
v 0.224494 0.211294 0.466605
v 0.215499 0.217144 0.463944
v 0.272355 0.217144 0.463944
v 0.253989 0.197567 0.530488
v 0.263361 0.211294 0.466605
v 0.272355 0.217144 0.466605
v 0.226503 0.205843 0.530488
v 0.215499 0.217144 0.466605
v 0.261351 0.205843 0.530488
v 0.258154 0.201161 0.530488
v 0.263361 0.211294 0.530488
v 0.224494 0.211294 0.530488
v 0.223810 0.217144 0.466605
v 0.216468 0.225412 0.463944
v 0.264047 0.217144 0.466605
v 0.271386 0.225412 0.466605
v 0.264047 0.217144 0.530488
v 0.223810 0.217144 0.530488
v 0.224494 0.222995 0.466605
v 0.216468 0.225412 0.466605
v 0.271386 0.225412 0.463944
v 0.224494 0.222995 0.530488
v 0.226503 0.228449 0.466605
v 0.219308 0.233115 0.463944
v 0.263361 0.222995 0.466605
v 0.263361 0.222995 0.530488
v 0.268546 0.233115 0.466605
v 0.226503 0.228449 0.530488
v 0.219308 0.233115 0.466605
v 0.268546 0.233115 0.463944
v 0.261351 0.228449 0.466605
v 0.261351 0.228449 0.530488
v 0.229700 0.233131 0.530488
v 0.229700 0.233131 0.466605
v 0.223825 0.239732 0.463944
v 0.258154 0.233131 0.466605
v 0.264029 0.239732 0.466605
v 0.258154 0.233131 0.530488
v 0.233868 0.236722 0.530488
v 0.223825 0.239732 0.466605
v 0.264029 0.239732 0.463944
v 0.253989 0.236722 0.530488
v 0.238721 0.238982 0.530488
v 0.233868 0.236722 0.466605
v 0.229713 0.244808 0.466605
v 0.229713 0.244808 0.463944
v 0.253989 0.236722 0.466605
v 0.258141 0.244808 0.463944
v 0.249136 0.238982 0.530488
v 0.238721 0.238982 0.466605
v 0.243927 0.239751 0.466605
v 0.249136 0.238982 0.466605
v 0.258141 0.244808 0.466605
v 0.236570 0.247997 0.466605
v 0.236570 0.247997 0.463944
v 0.251284 0.247997 0.466605
v 0.251284 0.247997 0.463944
v 0.243927 0.249086 0.463944
v 0.243927 0.249086 0.466605
vn 0 0 -1
vn 0 0 1
vn 0.2319699865887716 -0.972722943762511 0
vn 0 -1 0
vn -0.2319699865887716 -0.972722943762511 0
vn 0.4570360799813209 -0.8894481556534407 0
vn -0.4570360799813209 -0.8894481556534407 0
vn 0.6648271801887998 -0.7469972024594262 0
vn -0.6648271801887998 -0.7469972024594262 0
vn -0.8389384585135503 -0.5442262974415218 0
vn 0.8389384585135503 -0.5442262974415218 0
vn -0.9575446800604372 -0.2882849036768227 0
vn 0.9575446800604372 -0.2882849036768227 0
vn -1 0 0
vn 1 0 0
vn -0.9575446800604372 0.2882849036768227 0
vn 0.9575446800604372 0.2882849036768227 0
vn -0.8389384585135503 0.5442262974415218 0
vn 0.8389384585135503 0.5442262974415218 0
vn -0.6648271801887998 0.7469972024594262 0
vn 0.6648271801887998 0.7469972024594262 0
vn -0.4570360799813209 0.8894481556534407 0
vn 0.4570360799813209 0.8894481556534407 0
vn 0 1 0
vn -0.2319699865887716 0.972722943762511 0
vn 0.2319699865887716 0.972722943762511 0
usemtl material_0_0
f 1//1 2//1 3//1
f 2//1 1//1 4//1
f 5//2 6//2 7//2
f 6//2 5//2 8//2
f 2//3 7//4 3//4
f 7//4 2//3 5//3
f 3//4 6//5 1//5
f 6//5 3//4 7//4
f 4//1 1//1 9//1
f 6//2 8//2 10//2
f 4//6 5//3 2//3
f 5//3 4//6 8//6
f 10//7 1//5 6//5
f 1//5 10//7 9//7
f 4//1 9//1 11//1
f 10//2 8//2 12//2
f 13//8 8//6 4//6
f 14//9 9//7 10//7
f 15//2 14//2 10//2
f 9//7 14//9 11//9
f 4//1 11//1 13//1
f 8//6 13//8 12//8
f 10//2 12//2 15//2
f 14//2 15//2 16//2
f 14//9 17//10 11//9
f 13//1 11//1 17//1
f 13//8 18//11 12//8
f 15//2 12//2 19//2
f 15//4 20//5 16//5
f 14//2 16//2 21//2
f 17//10 14//9 21//10
f 13//1 17//1 22//1
f 19//2 12//2 18//2
f 18//11 13//8 22//11
f 19//3 23//4 15//4
f 20//5 15//4 23//4
f 24//7 16//5 20//5
f 21//2 16//2 25//2
f 21//10 26//12 17//10
f 22//1 17//1 26//1
f 19//2 18//2 27//2
f 22//11 28//13 18//11
f 23//4 19//3 29//3
f 30//2 20//2 23//2
f 16//5 24//7 25//7
f 20//2 30//2 24//2
f 21//2 25//2 31//2
f 21//2 32//2 33//2
f 26//12 21//10 33//12
f 22//1 26//1 34//1
f 27//2 18//2 35//2
f 27//6 29//3 19//3
f 36//2 18//2 28//2
f 28//13 22//11 34//13
f 29//2 30//2 23//2
f 37//9 25//7 24//7
f 24//2 30//2 37//2
f 25//7 37//9 31//9
f 21//2 31//2 32//2
f 33//2 32//2 38//2
f 33//12 39//14 26//12
f 34//1 26//1 40//1
f 35//2 18//2 36//2
f 35//8 41//6 27//6
f 29//3 27//6 41//6
f 36//2 28//2 42//2
f 34//13 43//15 28//13
f 30//2 29//2 41//2
f 37//2 30//2 44//2
f 37//9 32//10 31//9
f 44//10 38//12 32//10
f 33//2 38//2 45//2
f 40//1 26//1 39//1
f 39//14 33//12 45//14
f 42//2 28//2 43//2
f 43//15 34//13 40//15
f 46//11 35//8 36//11
f 41//6 35//8 47//8
f 48//13 36//11 42//13
f 30//2 41//2 47//2
f 44//2 30//2 49//2
f 32//10 37//9 44//10
f 38//12 44//10 49//12
f 45//2 38//2 50//2
f 40//1 39//1 51//1
f 45//14 51//16 39//14
f 42//2 43//2 52//2
f 40//15 53//17 43//15
f 35//8 46//11 47//8
f 36//11 48//13 46//11
f 42//13 54//15 48//13
f 30//2 47//2 46//2
f 49//2 30//2 55//2
f 49//12 50//14 38//12
f 45//2 50//2 56//2
f 45//2 56//2 57//2
f 51//16 45//14 57//16
f 40//1 51//1 58//1
f 52//2 43//2 53//2
f 54//15 42//13 52//15
f 53//17 40//15 58//17
f 30//2 46//2 48//2
f 30//2 48//2 54//2
f 55//2 30//2 59//2
f 50//14 49//12 55//14
f 57//2 56//2 60//2
f 57//16 61//18 51//16
f 58//1 51//1 61//1
f 52//2 53//2 62//2
f 52//15 63//17 54//15
f 58//17 64//19 53//17
f 30//2 54//2 63//2
f 59//2 30//2 65//2
f 56//16 55//14 59//16
f 55//14 56//16 50//14
f 59//16 60//18 56//16
f 57//2 60//2 66//2
f 61//18 57//16 66//18
f 58//1 61//1 67//1
f 62//2 53//2 68//2
f 63//17 52//15 62//17
f 68//2 53//2 64//2
f 64//19 58//17 67//19
f 30//2 63//2 69//2
f 65//2 30//2 70//2
f 60//18 59//16 65//18
f 66//2 60//2 71//2
f 66//18 72//20 61//18
f 67//1 61//1 72//1
f 69//19 62//17 68//19
f 62//17 69//19 63//17
f 68//2 64//2 73//2
f 67//19 74//21 64//19
f 30//2 69//2 75//2
f 70//2 30//2 76//2
f 71//20 65//18 70//20
f 65//18 71//20 60//18
f 66//2 71//2 77//2
f 72//20 66//18 77//20
f 67//1 72//1 78//1
f 68//19 75//21 69//19
f 73//2 64//2 74//2
f 75//21 68//19 73//21
f 74//21 67//19 78//21
f 30//2 75//2 79//2
f 76//2 30//2 80//2
f 76//22 71//20 70//20
f 77//2 71//2 81//2
f 82//22 72//20 77//20
f 78//1 72//1 83//1
f 73//2 74//2 84//2
f 84//23 75//21 73//21
f 85//23 74//21 78//21
f 75//21 84//23 79//23
f 30//2 79//2 86//2
f 30//24 87//25 80//25
f 80//25 81//22 76//22
f 71//20 76//22 81//22
f 77//2 81//2 87//2
f 77//2 88//2 82//2
f 72//20 82//22 83//22
f 78//1 83//1 85//1
f 84//2 74//2 89//2
f 88//2 74//2 90//2
f 74//21 85//23 90//23
f 89//26 79//23 84//23
f 79//23 89//26 86//26
f 86//26 88//24 30//24
f 87//25 30//24 88//24
f 81//22 80//25 87//25
f 77//2 87//2 88//2
f 82//2 88//2 90//2
f 91//25 83//22 82//22
f 85//1 83//1 92//1
f 82//2 90//2 93//2
f 89//2 74//2 88//2
f 94//26 90//23 85//23
f 88//24 86//26 89//26
f 82//2 93//2 91//2
f 83//22 91//25 92//25
f 85//1 92//1 94//1
f 90//23 94//26 93//26
f 94//1 92//1 95//1
f 91//2 93//2 96//2
f 96//24 92//25 91//25
f 95//24 93//26 94//26
f 92//25 96//24 95//24
f 93//26 95//24 96//24
usemtl material_1_0
f 3//2 2//2 1//2
f 4//2 1//2 2//2
f 7//1 6//1 5//1
f 8//1 5//1 6//1
f 3//24 7//24 2//25
f 5//25 2//25 7//24
f 1//26 6//26 3//24
f 7//24 3//24 6//26
f 9//2 1//2 4//2
f 10//1 8//1 6//1
f 2//25 5//25 4//22
f 8//22 4//22 5//25
f 6//26 1//26 10//23
f 9//23 10//23 1//26
f 11//2 9//2 4//2
f 12//1 8//1 10//1
f 4//22 8//22 13//20
f 10//23 9//23 14//21
f 10//1 14//1 15//1
f 11//21 14//21 9//23
f 13//2 11//2 4//2
f 12//20 13//20 8//22
f 15//1 12//1 10//1
f 16//1 15//1 14//1
f 11//21 17//19 14//21
f 17//2 11//2 13//2
f 12//20 18//18 13//20
f 19//1 12//1 15//1
f 16//26 20//26 15//24
f 21//1 16//1 14//1
f 21//19 14//21 17//19
f 22//2 17//2 13//2
f 18//1 12//1 19//1
f 22//18 13//20 18//18
f 15//24 23//24 19//25
f 23//24 15//24 20//26
f 20//26 16//26 24//23
f 25//1 16//1 21//1
f 17//19 26//17 21//19
f 26//2 17//2 22//2
f 27//1 18//1 19//1
f 18//18 28//16 22//18
f 29//25 19//25 23//24
f 23//1 20//1 30//1
f 25//23 24//23 16//26
f 24//1 30//1 20//1
f 31//1 25//1 21//1
f 33//1 32//1 21//1
f 33//17 21//19 26//17
f 34//2 26//2 22//2
f 35//1 18//1 27//1
f 19//25 29//25 27//22
f 28//1 18//1 36//1
f 34//16 22//18 28//16
f 23//1 30//1 29//1
f 24//23 25//23 37//21
f 37//1 30//1 24//1
f 31//21 37//21 25//23
f 32//1 31//1 21//1
f 38//1 32//1 33//1
f 26//17 39//15 33//17
f 40//2 26//2 34//2
f 36//1 18//1 35//1
f 27//22 41//22 35//20
f 41//22 27//22 29//25
f 42//1 28//1 36//1
f 28//16 43//14 34//16
f 41//1 29//1 30//1
f 44//1 30//1 37//1
f 31//21 32//19 37//21
f 32//19 38//17 44//19
f 45//1 38//1 33//1
f 39//2 26//2 40//2
f 45//15 33//17 39//15
f 43//1 28//1 42//1
f 40//14 34//16 43//14
f 36//18 35//20 46//18
f 47//20 35//20 41//22
f 42//16 36//18 48//16
f 47//1 41//1 30//1
f 49//1 30//1 44//1
f 44//19 37//21 32//19
f 49//17 44//19 38//17
f 50//1 38//1 45//1
f 51//2 39//2 40//2
f 39//15 51//13 45//15
f 52//1 43//1 42//1
f 43//14 53//12 40//14
f 47//20 46//18 35//20
f 46//18 48//16 36//18
f 48//16 54//14 42//16
f 46//1 47//1 30//1
f 55//1 30//1 49//1
f 38//17 50//15 49//17
f 56//1 50//1 45//1
f 57//1 56//1 45//1
f 57//13 45//15 51//13
f 58//2 51//2 40//2
f 53//1 43//1 52//1
f 52//14 42//16 54//14
f 58//12 40//14 53//12
f 48//1 46//1 30//1
f 54//1 48//1 30//1
f 59//1 30//1 55//1
f 55//15 49//17 50//15
f 60//1 56//1 57//1
f 51//13 61//11 57//13
f 61//2 51//2 58//2
f 62//1 53//1 52//1
f 54//14 63//12 52//14
f 53//12 64//10 58//12
f 63//1 54//1 30//1
f 65//1 30//1 59//1
f 59//13 55//15 56//13
f 50//15 56//13 55//15
f 66//1 60//1 57//1
f 66//11 57//13 61//11
f 67//2 61//2 58//2
f 68//1 53//1 62//1
f 62//12 52//14 63//12
f 64//1 53//1 68//1
f 67//10 58//12 64//10
f 69//1 63//1 30//1
f 70//1 30//1 65//1
f 65//11 59//13 60//11
f 56//13 60//11 59//13
f 71//1 60//1 66//1
f 61//11 72//8 66//11
f 72//2 61//2 67//2
f 68//10 62//12 69//10
f 63//12 69//10 62//12
f 73//1 64//1 68//1
f 64//10 74//9 67//10
f 75//1 69//1 30//1
f 76//1 30//1 70//1
f 70//8 65//11 71//8
f 60//11 71//8 65//11
f 77//1 71//1 66//1
f 77//8 66//11 72//8
f 78//2 72//2 67//2
f 69//10 75//9 68//10
f 74//1 64//1 73//1
f 73//9 68//10 75//9
f 78//9 67//10 74//9
f 79//1 75//1 30//1
f 80//1 30//1 76//1
f 70//8 71//8 76//6
f 81//1 71//1 77//1
f 77//8 72//8 82//6
f 83//2 72//2 78//2
f 84//1 74//1 73//1
f 73//9 75//9 84//7
f 78//9 74//9 85//7
f 79//7 84//7 75//9
f 86//1 79//1 30//1
f 80//3 87//3 30//4
f 76//6 81//6 80//3
f 81//6 76//6 71//8
f 87//1 81//1 77//1
f 82//1 88//1 77//1
f 83//6 82//6 72//8
f 85//2 83//2 78//2
f 89//1 74//1 84//1
f 90//1 74//1 88//1
f 90//7 85//7 74//9
f 84//7 79//7 89//5
f 86//5 89//5 79//7
f 30//4 88//4 86//5
f 88//4 30//4 87//3
f 87//3 80//3 81//6
f 88//1 87//1 77//1
f 90//1 88//1 82//1
f 82//6 83//6 91//3
f 92//2 83//2 85//2
f 93//1 90//1 82//1
f 88//1 74//1 89//1
f 85//7 90//7 94//5
f 89//5 86//5 88//4
f 91//1 93//1 82//1
f 92//3 91//3 83//6
f 94//2 92//2 85//2
f 93//5 94//5 90//7
f 95//2 92//2 94//2
f 96//1 93//1 91//1
f 91//3 92//3 96//4
f 94//5 93//5 95//4
f 95//4 96//4 92//3
f 96//4 95//4 93//5
