# SSTK version 0.8.0
# 14
mtllib original-14.mtl
o Group7/mesh12/mesh12-geometry#mesh12-geometry
v -0.294080 -0.609311 -0.600194
v -0.302638 -0.609311 -0.532359
v -0.303197 -0.609311 -0.598496
v 0.301584 -0.609311 -0.532359
v -0.302638 -0.609311 0.410708
v -0.303197 0.721574 -0.598496
v -0.284804 -0.609311 -0.600764
v 0.301584 -0.649237 -0.532359
v -0.312002 -0.609311 -0.595699
v -0.302638 -0.649237 0.410708
v -0.294080 0.721574 -0.600194
v -0.312002 0.721574 -0.595699
v 0.283750 -0.609311 -0.600764
v -0.302638 -0.649237 -0.532359
v 0.301584 -0.609311 0.410708
v -0.320339 -0.609311 -0.591850
v 0.354819 0.721574 -0.534220
v -0.284804 0.721574 -0.600764
v 0.293026 -0.609311 -0.600194
v 0.219412 -0.689164 -0.532359
v 0.301584 -0.649237 0.410708
v 0.302143 -0.609311 -0.598496
v -0.328068 -0.609311 -0.587013
v -0.320339 0.721574 -0.591850
v -0.222151 -0.689164 -0.532359
v -0.272959 -0.609311 0.463944
v 0.283750 0.721574 -0.600764
v 0.219412 -0.689164 0.410708
v 0.354819 -0.609311 0.463944
v -0.335058 -0.609311 -0.581274
v -0.328068 0.721574 -0.587013
v -0.222151 -0.689164 0.410708
v -0.355873 -0.609311 0.463944
v 0.293026 0.721574 -0.600194
v 0.310948 -0.609311 -0.595699
v -0.341188 -0.609311 -0.574729
v -0.335058 0.721574 -0.581274
v -0.355266 -0.609311 -0.542905
v 0.354819 -0.103287 0.463944
v 0.302143 0.721574 -0.598496
v 0.319285 -0.609311 -0.591850
v -0.346352 -0.609311 -0.567492
v -0.355873 -0.609311 -0.534220
v -0.353451 -0.609311 -0.551441
v -0.355873 -0.556075 0.463944
v 0.354819 -0.609311 -0.534220
v -0.341188 0.721574 -0.574729
v 0.310948 0.721574 -0.595699
v 0.327014 -0.609311 -0.587013
v -0.350464 -0.609311 -0.559685
v -0.355873 -0.103106 0.462565
v -0.355266 0.721574 -0.542905
v -0.353451 0.721574 -0.551441
v -0.355873 -0.103287 0.463944
v 0.354819 -0.103106 0.462565
v 0.354819 -0.102574 0.461282
v 0.354819 -0.101727 0.460180
v 0.354212 -0.609311 -0.542905
v -0.346352 0.721574 -0.567492
v 0.319285 0.721574 -0.591850
v 0.334004 -0.609311 -0.581274
v -0.355873 -0.102574 0.461282
v -0.355873 -0.101727 0.460180
v -0.355873 -0.100626 0.459333
v -0.355873 0.721574 -0.534220
v -0.350464 0.721574 -0.559685
v 0.354819 -0.100626 0.459333
v 0.354819 -0.099340 0.458801
v 0.354819 -0.097964 0.458620
v 0.352397 -0.609311 -0.551441
v 0.327014 0.721574 -0.587013
v 0.340134 -0.609311 -0.574729
v -0.355873 -0.099340 0.458801
v -0.355873 -0.097964 0.458620
v -0.355873 0.718912 -0.531558
v -0.355873 0.719002 -0.532247
v -0.355873 0.719269 -0.532889
v -0.355873 0.719692 -0.533440
v -0.355873 0.720243 -0.533863
v -0.355873 0.720884 -0.534129
v 0.354819 0.602654 0.457345
v 0.349410 -0.609311 -0.559685
v 0.354212 0.721574 -0.542905
v 0.354819 0.720884 -0.534129
v 0.354819 0.719002 -0.532247
v 0.354819 0.718912 -0.531558
v 0.354819 0.719269 -0.532889
v 0.354819 0.719692 -0.533440
v 0.354819 0.720243 -0.533863
v 0.334004 0.721574 -0.581274
v 0.340134 0.721574 -0.574729
v 0.345298 -0.609311 -0.567492
v -0.355873 0.602654 0.457345
v -0.355873 0.719002 -0.530869
v 0.354819 0.719002 -0.530869
v 0.354819 0.719269 -0.530227
v -0.355873 0.719269 -0.530227
v 0.354819 0.719692 -0.529676
v -0.355873 0.719692 -0.529676
v -0.355873 0.720243 -0.529253
v -0.355873 0.720884 -0.528987
v 0.354819 0.720243 -0.529253
v 0.354819 0.618893 0.452264
v 0.354819 -0.096585 0.458801
v 0.354819 -0.095302 0.459333
v -0.355873 -0.096585 0.458801
v 0.352397 0.721574 -0.551441
v 0.345298 0.721574 -0.567492
v -0.355873 0.618893 0.452264
v -0.355873 0.721574 0.366983
v -0.355873 0.721574 -0.528896
v 0.354819 0.720884 -0.528987
v -0.300176 0.721574 -0.491876
v 0.354819 0.721574 -0.528896
v 0.354819 0.634635 0.445796
v 0.354819 0.586034 0.461002
v 0.354819 -0.094197 0.460180
v -0.355873 -0.095302 0.459333
v 0.349410 0.721574 -0.559685
v -0.355873 -0.094197 0.460180
v -0.355873 0.634635 0.445796
v -0.355873 0.712327 0.381269
v -0.333424 0.721574 -0.446043
v -0.308789 0.721574 -0.490889
v -0.291629 0.721574 -0.490322
v 0.354819 0.649756 0.437989
v -0.355873 0.586034 0.461002
v 0.354819 -0.093354 0.461282
v 0.354819 -0.092821 0.462565
v 0.354819 0.569158 0.463206
v -0.355873 -0.092821 0.462565
v -0.355873 -0.093354 0.461282
v 0.354819 0.721574 0.366983
v -0.355873 0.649756 0.437989
v -0.355873 0.701877 0.394700
v 0.354819 0.712327 0.381269
v -0.330347 0.721574 -0.436951
v -0.334302 0.721574 -0.455721
v -0.316884 0.721574 -0.487431
v -0.305214 0.708265 -0.473920
v -0.296085 0.708265 -0.473617
v -0.283731 0.721574 -0.486337
v 0.354819 0.664146 0.428904
v 0.354819 0.552157 0.463944
v -0.355873 0.569158 0.463206
v -0.355873 -0.092640 0.463944
v 0.354819 -0.092640 0.463944
v 0.335929 0.721574 -0.453531
v -0.355873 0.664146 0.428904
v -0.355873 0.690306 0.407179
v 0.354819 0.701877 0.394700
v -0.325281 0.721574 -0.429061
v -0.318321 0.708265 -0.450060
v -0.318787 0.708265 -0.455210
v -0.332921 0.721574 -0.465325
v -0.323903 0.721574 -0.481740
v -0.309521 0.708265 -0.472081
v -0.300634 0.708265 -0.474444
v -0.291884 0.708265 -0.471498
v -0.277021 0.721574 -0.480191
v 0.354819 0.677697 0.418608
v -0.355873 0.552157 0.463944
v 0.334544 0.721574 -0.443927
v 0.335050 0.721574 -0.463209
v -0.355873 0.677697 0.418608
v 0.354819 0.690306 0.407179
v -0.316684 0.708265 -0.445223
v -0.329373 0.721574 -0.474199
v -0.313256 0.708265 -0.469052
v -0.301669 0.708265 -0.434811
v -0.306215 0.708265 -0.435636
v -0.297088 0.708265 -0.435335
v -0.292781 0.708265 -0.437174
v -0.288312 0.708265 -0.468226
v -0.271953 0.721574 -0.472302
v 0.330999 0.721574 -0.435053
v 0.320413 0.708265 -0.454045
v 0.331973 0.721574 -0.472302
v -0.318571 0.721574 -0.422915
v -0.313988 0.708265 -0.441026
v -0.318052 0.708265 -0.460318
v -0.316165 0.708265 -0.465040
v -0.310418 0.708265 -0.437757
v -0.289047 0.708265 -0.440201
v -0.285618 0.708265 -0.464032
v -0.268876 0.721574 -0.463209
v 0.325529 0.721574 -0.427512
v 0.319678 0.708265 -0.448934
v 0.326908 0.721574 -0.480191
v 0.319947 0.708265 -0.459192
v -0.310674 0.721574 -0.418931
v -0.302127 0.721574 -0.417379
v -0.293513 0.721574 -0.418364
v -0.285419 0.721574 -0.421821
v -0.286135 0.708265 -0.444215
v -0.283981 0.708265 -0.459192
v -0.268000 0.721574 -0.453531
v 0.318507 0.721574 -0.421821
v 0.317791 0.708265 -0.444215
v 0.320195 0.721574 -0.486337
v 0.318310 0.708265 -0.464032
v -0.278400 0.721574 -0.427512
v -0.284250 0.708265 -0.448934
v -0.283513 0.708265 -0.454045
v 0.287045 0.721574 -0.487431
v 0.310416 0.721574 -0.418364
v 0.314879 0.708265 -0.440201
v 0.312297 0.721574 -0.490322
v 0.315614 0.708265 -0.468226
v -0.272927 0.721574 -0.435053
v -0.269382 0.721574 -0.443927
v 0.280023 0.721574 -0.481740
v 0.295137 0.721574 -0.490889
v 0.301802 0.721574 -0.417379
v 0.311145 0.708265 -0.437174
v 0.303750 0.721574 -0.491876
v 0.312045 0.708265 -0.471498
v 0.274553 0.721574 -0.474199
v 0.290670 0.708265 -0.469052
v 0.294408 0.708265 -0.472081
v 0.293255 0.721574 -0.418931
v 0.302257 0.708265 -0.434811
v 0.306841 0.708265 -0.435335
v 0.307842 0.708265 -0.473617
v 0.270502 0.721574 -0.446043
v 0.271005 0.721574 -0.465325
v 0.287761 0.708265 -0.465040
v 0.298712 0.708265 -0.473920
v 0.285355 0.721574 -0.422915
v 0.297711 0.708265 -0.435636
v 0.273579 0.721574 -0.436951
v 0.269624 0.721574 -0.455721
v 0.285874 0.708265 -0.460318
v 0.293508 0.708265 -0.437757
v 0.289939 0.708265 -0.441026
v 0.303295 0.708265 -0.474444
v 0.278645 0.721574 -0.429061
v 0.285605 0.708265 -0.450060
v 0.285139 0.708265 -0.455210
v 0.287242 0.708265 -0.445223
vn 0 -1 0
vn -0.2751260469997866 0 -0.9614081642373706
vn -0.1392350506602647 0 -0.990259360302963
vn 0 0 -1
vn -1 0 0
vn -0.4045610056958145 0 -0.9145110128754007
vn -0.0698299934575933 0 -0.9975589065382117
vn 1 0 0
vn 0 0 1
vn 0 1 0
vn -0.5248541201443704 0 -0.8511921948464275
vn -0.49245614638138013 -0.8703372587056127 0
vn 0.0698299934575933 0 -0.9975589065382117
vn 0.1392350506602647 0 -0.990259360302963
vn 0.484754992116672 -0.8746499857760048 0
vn -0.6338510864490541 0 -0.7734551054892287
vn 0.2751260469997866 0 -0.9614081642373706
vn -0.729963330832231 0 -0.6834863097680268
vn 0.4045610056958145 0 -0.9145110128754007
vn -0.8121226563511827 0 -0.5834867530982161
vn 0.5248541201443704 0 -0.8511921948464275
vn -0.8796881183422515 0 -0.47555106397470015
vn -0.9981221487656259 0 -0.06125500912978415
vn -0.9924877595797943 0 -0.1223439703634002
vn -0.9699392783095667 0 -0.2433470698248015
vn 0.6338510864490541 0 -0.7734551054892287
vn -0.9323344298225871 0 -0.36159716670266023
vn 0 0.8660253028382761 0.500000174843842
vn 0 0.7071067811865476 0.7071067811865478
vn 0 0.9659258492011171 0.2588189595935757
vn 0 0.9914448886106773 0.13052598533534132
vn 0.9924877595797943 0 -0.1223439703634002
vn 0.9981221487656259 0 -0.06125500912978415
vn 0.729963330832231 0 -0.6834863097680268
vn 0 0.5000001748438415 0.8660253028382763
vn 0 0.2588189595935752 0.9659258492011171
vn 0.9699392783095667 0 -0.2433470698248015
vn 0.8121226563511827 0 -0.5834867530982161
vn 0 0.8660253028382763 -0.5000001748438415
vn 0 0.9659258492011171 -0.2588189595935752
vn 0 0.7071067811865478 -0.7071067811865476
vn 0 0.500000174843842 -0.8660253028382761
vn 0 0.2588189595935757 -0.9659258492011171
vn 0 0.13052598533534088 0.9914448886106773
vn 0 -0.2588189595935757 0.9659258492011171
vn 0.9323344298225871 0 -0.36159716670266023
vn 0.8796881183422515 0 -0.47555106397470015
vn 0 0.13052598533534132 -0.9914448886106773
vn 0 0.33964908356981793 0.9405522314205538
vn 0 0.256991883395099 0.9664135615092744
vn 0 -0.500000174843842 0.8660253028382761
vn 0 0.4197588475064654 0.9076356702664589
vn 0 0.172405995731917 0.9850259756146973
vn 0 -0.9659258492011171 0.2588189595935752
vn 0 -0.8660253028382763 0.5000001748438415
vn 0 -0.7071067811865478 0.7071067811865476
vn 0 0.8151541405113919 0.5792440998466313
vn 0 0.8394739342372934 0.543399957431136
vn 0.177503026481501 0.7900421178656022 0.5867930875430807
vn -0.022784004154595184 0.7948751449431112 0.6063451105652222
vn -0.22052606257913068 0.7873582234302493 0.5757041633687452
vn 0 0.4967199348499691 0.8679108861643818
vn 0 0.08652803613476416 0.9962494160413148
vn 0 -0.9914448886106773 0.13052598533534088
vn 0 0.7619765486989492 0.6476046164387943
vn 0.6289411755293303 0.730869203976122 -0.26507207397818
vn 0.6838236097594148 0.7185815899239275 -0.1265929277566647
vn 0.6989706850893134 0.7149696778812087 0.016072992758555997
vn 0.3586500603132891 0.7746981302790586 0.5207810875784611
vn -0.39495306004491576 0.7703211171123133 0.5006170761090704
vn 0 0.5699561004373876 0.821675144795196
vn 0 0.04330399748273848 0.9990619419245309
vn 0 0.703082897155502 0.7111078959816335
vn 0.5327298589211656 0.7495318015071408 -0.39293889594095277
vn 0.675011924132714 0.7206379190046263 0.15823998221477661
vn 0.5053479956494592 0.7542049935070492 0.4192829963903929
vn -0.5327298589211656 0.7495318015071406 0.3929388959409531
vn 0 0.6389157579196569 0.7692767085268801
vn -0.6989706850893134 0.7149696778812087 -0.016072992758555678
vn -0.675011924132714 0.7206379190046263 -0.15823998221477628
vn -0.6838236097594146 0.7185815899239274 0.126592927756665
vn 0.6109889207055574 0.7346239046601484 0.29499196171579833
vn -0.6289411755293303 0.7308692039761218 0.26507207397818033
vn -0.6109889207055574 0.7346239046601486 -0.294991961715798
vn 0.3949530600449158 0.7703211171123138 -0.50061707610907
vn 0.22052606257913074 0.7873582234302496 -0.5757041633687449
vn 0.022784004154595184 0.7948751449431114 -0.6063451105652218
vn -0.177503026481501 0.7900421178656024 -0.5867930875430802
vn -0.3586500603132891 0.7746981302790589 -0.5207810875784606
vn -0.5053479956494592 0.7542049935070494 -0.41928299639039257
vn 0.2751260469997866 0 0.9614081642373706
vn 0.1392350506602647 0 0.990259360302963
vn 0.4045610056958145 0 0.9145110128754007
vn 0.0698299934575933 0 0.9975589065382117
vn 0.5248541201443704 0 0.8511921948464275
vn 0.49245614638138013 0.8703372587056127 0
vn -0.0698299934575933 0 0.9975589065382117
vn -0.1392350506602647 0 0.990259360302963
vn -0.484754992116672 0.8746499857760048 0
vn 0.6338510864490541 0 0.7734551054892287
vn -0.2751260469997866 0 0.9614081642373706
vn 0.729963330832231 0 0.6834863097680268
vn -0.4045610056958145 0 0.9145110128754007
vn 0.8121226563511827 0 0.5834867530982161
vn -0.5248541201443704 0 0.8511921948464275
vn 0.8796881183422515 0 0.47555106397470015
vn 0.9924877595797943 0 0.1223439703634002
vn 0.9981221487656259 0 0.06125500912978415
vn 0.9699392783095667 0 0.2433470698248015
vn -0.6338510864490541 0 0.7734551054892287
vn 0.9323344298225871 0 0.36159716670266023
vn 0 -0.8660253028382761 -0.500000174843842
vn 0 -0.7071067811865476 -0.7071067811865478
vn 0 -0.9659258492011171 -0.2588189595935757
vn 0 -0.9914448886106773 -0.13052598533534132
vn -0.9981221487656259 0 0.06125500912978415
vn -0.9924877595797943 0 0.1223439703634002
vn -0.729963330832231 0 0.6834863097680268
vn 0 -0.2588189595935752 -0.9659258492011171
vn 0 -0.5000001748438415 -0.8660253028382763
vn -0.9699392783095667 0 0.2433470698248015
vn -0.8121226563511827 0 0.5834867530982161
vn 0 -0.13052598533534088 -0.9914448886106773
vn -0.9323344298225871 0 0.36159716670266023
vn -0.8796881183422515 0 0.47555106397470015
vn 0 -0.13052598533534132 0.9914448886106773
vn 0 -0.256991883395099 -0.9664135615092744
vn 0 -0.33964908356981793 -0.9405522314205538
vn 0 -0.4197588475064654 -0.9076356702664589
vn 0 -0.172405995731917 -0.9850259756146973
vn 0 -0.8151541405113919 -0.5792440998466313
vn 0 -0.8394739342372934 -0.543399957431136
vn -0.177503026481501 -0.7900421178656022 -0.5867930875430807
vn 0.022784004154595184 -0.7948751449431112 -0.6063451105652222
vn 0.22052606257913068 -0.7873582234302493 -0.5757041633687452
vn 0 -0.4967199348499691 -0.8679108861643818
vn 0 -0.08652803613476416 -0.9962494160413148
vn 0 0.9914448886106773 -0.13052598533534088
vn 0 -0.7619765486989492 -0.6476046164387943
vn -0.6838236097594148 -0.7185815899239275 0.1265929277566647
vn -0.6289411755293303 -0.730869203976122 0.26507207397818
vn -0.6989706850893134 -0.7149696778812087 -0.016072992758555997
vn -0.3586500603132891 -0.7746981302790586 -0.5207810875784611
vn 0.39495306004491576 -0.7703211171123133 -0.5006170761090704
vn 0 -0.5699561004373876 -0.821675144795196
vn 0 -0.04330399748273848 -0.9990619419245309
vn 0 -0.703082897155502 -0.7111078959816335
vn -0.5327298589211656 -0.7495318015071408 0.39293889594095277
vn -0.675011924132714 -0.7206379190046263 -0.15823998221477661
vn -0.5053479956494592 -0.7542049935070492 -0.4192829963903929
vn 0.5327298589211656 -0.7495318015071406 -0.3929388959409531
vn 0 -0.6389157579196569 -0.7692767085268801
vn 0.6989706850893134 -0.7149696778812087 0.016072992758555678
vn 0.675011924132714 -0.7206379190046263 0.15823998221477628
vn 0.6838236097594146 -0.7185815899239274 -0.126592927756665
vn -0.6109889207055574 -0.7346239046601484 -0.29499196171579833
vn 0.6289411755293303 -0.7308692039761218 -0.26507207397818033
vn 0.6109889207055574 -0.7346239046601486 0.294991961715798
vn -0.3949530600449158 -0.7703211171123138 0.50061707610907
vn -0.022784004154595184 -0.7948751449431114 0.6063451105652218
vn -0.22052606257913074 -0.7873582234302496 0.5757041633687449
vn 0.177503026481501 -0.7900421178656024 0.5867930875430802
vn 0.3586500603132891 -0.7746981302790589 0.5207810875784606
vn 0.5053479956494592 -0.7542049935070494 0.41928299639039257
usemtl material_0_0
f 1//1 2//1 3//1
f 2//1 1//1 4//1
f 5//1 3//1 2//1
f 6//2 1//3 3//2
f 4//1 1//1 7//1
f 8//4 2//4 4//4
f 5//1 9//1 3//1
f 2//5 10//5 5//5
f 1//3 6//2 11//3
f 3//2 12//6 6//2
f 11//3 7//7 1//3
f 4//1 7//1 13//1
f 8//4 14//4 2//4
f 15//8 8//8 4//8
f 5//1 16//1 9//1
f 12//6 3//2 9//6
f 10//5 2//5 14//5
f 10//9 15//9 5//9
f 6//10 17//10 11//10
f 12//10 17//10 6//10
f 7//7 11//3 18//7
f 18//4 13//4 7//4
f 4//1 13//1 19//1
f 20//4 14//4 8//4
f 8//8 15//8 21//8
f 4//1 22//1 15//1
f 5//1 23//1 16//1
f 24//11 9//6 16//11
f 9//6 24//11 12//6
f 25//12 10//12 14//12
f 10//9 21//9 15//9
f 26//1 5//1 15//1
f 11//10 17//10 18//10
f 24//10 17//10 12//10
f 13//4 18//4 27//4
f 27//13 19//14 13//13
f 4//1 19//1 22//1
f 14//4 20//4 25//4
f 8//15 28//15 20//15
f 28//15 8//15 21//15
f 29//1 15//1 22//1
f 5//1 30//1 23//1
f 31//16 16//11 23//16
f 16//11 31//16 24//11
f 10//12 25//12 32//12
f 32//9 21//9 10//9
f 33//1 5//1 26//1
f 26//1 15//1 29//1
f 18//10 17//10 27//10
f 31//10 17//10 24//10
f 19//14 27//13 34//14
f 34//14 22//17 19//14
f 20//1 32//1 25//1
f 32//1 20//1 28//1
f 21//9 32//9 28//9
f 29//1 22//1 35//1
f 5//1 36//1 30//1
f 37//18 23//16 30//18
f 23//16 37//18 31//16
f 33//1 38//1 5//1
f 26//9 39//9 33//9
f 39//9 26//9 29//9
f 27//10 17//10 34//10
f 37//10 17//10 31//10
f 22//17 34//14 40//17
f 40//17 35//19 22//17
f 29//1 35//1 41//1
f 5//1 42//1 36//1
f 36//20 37//18 30//18
f 38//1 33//1 43//1
f 5//1 38//1 44//1
f 33//9 39//9 45//9
f 46//8 39//8 29//8
f 34//10 17//10 40//10
f 47//10 17//10 37//10
f 35//19 40//17 48//19
f 48//19 41//21 35//19
f 29//1 41//1 49//1
f 5//1 50//1 42//1
f 42//22 47//20 36//20
f 37//18 36//20 47//20
f 33//5 51//5 43//5
f 43//23 52//24 38//24
f 38//24 53//25 44//25
f 5//1 44//1 50//1
f 45//9 39//9 54//9
f 45//5 51//5 33//5
f 39//8 46//8 55//8
f 55//8 46//8 56//8
f 56//8 46//8 57//8
f 29//1 58//1 46//1
f 40//10 17//10 48//10
f 59//10 17//10 47//10
f 41//21 48//19 60//21
f 60//21 49//26 41//21
f 29//1 49//1 61//1
f 50//27 59//22 42//22
f 47//20 42//22 59//22
f 43//5 51//5 62//5
f 43//5 62//5 63//5
f 43//5 63//5 64//5
f 52//24 43//23 65//23
f 53//25 38//24 52//24
f 66//27 44//25 53//25
f 44//25 66//27 50//27
f 56//28 63//29 62//28
f 55//30 62//28 51//30
f 62//28 55//30 56//28
f 39//31 51//30 54//31
f 51//30 39//31 55//30
f 51//5 45//5 54//5
f 57//8 46//8 67//8
f 67//8 46//8 68//8
f 68//8 46//8 69//8
f 29//1 70//1 58//1
f 58//32 17//33 46//33
f 48//10 17//10 60//10
f 66//10 17//10 59//10
f 49//26 60//21 71//26
f 71//26 61//34 49//26
f 29//1 61//1 72//1
f 59//22 50//27 66//27
f 43//5 64//5 73//5
f 43//5 73//5 74//5
f 43//5 75//5 76//5
f 43//5 76//5 77//5
f 43//5 77//5 78//5
f 43//5 78//5 79//5
f 43//5 79//5 80//5
f 43//5 80//5 65//5
f 17//10 52//10 65//10
f 52//10 17//10 53//10
f 53//10 17//10 66//10
f 63//29 56//28 57//29
f 64//35 68//36 73//36
f 63//29 67//35 64//35
f 69//8 46//8 81//8
f 69//9 73//36 68//36
f 68//36 64//35 67//35
f 67//35 63//29 57//29
f 29//1 82//1 70//1
f 70//37 83//32 58//32
f 17//33 58//32 83//32
f 84//8 46//8 17//8
f 60//10 17//10 71//10
f 61//34 71//26 90//34
f 61//34 91//38 72//38
f 29//1 72//1 92//1
f 43//5 74//5 93//5
f 43//5 94//5 75//5
f 96//39 94//40 97//39
f 98//41 97//39 99//41
f 100//42 98//41 99//41
f 101//43 102//42 100//42
f 80//36 17//44 65//44
f 79//35 84//36 80//36
f 78//29 89//35 79//35
f 87//28 78//29 77//28
f 85//30 77//28 76//30
f 17//44 80//36 84//36
f 84//36 79//35 89//35
f 89//35 78//29 88//29
f 78//29 87//28 88//29
f 77//28 85//30 87//28
f 76//30 86//10 85//30
f 73//36 69//9 74//9
f 81//8 46//8 103//8
f 81//8 104//8 69//8
f 104//45 74//9 69//9
f 74//9 104//45 106//45
f 29//1 92//1 82//1
f 82//46 107//37 70//37
f 83//32 70//37 107//37
f 107//10 17//10 83//10
f 85//8 46//8 87//8
f 87//8 46//8 88//8
f 88//8 46//8 89//8
f 89//8 46//8 84//8
f 86//8 46//8 85//8
f 71//10 17//10 90//10
f 91//38 61//34 90//34
f 108//47 72//38 91//38
f 72//38 108//47 92//47
f 106//5 93//5 74//5
f 43//5 93//5 109//5
f 43//5 110//5 111//5
f 43//5 111//5 101//5
f 43//5 101//5 100//5
f 43//5 100//5 99//5
f 43//5 99//5 97//5
f 43//5 97//5 94//5
f 86//10 76//30 75//10
f 95//40 75//10 94//40
f 75//10 95//40 86//10
f 94//40 96//39 95//40
f 97//39 98//41 96//39
f 98//41 100//42 102//42
f 102//42 101//43 112//43
f 111//10 113//10 114//10
f 111//48 112//43 101//43
f 112//43 111//48 114//48
f 103//8 46//8 115//8
f 103//49 93//50 81//50
f 105//51 106//45 104//45
f 116//8 117//8 81//8
f 81//8 117//8 105//8
f 81//8 105//8 104//8
f 92//47 119//46 82//46
f 107//37 82//46 119//46
f 119//10 17//10 107//10
f 95//8 46//8 86//8
f 90//10 17//10 91//10
f 91//10 17//10 108//10
f 119//46 92//47 108//47
f 93//50 103//49 109//49
f 43//5 109//5 121//5
f 43//5 122//5 110//5
f 110//10 123//10 111//10
f 114//8 46//8 112//8
f 112//8 46//8 102//8
f 102//8 46//8 98//8
f 98//8 46//8 96//8
f 96//8 46//8 95//8
f 113//10 111//10 124//10
f 114//10 113//10 125//10
f 115//8 46//8 126//8
f 115//52 109//49 103//49
f 127//53 81//50 93//50
f 106//45 105//51 118//51
f 116//8 128//8 117//8
f 81//50 127//53 116//53
f 131//54 128//55 129//54
f 132//55 117//56 128//55
f 117//56 118//51 105//51
f 120//5 93//5 118//5
f 108//10 17//10 119//10
f 133//8 46//8 114//8
f 120//5 127//5 93//5
f 118//5 93//5 106//5
f 109//49 115//52 121//52
f 43//5 121//5 134//5
f 43//5 135//5 122//5
f 136//57 110//58 122//57
f 123//10 110//10 137//10
f 111//10 123//10 138//10
f 124//10 111//10 139//10
f 140//59 113//60 124//59
f 113//60 141//61 125//61
f 114//10 125//10 142//10
f 126//8 46//8 143//8
f 126//62 121//52 115//52
f 116//8 129//8 128//8
f 144//8 129//8 130//8
f 130//8 129//8 116//8
f 116//53 145//63 130//63
f 145//63 116//53 127//53
f 128//55 131//54 132//55
f 129//54 146//64 131//54
f 146//64 129//54 147//64
f 117//56 132//55 120//56
f 144//9 146//9 147//9
f 118//51 117//56 120//56
f 136//8 46//8 133//8
f 148//10 133//10 114//10
f 132//5 127//5 120//5
f 121//52 126//62 134//62
f 43//5 134//5 149//5
f 43//5 150//5 135//5
f 151//65 122//57 135//65
f 110//58 136//57 133//58
f 122//57 151//65 136//57
f 137//10 110//10 152//10
f 137//66 153//67 123//67
f 123//67 154//68 138//68
f 155//10 111//10 138//10
f 139//10 111//10 156//10
f 157//69 124//59 139//69
f 113//60 140//59 158//60
f 124//59 157//69 140//59
f 141//61 113//60 158//60
f 159//70 125//61 141//61
f 125//61 159//70 142//70
f 114//10 142//10 160//10
f 143//8 46//8 161//8
f 143//71 134//62 126//62
f 129//8 144//8 147//8
f 130//63 162//72 144//72
f 162//72 130//63 145//63
f 131//5 145//5 127//5
f 146//9 144//9 162//9
f 146//5 145//5 131//5
f 151//8 46//8 136//8
f 163//10 133//10 148//10
f 114//10 164//10 148//10
f 131//5 127//5 132//5
f 134//62 143//71 149//71
f 43//5 149//5 165//5
f 43//5 165//5 150//5
f 166//73 135//65 150//73
f 135//65 166//73 151//65
f 152//10 110//10 133//10
f 152//74 167//66 137//66
f 153//67 137//66 167//66
f 154//68 123//67 153//67
f 154//68 155//75 138//68
f 168//10 111//10 155//10
f 156//10 111//10 168//10
f 169//76 139//69 156//76
f 139//69 169//76 157//69
f 140//10 170//10 158//10
f 157//10 171//10 140//10
f 158//10 172//10 141//10
f 141//10 173//10 159//10
f 174//77 142//70 159//70
f 142//70 174//77 160//77
f 114//10 160//10 175//10
f 161//8 46//8 166//8
f 161//78 149//71 143//71
f 145//5 146//5 162//5
f 166//8 46//8 151//8
f 176//10 133//10 163//10
f 177//79 163//80 148//79
f 114//10 178//10 164//10
f 164//81 177//79 148//79
f 149//71 161//78 165//78
f 165//78 166//73 150//73
f 152//10 133//10 179//10
f 167//66 152//74 180//74
f 181//10 153//10 167//10
f 153//10 181//10 154//10
f 155//75 154//68 181//75
f 181//75 168//82 155//75
f 182//82 156//76 168//82
f 156//76 182//82 169//76
f 169//10 183//10 157//10
f 140//10 171//10 170//10
f 158//10 170//10 172//10
f 157//10 183//10 171//10
f 141//10 172//10 173//10
f 159//10 173//10 184//10
f 159//10 184//10 174//10
f 185//83 160//77 174//77
f 160//77 185//83 175//83
f 114//10 175//10 186//10
f 166//73 165//78 161//78
f 187//10 133//10 176//10
f 188//80 176//84 163//80
f 163//80 177//79 188//80
f 114//10 189//10 178//10
f 178//83 190//81 164//81
f 177//79 164//81 190//81
f 179//10 133//10 191//10
f 179//85 180//74 152//74
f 182//10 167//10 180//10
f 181//10 167//10 182//10
f 168//82 181//75 182//82
f 182//10 180//10 169//10
f 169//10 180//10 183//10
f 171//86 192//87 170//87
f 170//87 193//88 172//88
f 183//85 191//86 171//86
f 193//88 173//89 172//88
f 194//89 184//90 173//89
f 174//10 184//10 195//10
f 174//10 195//10 185//10
f 196//81 175//83 185//83
f 175//83 196//81 186//81
f 114//10 186//10 197//10
f 198//10 133//10 187//10
f 199//84 187//90 176//84
f 176//84 188//80 199//84
f 190//10 188//10 177//10
f 114//10 200//10 189//10
f 189//77 201//83 178//83
f 190//81 178//83 201//83
f 191//10 133//10 192//10
f 191//86 183//85 179//85
f 180//74 179//85 183//85
f 192//87 171//86 191//86
f 193//88 170//87 192//87
f 173//89 193//88 194//89
f 184//90 194//89 202//90
f 202//90 195//84 184//90
f 185//10 195//10 203//10
f 185//10 203//10 196//10
f 204//79 186//81 196//81
f 186//81 204//79 197//79
f 114//10 197//10 205//10
f 206//10 133//10 198//10
f 207//90 198//89 187//90
f 187//90 199//84 207//90
f 201//10 199//10 188//10
f 201//10 188//10 190//10
f 114//10 208//10 200//10
f 200//70 209//77 189//77
f 201//83 189//77 209//77
f 192//10 133//10 193//10
f 193//10 133//10 194//10
f 194//10 133//10 202//10
f 195//84 202//90 210//84
f 210//84 203//80 195//84
f 196//10 203//10 204//10
f 204//79 211//80 197//79
f 205//10 197//10 212//10
f 114//10 205//10 213//10
f 214//10 133//10 206//10
f 215//89 206//88 198//89
f 198//89 207//90 215//89
f 209//10 207//10 199//10
f 209//10 199//10 201//10
f 114//10 216//10 208//10
f 208//61 217//70 200//70
f 209//77 200//70 217//70
f 202//10 133//10 210//10
f 203//80 210//84 211//80
f 211//80 204//79 203//80
f 211//10 133//10 197//10
f 212//10 197//10 218//10
f 219//76 205//69 212//76
f 220//69 213//59 205//69
f 114//10 213//10 216//10
f 221//10 133//10 214//10
f 206//88 222//87 214//87
f 206//88 215//89 223//88
f 217//10 215//10 207//10
f 217//10 207//10 209//10
f 217//70 208//61 224//61
f 210//10 133//10 211//10
f 197//10 133//10 225//10
f 218//10 197//10 226//10
f 227//82 212//76 218//82
f 205//69 219//76 220//69
f 212//76 227//82 219//76
f 213//59 220//69 228//59
f 228//59 216//60 213//59
f 229//10 133//10 221//10
f 214//87 230//86 221//86
f 222//87 206//88 223//88
f 230//86 214//87 222//87
f 224//10 223//10 215//10
f 224//10 215//10 217//10
f 216//60 224//61 208//61
f 225//10 133//10 231//10
f 197//10 225//10 232//10
f 226//10 197//10 232//10
f 233//75 218//82 226//75
f 218//82 233//75 227//82
f 219//10 234//10 220//10
f 227//10 235//10 219//10
f 220//10 230//10 228//10
f 216//60 228//59 236//60
f 237//10 133//10 229//10
f 221//86 234//85 229//85
f 234//85 221//86 230//86
f 236//10 222//10 223//10
f 228//10 230//10 222//10
f 236//10 223//10 224//10
f 224//61 216//60 236//60
f 231//10 133//10 237//10
f 231//66 238//67 225//67
f 225//67 239//68 232//68
f 239//68 226//75 232//68
f 226//75 239//68 233//75
f 233//10 240//10 227//10
f 219//10 235//10 234//10
f 220//10 234//10 230//10
f 227//10 240//10 235//10
f 228//10 222//10 236//10
f 229//85 235//74 237//74
f 235//74 229//85 234//85
f 237//74 240//66 231//66
f 238//67 231//66 240//66
f 239//68 225//67 238//67
f 238//10 233//10 239//10
f 233//10 238//10 240//10
f 240//66 237//74 235//74
usemtl material_1_0
f 3//10 2//10 1//10
f 4//10 1//10 2//10
f 2//10 3//10 5//10
f 3//91 1//92 6//91
f 7//10 1//10 4//10
f 4//9 2//9 8//9
f 3//10 9//10 5//10
f 5//8 10//8 2//8
f 11//92 6//91 1//92
f 6//91 12//93 3//91
f 1//92 7//94 11//92
f 13//10 7//10 4//10
f 2//9 14//9 8//9
f 4//5 8//5 15//5
f 9//10 16//10 5//10
f 9//93 3//91 12//93
f 14//8 2//8 10//8
f 5//4 15//4 10//4
f 11//1 17//1 6//1
f 6//1 17//1 12//1
f 18//94 11//92 7//94
f 7//9 13//9 18//9
f 19//10 13//10 4//10
f 8//9 14//9 20//9
f 21//5 15//5 8//5
f 15//10 22//10 4//10
f 16//10 23//10 5//10
f 16//95 9//93 24//95
f 12//93 24//95 9//93
f 14//96 10//96 25//96
f 15//4 21//4 10//4
f 15//10 5//10 26//10
f 18//1 17//1 11//1
f 12//1 17//1 24//1
f 27//9 18//9 13//9
f 13//97 19//98 27//97
f 22//10 19//10 4//10
f 25//9 20//9 14//9
f 20//99 28//99 8//99
f 21//99 8//99 28//99
f 22//10 15//10 29//10
f 23//10 30//10 5//10
f 23//100 16//95 31//100
f 24//95 31//100 16//95
f 32//96 25//96 10//96
f 10//4 21//4 32//4
f 26//10 5//10 33//10
f 29//10 15//10 26//10
f 27//1 17//1 18//1
f 24//1 17//1 31//1
f 34//98 27//97 19//98
f 19//98 22//101 34//98
f 25//10 32//10 20//10
f 28//10 20//10 32//10
f 28//4 32//4 21//4
f 35//10 22//10 29//10
f 30//10 36//10 5//10
f 30//102 23//100 37//102
f 31//100 37//102 23//100
f 5//10 38//10 33//10
f 33//4 39//4 26//4
f 29//4 26//4 39//4
f 34//1 17//1 27//1
f 31//1 17//1 37//1
f 40//101 34//98 22//101
f 22//101 35//103 40//101
f 41//10 35//10 29//10
f 36//10 42//10 5//10
f 30//102 37//102 36//104
f 43//10 33//10 38//10
f 44//10 38//10 5//10
f 45//4 39//4 33//4
f 29//5 39//5 46//5
f 40//1 17//1 34//1
f 37//1 17//1 47//1
f 48//103 40//101 35//103
f 35//103 41//105 48//103
f 49//10 41//10 29//10
f 42//10 50//10 5//10
f 36//104 47//104 42//106
f 47//104 36//104 37//102
f 43//8 51//8 33//8
f 38//107 52//107 43//108
f 44//109 53//109 38//107
f 50//10 44//10 5//10
f 54//4 39//4 45//4
f 33//8 51//8 45//8
f 55//5 46//5 39//5
f 46//10 58//10 29//10
f 48//1 17//1 40//1
f 47//1 17//1 59//1
f 60//105 48//103 41//105
f 41//105 49//110 60//105
f 61//10 49//10 29//10
f 42//106 59//106 50//111
f 59//106 42//106 47//104
f 62//8 51//8 43//8
f 63//8 62//8 43//8
f 65//108 43//108 52//107
f 52//107 38//107 53//109
f 53//109 44//109 66//111
f 50//111 66//111 44//109
f 62//112 63//113 56//112
f 51//114 62//112 55//114
f 56//112 55//114 62//112
f 54//115 51//114 39//115
f 55//114 39//115 51//114
f 54//8 45//8 51//8
f 56//5 46//5 55//5
f 57//5 46//5 56//5
f 67//5 46//5 57//5
f 68//5 46//5 67//5
f 69//5 46//5 68//5
f 58//10 70//10 29//10
f 46//116 17//116 58//117
f 60//1 17//1 48//1
f 59//1 17//1 66//1
f 71//110 60//105 49//110
f 49//110 61//118 71//110
f 72//10 61//10 29//10
f 66//111 50//111 59//106
f 64//8 63//8 43//8
f 73//8 64//8 43//8
f 74//8 73//8 43//8
f 77//8 76//8 43//8
f 78//8 77//8 43//8
f 79//8 78//8 43//8
f 80//8 79//8 43//8
f 65//8 80//8 43//8
f 65//1 52//1 17//1
f 53//1 17//1 52//1
f 66//1 17//1 53//1
f 57//113 56//112 63//113
f 73//119 68//119 64//120
f 64//120 67//120 63//113
f 81//5 46//5 69//5
f 68//119 73//119 69//4
f 67//120 64//120 68//119
f 57//113 63//113 67//120
f 70//10 82//10 29//10
f 58//117 83//117 70//121
f 83//117 58//117 17//116
f 85//5 46//5 86//5
f 87//5 46//5 85//5
f 88//5 46//5 87//5
f 89//5 46//5 88//5
f 84//5 46//5 89//5
f 17//5 46//5 84//5
f 71//1 17//1 60//1
f 90//118 71//110 61//118
f 72//122 91//122 61//118
f 92//10 72//10 29//10
f 93//8 74//8 43//8
f 75//8 94//8 43//8
f 76//8 75//8 43//8
f 94//54 75//1 95//54
f 97//55 94//54 96//55
f 99//56 97//55 98//56
f 99//56 98//56 100//51
f 100//51 102//51 101//45
f 65//123 17//123 80//119
f 80//119 84//119 79//120
f 79//120 89//120 78//113
f 77//112 78//113 87//112
f 76//114 77//112 85//114
f 84//119 80//119 17//123
f 89//120 79//120 84//119
f 88//113 78//113 89//120
f 88//113 87//112 78//113
f 87//112 85//114 77//112
f 103//5 46//5 81//5
f 104//5 105//5 81//5
f 69//5 104//5 81//5
f 69//4 74//4 104//43
f 74//4 69//4 73//119
f 82//10 92//10 29//10
f 70//121 107//121 82//124
f 107//121 70//121 83//117
f 83//1 17//1 107//1
f 85//114 86//1 76//114
f 90//1 17//1 71//1
f 90//118 61//118 91//122
f 91//122 72//122 108//125
f 92//125 108//125 72//122
f 74//8 93//8 106//8
f 109//8 93//8 43//8
f 111//8 110//8 43//8
f 101//8 111//8 43//8
f 100//8 101//8 43//8
f 99//8 100//8 43//8
f 97//8 99//8 43//8
f 94//8 97//8 43//8
f 75//1 76//114 86//1
f 86//1 95//54 75//1
f 95//54 96//55 94//54
f 96//55 98//56 97//55
f 102//51 100//51 98//56
f 112//45 101//45 102//51
f 101//45 112//45 111//126
f 114//1 113//1 111//1
f 114//126 111//126 112//45
f 115//5 46//5 103//5
f 81//127 93//127 103//128
f 81//5 117//5 116//5
f 105//5 117//5 81//5
f 104//43 106//43 105//42
f 118//42 105//42 106//43
f 106//43 104//43 74//4
f 82//124 119//124 92//125
f 119//124 82//124 107//121
f 107//1 17//1 119//1
f 86//5 46//5 95//5
f 91//1 17//1 90//1
f 108//1 17//1 91//1
f 108//125 92//125 119//124
f 118//8 93//8 120//8
f 106//8 93//8 118//8
f 109//128 103//128 93//127
f 121//8 109//8 43//8
f 110//8 122//8 43//8
f 111//1 123//1 110//1
f 112//5 46//5 114//5
f 102//5 46//5 112//5
f 98//5 46//5 102//5
f 96//5 46//5 98//5
f 95//5 46//5 96//5
f 124//1 111//1 113//1
f 125//1 113//1 114//1
f 126//5 46//5 115//5
f 103//128 109//128 115//129
f 93//127 81//127 127//130
f 116//5 129//5 130//5
f 128//5 129//5 116//5
f 117//5 128//5 116//5
f 116//130 127//130 81//127
f 128//39 117//41 132//39
f 105//42 118//42 117//41
f 119//1 17//1 108//1
f 114//5 46//5 133//5
f 93//8 127//8 120//8
f 121//129 115//129 109//128
f 134//8 121//8 43//8
f 122//8 135//8 43//8
f 122//131 110//132 136//131
f 137//1 110//1 123//1
f 138//1 123//1 111//1
f 139//1 111//1 124//1
f 124//133 113//134 140//133
f 125//135 141//135 113//134
f 142//1 125//1 114//1
f 143//5 46//5 126//5
f 115//129 121//129 126//136
f 130//5 129//5 144//5
f 130//137 145//137 116//130
f 127//130 116//130 145//137
f 132//39 131//40 128//39
f 129//40 128//39 131//40
f 131//40 146//138 129//40
f 147//138 129//40 146//138
f 147//4 146//4 144//4
f 120//41 132//39 117//41
f 120//41 117//41 118//42
f 133//5 46//5 136//5
f 114//1 133//1 148//1
f 132//8 127//8 131//8
f 120//8 127//8 132//8
f 134//136 126//136 121//129
f 149//8 134//8 43//8
f 135//8 150//8 43//8
f 135//139 122//131 151//139
f 133//132 136//131 110//132
f 136//131 151//139 122//131
f 152//1 110//1 137//1
f 123//140 153//140 137//141
f 138//142 154//142 123//140
f 138//1 111//1 155//1
f 156//1 111//1 139//1
f 139//143 124//133 157//143
f 158//134 140//133 113//134
f 140//133 157//143 124//133
f 158//134 113//134 141//135
f 141//135 125//135 159//144
f 142//144 159//144 125//135
f 160//1 142//1 114//1
f 161//5 46//5 143//5
f 126//136 134//136 143//145
f 147//5 144//5 129//5
f 144//146 162//146 130//137
f 145//137 130//137 162//146
f 127//8 145//8 131//8
f 162//4 144//4 146//4
f 136//5 46//5 151//5
f 148//1 133//1 163//1
f 148//1 164//1 114//1
f 131//8 145//8 146//8
f 149//145 143//145 134//136
f 165//8 149//8 43//8
f 150//8 165//8 43//8
f 150//147 135//139 166//147
f 151//139 166//147 135//139
f 133//1 110//1 152//1
f 137//141 167//141 152//148
f 167//141 137//141 153//140
f 153//140 123//140 154//142
f 138//142 155//149 154//142
f 155//1 111//1 168//1
f 168//1 111//1 156//1
f 156//150 139//143 169//150
f 157//143 169//150 139//143
f 158//1 170//1 140//1
f 140//1 171//1 157//1
f 141//1 172//1 158//1
f 159//1 173//1 141//1
f 159//144 142//144 174//151
f 160//151 174//151 142//144
f 175//1 160//1 114//1
f 166//5 46//5 161//5
f 143//145 149//145 161//152
f 162//8 146//8 145//8
f 151//5 46//5 166//5
f 163//1 133//1 176//1
f 148//153 163//154 177//153
f 164//1 178//1 114//1
f 148//153 177//153 164//155
f 165//152 161//152 149//145
f 150//147 166//147 165//152
f 179//1 133//1 152//1
f 180//148 152//148 167//141
f 167//1 153//1 181//1
f 154//1 181//1 153//1
f 181//149 154//142 155//149
f 155//149 168//156 181//149
f 168//156 156//150 182//156
f 169//150 182//156 156//150
f 157//1 183//1 169//1
f 170//1 171//1 140//1
f 172//1 170//1 158//1
f 171//1 183//1 157//1
f 173//1 172//1 141//1
f 184//1 173//1 159//1
f 174//1 184//1 159//1
f 174//151 160//151 185//157
f 175//157 185//157 160//151
f 186//1 175//1 114//1
f 161//152 165//152 166//147
f 176//1 133//1 187//1
f 163//154 176//158 188//154
f 188//154 177//153 163//154
f 178//1 189//1 114//1
f 164//155 190//155 178//157
f 190//155 164//155 177//153
f 191//1 133//1 179//1
f 152//148 180//148 179//159
f 180//1 167//1 182//1
f 182//1 167//1 181//1
f 182//156 181//149 168//156
f 169//1 180//1 182//1
f 183//1 180//1 169//1
f 170//160 192//160 171//161
f 172//162 193//162 170//160
f 171//161 191//161 183//159
f 172//162 173//163 193//162
f 173//163 184//164 194//163
f 195//1 184//1 174//1
f 185//1 195//1 174//1
f 185//157 175//157 196//155
f 186//155 196//155 175//157
f 197//1 186//1 114//1
f 187//1 133//1 198//1
f 176//158 187//164 199//158
f 199//158 188//154 176//158
f 177//1 188//1 190//1
f 189//1 200//1 114//1
f 178//157 201//157 189//151
f 201//157 178//157 190//155
f 192//1 133//1 191//1
f 179//159 183//159 191//161
f 183//159 179//159 180//148
f 191//161 171//161 192//160
f 192//160 170//160 193//162
f 194//163 193//162 173//163
f 202//164 194//163 184//164
f 184//164 195//158 202//164
f 203//1 195//1 185//1
f 196//1 203//1 185//1
f 196//155 186//155 204//153
f 197//153 204//153 186//155
f 205//1 197//1 114//1
f 198//1 133//1 206//1
f 187//164 198//163 207//164
f 207//164 199//158 187//164
f 188//1 199//1 201//1
f 190//1 188//1 201//1
f 200//1 208//1 114//1
f 189//151 209//151 200//144
f 209//151 189//151 201//157
f 193//1 133//1 192//1
f 194//1 133//1 193//1
f 202//1 133//1 194//1
f 210//158 202//164 195//158
f 195//158 203//154 210//158
f 204//1 203//1 196//1
f 197//153 211//154 204//153
f 212//1 197//1 205//1
f 213//1 205//1 114//1
f 206//1 133//1 214//1
f 198//163 206//162 215//163
f 215//163 207//164 198//163
f 199//1 207//1 209//1
f 201//1 199//1 209//1
f 208//1 216//1 114//1
f 217//144 200//144 209//151
f 210//1 133//1 202//1
f 211//154 210//158 203//154
f 203//154 204//153 211//154
f 197//1 133//1 211//1
f 218//1 197//1 212//1
f 212//150 205//143 219//150
f 205//143 213//133 220//143
f 216//1 213//1 114//1
f 214//1 133//1 221//1
f 214//160 222//160 206//162
f 223//162 215//163 206//162
f 207//1 215//1 217//1
f 209//1 207//1 217//1
f 224//135 208//135 217//144
f 200//144 217//144 208//135
f 211//1 133//1 210//1
f 225//1 133//1 197//1
f 226//1 197//1 218//1
f 218//156 212//150 227//156
f 220//143 219//150 205//143
f 219//150 227//156 212//150
f 228//133 220//143 213//133
f 213//133 216//134 228//133
f 221//1 133//1 229//1
f 221//161 230//161 214//160
f 223//162 206//162 222//160
f 222//160 214//160 230//161
f 215//1 223//1 224//1
f 217//1 215//1 224//1
f 208//135 224//135 216//134
f 231//1 133//1 225//1
f 232//1 225//1 197//1
f 232//1 197//1 226//1
f 226//149 218//156 233//149
f 227//156 233//149 218//156
f 220//1 234//1 219//1
f 219//1 235//1 227//1
f 228//1 230//1 220//1
f 236//134 228//133 216//134
f 229//1 133//1 237//1
f 229//159 234//159 221//161
f 230//161 221//161 234//159
f 223//1 222//1 236//1
f 222//1 230//1 228//1
f 224//1 223//1 236//1
f 236//134 216//134 224//135
f 237//1 133//1 231//1
f 225//140 238//140 231//141
f 232//142 239//142 225//140
f 232//142 226//149 239//142
f 233//149 239//142 226//149
f 227//1 240//1 233//1
f 234//1 235//1 219//1
f 230//1 234//1 220//1
f 235//1 240//1 227//1
f 236//1 222//1 228//1
f 237//148 235//148 229//159
f 234//159 229//159 235//148
f 231//141 240//141 237//148
f 240//141 231//141 238//140
f 238//140 225//140 239//142
f 239//1 233//1 238//1
f 240//1 238//1 233//1
f 235//148 237//148 240//141
