# SSTK version 0.8.0
# 9
mtllib original-9.mtl
o Group6/mesh8/mesh8-geometry#mesh8-geometry
v -0.036062 0.766824 0.317083
v -0.035481 0.766824 0.296731
v -0.036964 0.766824 0.306865
v -0.032836 0.766824 0.326690
v -0.042660 0.732221 0.306660
v -0.041611 0.732221 0.318542
v -0.031715 0.766824 0.287375
v -0.040935 0.732221 0.294876
v -0.037861 0.732221 0.329713
v -0.027507 0.766824 0.335032
v -0.046251 0.732221 0.277234
v -0.043874 0.732221 0.317238
v -0.040241 0.732221 0.326525
v -0.025923 0.766824 0.279433
v -0.036557 0.732221 0.283997
v -0.036988 0.732221 0.268442
v -0.046325 0.732221 0.307474
v -0.035500 0.732221 0.335157
v -0.031664 0.732221 0.339413
v -0.020440 0.766824 0.341542
v -0.036988 0.737544 0.268442
v -0.040241 0.737544 0.326525
v -0.047526 0.732221 0.287279
v -0.035500 0.737544 0.335157
v -0.018497 0.766824 0.273446
v -0.029820 0.732221 0.274764
v -0.026192 0.732221 0.262235
v -0.046251 0.737544 0.277234
v -0.026192 0.737544 0.262235
v -0.043874 0.737544 0.317238
v -0.047553 0.732221 0.297423
v -0.047526 0.737544 0.287279
v -0.029737 0.737544 0.342969
v -0.029737 0.732221 0.342969
v -0.023445 0.732221 0.346980
v -0.012111 0.766824 0.345772
v -0.021188 0.732221 0.267801
v -0.037627 0.737544 0.265410
v -0.046251 0.726897 0.277234
v -0.026572 0.737544 0.256499
v -0.039988 0.737544 0.348183
v -0.047553 0.737544 0.297423
v -0.046325 0.737544 0.307474
v -0.029463 0.737544 0.357875
v -0.009947 0.766824 0.269824
v -0.011243 0.732221 0.263587
v -0.014424 0.737544 0.258937
v -0.051857 0.737544 0.291163
v -0.051857 0.726897 0.291163
v -0.013844 0.737544 0.251103
v -0.047920 0.737544 0.335764
v -0.023070 0.732221 0.349807
v -0.023070 0.737544 0.349807
v -0.013764 0.732221 0.351902
v -0.003096 0.766824 0.347438
v -0.014424 0.732221 0.258937
v -0.026572 0.726897 0.256499
v -0.037627 0.726897 0.265410
v -0.013844 0.726897 0.251103
v -0.039988 0.726897 0.348183
v -0.017067 0.737544 0.364173
v -0.000852 0.766824 0.268809
v -0.000671 0.732221 0.262410
v -0.002300 0.732221 0.258721
v -0.002300 0.737544 0.258721
v -0.052722 0.737544 0.321462
v -0.054063 0.726897 0.306247
v -0.000303 0.726897 0.249594
v -0.029463 0.726897 0.357875
v -0.015625 0.732221 0.355543
v -0.015625 0.737544 0.355543
v -0.003277 0.732221 0.353837
v 0.006000 0.766824 0.346424
v -0.000303 0.737544 0.249594
v -0.054063 0.737544 0.306247
v -0.047920 0.726897 0.335764
v -0.017067 0.726897 0.364173
v -0.003641 0.737544 0.366653
v -0.007541 0.732221 0.360065
v 0.008166 0.766824 0.270476
v 0.009817 0.732221 0.264346
v 0.009553 0.732221 0.261599
v 0.009553 0.737544 0.261599
v -0.052722 0.726897 0.321462
v 0.013120 0.726897 0.252075
v -0.007541 0.737544 0.360065
v 0.001019 0.732221 0.363286
v 0.007299 0.732221 0.352660
v 0.014549 0.766824 0.342801
v 0.013120 0.737544 0.252075
v -0.003641 0.726897 0.366653
v 0.001019 0.737544 0.363286
v 0.016492 0.766824 0.274708
v 0.019497 0.732221 0.269267
v 0.020520 0.732221 0.267420
v 0.020520 0.737544 0.267420
v 0.025518 0.726897 0.258375
v 0.009896 0.732221 0.365144
v 0.009896 0.737544 0.365144
v 0.017240 0.732221 0.348447
v 0.021976 0.766824 0.336815
v 0.025518 0.737544 0.258375
v 0.009896 0.726897 0.365144
v 0.023562 0.766824 0.281216
v 0.027717 0.732221 0.276835
v 0.030025 0.737544 0.275879
v 0.036040 0.726897 0.268064
v 0.022628 0.732221 0.359749
v 0.025875 0.732221 0.341484
v 0.027768 0.766824 0.328872
v 0.030025 0.732221 0.275879
v 0.036040 0.737544 0.268064
v 0.022628 0.726897 0.359749
v 0.032609 0.732221 0.332250
v 0.028888 0.766824 0.289558
v 0.033914 0.732221 0.286534
v 0.037579 0.732221 0.286542
v 0.037579 0.737544 0.286542
v 0.043972 0.737544 0.280484
v 0.033679 0.732221 0.350837
v 0.036988 0.732221 0.321371
v 0.031534 0.766824 0.319516
v 0.043972 0.726897 0.280484
v 0.033679 0.726897 0.350837
v 0.032114 0.766824 0.299164
v 0.037664 0.732221 0.297708
v 0.042785 0.732221 0.298847
v 0.042785 0.737544 0.298847
v 0.048774 0.737544 0.294788
v 0.042303 0.726897 0.339014
v 0.042303 0.732221 0.339014
v 0.038713 0.732221 0.309588
v 0.033017 0.766824 0.309383
v 0.045373 0.737544 0.312159
v 0.048774 0.726897 0.294788
v 0.045373 0.732221 0.312159
v 0.050118 0.737544 0.310000
v 0.047909 0.737544 0.325085
v 0.047909 0.726897 0.325085
v 0.045210 0.732221 0.325785
v 0.050118 0.726897 0.310000
v 0.045210 0.737544 0.325785
v 0.042303 0.737544 0.339014
vn 0 1 0
vn -0.9273649575920653 0.20145299078765577 -0.31529498558171826
vn -0.978432425966031 0.20354108861275175 -0.03522801533671353
vn -0.9471707921026641 0.20225195560711628 0.24892094536360096
vn -0.8399166634719177 0.19809192063082307 0.5052717975535473
vn -0.8041095798186795 0.19679589716580684 -0.5609627068732213
vn -0.6754599613299184 0.1925479889766278 0.711813959248652
vn -0.6289986503454084 0.19117489372762683 -0.7535335811175804
vn 0.5096587761553664 0 0.8603766221183685
vn 0.6010126382599177 0 0.7992395189502665
vn 0.9274371477361122 0 -0.37397905957299904
vn 0.8612743605829217 0 -0.5081402127390423
vn 0.7784578514807653 0 -0.6276968802439206
vn -0.4750978533826871 0.18727294220673601 0.8597737346699974
vn 0.31649985288314836 0 0.9485925590710406
vn 0.9873864022430354 0 0.1583290645003449
vn 0.9967069463806562 0 0.08108799563774975
vn 0.6824806681175803 0 -0.7309036445700494
vn -0.42264505729693763 0.18617802523969132 -0.8869661202437875
vn -0.8914988638101866 0 -0.45302293079395733
vn -0.6408179194578436 0 -0.7676929035113719
vn -0.735633615132777 0 -0.6773796456099643
vn 0.9736231731233596 0 -0.22816204057029463
vn 0.9971978814905178 0 -0.074808991109513
vn -0.255624918525833 0.18351494150911762 0.9491986974662189
vn -0.20036102161544908 0.18291701973354665 -0.9624951038363836
vn 0.11566294407177524 0 0.9932885197004189
vn -0.9467753353242138 0 -0.32189511400722215
vn 0.5766020815808395 0 -0.8170251155972151
vn -0.43016592470892506 0 -0.9027498419935145
vn -0.20379895041877838 0 -0.9790127618209092
vn -0.6883401011364417 0 0.7253881065798317
vn -0.4836541187861916 0 0.8752592149650025
vn -0.028031988495211758 0.18197992531245108 0.9829025966006393
vn 0.028031988495211758 0.18197992531245152 -0.9829025966006393
vn -0.0875930302202576 0 0.9961563436814692
vn -0.9993524376025373 0 -0.0359820157560244
vn 0.028507987586199504 0 -0.9995935647270769
vn -0.8568972931540401 0 0.5154871763538637
vn 0.46361213352309544 0 -0.8860382551843705
vn -0.2600420769499725 0 0.9655972857333147
vn -0.9671584742752887 0 0.2541741246419378
vn 0.20036102161544908 0.1829170197335462 0.9624951038363836
vn 0.255624918525833 0.18351494150911807 -0.9491986974662189
vn -0.28903606323820724 0 0.957318209451674
vn 0.2600420769499725 0 -0.9655972857333147
vn 0.34575285836496367 0 -0.9383256156220275
vn -0.028507987586199504 0 0.9995935647270769
vn 0.22475506717368074 0 -0.9744152912284137
vn 0.42264505729693774 0.186178025239691 0.8869661202437877
vn 0.4750978533826871 0.1872729422067364 -0.8597737346699974
vn 0.4836541187861916 0 -0.8752592149650025
vn 0.08793700334842132 0 0.99612603792999
vn 0.16350492021991922 0 -0.9865425186295205
vn 0.6289986503454084 0.1911748937276265 0.7535335811175804
vn 0.6754599613299184 0.19254798897662814 -0.711813959248652
vn -0.6639441478404599 0 0.7477821665086735
vn 0.6883401011364417 0 -0.7253881065798317
vn 0.3182250651008993 0 0.948015193940228
vn 0.43016592470892506 0 0.9027498419935145
vn 0.8041095798186797 0.19679589716580667 0.5609627068732214
vn 0.8399166634719177 0.1980919206308233 -0.5052717975535473
vn -0.8187207835691425 0 0.5741918482109694
vn 0.8568972931540401 0 -0.5154871763538637
vn 0.6408179194578436 0 0.7676929035113719
vn 0.9273649575920653 0.2014529907876556 0.31529498558171837
vn 0.9471707921026641 0.2022519556071164 -0.24892094536360085
vn -0.9334912767423983 0 0.358600106310424
vn 0.9671584742752887 0 -0.2541741246419378
vn 0.735633615132777 0 0.6773796456099643
vn 0.978432425966031 0.20354108861275175 0.03522801533671363
vn -0.9935970344117435 0 0.1129820039129623
vn 0.9993524376025373 0 0.0359820157560244
vn 0.9467753353242138 0 0.32189511400722215
vn 0.8914988638101866 0 0.45302293079395733
vn -0.9897501194628467 0 -0.14281001723717013
vn -0.9636233219345605 0 -0.2672640892896064
vn 0 -1 0
vn 0.978432425966031 -0.20354108861275175 0.03522801533671353
vn 0.9273649575920653 -0.20145299078765577 0.31529498558171826
vn 0.9471707921026641 -0.20225195560711628 -0.24892094536360096
vn 0.8399166634719177 -0.19809192063082307 -0.5052717975535473
vn 0.8041095798186795 -0.19679589716580684 0.5609627068732213
vn 0.6754599613299184 -0.1925479889766278 -0.711813959248652
vn 0.6289986503454084 -0.19117489372762683 0.7535335811175804
vn -0.5096587761553664 0 -0.8603766221183685
vn -0.6010126382599177 0 -0.7992395189502665
vn -0.8612743605829217 0 0.5081402127390423
vn -0.9274371477361122 0 0.37397905957299904
vn -0.7784578514807653 0 0.6276968802439206
vn 0.4750978533826871 -0.18727294220673601 -0.8597737346699974
vn -0.31649985288314836 0 -0.9485925590710406
vn -0.9967069463806562 0 -0.08108799563774975
vn -0.9873864022430354 0 -0.1583290645003449
vn -0.6824806681175803 0 0.7309036445700494
vn 0.42264505729693763 -0.18617802523969132 0.8869661202437875
vn -0.9736231731233596 0 0.22816204057029463
vn -0.9971978814905178 0 0.074808991109513
vn 0.255624918525833 -0.18351494150911762 -0.9491986974662189
vn 0.20036102161544908 -0.18291701973354665 0.9624951038363836
vn -0.11566294407177524 0 -0.9932885197004189
vn -0.5766020815808395 0 0.8170251155972151
vn 0.20379895041877838 0 0.9790127618209092
vn 0.028031988495211758 -0.18197992531245108 -0.9829025966006393
vn -0.028031988495211758 -0.18197992531245152 0.9829025966006393
vn 0.0875930302202576 0 -0.9961563436814692
vn -0.46361213352309544 0 0.8860382551843705
vn -0.20036102161544908 -0.1829170197335462 -0.9624951038363836
vn -0.255624918525833 -0.18351494150911807 0.9491986974662189
vn 0.28903606323820724 0 -0.957318209451674
vn -0.34575285836496367 0 0.9383256156220275
vn -0.22475506717368074 0 0.9744152912284137
vn -0.42264505729693774 -0.186178025239691 -0.8869661202437877
vn -0.4750978533826871 -0.1872729422067364 0.8597737346699974
vn -0.08793700334842132 0 -0.99612603792999
vn -0.16350492021991922 0 0.9865425186295205
vn -0.6289986503454084 -0.1911748937276265 -0.7535335811175804
vn -0.6754599613299184 -0.19254798897662814 0.711813959248652
vn 0.6639441478404599 0 -0.7477821665086735
vn -0.3182250651008993 0 -0.948015193940228
vn -0.8041095798186797 -0.19679589716580667 -0.5609627068732214
vn -0.8399166634719177 -0.1980919206308233 0.5052717975535473
vn 0.8187207835691425 0 -0.5741918482109694
vn -0.9273649575920653 -0.2014529907876556 -0.31529498558171837
vn -0.9471707921026641 -0.2022519556071164 0.24892094536360085
vn 0.9334912767423983 0 -0.358600106310424
vn -0.978432425966031 -0.20354108861275175 -0.03522801533671363
vn 0.9935970344117435 0 -0.1129820039129623
vn 0.9897501194628467 0 0.14281001723717013
vn 0.9636233219345605 0 0.2672640892896064
usemtl material_0_0
f 1//1 2//1 3//1
f 2//1 1//1 4//1
f 2//2 5//3 3//3
f 5//3 1//4 3//3
f 6//4 4//5 1//4
f 2//1 4//1 7//1
f 5//3 2//2 8//2
f 1//4 5//3 6//4
f 4//5 6//4 9//5
f 7//1 4//1 10//1
f 7//6 8//2 2//2
f 11//1 5//1 8//1
f 12//1 6//1 5//1
f 11//1 12//1 5//1
f 6//1 13//1 9//1
f 9//5 10//7 4//5
f 7//1 10//1 14//1
f 8//2 7//6 15//6
f 11//1 8//1 16//1
f 6//1 12//1 13//1
f 11//1 17//1 12//1
f 9//1 13//1 18//1
f 10//7 9//5 19//7
f 14//1 10//1 20//1
f 14//8 15//6 7//6
f 16//1 8//1 15//1
f 21//9 11//10 16//9
f 12//11 22//12 13//12
f 23//1 17//1 11//1
f 13//12 24//13 18//13
f 9//1 18//1 19//1
f 19//7 20//14 10//7
f 14//1 20//1 25//1
f 15//6 14//8 26//8
f 16//1 15//1 27//1
f 11//10 21//9 28//10
f 16//9 29//15 21//9
f 22//12 12//11 30//11
f 24//13 13//12 22//12
f 17//1 23//1 31//1
f 11//16 32//17 23//17
f 33//18 18//13 24//13
f 19//1 18//1 34//1
f 20//14 19//7 35//14
f 25//1 20//1 36//1
f 37//19 14//8 25//19
f 14//8 37//19 26//8
f 27//1 15//1 26//1
f 29//15 16//9 27//15
f 21//1 38//1 28//1
f 32//17 11//16 28//16
f 39//20 28//20 11//20
f 38//21 11//22 28//22
f 40//1 21//1 29//1
f 17//23 30//11 12//11
f 30//1 41//1 22//1
f 22//1 41//1 24//1
f 23//17 42//24 31//24
f 31//24 43//23 17//23
f 42//24 23//17 32//17
f 18//13 33//18 34//18
f 24//1 44//1 33//1
f 19//1 34//1 35//1
f 35//14 36//25 20//14
f 25//1 36//1 45//1
f 25//19 46//26 37//19
f 27//1 26//1 37//1
f 27//15 47//27 29//15
f 38//1 21//1 40//1
f 48//1 32//1 28//1
f 49//28 28//20 39//20
f 11//22 38//21 39//22
f 40//1 29//1 50//1
f 30//11 17//23 43//23
f 43//1 41//1 30//1
f 24//1 41//1 44//1
f 43//23 31//24 42//24
f 32//1 51//1 42//1
f 33//18 52//29 34//18
f 33//1 44//1 53//1
f 35//1 34//1 52//1
f 36//25 35//14 54//25
f 45//1 36//1 55//1
f 46//26 25//19 45//26
f 56//1 37//1 46//1
f 27//1 37//1 56//1
f 47//27 27//15 56//27
f 50//1 29//1 47//1
f 57//30 38//21 40//30
f 48//1 51//1 32//1
f 28//20 49//28 48//28
f 39//22 38//21 58//21
f 59//31 40//30 50//31
f 43//1 51//1 41//1
f 60//32 44//33 41//32
f 51//1 43//1 42//1
f 52//29 33//18 53//29
f 53//1 44//1 61//1
f 35//1 52//1 54//1
f 54//25 55//34 36//25
f 45//1 55//1 62//1
f 45//26 63//35 46//26
f 56//1 46//1 64//1
f 56//27 65//36 47//27
f 50//1 47//1 65//1
f 38//21 57//30 58//21
f 40//30 59//31 57//30
f 48//1 66//1 51//1
f 67//37 48//28 49//28
f 50//31 68//38 59//31
f 51//39 60//32 41//32
f 44//33 60//32 69//33
f 53//29 70//40 52//29
f 69//33 61//41 44//33
f 53//1 61//1 71//1
f 54//1 52//1 70//1
f 55//34 54//25 72//34
f 62//1 55//1 73//1
f 63//35 45//26 62//35
f 64//1 46//1 63//1
f 65//36 56//27 64//36
f 50//1 65//1 74//1
f 66//1 48//1 75//1
f 66//42 76//39 51//39
f 48//28 67//37 75//37
f 68//38 50//31 74//38
f 60//32 51//39 76//39
f 70//40 53//29 71//40
f 61//41 69//33 77//41
f 71//1 61//1 78//1
f 54//1 70//1 79//1
f 54//1 79//1 72//1
f 72//34 73//43 55//34
f 62//1 73//1 80//1
f 62//35 81//44 63//35
f 64//1 63//1 82//1
f 64//36 83//45 65//36
f 74//1 65//1 83//1
f 75//37 84//42 66//42
f 76//39 66//42 84//42
f 84//42 75//37 67//37
f 74//38 85//46 68//38
f 71//40 79//47 70//40
f 77//41 78//48 61//41
f 71//1 78//1 86//1
f 72//1 79//1 87//1
f 73//43 72//34 88//43
f 80//1 73//1 89//1
f 81//44 62//35 80//44
f 82//1 63//1 81//1
f 83//45 64//36 82//45
f 74//1 83//1 90//1
f 85//46 74//38 90//46
f 79//47 71//40 86//47
f 78//48 77//41 91//48
f 86//1 78//1 92//1
f 86//47 87//49 79//47
f 72//1 87//1 88//1
f 88//43 89//50 73//43
f 80//1 89//1 93//1
f 80//44 94//51 81//44
f 82//1 81//1 95//1
f 82//45 96//33 83//45
f 90//1 83//1 96//1
f 90//46 97//52 85//46
f 91//48 98//53 78//48
f 92//1 78//1 99//1
f 87//49 86//47 92//49
f 88//1 87//1 98//1
f 89//50 88//43 100//50
f 93//1 89//1 101//1
f 94//51 80//44 93//51
f 95//1 81//1 94//1
f 96//33 82//45 95//33
f 90//1 96//1 102//1
f 97//52 90//46 102//52
f 98//53 91//48 103//53
f 78//48 98//53 99//53
f 98//54 92//49 99//54
f 92//49 98//54 87//49
f 88//1 98//1 100//1
f 100//50 101//55 89//50
f 93//1 101//1 104//1
f 93//51 105//56 94//51
f 95//1 94//1 105//1
f 95//33 106//57 96//33
f 102//1 96//1 106//1
f 102//52 107//58 97//52
f 103//59 108//60 98//59
f 100//1 98//1 108//1
f 101//55 100//50 109//55
f 104//1 101//1 110//1
f 105//56 93//51 104//56
f 95//1 105//1 111//1
f 106//57 95//33 111//57
f 102//1 106//1 112//1
f 107//58 102//52 112//58
f 108//60 103//59 113//60
f 100//1 108//1 109//1
f 114//61 101//55 109//55
f 101//55 114//61 110//61
f 104//1 110//1 115//1
f 104//56 116//62 105//56
f 111//1 105//1 116//1
f 117//63 106//57 111//57
f 112//1 106//1 118//1
f 119//64 107//58 112//58
f 113//60 120//65 108//60
f 109//1 108//1 120//1
f 109//1 120//1 114//1
f 121//66 110//61 114//61
f 115//1 110//1 122//1
f 116//62 104//56 115//62
f 111//1 116//1 117//1
f 106//57 117//63 118//63
f 112//1 118//1 119//1
f 107//58 119//64 123//64
f 120//65 113//60 124//65
f 114//1 120//1 121//1
f 110//61 121//66 122//66
f 115//1 122//1 125//1
f 115//62 126//67 116//62
f 117//1 116//1 126//1
f 127//68 118//63 117//63
f 119//1 118//1 128//1
f 129//69 123//64 119//64
f 130//70 120//65 124//65
f 121//1 120//1 131//1
f 132//71 122//66 121//66
f 125//1 122//1 133//1
f 126//67 115//62 125//67
f 117//1 126//1 127//1
f 118//63 127//68 128//68
f 119//1 128//1 134//1
f 123//64 129//69 135//69
f 119//1 134//1 129//1
f 120//65 130//70 131//70
f 121//1 131//1 132//1
f 122//66 132//71 133//71
f 133//71 126//67 125//67
f 127//1 126//1 132//1
f 136//72 128//68 127//68
f 128//68 136//72 134//72
f 137//73 135//69 129//69
f 129//1 134//1 138//1
f 139//74 131//75 130//75
f 127//1 132//1 131//1
f 126//67 133//71 132//71
f 127//1 140//1 136//1
f 140//76 134//72 136//72
f 135//69 137//73 141//73
f 129//1 138//1 137//1
f 131//75 139//74 143//75
f 127//1 131//1 140//1
f 134//72 140//76 142//76
f 138//74 141//73 137//73
f 138//1 142//1 143//1
f 142//1 138//1 134//1
f 143//75 139//74 138//74
f 142//76 131//77 143//77
f 131//77 142//76 140//76
f 141//73 138//74 139//74
usemtl material_1_0
f 3//78 2//78 1//78
f 4//78 1//78 2//78
f 3//79 5//79 2//80
f 3//79 1//81 5//79
f 1//81 4//82 6//81
f 7//78 4//78 2//78
f 8//80 2//80 5//79
f 6//81 5//79 1//81
f 9//82 6//81 4//82
f 10//78 4//78 7//78
f 2//80 8//80 7//83
f 8//78 5//78 11//78
f 5//78 6//78 12//78
f 5//78 12//78 11//78
f 9//78 13//78 6//78
f 4//82 10//84 9//82
f 14//78 10//78 7//78
f 15//83 7//83 8//80
f 16//78 8//78 11//78
f 13//78 12//78 6//78
f 12//78 17//78 11//78
f 18//78 13//78 9//78
f 19//84 9//82 10//84
f 20//78 10//78 14//78
f 7//83 15//83 14//85
f 15//78 8//78 16//78
f 16//86 11//87 21//86
f 13//88 22//88 12//89
f 11//78 17//78 23//78
f 18//90 24//90 13//88
f 19//78 18//78 9//78
f 10//84 20//91 19//84
f 25//78 20//78 14//78
f 26//85 14//85 15//83
f 27//78 15//78 16//78
f 28//87 21//86 11//87
f 21//86 29//92 16//86
f 30//89 12//89 22//88
f 22//88 13//88 24//90
f 31//78 23//78 17//78
f 23//93 32//93 11//94
f 24//90 18//90 33//95
f 34//78 18//78 19//78
f 35//91 19//84 20//91
f 36//78 20//78 25//78
f 25//96 14//85 37//96
f 26//85 37//96 14//85
f 26//78 15//78 27//78
f 27//92 16//86 29//92
f 28//78 38//78 21//78
f 28//94 11//94 32//93
f 11//75 28//75 39//75
f 28//70 11//70 38//65
f 29//78 21//78 40//78
f 12//89 30//89 17//97
f 22//78 41//78 30//78
f 24//78 41//78 22//78
f 31//98 42//98 23//93
f 17//97 43//97 31//98
f 32//93 23//93 42//98
f 34//95 33//95 18//90
f 33//78 44//78 24//78
f 35//78 34//78 19//78
f 20//91 36//99 35//91
f 45//78 36//78 25//78
f 37//96 46//100 25//96
f 37//78 26//78 27//78
f 29//92 47//101 27//92
f 40//78 21//78 38//78
f 28//78 32//78 48//78
f 39//75 28//75 49//74
f 39//70 38//65 11//70
f 50//78 29//78 40//78
f 43//97 17//97 30//89
f 30//78 41//78 43//78
f 44//78 41//78 24//78
f 42//98 31//98 43//97
f 42//78 51//78 32//78
f 34//95 52//102 33//95
f 53//78 44//78 33//78
f 52//78 34//78 35//78
f 54//99 35//91 36//99
f 55//78 36//78 45//78
f 45//100 25//96 46//100
f 46//78 37//78 56//78
f 56//78 37//78 27//78
f 56//101 27//92 47//101
f 47//78 29//78 50//78
f 40//60 38//65 57//60
f 32//78 51//78 48//78
f 48//74 49//74 28//75
f 58//65 38//65 39//70
f 50//103 40//60 59//103
f 41//78 51//78 43//78
f 41//58 44//52 60//58
f 42//78 43//78 51//78
f 53//102 33//95 52//102
f 61//78 44//78 53//78
f 54//78 52//78 35//78
f 36//99 55//104 54//99
f 62//78 55//78 45//78
f 46//100 63//105 45//100
f 64//78 46//78 56//78
f 47//101 65//106 56//101
f 65//78 47//78 50//78
f 58//65 57//60 38//65
f 57//60 59//103 40//60
f 51//78 66//78 48//78
f 49//74 48//74 67//73
f 59//103 68//48 50//103
f 41//58 60//58 51//64
f 69//52 60//58 44//52
f 52//102 70//107 53//102
f 44//52 61//46 69//52
f 71//78 61//78 53//78
f 70//78 52//78 54//78
f 72//104 54//99 55//104
f 73//78 55//78 62//78
f 62//105 45//100 63//105
f 63//78 46//78 64//78
f 64//106 56//101 65//106
f 74//78 65//78 50//78
f 75//78 48//78 66//78
f 51//64 76//64 66//69
f 75//73 67//73 48//74
f 74//48 50//103 68//48
f 76//64 51//64 60//58
f 71//107 53//102 70//107
f 77//46 69//52 61//46
f 78//78 61//78 71//78
f 79//78 70//78 54//78
f 72//78 79//78 54//78
f 55//104 73//108 72//104
f 80//78 73//78 62//78
f 63//105 81//109 62//105
f 82//78 63//78 64//78
f 65//106 83//110 64//106
f 83//78 65//78 74//78
f 66//69 84//69 75//73
f 84//69 66//69 76//64
f 67//73 75//73 84//69
f 68//48 85//41 74//48
f 70//107 79//111 71//107
f 61//46 78//38 77//46
f 86//78 78//78 71//78
f 87//78 79//78 72//78
f 88//108 72//104 73//108
f 89//78 73//78 80//78
f 80//109 62//105 81//109
f 81//78 63//78 82//78
f 82//110 64//106 83//110
f 90//78 83//78 74//78
f 90//41 74//48 85//41
f 86//111 71//107 79//111
f 91//38 77//46 78//38
f 92//78 78//78 86//78
f 79//111 87//112 86//111
f 88//78 87//78 72//78
f 73//108 89//113 88//108
f 93//78 89//78 80//78
f 81//109 94//114 80//109
f 95//78 81//78 82//78
f 83//110 96//52 82//110
f 96//78 83//78 90//78
f 85//41 97//33 90//41
f 78//38 98//115 91//38
f 99//78 78//78 92//78
f 92//112 86//111 87//112
f 98//78 87//78 88//78
f 100//113 88//108 89//113
f 101//78 89//78 93//78
f 93//114 80//109 94//114
f 94//78 81//78 95//78
f 95//52 82//110 96//52
f 102//78 96//78 90//78
f 102//33 90//41 97//33
f 103//115 91//38 98//115
f 99//115 98//115 78//38
f 99//116 92//112 98//116
f 87//112 98//116 92//112
f 100//78 98//78 88//78
f 89//113 101//117 100//113
f 104//78 101//78 93//78
f 94//114 105//118 93//114
f 105//78 94//78 95//78
f 96//52 106//119 95//52
f 106//78 96//78 102//78
f 97//33 107//32 102//33
f 98//120 108//30 103//120
f 108//78 98//78 100//78
f 109//117 100//113 101//117
f 110//78 101//78 104//78
f 104//118 93//114 105//118
f 111//78 105//78 95//78
f 111//119 95//52 106//119
f 112//78 106//78 102//78
f 112//32 102//33 107//32
f 113//30 103//120 108//30
f 109//78 108//78 100//78
f 109//117 101//117 114//121
f 110//121 114//121 101//117
f 115//78 110//78 104//78
f 105//118 116//122 104//118
f 116//78 105//78 111//78
f 111//119 106//119 117//123
f 118//78 106//78 112//78
f 112//32 107//32 119//39
f 108//30 120//21 113//30
f 120//78 108//78 109//78
f 114//78 120//78 109//78
f 114//121 110//121 121//124
f 122//78 110//78 115//78
f 115//122 104//118 116//122
f 117//78 116//78 111//78
f 118//123 117//123 106//119
f 119//78 118//78 112//78
f 123//39 119//39 107//32
f 124//21 113//30 120//21
f 121//78 120//78 114//78
f 122//124 121//124 110//121
f 125//78 122//78 115//78
f 116//122 126//125 115//122
f 126//78 116//78 117//78
f 117//123 118//123 127//126
f 128//78 118//78 119//78
f 119//39 123//39 129//42
f 124//21 120//21 130//22
f 131//78 120//78 121//78
f 121//124 122//124 132//127
f 133//78 122//78 125//78
f 125//125 115//122 126//125
f 127//78 126//78 117//78
f 128//126 127//126 118//123
f 134//78 128//78 119//78
f 135//42 129//42 123//39
f 129//78 134//78 119//78
f 131//22 130//22 120//21
f 132//78 131//78 121//78
f 133//127 132//127 122//124
f 125//125 126//125 133//127
f 132//78 126//78 127//78
f 127//126 128//126 136//128
f 134//128 136//128 128//126
f 129//42 135//42 137//37
f 138//78 134//78 129//78
f 130//20 131//20 139//28
f 131//78 132//78 127//78
f 132//127 133//127 126//125
f 136//78 140//78 127//78
f 136//128 134//128 140//129
f 141//37 137//37 135//42
f 137//78 138//78 129//78
f 134//78 138//78 142//78
f 143//20 139//28 131//20
f 140//78 131//78 127//78
f 142//129 140//129 134//128
f 137//37 141//37 138//28
f 143//78 142//78 138//78
f 138//28 139//28 143//20
f 143//130 131//130 142//129
f 140//129 142//129 131//130
f 139//28 138//28 141//37
