# SSTK version 0.8.0
# 4
mtllib original-4.mtl
o mesh6/mesh6-geometry#mesh6-geometry
v 0.003383 0.152543 0.090611
v 0.003383 0.188918 0.092028
v 0.003383 0.149449 0.092028
v 0.003383 0.155758 0.089453
v -0.005989 0.188918 0.092028
v -0.005989 0.152543 0.090611
v -0.005989 0.149449 0.092028
v -0.005989 0.155758 0.089453
v 0.003383 0.159034 0.088523
v 0.003383 0.162387 0.087868
v 0.003383 0.165770 0.087472
v 0.003383 0.169184 0.087335
v -0.005989 0.159034 0.088523
v -0.005989 0.162387 0.087868
v 0.003383 0.172597 0.087472
v 0.003383 0.175980 0.087868
v 0.003383 0.179333 0.088523
v 0.003383 0.182609 0.089453
v -0.005989 0.175980 0.087868
v -0.005989 0.179333 0.088523
v -0.005989 0.182609 0.089453
v 0.003383 0.185809 0.090611
v -0.005989 0.172597 0.087472
v -0.005989 0.169184 0.087335
v -0.005989 0.165770 0.087472
v -0.005989 0.185809 0.090611
vn 1 0 0
vn -1 0 0
vn 0 0 1
vn 0 0 -1
vn 0 -0.3060700029105727 -0.9520090090531297
vn 0 -0.3791040249958456 -0.9253540610122967
vn 0 0.3060700029105727 0.9520090090531297
vn 0 0.3791040249958456 0.9253540610122967
vn 0 -0.41478885871360605 -0.9099176900616144
vn 0 0.41478885871360605 0.9099176900616144
vn 0 0.3060700029105727 -0.9520090090531297
vn 0 0.3791040249958456 -0.9253540610122967
vn 0 -0.3060700029105727 0.9520090090531297
vn 0 -0.3791040249958456 0.9253540610122967
vn 0 0.231186128438148 -0.972909540511234
vn 0 -0.231186128438148 0.972909540511234
vn 0 0.15490505669014926 -0.9879293615496109
vn 0 -0.15490505669014926 0.9879293615496109
vn 0 0.07768698436732163 -0.9969777993816672
vn 0 -0.07768698436732163 0.9969777993816672
vn 0 0.41478885871360605 -0.9099176900616144
vn 0 -0.41478885871360605 0.9099176900616144
vn 0 -0.07768698436732163 -0.9969777993816672
vn 0 0.07768698436732163 0.9969777993816672
vn 0 -0.15490505669014926 -0.9879293615496109
vn 0 0.15490505669014926 0.9879293615496109
vn 0 -0.231186128438148 -0.972909540511234
vn 0 0.231186128438148 0.972909540511234
usemtl material_0_0
f 1//1 2//1 3//1
f 2//1 1//1 4//1
f 3//2 2//2 1//2
f 4//2 1//2 2//2
f 3//3 5//3 7//3
f 5//3 3//3 2//3
f 7//4 5//4 3//4
f 2//4 3//4 5//4
f 4//5 6//6 8//5
f 6//6 4//5 1//6
f 8//7 6//8 4//7
f 1//8 4//7 6//8
f 1//6 7//9 6//6
f 7//9 1//6 3//9
f 6//8 7//10 1//8
f 3//10 1//8 7//10
f 2//1 4//1 9//1
f 2//1 9//1 10//1
f 2//1 10//1 11//1
f 2//1 11//1 12//1
f 9//2 4//2 2//2
f 10//2 9//2 2//2
f 11//2 10//2 2//2
f 2//1 12//1 15//1
f 12//2 11//2 2//2
f 15//2 12//2 2//2
f 16//2 15//2 2//2
f 17//2 16//2 2//2
f 18//2 17//2 2//2
f 21//11 22//12 18//11
f 18//13 22//14 21//13
f 18//11 20//15 21//11
f 20//15 18//11 17//15
f 21//13 20//16 18//13
f 17//16 18//13 20//16
f 17//15 19//17 20//15
f 19//17 17//15 16//17
f 20//16 19//18 17//16
f 16//18 17//16 19//18
f 16//17 23//19 19//17
f 23//19 16//17 15//19
f 19//18 23//20 16//18
f 15//20 16//18 23//20
f 15//19 24//4 23//19
f 24//4 15//19 12//4
f 23//20 24//3 15//20
f 12//3 15//20 24//3
f 2//1 18//1 22//1
f 22//2 18//2 2//2
f 2//21 26//12 5//21
f 26//12 2//21 22//12
f 5//22 26//14 2//22
f 22//14 2//22 26//14
f 22//12 21//11 26//12
f 26//14 21//13 22//14
f 12//4 25//23 24//4
f 25//23 12//4 11//23
f 24//3 25//24 12//3
f 11//24 12//3 25//24
f 11//23 14//25 25//23
f 14//25 11//23 10//25
f 25//24 14//26 11//24
f 10//26 11//24 14//26
f 10//25 13//27 14//25
f 13//27 10//25 9//27
f 14//26 13//28 10//26
f 9//28 10//26 13//28
f 9//27 8//5 13//27
f 8//5 9//27 4//5
f 13//28 8//7 9//28
f 4//7 9//28 8//7
f 2//1 15//1 16//1
f 2//1 16//1 17//1
f 2//1 17//1 18//1
usemtl material_1_0
f 5//2 6//2 7//2
f 6//2 5//2 8//2
f 7//1 6//1 5//1
f 8//1 5//1 6//1
f 8//2 5//2 13//2
f 13//2 5//2 14//2
f 19//2 5//2 20//2
f 20//2 5//2 21//2
f 21//1 5//1 20//1
f 14//2 5//2 25//2
f 25//2 5//2 24//2
f 24//2 5//2 23//2
f 23//2 5//2 19//2
f 13//1 5//1 8//1
f 14//1 5//1 13//1
f 25//1 5//1 14//1
f 24//1 5//1 25//1
f 23//1 5//1 24//1
f 19//1 5//1 23//1
f 20//1 5//1 19//1
f 21//2 5//2 26//2
f 26//1 5//1 21//1
