# SSTK version 0.8.0
# 24
mtllib original-24.mtl
o Group1/mesh7/mesh7-geometry/material_4#mesh7-geometry
v 0.306096 0.720050 -0.368564
v 0.355391 0.765709 -0.387146
v 0.307614 0.718218 -0.367819
v 0.308091 0.717152 -0.367385
v 0.307614 0.718218 -0.367819
v 0.355391 0.765709 -0.387146
v 0.371947 0.741650 -0.377355
v 0.308091 0.717152 -0.367385
v 0.355391 0.765709 -0.387146
v 0.378607 0.713796 -0.366019
v 0.308893 0.713796 -0.366019
v 0.371947 0.741650 -0.377355
v 0.308893 0.713796 -0.366019
v 0.308568 0.716085 -0.366951
v 0.371947 0.741650 -0.377355
v 0.308091 0.717152 -0.367385
v 0.371947 0.741650 -0.377355
v 0.308568 0.716085 -0.366951
v 0.367988 0.750504 -0.380958
v 0.371947 0.741650 -0.377355
v 0.355391 0.765709 -0.387146
v 0.375906 0.732797 -0.373752
v 0.378607 0.713796 -0.366019
v 0.371947 0.741650 -0.377355
v 0.307614 0.718218 -0.367819
v 0.355391 0.765709 -0.387146
v 0.306096 0.720050 -0.368564
v 0.355391 0.765709 -0.387146
v 0.307614 0.718218 -0.367819
v 0.308091 0.717152 -0.367385
v 0.355391 0.765709 -0.387146
v 0.308091 0.717152 -0.367385
v 0.371947 0.741650 -0.377355
v 0.371947 0.741650 -0.377355
v 0.308893 0.713796 -0.366019
v 0.378607 0.713796 -0.366019
v 0.371947 0.741650 -0.377355
v 0.308568 0.716085 -0.366951
v 0.308893 0.713796 -0.366019
v 0.308568 0.716085 -0.366951
v 0.371947 0.741650 -0.377355
v 0.308091 0.717152 -0.367385
v 0.355391 0.765709 -0.387146
v 0.371947 0.741650 -0.377355
v 0.367988 0.750504 -0.380958
v 0.371947 0.741650 -0.377355
v 0.378607 0.713796 -0.366019
v 0.375906 0.732797 -0.373752
vn 0 -0.37694901353048094 -0.926234009955582
vn 0 0.37694901353048094 0.926234009955582
usemtl material_0_0
f 1//1 2//1 3//1
f 4//1 5//1 6//1
f 7//1 8//1 9//1
f 10//1 11//1 12//1
f 13//1 14//1 15//1
f 16//1 17//1 18//1
f 19//1 20//1 21//1
f 22//1 23//1 24//1
usemtl material_1_0
f 25//2 26//2 27//2
f 28//2 29//2 30//2
f 31//2 32//2 33//2
f 34//2 35//2 36//2
f 37//2 38//2 39//2
f 40//2 41//2 42//2
f 43//2 44//2 45//2
f 46//2 47//2 48//2
