# SSTK version 0.8.0
# 25
mtllib original-25.mtl
o Group1/mesh7/mesh7-geometry/material_5#mesh7-geometry
v 0.295721 0.705695 -0.362722
v 0.269271 0.646549 -0.338652
v 0.294570 0.706136 -0.362902
v 0.294570 0.706136 -0.362902
v 0.269271 0.646549 -0.338652
v 0.292592 0.707542 -0.363474
v 0.269271 0.646549 -0.338652
v 0.259713 0.650216 -0.340144
v 0.292592 0.707542 -0.363474
v 0.243297 0.661883 -0.344892
v 0.292592 0.707542 -0.363474
v 0.259713 0.650216 -0.340144
v 0.292592 0.707542 -0.363474
v 0.243297 0.661883 -0.344892
v 0.291075 0.709374 -0.364219
v 0.291075 0.709374 -0.364219
v 0.243297 0.661883 -0.344892
v 0.290598 0.710440 -0.364654
v 0.243297 0.661883 -0.344892
v 0.230701 0.677088 -0.351080
v 0.290598 0.710440 -0.364654
v 0.226742 0.685941 -0.354683
v 0.290598 0.710440 -0.364654
v 0.230701 0.677088 -0.351080
v 0.294570 0.706136 -0.362902
v 0.269271 0.646549 -0.338652
v 0.295721 0.705695 -0.362722
v 0.292592 0.707542 -0.363474
v 0.269271 0.646549 -0.338652
v 0.294570 0.706136 -0.362902
v 0.292592 0.707542 -0.363474
v 0.259713 0.650216 -0.340144
v 0.269271 0.646549 -0.338652
v 0.259713 0.650216 -0.340144
v 0.292592 0.707542 -0.363474
v 0.243297 0.661883 -0.344892
v 0.291075 0.709374 -0.364219
v 0.243297 0.661883 -0.344892
v 0.292592 0.707542 -0.363474
v 0.290598 0.710440 -0.364654
v 0.243297 0.661883 -0.344892
v 0.291075 0.709374 -0.364219
v 0.290598 0.710440 -0.364654
v 0.230701 0.677088 -0.351080
v 0.243297 0.661883 -0.344892
v 0.230701 0.677088 -0.351080
v 0.290598 0.710440 -0.364654
v 0.226742 0.685941 -0.354683
vn 0 -0.37694901353048094 -0.926234009955582
vn 0 0.37694901353048094 0.926234009955582
usemtl material_0_0
f 1//1 2//1 3//1
f 4//1 5//1 6//1
f 7//1 8//1 9//1
f 10//1 11//1 12//1
f 13//1 14//1 15//1
f 16//1 17//1 18//1
f 19//1 20//1 21//1
f 22//1 23//1 24//1
usemtl material_1_0
f 25//2 26//2 27//2
f 28//2 29//2 30//2
f 31//2 32//2 33//2
f 34//2 35//2 36//2
f 37//2 38//2 39//2
f 40//2 41//2 42//2
f 43//2 44//2 45//2
f 46//2 47//2 48//2
