# SSTK version 0.8.0
# 53
mtllib original-53.mtl
o mesh26/mesh26-geometry/material_4/component_0#mesh26-geometry
v -0.093462 0.340382 -0.401316
v -0.093462 0.340382 -0.470511
v -0.096820 0.339940 -0.401316
v -0.090333 0.341678 -0.401316
v -0.090333 0.341678 -0.470511
v -0.093462 0.340382 -0.401316
v -0.096820 0.365888 -0.401316
v -0.096820 0.365888 -0.470511
v -0.093462 0.365446 -0.401316
v -0.096820 0.339940 -0.470511
v -0.096820 0.339940 -0.401316
v -0.093462 0.340382 -0.470511
v -0.093462 0.340382 -0.470511
v -0.093462 0.340382 -0.401316
v -0.090333 0.341678 -0.470511
v -0.090333 0.341678 -0.470511
v -0.090333 0.341678 -0.401316
v -0.087646 0.343740 -0.470511
v -0.087646 0.343740 -0.401316
v -0.087646 0.343740 -0.470511
v -0.090333 0.341678 -0.401316
v -0.093462 0.365446 -0.401316
v -0.093462 0.365446 -0.470511
v -0.090333 0.364150 -0.401316
v -0.093462 0.365446 -0.470511
v -0.093462 0.365446 -0.401316
v -0.096820 0.365888 -0.470511
v -0.096820 0.365888 -0.470511
v -0.096820 0.365888 -0.401316
v -0.100178 0.365446 -0.470511
v -0.096820 0.339940 -0.401316
v -0.096820 0.339940 -0.470511
v -0.100178 0.340382 -0.401316
v -0.096820 0.339940 -0.470511
v -0.093462 0.340382 -0.470511
v -0.100178 0.340382 -0.470511
v -0.090333 0.341678 -0.470511
v -0.103307 0.341678 -0.470511
v -0.093462 0.340382 -0.470511
v -0.087646 0.343740 -0.470511
v -0.105994 0.343740 -0.470511
v -0.090333 0.341678 -0.470511
v -0.087646 0.343740 -0.401316
v -0.085585 0.346427 -0.401316
v -0.087646 0.343740 -0.470511
v -0.090333 0.364150 -0.401316
v -0.090333 0.364150 -0.470511
v -0.087646 0.362088 -0.401316
v -0.090333 0.364150 -0.470511
v -0.090333 0.364150 -0.401316
v -0.093462 0.365446 -0.470511
v -0.096820 0.365888 -0.470511
v -0.100178 0.365446 -0.470511
v -0.093462 0.365446 -0.470511
v -0.100178 0.365446 -0.401316
v -0.100178 0.365446 -0.470511
v -0.096820 0.365888 -0.401316
v -0.100178 0.340382 -0.470511
v -0.100178 0.340382 -0.401316
v -0.096820 0.339940 -0.470511
v -0.103307 0.341678 -0.470511
v -0.100178 0.340382 -0.470511
v -0.093462 0.340382 -0.470511
v -0.105994 0.343740 -0.470511
v -0.103307 0.341678 -0.470511
v -0.090333 0.341678 -0.470511
v -0.096820 0.344265 -0.470511
v -0.105994 0.343740 -0.470511
v -0.087646 0.343740 -0.470511
v -0.085585 0.346427 -0.470511
v -0.087646 0.343740 -0.470511
v -0.085585 0.346427 -0.401316
v -0.085585 0.346427 -0.401316
v -0.084288 0.349556 -0.401316
v -0.085585 0.346427 -0.470511
v -0.085585 0.359401 -0.401316
v -0.087646 0.362088 -0.401316
v -0.085585 0.359401 -0.470511
v -0.087646 0.362088 -0.470511
v -0.087646 0.362088 -0.401316
v -0.090333 0.364150 -0.470511
v -0.093462 0.365446 -0.470511
v -0.100178 0.365446 -0.470511
v -0.090333 0.364150 -0.470511
v -0.100178 0.365446 -0.470511
v -0.100178 0.365446 -0.401316
v -0.103307 0.364150 -0.470511
v -0.100178 0.340382 -0.401316
v -0.100178 0.340382 -0.470511
v -0.103307 0.341678 -0.401316
v -0.103307 0.341678 -0.470511
v -0.103307 0.341678 -0.401316
v -0.100178 0.340382 -0.470511
v -0.105994 0.343740 -0.470511
v -0.105994 0.343740 -0.401316
v -0.103307 0.341678 -0.470511
v -0.099059 0.344559 -0.470511
v -0.105994 0.343740 -0.470511
v -0.096820 0.344265 -0.470511
v -0.096820 0.344265 -0.470511
v -0.087646 0.343740 -0.470511
v -0.094582 0.344559 -0.470511
v -0.085585 0.346427 -0.470511
v -0.094582 0.344559 -0.470511
v -0.087646 0.343740 -0.470511
v -0.084288 0.349556 -0.470511
v -0.085585 0.346427 -0.470511
v -0.084288 0.349556 -0.401316
v -0.084288 0.349556 -0.401316
v -0.083846 0.352914 -0.401316
v -0.084288 0.349556 -0.470511
v -0.084288 0.356272 -0.401316
v -0.085585 0.359401 -0.401316
v -0.084288 0.356272 -0.470511
v -0.087646 0.362088 -0.470511
v -0.085585 0.359401 -0.470511
v -0.087646 0.362088 -0.401316
v -0.085585 0.359401 -0.470511
v -0.084288 0.356272 -0.470511
v -0.085585 0.359401 -0.401316
v -0.090333 0.364150 -0.470511
v -0.103307 0.364150 -0.470511
v -0.087646 0.362088 -0.470511
v -0.100178 0.365446 -0.470511
v -0.103307 0.364150 -0.470511
v -0.090333 0.364150 -0.470511
v -0.103307 0.364150 -0.401316
v -0.103307 0.364150 -0.470511
v -0.100178 0.365446 -0.401316
v -0.103307 0.341678 -0.401316
v -0.103307 0.341678 -0.470511
v -0.105994 0.343740 -0.401316
v -0.105994 0.343740 -0.470511
v -0.108056 0.346427 -0.470511
v -0.105994 0.343740 -0.401316
v -0.108056 0.346427 -0.470511
v -0.105994 0.343740 -0.470511
v -0.099059 0.344559 -0.470511
v -0.096820 0.344265 -0.470511
v -0.096820 0.344265 -0.401316
v -0.099059 0.344559 -0.470511
v -0.094582 0.344559 -0.470511
v -0.094582 0.344559 -0.401316
v -0.096820 0.344265 -0.470511
v -0.092496 0.345423 -0.470511
v -0.094582 0.344559 -0.470511
v -0.085585 0.346427 -0.470511
v -0.084288 0.349556 -0.470511
v -0.090704 0.346798 -0.470511
v -0.085585 0.346427 -0.470511
v -0.083846 0.352914 -0.470511
v -0.084288 0.349556 -0.470511
v -0.083846 0.352914 -0.401316
v -0.083846 0.352914 -0.401316
v -0.084288 0.356272 -0.401316
v -0.083846 0.352914 -0.470511
v -0.084288 0.356272 -0.470511
v -0.083846 0.352914 -0.470511
v -0.084288 0.356272 -0.401316
v -0.087646 0.362088 -0.470511
v -0.092496 0.360405 -0.470511
v -0.085585 0.359401 -0.470511
v -0.085585 0.359401 -0.470511
v -0.089330 0.357239 -0.470511
v -0.084288 0.356272 -0.470511
v -0.103307 0.364150 -0.470511
v -0.105994 0.362088 -0.470511
v -0.087646 0.362088 -0.470511
v -0.103307 0.364150 -0.470511
v -0.103307 0.364150 -0.401316
v -0.105994 0.362088 -0.470511
v -0.108056 0.346427 -0.401316
v -0.105994 0.343740 -0.401316
v -0.108056 0.346427 -0.470511
v -0.101145 0.345423 -0.470511
v -0.108056 0.346427 -0.470511
v -0.099059 0.344559 -0.470511
v -0.099059 0.344559 -0.401316
v -0.099059 0.344559 -0.470511
v -0.096820 0.344265 -0.401316
v -0.096820 0.344265 -0.401316
v -0.096820 0.344265 -0.470511
v -0.094582 0.344559 -0.401316
v -0.094582 0.344559 -0.401316
v -0.094582 0.344559 -0.470511
v -0.092496 0.345423 -0.401316
v -0.092496 0.345423 -0.470511
v -0.092496 0.345423 -0.401316
v -0.094582 0.344559 -0.470511
v -0.090704 0.346798 -0.470511
v -0.092496 0.345423 -0.470511
v -0.085585 0.346427 -0.470511
v -0.089330 0.348589 -0.470511
v -0.090704 0.346798 -0.470511
v -0.084288 0.349556 -0.470511
v -0.083846 0.352914 -0.470511
v -0.088466 0.350675 -0.470511
v -0.084288 0.349556 -0.470511
v -0.084288 0.356272 -0.470511
v -0.088466 0.355153 -0.470511
v -0.083846 0.352914 -0.470511
v -0.092496 0.360405 -0.470511
v -0.090704 0.359030 -0.470511
v -0.085585 0.359401 -0.470511
v -0.094582 0.361269 -0.470511
v -0.092496 0.360405 -0.470511
v -0.087646 0.362088 -0.470511
v -0.089330 0.357239 -0.470511
v -0.088466 0.355153 -0.470511
v -0.084288 0.356272 -0.470511
v -0.090704 0.359030 -0.470511
v -0.089330 0.357239 -0.470511
v -0.085585 0.359401 -0.470511
v -0.105994 0.362088 -0.470511
v -0.096820 0.361563 -0.470511
v -0.087646 0.362088 -0.470511
v -0.105994 0.362088 -0.401316
v -0.105994 0.362088 -0.470511
v -0.103307 0.364150 -0.401316
v -0.108056 0.346427 -0.470511
v -0.109352 0.349556 -0.470511
v -0.108056 0.346427 -0.401316
v -0.102936 0.346798 -0.470511
v -0.108056 0.346427 -0.470511
v -0.101145 0.345423 -0.470511
v -0.099059 0.344559 -0.470511
v -0.099059 0.344559 -0.401316
v -0.101145 0.345423 -0.470511
v -0.092496 0.345423 -0.401316
v -0.092496 0.345423 -0.470511
v -0.090704 0.346798 -0.401316
v -0.090704 0.346798 -0.470511
v -0.090704 0.346798 -0.401316
v -0.092496 0.345423 -0.470511
v -0.090704 0.346798 -0.470511
v -0.089330 0.348589 -0.470511
v -0.090704 0.346798 -0.401316
v -0.088466 0.350675 -0.470511
v -0.089330 0.348589 -0.470511
v -0.084288 0.349556 -0.470511
v -0.088171 0.352914 -0.470511
v -0.088466 0.350675 -0.470511
v -0.083846 0.352914 -0.470511
v -0.088466 0.355153 -0.470511
v -0.088171 0.352914 -0.470511
v -0.083846 0.352914 -0.470511
v -0.092496 0.360405 -0.470511
v -0.092496 0.360405 -0.401316
v -0.090704 0.359030 -0.470511
v -0.094582 0.361269 -0.470511
v -0.094582 0.361269 -0.401316
v -0.092496 0.360405 -0.470511
v -0.096820 0.361563 -0.470511
v -0.094582 0.361269 -0.470511
v -0.087646 0.362088 -0.470511
v -0.088466 0.355153 -0.470511
v -0.089330 0.357239 -0.470511
v -0.088466 0.355153 -0.401316
v -0.089330 0.357239 -0.470511
v -0.090704 0.359030 -0.470511
v -0.089330 0.357239 -0.401316
v -0.096820 0.361563 -0.470511
v -0.105994 0.362088 -0.470511
v -0.099059 0.361269 -0.470511
v -0.105994 0.362088 -0.401316
v -0.108056 0.359401 -0.401316
v -0.105994 0.362088 -0.470511
v -0.109352 0.349556 -0.401316
v -0.108056 0.346427 -0.401316
v -0.109352 0.349556 -0.470511
v -0.109352 0.349556 -0.470511
v -0.108056 0.346427 -0.470511
v -0.102936 0.346798 -0.470511
v -0.101145 0.345423 -0.470511
v -0.101145 0.345423 -0.401316
v -0.102936 0.346798 -0.470511
v -0.101145 0.345423 -0.401316
v -0.101145 0.345423 -0.470511
v -0.099059 0.344559 -0.401316
v -0.089330 0.348589 -0.401316
v -0.090704 0.346798 -0.401316
v -0.089330 0.348589 -0.470511
v -0.089330 0.348589 -0.470511
v -0.088466 0.350675 -0.470511
v -0.089330 0.348589 -0.401316
v -0.088466 0.350675 -0.470511
v -0.088171 0.352914 -0.470511
v -0.088466 0.350675 -0.401316
v -0.088171 0.352914 -0.470511
v -0.088466 0.355153 -0.470511
v -0.088171 0.352914 -0.401316
v -0.090704 0.359030 -0.401316
v -0.090704 0.359030 -0.470511
v -0.092496 0.360405 -0.401316
v -0.092496 0.360405 -0.401316
v -0.092496 0.360405 -0.470511
v -0.094582 0.361269 -0.401316
v -0.094582 0.361269 -0.401316
v -0.094582 0.361269 -0.470511
v -0.096820 0.361563 -0.401316
v -0.096820 0.361563 -0.470511
v -0.096820 0.361563 -0.401316
v -0.094582 0.361269 -0.470511
v -0.089330 0.357239 -0.401316
v -0.088466 0.355153 -0.401316
v -0.089330 0.357239 -0.470511
v -0.088466 0.355153 -0.401316
v -0.088171 0.352914 -0.401316
v -0.088466 0.355153 -0.470511
v -0.090704 0.359030 -0.401316
v -0.089330 0.357239 -0.401316
v -0.090704 0.359030 -0.470511
v -0.099059 0.361269 -0.470511
v -0.105994 0.362088 -0.470511
v -0.101145 0.360405 -0.470511
v -0.099059 0.361269 -0.470511
v -0.099059 0.361269 -0.401316
v -0.096820 0.361563 -0.470511
v -0.108056 0.359401 -0.470511
v -0.105994 0.362088 -0.470511
v -0.108056 0.359401 -0.401316
v -0.109352 0.349556 -0.470511
v -0.109794 0.352914 -0.470511
v -0.109352 0.349556 -0.401316
v -0.104311 0.348589 -0.470511
v -0.109352 0.349556 -0.470511
v -0.102936 0.346798 -0.470511
v -0.102936 0.346798 -0.401316
v -0.102936 0.346798 -0.470511
v -0.101145 0.345423 -0.401316
v -0.088466 0.350675 -0.401316
v -0.089330 0.348589 -0.401316
v -0.088466 0.350675 -0.470511
v -0.088171 0.352914 -0.401316
v -0.088466 0.350675 -0.401316
v -0.088171 0.352914 -0.470511
v -0.096820 0.361563 -0.401316
v -0.096820 0.361563 -0.470511
v -0.099059 0.361269 -0.401316
v -0.105994 0.362088 -0.470511
v -0.108056 0.359401 -0.470511
v -0.101145 0.360405 -0.470511
v -0.101145 0.360405 -0.470511
v -0.101145 0.360405 -0.401316
v -0.099059 0.361269 -0.470511
v -0.099059 0.361269 -0.401316
v -0.099059 0.361269 -0.470511
v -0.101145 0.360405 -0.401316
v -0.108056 0.359401 -0.401316
v -0.109352 0.356272 -0.401316
v -0.108056 0.359401 -0.470511
v -0.109794 0.352914 -0.401316
v -0.109352 0.349556 -0.401316
v -0.109794 0.352914 -0.470511
v -0.109794 0.352914 -0.470511
v -0.109352 0.349556 -0.470511
v -0.105175 0.350675 -0.470511
v -0.105175 0.350675 -0.470511
v -0.109352 0.349556 -0.470511
v -0.104311 0.348589 -0.470511
v -0.104311 0.348589 -0.470511
v -0.102936 0.346798 -0.470511
v -0.104311 0.348589 -0.401316
v -0.102936 0.346798 -0.401316
v -0.104311 0.348589 -0.401316
v -0.102936 0.346798 -0.470511
v -0.101145 0.360405 -0.470511
v -0.108056 0.359401 -0.470511
v -0.102936 0.359030 -0.470511
v -0.101145 0.360405 -0.401316
v -0.101145 0.360405 -0.470511
v -0.102936 0.359030 -0.401316
v -0.109352 0.356272 -0.470511
v -0.108056 0.359401 -0.470511
v -0.109352 0.356272 -0.401316
v -0.109794 0.352914 -0.470511
v -0.109352 0.356272 -0.470511
v -0.109794 0.352914 -0.401316
v -0.105470 0.352914 -0.470511
v -0.109794 0.352914 -0.470511
v -0.105175 0.350675 -0.470511
v -0.105175 0.350675 -0.470511
v -0.104311 0.348589 -0.470511
v -0.105175 0.350675 -0.401316
v -0.104311 0.348589 -0.401316
v -0.105175 0.350675 -0.401316
v -0.104311 0.348589 -0.470511
v -0.102936 0.359030 -0.470511
v -0.108056 0.359401 -0.470511
v -0.104311 0.357239 -0.470511
v -0.102936 0.359030 -0.470511
v -0.102936 0.359030 -0.401316
v -0.101145 0.360405 -0.470511
v -0.108056 0.359401 -0.470511
v -0.109352 0.356272 -0.470511
v -0.104311 0.357239 -0.470511
v -0.109352 0.356272 -0.401316
v -0.109794 0.352914 -0.401316
v -0.109352 0.356272 -0.470511
v -0.109352 0.356272 -0.470511
v -0.109794 0.352914 -0.470511
v -0.105470 0.352914 -0.470511
v -0.105470 0.352914 -0.470511
v -0.105175 0.350675 -0.470511
v -0.105470 0.352914 -0.401316
v -0.105175 0.350675 -0.401316
v -0.105470 0.352914 -0.401316
v -0.105175 0.350675 -0.470511
v -0.102936 0.359030 -0.470511
v -0.104311 0.357239 -0.470511
v -0.102936 0.359030 -0.401316
v -0.104311 0.357239 -0.470511
v -0.109352 0.356272 -0.470511
v -0.105175 0.355153 -0.470511
v -0.105175 0.355153 -0.470511
v -0.109352 0.356272 -0.470511
v -0.105470 0.352914 -0.470511
v -0.105470 0.352914 -0.401316
v -0.105175 0.355153 -0.401316
v -0.105470 0.352914 -0.470511
v -0.104311 0.357239 -0.401316
v -0.102936 0.359030 -0.401316
v -0.104311 0.357239 -0.470511
v -0.104311 0.357239 -0.470511
v -0.105175 0.355153 -0.470511
v -0.104311 0.357239 -0.401316
v -0.105175 0.355153 -0.470511
v -0.105470 0.352914 -0.470511
v -0.105175 0.355153 -0.401316
v -0.105175 0.355153 -0.401316
v -0.104311 0.357239 -0.401316
v -0.105175 0.355153 -0.470511
v -0.096820 0.339940 -0.401316
v -0.093462 0.340382 -0.470511
v -0.093462 0.340382 -0.401316
v -0.093462 0.340382 -0.401316
v -0.090333 0.341678 -0.470511
v -0.090333 0.341678 -0.401316
v -0.093462 0.365446 -0.401316
v -0.096820 0.365888 -0.470511
v -0.096820 0.365888 -0.401316
v -0.093462 0.340382 -0.470511
v -0.096820 0.339940 -0.401316
v -0.096820 0.339940 -0.470511
v -0.090333 0.341678 -0.470511
v -0.093462 0.340382 -0.401316
v -0.093462 0.340382 -0.470511
v -0.087646 0.343740 -0.470511
v -0.090333 0.341678 -0.401316
v -0.090333 0.341678 -0.470511
v -0.090333 0.341678 -0.401316
v -0.087646 0.343740 -0.470511
v -0.087646 0.343740 -0.401316
v -0.090333 0.364150 -0.401316
v -0.093462 0.365446 -0.470511
v -0.093462 0.365446 -0.401316
v -0.096820 0.365888 -0.470511
v -0.093462 0.365446 -0.401316
v -0.093462 0.365446 -0.470511
v -0.100178 0.365446 -0.470511
v -0.096820 0.365888 -0.401316
v -0.096820 0.365888 -0.470511
v -0.100178 0.340382 -0.401316
v -0.096820 0.339940 -0.470511
v -0.096820 0.339940 -0.401316
v -0.100178 0.340382 -0.470511
v -0.093462 0.340382 -0.470511
v -0.096820 0.339940 -0.470511
v -0.093462 0.340382 -0.470511
v -0.103307 0.341678 -0.470511
v -0.090333 0.341678 -0.470511
v -0.090333 0.341678 -0.470511
v -0.105994 0.343740 -0.470511
v -0.087646 0.343740 -0.470511
v -0.087646 0.343740 -0.470511
v -0.085585 0.346427 -0.401316
v -0.087646 0.343740 -0.401316
v -0.087646 0.362088 -0.401316
v -0.090333 0.364150 -0.470511
v -0.090333 0.364150 -0.401316
v -0.093462 0.365446 -0.470511
v -0.090333 0.364150 -0.401316
v -0.090333 0.364150 -0.470511
v -0.093462 0.365446 -0.470511
v -0.100178 0.365446 -0.470511
v -0.096820 0.365888 -0.470511
v -0.096820 0.365888 -0.401316
v -0.100178 0.365446 -0.470511
v -0.100178 0.365446 -0.401316
v -0.096820 0.339940 -0.470511
v -0.100178 0.340382 -0.401316
v -0.100178 0.340382 -0.470511
v -0.093462 0.340382 -0.470511
v -0.100178 0.340382 -0.470511
v -0.103307 0.341678 -0.470511
v -0.090333 0.341678 -0.470511
v -0.103307 0.341678 -0.470511
v -0.105994 0.343740 -0.470511
v -0.087646 0.343740 -0.470511
v -0.105994 0.343740 -0.470511
v -0.096820 0.344265 -0.470511
v -0.085585 0.346427 -0.401316
v -0.087646 0.343740 -0.470511
v -0.085585 0.346427 -0.470511
v -0.085585 0.346427 -0.470511
v -0.084288 0.349556 -0.401316
v -0.085585 0.346427 -0.401316
v -0.085585 0.359401 -0.470511
v -0.087646 0.362088 -0.401316
v -0.085585 0.359401 -0.401316
v -0.090333 0.364150 -0.470511
v -0.087646 0.362088 -0.401316
v -0.087646 0.362088 -0.470511
v -0.090333 0.364150 -0.470511
v -0.100178 0.365446 -0.470511
v -0.093462 0.365446 -0.470511
v -0.103307 0.364150 -0.470511
v -0.100178 0.365446 -0.401316
v -0.100178 0.365446 -0.470511
v -0.103307 0.341678 -0.401316
v -0.100178 0.340382 -0.470511
v -0.100178 0.340382 -0.401316
v -0.100178 0.340382 -0.470511
v -0.103307 0.341678 -0.401316
v -0.103307 0.341678 -0.470511
v -0.103307 0.341678 -0.470511
v -0.105994 0.343740 -0.401316
v -0.105994 0.343740 -0.470511
v -0.096820 0.344265 -0.470511
v -0.105994 0.343740 -0.470511
v -0.099059 0.344559 -0.470511
v -0.094582 0.344559 -0.470511
v -0.087646 0.343740 -0.470511
v -0.096820 0.344265 -0.470511
v -0.087646 0.343740 -0.470511
v -0.094582 0.344559 -0.470511
v -0.085585 0.346427 -0.470511
v -0.084288 0.349556 -0.401316
v -0.085585 0.346427 -0.470511
v -0.084288 0.349556 -0.470511
v -0.084288 0.349556 -0.470511
v -0.083846 0.352914 -0.401316
v -0.084288 0.349556 -0.401316
v -0.084288 0.356272 -0.470511
v -0.085585 0.359401 -0.401316
v -0.084288 0.356272 -0.401316
v -0.087646 0.362088 -0.401316
v -0.085585 0.359401 -0.470511
v -0.087646 0.362088 -0.470511
v -0.085585 0.359401 -0.401316
v -0.084288 0.356272 -0.470511
v -0.085585 0.359401 -0.470511
v -0.087646 0.362088 -0.470511
v -0.103307 0.364150 -0.470511
v -0.090333 0.364150 -0.470511
v -0.090333 0.364150 -0.470511
v -0.103307 0.364150 -0.470511
v -0.100178 0.365446 -0.470511
v -0.100178 0.365446 -0.401316
v -0.103307 0.364150 -0.470511
v -0.103307 0.364150 -0.401316
v -0.105994 0.343740 -0.401316
v -0.103307 0.341678 -0.470511
v -0.103307 0.341678 -0.401316
v -0.105994 0.343740 -0.401316
v -0.108056 0.346427 -0.470511
v -0.105994 0.343740 -0.470511
v -0.099059 0.344559 -0.470511
v -0.105994 0.343740 -0.470511
v -0.108056 0.346427 -0.470511
v -0.099059 0.344559 -0.470511
v -0.096820 0.344265 -0.401316
v -0.096820 0.344265 -0.470511
v -0.096820 0.344265 -0.470511
v -0.094582 0.344559 -0.401316
v -0.094582 0.344559 -0.470511
v -0.085585 0.346427 -0.470511
v -0.094582 0.344559 -0.470511
v -0.092496 0.345423 -0.470511
v -0.085585 0.346427 -0.470511
v -0.090704 0.346798 -0.470511
v -0.084288 0.349556 -0.470511
v -0.083846 0.352914 -0.401316
v -0.084288 0.349556 -0.470511
v -0.083846 0.352914 -0.470511
v -0.083846 0.352914 -0.470511
v -0.084288 0.356272 -0.401316
v -0.083846 0.352914 -0.401316
v -0.084288 0.356272 -0.401316
v -0.083846 0.352914 -0.470511
v -0.084288 0.356272 -0.470511
v -0.085585 0.359401 -0.470511
v -0.092496 0.360405 -0.470511
v -0.087646 0.362088 -0.470511
v -0.084288 0.356272 -0.470511
v -0.089330 0.357239 -0.470511
v -0.085585 0.359401 -0.470511
v -0.087646 0.362088 -0.470511
v -0.105994 0.362088 -0.470511
v -0.103307 0.364150 -0.470511
v -0.105994 0.362088 -0.470511
v -0.103307 0.364150 -0.401316
v -0.103307 0.364150 -0.470511
v -0.108056 0.346427 -0.470511
v -0.105994 0.343740 -0.401316
v -0.108056 0.346427 -0.401316
v -0.099059 0.344559 -0.470511
v -0.108056 0.346427 -0.470511
v -0.101145 0.345423 -0.470511
v -0.096820 0.344265 -0.401316
v -0.099059 0.344559 -0.470511
v -0.099059 0.344559 -0.401316
v -0.094582 0.344559 -0.401316
v -0.096820 0.344265 -0.470511
v -0.096820 0.344265 -0.401316
v -0.092496 0.345423 -0.401316
v -0.094582 0.344559 -0.470511
v -0.094582 0.344559 -0.401316
v -0.094582 0.344559 -0.470511
v -0.092496 0.345423 -0.401316
v -0.092496 0.345423 -0.470511
v -0.085585 0.346427 -0.470511
v -0.092496 0.345423 -0.470511
v -0.090704 0.346798 -0.470511
v -0.084288 0.349556 -0.470511
v -0.090704 0.346798 -0.470511
v -0.089330 0.348589 -0.470511
v -0.084288 0.349556 -0.470511
v -0.088466 0.350675 -0.470511
v -0.083846 0.352914 -0.470511
v -0.083846 0.352914 -0.470511
v -0.088466 0.355153 -0.470511
v -0.084288 0.356272 -0.470511
v -0.085585 0.359401 -0.470511
v -0.090704 0.359030 -0.470511
v -0.092496 0.360405 -0.470511
v -0.087646 0.362088 -0.470511
v -0.092496 0.360405 -0.470511
v -0.094582 0.361269 -0.470511
v -0.084288 0.356272 -0.470511
v -0.088466 0.355153 -0.470511
v -0.089330 0.357239 -0.470511
v -0.085585 0.359401 -0.470511
v -0.089330 0.357239 -0.470511
v -0.090704 0.359030 -0.470511
v -0.087646 0.362088 -0.470511
v -0.096820 0.361563 -0.470511
v -0.105994 0.362088 -0.470511
v -0.103307 0.364150 -0.401316
v -0.105994 0.362088 -0.470511
v -0.105994 0.362088 -0.401316
v -0.108056 0.346427 -0.401316
v -0.109352 0.349556 -0.470511
v -0.108056 0.346427 -0.470511
v -0.101145 0.345423 -0.470511
v -0.108056 0.346427 -0.470511
v -0.102936 0.346798 -0.470511
v -0.101145 0.345423 -0.470511
v -0.099059 0.344559 -0.401316
v -0.099059 0.344559 -0.470511
v -0.090704 0.346798 -0.401316
v -0.092496 0.345423 -0.470511
v -0.092496 0.345423 -0.401316
v -0.092496 0.345423 -0.470511
v -0.090704 0.346798 -0.401316
v -0.090704 0.346798 -0.470511
v -0.090704 0.346798 -0.401316
v -0.089330 0.348589 -0.470511
v -0.090704 0.346798 -0.470511
v -0.084288 0.349556 -0.470511
v -0.089330 0.348589 -0.470511
v -0.088466 0.350675 -0.470511
v -0.083846 0.352914 -0.470511
v -0.088466 0.350675 -0.470511
v -0.088171 0.352914 -0.470511
v -0.083846 0.352914 -0.470511
v -0.088171 0.352914 -0.470511
v -0.088466 0.355153 -0.470511
v -0.090704 0.359030 -0.470511
v -0.092496 0.360405 -0.401316
v -0.092496 0.360405 -0.470511
v -0.092496 0.360405 -0.470511
v -0.094582 0.361269 -0.401316
v -0.094582 0.361269 -0.470511
v -0.087646 0.362088 -0.470511
v -0.094582 0.361269 -0.470511
v -0.096820 0.361563 -0.470511
v -0.088466 0.355153 -0.401316
v -0.089330 0.357239 -0.470511
v -0.088466 0.355153 -0.470511
v -0.089330 0.357239 -0.401316
v -0.090704 0.359030 -0.470511
v -0.089330 0.357239 -0.470511
v -0.099059 0.361269 -0.470511
v -0.105994 0.362088 -0.470511
v -0.096820 0.361563 -0.470511
v -0.105994 0.362088 -0.470511
v -0.108056 0.359401 -0.401316
v -0.105994 0.362088 -0.401316
v -0.109352 0.349556 -0.470511
v -0.108056 0.346427 -0.401316
v -0.109352 0.349556 -0.401316
v -0.102936 0.346798 -0.470511
v -0.108056 0.346427 -0.470511
v -0.109352 0.349556 -0.470511
v -0.102936 0.346798 -0.470511
v -0.101145 0.345423 -0.401316
v -0.101145 0.345423 -0.470511
v -0.099059 0.344559 -0.401316
v -0.101145 0.345423 -0.470511
v -0.101145 0.345423 -0.401316
v -0.089330 0.348589 -0.470511
v -0.090704 0.346798 -0.401316
v -0.089330 0.348589 -0.401316
v -0.089330 0.348589 -0.401316
v -0.088466 0.350675 -0.470511
v -0.089330 0.348589 -0.470511
v -0.088466 0.350675 -0.401316
v -0.088171 0.352914 -0.470511
v -0.088466 0.350675 -0.470511
v -0.088171 0.352914 -0.401316
v -0.088466 0.355153 -0.470511
v -0.088171 0.352914 -0.470511
v -0.092496 0.360405 -0.401316
v -0.090704 0.359030 -0.470511
v -0.090704 0.359030 -0.401316
v -0.094582 0.361269 -0.401316
v -0.092496 0.360405 -0.470511
v -0.092496 0.360405 -0.401316
v -0.096820 0.361563 -0.401316
v -0.094582 0.361269 -0.470511
v -0.094582 0.361269 -0.401316
v -0.094582 0.361269 -0.470511
v -0.096820 0.361563 -0.401316
v -0.096820 0.361563 -0.470511
v -0.089330 0.357239 -0.470511
v -0.088466 0.355153 -0.401316
v -0.089330 0.357239 -0.401316
v -0.088466 0.355153 -0.470511
v -0.088171 0.352914 -0.401316
v -0.088466 0.355153 -0.401316
v -0.090704 0.359030 -0.470511
v -0.089330 0.357239 -0.401316
v -0.090704 0.359030 -0.401316
v -0.101145 0.360405 -0.470511
v -0.105994 0.362088 -0.470511
v -0.099059 0.361269 -0.470511
v -0.096820 0.361563 -0.470511
v -0.099059 0.361269 -0.401316
v -0.099059 0.361269 -0.470511
v -0.108056 0.359401 -0.401316
v -0.105994 0.362088 -0.470511
v -0.108056 0.359401 -0.470511
v -0.109352 0.349556 -0.401316
v -0.109794 0.352914 -0.470511
v -0.109352 0.349556 -0.470511
v -0.102936 0.346798 -0.470511
v -0.109352 0.349556 -0.470511
v -0.104311 0.348589 -0.470511
v -0.101145 0.345423 -0.401316
v -0.102936 0.346798 -0.470511
v -0.102936 0.346798 -0.401316
v -0.088466 0.350675 -0.470511
v -0.089330 0.348589 -0.401316
v -0.088466 0.350675 -0.401316
v -0.088171 0.352914 -0.470511
v -0.088466 0.350675 -0.401316
v -0.088171 0.352914 -0.401316
v -0.099059 0.361269 -0.401316
v -0.096820 0.361563 -0.470511
v -0.096820 0.361563 -0.401316
v -0.101145 0.360405 -0.470511
v -0.108056 0.359401 -0.470511
v -0.105994 0.362088 -0.470511
v -0.099059 0.361269 -0.470511
v -0.101145 0.360405 -0.401316
v -0.101145 0.360405 -0.470511
v -0.101145 0.360405 -0.401316
v -0.099059 0.361269 -0.470511
v -0.099059 0.361269 -0.401316
v -0.108056 0.359401 -0.470511
v -0.109352 0.356272 -0.401316
v -0.108056 0.359401 -0.401316
v -0.109794 0.352914 -0.470511
v -0.109352 0.349556 -0.401316
v -0.109794 0.352914 -0.401316
v -0.105175 0.350675 -0.470511
v -0.109352 0.349556 -0.470511
v -0.109794 0.352914 -0.470511
v -0.104311 0.348589 -0.470511
v -0.109352 0.349556 -0.470511
v -0.105175 0.350675 -0.470511
v -0.104311 0.348589 -0.401316
v -0.102936 0.346798 -0.470511
v -0.104311 0.348589 -0.470511
v -0.102936 0.346798 -0.470511
v -0.104311 0.348589 -0.401316
v -0.102936 0.346798 -0.401316
v -0.102936 0.359030 -0.470511
v -0.108056 0.359401 -0.470511
v -0.101145 0.360405 -0.470511
v -0.102936 0.359030 -0.401316
v -0.101145 0.360405 -0.470511
v -0.101145 0.360405 -0.401316
v -0.109352 0.356272 -0.401316
v -0.108056 0.359401 -0.470511
v -0.109352 0.356272 -0.470511
v -0.109794 0.352914 -0.401316
v -0.109352 0.356272 -0.470511
v -0.109794 0.352914 -0.470511
v -0.105175 0.350675 -0.470511
v -0.109794 0.352914 -0.470511
v -0.105470 0.352914 -0.470511
v -0.105175 0.350675 -0.401316
v -0.104311 0.348589 -0.470511
v -0.105175 0.350675 -0.470511
v -0.104311 0.348589 -0.470511
v -0.105175 0.350675 -0.401316
v -0.104311 0.348589 -0.401316
v -0.104311 0.357239 -0.470511
v -0.108056 0.359401 -0.470511
v -0.102936 0.359030 -0.470511
v -0.101145 0.360405 -0.470511
v -0.102936 0.359030 -0.401316
v -0.102936 0.359030 -0.470511
v -0.104311 0.357239 -0.470511
v -0.109352 0.356272 -0.470511
v -0.108056 0.359401 -0.470511
v -0.109352 0.356272 -0.470511
v -0.109794 0.352914 -0.401316
v -0.109352 0.356272 -0.401316
v -0.105470 0.352914 -0.470511
v -0.109794 0.352914 -0.470511
v -0.109352 0.356272 -0.470511
v -0.105470 0.352914 -0.401316
v -0.105175 0.350675 -0.470511
v -0.105470 0.352914 -0.470511
v -0.105175 0.350675 -0.470511
v -0.105470 0.352914 -0.401316
v -0.105175 0.350675 -0.401316
v -0.102936 0.359030 -0.401316
v -0.104311 0.357239 -0.470511
v -0.102936 0.359030 -0.470511
v -0.105175 0.355153 -0.470511
v -0.109352 0.356272 -0.470511
v -0.104311 0.357239 -0.470511
v -0.105470 0.352914 -0.470511
v -0.109352 0.356272 -0.470511
v -0.105175 0.355153 -0.470511
v -0.105470 0.352914 -0.470511
v -0.105175 0.355153 -0.401316
v -0.105470 0.352914 -0.401316
v -0.104311 0.357239 -0.470511
v -0.102936 0.359030 -0.401316
v -0.104311 0.357239 -0.401316
v -0.104311 0.357239 -0.401316
v -0.105175 0.355153 -0.470511
v -0.104311 0.357239 -0.470511
v -0.105175 0.355153 -0.401316
v -0.105470 0.352914 -0.470511
v -0.105175 0.355153 -0.470511
v -0.105175 0.355153 -0.470511
v -0.104311 0.357239 -0.401316
v -0.105175 0.355153 -0.401316
vt 0 0
vn -0.25881897461707376 0.9659258451755842 0
vn 0 1 0
vn -0.5000001873976233 0.8660252955903434 0
vn 0 -1 0
vn -0.25881897461707376 -0.9659258451755842 0
vn -0.7071067811865476 0.7071067811865476 0
vn -0.5000001873976233 -0.8660252955903434 0
vn 0.25881897461707376 -0.9659258451755842 0
vn 0.25881897461707376 0.9659258451755842 0
vn 0 0 1
vn -0.8660252955903434 0.5000001873976233 0
vn -0.7071067811865476 -0.7071067811865476 0
vn -0.9659258451755842 0.25881897461707376 0
vn -0.8660252955903434 -0.5000001873976233 0
vn 0.5000001873976233 -0.8660252955903434 0
vn 0.5000001873976233 0.8660252955903434 0
vn 0.7071067811865476 0.7071067811865476 0
vn -1 0 0
vn -0.9659258451755842 -0.25881897461707376 0
vn 0.8660252955903434 0.5000001873976233 0
vn 0.7071067811865476 -0.7071067811865476 0
vn 0.9659258451755842 0.25881897461707376 0
vn 0.8660252955903434 -0.5000001873976233 0
vn 0.9659258451755842 -0.25881897461707376 0
vn 1 0 0
vn 0 0 -1
usemtl material_0_0
f 1/1/1 2/1/1 3/1/2
f 4/1/3 5/1/3 6/1/1
f 7/1/4 8/1/4 9/1/5
f 10/1/2 11/1/2 12/1/1
f 13/1/1 14/1/1 15/1/3
f 16/1/3 17/1/3 18/1/6
f 19/1/6 20/1/6 21/1/3
f 22/1/5 23/1/5 24/1/7
f 25/1/5 26/1/5 27/1/4
f 28/1/4 29/1/4 30/1/8
f 31/1/2 32/1/2 33/1/9
f 34/1/10 35/1/10 36/1/10
f 37/1/10 38/1/10 39/1/10
f 40/1/10 41/1/10 42/1/10
f 43/1/6 44/1/11 45/1/6
f 46/1/7 47/1/7 48/1/12
f 49/1/7 50/1/7 51/1/5
f 52/1/10 53/1/10 54/1/10
f 55/1/8 56/1/8 57/1/4
f 58/1/9 59/1/9 60/1/2
f 61/1/10 62/1/10 63/1/10
f 64/1/10 65/1/10 66/1/10
f 67/1/10 68/1/10 69/1/10
f 70/1/11 71/1/6 72/1/11
f 73/1/11 74/1/13 75/1/11
f 76/1/14 77/1/12 78/1/14
f 79/1/12 80/1/12 81/1/7
f 82/1/10 83/1/10 84/1/10
f 85/1/8 86/1/8 87/1/15
f 88/1/9 89/1/9 90/1/16
f 91/1/16 92/1/16 93/1/9
f 94/1/17 95/1/17 96/1/16
f 97/1/10 98/1/10 99/1/10
f 100/1/10 101/1/10 102/1/10
f 103/1/10 104/1/10 105/1/10
f 106/1/13 107/1/11 108/1/13
f 109/1/13 110/1/18 111/1/13
f 112/1/19 113/1/14 114/1/19
f 115/1/12 116/1/14 117/1/12
f 118/1/14 119/1/19 120/1/14
f 121/1/10 122/1/10 123/1/10
f 124/1/10 125/1/10 126/1/10
f 127/1/15 128/1/15 129/1/8
f 130/1/16 131/1/16 132/1/17
f 133/1/17 134/1/20 135/1/17
f 136/1/10 137/1/10 138/1/10
f 139/1/4 140/1/4 141/1/5
f 142/1/8 143/1/8 144/1/4
f 145/1/10 146/1/10 147/1/10
f 148/1/10 149/1/10 150/1/10
f 151/1/18 152/1/13 153/1/18
f 154/1/18 155/1/19 156/1/18
f 157/1/19 158/1/18 159/1/19
f 160/1/10 161/1/10 162/1/10
f 163/1/10 164/1/10 165/1/10
f 166/1/10 167/1/10 168/1/10
f 169/1/15 170/1/15 171/1/21
f 172/1/20 173/1/17 174/1/20
f 175/1/10 176/1/10 177/1/10
f 178/1/5 179/1/5 180/1/4
f 181/1/4 182/1/4 183/1/8
f 184/1/8 185/1/8 186/1/15
f 187/1/15 188/1/15 189/1/8
f 190/1/10 191/1/10 192/1/10
f 193/1/10 194/1/10 195/1/10
f 196/1/10 197/1/10 198/1/10
f 199/1/10 200/1/10 201/1/10
f 202/1/10 203/1/10 204/1/10
f 205/1/10 206/1/10 207/1/10
f 208/1/10 209/1/10 210/1/10
f 211/1/10 212/1/10 213/1/10
f 214/1/10 215/1/10 216/1/10
f 217/1/21 218/1/21 219/1/15
f 220/1/20 221/1/22 222/1/20
f 223/1/10 224/1/10 225/1/10
f 226/1/5 227/1/5 228/1/7
f 229/1/15 230/1/15 231/1/21
f 232/1/21 233/1/21 234/1/15
f 235/1/21 236/1/23 237/1/21
f 238/1/10 239/1/10 240/1/10
f 241/1/10 242/1/10 243/1/10
f 244/1/10 245/1/10 246/1/10
f 247/1/16 248/1/16 249/1/17
f 250/1/9 251/1/9 252/1/16
f 253/1/10 254/1/10 255/1/10
f 256/1/22 257/1/20 258/1/22
f 259/1/20 260/1/17 261/1/20
f 262/1/10 263/1/10 264/1/10
f 265/1/21 266/1/23 267/1/21
f 268/1/22 269/1/20 270/1/22
f 271/1/10 272/1/10 273/1/10
f 274/1/7 275/1/7 276/1/12
f 277/1/7 278/1/7 279/1/5
f 280/1/23 281/1/21 282/1/23
f 283/1/23 284/1/24 285/1/23
f 286/1/24 287/1/25 288/1/24
f 289/1/25 290/1/22 291/1/25
f 292/1/17 293/1/17 294/1/16
f 295/1/16 296/1/16 297/1/9
f 298/1/9 299/1/9 300/1/2
f 301/1/2 302/1/2 303/1/9
f 304/1/20 305/1/22 306/1/20
f 307/1/22 308/1/25 309/1/22
f 310/1/17 311/1/20 312/1/17
f 313/1/10 314/1/10 315/1/10
f 316/1/1 317/1/1 318/1/2
f 319/1/23 320/1/21 321/1/23
f 322/1/22 323/1/25 324/1/22
f 325/1/10 326/1/10 327/1/10
f 328/1/12 329/1/12 330/1/7
f 331/1/24 332/1/23 333/1/24
f 334/1/25 335/1/24 336/1/25
f 337/1/2 338/1/2 339/1/1
f 340/1/10 341/1/10 342/1/10
f 343/1/3 344/1/3 345/1/1
f 346/1/1 347/1/1 348/1/3
f 349/1/23 350/1/24 351/1/23
f 352/1/25 353/1/22 354/1/25
f 355/1/10 356/1/10 357/1/10
f 358/1/10 359/1/10 360/1/10
f 361/1/14 362/1/12 363/1/14
f 364/1/12 365/1/14 366/1/12
f 367/1/10 368/1/10 369/1/10
f 370/1/3 371/1/3 372/1/6
f 373/1/24 374/1/23 375/1/24
f 376/1/25 377/1/24 378/1/25
f 379/1/10 380/1/10 381/1/10
f 382/1/19 383/1/14 384/1/19
f 385/1/14 386/1/19 387/1/14
f 388/1/10 389/1/10 390/1/10
f 391/1/6 392/1/6 393/1/3
f 394/1/10 395/1/10 396/1/10
f 397/1/24 398/1/25 399/1/24
f 400/1/10 401/1/10 402/1/10
f 403/1/18 404/1/19 405/1/18
f 406/1/19 407/1/18 408/1/19
f 409/1/6 410/1/11 411/1/6
f 412/1/10 413/1/10 414/1/10
f 415/1/10 416/1/10 417/1/10
f 418/1/18 419/1/13 420/1/18
f 421/1/11 422/1/6 423/1/11
f 424/1/11 425/1/13 426/1/11
f 427/1/13 428/1/18 429/1/13
f 430/1/13 431/1/11 432/1/13
usemtl material_1_0
f 433/1/4 434/1/8 435/1/8
f 436/1/8 437/1/15 438/1/15
f 439/1/9 440/1/2 441/1/2
f 442/1/8 443/1/4 444/1/4
f 445/1/15 446/1/8 447/1/8
f 448/1/21 449/1/15 450/1/15
f 451/1/15 452/1/21 453/1/21
f 454/1/16 455/1/9 456/1/9
f 457/1/2 458/1/9 459/1/9
f 460/1/1 461/1/2 462/1/2
f 463/1/5 464/1/4 465/1/4
f 466/1/26 467/1/26 468/1/26
f 469/1/26 470/1/26 471/1/26
f 472/1/26 473/1/26 474/1/26
f 475/1/21 476/1/23 477/1/21
f 478/1/17 479/1/16 480/1/16
f 481/1/9 482/1/16 483/1/16
f 484/1/26 485/1/26 486/1/26
f 487/1/2 488/1/1 489/1/1
f 490/1/4 491/1/5 492/1/5
f 493/1/26 494/1/26 495/1/26
f 496/1/26 497/1/26 498/1/26
f 499/1/26 500/1/26 501/1/26
f 502/1/23 503/1/21 504/1/23
f 505/1/23 506/1/24 507/1/23
f 508/1/20 509/1/17 510/1/20
f 511/1/16 512/1/17 513/1/17
f 514/1/26 515/1/26 516/1/26
f 517/1/3 518/1/1 519/1/1
f 520/1/7 521/1/5 522/1/5
f 523/1/5 524/1/7 525/1/7
f 526/1/7 527/1/12 528/1/12
f 529/1/26 530/1/26 531/1/26
f 532/1/26 533/1/26 534/1/26
f 535/1/26 536/1/26 537/1/26
f 538/1/24 539/1/23 540/1/24
f 541/1/24 542/1/25 543/1/24
f 544/1/22 545/1/20 546/1/22
f 547/1/17 548/1/20 549/1/17
f 550/1/20 551/1/22 552/1/20
f 553/1/26 554/1/26 555/1/26
f 556/1/26 557/1/26 558/1/26
f 559/1/1 560/1/3 561/1/3
f 562/1/12 563/1/7 564/1/7
f 565/1/12 566/1/14 567/1/12
f 568/1/26 569/1/26 570/1/26
f 571/1/9 572/1/2 573/1/2
f 574/1/2 575/1/1 576/1/1
f 577/1/26 578/1/26 579/1/26
f 580/1/26 581/1/26 582/1/26
f 583/1/25 584/1/24 585/1/25
f 586/1/25 587/1/22 588/1/25
f 589/1/22 590/1/25 591/1/22
f 592/1/26 593/1/26 594/1/26
f 595/1/26 596/1/26 597/1/26
f 598/1/26 599/1/26 600/1/26
f 601/1/6 602/1/3 603/1/3
f 604/1/14 605/1/12 606/1/14
f 607/1/26 608/1/26 609/1/26
f 610/1/2 611/1/9 612/1/9
f 613/1/1 614/1/2 615/1/2
f 616/1/3 617/1/1 618/1/1
f 619/1/1 620/1/3 621/1/3
f 622/1/26 623/1/26 624/1/26
f 625/1/26 626/1/26 627/1/26
f 628/1/26 629/1/26 630/1/26
f 631/1/26 632/1/26 633/1/26
f 634/1/26 635/1/26 636/1/26
f 637/1/26 638/1/26 639/1/26
f 640/1/26 641/1/26 642/1/26
f 643/1/26 644/1/26 645/1/26
f 646/1/26 647/1/26 648/1/26
f 649/1/3 650/1/6 651/1/6
f 652/1/14 653/1/19 654/1/14
f 655/1/26 656/1/26 657/1/26
f 658/1/16 659/1/9 660/1/9
f 661/1/6 662/1/3 663/1/3
f 664/1/3 665/1/6 666/1/6
f 667/1/6 668/1/11 669/1/6
f 670/1/26 671/1/26 672/1/26
f 673/1/26 674/1/26 675/1/26
f 676/1/26 677/1/26 678/1/26
f 679/1/12 680/1/7 681/1/7
f 682/1/7 683/1/5 684/1/5
f 685/1/26 686/1/26 687/1/26
f 688/1/19 689/1/14 690/1/19
f 691/1/14 692/1/12 693/1/14
f 694/1/26 695/1/26 696/1/26
f 697/1/6 698/1/11 699/1/6
f 700/1/19 701/1/14 702/1/19
f 703/1/26 704/1/26 705/1/26
f 706/1/17 707/1/16 708/1/16
f 709/1/9 710/1/16 711/1/16
f 712/1/11 713/1/6 714/1/11
f 715/1/11 716/1/13 717/1/11
f 718/1/13 719/1/18 720/1/13
f 721/1/18 722/1/19 723/1/18
f 724/1/7 725/1/12 726/1/12
f 727/1/5 728/1/7 729/1/7
f 730/1/4 731/1/5 732/1/5
f 733/1/5 734/1/4 735/1/4
f 736/1/14 737/1/19 738/1/14
f 739/1/19 740/1/18 741/1/19
f 742/1/12 743/1/14 744/1/12
f 745/1/26 746/1/26 747/1/26
f 748/1/4 749/1/8 750/1/8
f 751/1/11 752/1/6 753/1/11
f 754/1/19 755/1/18 756/1/19
f 757/1/26 758/1/26 759/1/26
f 760/1/16 761/1/17 762/1/17
f 763/1/13 764/1/11 765/1/13
f 766/1/18 767/1/13 768/1/18
f 769/1/8 770/1/4 771/1/4
f 772/1/26 773/1/26 774/1/26
f 775/1/8 776/1/15 777/1/15
f 778/1/15 779/1/8 780/1/8
f 781/1/11 782/1/13 783/1/11
f 784/1/18 785/1/19 786/1/18
f 787/1/26 788/1/26 789/1/26
f 790/1/26 791/1/26 792/1/26
f 793/1/20 794/1/17 795/1/20
f 796/1/17 797/1/20 798/1/17
f 799/1/26 800/1/26 801/1/26
f 802/1/21 803/1/15 804/1/15
f 805/1/13 806/1/11 807/1/13
f 808/1/18 809/1/13 810/1/18
f 811/1/26 812/1/26 813/1/26
f 814/1/22 815/1/20 816/1/22
f 817/1/20 818/1/22 819/1/20
f 820/1/26 821/1/26 822/1/26
f 823/1/15 824/1/21 825/1/21
f 826/1/26 827/1/26 828/1/26
f 829/1/13 830/1/18 831/1/13
f 832/1/26 833/1/26 834/1/26
f 835/1/25 836/1/22 837/1/25
f 838/1/22 839/1/25 840/1/22
f 841/1/21 842/1/23 843/1/21
f 844/1/26 845/1/26 846/1/26
f 847/1/26 848/1/26 849/1/26
f 850/1/25 851/1/24 852/1/25
f 853/1/23 854/1/21 855/1/23
f 856/1/23 857/1/24 858/1/23
f 859/1/24 860/1/25 861/1/24
f 862/1/24 863/1/23 864/1/24
