# SSTK version 0.8.0
# 2
mtllib original-2.mtl
o mesh1/mesh1-geometry#mesh1-geometry
v 0.295370 0.704437 -0.406959
v 0.294294 0.719842 -0.366501
v 0.295370 0.721135 -0.367042
v 0.294294 0.703144 -0.406418
v 0.304940 0.721135 -0.367042
v 0.296771 0.722127 -0.367457
v 0.306016 0.703144 -0.406418
v 0.293618 0.718336 -0.365871
v 0.306016 0.719842 -0.366501
v 0.303539 0.722127 -0.367457
v 0.296771 0.705429 -0.407374
v 0.306692 0.701638 -0.405788
v 0.304940 0.704437 -0.406959
v 0.293618 0.701638 -0.405788
v 0.303539 0.705429 -0.407374
v 0.298403 0.722751 -0.367718
v 0.301906 0.722751 -0.367718
v 0.293388 0.716720 -0.365195
v 0.306692 0.718336 -0.365871
v 0.301906 0.706053 -0.407635
v 0.298403 0.706053 -0.407635
v 0.306922 0.700023 -0.405112
v 0.293388 0.700023 -0.405112
v 0.300155 0.722963 -0.367807
v 0.300155 0.706266 -0.407724
v 0.293618 0.715104 -0.364519
v 0.306922 0.716720 -0.365195
v 0.306692 0.698407 -0.404436
v 0.293618 0.698407 -0.404436
v 0.294294 0.713599 -0.363889
v 0.306692 0.715104 -0.364519
v 0.306016 0.696901 -0.403807
v 0.294294 0.696901 -0.403807
v 0.295370 0.712306 -0.363349
v 0.306016 0.713599 -0.363889
v 0.304940 0.695608 -0.403266
v 0.295370 0.695608 -0.403266
v 0.296771 0.694616 -0.402851
v 0.304940 0.712306 -0.363349
v 0.303539 0.694616 -0.402851
v 0.296771 0.711314 -0.362934
v 0.303539 0.711314 -0.362934
v 0.298403 0.693992 -0.402590
v 0.301906 0.693992 -0.402590
v 0.301906 0.710690 -0.362673
v 0.298403 0.710690 -0.362673
v 0.300155 0.693780 -0.402501
v 0.300155 0.710477 -0.362584
vn -0.7071068198762278 0.6523328338289953 -0.27287693048911305
vn -0.8660253242421071 0.46126917270036377 -0.19295307224212604
vn 0.7071068198762278 -0.6523328338289953 0.27287693048911305
vn 0.8660253242421071 -0.46126917270036377 0.19295307224212604
vn 0 0.3859060381506727 0.9225380912021205
vn 0 -0.3859060381506727 -0.9225380912021205
vn -0.5000002412259246 0.7989413854505629 -0.33420416123733765
vn 0.5000002412259246 -0.7989413854505629 0.33420416123733765
vn -0.9659259204192985 0.2387699803282197 -0.09987999177108751
vn 0.9659259204192985 -0.2387699803282197 0.09987999177108751
vn 0.8660253242421071 0.46126917270036377 -0.19295307224212604
vn 0.7071068198762278 0.6523328338289953 -0.27287693048911305
vn -0.8660253242421071 -0.46126917270036377 0.19295307224212604
vn -0.7071068198762278 -0.6523328338289953 0.27287693048911305
vn 0.5000002412259246 0.7989413854505629 -0.33420416123733765
vn -0.5000002412259246 -0.7989413854505629 0.33420416123733765
vn -0.25881905015667805 0.8911031726873464 -0.3727570722367862
vn 0.25881905015667805 -0.8911031726873464 0.3727570722367862
vn 0.9659259204192985 0.2387699803282197 -0.09987999177108751
vn -0.9659259204192985 -0.2387699803282197 0.09987999177108751
vn -1 0 0
vn 1 0 0
vn 0.25881905015667805 0.8911031726873464 -0.3727570722367862
vn -0.25881905015667805 -0.8911031726873464 0.3727570722367862
vn 0 0.9225380912021205 -0.3859060381506727
vn 0 -0.9225380912021205 0.3859060381506727
usemtl material_0_0
f 1//1 2//2 3//1
f 2//2 1//1 4//2
f 3//3 2//4 1//3
f 4//4 1//3 2//4
f 2//5 5//5 3//5
f 3//6 5//6 2//6
f 6//7 1//1 3//1
f 3//3 1//3 6//8
f 7//6 4//6 1//6
f 1//5 4//5 7//5
f 4//2 8//9 2//2
f 2//4 8//10 4//4
f 2//5 9//5 5//5
f 5//6 9//6 2//6
f 3//5 5//5 10//5
f 10//6 5//6 3//6
f 1//1 6//7 11//7
f 11//8 6//8 1//3
f 3//5 10//5 6//5
f 6//6 10//6 3//6
f 12//6 4//6 7//6
f 7//5 4//5 12//5
f 7//6 1//6 13//6
f 13//5 1//5 7//5
f 8//9 4//2 14//9
f 14//10 4//4 8//10
f 8//5 9//5 2//5
f 2//6 9//6 8//6
f 7//11 5//12 9//11
f 9//13 5//14 7//13
f 5//12 15//15 10//15
f 10//16 15//16 5//14
f 16//17 11//7 6//7
f 6//8 11//8 16//18
f 13//6 1//6 11//6
f 11//5 1//5 13//5
f 6//5 10//5 17//5
f 17//6 10//6 6//6
f 12//6 14//6 4//6
f 4//5 14//5 12//5
f 9//11 12//19 7//11
f 7//13 12//20 9//13
f 5//12 7//11 13//12
f 13//14 7//13 5//14
f 14//9 18//21 8//9
f 8//10 18//22 14//10
f 8//5 19//5 9//5
f 9//6 19//6 8//6
f 15//15 5//12 13//12
f 13//14 5//14 15//16
f 20//23 10//15 15//15
f 15//16 10//16 20//24
f 11//7 16//17 21//17
f 21//18 16//18 11//8
f 6//5 17//5 16//5
f 16//6 17//6 6//6
f 13//6 11//6 15//6
f 15//5 11//5 13//5
f 10//15 20//23 17//23
f 17//24 20//24 10//16
f 22//6 14//6 12//6
f 12//5 14//5 22//5
f 12//19 9//11 19//19
f 19//20 9//13 12//20
f 18//21 14//9 23//21
f 23//22 14//10 18//22
f 18//5 19//5 8//5
f 8//6 19//6 18//6
f 15//6 21//6 20//6
f 20//5 21//5 15//5
f 24//25 21//17 16//17
f 16//18 21//18 24//26
f 15//6 11//6 21//6
f 21//5 11//5 15//5
f 16//5 17//5 24//5
f 24//6 17//6 16//6
f 25//25 17//23 20//23
f 20//24 17//24 25//26
f 22//6 23//6 14//6
f 14//5 23//5 22//5
f 19//19 22//22 12//19
f 12//20 22//21 19//20
f 23//21 26//20 18//21
f 18//22 26//19 23//22
f 18//5 27//5 19//5
f 19//6 27//6 18//6
f 20//6 21//6 25//6
f 25//5 21//5 20//5
f 21//17 24//25 25//25
f 25//26 24//26 21//18
f 17//23 25//25 24//25
f 24//26 25//26 17//24
f 28//6 23//6 22//6
f 22//5 23//5 28//5
f 22//22 19//19 27//22
f 27//21 19//20 22//21
f 26//20 23//21 29//20
f 29//19 23//22 26//19
f 26//5 27//5 18//5
f 18//6 27//6 26//6
f 28//6 29//6 23//6
f 23//5 29//5 28//5
f 27//22 28//10 22//22
f 22//21 28//9 27//21
f 29//20 30//13 26//20
f 26//19 30//11 29//19
f 26//5 31//5 27//5
f 27//6 31//6 26//6
f 32//6 29//6 28//6
f 28//5 29//5 32//5
f 28//10 27//22 31//10
f 31//9 27//21 28//9
f 30//13 29//20 33//13
f 33//11 29//19 30//11
f 30//5 31//5 26//5
f 26//6 31//6 30//6
f 32//6 33//6 29//6
f 29//5 33//5 32//5
f 31//10 32//4 28//10
f 28//9 32//2 31//9
f 33//13 34//14 30//13
f 30//11 34//12 33//11
f 30//5 35//5 31//5
f 31//6 35//6 30//6
f 36//6 33//6 32//6
f 32//5 33//5 36//5
f 32//4 31//10 35//4
f 35//2 31//9 32//2
f 34//14 33//13 37//14
f 37//12 33//11 34//12
f 34//5 35//5 30//5
f 30//6 35//6 34//6
f 36//6 37//6 33//6
f 33//5 37//5 36//5
f 35//4 36//3 32//4
f 32//2 36//1 35//2
f 38//16 34//14 37//14
f 37//12 34//12 38//15
f 34//5 39//5 35//5
f 35//6 39//6 34//6
f 40//6 37//6 36//6
f 36//5 37//5 40//5
f 36//3 35//4 39//3
f 39//1 35//2 36//1
f 34//14 38//16 41//16
f 41//15 38//15 34//12
f 40//6 38//6 37//6
f 37//5 38//5 40//5
f 41//5 39//5 34//5
f 34//6 39//6 41//6
f 36//3 42//8 40//8
f 40//7 42//7 36//1
f 42//8 36//3 39//3
f 39//1 36//1 42//7
f 43//24 41//16 38//16
f 38//15 41//15 43//23
f 44//6 38//6 40//6
f 40//5 38//5 44//5
f 41//5 42//5 39//5
f 39//6 42//6 41//6
f 45//18 40//8 42//8
f 42//7 40//7 45//17
f 41//16 43//24 46//24
f 46//23 43//23 41//15
f 44//6 43//6 38//6
f 38//5 43//5 44//5
f 40//8 45//18 44//18
f 44//17 45//17 40//7
f 46//5 42//5 41//5
f 41//6 42//6 46//6
f 46//5 45//5 42//5
f 42//6 45//6 46//6
f 47//26 46//24 43//24
f 43//23 46//23 47//25
f 43//6 44//6 47//6
f 47//5 44//5 43//5
f 48//26 44//18 45//18
f 45//17 44//17 48//25
f 45//5 46//5 48//5
f 48//6 46//6 45//6
f 46//24 47//26 48//26
f 48//25 47//25 46//23
f 44//18 48//26 47//26
f 47//25 48//25 44//17
