# SSTK version 0.8.0
# 15
mtllib original-15.mtl
o mesh2/mesh2-geometry/material_0#mesh2-geometry
v 0.300155 0.723184 -0.367899
v 0.298342 0.733778 -0.341954
v 0.298342 0.722963 -0.367807
v 0.298342 0.733778 -0.341954
v 0.300155 0.723184 -0.367899
v 0.300155 0.733998 -0.342046
v 0.296652 0.733132 -0.341684
v 0.298342 0.722963 -0.367807
v 0.298342 0.733778 -0.341954
v 0.301968 0.722963 -0.367807
v 0.300155 0.733998 -0.342046
v 0.300155 0.723184 -0.367899
v 0.301968 0.733778 -0.341954
v 0.298342 0.733778 -0.341954
v 0.300155 0.733998 -0.342046
v 0.298342 0.722963 -0.367807
v 0.296652 0.733132 -0.341684
v 0.296652 0.722318 -0.367537
v 0.303658 0.733132 -0.341684
v 0.296652 0.733132 -0.341684
v 0.298342 0.733778 -0.341954
v 0.300155 0.733998 -0.342046
v 0.301968 0.722963 -0.367807
v 0.301968 0.733778 -0.341954
v 0.303658 0.733132 -0.341684
v 0.298342 0.733778 -0.341954
v 0.301968 0.733778 -0.341954
v 0.295201 0.732105 -0.341254
v 0.296652 0.722318 -0.367537
v 0.296652 0.733132 -0.341684
v 0.305109 0.732105 -0.341254
v 0.296652 0.733132 -0.341684
v 0.303658 0.733132 -0.341684
v 0.303658 0.722318 -0.367537
v 0.301968 0.733778 -0.341954
v 0.301968 0.722963 -0.367807
v 0.301968 0.733778 -0.341954
v 0.303658 0.722318 -0.367537
v 0.303658 0.733132 -0.341684
v 0.296652 0.722318 -0.367537
v 0.295201 0.732105 -0.341254
v 0.295201 0.721291 -0.367107
v 0.305109 0.732105 -0.341254
v 0.295201 0.732105 -0.341254
v 0.296652 0.733132 -0.341684
v 0.303658 0.733132 -0.341684
v 0.305109 0.721291 -0.367107
v 0.305109 0.732105 -0.341254
v 0.305109 0.721291 -0.367107
v 0.303658 0.733132 -0.341684
v 0.303658 0.722318 -0.367537
v 0.295201 0.732105 -0.341254
v 0.294088 0.719952 -0.366547
v 0.295201 0.721291 -0.367107
v 0.306222 0.730766 -0.340694
v 0.295201 0.732105 -0.341254
v 0.305109 0.732105 -0.341254
v 0.305109 0.721291 -0.367107
v 0.306222 0.730766 -0.340694
v 0.305109 0.732105 -0.341254
v 0.294088 0.719952 -0.366547
v 0.295201 0.732105 -0.341254
v 0.294088 0.730766 -0.340694
v 0.306222 0.730766 -0.340694
v 0.294088 0.730766 -0.340694
v 0.295201 0.732105 -0.341254
v 0.306222 0.730766 -0.340694
v 0.305109 0.721291 -0.367107
v 0.306222 0.719952 -0.366547
v 0.294088 0.730766 -0.340694
v 0.293388 0.718393 -0.365895
v 0.294088 0.719952 -0.366547
v 0.306922 0.729208 -0.340042
v 0.294088 0.730766 -0.340694
v 0.306222 0.730766 -0.340694
v 0.306222 0.719952 -0.366547
v 0.306922 0.729208 -0.340042
v 0.306222 0.730766 -0.340694
v 0.306922 0.729208 -0.340042
v 0.306222 0.719952 -0.366547
v 0.306922 0.718393 -0.365895
v 0.293388 0.718393 -0.365895
v 0.294088 0.730766 -0.340694
v 0.293388 0.729208 -0.340042
v 0.306922 0.729208 -0.340042
v 0.293388 0.729208 -0.340042
v 0.294088 0.730766 -0.340694
v 0.293388 0.729208 -0.340042
v 0.293149 0.716720 -0.365195
v 0.293388 0.718393 -0.365895
v 0.307161 0.727535 -0.339342
v 0.306922 0.718393 -0.365895
v 0.307161 0.716720 -0.365195
v 0.306922 0.718393 -0.365895
v 0.307161 0.727535 -0.339342
v 0.306922 0.729208 -0.340042
v 0.307161 0.727535 -0.339342
v 0.293388 0.729208 -0.340042
v 0.306922 0.729208 -0.340042
v 0.293149 0.727535 -0.339342
v 0.293388 0.715047 -0.364495
v 0.293149 0.716720 -0.365195
v 0.293149 0.716720 -0.365195
v 0.293388 0.729208 -0.340042
v 0.293149 0.727535 -0.339342
v 0.305109 0.722965 -0.337430
v 0.306222 0.713489 -0.363843
v 0.305109 0.712150 -0.363283
v 0.306222 0.724303 -0.337990
v 0.306922 0.715047 -0.364495
v 0.306222 0.713489 -0.363843
v 0.306922 0.725862 -0.338642
v 0.307161 0.716720 -0.365195
v 0.306922 0.715047 -0.364495
v 0.307161 0.716720 -0.365195
v 0.306922 0.725862 -0.338642
v 0.307161 0.727535 -0.339342
v 0.307161 0.727535 -0.339342
v 0.293149 0.727535 -0.339342
v 0.293388 0.729208 -0.340042
v 0.293388 0.725862 -0.338642
v 0.294088 0.713489 -0.363843
v 0.293388 0.715047 -0.364495
v 0.293388 0.715047 -0.364495
v 0.293149 0.727535 -0.339342
v 0.293388 0.725862 -0.338642
v 0.298342 0.710477 -0.362584
v 0.300155 0.721072 -0.336639
v 0.300155 0.710257 -0.362492
v 0.296652 0.711123 -0.362854
v 0.298342 0.721292 -0.336731
v 0.298342 0.710477 -0.362584
v 0.303658 0.711123 -0.362854
v 0.305109 0.722965 -0.337430
v 0.305109 0.712150 -0.363283
v 0.306222 0.713489 -0.363843
v 0.305109 0.722965 -0.337430
v 0.306222 0.724303 -0.337990
v 0.306922 0.715047 -0.364495
v 0.306222 0.724303 -0.337990
v 0.306922 0.725862 -0.338642
v 0.306922 0.725862 -0.338642
v 0.293149 0.727535 -0.339342
v 0.307161 0.727535 -0.339342
v 0.294088 0.724303 -0.337990
v 0.295201 0.712150 -0.363283
v 0.294088 0.713489 -0.363843
v 0.294088 0.713489 -0.363843
v 0.293388 0.725862 -0.338642
v 0.294088 0.724303 -0.337990
v 0.306922 0.725862 -0.338642
v 0.293388 0.725862 -0.338642
v 0.293149 0.727535 -0.339342
v 0.300155 0.721072 -0.336639
v 0.298342 0.710477 -0.362584
v 0.298342 0.721292 -0.336731
v 0.301968 0.721292 -0.336731
v 0.300155 0.710257 -0.362492
v 0.300155 0.721072 -0.336639
v 0.295201 0.712150 -0.363283
v 0.296652 0.721937 -0.337001
v 0.296652 0.711123 -0.362854
v 0.298342 0.721292 -0.336731
v 0.296652 0.711123 -0.362854
v 0.296652 0.721937 -0.337001
v 0.301968 0.710477 -0.362584
v 0.303658 0.721937 -0.337001
v 0.303658 0.711123 -0.362854
v 0.305109 0.722965 -0.337430
v 0.303658 0.711123 -0.362854
v 0.303658 0.721937 -0.337001
v 0.305109 0.722965 -0.337430
v 0.294088 0.724303 -0.337990
v 0.306222 0.724303 -0.337990
v 0.306222 0.724303 -0.337990
v 0.293388 0.725862 -0.338642
v 0.306922 0.725862 -0.338642
v 0.295201 0.712150 -0.363283
v 0.294088 0.724303 -0.337990
v 0.295201 0.722965 -0.337430
v 0.306222 0.724303 -0.337990
v 0.294088 0.724303 -0.337990
v 0.293388 0.725862 -0.338642
v 0.298342 0.721292 -0.336731
v 0.301968 0.721292 -0.336731
v 0.300155 0.721072 -0.336639
v 0.300155 0.710257 -0.362492
v 0.301968 0.721292 -0.336731
v 0.301968 0.710477 -0.362584
v 0.296652 0.721937 -0.337001
v 0.295201 0.712150 -0.363283
v 0.295201 0.722965 -0.337430
v 0.301968 0.721292 -0.336731
v 0.298342 0.721292 -0.336731
v 0.296652 0.721937 -0.337001
v 0.303658 0.721937 -0.337001
v 0.301968 0.710477 -0.362584
v 0.301968 0.721292 -0.336731
v 0.303658 0.721937 -0.337001
v 0.295201 0.722965 -0.337430
v 0.305109 0.722965 -0.337430
v 0.305109 0.722965 -0.337430
v 0.295201 0.722965 -0.337430
v 0.294088 0.724303 -0.337990
v 0.303658 0.721937 -0.337001
v 0.296652 0.721937 -0.337001
v 0.295201 0.722965 -0.337430
v 0.301968 0.721292 -0.336731
v 0.296652 0.721937 -0.337001
v 0.303658 0.721937 -0.337001
v 0.298342 0.722963 -0.367807
v 0.298342 0.733778 -0.341954
v 0.300155 0.723184 -0.367899
v 0.300155 0.733998 -0.342046
v 0.300155 0.723184 -0.367899
v 0.298342 0.733778 -0.341954
v 0.298342 0.733778 -0.341954
v 0.298342 0.722963 -0.367807
v 0.296652 0.733132 -0.341684
v 0.300155 0.723184 -0.367899
v 0.300155 0.733998 -0.342046
v 0.301968 0.722963 -0.367807
v 0.300155 0.733998 -0.342046
v 0.298342 0.733778 -0.341954
v 0.301968 0.733778 -0.341954
v 0.296652 0.722318 -0.367537
v 0.296652 0.733132 -0.341684
v 0.298342 0.722963 -0.367807
v 0.298342 0.733778 -0.341954
v 0.296652 0.733132 -0.341684
v 0.303658 0.733132 -0.341684
v 0.301968 0.733778 -0.341954
v 0.301968 0.722963 -0.367807
v 0.300155 0.733998 -0.342046
v 0.301968 0.733778 -0.341954
v 0.298342 0.733778 -0.341954
v 0.303658 0.733132 -0.341684
v 0.296652 0.733132 -0.341684
v 0.296652 0.722318 -0.367537
v 0.295201 0.732105 -0.341254
v 0.303658 0.733132 -0.341684
v 0.296652 0.733132 -0.341684
v 0.305109 0.732105 -0.341254
v 0.301968 0.722963 -0.367807
v 0.301968 0.733778 -0.341954
v 0.303658 0.722318 -0.367537
v 0.303658 0.733132 -0.341684
v 0.303658 0.722318 -0.367537
v 0.301968 0.733778 -0.341954
v 0.295201 0.721291 -0.367107
v 0.295201 0.732105 -0.341254
v 0.296652 0.722318 -0.367537
v 0.296652 0.733132 -0.341684
v 0.295201 0.732105 -0.341254
v 0.305109 0.732105 -0.341254
v 0.305109 0.732105 -0.341254
v 0.305109 0.721291 -0.367107
v 0.303658 0.733132 -0.341684
v 0.303658 0.722318 -0.367537
v 0.303658 0.733132 -0.341684
v 0.305109 0.721291 -0.367107
v 0.295201 0.721291 -0.367107
v 0.294088 0.719952 -0.366547
v 0.295201 0.732105 -0.341254
v 0.305109 0.732105 -0.341254
v 0.295201 0.732105 -0.341254
v 0.306222 0.730766 -0.340694
v 0.305109 0.732105 -0.341254
v 0.306222 0.730766 -0.340694
v 0.305109 0.721291 -0.367107
v 0.294088 0.730766 -0.340694
v 0.295201 0.732105 -0.341254
v 0.294088 0.719952 -0.366547
v 0.295201 0.732105 -0.341254
v 0.294088 0.730766 -0.340694
v 0.306222 0.730766 -0.340694
v 0.306222 0.719952 -0.366547
v 0.305109 0.721291 -0.367107
v 0.306222 0.730766 -0.340694
v 0.294088 0.719952 -0.366547
v 0.293388 0.718393 -0.365895
v 0.294088 0.730766 -0.340694
v 0.306222 0.730766 -0.340694
v 0.294088 0.730766 -0.340694
v 0.306922 0.729208 -0.340042
v 0.306222 0.730766 -0.340694
v 0.306922 0.729208 -0.340042
v 0.306222 0.719952 -0.366547
v 0.306922 0.718393 -0.365895
v 0.306222 0.719952 -0.366547
v 0.306922 0.729208 -0.340042
v 0.293388 0.729208 -0.340042
v 0.294088 0.730766 -0.340694
v 0.293388 0.718393 -0.365895
v 0.294088 0.730766 -0.340694
v 0.293388 0.729208 -0.340042
v 0.306922 0.729208 -0.340042
v 0.293388 0.718393 -0.365895
v 0.293149 0.716720 -0.365195
v 0.293388 0.729208 -0.340042
v 0.307161 0.716720 -0.365195
v 0.306922 0.718393 -0.365895
v 0.307161 0.727535 -0.339342
v 0.306922 0.729208 -0.340042
v 0.307161 0.727535 -0.339342
v 0.306922 0.718393 -0.365895
v 0.306922 0.729208 -0.340042
v 0.293388 0.729208 -0.340042
v 0.307161 0.727535 -0.339342
v 0.293149 0.716720 -0.365195
v 0.293388 0.715047 -0.364495
v 0.293149 0.727535 -0.339342
v 0.293149 0.727535 -0.339342
v 0.293388 0.729208 -0.340042
v 0.293149 0.716720 -0.365195
v 0.305109 0.712150 -0.363283
v 0.306222 0.713489 -0.363843
v 0.305109 0.722965 -0.337430
v 0.306222 0.713489 -0.363843
v 0.306922 0.715047 -0.364495
v 0.306222 0.724303 -0.337990
v 0.306922 0.715047 -0.364495
v 0.307161 0.716720 -0.365195
v 0.306922 0.725862 -0.338642
v 0.307161 0.727535 -0.339342
v 0.306922 0.725862 -0.338642
v 0.307161 0.716720 -0.365195
v 0.293388 0.729208 -0.340042
v 0.293149 0.727535 -0.339342
v 0.307161 0.727535 -0.339342
v 0.293388 0.715047 -0.364495
v 0.294088 0.713489 -0.363843
v 0.293388 0.725862 -0.338642
v 0.293388 0.725862 -0.338642
v 0.293149 0.727535 -0.339342
v 0.293388 0.715047 -0.364495
v 0.300155 0.710257 -0.362492
v 0.300155 0.721072 -0.336639
v 0.298342 0.710477 -0.362584
v 0.298342 0.710477 -0.362584
v 0.298342 0.721292 -0.336731
v 0.296652 0.711123 -0.362854
v 0.305109 0.712150 -0.363283
v 0.305109 0.722965 -0.337430
v 0.303658 0.711123 -0.362854
v 0.306222 0.724303 -0.337990
v 0.305109 0.722965 -0.337430
v 0.306222 0.713489 -0.363843
v 0.306922 0.725862 -0.338642
v 0.306222 0.724303 -0.337990
v 0.306922 0.715047 -0.364495
v 0.307161 0.727535 -0.339342
v 0.293149 0.727535 -0.339342
v 0.306922 0.725862 -0.338642
v 0.294088 0.713489 -0.363843
v 0.295201 0.712150 -0.363283
v 0.294088 0.724303 -0.337990
v 0.294088 0.724303 -0.337990
v 0.293388 0.725862 -0.338642
v 0.294088 0.713489 -0.363843
v 0.293149 0.727535 -0.339342
v 0.293388 0.725862 -0.338642
v 0.306922 0.725862 -0.338642
v 0.298342 0.721292 -0.336731
v 0.298342 0.710477 -0.362584
v 0.300155 0.721072 -0.336639
v 0.300155 0.721072 -0.336639
v 0.300155 0.710257 -0.362492
v 0.301968 0.721292 -0.336731
v 0.296652 0.711123 -0.362854
v 0.296652 0.721937 -0.337001
v 0.295201 0.712150 -0.363283
v 0.296652 0.721937 -0.337001
v 0.296652 0.711123 -0.362854
v 0.298342 0.721292 -0.336731
v 0.303658 0.711123 -0.362854
v 0.303658 0.721937 -0.337001
v 0.301968 0.710477 -0.362584
v 0.303658 0.721937 -0.337001
v 0.303658 0.711123 -0.362854
v 0.305109 0.722965 -0.337430
v 0.306222 0.724303 -0.337990
v 0.294088 0.724303 -0.337990
v 0.305109 0.722965 -0.337430
v 0.306922 0.725862 -0.338642
v 0.293388 0.725862 -0.338642
v 0.306222 0.724303 -0.337990
v 0.295201 0.722965 -0.337430
v 0.294088 0.724303 -0.337990
v 0.295201 0.712150 -0.363283
v 0.293388 0.725862 -0.338642
v 0.294088 0.724303 -0.337990
v 0.306222 0.724303 -0.337990
v 0.300155 0.721072 -0.336639
v 0.301968 0.721292 -0.336731
v 0.298342 0.721292 -0.336731
v 0.301968 0.710477 -0.362584
v 0.301968 0.721292 -0.336731
v 0.300155 0.710257 -0.362492
v 0.295201 0.722965 -0.337430
v 0.295201 0.712150 -0.363283
v 0.296652 0.721937 -0.337001
v 0.296652 0.721937 -0.337001
v 0.298342 0.721292 -0.336731
v 0.301968 0.721292 -0.336731
v 0.301968 0.721292 -0.336731
v 0.301968 0.710477 -0.362584
v 0.303658 0.721937 -0.337001
v 0.305109 0.722965 -0.337430
v 0.295201 0.722965 -0.337430
v 0.303658 0.721937 -0.337001
v 0.294088 0.724303 -0.337990
v 0.295201 0.722965 -0.337430
v 0.305109 0.722965 -0.337430
v 0.295201 0.722965 -0.337430
v 0.296652 0.721937 -0.337001
v 0.303658 0.721937 -0.337001
v 0.303658 0.721937 -0.337001
v 0.296652 0.721937 -0.337001
v 0.301968 0.721292 -0.336731
vt 0 0
vn 0 -0.9225380847220769 0.3859060536417149
vn 0.25881905749370177 -0.8911031795696255 0.3727570506898235
vn 0.5000002367084209 -0.7989413944293373 0.3342041465314714
vn -0.25881905749370177 -0.8911031795696255 0.3727570506898235
vn 0 -0.3859060536417149 -0.9225380847220769
vn 0.7071068123755656 -0.6523328411510149 0.272876932421763
vn -0.5000002367084209 -0.7989413944293373 0.3342041465314714
vn -0.7071068123755656 -0.6523328411510149 0.272876932421763
vn 0.8660253195888886 -0.4612691768956365 0.19295308309790082
vn -0.8660253195888886 -0.4612691768956365 0.19295308309790082
vn 0.9659259211884978 -0.2387699757967989 0.09987999516493733
vn -0.9659259211884978 -0.2387699757967989 0.09987999516493733
vn 1 0 0
vn -1 0 0
vn 0.9659259211884978 0.2387699757967989 -0.09987999516493733
vn -0.7071068123755656 0.6523328411510149 -0.272876932421763
vn -0.8660253195888886 0.4612691768956365 -0.19295308309790082
vn -0.9659259211884978 0.2387699757967989 -0.09987999516493733
vn 0.8660253195888886 0.4612691768956365 -0.19295308309790082
vn 0.25881905749370177 0.8911031795696255 -0.3727570506898235
vn 0 0.9225380847220769 -0.3859060536417149
vn 0.5000002367084209 0.7989413944293373 -0.3342041465314714
vn -0.5000002367084209 0.7989413944293373 -0.3342041465314714
vn 0.7071068123755656 0.6523328411510149 -0.272876932421763
vn -0.25881905749370177 0.8911031795696255 -0.3727570506898235
vn 0 0.3859060536417149 0.9225380847220769
usemtl material_0_0
f 1/1/1 2/1/2 3/1/2
f 4/1/2 5/1/1 6/1/1
f 7/1/3 8/1/2 9/1/2
f 10/1/4 11/1/1 12/1/1
f 13/1/5 14/1/5 15/1/5
f 16/1/2 17/1/3 18/1/3
f 19/1/5 20/1/5 21/1/5
f 22/1/1 23/1/4 24/1/4
f 25/1/5 26/1/5 27/1/5
f 28/1/6 29/1/3 30/1/3
f 31/1/5 32/1/5 33/1/5
f 34/1/7 35/1/4 36/1/4
f 37/1/4 38/1/7 39/1/7
f 40/1/3 41/1/6 42/1/6
f 43/1/5 44/1/5 45/1/5
f 46/1/7 47/1/8 48/1/8
f 49/1/8 50/1/7 51/1/7
f 52/1/6 53/1/9 54/1/6
f 55/1/5 56/1/5 57/1/5
f 58/1/8 59/1/10 60/1/8
f 61/1/9 62/1/6 63/1/9
f 64/1/5 65/1/5 66/1/5
f 67/1/10 68/1/8 69/1/10
f 70/1/9 71/1/11 72/1/9
f 73/1/5 74/1/5 75/1/5
f 76/1/10 77/1/12 78/1/10
f 79/1/12 80/1/10 81/1/12
f 82/1/11 83/1/9 84/1/11
f 85/1/5 86/1/5 87/1/5
f 88/1/11 89/1/13 90/1/11
f 91/1/14 92/1/12 93/1/14
f 94/1/12 95/1/14 96/1/12
f 97/1/5 98/1/5 99/1/5
f 100/1/13 101/1/15 102/1/13
f 103/1/13 104/1/11 105/1/13
f 106/1/16 107/1/17 108/1/16
f 109/1/17 110/1/18 111/1/17
f 112/1/18 113/1/14 114/1/18
f 115/1/14 116/1/18 117/1/14
f 118/1/5 119/1/5 120/1/5
f 121/1/15 122/1/19 123/1/15
f 124/1/15 125/1/13 126/1/15
f 127/1/20 128/1/21 129/1/21
f 130/1/22 131/1/20 132/1/20
f 133/1/23 134/1/16 135/1/16
f 136/1/17 137/1/16 138/1/17
f 139/1/18 140/1/17 141/1/18
f 142/1/5 143/1/5 144/1/5
f 145/1/19 146/1/24 147/1/19
f 148/1/19 149/1/15 150/1/19
f 151/1/5 152/1/5 153/1/5
f 154/1/21 155/1/20 156/1/20
f 157/1/25 158/1/21 159/1/21
f 160/1/24 161/1/22 162/1/22
f 163/1/20 164/1/22 165/1/22
f 166/1/25 167/1/23 168/1/23
f 169/1/16 170/1/23 171/1/23
f 172/1/5 173/1/5 174/1/5
f 175/1/5 176/1/5 177/1/5
f 178/1/24 179/1/19 180/1/24
f 181/1/5 182/1/5 183/1/5
f 184/1/5 185/1/5 186/1/5
f 187/1/21 188/1/25 189/1/25
f 190/1/22 191/1/24 192/1/24
f 193/1/5 194/1/5 195/1/5
f 196/1/23 197/1/25 198/1/25
f 199/1/5 200/1/5 201/1/5
f 202/1/5 203/1/5 204/1/5
f 205/1/5 206/1/5 207/1/5
f 208/1/5 209/1/5 210/1/5
usemtl material_1_0
f 211/1/25 212/1/25 213/1/21
f 214/1/21 215/1/21 216/1/25
f 217/1/25 218/1/25 219/1/23
f 220/1/21 221/1/21 222/1/20
f 223/1/26 224/1/26 225/1/26
f 226/1/23 227/1/23 228/1/25
f 229/1/26 230/1/26 231/1/26
f 232/1/20 233/1/20 234/1/21
f 235/1/26 236/1/26 237/1/26
f 238/1/23 239/1/23 240/1/16
f 241/1/26 242/1/26 243/1/26
f 244/1/20 245/1/20 246/1/22
f 247/1/22 248/1/22 249/1/20
f 250/1/16 251/1/16 252/1/23
f 253/1/26 254/1/26 255/1/26
f 256/1/24 257/1/24 258/1/22
f 259/1/22 260/1/22 261/1/24
f 262/1/16 263/1/17 264/1/16
f 265/1/26 266/1/26 267/1/26
f 268/1/24 269/1/19 270/1/24
f 271/1/17 272/1/16 273/1/17
f 274/1/26 275/1/26 276/1/26
f 277/1/19 278/1/24 279/1/19
f 280/1/17 281/1/18 282/1/17
f 283/1/26 284/1/26 285/1/26
f 286/1/19 287/1/15 288/1/19
f 289/1/15 290/1/19 291/1/15
f 292/1/18 293/1/17 294/1/18
f 295/1/26 296/1/26 297/1/26
f 298/1/18 299/1/14 300/1/18
f 301/1/13 302/1/15 303/1/13
f 304/1/15 305/1/13 306/1/15
f 307/1/26 308/1/26 309/1/26
f 310/1/14 311/1/12 312/1/14
f 313/1/14 314/1/18 315/1/14
f 316/1/6 317/1/9 318/1/6
f 319/1/9 320/1/11 321/1/9
f 322/1/11 323/1/13 324/1/11
f 325/1/13 326/1/11 327/1/13
f 328/1/26 329/1/26 330/1/26
f 331/1/12 332/1/10 333/1/12
f 334/1/12 335/1/14 336/1/12
f 337/1/1 338/1/1 339/1/4
f 340/1/4 341/1/4 342/1/7
f 343/1/6 344/1/6 345/1/3
f 346/1/9 347/1/6 348/1/9
f 349/1/11 350/1/9 351/1/11
f 352/1/26 353/1/26 354/1/26
f 355/1/10 356/1/8 357/1/10
f 358/1/10 359/1/12 360/1/10
f 361/1/26 362/1/26 363/1/26
f 364/1/4 365/1/4 366/1/1
f 367/1/1 368/1/1 369/1/2
f 370/1/7 371/1/7 372/1/8
f 373/1/7 374/1/7 375/1/4
f 376/1/3 377/1/3 378/1/2
f 379/1/3 380/1/3 381/1/6
f 382/1/26 383/1/26 384/1/26
f 385/1/26 386/1/26 387/1/26
f 388/1/8 389/1/10 390/1/8
f 391/1/26 392/1/26 393/1/26
f 394/1/26 395/1/26 396/1/26
f 397/1/2 398/1/2 399/1/1
f 400/1/8 401/1/8 402/1/7
f 403/1/26 404/1/26 405/1/26
f 406/1/2 407/1/2 408/1/3
f 409/1/26 410/1/26 411/1/26
f 412/1/26 413/1/26 414/1/26
f 415/1/26 416/1/26 417/1/26
f 418/1/26 419/1/26 420/1/26
