# SSTK version 0.8.0
# 14
mtllib original-14.mtl
o mesh42/mesh42-geometry#mesh42-geometry
v 0.305743 -0.727468 -0.283864
v 0.308748 -0.699969 -0.283899
v 0.301287 -0.713718 -0.291752
v 0.317660 -0.727468 -0.268124
v 0.359869 -0.713718 -0.292426
v 0.360051 -0.729594 -0.276551
v 0.320642 -0.699969 -0.268158
v 0.360051 -0.697841 -0.276551
v 0.360234 -0.713718 -0.260675
v 0.324936 -0.713718 -0.260269
vn -0.7944462847184033 0.08723096397313973 0.6010373196578083
vn -0.009972202911837081 0.49999995025675703 -0.8659680161023994
vn -0.0099722029118371 -0.49999995025675764 -0.8659680161023992
vn -0.0435467830459979 -0.9985071698271123 0.03297134346966966
vn 0.0718542838098959 0.704841381831358 -0.7057163653736739
vn 0.06744451189418275 -0.7050847051639568 -0.7059084900744654
vn 0.10436971215638742 -0.7038241043116664 0.7026653494902627
vn -0.8027233374034749 0.08776598493602332 0.5898579282132577
vn -0.04641243339969749 0.9983065750279697 0.03506947792373758
vn 0.999933687371511 0 -0.01151611304275539
vn 0.009972008489140857 -0.4999980266418952 0.865969129011481
vn 0.00997121910111265 0.5000007899869625 0.8659675425800041
vn 0.11155311948001428 0.7033139215477983 0.7020722393680975
vn 0.7944462847184033 -0.08723096397313973 -0.6010373196578083
vn 0.009972202911837081 -0.49999995025675703 0.8659680161023994
vn 0.0099722029118371 0.49999995025675764 0.8659680161023992
vn 0.0435467830459979 0.9985071698271123 -0.03297134346966966
vn -0.0718542838098959 -0.704841381831358 0.7057163653736739
vn -0.06744451189418275 0.7050847051639568 0.7059084900744654
vn -0.10436971215638742 0.7038241043116664 -0.7026653494902627
vn 0.8027233374034749 -0.08776598493602332 -0.5898579282132577
vn 0.04641243339969749 -0.9983065750279697 -0.03506947792373758
vn -0.999933687371511 0 0.01151611304275539
vn -0.009972008489140857 0.4999980266418952 -0.865969129011481
vn -0.00997121910111265 -0.5000007899869625 -0.8659675425800041
vn -0.11155311948001428 -0.7033139215477983 -0.7020722393680975
usemtl material_0_0
f 1//1 2//1 3//1
f 2//1 1//1 4//1
f 5//2 3//2 2//2
f 5//3 1//3 3//3
f 4//4 1//4 6//4
f 2//1 4//1 7//1
f 8//5 5//5 2//5
f 6//6 1//6 5//6
f 4//7 6//7 9//7
f 10//8 7//8 4//8
f 7//9 8//9 2//9
f 9//10 5//10 8//10
f 5//10 9//10 6//10
f 9//11 10//11 4//11
f 9//12 7//12 10//12
f 7//13 9//13 8//13
usemtl material_1_0
f 3//14 2//14 1//14
f 4//14 1//14 2//14
f 2//15 3//15 5//15
f 3//16 1//16 5//16
f 6//17 1//17 4//17
f 7//14 4//14 2//14
f 2//18 5//18 8//18
f 5//19 1//19 6//19
f 9//20 6//20 4//20
f 4//21 7//21 10//21
f 2//22 8//22 7//22
f 8//23 5//23 9//23
f 6//23 9//23 5//23
f 4//24 10//24 9//24
f 10//25 7//25 9//25
f 8//26 9//26 7//26
