# SSTK version 0.8.0
# 8
mtllib original-8.mtl
o mesh36/mesh36-geometry#mesh36-geometry
v 0.389776 0.378153 0.120398
v 0.390092 0.638346 0.120394
v 0.383264 0.378404 0.120473
v 0.399392 0.395480 0.120287
v 0.383086 0.378404 0.105051
v 0.399215 0.395480 0.104866
v 0.404120 0.578284 0.120233
v 0.389914 0.638346 0.104973
v 0.389598 0.378153 0.104976
v 0.403942 0.578284 0.104811
v 0.412018 0.638536 0.120142
v 0.410586 0.590595 0.104734
v 0.410764 0.590595 0.120156
v 0.411840 0.638536 0.104720
v 0.410591 0.590779 0.104735
vn 0.011516113042755611 0 0.999933687371511
vn -0.011516113042755611 0 -0.999933687371511
vn -0.9995888266419745 0.026260989862183056 0.011512517708084606
vn 0.9995888266419745 -0.026260989862183056 -0.011512517708084606
vn -0.038412401864042746 -0.9992618732306491 0.00044282119373400023
vn 0.038412401864042746 0.9992618732306491 -0.00044282119373400023
vn 0.8742892412124417 -0.48530086232768693 -0.010069544387736192
vn -0.8742892412124417 0.48530086232768693 0.010069544387736192
vn 0.9995994729629173 -0.0258530066816974 -0.01151154628075751
vn -0.9995994729629173 0.0258530066816974 0.01151154628075751
vn -0.008692047961008729 0.9999622184612698 0.0000997610111987084
vn 0.008692047961008729 -0.9999622184612698 -0.0000997610111987084
vn -0.011515134814233639 0 -0.9999336986371695
vn 0.011515134814233639 0 0.9999336986371695
vn 0.879950681710878 -0.474956956280689 -0.010133480998390038
vn -0.879950681710878 0.474956956280689 0.010133480998390038
vn 0.9995914004818341 -0.02616300593431973 -0.01151213287129293
vn -0.9995914004818341 0.02616300593431973 0.01151213287129293
usemtl material_0_0
f 1//1 2//1 3//1
f 2//1 1//1 4//1
f 3//2 2//2 1//2
f 4//2 1//2 2//2
f 2//3 5//3 3//3
f 3//4 5//4 2//4
f 5//5 1//5 3//5
f 3//6 1//6 5//6
f 1//7 6//7 4//7
f 4//8 6//8 1//8
f 2//1 4//1 7//1
f 7//2 4//2 2//2
f 5//3 2//3 8//3
f 8//4 2//4 5//4
f 1//5 5//5 9//5
f 9//6 5//6 1//6
f 6//7 1//7 9//7
f 9//8 1//8 6//8
f 10//9 4//9 6//9
f 6//10 4//10 10//10
f 4//9 10//9 7//9
f 7//10 10//10 4//10
f 2//1 7//1 11//1
f 11//2 7//2 2//2
f 11//11 8//11 2//11
f 2//12 8//12 11//12
f 8//13 9//13 5//13
f 5//14 9//14 8//14
f 9//13 8//13 6//13
f 6//14 8//14 9//14
f 6//13 8//13 10//13
f 10//14 8//14 6//14
f 12//15 7//15 10//15
f 10//16 7//16 12//16
f 11//1 7//1 13//1
f 13//2 7//2 11//2
f 8//11 11//11 14//11
f 14//12 11//12 8//12
f 10//13 8//13 14//13
f 14//14 8//14 10//14
f 7//15 12//15 13//15
f 13//16 12//16 7//16
f 10//13 14//13 15//13
f 10//13 15//13 12//13
f 15//14 14//14 10//14
f 12//14 15//14 10//14
f 13//17 15//17 11//17
f 11//18 15//18 13//18
f 11//17 15//17 14//17
f 14//18 15//18 11//18
f 15//17 13//17 12//17
f 12//18 13//18 15//18
