# SSTK version 0.8.0
# 3
mtllib original-3.mtl
o mesh31/mesh31-geometry#mesh31-geometry
v 0.348541 0.714820 0.169888
v 0.350178 0.735074 0.312013
v 0.350181 0.710471 0.312241
v 0.348556 0.737583 0.171192
v 0.326441 0.738063 0.311311
v 0.343219 0.711924 0.302557
v 0.324816 0.716767 0.170161
v 0.350113 0.742219 0.306350
v 0.326455 0.712254 0.312514
v 0.324819 0.734587 0.170420
v 0.348670 0.743749 0.181068
v 0.326328 0.743791 0.301472
v 0.324886 0.741945 0.176283
v 0.350054 0.743791 0.301199
v 0.324944 0.743749 0.181341
vn 0.999933687371011 -0.0000010000000954311129 -0.011516113042749632
vn -0.0066819575688721955 0.027907003864869582 0.999588190495633
vn 0.01410709515496864 0.33321311253841635 0.942745995217561
vn -0.0012227152284184585 0.42447792112500593 0.9054374630226337
vn -0.16650044819224258 -0.985638112104514 -0.028197743151392705
vn 0.003548682284753389 0.42242483900188504 -0.9063910095804533
vn -0.00680218094941438 0.05721797320442843 -0.9983385367082194
vn 0.011950668431636386 0.03587799749790396 -0.999284719596761
vn 0.004228623403164594 0.8398353955310707 0.5428246744182547
vn 0.01500305635362258 0.04653699748353564 0.9988038927463525
vn -0.0757093498877613 -0.9926397296079524 -0.09452228067193297
vn -0.0820444280331615 -0.9963139928873144 -0.025042751559039105
vn -0.011895455380655468 0.33696289736414936 -0.9414427778368926
vn -0.014590112899614462 0.9624128919893694 0.2711983664003794
vn -0.999933687371011 0.0000010000000954311129 0.011516113042749632
vn -0.038236285915039546 -0.9987808275330388 -0.031222507776315144
vn -0.005072205078356495 0.8259597139185779 -0.5637063275493579
vn 0.013137628436295292 0.9549742789590097 -0.2963975864371861
vn 0.0016974398934016322 0.989078533591693 0.1473796902083678
vn -0.001966420003707412 0.985336372290697 -0.17061174236663082
vn 0.0012227152284184585 -0.42447792112500593 -0.9054374630226337
vn -0.01410709515496864 -0.33321311253841635 -0.942745995217561
vn 0.0066819575688721955 -0.027907003864869582 -0.999588190495633
vn 0.16650044819224258 0.985638112104514 0.028197743151392705
vn -0.011950668431636386 -0.03587799749790396 0.999284719596761
vn 0.00680218094941438 -0.05721797320442843 0.9983385367082194
vn -0.003548682284753389 -0.42242483900188504 0.9063910095804533
vn -0.004228623403164594 -0.8398353955310707 -0.5428246744182547
vn -0.01500305635362258 -0.04653699748353564 -0.9988038927463525
vn 0.0757093498877613 0.9926397296079524 0.09452228067193297
vn 0.0820444280331615 0.9963139928873144 0.025042751559039105
vn 0.011895455380655468 -0.33696289736414936 0.9414427778368926
vn 0.014590112899614462 -0.9624128919893694 -0.2711983664003794
vn 0.038236285915039546 0.9987808275330388 0.031222507776315144
vn 0.005072205078356495 -0.8259597139185779 0.5637063275493579
vn -0.013137628436295292 -0.9549742789590097 0.2963975864371861
vn -0.0016974398934016322 -0.989078533591693 -0.1473796902083678
vn 0.001966420003707412 -0.985336372290697 0.17061174236663082
usemtl material_0_0
f 1//1 2//1 3//1
f 2//1 1//1 4//1
f 3//2 2//3 5//4
f 3//5 6//5 1//5
f 4//6 1//7 7//8
f 2//1 4//1 8//1
f 2//3 8//9 5//4
f 3//2 5//4 9//10
f 9//11 6//11 3//11
f 6//12 7//12 1//12
f 4//6 7//8 10//13
f 8//1 4//1 11//1
f 5//4 8//9 12//14
f 5//15 7//15 9//15
f 9//16 7//16 6//16
f 7//15 5//15 10//15
f 4//6 10//13 13//17
f 11//18 4//6 13//17
f 8//1 11//1 14//1
f 8//9 14//19 12//14
f 13//15 5//15 12//15
f 10//15 5//15 13//15
f 15//20 11//18 13//17
f 15//20 14//19 11//18
f 14//19 15//20 12//14
f 13//15 12//15 15//15
usemtl material_1_0
f 3//15 2//15 1//15
f 4//15 1//15 2//15
f 5//21 2//22 3//23
f 1//24 6//24 3//24
f 7//25 1//26 4//27
f 8//15 4//15 2//15
f 5//21 8//28 2//22
f 9//29 5//21 3//23
f 3//30 6//30 9//30
f 1//31 7//31 6//31
f 10//32 7//25 4//27
f 11//15 4//15 8//15
f 12//33 8//28 5//21
f 9//1 7//1 5//1
f 6//34 7//34 9//34
f 10//1 5//1 7//1
f 13//35 10//32 4//27
f 13//35 4//27 11//36
f 14//15 11//15 8//15
f 12//33 14//37 8//28
f 12//1 5//1 13//1
f 13//1 5//1 10//1
f 13//35 11//36 15//38
f 11//36 14//37 15//38
f 12//33 15//38 14//37
f 15//1 12//1 13//1
