# SSTK version 0.8.0
# 9
mtllib original-9.mtl
o mesh37/mesh37-geometry#mesh37-geometry
v 0.387399 0.378153 -0.086023
v 0.380709 0.378404 -0.101370
v 0.387221 0.378153 -0.101445
v 0.380887 0.378404 -0.085948
v 0.387537 0.638346 -0.101448
v 0.396837 0.395480 -0.101556
v 0.387715 0.638346 -0.086027
v 0.397015 0.395480 -0.086134
v 0.401565 0.578284 -0.101610
v 0.409641 0.638536 -0.086279
v 0.401742 0.578284 -0.086188
v 0.409463 0.638536 -0.101701
v 0.408209 0.590595 -0.101686
v 0.408386 0.590595 -0.086265
vn -0.038425560754350156 -0.9992613675653712 0.0004422353420241143
vn 0.038425560754350156 0.9992613675653712 -0.0004422353420241143
vn -0.011516113042755611 0 -0.999933687371511
vn 0.011516113042755611 0 0.999933687371511
vn 0.8742907093289604 -0.4852982416945993 -0.010068375697891242
vn -0.8742907093289604 0.4852982416945993 0.010068375697891242
vn 0.011517091270861103 0 0.9999336761048999
vn -0.011517091270861103 0 -0.9999336761048999
vn -0.9995888377650933 0.026260995302262766 0.011511539478470214
vn 0.9995888377650933 -0.026260995302262766 -0.011511539478470214
vn -0.008692047961008729 0.9999622184612698 0.0000997610111987084
vn 0.008692047961008729 -0.9999622184612698 -0.0000997610111987084
vn 0.9995994729629173 -0.0258530066816974 -0.01151154628075751
vn -0.9995994729629173 0.0258530066816974 0.01151154628075751
vn 0.9995913370504801 -0.026164999145385618 -0.011513110498710736
vn -0.9995913370504801 0.026164999145385618 0.011513110498710736
vn 0.8799521940600121 -0.47495413752275284 -0.010134269534054193
vn -0.8799521940600121 0.47495413752275284 0.010134269534054193
usemtl material_0_0
f 1//1 2//1 3//1
f 2//1 1//1 4//1
f 3//2 2//2 1//2
f 4//2 1//2 2//2
f 5//3 3//3 2//3
f 2//4 3//4 5//4
f 6//5 1//5 3//5
f 3//6 1//6 6//6
f 1//7 7//7 4//7
f 4//8 7//8 1//8
f 7//9 2//9 4//9
f 4//10 2//10 7//10
f 3//3 5//3 6//3
f 6//4 5//4 3//4
f 2//9 7//9 5//9
f 5//10 7//10 2//10
f 1//5 6//5 8//5
f 8//6 6//6 1//6
f 7//7 1//7 8//7
f 8//8 1//8 7//8
f 6//3 5//3 9//3
f 9//4 5//4 6//4
f 10//11 5//11 7//11
f 7//12 5//12 10//12
f 9//13 8//13 6//13
f 6//14 8//14 9//14
f 7//7 8//7 11//7
f 11//8 8//8 7//8
f 9//3 5//3 12//3
f 12//4 5//4 9//4
f 5//11 10//11 12//11
f 12//12 10//12 5//12
f 7//7 11//7 10//7
f 10//8 11//8 7//8
f 8//13 9//13 11//13
f 11//14 9//14 8//14
f 9//3 12//3 13//3
f 13//4 12//4 9//4
f 14//15 12//15 10//15
f 10//16 12//16 14//16
f 10//7 11//7 14//7
f 14//8 11//8 10//8
f 13//17 11//17 9//17
f 9//18 11//18 13//18
f 12//15 14//15 13//15
f 13//16 14//16 12//16
f 11//17 13//17 14//17
f 14//18 13//18 11//18
