# SSTK version 0.8.0
# 12
mtllib original-12.mtl
o mesh40/mesh40-geometry#mesh40-geometry
v -0.415643 0.590595 -0.076775
v -0.394972 0.638346 -0.077013
v -0.416898 0.638536 -0.076760
v -0.408999 0.578284 -0.076851
v -0.417075 0.638536 -0.092182
v -0.415821 0.590595 -0.092196
v -0.409176 0.578284 -0.092273
v -0.404272 0.395480 -0.076906
v -0.395149 0.638346 -0.092434
v -0.404449 0.395480 -0.092327
v -0.394655 0.378153 -0.077017
v -0.388143 0.378404 -0.077091
v -0.394833 0.378153 -0.092438
v -0.388321 0.378404 -0.092513
vn 0.011516113042755611 0 0.999933687371511
vn -0.011516113042755611 0 -0.999933687371511
vn 0.008684988243137024 0.999962279762986 -0.00010015202577522313
vn -0.008684988243137024 -0.999962279762986 0.00010015202577522313
vn -0.9995913743290136 -0.02616400525000451 0.011512132570095122
vn 0.9995913743290136 0.02616400525000451 -0.011512132570095122
vn -0.8799534760431181 -0.4749517709011317 0.010133869819195111
vn 0.8799534760431181 0.4749517709011317 -0.010133869819195111
vn -0.9995994618355007 -0.025853001326078137 0.01151252451077422
vn 0.9995994618355007 0.025853001326078137 -0.01151252451077422
vn 0.9995888266419745 0.02626098986218327 -0.011512517708084613
vn -0.9995888266419745 -0.02626098986218327 0.011512517708084613
vn -0.8742892412124414 -0.48530086232768704 0.010069544387736294
vn 0.8742892412124414 0.48530086232768704 -0.010069544387736294
vn 0.038412401864042704 -0.9992618732306491 -0.00044282119373378263
vn -0.038412401864042704 0.9992618732306491 0.00044282119373378263
usemtl material_0_0
f 1//1 2//1 3//1
f 2//1 1//1 4//1
f 3//2 2//2 1//2
f 4//2 1//2 2//2
f 2//3 5//3 3//3
f 3//4 5//4 2//4
f 3//5 6//5 1//5
f 1//6 6//6 3//6
f 1//7 7//7 4//7
f 4//8 7//8 1//8
f 2//1 4//1 8//1
f 8//2 4//2 2//2
f 5//3 2//3 9//3
f 9//4 2//4 5//4
f 6//5 3//5 5//5
f 5//6 3//6 6//6
f 7//7 1//7 6//7
f 6//8 1//8 7//8
f 10//9 4//9 7//9
f 7//10 4//10 10//10
f 4//9 10//9 8//9
f 8//10 10//10 4//10
f 2//1 8//1 11//1
f 11//2 8//2 2//2
f 12//11 9//11 2//11
f 2//12 9//12 12//12
f 9//2 6//2 5//2
f 5//1 6//1 9//1
f 6//2 9//2 7//2
f 7//1 9//1 6//1
f 7//2 9//2 10//2
f 10//1 9//1 7//1
f 13//13 8//13 10//13
f 10//14 8//14 13//14
f 8//13 13//13 11//13
f 11//14 13//14 8//14
f 2//1 11//1 12//1
f 12//2 11//2 2//2
f 9//11 12//11 14//11
f 14//12 12//12 9//12
f 10//2 9//2 13//2
f 13//1 9//1 10//1
f 13//15 12//15 11//15
f 11//16 12//16 13//16
f 12//15 13//15 14//15
f 14//16 13//16 12//16
f 13//2 9//2 14//2
f 14//1 9//1 13//1
