# SSTK version 0.8.0
# 5
mtllib original-5.mtl
o mesh33/mesh33-geometry#mesh33-geometry
v 0.348049 0.617988 0.501327
v -0.356631 0.617988 0.506622
v -0.356631 0.570533 0.506622
v -0.369300 0.617988 0.498383
v 0.358515 0.570534 0.500151
v 0.372130 0.617988 0.496136
v -0.369300 0.570533 0.498383
v 0.378017 0.617988 0.491022
v -0.369300 0.599170 0.498383
v 0.372130 0.570534 0.496136
v 0.378017 0.570534 0.491022
vn 0.007513973841674122 0 0.9999717697000785
vn -0.28074982697122747 0 0.9597809826494929
vn 0.28074982697122747 0 -0.9597809826494929
vn -0.007513973841674122 0 -0.9999717697000785
vn 0 1 0
vn 0 -1 0
vn -0.5452313794549479 0 0.838285597429453
vn 0.5452313794549479 0 -0.838285597429453
vn 0.16871419211193375 -0.00017599993421623641 0.9856649990762788
vn 0.11045602605765635 -0.0002639999508452681 0.9938809770850715
vn 0.009045007263704283 -0.022771997935296752 0.999699766906862
vn -0.009045007263704283 0.022771997935296752 -0.999699766906862
vn -0.11045602605765635 0.0002639999508452681 -0.9938809770850715
vn -0.16871419211193375 0.00017599993421623641 -0.9856649990762788
vn 0.3927240749123714 0.007601999242487868 0.9196249293009292
vn -0.3927240749123714 -0.007601999242487868 -0.9196249293009292
vn -0.009849325527883333 0 -0.9999514942169174
vn 0.009849325527883333 0 0.9999514942169174
vn 0.48032115198092123 0 0.87709269234199
vn -0.48032115198092123 0 -0.87709269234199
vn 0.6558187576276386 0 0.7549183778023558
vn -0.6558187576276386 0 -0.7549183778023558
usemtl material_0_0
f 1//1 2//2 3//2
f 3//3 2//3 1//4
f 1//5 4//5 2//5
f 2//6 4//6 1//6
f 4//7 3//2 2//2
f 2//3 3//3 4//8
f 5//9 1//10 3//11
f 3//12 1//13 5//14
f 6//5 4//5 1//5
f 1//6 4//6 6//6
f 4//7 7//7 3//2
f 3//3 7//8 4//8
f 6//15 1//10 5//9
f 5//14 1//13 6//16
f 7//6 5//6 3//6
f 3//5 5//5 7//5
f 4//5 6//5 8//5
f 8//6 6//6 4//6
f 4//17 7//17 9//17
f 7//17 4//17 8//17
f 9//18 7//18 4//18
f 8//18 4//18 7//18
f 7//7 4//7 9//7
f 9//8 4//8 7//8
f 6//15 5//9 10//19
f 10//20 5//14 6//16
f 7//6 10//6 5//6
f 5//5 10//5 7//5
f 10//19 8//21 6//15
f 6//16 8//22 10//20
f 7//17 8//17 11//17
f 11//18 8//18 7//18
f 10//6 7//6 11//6
f 11//5 7//5 10//5
f 8//21 10//19 11//21
f 11//22 10//20 8//22
