# SSTK version 0.8.0
# 2
mtllib original-2.mtl
o mesh30/mesh30-geometry#mesh30-geometry
v -0.322535 0.735074 0.319760
v -0.346272 0.738063 0.319059
v -0.346258 0.710895 0.320261
v -0.322600 0.742219 0.314097
v -0.347897 0.715081 0.177908
v -0.322532 0.712605 0.319988
v -0.324156 0.737583 0.178940
v -0.346385 0.743791 0.309219
v -0.347894 0.734587 0.178167
v -0.324171 0.717048 0.177635
v -0.324043 0.743749 0.188816
v -0.322659 0.743791 0.308946
v -0.347827 0.741945 0.184030
v -0.347768 0.743749 0.189088
vn 0.01463240706196746 0.2357980423903615 0.9716919140697047
vn -0.005463068932978152 0.5559790822799067 0.8311783292080143
vn -0.006578013868084827 0.02717000982384908 0.9996091837812031
vn 0.004227441677820123 0.839838545243088 0.5428198104904006
vn -0.999933687371011 0.0000010000000954311129 0.011516113042749632
vn 0.010784395629920696 0.01014100046082273 0.9998904224566565
vn 0.999933687371011 -0.0000010000000954311129 -0.011516113042749632
vn -0.014591691206924388 0.9624163670459429 0.2711859491010011
vn 0.08223098851777252 -0.9961543354062173 -0.03024243010717523
vn 0.07148820519680164 -0.9969299457570432 -0.03193931387176342
vn 0.0016966529467369262 0.9890802363699287 0.14736827131775854
vn 0.0008621817818391436 0.4235909273257812 -0.9058531795660154
vn 0.007054835300482766 0.0383510076540369 -0.9992394255186307
vn -0.011819010298108768 0.33638000979992677 -0.9416521650814458
vn -0.01674714117578008 0.06339897261992285 -0.9978477356456629
vn 0.013135662178513412 0.9549710419528338 -0.29640810280869706
vn -0.005076128255772708 0.825955687268044 -0.563712192161482
vn -0.0019644614189160154 0.985332925641361 -0.17063166921286912
vn 0.006578013868084827 -0.02717000982384908 -0.9996091837812031
vn 0.005463068932978152 -0.5559790822799067 -0.8311783292080143
vn -0.01463240706196746 -0.2357980423903615 -0.9716919140697047
vn -0.004227441677820123 -0.839838545243088 -0.5428198104904006
vn -0.010784395629920696 -0.01014100046082273 -0.9998904224566565
vn 0.014591691206924388 -0.9624163670459429 -0.2711859491010011
vn -0.08223098851777252 0.9961543354062173 0.03024243010717523
vn -0.07148820519680164 0.9969299457570432 0.03193931387176342
vn -0.0016966529467369262 -0.9890802363699287 -0.14736827131775854
vn 0.011819010298108768 -0.33638000979992677 0.9416521650814458
vn -0.007054835300482766 -0.0383510076540369 0.9992394255186307
vn -0.0008621817818391436 -0.4235909273257812 0.9058531795660154
vn 0.01674714117578008 -0.06339897261992285 0.9978477356456629
vn 0.005076128255772708 -0.825955687268044 0.563712192161482
vn -0.013135662178513412 -0.9549710419528338 0.29640810280869706
vn 0.0019644614189160154 -0.985332925641361 0.17063166921286912
usemtl material_0_0
f 1//1 2//2 3//3
f 1//1 4//4 2//2
f 2//5 5//5 3//5
f 6//6 1//1 3//3
f 1//7 7//7 4//7
f 2//2 4//4 8//8
f 5//5 2//5 9//5
f 3//9 5//9 10//9
f 10//7 1//7 6//7
f 3//10 10//10 6//10
f 1//7 10//7 7//7
f 4//7 7//7 11//7
f 4//4 12//11 8//8
f 13//5 2//5 8//5
f 9//5 2//5 13//5
f 7//12 5//13 9//14
f 7//12 10//15 5//13
f 11//16 7//12 13//17
f 4//7 11//7 12//7
f 12//11 14//18 8//8
f 13//5 8//5 14//5
f 7//12 9//14 13//17
f 14//18 11//16 13//17
f 14//18 12//11 11//16
usemtl material_1_0
f 3//19 2//20 1//21
f 2//20 4//22 1//21
f 3//7 5//7 2//7
f 3//19 1//21 6//23
f 4//5 7//5 1//5
f 8//24 4//22 2//20
f 9//7 2//7 5//7
f 10//25 5//25 3//25
f 6//5 1//5 10//5
f 6//26 10//26 3//26
f 7//5 10//5 1//5
f 11//5 7//5 4//5
f 8//24 12//27 4//22
f 8//7 2//7 13//7
f 13//7 2//7 9//7
f 9//28 5//29 7//30
f 5//29 10//31 7//30
f 13//32 7//30 11//33
f 12//5 11//5 4//5
f 8//24 14//34 12//27
f 14//7 8//7 13//7
f 13//32 9//28 7//30
f 13//32 11//33 14//34
f 11//33 12//27 14//34
