# SSTK version 0.8.0
# 11
mtllib original-11.mtl
o mesh39/mesh39-geometry#mesh39-geometry
v -0.379722 -0.753821 -0.417167
v -0.430764 -0.791018 -0.401171
v -0.430941 -0.753821 -0.416577
v -0.379544 -0.791018 -0.401761
v -0.429730 -0.789793 -0.311427
v -0.379782 -0.713904 -0.422422
v -0.376291 -0.753821 -0.119245
v -0.430482 -0.822959 -0.376663
v -0.429226 -0.801533 -0.267616
v -0.430100 -0.757719 -0.343500
v -0.431002 -0.713904 -0.421832
v -0.376230 -0.713904 -0.113990
v -0.376468 -0.791018 -0.134651
v -0.379262 -0.822959 -0.377253
v -0.434341 -0.789793 -0.311374
v -0.430200 -0.691224 -0.352253
v -0.430941 -0.673988 -0.416577
v -0.379722 -0.673988 -0.417167
v -0.427510 -0.753821 -0.118655
v -0.427449 -0.713904 -0.113400
v -0.378894 -0.847468 -0.345314
v -0.427687 -0.791018 -0.134062
v -0.433837 -0.801533 -0.267563
v -0.434812 -0.736585 -0.352200
v -0.376291 -0.673988 -0.119245
v -0.376750 -0.822959 -0.159159
v -0.430114 -0.847468 -0.344724
v -0.427970 -0.822959 -0.158569
v -0.428721 -0.789793 -0.223805
v -0.433332 -0.789793 -0.223752
v -0.432963 -0.757719 -0.191680
v -0.434812 -0.691224 -0.352200
v -0.429939 -0.651942 -0.329575
v -0.430764 -0.636791 -0.401171
v -0.379544 -0.636791 -0.401761
v -0.428216 -0.713904 -0.179993
v -0.427510 -0.673988 -0.118655
v -0.378466 -0.862875 -0.308120
v -0.377118 -0.847468 -0.191098
v -0.432828 -0.713904 -0.179940
v -0.433913 -0.725424 -0.274213
v -0.376468 -0.636791 -0.134651
v -0.428352 -0.757719 -0.191733
v -0.429685 -0.862875 -0.307530
v -0.428338 -0.847468 -0.190509
v -0.433990 -0.713904 -0.280864
v -0.429730 -0.638016 -0.311427
v -0.430482 -0.604850 -0.376663
v -0.379262 -0.604850 -0.377253
v -0.428352 -0.670090 -0.191733
v -0.427687 -0.636791 -0.134062
v -0.378006 -0.868131 -0.268206
v -0.377546 -0.862875 -0.228292
v -0.428766 -0.862875 -0.227702
v -0.433729 -0.723310 -0.258158
v -0.437468 -0.717347 -0.280370
v -0.433913 -0.702385 -0.274213
v -0.434341 -0.638016 -0.311374
v -0.429226 -0.626276 -0.267616
v -0.376750 -0.604850 -0.159159
v -0.429226 -0.868131 -0.267616
v -0.433704 -0.707254 -0.256044
v -0.437320 -0.727206 -0.267523
v -0.437397 -0.702385 -0.274173
v -0.378894 -0.580341 -0.345314
v -0.427970 -0.604850 -0.158569
v -0.428721 -0.638016 -0.223805
v -0.437172 -0.717347 -0.254676
v -0.437187 -0.707254 -0.256005
v -0.433797 -0.701056 -0.264121
v -0.433576 -0.629262 -0.244885
v -0.430114 -0.580341 -0.344724
v -0.428338 -0.580341 -0.190508
v -0.377118 -0.580341 -0.191098
v -0.433123 -0.651942 -0.205604
v -0.378466 -0.564934 -0.308120
v -0.428766 -0.564934 -0.227702
v -0.429685 -0.564934 -0.307530
v -0.377547 -0.564934 -0.228292
v -0.378006 -0.559678 -0.268206
v -0.429226 -0.559678 -0.267616
vn -0.010639614972165926 -0.3826830425891812 -0.9238184277810932
vn -0.999933687371511 0 0.01151611304275539
vn -0.011417352364765258 -0.13052596491064472 -0.9913791487363066
vn 0.999933687371511 0 -0.01151611304275539
vn -0.009135719581284046 -0.6087607762137968 -0.7933012391086426
vn -0.002980526347185592 -0.9659258117251399 -0.25880193721420125
vn -0.008141171688585204 -0.7071069335835702 -0.7070597611246003
vn -0.011417352364765253 0.13052596491064386 -0.9913791487363068
vn 0.01063961497216591 -0.38268304258918046 0.9238184277810935
vn 0.011417350874499303 -0.13052694787315963 0.9913790193351512
vn -0.007010383925652806 -0.7933532829816298 -0.6087211372208831
vn -0.7944896096017132 -0.3740751013749275 -0.47838695505443607
vn 0.7818583510991233 -0.08020600897068188 -0.6182754361460231
vn 0.011417352364765258 0.13052596491064472 0.9913791487363066
vn 0.0029805263471855514 -0.9659258117251399 0.2588019372142015
vn -0.011515134814233639 0 -0.9999336986371695
vn -0.010639610900562244 0.3826838961424744 -0.9238180742511484
vn 0.009135917056442793 -0.6087618781024465 0.7933003912697382
vn -0.004406975436899977 -0.9238792993489521 -0.38265861913981264
vn -0.009972202911837081 0.49999995025675703 -0.8659680161023994
vn 0.010639614972165926 0.3826830425891812 0.9238184277810932
vn 0.007010378363942799 -0.7933536535718888 0.6087206542900687
vn 0.008142151110086607 -0.7071068299715867 0.707059853465627
vn 0.011126797706808847 -0.2588189838562953 0.9658617540664846
vn -0.9942002059420447 0.09865498093522264 0.042815245432753335
vn -0.009135719581284021 0.6087607762137962 -0.7933012391086429
vn -0.0015027140737893102 -0.9914448589283126 -0.1305175603320524
vn 0.004406975436899938 -0.9238792993489519 0.3826586191398129
vn 0.3470932740476502 -0.46715904370249717 -0.8131965857022833
vn -0.9985788479656384 0.03146899960251493 -0.043011468931381254
vn -0.00700939863395088 0.7933537536537806 -0.6087205351343478
vn 0.011130917717271243 0.25881902119805555 0.9658616965885187
vn 0.009135922618040242 0.6087612486930226 0.7933008742007216
vn 0.6044451510222345 -0.7907016676456238 0.09714387365211215
vn -0.6088402827002514 -0.6327170922761003 -0.4785212548081377
vn -0.4555864720610517 0.3424971436635391 -0.8216670086216687
vn -0.00997514437256437 0.49999893106140186 -0.8659685706953816
vn -0.9818702026002425 -0.09962699407627888 -0.16126179738885366
vn -0.0029805263471855514 0.9659258117251399 -0.2588019372142015
vn -0.007010383925652772 0.7933532829816293 -0.6087211372208833
vn -0.9940250257664356 0.10714994342270169 0.02081196229452595
vn 0.0015027140737892677 -0.9914448589283126 0.13051756033205264
vn 0.6123514212598474 -0.10409703519370367 0.7837024589376541
vn -0.5976576976224478 -0.6327178923778592 0.4924158254337026
vn -0.9999336986371696 0 0.011515134814233418
vn -0.001503498509537639 0.9914447055102314 -0.130518716695968
vn -0.789797968250752 0.6092303523228884 -0.0711164337935561
vn -0.9778963620303688 -0.13518806920542656 0.1595082790085795
vn 0.5503011103267083 0.593551203786641 0.5872526342696314
vn 0.007010378363942832 0.7933536535718891 0.6087206542900684
vn 0.011418537654379899 0.1305260646938899 0.9913791219474828
vn -0.7434502338744609 0.6438100437002178 0.18108113480628826
vn 0.5459688393839651 0.8108050668825019 0.21098144453811013
vn -0.004406975436899938 0.9238792993489519 -0.3826586191398129
vn -0.5386299791337146 0.7269497972653611 0.42593630725058473
vn 0.0070111690968221755 0.7933523398277875 0.6087223573992255
vn 0.004406975436899977 0.9238792993489521 0.38265861913981264
vn -0.0015036946476356117 0.9914448321112249 -0.13051775274786057
vn 0.0015027140737893102 0.9914448589283126 0.1305175603320524
vn 0.009135719581284046 0.6087607762137968 0.7933012391086426
vn 0.002980526347185592 0.9659258117251399 0.25880193721420125
vn 0.008141171688585204 0.7071069335835702 0.7070597611246003
vn 0.011417352364765253 -0.13052596491064386 0.9913791487363068
vn -0.01063961497216591 0.38268304258918046 -0.9238184277810935
vn -0.011417350874499303 0.13052694787315963 -0.9913790193351512
vn 0.007010383925652806 0.7933532829816298 0.6087211372208831
vn 0.7944896096017132 0.3740751013749275 0.47838695505443607
vn -0.7818583510991233 0.08020600897068188 0.6182754361460231
vn 0.011515134814233639 0 0.9999336986371695
vn 0.010639610900562244 -0.3826838961424744 0.9238180742511484
vn -0.009135917056442793 0.6087618781024465 -0.7933003912697382
vn 0.009972202911837081 -0.49999995025675703 0.8659680161023994
vn -0.007010378363942799 0.7933536535718888 -0.6087206542900687
vn -0.008142151110086607 0.7071068299715867 -0.707059853465627
vn -0.011126797706808847 0.2588189838562953 -0.9658617540664846
vn 0.9942002059420447 -0.09865498093522264 -0.042815245432753335
vn 0.009135719581284021 -0.6087607762137962 0.7933012391086429
vn -0.3470932740476502 0.46715904370249717 0.8131965857022833
vn 0.9985788479656384 -0.03146899960251493 0.043011468931381254
vn 0.00700939863395088 -0.7933537536537806 0.6087205351343478
vn -0.011130917717271243 -0.25881902119805555 -0.9658616965885187
vn -0.009135922618040242 -0.6087612486930226 -0.7933008742007216
vn -0.6044451510222345 0.7907016676456238 -0.09714387365211215
vn 0.6088402827002514 0.6327170922761003 0.4785212548081377
vn 0.4555864720610517 -0.3424971436635391 0.8216670086216687
vn 0.00997514437256437 -0.49999893106140186 0.8659685706953816
vn 0.9818702026002425 0.09962699407627888 0.16126179738885366
vn 0.007010383925652772 -0.7933532829816293 0.6087211372208833
vn 0.9940250257664356 -0.10714994342270169 -0.02081196229452595
vn -0.0015027140737892677 0.9914448589283126 -0.13051756033205264
vn -0.6123514212598474 0.10409703519370367 -0.7837024589376541
vn 0.5976576976224478 0.6327178923778592 -0.4924158254337026
vn 0.9999336986371696 0 -0.011515134814233418
vn 0.001503498509537639 -0.9914447055102314 0.130518716695968
vn 0.789797968250752 -0.6092303523228884 0.0711164337935561
vn 0.9778963620303688 0.13518806920542656 -0.1595082790085795
vn -0.5503011103267083 -0.593551203786641 -0.5872526342696314
vn -0.007010378363942832 -0.7933536535718891 -0.6087206542900684
vn -0.011418537654379899 -0.1305260646938899 -0.9913791219474828
vn 0.7434502338744609 -0.6438100437002178 -0.18108113480628826
vn -0.5459688393839651 -0.8108050668825019 -0.21098144453811013
vn 0.5386299791337146 -0.7269497972653611 -0.42593630725058473
vn -0.0070111690968221755 -0.7933523398277875 -0.6087223573992255
vn 0.0015036946476356117 -0.9914448321112249 0.13051775274786057
usemtl material_0_0
f 1//1 2//1 3//1
f 2//1 1//1 4//1
f 2//2 5//2 3//2
f 3//3 6//3 1//3
f 7//4 4//4 1//4
f 4//5 8//5 2//5
f 2//2 9//2 5//2
f 3//2 5//2 10//2
f 6//3 3//3 11//3
f 12//4 1//4 6//4
f 13//4 4//4 7//4
f 7//4 1//4 12//4
f 8//5 4//5 14//5
f 9//2 2//2 8//2
f 9//6 15//6 5//6
f 15//7 10//7 5//7
f 3//2 10//2 16//2
f 3//2 16//2 11//2
f 17//8 6//8 11//8
f 12//4 6//4 18//4
f 13//4 14//4 4//4
f 19//9 13//9 7//9
f 20//10 7//10 12//10
f 21//11 8//11 14//11
f 8//2 22//2 9//2
f 15//6 9//6 23//6
f 24//12 10//12 15//12
f 10//13 24//13 16//13
f 11//2 16//2 17//2
f 6//8 17//8 18//8
f 12//4 18//4 25//4
f 26//4 14//4 13//4
f 13//9 19//9 22//9
f 7//10 20//10 19//10
f 25//14 20//14 12//14
f 8//11 21//11 27//11
f 26//4 21//4 14//4
f 8//2 28//2 22//2
f 9//2 22//2 29//2
f 29//15 23//15 9//15
f 30//2 15//2 23//2
f 15//2 31//2 24//2
f 16//16 24//16 32//16
f 17//2 16//2 33//2
f 34//17 18//17 17//17
f 25//4 18//4 35//4
f 22//18 26//18 13//18
f 29//2 22//2 19//2
f 36//2 19//2 20//2
f 20//14 25//14 37//14
f 38//19 27//19 21//19
f 27//2 28//2 8//2
f 39//4 21//4 26//4
f 26//18 22//18 28//18
f 23//15 29//15 30//15
f 15//2 30//2 31//2
f 24//2 31//2 40//2
f 41//2 32//2 24//2
f 33//20 16//20 32//20
f 17//2 33//2 34//2
f 18//17 34//17 35//17
f 25//4 35//4 42//4
f 29//2 19//2 43//2
f 43//2 19//2 36//2
f 36//2 20//2 37//2
f 42//21 37//21 25//21
f 27//19 38//19 44//19
f 39//4 38//4 21//4
f 27//2 45//2 28//2
f 26//22 45//22 39//22
f 45//22 26//22 28//22
f 43//23 30//23 29//23
f 30//23 43//23 31//23
f 43//24 40//24 31//24
f 24//2 40//2 41//2
f 32//2 41//2 46//2
f 33//25 32//25 46//25
f 34//2 33//2 47//2
f 48//26 35//26 34//26
f 42//4 35//4 49//4
f 40//24 43//24 36//24
f 36//2 37//2 50//2
f 37//21 42//21 51//21
f 52//27 44//27 38//27
f 44//2 45//2 27//2
f 53//4 38//4 39//4
f 54//28 39//28 45//28
f 41//2 40//2 55//2
f 41//29 56//29 46//29
f 33//30 46//30 57//30
f 58//31 47//31 33//31
f 34//2 47//2 59//2
f 35//26 48//26 49//26
f 34//2 59//2 48//2
f 42//4 49//4 60//4
f 36//32 50//32 40//32
f 50//2 37//2 51//2
f 60//33 51//33 42//33
f 44//27 52//27 61//27
f 38//4 53//4 52//4
f 44//2 54//2 45//2
f 39//28 54//28 53//28
f 55//2 40//2 62//2
f 55//34 63//34 41//34
f 56//35 41//35 63//35
f 46//36 56//36 64//36
f 57//37 46//37 64//37
f 58//38 33//38 57//38
f 59//39 47//39 58//39
f 48//40 65//40 49//40
f 48//2 59//2 66//2
f 60//4 49//4 65//4
f 50//41 62//41 40//41
f 50//2 51//2 67//2
f 51//33 60//33 66//33
f 53//42 61//42 52//42
f 54//2 44//2 61//2
f 61//42 53//42 54//42
f 62//43 68//43 55//43
f 68//44 63//44 55//44
f 68//45 56//45 63//45
f 56//45 69//45 64//45
f 70//46 57//46 64//46
f 70//2 58//2 57//2
f 59//47 58//47 71//47
f 65//40 48//40 72//40
f 59//2 51//2 66//2
f 48//2 66//2 73//2
f 60//4 65//4 74//4
f 75//48 62//48 50//48
f 67//2 51//2 59//2
f 67//49 75//49 50//49
f 60//50 73//50 66//50
f 62//51 69//51 68//51
f 56//45 68//45 69//45
f 70//52 64//52 69//52
f 58//2 70//2 75//2
f 58//2 75//2 71//2
f 67//53 59//53 71//53
f 48//2 73//2 72//2
f 72//54 76//54 65//54
f 74//4 65//4 76//4
f 73//50 60//50 74//50
f 75//2 70//2 62//2
f 75//55 67//55 71//55
f 69//56 62//56 70//56
f 72//2 73//2 77//2
f 76//54 72//54 78//54
f 74//4 76//4 79//4
f 74//57 77//57 73//57
f 72//2 77//2 78//2
f 78//58 80//58 76//58
f 79//4 76//4 80//4
f 77//57 74//57 79//57
f 78//2 77//2 81//2
f 80//58 78//58 81//58
f 81//59 79//59 80//59
f 79//59 81//59 77//59
usemtl material_1_0
f 3//21 2//21 1//21
f 4//21 1//21 2//21
f 3//4 5//4 2//4
f 1//14 6//14 3//14
f 1//2 4//2 7//2
f 2//60 8//60 4//60
f 5//4 9//4 2//4
f 10//4 5//4 3//4
f 11//14 3//14 6//14
f 6//2 1//2 12//2
f 7//2 4//2 13//2
f 12//2 1//2 7//2
f 14//60 4//60 8//60
f 8//4 2//4 9//4
f 5//61 15//61 9//61
f 5//62 10//62 15//62
f 16//4 10//4 3//4
f 11//4 16//4 3//4
f 11//63 6//63 17//63
f 18//2 6//2 12//2
f 4//2 14//2 13//2
f 7//64 13//64 19//64
f 12//65 7//65 20//65
f 14//66 8//66 21//66
f 9//4 22//4 8//4
f 23//61 9//61 15//61
f 15//67 10//67 24//67
f 16//68 24//68 10//68
f 17//4 16//4 11//4
f 18//63 17//63 6//63
f 25//2 18//2 12//2
f 13//2 14//2 26//2
f 22//64 19//64 13//64
f 19//65 20//65 7//65
f 12//3 20//3 25//3
f 27//66 21//66 8//66
f 14//2 21//2 26//2
f 22//4 28//4 8//4
f 29//4 22//4 9//4
f 9//39 23//39 29//39
f 23//4 15//4 30//4
f 24//4 31//4 15//4
f 32//69 24//69 16//69
f 33//4 16//4 17//4
f 17//70 18//70 34//70
f 35//2 18//2 25//2
f 13//71 26//71 22//71
f 19//4 22//4 29//4
f 20//4 19//4 36//4
f 37//3 25//3 20//3
f 21//57 27//57 38//57
f 8//4 28//4 27//4
f 26//2 21//2 39//2
f 28//71 22//71 26//71
f 30//39 29//39 23//39
f 31//4 30//4 15//4
f 40//4 31//4 24//4
f 24//4 32//4 41//4
f 32//72 16//72 33//72
f 34//4 33//4 17//4
f 35//70 34//70 18//70
f 42//2 35//2 25//2
f 43//4 19//4 29//4
f 36//4 19//4 43//4
f 37//4 20//4 36//4
f 25//1 37//1 42//1
f 44//57 38//57 27//57
f 21//2 38//2 39//2
f 28//4 45//4 27//4
f 39//73 45//73 26//73
f 28//73 26//73 45//73
f 29//74 30//74 43//74
f 31//74 43//74 30//74
f 31//75 40//75 43//75
f 41//4 40//4 24//4
f 46//4 41//4 32//4
f 46//76 32//76 33//76
f 47//4 33//4 34//4
f 34//77 35//77 48//77
f 49//2 35//2 42//2
f 36//75 43//75 40//75
f 50//4 37//4 36//4
f 51//1 42//1 37//1
f 38//59 44//59 52//59
f 27//4 45//4 44//4
f 39//2 38//2 53//2
f 45//54 39//54 54//54
f 55//4 40//4 41//4
f 46//78 56//78 41//78
f 57//79 46//79 33//79
f 33//80 47//80 58//80
f 59//4 47//4 34//4
f 49//77 48//77 35//77
f 48//4 59//4 34//4
f 60//2 49//2 42//2
f 40//81 50//81 36//81
f 51//4 37//4 50//4
f 42//82 51//82 60//82
f 61//59 52//59 44//59
f 52//2 53//2 38//2
f 45//4 54//4 44//4
f 53//54 54//54 39//54
f 62//4 40//4 55//4
f 41//83 63//83 55//83
f 63//84 41//84 56//84
f 64//85 56//85 46//85
f 64//86 46//86 57//86
f 57//87 33//87 58//87
f 58//15 47//15 59//15
f 49//88 65//88 48//88
f 66//4 59//4 48//4
f 65//2 49//2 60//2
f 40//89 62//89 50//89
f 67//4 51//4 50//4
f 66//82 60//82 51//82
f 52//90 61//90 53//90
f 61//4 44//4 54//4
f 54//90 53//90 61//90
f 55//91 68//91 62//91
f 55//92 63//92 68//92
f 63//93 56//93 68//93
f 64//93 69//93 56//93
f 64//94 57//94 70//94
f 57//4 58//4 70//4
f 71//95 58//95 59//95
f 72//88 48//88 65//88
f 66//4 51//4 59//4
f 73//4 66//4 48//4
f 74//2 65//2 60//2
f 50//96 62//96 75//96
f 59//4 51//4 67//4
f 50//97 75//97 67//97
f 66//98 73//98 60//98
f 68//99 69//99 62//99
f 69//93 68//93 56//93
f 69//100 64//100 70//100
f 75//4 70//4 58//4
f 71//4 75//4 58//4
f 71//101 59//101 67//101
f 72//4 73//4 48//4
f 65//28 76//28 72//28
f 76//2 65//2 74//2
f 74//98 60//98 73//98
f 62//4 70//4 75//4
f 71//102 67//102 75//102
f 70//103 62//103 69//103
f 77//4 73//4 72//4
f 78//28 72//28 76//28
f 79//2 76//2 74//2
f 73//19 77//19 74//19
f 78//4 77//4 72//4
f 76//104 80//104 78//104
f 80//2 76//2 79//2
f 79//19 74//19 77//19
f 81//4 77//4 78//4
f 81//104 78//104 80//104
f 80//27 79//27 81//27
f 77//27 81//27 79//27
