# SSTK version 0.8.0
# 10
mtllib original-10.mtl
o mesh38/mesh38-geometry#mesh38-geometry
v 0.409477 -0.753821 -0.426256
v 0.358197 -0.713904 -0.430921
v 0.409416 -0.713904 -0.431511
v 0.358435 -0.791018 -0.410260
v 0.358257 -0.673988 -0.425666
v 0.410218 -0.736585 -0.361932
v 0.409654 -0.791018 -0.410850
v 0.361688 -0.753821 -0.127744
v 0.409477 -0.673988 -0.426256
v 0.361749 -0.713904 -0.122489
v 0.410479 -0.775867 -0.339253
v 0.410318 -0.670090 -0.353179
v 0.358717 -0.822959 -0.385752
v 0.358435 -0.636791 -0.410260
v 0.361688 -0.673988 -0.127744
v 0.414930 -0.757719 -0.353232
v 0.414795 -0.713904 -0.364971
v 0.409937 -0.822959 -0.386342
v 0.411192 -0.801533 -0.277295
v 0.361228 -0.822959 -0.167658
v 0.412969 -0.713904 -0.123079
v 0.409654 -0.636791 -0.410850
v 0.412908 -0.673988 -0.128334
v 0.415299 -0.789793 -0.321159
v 0.414930 -0.670090 -0.353232
v 0.410304 -0.847468 -0.354403
v 0.359085 -0.847468 -0.353813
v 0.412731 -0.791018 -0.143741
v 0.358717 -0.604850 -0.385752
v 0.361511 -0.636791 -0.143151
v 0.410688 -0.638016 -0.321106
v 0.415764 -0.726753 -0.280791
v 0.416308 -0.789793 -0.233537
v 0.415650 -0.713904 -0.290649
v 0.412448 -0.822959 -0.168248
v 0.415803 -0.801533 -0.277348
v 0.360861 -0.847468 -0.199598
v 0.412167 -0.691224 -0.192658
v 0.411906 -0.775867 -0.215337
v 0.409937 -0.604850 -0.386342
v 0.411192 -0.626276 -0.277295
v 0.412448 -0.604850 -0.168248
v 0.416778 -0.736585 -0.192711
v 0.415695 -0.704499 -0.286753
v 0.415542 -0.629262 -0.300027
v 0.359513 -0.862875 -0.316619
v 0.412080 -0.847468 -0.200187
v 0.412167 -0.736585 -0.192658
v 0.411697 -0.638016 -0.233484
v 0.410733 -0.564934 -0.317209
v 0.361228 -0.604850 -0.167658
v 0.415880 -0.725424 -0.270698
v 0.419133 -0.713904 -0.290689
v 0.415880 -0.702385 -0.270698
v 0.416517 -0.651942 -0.215390
v 0.411192 -0.868131 -0.277295
v 0.411652 -0.862875 -0.237381
v 0.360432 -0.862875 -0.236791
v 0.359513 -0.564934 -0.316619
v 0.416065 -0.629262 -0.254670
v 0.360861 -0.580341 -0.199597
v 0.416778 -0.691224 -0.192711
v 0.419287 -0.727206 -0.277388
v 0.419247 -0.701056 -0.280831
v 0.359973 -0.868131 -0.276705
v 0.411192 -0.559678 -0.277295
v 0.412080 -0.580341 -0.200187
v 0.415957 -0.713904 -0.264048
v 0.419363 -0.702385 -0.270738
v 0.411652 -0.564934 -0.237381
v 0.360432 -0.564934 -0.236791
vn -0.011417556404412854 -0.13052805743744894 -0.9913788708800276
vn -0.11311532749180904 -0.2574669949811963 -0.959643511509234
vn -0.011417352364765253 0.13052596491064386 -0.9913791487363068
vn 0.999933687371511 0 -0.01151611304275539
vn -0.01063843083269166 -0.382682769975962 -0.9238185543454641
vn -0.999933687371511 0 0.01151611304275539
vn -0.009135719581284046 -0.6087607762137968 -0.7933012391086426
vn -0.010638632322951026 0.3826839694078617 -0.9238180551713309
vn -0.5518331545767184 -0.41970599663794544 -0.7206434943132816
vn -0.7958887524877388 0.08020797553059535 -0.6001064691575941
vn 0.011417352364765253 -0.13052596491064386 0.9913791487363068
vn 0.011417352364765258 0.13052596491064472 0.9913791487363066
vn 0.5341303607351855 -0.2172530221061482 -0.8170103317135263
vn 0.5366265972901774 -0.5935526988237211 -0.5997725308813692
vn -0.011122680576101059 0.2588180134972299 -0.9658620615109332
vn -0.007010378363942832 -0.7933536535718891 -0.6087206542900684
vn -0.7915850797362769 -0.5677089847624073 -0.2260521403547175
vn -0.09212933140618415 -0.49738974079535153 0.8626213723564832
vn 0.11311654505129062 -0.25746808829959666 0.9596430746600583
vn -0.00913690173095962 0.6087611486104849 -0.7933009397253993
vn 0.010638636394181777 0.38268311585446096 0.9238184087014035
vn -0.008142352688716497 0.7071073191183119 -0.7070593619647548
vn -0.002980526347185592 -0.9659258117251399 -0.25880193721420125
vn 0.009135922618040216 -0.6087612486930221 0.793300874200722
vn 0.11197181610502334 0.49738903569736387 0.8602711546751926
vn 0.784568134062182 0.4875041014686266 -0.38313521642554993
vn -0.004406975436899977 -0.9238792993489521 -0.38265861913981264
vn 0.0029805263471855514 -0.9659258117251399 0.2588019372142015
vn 0.007010383925652772 -0.7933532829816293 0.6087211372208833
vn -0.005757958740963411 0.8660251117159474 -0.4999673507225428
vn -0.5459719724440422 0.8108030598575381 -0.21098104993391203
vn 0.009136901730959646 0.6087611486104855 0.793300939725399
vn -0.009140626267821557 -0.6087590169740282 -0.7933025325840369
vn 0.7944903417319716 -0.37407489212074413 0.4783859027808706
vn -0.010644318583231912 0.38267891616156374 -0.9238200829205379
vn -0.7861688989942331 -0.5677091946158547 0.2442227110708846
vn 0.09908561590996308 -0.9608821725494708 -0.2586261610826568
vn 0.011517091270861103 0 0.9999336761048999
vn -0.7832620408254285 0.37407384042817643 0.4965574864094791
vn 0.009973381145691948 -0.5000010341385714 0.8659673767116645
vn 0.5434639191207867 0.8394091878308375 -0.006259712377460516
vn 0.007010378363942832 0.7933536535718891 0.6087206542900684
vn -0.24835451067935813 -0.960006796087858 0.12925551628592952
vn 0.5118069658121813 -0.6045005957010694 -0.6104364500447043
vn -0.604438303521363 0.7907069459496472 -0.09714351683565199
vn 0.5959645486983853 0.4855001921607712 -0.6396216226071351
vn -0.0015027140737893102 -0.9914448589283126 -0.1305175603320524
vn 0.004406975436899938 -0.9238792993489519 0.3826586191398129
vn 0.009974160560974873 0.49999977079390784 0.8659680971763011
vn 0.548296057428253 0.7269506928215975 0.41341761405972177
vn -0.0015027140737892677 0.9914448589283126 -0.13051756033205264
vn -0.5409629079694931 0.8108062770326874 0.22350014166792495
vn 0.8675186775281982 0.3566669305451856 0.3466987810696799
vn 0.0015036946476356544 0.9914448321112249 0.13051775274786032
vn 0.9999336986246705 -0.000005000001513647287 -0.01151513481408948
vn 0.0015027140737892677 -0.9914448589283126 0.13051756033205264
vn -0.10205054455453917 0.9947785205138844 0.0011753639136119242
vn 0.004406975436899977 0.9238792993489521 0.38265861913981264
vn 0.9901883575028021 -0.07474700469343913 0.11806736193911423
vn 0.009972992300545621 0.49999718690848355 0.865969602531276
vn 0.968774637629068 -0.21939007103358008 0.11551492638853599
vn 0.0015027140737893102 0.9914448589283126 0.1305175603320524
vn 0.011417556404412854 0.13052805743744894 0.9913788708800276
vn 0.11311532749180904 0.2574669949811963 0.959643511509234
vn 0.01063843083269166 0.382682769975962 0.9238185543454641
vn 0.009135719581284046 0.6087607762137968 0.7933012391086426
vn 0.010638632322951026 -0.3826839694078617 0.9238180551713309
vn 0.5518331545767184 0.41970599663794544 0.7206434943132816
vn 0.7958887524877388 -0.08020797553059535 0.6001064691575941
vn -0.011417352364765258 -0.13052596491064472 -0.9913791487363066
vn -0.5341303607351855 0.2172530221061482 0.8170103317135263
vn -0.5366265972901774 0.5935526988237211 0.5997725308813692
vn 0.011122680576101059 -0.2588180134972299 0.9658620615109332
vn 0.7915850797362769 0.5677089847624073 0.2260521403547175
vn 0.09212933140618415 0.49738974079535153 -0.8626213723564832
vn -0.11311654505129062 0.25746808829959666 -0.9596430746600583
vn 0.00913690173095962 -0.6087611486104849 0.7933009397253993
vn -0.010638636394181777 -0.38268311585446096 -0.9238184087014035
vn 0.008142352688716497 -0.7071073191183119 0.7070593619647548
vn 0.002980526347185592 0.9659258117251399 0.25880193721420125
vn -0.009135922618040216 0.6087612486930221 -0.793300874200722
vn -0.11197181610502334 -0.49738903569736387 -0.8602711546751926
vn -0.784568134062182 -0.4875041014686266 0.38313521642554993
vn -0.0029805263471855514 0.9659258117251399 -0.2588019372142015
vn -0.007010383925652772 0.7933532829816293 -0.6087211372208833
vn 0.005757958740963411 -0.8660251117159474 0.4999673507225428
vn 0.5459719724440422 -0.8108030598575381 0.21098104993391203
vn -0.009136901730959646 -0.6087611486104855 -0.793300939725399
vn 0.009140626267821557 0.6087590169740282 0.7933025325840369
vn -0.7944903417319716 0.37407489212074413 -0.4783859027808706
vn 0.010644318583231912 -0.38267891616156374 0.9238200829205379
vn 0.7861688989942331 0.5677091946158547 -0.2442227110708846
vn -0.09908561590996308 0.9608821725494708 0.2586261610826568
vn -0.011517091270861103 0 -0.9999336761048999
vn 0.7832620408254285 -0.37407384042817643 -0.4965574864094791
vn -0.009973381145691948 0.5000010341385714 -0.8659673767116645
vn -0.5434639191207867 -0.8394091878308375 0.006259712377460516
vn 0.24835451067935813 0.960006796087858 -0.12925551628592952
vn -0.5118069658121813 0.6045005957010694 0.6104364500447043
vn 0.604438303521363 -0.7907069459496472 0.09714351683565199
vn -0.5959645486983853 -0.4855001921607712 0.6396216226071351
vn -0.004406975436899938 0.9238792993489519 -0.3826586191398129
vn -0.009974160560974873 -0.49999977079390784 -0.8659680971763011
vn -0.548296057428253 -0.7269506928215975 -0.41341761405972177
vn 0.5409629079694931 -0.8108062770326874 -0.22350014166792495
vn -0.8675186775281982 -0.3566669305451856 -0.3466987810696799
vn -0.0015036946476356544 -0.9914448321112249 -0.13051775274786032
vn -0.9999336986246705 0.000005000001513647287 0.01151513481408948
vn 0.10205054455453917 -0.9947785205138844 -0.0011753639136119242
vn -0.9901883575028021 0.07474700469343913 -0.11806736193911423
vn -0.009972992300545621 -0.49999718690848355 -0.865969602531276
vn -0.968774637629068 0.21939007103358008 -0.11551492638853599
usemtl material_0_0
f 1//1 2//1 3//1
f 1//2 4//2 2//2
f 5//3 3//3 2//3
f 6//4 1//4 3//4
f 7//5 4//5 1//5
f 4//6 8//6 2//6
f 3//3 5//3 9//3
f 2//6 10//6 5//6
f 11//4 1//4 6//4
f 6//4 3//4 12//4
f 7//7 13//7 4//7
f 11//4 7//4 1//4
f 13//6 8//6 4//6
f 2//6 8//6 10//6
f 14//8 9//8 5//8
f 12//4 3//4 9//4
f 5//6 10//6 15//6
f 6//9 16//9 11//9
f 12//10 17//10 6//10
f 13//7 7//7 18//7
f 19//4 7//4 11//4
f 13//6 20//6 8//6
f 21//11 10//11 8//11
f 9//8 14//8 22//8
f 5//6 15//6 14//6
f 12//4 9//4 22//4
f 10//12 23//12 15//12
f 16//13 6//13 17//13
f 24//14 11//14 16//14
f 25//15 17//15 12//15
f 7//4 19//4 18//4
f 26//16 13//16 18//16
f 11//17 24//17 19//17
f 27//6 20//6 13//6
f 28//18 8//18 20//18
f 23//12 10//12 21//12
f 21//19 8//19 28//19
f 29//20 22//20 14//20
f 14//6 15//6 30//6
f 12//4 22//4 31//4
f 23//21 30//21 15//21
f 32//4 16//4 17//4
f 33//4 24//4 16//4
f 34//4 17//4 25//4
f 31//22 25//22 12//22
f 28//4 18//4 19//4
f 13//16 26//16 27//16
f 35//4 26//4 18//4
f 19//23 24//23 36//23
f 27//6 37//6 20//6
f 28//24 20//24 35//24
f 21//4 38//4 23//4
f 28//4 39//4 21//4
f 22//20 29//20 40//20
f 14//6 30//6 29//6
f 31//4 22//4 41//4
f 23//25 42//25 30//25
f 43//4 16//4 32//4
f 32//4 17//4 34//4
f 24//4 33//4 36//4
f 33//4 16//4 43//4
f 34//4 25//4 44//4
f 45//26 25//26 31//26
f 35//4 18//4 28//4
f 28//4 19//4 39//4
f 46//27 27//27 26//27
f 47//4 26//4 35//4
f 33//28 19//28 36//28
f 46//6 37//6 27//6
f 37//29 35//29 20//29
f 21//4 48//4 38//4
f 23//4 38//4 49//4
f 21//4 39//4 48//4
f 29//30 50//30 40//30
f 41//4 22//4 40//4
f 29//6 30//6 51//6
f 41//31 45//31 31//31
f 23//4 49//4 42//4
f 42//32 51//32 30//32
f 52//4 43//4 32//4
f 53//33 32//33 34//33
f 43//34 39//34 33//34
f 44//4 25//4 54//4
f 53//35 34//35 44//35
f 55//4 25//4 45//4
f 39//36 19//36 33//36
f 56//37 46//37 26//37
f 57//4 26//4 47//4
f 35//29 37//29 47//29
f 46//6 58//6 37//6
f 43//38 38//38 48//38
f 49//39 38//39 55//39
f 43//40 48//40 39//40
f 50//30 29//30 59//30
f 42//4 40//4 50//4
f 42//4 41//4 40//4
f 29//6 51//6 59//6
f 60//41 45//41 41//41
f 42//4 49//4 41//4
f 42//42 61//42 51//42
f 43//4 52//4 62//4
f 52//43 32//43 63//43
f 63//44 32//44 53//44
f 54//4 25//4 62//4
f 54//45 64//45 44//45
f 64//46 53//46 44//46
f 62//4 25//4 55//4
f 55//4 45//4 60//4
f 65//47 46//47 56//47
f 26//4 57//4 56//4
f 47//48 58//48 57//48
f 58//48 47//48 37//48
f 58//6 46//6 65//6
f 38//38 43//38 62//38
f 62//49 55//49 38//49
f 55//50 60//50 49//50
f 66//51 50//51 59//51
f 42//4 50//4 67//4
f 59//6 51//6 61//6
f 49//52 60//52 41//52
f 61//42 42//42 67//42
f 62//4 52//4 68//4
f 53//53 52//53 63//53
f 62//4 68//4 54//4
f 54//54 69//54 64//54
f 64//55 69//55 53//55
f 57//56 65//56 56//56
f 65//56 57//56 58//56
f 70//4 50//4 66//4
f 71//57 66//57 59//57
f 67//4 50//4 70//4
f 59//6 61//6 71//6
f 67//58 71//58 61//58
f 68//59 52//59 53//59
f 69//60 54//60 68//60
f 69//61 68//61 53//61
f 71//62 70//62 66//62
f 71//58 67//58 70//58
usemtl material_1_0
f 3//63 2//63 1//63
f 2//64 4//64 1//64
f 2//11 3//11 5//11
f 3//6 1//6 6//6
f 1//65 4//65 7//65
f 2//4 8//4 4//4
f 9//11 5//11 3//11
f 5//4 10//4 2//4
f 6//6 1//6 11//6
f 12//6 3//6 6//6
f 4//66 13//66 7//66
f 1//6 7//6 11//6
f 4//4 8//4 13//4
f 10//4 8//4 2//4
f 5//67 9//67 14//67
f 9//6 3//6 12//6
f 15//4 10//4 5//4
f 11//68 16//68 6//68
f 6//69 17//69 12//69
f 18//66 7//66 13//66
f 11//6 7//6 19//6
f 8//4 20//4 13//4
f 8//3 10//3 21//3
f 22//67 14//67 9//67
f 14//4 15//4 5//4
f 22//6 9//6 12//6
f 15//70 23//70 10//70
f 17//71 6//71 16//71
f 16//72 11//72 24//72
f 12//73 17//73 25//73
f 18//6 19//6 7//6
f 18//42 13//42 26//42
f 19//74 24//74 11//74
f 13//4 20//4 27//4
f 20//75 8//75 28//75
f 21//70 10//70 23//70
f 28//76 8//76 21//76
f 14//77 22//77 29//77
f 30//4 15//4 14//4
f 31//6 22//6 12//6
f 15//78 30//78 23//78
f 17//6 16//6 32//6
f 16//6 24//6 33//6
f 25//6 17//6 34//6
f 12//79 25//79 31//79
f 19//6 18//6 28//6
f 27//42 26//42 13//42
f 18//6 26//6 35//6
f 36//80 24//80 19//80
f 20//4 37//4 27//4
f 35//81 20//81 28//81
f 23//6 38//6 21//6
f 21//6 39//6 28//6
f 40//77 29//77 22//77
f 29//4 30//4 14//4
f 41//6 22//6 31//6
f 30//82 42//82 23//82
f 32//6 16//6 43//6
f 34//6 17//6 32//6
f 36//6 33//6 24//6
f 43//6 16//6 33//6
f 44//6 25//6 34//6
f 31//83 25//83 45//83
f 28//6 18//6 35//6
f 39//6 19//6 28//6
f 26//58 27//58 46//58
f 35//6 26//6 47//6
f 36//84 19//84 33//84
f 27//4 37//4 46//4
f 20//85 35//85 37//85
f 38//6 48//6 21//6
f 49//6 38//6 23//6
f 48//6 39//6 21//6
f 40//86 50//86 29//86
f 40//6 22//6 41//6
f 51//4 30//4 29//4
f 31//87 45//87 41//87
f 42//6 49//6 23//6
f 30//88 51//88 42//88
f 32//6 43//6 52//6
f 34//89 32//89 53//89
f 33//90 39//90 43//90
f 54//6 25//6 44//6
f 44//91 34//91 53//91
f 45//6 25//6 55//6
f 33//92 19//92 39//92
f 26//93 46//93 56//93
f 47//6 26//6 57//6
f 47//85 37//85 35//85
f 37//4 58//4 46//4
f 48//94 38//94 43//94
f 55//95 38//95 49//95
f 39//96 48//96 43//96
f 59//86 29//86 50//86
f 50//6 40//6 42//6
f 40//6 41//6 42//6
f 59//4 51//4 29//4
f 41//97 45//97 60//97
f 41//6 49//6 42//6
f 51//16 61//16 42//16
f 62//6 52//6 43//6
f 63//98 32//98 52//98
f 53//99 32//99 63//99
f 62//6 25//6 54//6
f 44//100 64//100 54//100
f 44//101 53//101 64//101
f 55//6 25//6 62//6
f 60//6 45//6 55//6
f 56//62 46//62 65//62
f 56//6 57//6 26//6
f 57//102 58//102 47//102
f 37//102 47//102 58//102
f 65//4 46//4 58//4
f 62//94 43//94 38//94
f 38//103 55//103 62//103
f 49//104 60//104 55//104
f 59//56 50//56 66//56
f 67//6 50//6 42//6
f 61//4 51//4 59//4
f 41//105 60//105 49//105
f 67//16 42//16 61//16
f 68//6 52//6 62//6
f 63//106 52//106 53//106
f 54//6 68//6 62//6
f 64//107 69//107 54//107
f 53//108 69//108 64//108
f 56//51 65//51 57//51
f 58//51 57//51 65//51
f 66//6 50//6 70//6
f 59//109 66//109 71//109
f 70//6 50//6 67//6
f 71//4 61//4 59//4
f 61//27 71//27 67//27
f 53//110 52//110 68//110
f 68//111 54//111 69//111
f 53//112 68//112 69//112
f 66//47 70//47 71//47
f 70//27 67//27 71//27
