# SSTK version 0.8.0
# 7
mtllib original-7.mtl
o mesh35/mesh35-geometry#mesh35-geometry
v -0.392772 0.638346 0.113987
v -0.413443 0.590595 0.114225
v -0.414698 0.638536 0.114239
v -0.406799 0.578284 0.114148
v -0.414521 0.638536 0.129661
v -0.392595 0.638346 0.129408
v -0.402072 0.395480 0.114094
v -0.413266 0.590595 0.129646
v -0.385766 0.378404 0.129329
v -0.392456 0.378153 0.113983
v -0.406622 0.578284 0.129570
v -0.385944 0.378404 0.113908
v -0.392278 0.378153 0.129405
v -0.401894 0.395480 0.129515
vn -0.011515134814233639 0 -0.9999336986371695
vn 0.011515134814233639 0 0.9999336986371695
vn -0.9995913743290136 -0.02616400525000451 0.011512132570095122
vn 0.9995913743290136 0.02616400525000451 -0.011512132570095122
vn 0.008692047961008774 0.9999622184612698 -0.00009976101119892614
vn -0.008692047961008774 -0.9999622184612698 0.00009976101119892614
vn -0.8799521585824341 -0.4749542241357008 0.010133290767025011
vn 0.8799521585824341 0.4749542241357008 -0.010133290767025011
vn 0.9995888266419745 0.02626098986218327 -0.011512517708084613
vn -0.9995888266419745 -0.02626098986218327 0.011512517708084613
vn -0.999599450707132 -0.025852995970436127 0.011513502740374635
vn 0.999599450707132 0.025852995970436127 -0.011513502740374635
vn 0.011516113042755611 0 0.999933687371511
vn -0.011516113042755611 0 -0.999933687371511
vn -0.8742896655055157 -0.4853000978442745 0.010069549274492006
vn 0.8742896655055157 0.4853000978442745 -0.010069549274492006
vn 0.038425560754350115 -0.9992613675653712 -0.0004422353420238967
vn -0.038425560754350115 0.9992613675653712 0.0004422353420238967
usemtl material_0_0
f 1//1 2//1 3//1
f 2//1 1//1 4//1
f 3//2 2//2 1//2
f 4//2 1//2 2//2
f 2//3 5//3 3//3
f 3//4 5//4 2//4
f 3//5 6//5 1//5
f 1//6 6//6 3//6
f 4//1 1//1 7//1
f 7//2 1//2 4//2
f 4//7 8//7 2//7
f 2//8 8//8 4//8
f 5//3 2//3 8//3
f 8//4 2//4 5//4
f 6//5 3//5 5//5
f 5//6 3//6 6//6
f 9//9 1//9 6//9
f 6//10 1//10 9//10
f 7//1 1//1 10//1
f 10//2 1//2 7//2
f 7//11 11//11 4//11
f 4//12 11//12 7//12
f 8//7 4//7 11//7
f 11//8 4//8 8//8
f 8//13 6//13 5//13
f 5//14 6//14 8//14
f 1//9 9//9 12//9
f 12//10 9//10 1//10
f 6//13 13//13 9//13
f 9//14 13//14 6//14
f 10//1 1//1 12//1
f 12//2 1//2 10//2
f 10//15 14//15 7//15
f 7//16 14//16 10//16
f 11//11 7//11 14//11
f 14//12 7//12 11//12
f 6//13 8//13 11//13
f 11//14 8//14 6//14
f 9//17 10//17 12//17
f 12//18 10//18 9//18
f 6//13 14//13 13//13
f 13//14 14//14 6//14
f 10//17 9//17 13//17
f 13//18 9//18 10//18
f 14//15 10//15 13//15
f 13//16 10//16 14//16
f 6//13 11//13 14//13
f 14//14 11//14 6//14
