# SSTK version 0.8.0
# 13
mtllib original-13.mtl
o mesh41/mesh41-geometry#mesh41-geometry
v -0.378085 -0.697841 -0.268050
v -0.334678 -0.699969 -0.260611
v -0.322846 -0.699969 -0.276625
v -0.377903 -0.713718 -0.252174
v -0.339109 -0.713718 -0.252621
v -0.378244 -0.705780 -0.281798
v -0.325548 -0.729594 -0.268655
v -0.315706 -0.713718 -0.284646
v -0.378177 -0.727468 -0.275988
v -0.377994 -0.727468 -0.260112
v -0.319897 -0.727468 -0.276659
vn 0.04343077067780284 0.9985408974044214 0.03209118834048811
vn -0.08632188116285028 0.7039471826338408 0.7049871608010919
vn 0.8011825753321435 0.08617702261742141 0.5921824058150922
vn -0.04416206281008518 0.8653879884721666 -0.49915262356964074
vn -0.999933687371511 0 0.01151611304275539
vn 0.00997436495757142 0.5000001944071135 0.865967850232641
vn 0.026180540867254697 0.5138322111776311 -0.8574911300043891
vn 0.009974359970383798 -0.5000009444066478 0.8659674172482713
vn 0.09337728955187834 -0.6668651617274914 0.7393047665679636
vn 0.8030826960456091 0.08540102095660214 0.5897159052727725
vn -0.0766302612254613 -0.25826195526102746 -0.9630309265694785
vn 0.8131533848471919 0.08649900276308128 0.57558621876531
vn -0.040447286249789806 -0.9991815652402086 0.0004655310454129312
vn -0.002980133115986619 -0.9659266642333247 -0.25879875990756407
vn -0.009973181736586487 -0.4999998605255585 -0.8659680566397764
vn -0.04343077067780284 -0.9985408974044214 -0.03209118834048811
vn 0.08632188116285028 -0.7039471826338408 -0.7049871608010919
vn -0.8011825753321435 -0.08617702261742141 -0.5921824058150922
vn 0.04416206281008518 -0.8653879884721666 0.49915262356964074
vn 0.999933687371511 0 -0.01151611304275539
vn -0.00997436495757142 -0.5000001944071135 -0.865967850232641
vn -0.026180540867254697 -0.5138322111776311 0.8574911300043891
vn -0.009974359970383798 0.5000009444066478 -0.8659674172482713
vn -0.09337728955187834 0.6668651617274914 -0.7393047665679636
vn -0.8030826960456091 -0.08540102095660214 -0.5897159052727725
vn 0.0766302612254613 0.25826195526102746 0.9630309265694785
vn -0.8131533848471919 -0.08649900276308128 -0.57558621876531
vn 0.040447286249789806 0.9991815652402086 -0.0004655310454129312
vn 0.002980133115986619 0.9659266642333247 0.25879875990756407
vn 0.009973181736586487 0.4999998605255585 0.8659680566397764
usemtl material_0_0
f 1//1 2//1 3//1
f 2//2 1//2 4//2
f 5//3 3//3 2//3
f 1//4 3//4 6//4
f 6//5 4//5 1//5
f 2//6 4//6 5//6
f 3//3 5//3 7//3
f 8//7 6//7 3//7
f 9//5 4//5 6//5
f 5//8 4//8 10//8
f 7//9 5//9 10//9
f 3//10 7//10 11//10
f 8//11 9//11 6//11
f 3//12 11//12 8//12
f 4//5 9//5 10//5
f 10//13 9//13 7//13
f 9//14 11//14 7//14
f 8//15 11//15 9//15
usemtl material_1_0
f 3//16 2//16 1//16
f 4//17 1//17 2//17
f 2//18 3//18 5//18
f 6//19 3//19 1//19
f 1//20 4//20 6//20
f 5//21 4//21 2//21
f 7//18 5//18 3//18
f 3//22 6//22 8//22
f 6//20 4//20 9//20
f 10//23 4//23 5//23
f 10//24 5//24 7//24
f 11//25 7//25 3//25
f 6//26 9//26 8//26
f 8//27 11//27 3//27
f 10//20 9//20 4//20
f 7//28 9//28 10//28
f 7//29 11//29 9//29
f 9//30 11//30 8//30
