# SSTK version 0.8.0
# 6
mtllib original-6.mtl
o mesh34/mesh34-geometry#mesh34-geometry
v 0.238460 0.638370 0.405144
v 0.239321 0.606335 0.479878
v 0.238496 0.368816 0.408272
v 0.239321 0.638370 0.479878
v 0.223899 0.606335 0.480055
v 0.223084 0.371434 0.409239
v 0.223048 0.638370 0.406125
v 0.223899 0.638370 0.480055
vn 0.9999336761048998 0 -0.01151709127086088
vn -0.9999336761048998 0 0.01151709127086088
vn 0.011024125356566022 -0.28866187733980003 0.9573676353579041
vn -0.011024125356566022 0.28866187733980003 -0.9573676353579041
vn -0.06455104590128408 -0.01158600011935363 -0.9978471461472866
vn 0.06455104590128408 0.01158600011935363 0.9978471461472866
vn 0 1 0
vn 0 -1 0
vn 0.011517091270855343 -9.999998878651803e-7 0.9999336761043999
vn -0.011517091270855343 9.999998878651803e-7 -0.9999336761043999
vn -0.06350793731823494 -0.011647004108010168 -0.9979133675790153
vn 0.06350793731823494 0.011647004108010168 0.9979133675790153
vn -0.999933687371511 0 0.01151611304275539
vn 0.999933687371511 0 -0.01151611304275539
usemtl material_0_0
f 1//1 2//1 3//1
f 2//1 1//1 4//1
f 3//2 2//2 1//2
f 4//2 1//2 2//2
f 5//3 3//3 2//3
f 2//4 3//4 5//4
f 3//5 6//5 1//5
f 1//6 6//6 3//6
f 7//7 4//7 1//7
f 1//8 4//8 7//8
f 8//9 2//9 4//9
f 4//10 2//10 8//10
f 3//3 5//3 6//3
f 6//4 5//4 3//4
f 2//9 8//9 5//9
f 5//10 8//10 2//10
f 1//11 6//11 7//11
f 7//12 6//12 1//12
f 4//7 7//7 8//7
f 8//8 7//8 4//8
f 5//13 7//13 6//13
f 6//14 7//14 5//14
f 7//13 5//13 8//13
f 8//14 5//14 7//14
