# SSTK version 0.8.0
# 43
mtllib original-43.mtl
o mesh21/mesh21-geometry/material_3#mesh21-geometry
v -0.006260 0.724884 -0.345756
v 0.012745 0.723416 -0.345142
v -0.006469 0.722575 -0.344791
v -0.005410 0.727063 -0.346668
v 0.012300 0.725695 -0.346095
v -0.006260 0.724884 -0.345756
v -0.003977 0.728966 -0.347464
v 0.011231 0.727791 -0.346972
v -0.005410 0.727063 -0.346668
v -0.002060 0.730461 -0.348089
v 0.009610 0.729560 -0.347712
v -0.003977 0.728966 -0.347464
v 0.000212 0.731448 -0.348502
v 0.007548 0.730881 -0.348265
v -0.002060 0.730461 -0.348089
v 0.012745 0.723416 -0.345142
v 0.012536 0.721107 -0.344176
v -0.006469 0.722575 -0.344791
v 0.012300 0.725695 -0.346095
v 0.012745 0.723416 -0.345142
v -0.006260 0.724884 -0.345756
v 0.011231 0.727791 -0.346972
v 0.012300 0.725695 -0.346095
v -0.005410 0.727063 -0.346668
v 0.009610 0.729560 -0.347712
v 0.011231 0.727791 -0.346972
v -0.003977 0.728966 -0.347464
v 0.007548 0.730881 -0.348265
v 0.009610 0.729560 -0.347712
v -0.002060 0.730461 -0.348089
v 0.005185 0.731665 -0.348593
v 0.007548 0.730881 -0.348265
v 0.000212 0.731448 -0.348502
v 0.002683 0.731859 -0.348674
v 0.005185 0.731665 -0.348593
v 0.000212 0.731448 -0.348502
v 0.012536 0.721107 -0.344176
v 0.011686 0.718928 -0.343265
v -0.006024 0.720296 -0.343837
v -0.006469 0.722575 -0.344791
v 0.012536 0.721107 -0.344176
v -0.006024 0.720296 -0.343837
v 0.011686 0.718928 -0.343265
v 0.010253 0.717025 -0.342469
v -0.004954 0.718200 -0.342960
v -0.006024 0.720296 -0.343837
v 0.011686 0.718928 -0.343265
v -0.004954 0.718200 -0.342960
v -0.004954 0.718200 -0.342960
v 0.010253 0.717025 -0.342469
v -0.003333 0.716431 -0.342220
v 0.010253 0.717025 -0.342469
v 0.008336 0.715530 -0.341843
v -0.003333 0.716431 -0.342220
v -0.003333 0.716431 -0.342220
v 0.008336 0.715530 -0.341843
v -0.001271 0.715110 -0.341668
v -0.001271 0.715110 -0.341668
v 0.006064 0.714543 -0.341430
v 0.001091 0.714326 -0.341340
v 0.008336 0.715530 -0.341843
v 0.006064 0.714543 -0.341430
v -0.001271 0.715110 -0.341668
v 0.003593 0.714132 -0.341259
v 0.001091 0.714326 -0.341340
v 0.006064 0.714543 -0.341430
v -0.006469 0.722575 -0.344791
v 0.012745 0.723416 -0.345142
v -0.006260 0.724884 -0.345756
v -0.006260 0.724884 -0.345756
v 0.012300 0.725695 -0.346095
v -0.005410 0.727063 -0.346668
v -0.005410 0.727063 -0.346668
v 0.011231 0.727791 -0.346972
v -0.003977 0.728966 -0.347464
v -0.003977 0.728966 -0.347464
v 0.009610 0.729560 -0.347712
v -0.002060 0.730461 -0.348089
v -0.002060 0.730461 -0.348089
v 0.007548 0.730881 -0.348265
v 0.000212 0.731448 -0.348502
v -0.006469 0.722575 -0.344791
v 0.012536 0.721107 -0.344176
v 0.012745 0.723416 -0.345142
v -0.006260 0.724884 -0.345756
v 0.012745 0.723416 -0.345142
v 0.012300 0.725695 -0.346095
v -0.005410 0.727063 -0.346668
v 0.012300 0.725695 -0.346095
v 0.011231 0.727791 -0.346972
v -0.003977 0.728966 -0.347464
v 0.011231 0.727791 -0.346972
v 0.009610 0.729560 -0.347712
v -0.002060 0.730461 -0.348089
v 0.009610 0.729560 -0.347712
v 0.007548 0.730881 -0.348265
v 0.000212 0.731448 -0.348502
v 0.007548 0.730881 -0.348265
v 0.005185 0.731665 -0.348593
v 0.000212 0.731448 -0.348502
v 0.005185 0.731665 -0.348593
v 0.002683 0.731859 -0.348674
v -0.006024 0.720296 -0.343837
v 0.011686 0.718928 -0.343265
v 0.012536 0.721107 -0.344176
v -0.006024 0.720296 -0.343837
v 0.012536 0.721107 -0.344176
v -0.006469 0.722575 -0.344791
v -0.004954 0.718200 -0.342960
v 0.010253 0.717025 -0.342469
v 0.011686 0.718928 -0.343265
v -0.004954 0.718200 -0.342960
v 0.011686 0.718928 -0.343265
v -0.006024 0.720296 -0.343837
v -0.003333 0.716431 -0.342220
v 0.010253 0.717025 -0.342469
v -0.004954 0.718200 -0.342960
v -0.003333 0.716431 -0.342220
v 0.008336 0.715530 -0.341843
v 0.010253 0.717025 -0.342469
v -0.001271 0.715110 -0.341668
v 0.008336 0.715530 -0.341843
v -0.003333 0.716431 -0.342220
v 0.001091 0.714326 -0.341340
v 0.006064 0.714543 -0.341430
v -0.001271 0.715110 -0.341668
v -0.001271 0.715110 -0.341668
v 0.006064 0.714543 -0.341430
v 0.008336 0.715530 -0.341843
v 0.006064 0.714543 -0.341430
v 0.001091 0.714326 -0.341340
v 0.003593 0.714132 -0.341259
vt 0 0
vt 1.0177069902420044 1.8679239749908447
vt 1.0408480167388916 1.8690210580825806
vt 1.0179599523544312 1.8709379434585571
vt 1.0403120517730713 1.8719969987869263
vt 1.018983006477356 1.873782992362976
vt 1.039023995399475 1.8747320175170898
vt 1.0207090377807617 1.8762660026550293
vt 1.037071943283081 1.8770420551300049
vt 1.0230180025100708 1.8782190084457397
vt 1.0345879793167114 1.8787670135498047
vt 1.0257539749145508 1.8795069456100464
vt 1.0405960083007812 1.8660069704055786
vt 1.031743049621582 1.87978994846344
vt 1.02872896194458 1.8800430297851562
vt 1.0182440280914307 1.864948034286499
vt 1.03957200050354 1.8631620407104492
vt 1.0195319652557373 1.8622130155563354
vt 1.0378470420837402 1.860679030418396
vt 1.0214840173721313 1.8599029779434204
vt 1.0355379581451416 1.8587260246276855
vt 1.0239670276641846 1.8581780195236206
vt 1.02681303024292 1.8571540117263794
vt 1.0328019857406616 1.8574379682540894
vt 1.029826045036316 1.856902003288269
vn 0 -0.3859060536417149 -0.9225380847220769
vn 0 0.3859060536417149 0.9225380847220769
usemtl material_0_0
f 1/1/1 2/1/1 3/1/1
f 4/1/1 5/1/1 6/1/1
f 7/1/1 8/1/1 9/1/1
f 10/1/1 11/1/1 12/1/1
f 13/1/1 14/1/1 15/1/1
f 16/1/1 17/1/1 18/1/1
f 19/1/1 20/1/1 21/1/1
f 22/1/1 23/1/1 24/1/1
f 25/1/1 26/1/1 27/1/1
f 28/1/1 29/1/1 30/1/1
f 31/1/1 32/1/1 33/1/1
f 34/1/1 35/1/1 36/1/1
f 37/1/1 38/1/1 39/1/1
f 40/1/1 41/1/1 42/1/1
f 43/1/1 44/1/1 45/1/1
f 46/1/1 47/1/1 48/1/1
f 49/1/1 50/1/1 51/1/1
f 52/1/1 53/1/1 54/1/1
f 55/1/1 56/1/1 57/1/1
f 58/1/1 59/1/1 60/1/1
f 61/1/1 62/1/1 63/1/1
f 64/1/1 65/1/1 66/1/1
usemtl material_1_0
f 67/2/2 68/3/2 69/4/2
f 70/4/2 71/5/2 72/6/2
f 73/6/2 74/7/2 75/8/2
f 76/8/2 77/9/2 78/10/2
f 79/10/2 80/11/2 81/12/2
f 82/2/2 83/13/2 84/3/2
f 85/4/2 86/3/2 87/5/2
f 88/6/2 89/5/2 90/7/2
f 91/8/2 92/7/2 93/9/2
f 94/10/2 95/9/2 96/11/2
f 97/12/2 98/11/2 99/14/2
f 100/12/2 101/14/2 102/15/2
f 103/16/2 104/17/2 105/13/2
f 106/16/2 107/13/2 108/2/2
f 109/18/2 110/19/2 111/17/2
f 112/18/2 113/17/2 114/16/2
f 115/20/2 116/19/2 117/18/2
f 118/20/2 119/21/2 120/19/2
f 121/22/2 122/21/2 123/20/2
f 124/23/2 125/24/2 126/22/2
f 127/22/2 128/24/2 129/21/2
f 130/24/2 131/23/2 132/25/2
