# SSTK version 0.8.0
# 50
mtllib original-50.mtl
o mesh26/mesh26-geometry/material_3/component_1#mesh26-geometry
v -0.402821 -0.669860 0.375190
v -0.394466 -0.704457 0.372952
v -0.403705 -0.669860 0.368475
v -0.400228 -0.669860 0.381449
v -0.392738 -0.704457 0.377124
v -0.402821 -0.669860 0.375190
v -0.395056 -0.704457 0.368475
v -0.403705 -0.669860 0.368475
v -0.394466 -0.704457 0.372952
v -0.394466 -0.704457 0.372952
v -0.402821 -0.669860 0.375190
v -0.392738 -0.704457 0.377124
v -0.403705 -0.669860 0.368475
v -0.395056 -0.704457 0.368475
v -0.402821 -0.669860 0.361759
v -0.384473 -0.669860 0.393538
v -0.377757 -0.669860 0.394423
v -0.382234 -0.704457 0.385184
v -0.377757 -0.669860 0.394423
v -0.371041 -0.669860 0.393538
v -0.377757 -0.704457 0.385773
v -0.396105 -0.669860 0.386823
v -0.389989 -0.704457 0.380707
v -0.400228 -0.669860 0.381449
v -0.392738 -0.704457 0.377124
v -0.400228 -0.669860 0.381449
v -0.389989 -0.704457 0.380707
v -0.395056 -0.704457 0.368475
v -0.394466 -0.704457 0.372952
v -0.394466 -0.704457 0.363997
v -0.392738 -0.704457 0.377124
v -0.392738 -0.704457 0.359825
v -0.394466 -0.704457 0.372952
v -0.394466 -0.704457 0.363997
v -0.402821 -0.669860 0.361759
v -0.395056 -0.704457 0.368475
v -0.390731 -0.669860 0.390946
v -0.384473 -0.669860 0.393538
v -0.386406 -0.704457 0.383456
v -0.377757 -0.704457 0.385773
v -0.382234 -0.704457 0.385184
v -0.377757 -0.669860 0.394423
v -0.382234 -0.704457 0.385184
v -0.386406 -0.704457 0.383456
v -0.384473 -0.669860 0.393538
v -0.373280 -0.704457 0.385184
v -0.377757 -0.704457 0.385773
v -0.371041 -0.669860 0.393538
v -0.371041 -0.669860 0.393538
v -0.364783 -0.669860 0.390946
v -0.373280 -0.704457 0.385184
v -0.396105 -0.669860 0.386823
v -0.390731 -0.669860 0.390946
v -0.389989 -0.704457 0.380707
v -0.389989 -0.704457 0.380707
v -0.389989 -0.704457 0.356243
v -0.392738 -0.704457 0.377124
v -0.392738 -0.704457 0.359825
v -0.394466 -0.704457 0.363997
v -0.394466 -0.704457 0.372952
v -0.389989 -0.704457 0.356243
v -0.392738 -0.704457 0.359825
v -0.392738 -0.704457 0.377124
v -0.400228 -0.669860 0.355501
v -0.402821 -0.669860 0.361759
v -0.392738 -0.704457 0.359825
v -0.394466 -0.704457 0.363997
v -0.392738 -0.704457 0.359825
v -0.402821 -0.669860 0.361759
v -0.386406 -0.704457 0.383456
v -0.389989 -0.704457 0.380707
v -0.390731 -0.669860 0.390946
v -0.377757 -0.704457 0.385773
v -0.377757 -0.704457 0.351176
v -0.382234 -0.704457 0.385184
v -0.382234 -0.704457 0.385184
v -0.382234 -0.704457 0.351765
v -0.386406 -0.704457 0.383456
v -0.373280 -0.704457 0.385184
v -0.373280 -0.704457 0.351765
v -0.377757 -0.704457 0.385773
v -0.369107 -0.704457 0.383456
v -0.373280 -0.704457 0.385184
v -0.364783 -0.669860 0.390946
v -0.364783 -0.669860 0.390946
v -0.359409 -0.669860 0.386823
v -0.369107 -0.704457 0.383456
v -0.386406 -0.704457 0.353494
v -0.389989 -0.704457 0.356243
v -0.389989 -0.704457 0.380707
v -0.392738 -0.704457 0.359825
v -0.389989 -0.704457 0.356243
v -0.400228 -0.669860 0.355501
v -0.386406 -0.704457 0.383456
v -0.386406 -0.704457 0.353494
v -0.389989 -0.704457 0.380707
v -0.377757 -0.704457 0.351176
v -0.382234 -0.704457 0.351765
v -0.382234 -0.704457 0.385184
v -0.373280 -0.704457 0.351765
v -0.377757 -0.704457 0.351176
v -0.377757 -0.704457 0.385773
v -0.382234 -0.704457 0.351765
v -0.386406 -0.704457 0.353494
v -0.386406 -0.704457 0.383456
v -0.369107 -0.704457 0.353494
v -0.373280 -0.704457 0.351765
v -0.373280 -0.704457 0.385184
v -0.369107 -0.704457 0.383456
v -0.369107 -0.704457 0.353494
v -0.373280 -0.704457 0.385184
v -0.365525 -0.704457 0.380707
v -0.369107 -0.704457 0.383456
v -0.359409 -0.669860 0.386823
v -0.359409 -0.669860 0.386823
v -0.355285 -0.669860 0.381449
v -0.365525 -0.704457 0.380707
v -0.389989 -0.704457 0.356243
v -0.386406 -0.704457 0.353494
v -0.396105 -0.669860 0.350127
v -0.396105 -0.669860 0.350127
v -0.400228 -0.669860 0.355501
v -0.389989 -0.704457 0.356243
v -0.382234 -0.704457 0.351765
v -0.377757 -0.704457 0.351176
v -0.384473 -0.669860 0.343411
v -0.377757 -0.704457 0.351176
v -0.373280 -0.704457 0.351765
v -0.377757 -0.669860 0.342527
v -0.386406 -0.704457 0.353494
v -0.382234 -0.704457 0.351765
v -0.390731 -0.669860 0.346003
v -0.373280 -0.704457 0.351765
v -0.369107 -0.704457 0.353494
v -0.371041 -0.669860 0.343411
v -0.365525 -0.704457 0.356243
v -0.369107 -0.704457 0.353494
v -0.369107 -0.704457 0.383456
v -0.365525 -0.704457 0.380707
v -0.365525 -0.704457 0.356243
v -0.369107 -0.704457 0.383456
v -0.362776 -0.704457 0.377124
v -0.365525 -0.704457 0.380707
v -0.355285 -0.669860 0.381449
v -0.355285 -0.669860 0.381449
v -0.352693 -0.669860 0.375190
v -0.362776 -0.704457 0.377124
v -0.390731 -0.669860 0.346003
v -0.396105 -0.669860 0.350127
v -0.386406 -0.704457 0.353494
v -0.377757 -0.669860 0.342527
v -0.384473 -0.669860 0.343411
v -0.377757 -0.704457 0.351176
v -0.384473 -0.669860 0.343411
v -0.390731 -0.669860 0.346003
v -0.382234 -0.704457 0.351765
v -0.371041 -0.669860 0.343411
v -0.377757 -0.669860 0.342527
v -0.373280 -0.704457 0.351765
v -0.364783 -0.669860 0.346003
v -0.371041 -0.669860 0.343411
v -0.369107 -0.704457 0.353494
v -0.369107 -0.704457 0.353494
v -0.365525 -0.704457 0.356243
v -0.364783 -0.669860 0.346003
v -0.362776 -0.704457 0.359825
v -0.365525 -0.704457 0.356243
v -0.365525 -0.704457 0.380707
v -0.362776 -0.704457 0.377124
v -0.362776 -0.704457 0.359825
v -0.365525 -0.704457 0.380707
v -0.361048 -0.704457 0.372952
v -0.362776 -0.704457 0.377124
v -0.352693 -0.669860 0.375190
v -0.352693 -0.669860 0.375190
v -0.351809 -0.669860 0.368475
v -0.361048 -0.704457 0.372952
v -0.359409 -0.669860 0.350127
v -0.364783 -0.669860 0.346003
v -0.365525 -0.704457 0.356243
v -0.362776 -0.704457 0.359825
v -0.355285 -0.669860 0.355501
v -0.365525 -0.704457 0.356243
v -0.361048 -0.704457 0.363997
v -0.362776 -0.704457 0.359825
v -0.362776 -0.704457 0.377124
v -0.361048 -0.704457 0.372952
v -0.361048 -0.704457 0.363997
v -0.362776 -0.704457 0.377124
v -0.360458 -0.704457 0.368475
v -0.361048 -0.704457 0.372952
v -0.351809 -0.669860 0.368475
v -0.359409 -0.669860 0.350127
v -0.365525 -0.704457 0.356243
v -0.355285 -0.669860 0.355501
v -0.355285 -0.669860 0.355501
v -0.362776 -0.704457 0.359825
v -0.352693 -0.669860 0.361759
v -0.361048 -0.704457 0.363997
v -0.352693 -0.669860 0.361759
v -0.362776 -0.704457 0.359825
v -0.360458 -0.704457 0.368475
v -0.361048 -0.704457 0.363997
v -0.361048 -0.704457 0.372952
v -0.360458 -0.704457 0.368475
v -0.351809 -0.669860 0.368475
v -0.361048 -0.704457 0.363997
v -0.352693 -0.669860 0.361759
v -0.361048 -0.704457 0.363997
v -0.351809 -0.669860 0.368475
v -0.403705 -0.669860 0.368475
v -0.394466 -0.704457 0.372952
v -0.402821 -0.669860 0.375190
v -0.402821 -0.669860 0.375190
v -0.392738 -0.704457 0.377124
v -0.400228 -0.669860 0.381449
v -0.394466 -0.704457 0.372952
v -0.403705 -0.669860 0.368475
v -0.395056 -0.704457 0.368475
v -0.392738 -0.704457 0.377124
v -0.402821 -0.669860 0.375190
v -0.394466 -0.704457 0.372952
v -0.402821 -0.669860 0.361759
v -0.395056 -0.704457 0.368475
v -0.403705 -0.669860 0.368475
v -0.382234 -0.704457 0.385184
v -0.377757 -0.669860 0.394423
v -0.384473 -0.669860 0.393538
v -0.377757 -0.704457 0.385773
v -0.371041 -0.669860 0.393538
v -0.377757 -0.669860 0.394423
v -0.400228 -0.669860 0.381449
v -0.389989 -0.704457 0.380707
v -0.396105 -0.669860 0.386823
v -0.389989 -0.704457 0.380707
v -0.400228 -0.669860 0.381449
v -0.392738 -0.704457 0.377124
v -0.394466 -0.704457 0.363997
v -0.394466 -0.704457 0.372952
v -0.395056 -0.704457 0.368475
v -0.394466 -0.704457 0.372952
v -0.392738 -0.704457 0.359825
v -0.392738 -0.704457 0.377124
v -0.395056 -0.704457 0.368475
v -0.402821 -0.669860 0.361759
v -0.394466 -0.704457 0.363997
v -0.386406 -0.704457 0.383456
v -0.384473 -0.669860 0.393538
v -0.390731 -0.669860 0.390946
v -0.377757 -0.669860 0.394423
v -0.382234 -0.704457 0.385184
v -0.377757 -0.704457 0.385773
v -0.384473 -0.669860 0.393538
v -0.386406 -0.704457 0.383456
v -0.382234 -0.704457 0.385184
v -0.371041 -0.669860 0.393538
v -0.377757 -0.704457 0.385773
v -0.373280 -0.704457 0.385184
v -0.373280 -0.704457 0.385184
v -0.364783 -0.669860 0.390946
v -0.371041 -0.669860 0.393538
v -0.389989 -0.704457 0.380707
v -0.390731 -0.669860 0.390946
v -0.396105 -0.669860 0.386823
v -0.392738 -0.704457 0.377124
v -0.389989 -0.704457 0.356243
v -0.389989 -0.704457 0.380707
v -0.394466 -0.704457 0.372952
v -0.394466 -0.704457 0.363997
v -0.392738 -0.704457 0.359825
v -0.392738 -0.704457 0.377124
v -0.392738 -0.704457 0.359825
v -0.389989 -0.704457 0.356243
v -0.392738 -0.704457 0.359825
v -0.402821 -0.669860 0.361759
v -0.400228 -0.669860 0.355501
v -0.402821 -0.669860 0.361759
v -0.392738 -0.704457 0.359825
v -0.394466 -0.704457 0.363997
v -0.390731 -0.669860 0.390946
v -0.389989 -0.704457 0.380707
v -0.386406 -0.704457 0.383456
v -0.382234 -0.704457 0.385184
v -0.377757 -0.704457 0.351176
v -0.377757 -0.704457 0.385773
v -0.386406 -0.704457 0.383456
v -0.382234 -0.704457 0.351765
v -0.382234 -0.704457 0.385184
v -0.377757 -0.704457 0.385773
v -0.373280 -0.704457 0.351765
v -0.373280 -0.704457 0.385184
v -0.364783 -0.669860 0.390946
v -0.373280 -0.704457 0.385184
v -0.369107 -0.704457 0.383456
v -0.369107 -0.704457 0.383456
v -0.359409 -0.669860 0.386823
v -0.364783 -0.669860 0.390946
v -0.389989 -0.704457 0.380707
v -0.389989 -0.704457 0.356243
v -0.386406 -0.704457 0.353494
v -0.400228 -0.669860 0.355501
v -0.389989 -0.704457 0.356243
v -0.392738 -0.704457 0.359825
v -0.389989 -0.704457 0.380707
v -0.386406 -0.704457 0.353494
v -0.386406 -0.704457 0.383456
v -0.382234 -0.704457 0.385184
v -0.382234 -0.704457 0.351765
v -0.377757 -0.704457 0.351176
v -0.377757 -0.704457 0.385773
v -0.377757 -0.704457 0.351176
v -0.373280 -0.704457 0.351765
v -0.386406 -0.704457 0.383456
v -0.386406 -0.704457 0.353494
v -0.382234 -0.704457 0.351765
v -0.373280 -0.704457 0.385184
v -0.373280 -0.704457 0.351765
v -0.369107 -0.704457 0.353494
v -0.373280 -0.704457 0.385184
v -0.369107 -0.704457 0.353494
v -0.369107 -0.704457 0.383456
v -0.359409 -0.669860 0.386823
v -0.369107 -0.704457 0.383456
v -0.365525 -0.704457 0.380707
v -0.365525 -0.704457 0.380707
v -0.355285 -0.669860 0.381449
v -0.359409 -0.669860 0.386823
v -0.396105 -0.669860 0.350127
v -0.386406 -0.704457 0.353494
v -0.389989 -0.704457 0.356243
v -0.389989 -0.704457 0.356243
v -0.400228 -0.669860 0.355501
v -0.396105 -0.669860 0.350127
v -0.384473 -0.669860 0.343411
v -0.377757 -0.704457 0.351176
v -0.382234 -0.704457 0.351765
v -0.377757 -0.669860 0.342527
v -0.373280 -0.704457 0.351765
v -0.377757 -0.704457 0.351176
v -0.390731 -0.669860 0.346003
v -0.382234 -0.704457 0.351765
v -0.386406 -0.704457 0.353494
v -0.371041 -0.669860 0.343411
v -0.369107 -0.704457 0.353494
v -0.373280 -0.704457 0.351765
v -0.369107 -0.704457 0.383456
v -0.369107 -0.704457 0.353494
v -0.365525 -0.704457 0.356243
v -0.369107 -0.704457 0.383456
v -0.365525 -0.704457 0.356243
v -0.365525 -0.704457 0.380707
v -0.355285 -0.669860 0.381449
v -0.365525 -0.704457 0.380707
v -0.362776 -0.704457 0.377124
v -0.362776 -0.704457 0.377124
v -0.352693 -0.669860 0.375190
v -0.355285 -0.669860 0.381449
v -0.386406 -0.704457 0.353494
v -0.396105 -0.669860 0.350127
v -0.390731 -0.669860 0.346003
v -0.377757 -0.704457 0.351176
v -0.384473 -0.669860 0.343411
v -0.377757 -0.669860 0.342527
v -0.382234 -0.704457 0.351765
v -0.390731 -0.669860 0.346003
v -0.384473 -0.669860 0.343411
v -0.373280 -0.704457 0.351765
v -0.377757 -0.669860 0.342527
v -0.371041 -0.669860 0.343411
v -0.369107 -0.704457 0.353494
v -0.371041 -0.669860 0.343411
v -0.364783 -0.669860 0.346003
v -0.364783 -0.669860 0.346003
v -0.365525 -0.704457 0.356243
v -0.369107 -0.704457 0.353494
v -0.365525 -0.704457 0.380707
v -0.365525 -0.704457 0.356243
v -0.362776 -0.704457 0.359825
v -0.365525 -0.704457 0.380707
v -0.362776 -0.704457 0.359825
v -0.362776 -0.704457 0.377124
v -0.352693 -0.669860 0.375190
v -0.362776 -0.704457 0.377124
v -0.361048 -0.704457 0.372952
v -0.361048 -0.704457 0.372952
v -0.351809 -0.669860 0.368475
v -0.352693 -0.669860 0.375190
v -0.365525 -0.704457 0.356243
v -0.364783 -0.669860 0.346003
v -0.359409 -0.669860 0.350127
v -0.365525 -0.704457 0.356243
v -0.355285 -0.669860 0.355501
v -0.362776 -0.704457 0.359825
v -0.362776 -0.704457 0.377124
v -0.362776 -0.704457 0.359825
v -0.361048 -0.704457 0.363997
v -0.362776 -0.704457 0.377124
v -0.361048 -0.704457 0.363997
v -0.361048 -0.704457 0.372952
v -0.351809 -0.669860 0.368475
v -0.361048 -0.704457 0.372952
v -0.360458 -0.704457 0.368475
v -0.355285 -0.669860 0.355501
v -0.365525 -0.704457 0.356243
v -0.359409 -0.669860 0.350127
v -0.352693 -0.669860 0.361759
v -0.362776 -0.704457 0.359825
v -0.355285 -0.669860 0.355501
v -0.362776 -0.704457 0.359825
v -0.352693 -0.669860 0.361759
v -0.361048 -0.704457 0.363997
v -0.361048 -0.704457 0.372952
v -0.361048 -0.704457 0.363997
v -0.360458 -0.704457 0.368475
v -0.361048 -0.704457 0.363997
v -0.351809 -0.669860 0.368475
v -0.360458 -0.704457 0.368475
v -0.351809 -0.669860 0.368475
v -0.361048 -0.704457 0.363997
v -0.352693 -0.669860 0.361759
vt 0 0
vn 0.9370857305310691 0.24253592730097664 -0.25109093492857865
vn 0.9701424440468501 0.24253584943015005 0
vn 0.8401680608137553 0.24253601122371968 -0.48507103897072823
vn 0.9370857305310691 0.24253592730097653 0.25109093492857876
vn 0.2510909349285787 0.24253592730097678 -0.9370857305310691
vn 0 0.24253584943015022 -0.9701424440468499
vn -0.2510909349285787 0.24253592730097678 -0.9370857305310691
vn 0.685994260947847 0.24253607544700315 -0.685994260947847
vn 0 1 0
vn 0.4850710389707283 0.24253601122371976 -0.8401680608137553
vn -0.4850710389707283 0.24253601122371976 -0.8401680608137553
vn 0.8401680608137553 0.24253601122371946 0.48507103897072834
vn -0.685994260947847 0.24253607544700315 -0.685994260947847
vn 0.6859942609478471 0.24253607544700292 0.6859942609478471
vn -0.8401680608137553 0.24253601122371968 -0.48507103897072823
vn 0.4850710389707283 0.24253601122371937 0.8401680608137553
vn 0.2510909349285787 0.2425359273009764 0.9370857305310691
vn 0 0.24253584943014983 0.9701424440468501
vn -0.2510909349285787 0.2425359273009764 0.9370857305310691
vn -0.4850710389707283 0.24253601122371937 0.8401680608137553
vn -0.9370857305310691 0.24253592730097664 -0.25109093492857865
vn -0.6859942609478471 0.24253607544700292 0.6859942609478471
vn -0.9701424440468501 0.24253584943015005 0
vn -0.8401680608137553 0.24253601122371946 0.48507103897072834
vn -0.9370857305310691 0.24253592730097653 0.25109093492857876
vn -0.9701424440468501 -0.24253584943015005 0
vn -0.9370857305310691 -0.24253592730097664 0.25109093492857865
vn -0.8401680608137553 -0.24253601122371968 0.48507103897072823
vn -0.9370857305310691 -0.24253592730097653 -0.25109093492857876
vn -0.2510909349285787 -0.24253592730097678 0.9370857305310691
vn 0 -0.24253584943015022 0.9701424440468499
vn 0.2510909349285787 -0.24253592730097678 0.9370857305310691
vn -0.685994260947847 -0.24253607544700315 0.685994260947847
vn 0 -1 0
vn -0.4850710389707283 -0.24253601122371976 0.8401680608137553
vn 0.4850710389707283 -0.24253601122371976 0.8401680608137553
vn -0.8401680608137553 -0.24253601122371946 -0.48507103897072834
vn 0.685994260947847 -0.24253607544700315 0.685994260947847
vn -0.6859942609478471 -0.24253607544700292 -0.6859942609478471
vn 0.8401680608137553 -0.24253601122371968 0.48507103897072823
vn -0.4850710389707283 -0.24253601122371937 -0.8401680608137553
vn -0.2510909349285787 -0.2425359273009764 -0.9370857305310691
vn 0 -0.24253584943014983 -0.9701424440468501
vn 0.2510909349285787 -0.2425359273009764 -0.9370857305310691
vn 0.4850710389707283 -0.24253601122371937 -0.8401680608137553
vn 0.9370857305310691 -0.24253592730097664 0.25109093492857865
vn 0.6859942609478471 -0.24253607544700292 -0.6859942609478471
vn 0.9701424440468501 -0.24253584943015005 0
vn 0.8401680608137553 -0.24253601122371946 -0.48507103897072834
vn 0.9370857305310691 -0.24253592730097653 -0.25109093492857876
usemtl material_0_0
f 1/1/1 2/1/1 3/1/2
f 4/1/3 5/1/3 6/1/1
f 7/1/2 8/1/2 9/1/1
f 10/1/1 11/1/1 12/1/3
f 13/1/2 14/1/2 15/1/4
f 16/1/5 17/1/6 18/1/5
f 19/1/6 20/1/7 21/1/6
f 22/1/8 23/1/8 24/1/3
f 25/1/3 26/1/3 27/1/8
f 28/1/9 29/1/9 30/1/9
f 31/1/9 32/1/9 33/1/9
f 34/1/4 35/1/4 36/1/2
f 37/1/10 38/1/5 39/1/10
f 40/1/6 41/1/5 42/1/6
f 43/1/5 44/1/10 45/1/5
f 46/1/7 47/1/6 48/1/7
f 49/1/7 50/1/11 51/1/7
f 52/1/8 53/1/10 54/1/8
f 55/1/9 56/1/9 57/1/9
f 58/1/9 59/1/9 60/1/9
f 61/1/9 62/1/9 63/1/9
f 64/1/12 65/1/4 66/1/12
f 67/1/4 68/1/12 69/1/4
f 70/1/10 71/1/8 72/1/10
f 73/1/9 74/1/9 75/1/9
f 76/1/9 77/1/9 78/1/9
f 79/1/9 80/1/9 81/1/9
f 82/1/11 83/1/7 84/1/11
f 85/1/11 86/1/13 87/1/11
f 88/1/9 89/1/9 90/1/9
f 91/1/12 92/1/14 93/1/12
f 94/1/9 95/1/9 96/1/9
f 97/1/9 98/1/9 99/1/9
f 100/1/9 101/1/9 102/1/9
f 103/1/9 104/1/9 105/1/9
f 106/1/9 107/1/9 108/1/9
f 109/1/9 110/1/9 111/1/9
f 112/1/13 113/1/11 114/1/13
f 115/1/13 116/1/15 117/1/13
f 118/1/14 119/1/16 120/1/14
f 121/1/14 122/1/12 123/1/14
f 124/1/17 125/1/18 126/1/17
f 127/1/18 128/1/19 129/1/18
f 130/1/16 131/1/17 132/1/16
f 133/1/19 134/1/20 135/1/19
f 136/1/9 137/1/9 138/1/9
f 139/1/9 140/1/9 141/1/9
f 142/1/15 143/1/13 144/1/15
f 145/1/15 146/1/21 147/1/15
f 148/1/16 149/1/14 150/1/16
f 151/1/18 152/1/17 153/1/18
f 154/1/17 155/1/16 156/1/17
f 157/1/19 158/1/18 159/1/19
f 160/1/20 161/1/19 162/1/20
f 163/1/20 164/1/22 165/1/20
f 166/1/9 167/1/9 168/1/9
f 169/1/9 170/1/9 171/1/9
f 172/1/21 173/1/15 174/1/21
f 175/1/21 176/1/23 177/1/21
f 178/1/22 179/1/20 180/1/22
f 181/1/24 182/1/24 183/1/22
f 184/1/9 185/1/9 186/1/9
f 187/1/9 188/1/9 189/1/9
f 190/1/23 191/1/21 192/1/23
f 193/1/22 194/1/22 195/1/24
f 196/1/24 197/1/24 198/1/25
f 199/1/25 200/1/25 201/1/24
f 202/1/9 203/1/9 204/1/9
f 205/1/23 206/1/23 207/1/25
f 208/1/25 209/1/25 210/1/23
usemtl material_1_0
f 211/1/26 212/1/27 213/1/27
f 214/1/27 215/1/28 216/1/28
f 217/1/27 218/1/26 219/1/26
f 220/1/28 221/1/27 222/1/27
f 223/1/29 224/1/26 225/1/26
f 226/1/30 227/1/31 228/1/30
f 229/1/31 230/1/32 231/1/31
f 232/1/28 233/1/33 234/1/33
f 235/1/33 236/1/28 237/1/28
f 238/1/34 239/1/34 240/1/34
f 241/1/34 242/1/34 243/1/34
f 244/1/26 245/1/29 246/1/29
f 247/1/35 248/1/30 249/1/35
f 250/1/31 251/1/30 252/1/31
f 253/1/30 254/1/35 255/1/30
f 256/1/32 257/1/31 258/1/32
f 259/1/32 260/1/36 261/1/32
f 262/1/33 263/1/35 264/1/33
f 265/1/34 266/1/34 267/1/34
f 268/1/34 269/1/34 270/1/34
f 271/1/34 272/1/34 273/1/34
f 274/1/37 275/1/29 276/1/37
f 277/1/29 278/1/37 279/1/29
f 280/1/35 281/1/33 282/1/35
f 283/1/34 284/1/34 285/1/34
f 286/1/34 287/1/34 288/1/34
f 289/1/34 290/1/34 291/1/34
f 292/1/36 293/1/32 294/1/36
f 295/1/36 296/1/38 297/1/36
f 298/1/34 299/1/34 300/1/34
f 301/1/37 302/1/39 303/1/37
f 304/1/34 305/1/34 306/1/34
f 307/1/34 308/1/34 309/1/34
f 310/1/34 311/1/34 312/1/34
f 313/1/34 314/1/34 315/1/34
f 316/1/34 317/1/34 318/1/34
f 319/1/34 320/1/34 321/1/34
f 322/1/38 323/1/36 324/1/38
f 325/1/38 326/1/40 327/1/38
f 328/1/39 329/1/41 330/1/39
f 331/1/39 332/1/37 333/1/39
f 334/1/42 335/1/43 336/1/42
f 337/1/43 338/1/44 339/1/43
f 340/1/41 341/1/42 342/1/41
f 343/1/44 344/1/45 345/1/44
f 346/1/34 347/1/34 348/1/34
f 349/1/34 350/1/34 351/1/34
f 352/1/40 353/1/38 354/1/40
f 355/1/40 356/1/46 357/1/40
f 358/1/41 359/1/39 360/1/41
f 361/1/43 362/1/42 363/1/43
f 364/1/42 365/1/41 366/1/42
f 367/1/44 368/1/43 369/1/44
f 370/1/45 371/1/44 372/1/45
f 373/1/45 374/1/47 375/1/45
f 376/1/34 377/1/34 378/1/34
f 379/1/34 380/1/34 381/1/34
f 382/1/46 383/1/40 384/1/46
f 385/1/46 386/1/48 387/1/46
f 388/1/47 389/1/45 390/1/47
f 391/1/47 392/1/49 393/1/49
f 394/1/34 395/1/34 396/1/34
f 397/1/34 398/1/34 399/1/34
f 400/1/48 401/1/46 402/1/48
f 403/1/49 404/1/47 405/1/47
f 406/1/50 407/1/49 408/1/49
f 409/1/49 410/1/50 411/1/50
f 412/1/34 413/1/34 414/1/34
f 415/1/50 416/1/48 417/1/48
f 418/1/48 419/1/50 420/1/50
