# SSTK version 0.8.0
# 49
mtllib original-49.mtl
o mesh26/mesh26-geometry/material_3/component_0#mesh26-geometry
v -0.403705 -0.669860 -0.332121
v -0.395056 -0.704457 -0.332121
v -0.402821 -0.669860 -0.338837
v -0.400228 -0.669860 -0.345095
v -0.402821 -0.669860 -0.338837
v -0.392738 -0.704457 -0.340771
v -0.394466 -0.704457 -0.336599
v -0.402821 -0.669860 -0.338837
v -0.395056 -0.704457 -0.332121
v -0.395056 -0.704457 -0.332121
v -0.403705 -0.669860 -0.332121
v -0.394466 -0.704457 -0.327644
v -0.402821 -0.669860 -0.325406
v -0.394466 -0.704457 -0.327644
v -0.403705 -0.669860 -0.332121
v -0.377757 -0.669860 -0.358069
v -0.384473 -0.669860 -0.357185
v -0.377757 -0.704457 -0.349420
v -0.371041 -0.669860 -0.357185
v -0.377757 -0.669860 -0.358069
v -0.373280 -0.704457 -0.348831
v -0.396105 -0.669860 -0.350469
v -0.400228 -0.669860 -0.345095
v -0.389989 -0.704457 -0.344353
v -0.394466 -0.704457 -0.336599
v -0.392738 -0.704457 -0.340771
v -0.402821 -0.669860 -0.338837
v -0.392738 -0.704457 -0.340771
v -0.389989 -0.704457 -0.344353
v -0.400228 -0.669860 -0.345095
v -0.395056 -0.704457 -0.332121
v -0.394466 -0.704457 -0.327644
v -0.394466 -0.704457 -0.336599
v -0.394466 -0.704457 -0.327644
v -0.402821 -0.669860 -0.325406
v -0.392738 -0.704457 -0.323472
v -0.384473 -0.669860 -0.357185
v -0.390731 -0.669860 -0.354593
v -0.382234 -0.704457 -0.348831
v -0.382234 -0.704457 -0.348831
v -0.377757 -0.704457 -0.349420
v -0.384473 -0.669860 -0.357185
v -0.377757 -0.704457 -0.349420
v -0.373280 -0.704457 -0.348831
v -0.377757 -0.669860 -0.358069
v -0.364783 -0.669860 -0.354593
v -0.371041 -0.669860 -0.357185
v -0.369107 -0.704457 -0.347103
v -0.373280 -0.704457 -0.348831
v -0.369107 -0.704457 -0.347103
v -0.371041 -0.669860 -0.357185
v -0.390731 -0.669860 -0.354593
v -0.396105 -0.669860 -0.350469
v -0.386406 -0.704457 -0.347103
v -0.389989 -0.704457 -0.344353
v -0.386406 -0.704457 -0.347103
v -0.396105 -0.669860 -0.350469
v -0.392738 -0.704457 -0.340771
v -0.394466 -0.704457 -0.336599
v -0.394466 -0.704457 -0.327644
v -0.389989 -0.704457 -0.344353
v -0.392738 -0.704457 -0.340771
v -0.392738 -0.704457 -0.323472
v -0.400228 -0.669860 -0.319147
v -0.392738 -0.704457 -0.323472
v -0.402821 -0.669860 -0.325406
v -0.392738 -0.704457 -0.323472
v -0.392738 -0.704457 -0.340771
v -0.394466 -0.704457 -0.327644
v -0.386406 -0.704457 -0.347103
v -0.382234 -0.704457 -0.348831
v -0.390731 -0.669860 -0.354593
v -0.377757 -0.704457 -0.349420
v -0.382234 -0.704457 -0.348831
v -0.382234 -0.704457 -0.315412
v -0.373280 -0.704457 -0.348831
v -0.377757 -0.704457 -0.349420
v -0.377757 -0.704457 -0.314823
v -0.359409 -0.669860 -0.350469
v -0.364783 -0.669860 -0.354593
v -0.365525 -0.704457 -0.344353
v -0.369107 -0.704457 -0.347103
v -0.365525 -0.704457 -0.344353
v -0.364783 -0.669860 -0.354593
v -0.369107 -0.704457 -0.347103
v -0.373280 -0.704457 -0.348831
v -0.373280 -0.704457 -0.315412
v -0.386406 -0.704457 -0.347103
v -0.389989 -0.704457 -0.344353
v -0.389989 -0.704457 -0.319889
v -0.389989 -0.704457 -0.319889
v -0.389989 -0.704457 -0.344353
v -0.392738 -0.704457 -0.323472
v -0.392738 -0.704457 -0.323472
v -0.400228 -0.669860 -0.319147
v -0.389989 -0.704457 -0.319889
v -0.382234 -0.704457 -0.348831
v -0.386406 -0.704457 -0.347103
v -0.386406 -0.704457 -0.317140
v -0.382234 -0.704457 -0.315412
v -0.382234 -0.704457 -0.348831
v -0.386406 -0.704457 -0.317140
v -0.377757 -0.704457 -0.314823
v -0.377757 -0.704457 -0.349420
v -0.382234 -0.704457 -0.315412
v -0.373280 -0.704457 -0.315412
v -0.373280 -0.704457 -0.348831
v -0.377757 -0.704457 -0.314823
v -0.359409 -0.669860 -0.350469
v -0.365525 -0.704457 -0.344353
v -0.355285 -0.669860 -0.345095
v -0.365525 -0.704457 -0.344353
v -0.369107 -0.704457 -0.347103
v -0.369107 -0.704457 -0.317140
v -0.369107 -0.704457 -0.317140
v -0.369107 -0.704457 -0.347103
v -0.373280 -0.704457 -0.315412
v -0.386406 -0.704457 -0.317140
v -0.386406 -0.704457 -0.347103
v -0.389989 -0.704457 -0.319889
v -0.396105 -0.669860 -0.313773
v -0.389989 -0.704457 -0.319889
v -0.400228 -0.669860 -0.319147
v -0.382234 -0.704457 -0.315412
v -0.386406 -0.704457 -0.317140
v -0.384473 -0.669860 -0.307058
v -0.377757 -0.704457 -0.314823
v -0.382234 -0.704457 -0.315412
v -0.377757 -0.669860 -0.306173
v -0.373280 -0.704457 -0.315412
v -0.377757 -0.704457 -0.314823
v -0.371041 -0.669860 -0.307058
v -0.355285 -0.669860 -0.345095
v -0.362776 -0.704457 -0.340771
v -0.352693 -0.669860 -0.338837
v -0.362776 -0.704457 -0.340771
v -0.355285 -0.669860 -0.345095
v -0.365525 -0.704457 -0.344353
v -0.365525 -0.704457 -0.319889
v -0.365525 -0.704457 -0.344353
v -0.369107 -0.704457 -0.317140
v -0.369107 -0.704457 -0.317140
v -0.373280 -0.704457 -0.315412
v -0.364783 -0.669860 -0.309650
v -0.386406 -0.704457 -0.317140
v -0.389989 -0.704457 -0.319889
v -0.390731 -0.669860 -0.309650
v -0.396105 -0.669860 -0.313773
v -0.390731 -0.669860 -0.309650
v -0.389989 -0.704457 -0.319889
v -0.390731 -0.669860 -0.309650
v -0.384473 -0.669860 -0.307058
v -0.386406 -0.704457 -0.317140
v -0.384473 -0.669860 -0.307058
v -0.377757 -0.669860 -0.306173
v -0.382234 -0.704457 -0.315412
v -0.377757 -0.669860 -0.306173
v -0.371041 -0.669860 -0.307058
v -0.377757 -0.704457 -0.314823
v -0.371041 -0.669860 -0.307058
v -0.364783 -0.669860 -0.309650
v -0.373280 -0.704457 -0.315412
v -0.352693 -0.669860 -0.338837
v -0.361048 -0.704457 -0.336599
v -0.351809 -0.669860 -0.332121
v -0.361048 -0.704457 -0.336599
v -0.352693 -0.669860 -0.338837
v -0.362776 -0.704457 -0.340771
v -0.362776 -0.704457 -0.340771
v -0.365525 -0.704457 -0.344353
v -0.365525 -0.704457 -0.319889
v -0.365525 -0.704457 -0.319889
v -0.369107 -0.704457 -0.317140
v -0.359409 -0.669860 -0.313773
v -0.364783 -0.669860 -0.309650
v -0.359409 -0.669860 -0.313773
v -0.369107 -0.704457 -0.317140
v -0.360458 -0.704457 -0.332121
v -0.351809 -0.669860 -0.332121
v -0.361048 -0.704457 -0.336599
v -0.361048 -0.704457 -0.336599
v -0.362776 -0.704457 -0.340771
v -0.362776 -0.704457 -0.323472
v -0.362776 -0.704457 -0.323472
v -0.362776 -0.704457 -0.340771
v -0.365525 -0.704457 -0.319889
v -0.359409 -0.669860 -0.313773
v -0.355285 -0.669860 -0.319147
v -0.365525 -0.704457 -0.319889
v -0.360458 -0.704457 -0.332121
v -0.361048 -0.704457 -0.327644
v -0.351809 -0.669860 -0.332121
v -0.360458 -0.704457 -0.332121
v -0.361048 -0.704457 -0.336599
v -0.361048 -0.704457 -0.327644
v -0.361048 -0.704457 -0.327644
v -0.361048 -0.704457 -0.336599
v -0.362776 -0.704457 -0.323472
v -0.362776 -0.704457 -0.323472
v -0.365525 -0.704457 -0.319889
v -0.355285 -0.669860 -0.319147
v -0.352693 -0.669860 -0.325406
v -0.351809 -0.669860 -0.332121
v -0.361048 -0.704457 -0.327644
v -0.361048 -0.704457 -0.327644
v -0.362776 -0.704457 -0.323472
v -0.352693 -0.669860 -0.325406
v -0.355285 -0.669860 -0.319147
v -0.352693 -0.669860 -0.325406
v -0.362776 -0.704457 -0.323472
v -0.402821 -0.669860 -0.338837
v -0.395056 -0.704457 -0.332121
v -0.403705 -0.669860 -0.332121
v -0.392738 -0.704457 -0.340771
v -0.402821 -0.669860 -0.338837
v -0.400228 -0.669860 -0.345095
v -0.395056 -0.704457 -0.332121
v -0.402821 -0.669860 -0.338837
v -0.394466 -0.704457 -0.336599
v -0.394466 -0.704457 -0.327644
v -0.403705 -0.669860 -0.332121
v -0.395056 -0.704457 -0.332121
v -0.403705 -0.669860 -0.332121
v -0.394466 -0.704457 -0.327644
v -0.402821 -0.669860 -0.325406
v -0.377757 -0.704457 -0.349420
v -0.384473 -0.669860 -0.357185
v -0.377757 -0.669860 -0.358069
v -0.373280 -0.704457 -0.348831
v -0.377757 -0.669860 -0.358069
v -0.371041 -0.669860 -0.357185
v -0.389989 -0.704457 -0.344353
v -0.400228 -0.669860 -0.345095
v -0.396105 -0.669860 -0.350469
v -0.402821 -0.669860 -0.338837
v -0.392738 -0.704457 -0.340771
v -0.394466 -0.704457 -0.336599
v -0.400228 -0.669860 -0.345095
v -0.389989 -0.704457 -0.344353
v -0.392738 -0.704457 -0.340771
v -0.394466 -0.704457 -0.336599
v -0.394466 -0.704457 -0.327644
v -0.395056 -0.704457 -0.332121
v -0.392738 -0.704457 -0.323472
v -0.402821 -0.669860 -0.325406
v -0.394466 -0.704457 -0.327644
v -0.382234 -0.704457 -0.348831
v -0.390731 -0.669860 -0.354593
v -0.384473 -0.669860 -0.357185
v -0.384473 -0.669860 -0.357185
v -0.377757 -0.704457 -0.349420
v -0.382234 -0.704457 -0.348831
v -0.377757 -0.669860 -0.358069
v -0.373280 -0.704457 -0.348831
v -0.377757 -0.704457 -0.349420
v -0.369107 -0.704457 -0.347103
v -0.371041 -0.669860 -0.357185
v -0.364783 -0.669860 -0.354593
v -0.371041 -0.669860 -0.357185
v -0.369107 -0.704457 -0.347103
v -0.373280 -0.704457 -0.348831
v -0.386406 -0.704457 -0.347103
v -0.396105 -0.669860 -0.350469
v -0.390731 -0.669860 -0.354593
v -0.396105 -0.669860 -0.350469
v -0.386406 -0.704457 -0.347103
v -0.389989 -0.704457 -0.344353
v -0.394466 -0.704457 -0.327644
v -0.394466 -0.704457 -0.336599
v -0.392738 -0.704457 -0.340771
v -0.392738 -0.704457 -0.323472
v -0.392738 -0.704457 -0.340771
v -0.389989 -0.704457 -0.344353
v -0.402821 -0.669860 -0.325406
v -0.392738 -0.704457 -0.323472
v -0.400228 -0.669860 -0.319147
v -0.394466 -0.704457 -0.327644
v -0.392738 -0.704457 -0.340771
v -0.392738 -0.704457 -0.323472
v -0.390731 -0.669860 -0.354593
v -0.382234 -0.704457 -0.348831
v -0.386406 -0.704457 -0.347103
v -0.382234 -0.704457 -0.315412
v -0.382234 -0.704457 -0.348831
v -0.377757 -0.704457 -0.349420
v -0.377757 -0.704457 -0.314823
v -0.377757 -0.704457 -0.349420
v -0.373280 -0.704457 -0.348831
v -0.365525 -0.704457 -0.344353
v -0.364783 -0.669860 -0.354593
v -0.359409 -0.669860 -0.350469
v -0.364783 -0.669860 -0.354593
v -0.365525 -0.704457 -0.344353
v -0.369107 -0.704457 -0.347103
v -0.373280 -0.704457 -0.315412
v -0.373280 -0.704457 -0.348831
v -0.369107 -0.704457 -0.347103
v -0.389989 -0.704457 -0.319889
v -0.389989 -0.704457 -0.344353
v -0.386406 -0.704457 -0.347103
v -0.392738 -0.704457 -0.323472
v -0.389989 -0.704457 -0.344353
v -0.389989 -0.704457 -0.319889
v -0.389989 -0.704457 -0.319889
v -0.400228 -0.669860 -0.319147
v -0.392738 -0.704457 -0.323472
v -0.386406 -0.704457 -0.317140
v -0.386406 -0.704457 -0.347103
v -0.382234 -0.704457 -0.348831
v -0.386406 -0.704457 -0.317140
v -0.382234 -0.704457 -0.348831
v -0.382234 -0.704457 -0.315412
v -0.382234 -0.704457 -0.315412
v -0.377757 -0.704457 -0.349420
v -0.377757 -0.704457 -0.314823
v -0.377757 -0.704457 -0.314823
v -0.373280 -0.704457 -0.348831
v -0.373280 -0.704457 -0.315412
v -0.355285 -0.669860 -0.345095
v -0.365525 -0.704457 -0.344353
v -0.359409 -0.669860 -0.350469
v -0.369107 -0.704457 -0.317140
v -0.369107 -0.704457 -0.347103
v -0.365525 -0.704457 -0.344353
v -0.373280 -0.704457 -0.315412
v -0.369107 -0.704457 -0.347103
v -0.369107 -0.704457 -0.317140
v -0.389989 -0.704457 -0.319889
v -0.386406 -0.704457 -0.347103
v -0.386406 -0.704457 -0.317140
v -0.400228 -0.669860 -0.319147
v -0.389989 -0.704457 -0.319889
v -0.396105 -0.669860 -0.313773
v -0.384473 -0.669860 -0.307058
v -0.386406 -0.704457 -0.317140
v -0.382234 -0.704457 -0.315412
v -0.377757 -0.669860 -0.306173
v -0.382234 -0.704457 -0.315412
v -0.377757 -0.704457 -0.314823
v -0.371041 -0.669860 -0.307058
v -0.377757 -0.704457 -0.314823
v -0.373280 -0.704457 -0.315412
v -0.352693 -0.669860 -0.338837
v -0.362776 -0.704457 -0.340771
v -0.355285 -0.669860 -0.345095
v -0.365525 -0.704457 -0.344353
v -0.355285 -0.669860 -0.345095
v -0.362776 -0.704457 -0.340771
v -0.369107 -0.704457 -0.317140
v -0.365525 -0.704457 -0.344353
v -0.365525 -0.704457 -0.319889
v -0.364783 -0.669860 -0.309650
v -0.373280 -0.704457 -0.315412
v -0.369107 -0.704457 -0.317140
v -0.390731 -0.669860 -0.309650
v -0.389989 -0.704457 -0.319889
v -0.386406 -0.704457 -0.317140
v -0.389989 -0.704457 -0.319889
v -0.390731 -0.669860 -0.309650
v -0.396105 -0.669860 -0.313773
v -0.386406 -0.704457 -0.317140
v -0.384473 -0.669860 -0.307058
v -0.390731 -0.669860 -0.309650
v -0.382234 -0.704457 -0.315412
v -0.377757 -0.669860 -0.306173
v -0.384473 -0.669860 -0.307058
v -0.377757 -0.704457 -0.314823
v -0.371041 -0.669860 -0.307058
v -0.377757 -0.669860 -0.306173
v -0.373280 -0.704457 -0.315412
v -0.364783 -0.669860 -0.309650
v -0.371041 -0.669860 -0.307058
v -0.351809 -0.669860 -0.332121
v -0.361048 -0.704457 -0.336599
v -0.352693 -0.669860 -0.338837
v -0.362776 -0.704457 -0.340771
v -0.352693 -0.669860 -0.338837
v -0.361048 -0.704457 -0.336599
v -0.365525 -0.704457 -0.319889
v -0.365525 -0.704457 -0.344353
v -0.362776 -0.704457 -0.340771
v -0.359409 -0.669860 -0.313773
v -0.369107 -0.704457 -0.317140
v -0.365525 -0.704457 -0.319889
v -0.369107 -0.704457 -0.317140
v -0.359409 -0.669860 -0.313773
v -0.364783 -0.669860 -0.309650
v -0.361048 -0.704457 -0.336599
v -0.351809 -0.669860 -0.332121
v -0.360458 -0.704457 -0.332121
v -0.362776 -0.704457 -0.323472
v -0.362776 -0.704457 -0.340771
v -0.361048 -0.704457 -0.336599
v -0.365525 -0.704457 -0.319889
v -0.362776 -0.704457 -0.340771
v -0.362776 -0.704457 -0.323472
v -0.365525 -0.704457 -0.319889
v -0.355285 -0.669860 -0.319147
v -0.359409 -0.669860 -0.313773
v -0.351809 -0.669860 -0.332121
v -0.361048 -0.704457 -0.327644
v -0.360458 -0.704457 -0.332121
v -0.361048 -0.704457 -0.327644
v -0.361048 -0.704457 -0.336599
v -0.360458 -0.704457 -0.332121
v -0.362776 -0.704457 -0.323472
v -0.361048 -0.704457 -0.336599
v -0.361048 -0.704457 -0.327644
v -0.355285 -0.669860 -0.319147
v -0.365525 -0.704457 -0.319889
v -0.362776 -0.704457 -0.323472
v -0.361048 -0.704457 -0.327644
v -0.351809 -0.669860 -0.332121
v -0.352693 -0.669860 -0.325406
v -0.352693 -0.669860 -0.325406
v -0.362776 -0.704457 -0.323472
v -0.361048 -0.704457 -0.327644
v -0.362776 -0.704457 -0.323472
v -0.352693 -0.669860 -0.325406
v -0.355285 -0.669860 -0.319147
vt 0 0
vn 0.9701424440468501 0.24253584943015005 0
vn 0.9370857305310691 0.24253592730097653 0.25109093492857876
vn 0.8401680608137553 0.24253601122371946 0.48507103897072834
vn 0.9370857305310691 0.24253592730097664 -0.25109093492857865
vn 0 0.24253584943014983 0.9701424440468501
vn 0.2510909349285787 0.2425359273009764 0.9370857305310691
vn -0.2510909349285787 0.2425359273009764 0.9370857305310691
vn 0.6859942609478471 0.24253607544700292 0.6859942609478471
vn 0 1 0
vn 0.8401680608137553 0.24253601122371968 -0.48507103897072823
vn 0.4850710389707283 0.24253601122371937 0.8401680608137553
vn -0.4850710389707283 0.24253601122371937 0.8401680608137553
vn -0.6859942609478471 0.24253607544700292 0.6859942609478471
vn 0.685994260947847 0.24253607544700315 -0.685994260947847
vn -0.8401680608137553 0.24253601122371946 0.48507103897072834
vn 0.2510909349285787 0.24253592730097678 -0.9370857305310691
vn 0.4850710389707283 0.24253601122371976 -0.8401680608137553
vn 0 0.24253584943015022 -0.9701424440468499
vn -0.2510909349285787 0.24253592730097678 -0.9370857305310691
vn -0.9370857305310691 0.24253592730097653 0.25109093492857876
vn -0.4850710389707283 0.24253601122371976 -0.8401680608137553
vn -0.9701424440468501 0.24253584943015005 0
vn -0.685994260947847 0.24253607544700315 -0.685994260947847
vn -0.8401680608137553 0.24253601122371968 -0.48507103897072823
vn -0.9370857305310691 0.24253592730097664 -0.25109093492857865
vn -0.9370857305310691 -0.24253592730097653 -0.25109093492857876
vn -0.9701424440468501 -0.24253584943015005 0
vn -0.8401680608137553 -0.24253601122371946 -0.48507103897072834
vn -0.9370857305310691 -0.24253592730097664 0.25109093492857865
vn 0 -0.24253584943014983 -0.9701424440468501
vn -0.2510909349285787 -0.2425359273009764 -0.9370857305310691
vn 0.2510909349285787 -0.2425359273009764 -0.9370857305310691
vn -0.6859942609478471 -0.24253607544700292 -0.6859942609478471
vn 0 -1 0
vn -0.8401680608137553 -0.24253601122371968 0.48507103897072823
vn -0.4850710389707283 -0.24253601122371937 -0.8401680608137553
vn 0.4850710389707283 -0.24253601122371937 -0.8401680608137553
vn 0.6859942609478471 -0.24253607544700292 -0.6859942609478471
vn -0.685994260947847 -0.24253607544700315 0.685994260947847
vn 0.8401680608137553 -0.24253601122371946 -0.48507103897072834
vn -0.2510909349285787 -0.24253592730097678 0.9370857305310691
vn -0.4850710389707283 -0.24253601122371976 0.8401680608137553
vn 0 -0.24253584943015022 0.9701424440468499
vn 0.2510909349285787 -0.24253592730097678 0.9370857305310691
vn 0.9370857305310691 -0.24253592730097653 -0.25109093492857876
vn 0.4850710389707283 -0.24253601122371976 0.8401680608137553
vn 0.9701424440468501 -0.24253584943015005 0
vn 0.685994260947847 -0.24253607544700315 0.685994260947847
vn 0.8401680608137553 -0.24253601122371968 0.48507103897072823
vn 0.9370857305310691 -0.24253592730097664 0.25109093492857865
usemtl material_0_0
f 1/1/1 2/1/1 3/1/2
f 4/1/3 5/1/2 6/1/3
f 7/1/2 8/1/2 9/1/1
f 10/1/1 11/1/1 12/1/4
f 13/1/4 14/1/4 15/1/1
f 16/1/5 17/1/6 18/1/5
f 19/1/7 20/1/5 21/1/7
f 22/1/8 23/1/3 24/1/8
f 25/1/2 26/1/3 27/1/2
f 28/1/3 29/1/8 30/1/3
f 31/1/9 32/1/9 33/1/9
f 34/1/4 35/1/4 36/1/10
f 37/1/6 38/1/11 39/1/6
f 40/1/6 41/1/5 42/1/6
f 43/1/5 44/1/7 45/1/5
f 46/1/12 47/1/7 48/1/12
f 49/1/7 50/1/12 51/1/7
f 52/1/11 53/1/8 54/1/11
f 55/1/8 56/1/11 57/1/8
f 58/1/9 59/1/9 60/1/9
f 61/1/9 62/1/9 63/1/9
f 64/1/10 65/1/10 66/1/4
f 67/1/9 68/1/9 69/1/9
f 70/1/11 71/1/6 72/1/11
f 73/1/9 74/1/9 75/1/9
f 76/1/9 77/1/9 78/1/9
f 79/1/13 80/1/12 81/1/13
f 82/1/12 83/1/13 84/1/12
f 85/1/9 86/1/9 87/1/9
f 88/1/9 89/1/9 90/1/9
f 91/1/9 92/1/9 93/1/9
f 94/1/10 95/1/10 96/1/14
f 97/1/9 98/1/9 99/1/9
f 100/1/9 101/1/9 102/1/9
f 103/1/9 104/1/9 105/1/9
f 106/1/9 107/1/9 108/1/9
f 109/1/13 110/1/13 111/1/15
f 112/1/9 113/1/9 114/1/9
f 115/1/9 116/1/9 117/1/9
f 118/1/9 119/1/9 120/1/9
f 121/1/14 122/1/14 123/1/10
f 124/1/16 125/1/17 126/1/16
f 127/1/18 128/1/16 129/1/18
f 130/1/19 131/1/18 132/1/19
f 133/1/15 134/1/15 135/1/20
f 136/1/15 137/1/15 138/1/13
f 139/1/9 140/1/9 141/1/9
f 142/1/21 143/1/19 144/1/21
f 145/1/17 146/1/14 147/1/17
f 148/1/14 149/1/17 150/1/14
f 151/1/17 152/1/16 153/1/17
f 154/1/16 155/1/18 156/1/16
f 157/1/18 158/1/19 159/1/18
f 160/1/19 161/1/21 162/1/19
f 163/1/20 164/1/20 165/1/22
f 166/1/20 167/1/20 168/1/15
f 169/1/9 170/1/9 171/1/9
f 172/1/23 173/1/21 174/1/23
f 175/1/21 176/1/23 177/1/21
f 178/1/22 179/1/22 180/1/20
f 181/1/9 182/1/9 183/1/9
f 184/1/9 185/1/9 186/1/9
f 187/1/23 188/1/24 189/1/23
f 190/1/22 191/1/25 192/1/22
f 193/1/9 194/1/9 195/1/9
f 196/1/9 197/1/9 198/1/9
f 199/1/24 200/1/23 201/1/24
f 202/1/25 203/1/22 204/1/25
f 205/1/25 206/1/24 207/1/25
f 208/1/24 209/1/25 210/1/24
usemtl material_1_0
f 211/1/26 212/1/27 213/1/27
f 214/1/28 215/1/26 216/1/28
f 217/1/27 218/1/26 219/1/26
f 220/1/29 221/1/27 222/1/27
f 223/1/27 224/1/29 225/1/29
f 226/1/30 227/1/31 228/1/30
f 229/1/32 230/1/30 231/1/32
f 232/1/33 233/1/28 234/1/33
f 235/1/26 236/1/28 237/1/26
f 238/1/28 239/1/33 240/1/28
f 241/1/34 242/1/34 243/1/34
f 244/1/35 245/1/29 246/1/29
f 247/1/31 248/1/36 249/1/31
f 250/1/31 251/1/30 252/1/31
f 253/1/30 254/1/32 255/1/30
f 256/1/37 257/1/32 258/1/37
f 259/1/32 260/1/37 261/1/32
f 262/1/36 263/1/33 264/1/36
f 265/1/33 266/1/36 267/1/33
f 268/1/34 269/1/34 270/1/34
f 271/1/34 272/1/34 273/1/34
f 274/1/29 275/1/35 276/1/35
f 277/1/34 278/1/34 279/1/34
f 280/1/36 281/1/31 282/1/36
f 283/1/34 284/1/34 285/1/34
f 286/1/34 287/1/34 288/1/34
f 289/1/38 290/1/37 291/1/38
f 292/1/37 293/1/38 294/1/37
f 295/1/34 296/1/34 297/1/34
f 298/1/34 299/1/34 300/1/34
f 301/1/34 302/1/34 303/1/34
f 304/1/39 305/1/35 306/1/35
f 307/1/34 308/1/34 309/1/34
f 310/1/34 311/1/34 312/1/34
f 313/1/34 314/1/34 315/1/34
f 316/1/34 317/1/34 318/1/34
f 319/1/40 320/1/38 321/1/38
f 322/1/34 323/1/34 324/1/34
f 325/1/34 326/1/34 327/1/34
f 328/1/34 329/1/34 330/1/34
f 331/1/35 332/1/39 333/1/39
f 334/1/41 335/1/42 336/1/41
f 337/1/43 338/1/41 339/1/43
f 340/1/44 341/1/43 342/1/44
f 343/1/45 344/1/40 345/1/40
f 346/1/38 347/1/40 348/1/40
f 349/1/34 350/1/34 351/1/34
f 352/1/46 353/1/44 354/1/46
f 355/1/42 356/1/39 357/1/42
f 358/1/39 359/1/42 360/1/39
f 361/1/42 362/1/41 363/1/42
f 364/1/41 365/1/43 366/1/41
f 367/1/43 368/1/44 369/1/43
f 370/1/44 371/1/46 372/1/44
f 373/1/47 374/1/45 375/1/45
f 376/1/40 377/1/45 378/1/45
f 379/1/34 380/1/34 381/1/34
f 382/1/48 383/1/46 384/1/48
f 385/1/46 386/1/48 387/1/46
f 388/1/45 389/1/47 390/1/47
f 391/1/34 392/1/34 393/1/34
f 394/1/34 395/1/34 396/1/34
f 397/1/48 398/1/49 399/1/48
f 400/1/47 401/1/50 402/1/47
f 403/1/34 404/1/34 405/1/34
f 406/1/34 407/1/34 408/1/34
f 409/1/49 410/1/48 411/1/49
f 412/1/50 413/1/47 414/1/50
f 415/1/50 416/1/49 417/1/50
f 418/1/49 419/1/50 420/1/49
