# SSTK version 0.8.0
# 48
mtllib original-48.mtl
o mesh26/mesh26-geometry/material_2#mesh26-geometry
v 0.478527 0.786447 -0.435913
v 0.478527 0.558346 -0.343083
v 0.478527 0.800527 -0.401316
v -0.446952 0.786447 -0.435913
v 0.478527 0.786447 -0.435913
v -0.446952 0.800527 -0.401316
v -0.446952 0.786447 -0.435913
v -0.446952 0.800527 -0.401316
v -0.446952 0.558346 -0.343083
v -0.446952 0.558346 -0.255772
v -0.446952 0.558346 -0.343083
v -0.446952 0.558686 -0.262654
v -0.446952 0.558346 -0.343083
v -0.446952 0.558346 -0.255772
v -0.446952 -0.669860 -0.401316
v 0.478527 0.558346 -0.401316
v 0.478527 -0.669860 -0.401316
v 0.478527 0.558346 -0.343083
v 0.478527 0.800527 -0.401316
v 0.478527 0.558346 -0.343083
v 0.478527 0.601864 -0.320466
v 0.478527 0.800527 -0.401316
v -0.446952 0.800527 -0.401316
v 0.478527 0.786447 -0.435913
v -0.446952 0.800527 -0.401316
v -0.446952 0.601864 -0.320466
v -0.446952 0.558346 -0.343083
v -0.446952 0.558346 -0.401316
v -0.446952 0.558346 -0.343083
v -0.446952 -0.669860 -0.401316
v -0.446952 0.558346 -0.255772
v -0.446952 0.558686 -0.262654
v 0.478527 0.558346 -0.255772
v 0.478527 0.558346 -0.255772
v -0.287222 0.558346 -0.235813
v -0.446952 0.558346 -0.255772
v 0.478527 0.558346 -0.255772
v 0.478527 0.558686 -0.262654
v 0.478527 0.558346 -0.343083
v 0.478527 0.558346 -0.343083
v 0.478527 -0.669860 -0.401316
v 0.478527 0.558346 -0.255772
v -0.446952 0.559702 -0.269469
v -0.446952 0.558686 -0.262654
v -0.446952 0.558346 -0.343083
v -0.446952 -0.669860 -0.401316
v -0.446952 0.558346 -0.255772
v -0.446952 -0.669860 0.437669
v 0.478527 0.515964 -0.401316
v 0.478527 -0.669860 -0.401316
v 0.478527 0.558346 -0.401316
v 0.478527 0.601864 -0.320466
v 0.478527 0.558346 -0.343083
v 0.478527 0.595617 -0.317557
v 0.478527 0.800527 -0.401316
v 0.478527 0.601864 -0.320466
v 0.355391 0.661883 -0.344892
v 0.478527 0.800527 -0.401316
v 0.299344 0.787211 -0.395897
v -0.446952 0.800527 -0.401316
v -0.446952 0.601864 -0.320466
v -0.446952 0.595617 -0.317557
v -0.446952 0.558346 -0.343083
v -0.446952 0.800527 -0.401316
v 0.278830 0.642882 -0.337159
v -0.446952 0.601864 -0.320466
v -0.446952 0.515964 -0.401316
v -0.446952 0.558346 -0.401316
v -0.446952 -0.669860 -0.401316
v 0.478527 0.558686 -0.262654
v 0.478527 0.558346 -0.255772
v -0.446952 0.558686 -0.262654
v -0.294784 0.558346 -0.234817
v -0.446952 0.558346 -0.255772
v -0.287222 0.558346 -0.235813
v 0.318798 0.558346 -0.235813
v -0.287222 0.558346 -0.235813
v 0.478527 0.558346 -0.255772
v 0.478527 0.559702 -0.269469
v 0.478527 0.558346 -0.343083
v 0.478527 0.558686 -0.262654
v 0.478527 0.558346 -0.255772
v 0.478527 -0.669860 -0.401316
v 0.478527 0.558346 0.437669
v -0.446952 0.558686 -0.262654
v -0.446952 0.559702 -0.269469
v 0.478527 0.558686 -0.262654
v -0.446952 0.561385 -0.276151
v -0.446952 0.559702 -0.269469
v -0.446952 0.558346 -0.343083
v -0.446952 0.558346 0.437669
v -0.446952 -0.669860 0.437669
v -0.446952 0.558346 -0.255772
v 0.478527 0.595617 -0.317557
v 0.478527 0.558346 -0.343083
v 0.478527 0.589688 -0.314047
v 0.478527 0.595617 -0.317557
v -0.446952 0.595617 -0.317557
v 0.478527 0.601864 -0.320466
v 0.355391 0.661883 -0.344892
v 0.478527 0.601864 -0.320466
v 0.338975 0.650216 -0.340144
v 0.367988 0.677088 -0.351080
v 0.478527 0.800527 -0.401316
v 0.355391 0.661883 -0.344892
v 0.299344 0.787211 -0.395897
v 0.278830 0.784710 -0.394879
v -0.446952 0.800527 -0.401316
v 0.299344 0.787211 -0.395897
v 0.478527 0.800527 -0.401316
v 0.319859 0.784710 -0.394879
v -0.446952 0.595617 -0.317557
v -0.446952 0.589688 -0.314047
v -0.446952 0.558346 -0.343083
v -0.446952 0.601864 -0.320466
v 0.478527 0.601864 -0.320466
v -0.446952 0.595617 -0.317557
v 0.299344 0.640380 -0.336141
v -0.446952 0.601864 -0.320466
v 0.278830 0.642882 -0.337159
v 0.269271 0.646549 -0.338652
v 0.278830 0.642882 -0.337159
v -0.446952 0.800527 -0.401316
v -0.302094 0.558346 -0.231789
v -0.446952 0.558346 -0.255772
v -0.294784 0.558346 -0.234817
v -0.294784 0.558346 -0.234817
v -0.287222 0.558346 -0.235813
v -0.294784 0.541047 -0.234817
v -0.287222 0.558346 -0.235813
v 0.318798 0.558346 -0.235813
v -0.287222 0.541047 -0.235813
v 0.326359 0.558346 -0.234817
v 0.318798 0.558346 -0.235813
v 0.478527 0.558346 -0.255772
v 0.478527 0.561385 -0.276151
v 0.478527 0.558346 -0.343083
v 0.478527 0.559702 -0.269469
v 0.478527 0.559702 -0.269469
v 0.478527 0.558686 -0.262654
v -0.446952 0.559702 -0.269469
v 0.478527 -0.669860 0.437669
v 0.478527 0.558346 0.437669
v 0.478527 -0.669860 -0.401316
v 0.478527 0.558346 0.437669
v 0.348787 0.558346 -0.205823
v 0.478527 0.558346 -0.255772
v -0.446952 0.559702 -0.269469
v -0.446952 0.561385 -0.276151
v 0.478527 0.559702 -0.269469
v -0.446952 0.563718 -0.282635
v -0.446952 0.561385 -0.276151
v -0.446952 0.558346 -0.343083
v -0.446952 0.558346 0.437669
v 0.478527 0.558346 0.437669
v -0.446952 -0.669860 0.437669
v -0.446952 0.558346 -0.255772
v -0.316216 0.558346 0.286667
v -0.446952 0.558346 0.437669
v 0.478527 0.589688 -0.314047
v 0.478527 0.558346 -0.343083
v 0.478527 0.584133 -0.309970
v 0.478527 0.589688 -0.314047
v -0.446952 0.589688 -0.314047
v 0.478527 0.595617 -0.317557
v -0.446952 0.595617 -0.317557
v 0.478527 0.595617 -0.317557
v -0.446952 0.589688 -0.314047
v 0.338975 0.650216 -0.340144
v 0.478527 0.601864 -0.320466
v 0.319859 0.642882 -0.337159
v 0.371947 0.685941 -0.354683
v 0.478527 0.800527 -0.401316
v 0.367988 0.677088 -0.351080
v 0.278830 0.784710 -0.394879
v 0.269271 0.781043 -0.393387
v -0.446952 0.800527 -0.401316
v 0.319859 0.784710 -0.394879
v 0.478527 0.800527 -0.401316
v 0.329417 0.781043 -0.393387
v -0.446952 0.589688 -0.314047
v -0.446952 0.584133 -0.309970
v -0.446952 0.558346 -0.343083
v -0.446952 0.601864 -0.320466
v 0.299344 0.640380 -0.336141
v 0.478527 0.601864 -0.320466
v 0.259713 0.650216 -0.340144
v 0.269271 0.646549 -0.338652
v -0.446952 0.800527 -0.401316
v -0.308371 0.558346 -0.226972
v -0.446952 0.558346 -0.255772
v -0.302094 0.558346 -0.231789
v -0.302094 0.558346 -0.231789
v -0.294784 0.558346 -0.234817
v -0.302094 0.541047 -0.231789
v -0.287222 0.541047 -0.235813
v -0.294784 0.541047 -0.234817
v -0.287222 0.558346 -0.235813
v -0.294784 0.541047 -0.234817
v -0.302094 0.541047 -0.231789
v -0.294784 0.558346 -0.234817
v 0.318798 0.541047 -0.235813
v -0.287222 0.541047 -0.235813
v 0.318798 0.558346 -0.235813
v 0.318798 0.558346 -0.235813
v 0.326359 0.558346 -0.234817
v 0.318798 0.541047 -0.235813
v 0.333670 0.558346 -0.231789
v 0.326359 0.558346 -0.234817
v 0.478527 0.558346 -0.255772
v 0.478527 0.563718 -0.282635
v 0.478527 0.558346 -0.343083
v 0.478527 0.561385 -0.276151
v 0.478527 0.561385 -0.276151
v 0.478527 0.559702 -0.269469
v -0.446952 0.561385 -0.276151
v 0.478527 -0.669860 0.437669
v -0.446952 -0.669860 0.437669
v 0.478527 0.558346 0.437669
v 0.348787 0.558346 -0.205823
v 0.347792 0.558346 -0.213385
v 0.478527 0.558346 -0.255772
v 0.348787 0.558346 -0.205823
v 0.478527 0.558346 0.437669
v 0.348787 0.558346 0.279106
v -0.446952 0.561385 -0.276151
v -0.446952 0.563718 -0.282635
v 0.478527 0.561385 -0.276151
v -0.446952 0.566678 -0.288857
v -0.446952 0.563718 -0.282635
v -0.446952 0.558346 -0.343083
v 0.478527 0.558346 0.437669
v -0.446952 0.558346 0.437669
v -0.294784 0.558346 0.308100
v -0.313188 0.558346 0.293978
v -0.446952 0.558346 0.437669
v -0.316216 0.558346 0.286667
v -0.317211 0.558346 0.279106
v -0.316216 0.558346 0.286667
v -0.446952 0.558346 -0.255772
v 0.478527 0.584133 -0.309970
v 0.478527 0.558346 -0.343083
v 0.478527 0.579008 -0.305365
v 0.478527 0.584133 -0.309970
v -0.446952 0.584133 -0.309970
v 0.478527 0.589688 -0.314047
v -0.446952 0.589688 -0.314047
v 0.478527 0.589688 -0.314047
v -0.446952 0.584133 -0.309970
v 0.319859 0.642882 -0.337159
v 0.478527 0.601864 -0.320466
v 0.299344 0.640380 -0.336141
v 0.329417 0.646549 -0.338652
v 0.338975 0.650216 -0.340144
v 0.319859 0.642882 -0.337159
v 0.375906 0.694794 -0.358286
v 0.478527 0.800527 -0.401316
v 0.371947 0.685941 -0.354683
v 0.269271 0.781043 -0.393387
v 0.259713 0.777376 -0.391894
v -0.446952 0.800527 -0.401316
v 0.329417 0.781043 -0.393387
v 0.478527 0.800527 -0.401316
v 0.338975 0.777376 -0.391894
v -0.446952 0.584133 -0.309970
v -0.446952 0.579008 -0.305365
v -0.446952 0.558346 -0.343083
v 0.243297 0.661883 -0.344892
v 0.259713 0.650216 -0.340144
v -0.446952 0.800527 -0.401316
v -0.313188 0.558346 -0.220695
v -0.446952 0.558346 -0.255772
v -0.308371 0.558346 -0.226972
v -0.308371 0.558346 -0.226972
v -0.302094 0.558346 -0.231789
v -0.308371 0.541047 -0.226972
v -0.302094 0.541047 -0.231789
v -0.308371 0.541047 -0.226972
v -0.302094 0.558346 -0.231789
v -0.287222 0.541047 -0.235813
v -0.293655 0.541047 -0.230604
v -0.294784 0.541047 -0.234817
v -0.294784 0.541047 -0.234817
v -0.299913 0.541047 -0.228012
v -0.302094 0.541047 -0.231789
v 0.318798 0.541047 -0.235813
v -0.286939 0.541047 -0.231488
v -0.287222 0.541047 -0.235813
v 0.326359 0.541047 -0.234817
v 0.318798 0.541047 -0.235813
v 0.326359 0.558346 -0.234817
v 0.326359 0.558346 -0.234817
v 0.333670 0.558346 -0.231789
v 0.326359 0.541047 -0.234817
v 0.339947 0.558346 -0.226972
v 0.333670 0.558346 -0.231789
v 0.478527 0.558346 -0.255772
v 0.478527 0.566678 -0.288857
v 0.478527 0.558346 -0.343083
v 0.478527 0.563718 -0.282635
v 0.478527 0.563718 -0.282635
v 0.478527 0.561385 -0.276151
v -0.446952 0.563718 -0.282635
v 0.347792 0.558346 -0.213385
v 0.344764 0.558346 -0.220695
v 0.478527 0.558346 -0.255772
v 0.348787 0.558346 -0.205823
v 0.348787 0.541047 -0.205823
v 0.347792 0.558346 -0.213385
v 0.348787 0.558346 0.279106
v 0.478527 0.558346 0.437669
v 0.347792 0.558346 0.286667
v 0.348787 0.558346 0.279106
v 0.348787 0.541047 0.279106
v 0.348787 0.558346 -0.205823
v -0.446952 0.563718 -0.282635
v -0.446952 0.566678 -0.288857
v 0.478527 0.563718 -0.282635
v -0.446952 0.570237 -0.294757
v -0.446952 0.566678 -0.288857
v -0.446952 0.558346 -0.343083
v -0.294784 0.558346 0.308100
v -0.446952 0.558346 0.437669
v -0.302094 0.558346 0.305072
v -0.287222 0.558346 0.309095
v 0.478527 0.558346 0.437669
v -0.294784 0.558346 0.308100
v -0.308371 0.558346 0.300255
v -0.446952 0.558346 0.437669
v -0.313188 0.558346 0.293978
v -0.316216 0.558346 0.286667
v -0.316216 0.541047 0.286667
v -0.313188 0.558346 0.293978
v -0.317211 0.558346 0.279106
v -0.317211 0.541047 0.279106
v -0.316216 0.558346 0.286667
v -0.317211 0.558346 -0.205823
v -0.317211 0.558346 0.279106
v -0.446952 0.558346 -0.255772
v 0.478527 0.579008 -0.305365
v 0.478527 0.558346 -0.343083
v 0.478527 0.574361 -0.300277
v 0.478527 0.579008 -0.305365
v -0.446952 0.579008 -0.305365
v 0.478527 0.584133 -0.309970
v -0.446952 0.584133 -0.309970
v 0.478527 0.584133 -0.309970
v -0.446952 0.579008 -0.305365
v 0.378607 0.713796 -0.366019
v 0.478527 0.800527 -0.401316
v 0.375906 0.694794 -0.358286
v 0.259713 0.777376 -0.391894
v 0.243297 0.765709 -0.387146
v -0.446952 0.800527 -0.401316
v 0.338975 0.777376 -0.391894
v 0.478527 0.800527 -0.401316
v 0.355391 0.765709 -0.387146
v -0.446952 0.579008 -0.305365
v -0.446952 0.574361 -0.300277
v -0.446952 0.558346 -0.343083
v 0.230701 0.677088 -0.351080
v 0.243297 0.661883 -0.344892
v -0.446952 0.800527 -0.401316
v -0.316216 0.558346 -0.213385
v -0.446952 0.558346 -0.255772
v -0.313188 0.558346 -0.220695
v -0.308371 0.558346 -0.226972
v -0.308371 0.541047 -0.226972
v -0.313188 0.558346 -0.220695
v -0.302094 0.541047 -0.231789
v -0.305287 0.541047 -0.223888
v -0.308371 0.541047 -0.226972
v -0.293655 0.541047 -0.230604
v -0.299913 0.541047 -0.228012
v -0.294784 0.541047 -0.234817
v -0.286939 0.541047 -0.231488
v -0.293655 0.541047 -0.230604
v -0.287222 0.541047 -0.235813
v -0.299913 0.541047 -0.228012
v -0.305287 0.541047 -0.223888
v -0.302094 0.541047 -0.231789
v 0.318515 0.541047 -0.231488
v -0.286939 0.541047 -0.231488
v 0.318798 0.541047 -0.235813
v 0.326359 0.541047 -0.234817
v 0.325230 0.541047 -0.230604
v 0.318798 0.541047 -0.235813
v 0.333670 0.541047 -0.231789
v 0.326359 0.541047 -0.234817
v 0.333670 0.558346 -0.231789
v 0.333670 0.558346 -0.231789
v 0.339947 0.558346 -0.226972
v 0.333670 0.541047 -0.231789
v 0.344764 0.558346 -0.220695
v 0.339947 0.558346 -0.226972
v 0.478527 0.558346 -0.255772
v 0.478527 0.570237 -0.294757
v 0.478527 0.558346 -0.343083
v 0.478527 0.566678 -0.288857
v 0.478527 0.566678 -0.288857
v 0.478527 0.563718 -0.282635
v -0.446952 0.566678 -0.288857
v 0.347792 0.558346 -0.213385
v 0.347792 0.541047 -0.213385
v 0.344764 0.558346 -0.220695
v 0.347792 0.541047 -0.213385
v 0.347792 0.558346 -0.213385
v 0.348787 0.541047 -0.205823
v 0.348787 0.541047 -0.205823
v 0.348787 0.558346 -0.205823
v 0.348787 0.541047 0.279106
v 0.347792 0.558346 0.286667
v 0.478527 0.558346 0.437669
v 0.344764 0.558346 0.293978
v 0.347792 0.558346 0.286667
v 0.347792 0.541047 0.286667
v 0.348787 0.558346 0.279106
v 0.348787 0.541047 0.279106
v 0.348787 0.558346 0.279106
v 0.347792 0.541047 0.286667
v -0.446952 0.566678 -0.288857
v -0.446952 0.570237 -0.294757
v 0.478527 0.566678 -0.288857
v -0.446952 0.574361 -0.300277
v -0.446952 0.570237 -0.294757
v -0.446952 0.558346 -0.343083
v -0.302094 0.558346 0.305072
v -0.446952 0.558346 0.437669
v -0.308371 0.558346 0.300255
v -0.294784 0.558346 0.308100
v -0.302094 0.558346 0.305072
v -0.294784 0.541047 0.308100
v 0.152222 0.558346 0.343398
v 0.478527 0.558346 0.437669
v -0.287222 0.558346 0.309095
v -0.287222 0.558346 0.309095
v -0.294784 0.558346 0.308100
v -0.287222 0.541047 0.309095
v -0.313188 0.558346 0.293978
v -0.313188 0.541047 0.293978
v -0.308371 0.558346 0.300255
v -0.313188 0.541047 0.293978
v -0.313188 0.558346 0.293978
v -0.316216 0.541047 0.286667
v -0.316216 0.541047 0.286667
v -0.316216 0.558346 0.286667
v -0.317211 0.541047 0.279106
v -0.317211 0.541047 0.279106
v -0.317211 0.558346 0.279106
v -0.317211 0.541047 -0.205823
v -0.317211 0.558346 -0.205823
v -0.317211 0.541047 -0.205823
v -0.317211 0.558346 0.279106
v -0.317211 0.558346 -0.205823
v -0.446952 0.558346 -0.255772
v -0.316216 0.558346 -0.213385
v 0.478527 0.574361 -0.300277
v 0.478527 0.558346 -0.343083
v 0.478527 0.570237 -0.294757
v 0.478527 0.579008 -0.305365
v 0.478527 0.574361 -0.300277
v -0.446952 0.579008 -0.305365
v 0.375906 0.732797 -0.373752
v 0.478527 0.800527 -0.401316
v 0.378607 0.713796 -0.366019
v 0.243297 0.765709 -0.387146
v 0.230701 0.750504 -0.380958
v -0.446952 0.800527 -0.401316
v 0.355391 0.765709 -0.387146
v 0.478527 0.800527 -0.401316
v 0.367988 0.750504 -0.380958
v -0.446952 0.574361 -0.300277
v -0.446952 0.579008 -0.305365
v 0.478527 0.574361 -0.300277
v 0.226742 0.685941 -0.354683
v 0.230701 0.677088 -0.351080
v -0.446952 0.800527 -0.401316
v -0.313188 0.558346 -0.220695
v -0.313188 0.541047 -0.220695
v -0.316216 0.558346 -0.213385
v -0.313188 0.541047 -0.220695
v -0.313188 0.558346 -0.220695
v -0.308371 0.541047 -0.226972
v -0.305287 0.541047 -0.223888
v -0.309410 0.541047 -0.218514
v -0.308371 0.541047 -0.226972
v -0.299913 0.541047 -0.228012
v -0.293655 0.541047 -0.230604
v -0.299913 0.558346 -0.228012
v -0.293655 0.541047 -0.230604
v -0.286939 0.541047 -0.231488
v -0.293655 0.558346 -0.230604
v -0.305287 0.541047 -0.223888
v -0.299913 0.541047 -0.228012
v -0.305287 0.558346 -0.223888
v -0.286939 0.541047 -0.231488
v 0.318515 0.541047 -0.231488
v -0.286939 0.558346 -0.231488
v 0.325230 0.541047 -0.230604
v 0.318515 0.541047 -0.231488
v 0.318798 0.541047 -0.235813
v 0.331489 0.541047 -0.228012
v 0.325230 0.541047 -0.230604
v 0.326359 0.541047 -0.234817
v 0.333670 0.541047 -0.231789
v 0.331489 0.541047 -0.228012
v 0.326359 0.541047 -0.234817
v 0.339947 0.541047 -0.226972
v 0.333670 0.541047 -0.231789
v 0.339947 0.558346 -0.226972
v 0.344764 0.558346 -0.220695
v 0.344764 0.541047 -0.220695
v 0.339947 0.558346 -0.226972
v 0.478527 0.570237 -0.294757
v 0.478527 0.566678 -0.288857
v -0.446952 0.570237 -0.294757
v 0.344764 0.541047 -0.220695
v 0.344764 0.558346 -0.220695
v 0.347792 0.541047 -0.213385
v 0.348787 0.541047 -0.205823
v 0.348787 0.541047 0.279106
v 0.347792 0.541047 -0.213385
v 0.344764 0.558346 0.293978
v 0.478527 0.558346 0.437669
v 0.339947 0.558346 0.300255
v 0.344764 0.558346 0.293978
v 0.344764 0.541047 0.293978
v 0.347792 0.558346 0.286667
v 0.347792 0.541047 0.286667
v 0.347792 0.558346 0.286667
v 0.344764 0.541047 0.293978
v 0.348787 0.541047 0.279106
v 0.347792 0.541047 0.286667
v 0.347792 0.541047 -0.213385
v -0.446952 0.570237 -0.294757
v -0.446952 0.574361 -0.300277
v 0.478527 0.570237 -0.294757
v -0.302094 0.558346 0.305072
v -0.308371 0.558346 0.300255
v -0.302094 0.541047 0.305072
v -0.302094 0.541047 0.305072
v -0.294784 0.541047 0.308100
v -0.302094 0.558346 0.305072
v -0.294784 0.541047 0.308100
v -0.287222 0.541047 0.309095
v -0.294784 0.558346 0.308100
v 0.154461 0.558346 0.343693
v 0.478527 0.558346 0.437669
v 0.152222 0.558346 0.343398
v 0.150136 0.558346 0.342534
v 0.152222 0.558346 0.343398
v -0.287222 0.558346 0.309095
v -0.287222 0.541047 0.309095
v 0.137162 0.541047 0.309095
v -0.287222 0.558346 0.309095
v -0.308371 0.541047 0.300255
v -0.308371 0.558346 0.300255
v -0.313188 0.541047 0.293978
v -0.313188 0.541047 0.293978
v -0.316216 0.541047 0.286667
v -0.316216 0.541047 -0.213385
v -0.316216 0.541047 0.286667
v -0.317211 0.541047 0.279106
v -0.316216 0.541047 -0.213385
v -0.317211 0.541047 -0.205823
v -0.316216 0.541047 -0.213385
v -0.317211 0.541047 0.279106
v -0.317211 0.541047 -0.205823
v -0.317211 0.558346 -0.205823
v -0.316216 0.541047 -0.213385
v -0.316216 0.558346 -0.213385
v -0.316216 0.541047 -0.213385
v -0.317211 0.558346 -0.205823
v 0.478527 0.574361 -0.300277
v 0.478527 0.570237 -0.294757
v -0.446952 0.574361 -0.300277
v 0.371947 0.741650 -0.377355
v 0.478527 0.800527 -0.401316
v 0.375906 0.732797 -0.373752
v 0.230701 0.750504 -0.380958
v 0.226742 0.741650 -0.377355
v -0.446952 0.800527 -0.401316
v 0.367988 0.750504 -0.380958
v 0.478527 0.800527 -0.401316
v 0.371947 0.741650 -0.377355
v 0.222782 0.694794 -0.358286
v 0.226742 0.685941 -0.354683
v -0.446952 0.800527 -0.401316
v -0.316216 0.541047 -0.213385
v -0.316216 0.558346 -0.213385
v -0.313188 0.541047 -0.220695
v -0.308371 0.541047 -0.226972
v -0.312003 0.541047 -0.212256
v -0.313188 0.541047 -0.220695
v -0.309410 0.541047 -0.218514
v -0.312003 0.541047 -0.212256
v -0.308371 0.541047 -0.226972
v -0.305287 0.541047 -0.223888
v -0.305287 0.558346 -0.223888
v -0.309410 0.541047 -0.218514
v -0.293655 0.558346 -0.230604
v -0.299913 0.558346 -0.228012
v -0.293655 0.541047 -0.230604
v -0.299913 0.558346 -0.228012
v -0.305287 0.558346 -0.223888
v -0.299913 0.541047 -0.228012
v -0.286939 0.558346 -0.231488
v -0.293655 0.558346 -0.230604
v -0.286939 0.541047 -0.231488
v 0.318515 0.558346 -0.231488
v -0.286939 0.558346 -0.231488
v 0.318515 0.541047 -0.231488
v 0.318515 0.541047 -0.231488
v 0.325230 0.541047 -0.230604
v 0.318515 0.558346 -0.231488
v 0.325230 0.541047 -0.230604
v 0.331489 0.541047 -0.228012
v 0.325230 0.558346 -0.230604
v 0.336863 0.541047 -0.223888
v 0.331489 0.541047 -0.228012
v 0.333670 0.541047 -0.231789
v 0.339947 0.541047 -0.226972
v 0.336863 0.541047 -0.223888
v 0.333670 0.541047 -0.231789
v 0.339947 0.541047 -0.226972
v 0.339947 0.558346 -0.226972
v 0.344764 0.541047 -0.220695
v 0.347792 0.541047 -0.213385
v 0.347792 0.541047 0.286667
v 0.344764 0.541047 -0.220695
v 0.339947 0.558346 0.300255
v 0.478527 0.558346 0.437669
v 0.333670 0.558346 0.305072
v 0.339947 0.558346 0.300255
v 0.339947 0.541047 0.300255
v 0.344764 0.558346 0.293978
v 0.344764 0.541047 0.293978
v 0.344764 0.558346 0.293978
v 0.339947 0.541047 0.300255
v 0.347792 0.541047 0.286667
v 0.344764 0.541047 0.293978
v 0.344764 0.541047 -0.220695
v -0.308371 0.541047 0.300255
v -0.302094 0.541047 0.305072
v -0.308371 0.558346 0.300255
v -0.294784 0.541047 0.308100
v -0.302094 0.541047 0.305072
v -0.299913 0.541047 0.301294
v -0.287222 0.541047 0.309095
v -0.294784 0.541047 0.308100
v -0.293655 0.541047 0.303887
v 0.310149 0.558346 0.343693
v 0.478527 0.558346 0.437669
v 0.154461 0.558346 0.343693
v 0.154461 0.558346 0.343693
v 0.152222 0.558346 0.343398
v 0.154461 0.541047 0.343693
v 0.152222 0.558346 0.343398
v 0.150136 0.558346 0.342534
v 0.152222 0.541047 0.343398
v 0.148345 0.558346 0.341159
v 0.150136 0.558346 0.342534
v -0.287222 0.558346 0.309095
v 0.137162 0.558346 0.309095
v -0.287222 0.558346 0.309095
v 0.137162 0.541047 0.309095
v 0.137162 0.541047 0.309095
v -0.287222 0.541047 0.309095
v -0.286939 0.541047 0.304771
v -0.308371 0.541047 0.300255
v -0.313188 0.541047 0.293978
v -0.312003 0.541047 0.285539
v -0.313188 0.541047 -0.220695
v -0.313188 0.541047 0.293978
v -0.316216 0.541047 -0.213385
v 0.226742 0.741650 -0.377355
v 0.222782 0.732797 -0.373752
v -0.446952 0.800527 -0.401316
v 0.220082 0.713796 -0.366019
v 0.222782 0.694794 -0.358286
v -0.446952 0.800527 -0.401316
v -0.312887 0.541047 -0.205540
v -0.313188 0.541047 -0.220695
v -0.312003 0.541047 -0.212256
v -0.309410 0.541047 -0.218514
v -0.309410 0.558346 -0.218514
v -0.312003 0.541047 -0.212256
v -0.309410 0.558346 -0.218514
v -0.309410 0.541047 -0.218514
v -0.305287 0.558346 -0.223888
v 0.325230 0.558346 -0.230604
v 0.318515 0.558346 -0.231488
v 0.325230 0.541047 -0.230604
v 0.331489 0.558346 -0.228012
v 0.325230 0.558346 -0.230604
v 0.331489 0.541047 -0.228012
v 0.331489 0.541047 -0.228012
v 0.336863 0.541047 -0.223888
v 0.331489 0.558346 -0.228012
v 0.340986 0.541047 -0.218514
v 0.336863 0.541047 -0.223888
v 0.339947 0.541047 -0.226972
v 0.344764 0.541047 -0.220695
v 0.340986 0.541047 -0.218514
v 0.339947 0.541047 -0.226972
v 0.333670 0.558346 0.305072
v 0.478527 0.558346 0.437669
v 0.326359 0.558346 0.308100
v 0.339947 0.558346 0.300255
v 0.333670 0.558346 0.305072
v 0.339947 0.541047 0.300255
v 0.344764 0.541047 0.293978
v 0.339947 0.541047 0.300255
v 0.340986 0.541047 0.291797
v 0.344764 0.541047 0.293978
v 0.344463 0.541047 -0.205540
v 0.344764 0.541047 -0.220695
v -0.302094 0.541047 0.305072
v -0.308371 0.541047 0.300255
v -0.305287 0.541047 0.297171
v -0.299913 0.541047 0.301294
v -0.302094 0.541047 0.305072
v -0.305287 0.541047 0.297171
v -0.293655 0.541047 0.303887
v -0.294784 0.541047 0.308100
v -0.299913 0.541047 0.301294
v -0.286939 0.541047 0.304771
v -0.287222 0.541047 0.309095
v -0.293655 0.541047 0.303887
v 0.312387 0.558346 0.343398
v 0.478527 0.558346 0.437669
v 0.310149 0.558346 0.343693
v 0.310149 0.558346 0.343693
v 0.154461 0.558346 0.343693
v 0.310149 0.541047 0.343693
v 0.152222 0.541047 0.343398
v 0.154461 0.541047 0.343693
v 0.152222 0.558346 0.343398
v 0.154461 0.541047 0.343693
v 0.310149 0.541047 0.343693
v 0.154461 0.558346 0.343693
v 0.150136 0.541047 0.342534
v 0.152222 0.541047 0.343398
v 0.150136 0.558346 0.342534
v 0.150136 0.558346 0.342534
v 0.148345 0.558346 0.341159
v 0.150136 0.541047 0.342534
v 0.146970 0.558346 0.339368
v 0.148345 0.558346 0.341159
v -0.287222 0.558346 0.309095
v 0.137162 0.558346 0.309095
v 0.146106 0.558346 0.337282
v -0.287222 0.558346 0.309095
v 0.137162 0.541047 0.309095
v 0.139401 0.541047 0.309390
v 0.137162 0.558346 0.309095
v 0.318515 0.541047 0.304771
v 0.137162 0.541047 0.309095
v -0.286939 0.541047 0.304771
v -0.312003 0.541047 0.285539
v -0.313188 0.541047 0.293978
v -0.312887 0.541047 0.278823
v -0.309410 0.541047 0.291797
v -0.308371 0.541047 0.300255
v -0.312003 0.541047 0.285539
v -0.312887 0.541047 0.278823
v -0.313188 0.541047 0.293978
v -0.313188 0.541047 -0.220695
v 0.222782 0.732797 -0.373752
v 0.220082 0.713796 -0.366019
v -0.446952 0.800527 -0.401316
v -0.312887 0.541047 0.278823
v -0.313188 0.541047 -0.220695
v -0.312887 0.541047 -0.205540
v -0.312003 0.541047 -0.212256
v -0.312003 0.558346 -0.212256
v -0.312887 0.541047 -0.205540
v -0.312003 0.558346 -0.212256
v -0.312003 0.541047 -0.212256
v -0.309410 0.558346 -0.218514
v 0.336863 0.558346 -0.223888
v 0.331489 0.558346 -0.228012
v 0.336863 0.541047 -0.223888
v 0.340986 0.541047 -0.218514
v 0.340986 0.558346 -0.218514
v 0.336863 0.541047 -0.223888
v 0.343578 0.541047 -0.212256
v 0.340986 0.541047 -0.218514
v 0.344764 0.541047 -0.220695
v 0.326359 0.558346 0.308100
v 0.478527 0.558346 0.437669
v 0.318798 0.558346 0.309095
v 0.333670 0.558346 0.305072
v 0.326359 0.558346 0.308100
v 0.333670 0.541047 0.305072
v 0.333670 0.541047 0.305072
v 0.339947 0.541047 0.300255
v 0.333670 0.558346 0.305072
v 0.340986 0.541047 0.291797
v 0.339947 0.541047 0.300255
v 0.336863 0.541047 0.297171
v 0.343578 0.541047 0.285539
v 0.344764 0.541047 0.293978
v 0.340986 0.541047 0.291797
v 0.344463 0.541047 -0.205540
v 0.343578 0.541047 -0.212256
v 0.344764 0.541047 -0.220695
v 0.344463 0.541047 -0.205540
v 0.344764 0.541047 0.293978
v 0.344463 0.541047 0.278823
v -0.305287 0.541047 0.297171
v -0.308371 0.541047 0.300255
v -0.309410 0.541047 0.291797
v -0.299913 0.541047 0.301294
v -0.305287 0.541047 0.297171
v -0.299913 0.558346 0.301294
v -0.293655 0.541047 0.303887
v -0.299913 0.541047 0.301294
v -0.293655 0.558346 0.303887
v -0.286939 0.541047 0.304771
v -0.293655 0.541047 0.303887
v -0.286939 0.558346 0.304771
v 0.314473 0.558346 0.342534
v 0.478527 0.558346 0.437669
v 0.312387 0.558346 0.343398
v 0.312387 0.558346 0.343398
v 0.310149 0.558346 0.343693
v 0.312387 0.541047 0.343398
v 0.310149 0.541047 0.343693
v 0.312387 0.541047 0.343398
v 0.310149 0.558346 0.343693
v 0.154461 0.541047 0.343693
v 0.152222 0.541047 0.343398
v 0.318515 0.541047 0.304771
v 0.310149 0.541047 0.343693
v 0.154461 0.541047 0.343693
v 0.318515 0.541047 0.304771
v 0.152222 0.541047 0.343398
v 0.150136 0.541047 0.342534
v 0.318515 0.541047 0.304771
v 0.148345 0.541047 0.341159
v 0.150136 0.541047 0.342534
v 0.148345 0.558346 0.341159
v 0.146970 0.558346 0.339368
v 0.146970 0.541047 0.339368
v 0.148345 0.558346 0.341159
v 0.146106 0.558346 0.337282
v 0.146970 0.558346 0.339368
v -0.287222 0.558346 0.309095
v 0.139401 0.558346 0.309390
v 0.146106 0.558346 0.337282
v 0.137162 0.558346 0.309095
v 0.139401 0.558346 0.309390
v 0.137162 0.558346 0.309095
v 0.139401 0.541047 0.309390
v 0.139401 0.541047 0.309390
v 0.137162 0.541047 0.309095
v 0.318515 0.541047 0.304771
v 0.318515 0.541047 0.304771
v -0.286939 0.541047 0.304771
v 0.318515 0.558346 0.304771
v -0.312887 0.541047 0.278823
v -0.312887 0.558346 0.278823
v -0.312003 0.541047 0.285539
v -0.312003 0.541047 0.285539
v -0.312003 0.558346 0.285539
v -0.309410 0.541047 0.291797
v -0.312887 0.541047 -0.205540
v -0.312887 0.558346 -0.205540
v -0.312887 0.541047 0.278823
v -0.312887 0.558346 -0.205540
v -0.312887 0.541047 -0.205540
v -0.312003 0.558346 -0.212256
v -0.299913 0.558346 0.301294
v -0.293655 0.558346 0.303887
v -0.299913 0.541047 0.301294
v -0.293655 0.558346 0.303887
v -0.286939 0.558346 0.304771
v -0.293655 0.541047 0.303887
v -0.305287 0.558346 0.297171
v -0.299913 0.558346 0.301294
v -0.305287 0.541047 0.297171
v -0.286939 0.558346 0.304771
v 0.318515 0.558346 0.304771
v -0.286939 0.541047 0.304771
v 0.318515 0.558346 0.304771
v 0.325230 0.558346 0.303887
v 0.318515 0.541047 0.304771
v 0.336863 0.558346 -0.223888
v 0.336863 0.541047 -0.223888
v 0.340986 0.558346 -0.218514
v 0.340986 0.558346 -0.218514
v 0.340986 0.541047 -0.218514
v 0.343578 0.558346 -0.212256
v 0.343578 0.541047 -0.212256
v 0.343578 0.558346 -0.212256
v 0.340986 0.541047 -0.218514
v 0.318798 0.558346 0.309095
v 0.478527 0.558346 0.437669
v 0.318798 0.558346 0.335043
v 0.326359 0.558346 0.308100
v 0.318798 0.558346 0.309095
v 0.326359 0.541047 0.308100
v 0.326359 0.541047 0.308100
v 0.333670 0.541047 0.305072
v 0.326359 0.558346 0.308100
v 0.339947 0.541047 0.300255
v 0.333670 0.541047 0.305072
v 0.336863 0.541047 0.297171
v 0.336863 0.541047 0.297171
v 0.336863 0.558346 0.297171
v 0.340986 0.541047 0.291797
v 0.344463 0.541047 0.278823
v 0.344764 0.541047 0.293978
v 0.343578 0.541047 0.285539
v 0.340986 0.541047 0.291797
v 0.340986 0.558346 0.291797
v 0.343578 0.541047 0.285539
v 0.344463 0.541047 -0.205540
v 0.344463 0.558346 -0.205540
v 0.343578 0.541047 -0.212256
v 0.344463 0.541047 0.278823
v 0.344463 0.558346 0.278823
v 0.344463 0.541047 -0.205540
v -0.309410 0.541047 0.291797
v -0.309410 0.558346 0.291797
v -0.305287 0.541047 0.297171
v 0.316265 0.558346 0.341159
v 0.478527 0.558346 0.437669
v 0.314473 0.558346 0.342534
v 0.314473 0.558346 0.342534
v 0.312387 0.558346 0.343398
v 0.314473 0.541047 0.342534
v 0.312387 0.541047 0.343398
v 0.314473 0.541047 0.342534
v 0.312387 0.558346 0.343398
v 0.312387 0.541047 0.343398
v 0.310149 0.541047 0.343693
v 0.318515 0.541047 0.304771
v 0.150136 0.541047 0.342534
v 0.148345 0.541047 0.341159
v 0.318515 0.541047 0.304771
v 0.148345 0.541047 0.341159
v 0.148345 0.558346 0.341159
v 0.146970 0.541047 0.339368
v 0.146970 0.541047 0.339368
v 0.146970 0.558346 0.339368
v 0.146106 0.541047 0.337282
v 0.146106 0.558346 0.337282
v 0.146106 0.541047 0.337282
v 0.146970 0.558346 0.339368
v 0.141487 0.558346 0.310254
v 0.146106 0.558346 0.337282
v 0.139401 0.558346 0.309390
v 0.139401 0.541047 0.309390
v 0.141487 0.541047 0.310254
v 0.139401 0.558346 0.309390
v 0.141487 0.541047 0.310254
v 0.139401 0.541047 0.309390
v 0.318515 0.541047 0.304771
v -0.312003 0.558346 0.285539
v -0.312003 0.541047 0.285539
v -0.312887 0.558346 0.278823
v -0.312887 0.558346 0.278823
v -0.312887 0.541047 0.278823
v -0.312887 0.558346 -0.205540
v -0.309410 0.558346 0.291797
v -0.309410 0.541047 0.291797
v -0.312003 0.558346 0.285539
v -0.305287 0.558346 0.297171
v -0.305287 0.541047 0.297171
v -0.309410 0.558346 0.291797
v 0.325230 0.541047 0.303887
v 0.318515 0.541047 0.304771
v 0.325230 0.558346 0.303887
v 0.325230 0.558346 0.303887
v 0.331489 0.558346 0.301294
v 0.325230 0.541047 0.303887
v 0.331489 0.558346 0.301294
v 0.336863 0.558346 0.297171
v 0.331489 0.541047 0.301294
v 0.343578 0.558346 -0.212256
v 0.343578 0.541047 -0.212256
v 0.344463 0.558346 -0.205540
v 0.318798 0.558346 0.335043
v 0.478527 0.558346 0.437669
v 0.318503 0.558346 0.337282
v 0.318798 0.558346 0.335043
v 0.318798 0.541047 0.335043
v 0.318798 0.558346 0.309095
v 0.318798 0.541047 0.309095
v 0.326359 0.541047 0.308100
v 0.318798 0.558346 0.309095
v 0.333670 0.541047 0.305072
v 0.326359 0.541047 0.308100
v 0.331489 0.541047 0.301294
v 0.336863 0.541047 0.297171
v 0.333670 0.541047 0.305072
v 0.331489 0.541047 0.301294
v 0.340986 0.558346 0.291797
v 0.340986 0.541047 0.291797
v 0.336863 0.558346 0.297171
v 0.336863 0.541047 0.297171
v 0.331489 0.541047 0.301294
v 0.336863 0.558346 0.297171
v 0.343578 0.541047 0.285539
v 0.343578 0.558346 0.285539
v 0.344463 0.541047 0.278823
v 0.343578 0.558346 0.285539
v 0.343578 0.541047 0.285539
v 0.340986 0.558346 0.291797
v 0.344463 0.558346 -0.205540
v 0.344463 0.541047 -0.205540
v 0.344463 0.558346 0.278823
v 0.344463 0.558346 0.278823
v 0.344463 0.541047 0.278823
v 0.343578 0.558346 0.285539
v 0.317639 0.558346 0.339368
v 0.478527 0.558346 0.437669
v 0.316265 0.558346 0.341159
v 0.316265 0.558346 0.341159
v 0.314473 0.558346 0.342534
v 0.316265 0.541047 0.341159
v 0.314473 0.541047 0.342534
v 0.316265 0.541047 0.341159
v 0.314473 0.558346 0.342534
v 0.314473 0.541047 0.342534
v 0.312387 0.541047 0.343398
v 0.318515 0.541047 0.304771
v 0.148345 0.541047 0.341159
v 0.146970 0.541047 0.339368
v 0.318515 0.541047 0.304771
v 0.146970 0.541047 0.339368
v 0.146106 0.541047 0.337282
v 0.318515 0.541047 0.304771
v 0.146106 0.541047 0.337282
v 0.146106 0.558346 0.337282
v 0.145811 0.541047 0.335043
v 0.145811 0.558346 0.335043
v 0.146106 0.558346 0.337282
v 0.141487 0.558346 0.310254
v 0.141487 0.558346 0.310254
v 0.139401 0.558346 0.309390
v 0.141487 0.541047 0.310254
v 0.143278 0.541047 0.311629
v 0.141487 0.541047 0.310254
v 0.318515 0.541047 0.304771
v 0.325230 0.541047 0.303887
v 0.318798 0.541047 0.309095
v 0.318515 0.541047 0.304771
v 0.331489 0.541047 0.301294
v 0.325230 0.541047 0.303887
v 0.331489 0.558346 0.301294
v 0.318503 0.558346 0.337282
v 0.478527 0.558346 0.437669
v 0.317639 0.558346 0.339368
v 0.318503 0.558346 0.337282
v 0.318503 0.541047 0.337282
v 0.318798 0.558346 0.335043
v 0.318798 0.541047 0.309095
v 0.318798 0.558346 0.309095
v 0.318798 0.541047 0.335043
v 0.318798 0.541047 0.335043
v 0.318798 0.558346 0.335043
v 0.318503 0.541047 0.337282
v 0.326359 0.541047 0.308100
v 0.318798 0.541047 0.309095
v 0.325230 0.541047 0.303887
v 0.331489 0.541047 0.301294
v 0.326359 0.541047 0.308100
v 0.325230 0.541047 0.303887
v 0.316265 0.558346 0.341159
v 0.316265 0.541047 0.341159
v 0.317639 0.558346 0.339368
v 0.316265 0.541047 0.341159
v 0.314473 0.541047 0.342534
v 0.318515 0.541047 0.304771
v 0.146106 0.541047 0.337282
v 0.145811 0.541047 0.317745
v 0.318515 0.541047 0.304771
v 0.145811 0.558346 0.335043
v 0.145811 0.541047 0.335043
v 0.146106 0.558346 0.337282
v 0.145811 0.541047 0.335043
v 0.145811 0.541047 0.317745
v 0.146106 0.541047 0.337282
v 0.143278 0.558346 0.311629
v 0.145811 0.558346 0.335043
v 0.141487 0.558346 0.310254
v 0.141487 0.541047 0.310254
v 0.143278 0.541047 0.311629
v 0.141487 0.558346 0.310254
v 0.144653 0.541047 0.313420
v 0.143278 0.541047 0.311629
v 0.318515 0.541047 0.304771
v 0.318798 0.541047 0.309095
v 0.318798 0.541047 0.335043
v 0.318515 0.541047 0.304771
v 0.317639 0.558346 0.339368
v 0.317639 0.541047 0.339368
v 0.318503 0.558346 0.337282
v 0.318503 0.541047 0.337282
v 0.318503 0.558346 0.337282
v 0.317639 0.541047 0.339368
v 0.318798 0.541047 0.335043
v 0.318503 0.541047 0.337282
v 0.318515 0.541047 0.304771
v 0.317639 0.541047 0.339368
v 0.317639 0.558346 0.339368
v 0.316265 0.541047 0.341159
v 0.317639 0.541047 0.339368
v 0.316265 0.541047 0.341159
v 0.318515 0.541047 0.304771
v 0.145811 0.541047 0.317745
v 0.145517 0.541047 0.315506
v 0.318515 0.541047 0.304771
v 0.145811 0.541047 0.335043
v 0.145811 0.558346 0.335043
v 0.145811 0.541047 0.317745
v 0.144653 0.558346 0.313420
v 0.145811 0.558346 0.335043
v 0.143278 0.558346 0.311629
v 0.143278 0.558346 0.311629
v 0.141487 0.558346 0.310254
v 0.143278 0.541047 0.311629
v 0.144653 0.541047 0.313420
v 0.144653 0.558346 0.313420
v 0.143278 0.541047 0.311629
v 0.145517 0.541047 0.315506
v 0.144653 0.541047 0.313420
v 0.318515 0.541047 0.304771
v 0.318503 0.541047 0.337282
v 0.317639 0.541047 0.339368
v 0.318515 0.541047 0.304771
v 0.145811 0.541047 0.317745
v 0.145811 0.558346 0.317745
v 0.145517 0.541047 0.315506
v 0.145811 0.558346 0.317745
v 0.145811 0.541047 0.317745
v 0.145811 0.558346 0.335043
v 0.145517 0.558346 0.315506
v 0.145811 0.558346 0.335043
v 0.144653 0.558346 0.313420
v 0.143278 0.558346 0.311629
v 0.143278 0.541047 0.311629
v 0.144653 0.558346 0.313420
v 0.144653 0.558346 0.313420
v 0.144653 0.541047 0.313420
v 0.145517 0.558346 0.315506
v 0.145517 0.541047 0.315506
v 0.145517 0.558346 0.315506
v 0.144653 0.541047 0.313420
v 0.145517 0.558346 0.315506
v 0.145517 0.541047 0.315506
v 0.145811 0.558346 0.317745
v 0.145811 0.558346 0.335043
v 0.145517 0.558346 0.315506
v 0.145811 0.558346 0.317745
v 0.478527 0.800527 -0.401316
v 0.478527 0.558346 -0.343083
v 0.478527 0.786447 -0.435913
v -0.446952 0.800527 -0.401316
v 0.478527 0.786447 -0.435913
v -0.446952 0.786447 -0.435913
v -0.446952 0.558346 -0.343083
v -0.446952 0.800527 -0.401316
v -0.446952 0.786447 -0.435913
v -0.446952 0.558686 -0.262654
v -0.446952 0.558346 -0.343083
v -0.446952 0.558346 -0.255772
v -0.446952 -0.669860 -0.401316
v -0.446952 0.558346 -0.255772
v -0.446952 0.558346 -0.343083
v 0.478527 0.558346 -0.343083
v 0.478527 -0.669860 -0.401316
v 0.478527 0.558346 -0.401316
v 0.478527 0.601864 -0.320466
v 0.478527 0.558346 -0.343083
v 0.478527 0.800527 -0.401316
v 0.478527 0.786447 -0.435913
v -0.446952 0.800527 -0.401316
v 0.478527 0.800527 -0.401316
v -0.446952 0.558346 -0.343083
v -0.446952 0.601864 -0.320466
v -0.446952 0.800527 -0.401316
v -0.446952 -0.669860 -0.401316
v -0.446952 0.558346 -0.343083
v -0.446952 0.558346 -0.401316
v 0.478527 0.558346 -0.255772
v -0.446952 0.558686 -0.262654
v -0.446952 0.558346 -0.255772
v -0.446952 0.558346 -0.255772
v -0.287222 0.558346 -0.235813
v 0.478527 0.558346 -0.255772
v 0.478527 0.558346 -0.343083
v 0.478527 0.558686 -0.262654
v 0.478527 0.558346 -0.255772
v 0.478527 0.558346 -0.255772
v 0.478527 -0.669860 -0.401316
v 0.478527 0.558346 -0.343083
v -0.446952 0.558346 -0.343083
v -0.446952 0.558686 -0.262654
v -0.446952 0.559702 -0.269469
v -0.446952 -0.669860 0.437669
v -0.446952 0.558346 -0.255772
v -0.446952 -0.669860 -0.401316
v 0.478527 0.558346 -0.401316
v 0.478527 -0.669860 -0.401316
v 0.478527 0.515964 -0.401316
v 0.478527 0.595617 -0.317557
v 0.478527 0.558346 -0.343083
v 0.478527 0.601864 -0.320466
v 0.355391 0.661883 -0.344892
v 0.478527 0.601864 -0.320466
v 0.478527 0.800527 -0.401316
v -0.446952 0.800527 -0.401316
v 0.299344 0.787211 -0.395897
v 0.478527 0.800527 -0.401316
v -0.446952 0.558346 -0.343083
v -0.446952 0.595617 -0.317557
v -0.446952 0.601864 -0.320466
v -0.446952 0.601864 -0.320466
v 0.278830 0.642882 -0.337159
v -0.446952 0.800527 -0.401316
v -0.446952 -0.669860 -0.401316
v -0.446952 0.558346 -0.401316
v -0.446952 0.515964 -0.401316
v -0.446952 0.558686 -0.262654
v 0.478527 0.558346 -0.255772
v 0.478527 0.558686 -0.262654
v -0.287222 0.558346 -0.235813
v -0.446952 0.558346 -0.255772
v -0.294784 0.558346 -0.234817
v 0.478527 0.558346 -0.255772
v -0.287222 0.558346 -0.235813
v 0.318798 0.558346 -0.235813
v 0.478527 0.558686 -0.262654
v 0.478527 0.558346 -0.343083
v 0.478527 0.559702 -0.269469
v 0.478527 0.558346 0.437669
v 0.478527 -0.669860 -0.401316
v 0.478527 0.558346 -0.255772
v 0.478527 0.558686 -0.262654
v -0.446952 0.559702 -0.269469
v -0.446952 0.558686 -0.262654
v -0.446952 0.558346 -0.343083
v -0.446952 0.559702 -0.269469
v -0.446952 0.561385 -0.276151
v -0.446952 0.558346 -0.255772
v -0.446952 -0.669860 0.437669
v -0.446952 0.558346 0.437669
v 0.478527 0.589688 -0.314047
v 0.478527 0.558346 -0.343083
v 0.478527 0.595617 -0.317557
v 0.478527 0.601864 -0.320466
v -0.446952 0.595617 -0.317557
v 0.478527 0.595617 -0.317557
v 0.338975 0.650216 -0.340144
v 0.478527 0.601864 -0.320466
v 0.355391 0.661883 -0.344892
v 0.355391 0.661883 -0.344892
v 0.478527 0.800527 -0.401316
v 0.367988 0.677088 -0.351080
v -0.446952 0.800527 -0.401316
v 0.278830 0.784710 -0.394879
v 0.299344 0.787211 -0.395897
v 0.319859 0.784710 -0.394879
v 0.478527 0.800527 -0.401316
v 0.299344 0.787211 -0.395897
v -0.446952 0.558346 -0.343083
v -0.446952 0.589688 -0.314047
v -0.446952 0.595617 -0.317557
v -0.446952 0.595617 -0.317557
v 0.478527 0.601864 -0.320466
v -0.446952 0.601864 -0.320466
v 0.278830 0.642882 -0.337159
v -0.446952 0.601864 -0.320466
v 0.299344 0.640380 -0.336141
v -0.446952 0.800527 -0.401316
v 0.278830 0.642882 -0.337159
v 0.269271 0.646549 -0.338652
v -0.294784 0.558346 -0.234817
v -0.446952 0.558346 -0.255772
v -0.302094 0.558346 -0.231789
v -0.294784 0.541047 -0.234817
v -0.287222 0.558346 -0.235813
v -0.294784 0.558346 -0.234817
v -0.287222 0.541047 -0.235813
v 0.318798 0.558346 -0.235813
v -0.287222 0.558346 -0.235813
v 0.478527 0.558346 -0.255772
v 0.318798 0.558346 -0.235813
v 0.326359 0.558346 -0.234817
v 0.478527 0.559702 -0.269469
v 0.478527 0.558346 -0.343083
v 0.478527 0.561385 -0.276151
v -0.446952 0.559702 -0.269469
v 0.478527 0.558686 -0.262654
v 0.478527 0.559702 -0.269469
v 0.478527 -0.669860 -0.401316
v 0.478527 0.558346 0.437669
v 0.478527 -0.669860 0.437669
v 0.478527 0.558346 -0.255772
v 0.348787 0.558346 -0.205823
v 0.478527 0.558346 0.437669
v 0.478527 0.559702 -0.269469
v -0.446952 0.561385 -0.276151
v -0.446952 0.559702 -0.269469
v -0.446952 0.558346 -0.343083
v -0.446952 0.561385 -0.276151
v -0.446952 0.563718 -0.282635
v -0.446952 -0.669860 0.437669
v 0.478527 0.558346 0.437669
v -0.446952 0.558346 0.437669
v -0.446952 0.558346 0.437669
v -0.316216 0.558346 0.286667
v -0.446952 0.558346 -0.255772
v 0.478527 0.584133 -0.309970
v 0.478527 0.558346 -0.343083
v 0.478527 0.589688 -0.314047
v 0.478527 0.595617 -0.317557
v -0.446952 0.589688 -0.314047
v 0.478527 0.589688 -0.314047
v -0.446952 0.589688 -0.314047
v 0.478527 0.595617 -0.317557
v -0.446952 0.595617 -0.317557
v 0.319859 0.642882 -0.337159
v 0.478527 0.601864 -0.320466
v 0.338975 0.650216 -0.340144
v 0.367988 0.677088 -0.351080
v 0.478527 0.800527 -0.401316
v 0.371947 0.685941 -0.354683
v -0.446952 0.800527 -0.401316
v 0.269271 0.781043 -0.393387
v 0.278830 0.784710 -0.394879
v 0.329417 0.781043 -0.393387
v 0.478527 0.800527 -0.401316
v 0.319859 0.784710 -0.394879
v -0.446952 0.558346 -0.343083
v -0.446952 0.584133 -0.309970
v -0.446952 0.589688 -0.314047
v 0.478527 0.601864 -0.320466
v 0.299344 0.640380 -0.336141
v -0.446952 0.601864 -0.320466
v -0.446952 0.800527 -0.401316
v 0.269271 0.646549 -0.338652
v 0.259713 0.650216 -0.340144
v -0.302094 0.558346 -0.231789
v -0.446952 0.558346 -0.255772
v -0.308371 0.558346 -0.226972
v -0.302094 0.541047 -0.231789
v -0.294784 0.558346 -0.234817
v -0.302094 0.558346 -0.231789
v -0.287222 0.558346 -0.235813
v -0.294784 0.541047 -0.234817
v -0.287222 0.541047 -0.235813
v -0.294784 0.558346 -0.234817
v -0.302094 0.541047 -0.231789
v -0.294784 0.541047 -0.234817
v 0.318798 0.558346 -0.235813
v -0.287222 0.541047 -0.235813
v 0.318798 0.541047 -0.235813
v 0.318798 0.541047 -0.235813
v 0.326359 0.558346 -0.234817
v 0.318798 0.558346 -0.235813
v 0.478527 0.558346 -0.255772
v 0.326359 0.558346 -0.234817
v 0.333670 0.558346 -0.231789
v 0.478527 0.561385 -0.276151
v 0.478527 0.558346 -0.343083
v 0.478527 0.563718 -0.282635
v -0.446952 0.561385 -0.276151
v 0.478527 0.559702 -0.269469
v 0.478527 0.561385 -0.276151
v 0.478527 0.558346 0.437669
v -0.446952 -0.669860 0.437669
v 0.478527 -0.669860 0.437669
v 0.478527 0.558346 -0.255772
v 0.347792 0.558346 -0.213385
v 0.348787 0.558346 -0.205823
v 0.348787 0.558346 0.279106
v 0.478527 0.558346 0.437669
v 0.348787 0.558346 -0.205823
v 0.478527 0.561385 -0.276151
v -0.446952 0.563718 -0.282635
v -0.446952 0.561385 -0.276151
v -0.446952 0.558346 -0.343083
v -0.446952 0.563718 -0.282635
v -0.446952 0.566678 -0.288857
v -0.294784 0.558346 0.308100
v -0.446952 0.558346 0.437669
v 0.478527 0.558346 0.437669
v -0.316216 0.558346 0.286667
v -0.446952 0.558346 0.437669
v -0.313188 0.558346 0.293978
v -0.446952 0.558346 -0.255772
v -0.316216 0.558346 0.286667
v -0.317211 0.558346 0.279106
v 0.478527 0.579008 -0.305365
v 0.478527 0.558346 -0.343083
v 0.478527 0.584133 -0.309970
v 0.478527 0.589688 -0.314047
v -0.446952 0.584133 -0.309970
v 0.478527 0.584133 -0.309970
v -0.446952 0.584133 -0.309970
v 0.478527 0.589688 -0.314047
v -0.446952 0.589688 -0.314047
v 0.299344 0.640380 -0.336141
v 0.478527 0.601864 -0.320466
v 0.319859 0.642882 -0.337159
v 0.319859 0.642882 -0.337159
v 0.338975 0.650216 -0.340144
v 0.329417 0.646549 -0.338652
v 0.371947 0.685941 -0.354683
v 0.478527 0.800527 -0.401316
v 0.375906 0.694794 -0.358286
v -0.446952 0.800527 -0.401316
v 0.259713 0.777376 -0.391894
v 0.269271 0.781043 -0.393387
v 0.338975 0.777376 -0.391894
v 0.478527 0.800527 -0.401316
v 0.329417 0.781043 -0.393387
v -0.446952 0.558346 -0.343083
v -0.446952 0.579008 -0.305365
v -0.446952 0.584133 -0.309970
v -0.446952 0.800527 -0.401316
v 0.259713 0.650216 -0.340144
v 0.243297 0.661883 -0.344892
v -0.308371 0.558346 -0.226972
v -0.446952 0.558346 -0.255772
v -0.313188 0.558346 -0.220695
v -0.308371 0.541047 -0.226972
v -0.302094 0.558346 -0.231789
v -0.308371 0.558346 -0.226972
v -0.302094 0.558346 -0.231789
v -0.308371 0.541047 -0.226972
v -0.302094 0.541047 -0.231789
v -0.294784 0.541047 -0.234817
v -0.293655 0.541047 -0.230604
v -0.287222 0.541047 -0.235813
v -0.302094 0.541047 -0.231789
v -0.299913 0.541047 -0.228012
v -0.294784 0.541047 -0.234817
v -0.287222 0.541047 -0.235813
v -0.286939 0.541047 -0.231488
v 0.318798 0.541047 -0.235813
v 0.326359 0.558346 -0.234817
v 0.318798 0.541047 -0.235813
v 0.326359 0.541047 -0.234817
v 0.326359 0.541047 -0.234817
v 0.333670 0.558346 -0.231789
v 0.326359 0.558346 -0.234817
v 0.478527 0.558346 -0.255772
v 0.333670 0.558346 -0.231789
v 0.339947 0.558346 -0.226972
v 0.478527 0.563718 -0.282635
v 0.478527 0.558346 -0.343083
v 0.478527 0.566678 -0.288857
v -0.446952 0.563718 -0.282635
v 0.478527 0.561385 -0.276151
v 0.478527 0.563718 -0.282635
v 0.478527 0.558346 -0.255772
v 0.344764 0.558346 -0.220695
v 0.347792 0.558346 -0.213385
v 0.347792 0.558346 -0.213385
v 0.348787 0.541047 -0.205823
v 0.348787 0.558346 -0.205823
v 0.347792 0.558346 0.286667
v 0.478527 0.558346 0.437669
v 0.348787 0.558346 0.279106
v 0.348787 0.558346 -0.205823
v 0.348787 0.541047 0.279106
v 0.348787 0.558346 0.279106
v 0.478527 0.563718 -0.282635
v -0.446952 0.566678 -0.288857
v -0.446952 0.563718 -0.282635
v -0.446952 0.558346 -0.343083
v -0.446952 0.566678 -0.288857
v -0.446952 0.570237 -0.294757
v -0.302094 0.558346 0.305072
v -0.446952 0.558346 0.437669
v -0.294784 0.558346 0.308100
v -0.294784 0.558346 0.308100
v 0.478527 0.558346 0.437669
v -0.287222 0.558346 0.309095
v -0.313188 0.558346 0.293978
v -0.446952 0.558346 0.437669
v -0.308371 0.558346 0.300255
v -0.313188 0.558346 0.293978
v -0.316216 0.541047 0.286667
v -0.316216 0.558346 0.286667
v -0.316216 0.558346 0.286667
v -0.317211 0.541047 0.279106
v -0.317211 0.558346 0.279106
v -0.446952 0.558346 -0.255772
v -0.317211 0.558346 0.279106
v -0.317211 0.558346 -0.205823
v 0.478527 0.574361 -0.300277
v 0.478527 0.558346 -0.343083
v 0.478527 0.579008 -0.305365
v 0.478527 0.584133 -0.309970
v -0.446952 0.579008 -0.305365
v 0.478527 0.579008 -0.305365
v -0.446952 0.579008 -0.305365
v 0.478527 0.584133 -0.309970
v -0.446952 0.584133 -0.309970
v 0.375906 0.694794 -0.358286
v 0.478527 0.800527 -0.401316
v 0.378607 0.713796 -0.366019
v -0.446952 0.800527 -0.401316
v 0.243297 0.765709 -0.387146
v 0.259713 0.777376 -0.391894
v 0.355391 0.765709 -0.387146
v 0.478527 0.800527 -0.401316
v 0.338975 0.777376 -0.391894
v -0.446952 0.558346 -0.343083
v -0.446952 0.574361 -0.300277
v -0.446952 0.579008 -0.305365
v -0.446952 0.800527 -0.401316
v 0.243297 0.661883 -0.344892
v 0.230701 0.677088 -0.351080
v -0.313188 0.558346 -0.220695
v -0.446952 0.558346 -0.255772
v -0.316216 0.558346 -0.213385
v -0.313188 0.558346 -0.220695
v -0.308371 0.541047 -0.226972
v -0.308371 0.558346 -0.226972
v -0.308371 0.541047 -0.226972
v -0.305287 0.541047 -0.223888
v -0.302094 0.541047 -0.231789
v -0.294784 0.541047 -0.234817
v -0.299913 0.541047 -0.228012
v -0.293655 0.541047 -0.230604
v -0.287222 0.541047 -0.235813
v -0.293655 0.541047 -0.230604
v -0.286939 0.541047 -0.231488
v -0.302094 0.541047 -0.231789
v -0.305287 0.541047 -0.223888
v -0.299913 0.541047 -0.228012
v 0.318798 0.541047 -0.235813
v -0.286939 0.541047 -0.231488
v 0.318515 0.541047 -0.231488
v 0.318798 0.541047 -0.235813
v 0.325230 0.541047 -0.230604
v 0.326359 0.541047 -0.234817
v 0.333670 0.558346 -0.231789
v 0.326359 0.541047 -0.234817
v 0.333670 0.541047 -0.231789
v 0.333670 0.541047 -0.231789
v 0.339947 0.558346 -0.226972
v 0.333670 0.558346 -0.231789
v 0.478527 0.558346 -0.255772
v 0.339947 0.558346 -0.226972
v 0.344764 0.558346 -0.220695
v 0.478527 0.566678 -0.288857
v 0.478527 0.558346 -0.343083
v 0.478527 0.570237 -0.294757
v -0.446952 0.566678 -0.288857
v 0.478527 0.563718 -0.282635
v 0.478527 0.566678 -0.288857
v 0.344764 0.558346 -0.220695
v 0.347792 0.541047 -0.213385
v 0.347792 0.558346 -0.213385
v 0.348787 0.541047 -0.205823
v 0.347792 0.558346 -0.213385
v 0.347792 0.541047 -0.213385
v 0.348787 0.541047 0.279106
v 0.348787 0.558346 -0.205823
v 0.348787 0.541047 -0.205823
v 0.344764 0.558346 0.293978
v 0.478527 0.558346 0.437669
v 0.347792 0.558346 0.286667
v 0.348787 0.558346 0.279106
v 0.347792 0.541047 0.286667
v 0.347792 0.558346 0.286667
v 0.347792 0.541047 0.286667
v 0.348787 0.558346 0.279106
v 0.348787 0.541047 0.279106
v 0.478527 0.566678 -0.288857
v -0.446952 0.570237 -0.294757
v -0.446952 0.566678 -0.288857
v -0.446952 0.558346 -0.343083
v -0.446952 0.570237 -0.294757
v -0.446952 0.574361 -0.300277
v -0.308371 0.558346 0.300255
v -0.446952 0.558346 0.437669
v -0.302094 0.558346 0.305072
v -0.294784 0.541047 0.308100
v -0.302094 0.558346 0.305072
v -0.294784 0.558346 0.308100
v -0.287222 0.558346 0.309095
v 0.478527 0.558346 0.437669
v 0.152222 0.558346 0.343398
v -0.287222 0.541047 0.309095
v -0.294784 0.558346 0.308100
v -0.287222 0.558346 0.309095
v -0.308371 0.558346 0.300255
v -0.313188 0.541047 0.293978
v -0.313188 0.558346 0.293978
v -0.316216 0.541047 0.286667
v -0.313188 0.558346 0.293978
v -0.313188 0.541047 0.293978
v -0.317211 0.541047 0.279106
v -0.316216 0.558346 0.286667
v -0.316216 0.541047 0.286667
v -0.317211 0.541047 -0.205823
v -0.317211 0.558346 0.279106
v -0.317211 0.541047 0.279106
v -0.317211 0.558346 0.279106
v -0.317211 0.541047 -0.205823
v -0.317211 0.558346 -0.205823
v -0.316216 0.558346 -0.213385
v -0.446952 0.558346 -0.255772
v -0.317211 0.558346 -0.205823
v 0.478527 0.570237 -0.294757
v 0.478527 0.558346 -0.343083
v 0.478527 0.574361 -0.300277
v -0.446952 0.579008 -0.305365
v 0.478527 0.574361 -0.300277
v 0.478527 0.579008 -0.305365
v 0.378607 0.713796 -0.366019
v 0.478527 0.800527 -0.401316
v 0.375906 0.732797 -0.373752
v -0.446952 0.800527 -0.401316
v 0.230701 0.750504 -0.380958
v 0.243297 0.765709 -0.387146
v 0.367988 0.750504 -0.380958
v 0.478527 0.800527 -0.401316
v 0.355391 0.765709 -0.387146
v 0.478527 0.574361 -0.300277
v -0.446952 0.579008 -0.305365
v -0.446952 0.574361 -0.300277
v -0.446952 0.800527 -0.401316
v 0.230701 0.677088 -0.351080
v 0.226742 0.685941 -0.354683
v -0.316216 0.558346 -0.213385
v -0.313188 0.541047 -0.220695
v -0.313188 0.558346 -0.220695
v -0.308371 0.541047 -0.226972
v -0.313188 0.558346 -0.220695
v -0.313188 0.541047 -0.220695
v -0.308371 0.541047 -0.226972
v -0.309410 0.541047 -0.218514
v -0.305287 0.541047 -0.223888
v -0.299913 0.558346 -0.228012
v -0.293655 0.541047 -0.230604
v -0.299913 0.541047 -0.228012
v -0.293655 0.558346 -0.230604
v -0.286939 0.541047 -0.231488
v -0.293655 0.541047 -0.230604
v -0.305287 0.558346 -0.223888
v -0.299913 0.541047 -0.228012
v -0.305287 0.541047 -0.223888
v -0.286939 0.558346 -0.231488
v 0.318515 0.541047 -0.231488
v -0.286939 0.541047 -0.231488
v 0.318798 0.541047 -0.235813
v 0.318515 0.541047 -0.231488
v 0.325230 0.541047 -0.230604
v 0.326359 0.541047 -0.234817
v 0.325230 0.541047 -0.230604
v 0.331489 0.541047 -0.228012
v 0.326359 0.541047 -0.234817
v 0.331489 0.541047 -0.228012
v 0.333670 0.541047 -0.231789
v 0.339947 0.558346 -0.226972
v 0.333670 0.541047 -0.231789
v 0.339947 0.541047 -0.226972
v 0.339947 0.558346 -0.226972
v 0.344764 0.541047 -0.220695
v 0.344764 0.558346 -0.220695
v -0.446952 0.570237 -0.294757
v 0.478527 0.566678 -0.288857
v 0.478527 0.570237 -0.294757
v 0.347792 0.541047 -0.213385
v 0.344764 0.558346 -0.220695
v 0.344764 0.541047 -0.220695
v 0.347792 0.541047 -0.213385
v 0.348787 0.541047 0.279106
v 0.348787 0.541047 -0.205823
v 0.339947 0.558346 0.300255
v 0.478527 0.558346 0.437669
v 0.344764 0.558346 0.293978
v 0.347792 0.558346 0.286667
v 0.344764 0.541047 0.293978
v 0.344764 0.558346 0.293978
v 0.344764 0.541047 0.293978
v 0.347792 0.558346 0.286667
v 0.347792 0.541047 0.286667
v 0.347792 0.541047 -0.213385
v 0.347792 0.541047 0.286667
v 0.348787 0.541047 0.279106
v 0.478527 0.570237 -0.294757
v -0.446952 0.574361 -0.300277
v -0.446952 0.570237 -0.294757
v -0.302094 0.541047 0.305072
v -0.308371 0.558346 0.300255
v -0.302094 0.558346 0.305072
v -0.302094 0.558346 0.305072
v -0.294784 0.541047 0.308100
v -0.302094 0.541047 0.305072
v -0.294784 0.558346 0.308100
v -0.287222 0.541047 0.309095
v -0.294784 0.541047 0.308100
v 0.152222 0.558346 0.343398
v 0.478527 0.558346 0.437669
v 0.154461 0.558346 0.343693
v -0.287222 0.558346 0.309095
v 0.152222 0.558346 0.343398
v 0.150136 0.558346 0.342534
v -0.287222 0.558346 0.309095
v 0.137162 0.541047 0.309095
v -0.287222 0.541047 0.309095
v -0.313188 0.541047 0.293978
v -0.308371 0.558346 0.300255
v -0.308371 0.541047 0.300255
v -0.316216 0.541047 -0.213385
v -0.316216 0.541047 0.286667
v -0.313188 0.541047 0.293978
v -0.316216 0.541047 -0.213385
v -0.317211 0.541047 0.279106
v -0.316216 0.541047 0.286667
v -0.317211 0.541047 0.279106
v -0.316216 0.541047 -0.213385
v -0.317211 0.541047 -0.205823
v -0.316216 0.541047 -0.213385
v -0.317211 0.558346 -0.205823
v -0.317211 0.541047 -0.205823
v -0.317211 0.558346 -0.205823
v -0.316216 0.541047 -0.213385
v -0.316216 0.558346 -0.213385
v -0.446952 0.574361 -0.300277
v 0.478527 0.570237 -0.294757
v 0.478527 0.574361 -0.300277
v 0.375906 0.732797 -0.373752
v 0.478527 0.800527 -0.401316
v 0.371947 0.741650 -0.377355
v -0.446952 0.800527 -0.401316
v 0.226742 0.741650 -0.377355
v 0.230701 0.750504 -0.380958
v 0.371947 0.741650 -0.377355
v 0.478527 0.800527 -0.401316
v 0.367988 0.750504 -0.380958
v -0.446952 0.800527 -0.401316
v 0.226742 0.685941 -0.354683
v 0.222782 0.694794 -0.358286
v -0.313188 0.541047 -0.220695
v -0.316216 0.558346 -0.213385
v -0.316216 0.541047 -0.213385
v -0.313188 0.541047 -0.220695
v -0.312003 0.541047 -0.212256
v -0.308371 0.541047 -0.226972
v -0.308371 0.541047 -0.226972
v -0.312003 0.541047 -0.212256
v -0.309410 0.541047 -0.218514
v -0.309410 0.541047 -0.218514
v -0.305287 0.558346 -0.223888
v -0.305287 0.541047 -0.223888
v -0.293655 0.541047 -0.230604
v -0.299913 0.558346 -0.228012
v -0.293655 0.558346 -0.230604
v -0.299913 0.541047 -0.228012
v -0.305287 0.558346 -0.223888
v -0.299913 0.558346 -0.228012
v -0.286939 0.541047 -0.231488
v -0.293655 0.558346 -0.230604
v -0.286939 0.558346 -0.231488
v 0.318515 0.541047 -0.231488
v -0.286939 0.558346 -0.231488
v 0.318515 0.558346 -0.231488
v 0.318515 0.558346 -0.231488
v 0.325230 0.541047 -0.230604
v 0.318515 0.541047 -0.231488
v 0.325230 0.558346 -0.230604
v 0.331489 0.541047 -0.228012
v 0.325230 0.541047 -0.230604
v 0.333670 0.541047 -0.231789
v 0.331489 0.541047 -0.228012
v 0.336863 0.541047 -0.223888
v 0.333670 0.541047 -0.231789
v 0.336863 0.541047 -0.223888
v 0.339947 0.541047 -0.226972
v 0.344764 0.541047 -0.220695
v 0.339947 0.558346 -0.226972
v 0.339947 0.541047 -0.226972
v 0.344764 0.541047 -0.220695
v 0.347792 0.541047 0.286667
v 0.347792 0.541047 -0.213385
v 0.333670 0.558346 0.305072
v 0.478527 0.558346 0.437669
v 0.339947 0.558346 0.300255
v 0.344764 0.558346 0.293978
v 0.339947 0.541047 0.300255
v 0.339947 0.558346 0.300255
v 0.339947 0.541047 0.300255
v 0.344764 0.558346 0.293978
v 0.344764 0.541047 0.293978
v 0.344764 0.541047 -0.220695
v 0.344764 0.541047 0.293978
v 0.347792 0.541047 0.286667
v -0.308371 0.558346 0.300255
v -0.302094 0.541047 0.305072
v -0.308371 0.541047 0.300255
v -0.299913 0.541047 0.301294
v -0.302094 0.541047 0.305072
v -0.294784 0.541047 0.308100
v -0.293655 0.541047 0.303887
v -0.294784 0.541047 0.308100
v -0.287222 0.541047 0.309095
v 0.154461 0.558346 0.343693
v 0.478527 0.558346 0.437669
v 0.310149 0.558346 0.343693
v 0.154461 0.541047 0.343693
v 0.152222 0.558346 0.343398
v 0.154461 0.558346 0.343693
v 0.152222 0.541047 0.343398
v 0.150136 0.558346 0.342534
v 0.152222 0.558346 0.343398
v -0.287222 0.558346 0.309095
v 0.150136 0.558346 0.342534
v 0.148345 0.558346 0.341159
v 0.137162 0.541047 0.309095
v -0.287222 0.558346 0.309095
v 0.137162 0.558346 0.309095
v -0.286939 0.541047 0.304771
v -0.287222 0.541047 0.309095
v 0.137162 0.541047 0.309095
v -0.312003 0.541047 0.285539
v -0.313188 0.541047 0.293978
v -0.308371 0.541047 0.300255
v -0.316216 0.541047 -0.213385
v -0.313188 0.541047 0.293978
v -0.313188 0.541047 -0.220695
v -0.446952 0.800527 -0.401316
v 0.222782 0.732797 -0.373752
v 0.226742 0.741650 -0.377355
v -0.446952 0.800527 -0.401316
v 0.222782 0.694794 -0.358286
v 0.220082 0.713796 -0.366019
v -0.312003 0.541047 -0.212256
v -0.313188 0.541047 -0.220695
v -0.312887 0.541047 -0.205540
v -0.312003 0.541047 -0.212256
v -0.309410 0.558346 -0.218514
v -0.309410 0.541047 -0.218514
v -0.305287 0.558346 -0.223888
v -0.309410 0.541047 -0.218514
v -0.309410 0.558346 -0.218514
v 0.325230 0.541047 -0.230604
v 0.318515 0.558346 -0.231488
v 0.325230 0.558346 -0.230604
v 0.331489 0.541047 -0.228012
v 0.325230 0.558346 -0.230604
v 0.331489 0.558346 -0.228012
v 0.331489 0.558346 -0.228012
v 0.336863 0.541047 -0.223888
v 0.331489 0.541047 -0.228012
v 0.339947 0.541047 -0.226972
v 0.336863 0.541047 -0.223888
v 0.340986 0.541047 -0.218514
v 0.339947 0.541047 -0.226972
v 0.340986 0.541047 -0.218514
v 0.344764 0.541047 -0.220695
v 0.326359 0.558346 0.308100
v 0.478527 0.558346 0.437669
v 0.333670 0.558346 0.305072
v 0.339947 0.541047 0.300255
v 0.333670 0.558346 0.305072
v 0.339947 0.558346 0.300255
v 0.340986 0.541047 0.291797
v 0.339947 0.541047 0.300255
v 0.344764 0.541047 0.293978
v 0.344764 0.541047 -0.220695
v 0.344463 0.541047 -0.205540
v 0.344764 0.541047 0.293978
v -0.305287 0.541047 0.297171
v -0.308371 0.541047 0.300255
v -0.302094 0.541047 0.305072
v -0.305287 0.541047 0.297171
v -0.302094 0.541047 0.305072
v -0.299913 0.541047 0.301294
v -0.299913 0.541047 0.301294
v -0.294784 0.541047 0.308100
v -0.293655 0.541047 0.303887
v -0.293655 0.541047 0.303887
v -0.287222 0.541047 0.309095
v -0.286939 0.541047 0.304771
v 0.310149 0.558346 0.343693
v 0.478527 0.558346 0.437669
v 0.312387 0.558346 0.343398
v 0.310149 0.541047 0.343693
v 0.154461 0.558346 0.343693
v 0.310149 0.558346 0.343693
v 0.152222 0.558346 0.343398
v 0.154461 0.541047 0.343693
v 0.152222 0.541047 0.343398
v 0.154461 0.558346 0.343693
v 0.310149 0.541047 0.343693
v 0.154461 0.541047 0.343693
v 0.150136 0.558346 0.342534
v 0.152222 0.541047 0.343398
v 0.150136 0.541047 0.342534
v 0.150136 0.541047 0.342534
v 0.148345 0.558346 0.341159
v 0.150136 0.558346 0.342534
v -0.287222 0.558346 0.309095
v 0.148345 0.558346 0.341159
v 0.146970 0.558346 0.339368
v -0.287222 0.558346 0.309095
v 0.146106 0.558346 0.337282
v 0.137162 0.558346 0.309095
v 0.137162 0.558346 0.309095
v 0.139401 0.541047 0.309390
v 0.137162 0.541047 0.309095
v -0.286939 0.541047 0.304771
v 0.137162 0.541047 0.309095
v 0.318515 0.541047 0.304771
v -0.312887 0.541047 0.278823
v -0.313188 0.541047 0.293978
v -0.312003 0.541047 0.285539
v -0.312003 0.541047 0.285539
v -0.308371 0.541047 0.300255
v -0.309410 0.541047 0.291797
v -0.313188 0.541047 -0.220695
v -0.313188 0.541047 0.293978
v -0.312887 0.541047 0.278823
v -0.446952 0.800527 -0.401316
v 0.220082 0.713796 -0.366019
v 0.222782 0.732797 -0.373752
v -0.312887 0.541047 -0.205540
v -0.313188 0.541047 -0.220695
v -0.312887 0.541047 0.278823
v -0.312887 0.541047 -0.205540
v -0.312003 0.558346 -0.212256
v -0.312003 0.541047 -0.212256
v -0.309410 0.558346 -0.218514
v -0.312003 0.541047 -0.212256
v -0.312003 0.558346 -0.212256
v 0.336863 0.541047 -0.223888
v 0.331489 0.558346 -0.228012
v 0.336863 0.558346 -0.223888
v 0.336863 0.541047 -0.223888
v 0.340986 0.558346 -0.218514
v 0.340986 0.541047 -0.218514
v 0.344764 0.541047 -0.220695
v 0.340986 0.541047 -0.218514
v 0.343578 0.541047 -0.212256
v 0.318798 0.558346 0.309095
v 0.478527 0.558346 0.437669
v 0.326359 0.558346 0.308100
v 0.333670 0.541047 0.305072
v 0.326359 0.558346 0.308100
v 0.333670 0.558346 0.305072
v 0.333670 0.558346 0.305072
v 0.339947 0.541047 0.300255
v 0.333670 0.541047 0.305072
v 0.336863 0.541047 0.297171
v 0.339947 0.541047 0.300255
v 0.340986 0.541047 0.291797
v 0.340986 0.541047 0.291797
v 0.344764 0.541047 0.293978
v 0.343578 0.541047 0.285539
v 0.344764 0.541047 -0.220695
v 0.343578 0.541047 -0.212256
v 0.344463 0.541047 -0.205540
v 0.344463 0.541047 0.278823
v 0.344764 0.541047 0.293978
v 0.344463 0.541047 -0.205540
v -0.309410 0.541047 0.291797
v -0.308371 0.541047 0.300255
v -0.305287 0.541047 0.297171
v -0.299913 0.558346 0.301294
v -0.305287 0.541047 0.297171
v -0.299913 0.541047 0.301294
v -0.293655 0.558346 0.303887
v -0.299913 0.541047 0.301294
v -0.293655 0.541047 0.303887
v -0.286939 0.558346 0.304771
v -0.293655 0.541047 0.303887
v -0.286939 0.541047 0.304771
v 0.312387 0.558346 0.343398
v 0.478527 0.558346 0.437669
v 0.314473 0.558346 0.342534
v 0.312387 0.541047 0.343398
v 0.310149 0.558346 0.343693
v 0.312387 0.558346 0.343398
v 0.310149 0.558346 0.343693
v 0.312387 0.541047 0.343398
v 0.310149 0.541047 0.343693
v 0.318515 0.541047 0.304771
v 0.152222 0.541047 0.343398
v 0.154461 0.541047 0.343693
v 0.318515 0.541047 0.304771
v 0.154461 0.541047 0.343693
v 0.310149 0.541047 0.343693
v 0.318515 0.541047 0.304771
v 0.150136 0.541047 0.342534
v 0.152222 0.541047 0.343398
v 0.148345 0.558346 0.341159
v 0.150136 0.541047 0.342534
v 0.148345 0.541047 0.341159
v 0.148345 0.558346 0.341159
v 0.146970 0.541047 0.339368
v 0.146970 0.558346 0.339368
v -0.287222 0.558346 0.309095
v 0.146970 0.558346 0.339368
v 0.146106 0.558346 0.337282
v 0.137162 0.558346 0.309095
v 0.146106 0.558346 0.337282
v 0.139401 0.558346 0.309390
v 0.139401 0.541047 0.309390
v 0.137162 0.558346 0.309095
v 0.139401 0.558346 0.309390
v 0.318515 0.541047 0.304771
v 0.137162 0.541047 0.309095
v 0.139401 0.541047 0.309390
v 0.318515 0.558346 0.304771
v -0.286939 0.541047 0.304771
v 0.318515 0.541047 0.304771
v -0.312003 0.541047 0.285539
v -0.312887 0.558346 0.278823
v -0.312887 0.541047 0.278823
v -0.309410 0.541047 0.291797
v -0.312003 0.558346 0.285539
v -0.312003 0.541047 0.285539
v -0.312887 0.541047 0.278823
v -0.312887 0.558346 -0.205540
v -0.312887 0.541047 -0.205540
v -0.312003 0.558346 -0.212256
v -0.312887 0.541047 -0.205540
v -0.312887 0.558346 -0.205540
v -0.299913 0.541047 0.301294
v -0.293655 0.558346 0.303887
v -0.299913 0.558346 0.301294
v -0.293655 0.541047 0.303887
v -0.286939 0.558346 0.304771
v -0.293655 0.558346 0.303887
v -0.305287 0.541047 0.297171
v -0.299913 0.558346 0.301294
v -0.305287 0.558346 0.297171
v -0.286939 0.541047 0.304771
v 0.318515 0.558346 0.304771
v -0.286939 0.558346 0.304771
v 0.318515 0.541047 0.304771
v 0.325230 0.558346 0.303887
v 0.318515 0.558346 0.304771
v 0.340986 0.558346 -0.218514
v 0.336863 0.541047 -0.223888
v 0.336863 0.558346 -0.223888
v 0.343578 0.558346 -0.212256
v 0.340986 0.541047 -0.218514
v 0.340986 0.558346 -0.218514
v 0.340986 0.541047 -0.218514
v 0.343578 0.558346 -0.212256
v 0.343578 0.541047 -0.212256
v 0.318798 0.558346 0.335043
v 0.478527 0.558346 0.437669
v 0.318798 0.558346 0.309095
v 0.326359 0.541047 0.308100
v 0.318798 0.558346 0.309095
v 0.326359 0.558346 0.308100
v 0.326359 0.558346 0.308100
v 0.333670 0.541047 0.305072
v 0.326359 0.541047 0.308100
v 0.336863 0.541047 0.297171
v 0.333670 0.541047 0.305072
v 0.339947 0.541047 0.300255
v 0.340986 0.541047 0.291797
v 0.336863 0.558346 0.297171
v 0.336863 0.541047 0.297171
v 0.343578 0.541047 0.285539
v 0.344764 0.541047 0.293978
v 0.344463 0.541047 0.278823
v 0.343578 0.541047 0.285539
v 0.340986 0.558346 0.291797
v 0.340986 0.541047 0.291797
v 0.343578 0.541047 -0.212256
v 0.344463 0.558346 -0.205540
v 0.344463 0.541047 -0.205540
v 0.344463 0.541047 -0.205540
v 0.344463 0.558346 0.278823
v 0.344463 0.541047 0.278823
v -0.305287 0.541047 0.297171
v -0.309410 0.558346 0.291797
v -0.309410 0.541047 0.291797
v 0.314473 0.558346 0.342534
v 0.478527 0.558346 0.437669
v 0.316265 0.558346 0.341159
v 0.314473 0.541047 0.342534
v 0.312387 0.558346 0.343398
v 0.314473 0.558346 0.342534
v 0.312387 0.558346 0.343398
v 0.314473 0.541047 0.342534
v 0.312387 0.541047 0.343398
v 0.318515 0.541047 0.304771
v 0.310149 0.541047 0.343693
v 0.312387 0.541047 0.343398
v 0.318515 0.541047 0.304771
v 0.148345 0.541047 0.341159
v 0.150136 0.541047 0.342534
v 0.146970 0.541047 0.339368
v 0.148345 0.558346 0.341159
v 0.148345 0.541047 0.341159
v 0.146106 0.541047 0.337282
v 0.146970 0.558346 0.339368
v 0.146970 0.541047 0.339368
v 0.146970 0.558346 0.339368
v 0.146106 0.541047 0.337282
v 0.146106 0.558346 0.337282
v 0.139401 0.558346 0.309390
v 0.146106 0.558346 0.337282
v 0.141487 0.558346 0.310254
v 0.139401 0.558346 0.309390
v 0.141487 0.541047 0.310254
v 0.139401 0.541047 0.309390
v 0.318515 0.541047 0.304771
v 0.139401 0.541047 0.309390
v 0.141487 0.541047 0.310254
v -0.312887 0.558346 0.278823
v -0.312003 0.541047 0.285539
v -0.312003 0.558346 0.285539
v -0.312887 0.558346 -0.205540
v -0.312887 0.541047 0.278823
v -0.312887 0.558346 0.278823
v -0.312003 0.558346 0.285539
v -0.309410 0.541047 0.291797
v -0.309410 0.558346 0.291797
v -0.309410 0.558346 0.291797
v -0.305287 0.541047 0.297171
v -0.305287 0.558346 0.297171
v 0.325230 0.558346 0.303887
v 0.318515 0.541047 0.304771
v 0.325230 0.541047 0.303887
v 0.325230 0.541047 0.303887
v 0.331489 0.558346 0.301294
v 0.325230 0.558346 0.303887
v 0.331489 0.541047 0.301294
v 0.336863 0.558346 0.297171
v 0.331489 0.558346 0.301294
v 0.344463 0.558346 -0.205540
v 0.343578 0.541047 -0.212256
v 0.343578 0.558346 -0.212256
v 0.318503 0.558346 0.337282
v 0.478527 0.558346 0.437669
v 0.318798 0.558346 0.335043
v 0.318798 0.558346 0.309095
v 0.318798 0.541047 0.335043
v 0.318798 0.558346 0.335043
v 0.318798 0.558346 0.309095
v 0.326359 0.541047 0.308100
v 0.318798 0.541047 0.309095
v 0.331489 0.541047 0.301294
v 0.326359 0.541047 0.308100
v 0.333670 0.541047 0.305072
v 0.331489 0.541047 0.301294
v 0.333670 0.541047 0.305072
v 0.336863 0.541047 0.297171
v 0.336863 0.558346 0.297171
v 0.340986 0.541047 0.291797
v 0.340986 0.558346 0.291797
v 0.336863 0.558346 0.297171
v 0.331489 0.541047 0.301294
v 0.336863 0.541047 0.297171
v 0.344463 0.541047 0.278823
v 0.343578 0.558346 0.285539
v 0.343578 0.541047 0.285539
v 0.340986 0.558346 0.291797
v 0.343578 0.541047 0.285539
v 0.343578 0.558346 0.285539
v 0.344463 0.558346 0.278823
v 0.344463 0.541047 -0.205540
v 0.344463 0.558346 -0.205540
v 0.343578 0.558346 0.285539
v 0.344463 0.541047 0.278823
v 0.344463 0.558346 0.278823
v 0.316265 0.558346 0.341159
v 0.478527 0.558346 0.437669
v 0.317639 0.558346 0.339368
v 0.316265 0.541047 0.341159
v 0.314473 0.558346 0.342534
v 0.316265 0.558346 0.341159
v 0.314473 0.558346 0.342534
v 0.316265 0.541047 0.341159
v 0.314473 0.541047 0.342534
v 0.318515 0.541047 0.304771
v 0.312387 0.541047 0.343398
v 0.314473 0.541047 0.342534
v 0.318515 0.541047 0.304771
v 0.146970 0.541047 0.339368
v 0.148345 0.541047 0.341159
v 0.318515 0.541047 0.304771
v 0.146106 0.541047 0.337282
v 0.146970 0.541047 0.339368
v 0.145811 0.541047 0.335043
v 0.146106 0.558346 0.337282
v 0.146106 0.541047 0.337282
v 0.141487 0.558346 0.310254
v 0.146106 0.558346 0.337282
v 0.145811 0.558346 0.335043
v 0.141487 0.541047 0.310254
v 0.139401 0.558346 0.309390
v 0.141487 0.558346 0.310254
v 0.318515 0.541047 0.304771
v 0.141487 0.541047 0.310254
v 0.143278 0.541047 0.311629
v 0.318515 0.541047 0.304771
v 0.318798 0.541047 0.309095
v 0.325230 0.541047 0.303887
v 0.331489 0.558346 0.301294
v 0.325230 0.541047 0.303887
v 0.331489 0.541047 0.301294
v 0.317639 0.558346 0.339368
v 0.478527 0.558346 0.437669
v 0.318503 0.558346 0.337282
v 0.318798 0.558346 0.335043
v 0.318503 0.541047 0.337282
v 0.318503 0.558346 0.337282
v 0.318798 0.541047 0.335043
v 0.318798 0.558346 0.309095
v 0.318798 0.541047 0.309095
v 0.318503 0.541047 0.337282
v 0.318798 0.558346 0.335043
v 0.318798 0.541047 0.335043
v 0.325230 0.541047 0.303887
v 0.318798 0.541047 0.309095
v 0.326359 0.541047 0.308100
v 0.325230 0.541047 0.303887
v 0.326359 0.541047 0.308100
v 0.331489 0.541047 0.301294
v 0.317639 0.558346 0.339368
v 0.316265 0.541047 0.341159
v 0.316265 0.558346 0.341159
v 0.318515 0.541047 0.304771
v 0.314473 0.541047 0.342534
v 0.316265 0.541047 0.341159
v 0.318515 0.541047 0.304771
v 0.145811 0.541047 0.317745
v 0.146106 0.541047 0.337282
v 0.146106 0.558346 0.337282
v 0.145811 0.541047 0.335043
v 0.145811 0.558346 0.335043
v 0.146106 0.541047 0.337282
v 0.145811 0.541047 0.317745
v 0.145811 0.541047 0.335043
v 0.141487 0.558346 0.310254
v 0.145811 0.558346 0.335043
v 0.143278 0.558346 0.311629
v 0.141487 0.558346 0.310254
v 0.143278 0.541047 0.311629
v 0.141487 0.541047 0.310254
v 0.318515 0.541047 0.304771
v 0.143278 0.541047 0.311629
v 0.144653 0.541047 0.313420
v 0.318515 0.541047 0.304771
v 0.318798 0.541047 0.335043
v 0.318798 0.541047 0.309095
v 0.318503 0.558346 0.337282
v 0.317639 0.541047 0.339368
v 0.317639 0.558346 0.339368
v 0.317639 0.541047 0.339368
v 0.318503 0.558346 0.337282
v 0.318503 0.541047 0.337282
v 0.318515 0.541047 0.304771
v 0.318503 0.541047 0.337282
v 0.318798 0.541047 0.335043
v 0.316265 0.541047 0.341159
v 0.317639 0.558346 0.339368
v 0.317639 0.541047 0.339368
v 0.318515 0.541047 0.304771
v 0.316265 0.541047 0.341159
v 0.317639 0.541047 0.339368
v 0.318515 0.541047 0.304771
v 0.145517 0.541047 0.315506
v 0.145811 0.541047 0.317745
v 0.145811 0.541047 0.317745
v 0.145811 0.558346 0.335043
v 0.145811 0.541047 0.335043
v 0.143278 0.558346 0.311629
v 0.145811 0.558346 0.335043
v 0.144653 0.558346 0.313420
v 0.143278 0.541047 0.311629
v 0.141487 0.558346 0.310254
v 0.143278 0.558346 0.311629
v 0.143278 0.541047 0.311629
v 0.144653 0.558346 0.313420
v 0.144653 0.541047 0.313420
v 0.318515 0.541047 0.304771
v 0.144653 0.541047 0.313420
v 0.145517 0.541047 0.315506
v 0.318515 0.541047 0.304771
v 0.317639 0.541047 0.339368
v 0.318503 0.541047 0.337282
v 0.145517 0.541047 0.315506
v 0.145811 0.558346 0.317745
v 0.145811 0.541047 0.317745
v 0.145811 0.558346 0.335043
v 0.145811 0.541047 0.317745
v 0.145811 0.558346 0.317745
v 0.144653 0.558346 0.313420
v 0.145811 0.558346 0.335043
v 0.145517 0.558346 0.315506
v 0.144653 0.558346 0.313420
v 0.143278 0.541047 0.311629
v 0.143278 0.558346 0.311629
v 0.145517 0.558346 0.315506
v 0.144653 0.541047 0.313420
v 0.144653 0.558346 0.313420
v 0.144653 0.541047 0.313420
v 0.145517 0.558346 0.315506
v 0.145517 0.541047 0.315506
v 0.145811 0.558346 0.317745
v 0.145517 0.541047 0.315506
v 0.145517 0.558346 0.315506
v 0.145811 0.558346 0.317745
v 0.145517 0.558346 0.315506
v 0.145811 0.558346 0.335043
vt 0 0
vn -1 0 0
vn 0 -0.926234009955582 0.37694901353048094
vn 1 0 0
vn 0 -0.9987827326803421 -0.04932598604780568
vn 0 -0.9951339820591502 -0.09853099893484776
vn 0 -1 0
vn 0 -0.37694901353048094 -0.926234009955582
vn 0 -0.9805830982012556 -0.19610402219747197
vn 0 -0.46637702578699114 -0.8845860443269947
vn 0 -0.42217715930879135 -0.9065133458245165
vn -0.25881897461707376 0 -0.9659258451755842
vn -0.13052599081182487 0 -0.9914448878896857
vn 0 0 -1
vn 0 -0.9564893895987936 -0.2917671118973609
vn 0 -0.5512669640864234 -0.8343289125440505
vn -0.5000001873976233 0 -0.8660252955903434
vn 0.13052599081182487 0 -0.9914448878896857
vn 0.25881897461707376 0 -0.9659258451755842
vn 0 -0.9230867169816349 -0.3845918784010748
vn 0 -0.6307920052347298 -0.7759519612269491
vn -0.7071067811865476 0 -0.7071067811865476
vn 0.5000001873976233 0 -0.8660252955903434
vn 0.9914448878896857 0 -0.13052599081182487
vn 0.9659258451755842 0 -0.25881897461707376
vn 0 -0.8807008475001632 -0.47367290107467014
vn -0.9659258451755842 0 0.25881897461707376
vn -0.8660252955903434 0 0.5000001873976233
vn -0.9914448878896857 0 0.13052599081182487
vn 0 -0.704178235512838 -0.7100232479503936
vn -0.8660252955903434 0 -0.5000001873976233
vn 0.7071067811865476 0 -0.7071067811865476
vn 0.8660252955903434 0 -0.5000001873976233
vn 0.9659258451755842 0 0.25881897461707376
vn 0.9914448878896857 0 0.13052599081182487
vn 0 -0.8297436076843326 -0.5581447352676442
vn -0.25881897461707376 0 0.9659258451755842
vn -0.5000001873976233 0 0.8660252955903434
vn -0.13052599081182487 0 0.9914448878896857
vn -0.7071067811865476 0 0.7071067811865476
vn 0 -0.7707109475434797 -0.6371849302491639
vn -0.9659258451755842 0 -0.25881897461707376
vn 0.5000001873976233 0 0.8660252955903434
vn 0.25881897461707376 0 0.9659258451755842
vn 0.13052599081182487 0 0.9914448878896857
vn 0.7071067811865476 0 0.7071067811865476
vn 0 0 1
vn 0.8660252955903434 0 0.5000001873976233
vn -0.9914448878896857 0 -0.13052599081182487
vn 0 0.926234009955582 -0.37694901353048094
vn 0 0.9987827326803421 0.04932598604780568
vn 0 0.9951339820591502 0.09853099893484776
vn 0 1 0
vn 0 0.37694901353048094 0.926234009955582
vn 0 0.9805830982012556 0.19610402219747197
vn 0 0.42217715930879135 0.9065133458245165
vn 0 0.46637702578699114 0.8845860443269947
vn 0 0.9564893895987936 0.2917671118973609
vn 0 0.5512669640864234 0.8343289125440505
vn 0 0.9230867169816349 0.3845918784010748
vn 0 0.6307920052347298 0.7759519612269491
vn 0 0.8807008475001632 0.47367290107467014
vn 0 0.704178235512838 0.7100232479503936
vn 0 0.8297436076843326 0.5581447352676442
vn 0 0.7707109475434797 0.6371849302491639
usemtl material_0_0
f 1/1/1 2/1/1 3/1/1
f 4/1/2 5/1/2 6/1/2
f 7/1/3 8/1/3 9/1/3
f 10/1/3 11/1/3 12/1/3
f 13/1/3 14/1/3 15/1/3
f 16/1/1 17/1/1 18/1/1
f 19/1/1 20/1/1 21/1/1
f 22/1/2 23/1/2 24/1/2
f 25/1/3 26/1/3 27/1/3
f 28/1/3 29/1/3 30/1/3
f 31/1/4 32/1/5 33/1/4
f 34/1/6 35/1/6 36/1/6
f 37/1/1 38/1/1 39/1/1
f 40/1/1 41/1/1 42/1/1
f 43/1/3 44/1/3 45/1/3
f 46/1/3 47/1/3 48/1/3
f 49/1/1 50/1/1 51/1/1
f 52/1/1 53/1/1 54/1/1
f 55/1/7 56/1/7 57/1/7
f 58/1/7 59/1/7 60/1/7
f 61/1/3 62/1/3 63/1/3
f 64/1/7 65/1/7 66/1/7
f 67/1/3 68/1/3 69/1/3
f 70/1/5 71/1/4 72/1/5
f 73/1/6 74/1/6 75/1/6
f 76/1/6 77/1/6 78/1/6
f 79/1/1 80/1/1 81/1/1
f 82/1/1 83/1/1 84/1/1
f 85/1/5 86/1/8 87/1/5
f 88/1/3 89/1/3 90/1/3
f 91/1/3 92/1/3 93/1/3
f 94/1/1 95/1/1 96/1/1
f 97/1/9 98/1/9 99/1/10
f 100/1/7 101/1/7 102/1/7
f 103/1/7 104/1/7 105/1/7
f 106/1/7 107/1/7 108/1/7
f 109/1/7 110/1/7 111/1/7
f 112/1/3 113/1/3 114/1/3
f 115/1/10 116/1/10 117/1/9
f 118/1/7 119/1/7 120/1/7
f 121/1/7 122/1/7 123/1/7
f 124/1/6 125/1/6 126/1/6
f 127/1/11 128/1/12 129/1/11
f 130/1/13 131/1/13 132/1/13
f 133/1/6 134/1/6 135/1/6
f 136/1/1 137/1/1 138/1/1
f 139/1/8 140/1/5 141/1/8
f 142/1/1 143/1/1 144/1/1
f 145/1/6 146/1/6 147/1/6
f 148/1/8 149/1/14 150/1/8
f 151/1/3 152/1/3 153/1/3
f 154/1/13 155/1/13 156/1/13
f 157/1/6 158/1/6 159/1/6
f 160/1/1 161/1/1 162/1/1
f 163/1/15 164/1/15 165/1/9
f 166/1/9 167/1/9 168/1/15
f 169/1/7 170/1/7 171/1/7
f 172/1/7 173/1/7 174/1/7
f 175/1/7 176/1/7 177/1/7
f 178/1/7 179/1/7 180/1/7
f 181/1/3 182/1/3 183/1/3
f 184/1/7 185/1/7 186/1/7
f 187/1/7 188/1/7 189/1/7
f 190/1/6 191/1/6 192/1/6
f 193/1/16 194/1/11 195/1/16
f 196/1/12 197/1/11 198/1/12
f 199/1/11 200/1/16 201/1/11
f 202/1/13 203/1/13 204/1/13
f 205/1/17 206/1/18 207/1/17
f 208/1/6 209/1/6 210/1/6
f 211/1/1 212/1/1 213/1/1
f 214/1/14 215/1/8 216/1/14
f 217/1/13 218/1/13 219/1/13
f 220/1/6 221/1/6 222/1/6
f 223/1/6 224/1/6 225/1/6
f 226/1/14 227/1/19 228/1/14
f 229/1/3 230/1/3 231/1/3
f 232/1/6 233/1/6 234/1/6
f 235/1/6 236/1/6 237/1/6
f 238/1/6 239/1/6 240/1/6
f 241/1/1 242/1/1 243/1/1
f 244/1/20 245/1/20 246/1/15
f 247/1/15 248/1/15 249/1/20
f 250/1/7 251/1/7 252/1/7
f 253/1/7 254/1/7 255/1/7
f 256/1/7 257/1/7 258/1/7
f 259/1/7 260/1/7 261/1/7
f 262/1/7 263/1/7 264/1/7
f 265/1/3 266/1/3 267/1/3
f 268/1/7 269/1/7 270/1/7
f 271/1/6 272/1/6 273/1/6
f 274/1/21 275/1/16 276/1/21
f 277/1/16 278/1/21 279/1/16
f 280/1/6 281/1/6 282/1/6
f 283/1/6 284/1/6 285/1/6
f 286/1/6 287/1/6 288/1/6
f 289/1/18 290/1/17 291/1/18
f 292/1/18 293/1/22 294/1/18
f 295/1/6 296/1/6 297/1/6
f 298/1/1 299/1/1 300/1/1
f 301/1/19 302/1/14 303/1/19
f 304/1/6 305/1/6 306/1/6
f 307/1/23 308/1/23 309/1/24
f 310/1/6 311/1/6 312/1/6
f 313/1/3 314/1/3 315/1/3
f 316/1/19 317/1/25 318/1/19
f 319/1/3 320/1/3 321/1/3
f 322/1/6 323/1/6 324/1/6
f 325/1/6 326/1/6 327/1/6
f 328/1/6 329/1/6 330/1/6
f 331/1/26 332/1/26 333/1/27
f 334/1/28 335/1/28 336/1/26
f 337/1/6 338/1/6 339/1/6
f 340/1/1 341/1/1 342/1/1
f 343/1/29 344/1/29 345/1/20
f 346/1/20 347/1/20 348/1/29
f 349/1/7 350/1/7 351/1/7
f 352/1/7 353/1/7 354/1/7
f 355/1/7 356/1/7 357/1/7
f 358/1/3 359/1/3 360/1/3
f 361/1/7 362/1/7 363/1/7
f 364/1/6 365/1/6 366/1/6
f 367/1/21 368/1/21 369/1/30
f 370/1/6 371/1/6 372/1/6
f 373/1/6 374/1/6 375/1/6
f 376/1/6 377/1/6 378/1/6
f 379/1/6 380/1/6 381/1/6
f 382/1/6 383/1/6 384/1/6
f 385/1/6 386/1/6 387/1/6
f 388/1/22 389/1/18 390/1/22
f 391/1/22 392/1/31 393/1/22
f 394/1/6 395/1/6 396/1/6
f 397/1/1 398/1/1 399/1/1
f 400/1/25 401/1/19 402/1/25
f 403/1/24 404/1/24 405/1/32
f 406/1/24 407/1/24 408/1/23
f 409/1/3 410/1/3 411/1/3
f 412/1/6 413/1/6 414/1/6
f 415/1/33 416/1/33 417/1/34
f 418/1/34 419/1/34 420/1/33
f 421/1/25 422/1/35 423/1/25
f 424/1/3 425/1/3 426/1/3
f 427/1/6 428/1/6 429/1/6
f 430/1/36 431/1/37 432/1/36
f 433/1/6 434/1/6 435/1/6
f 436/1/38 437/1/36 438/1/38
f 439/1/27 440/1/27 441/1/39
f 442/1/27 443/1/27 444/1/26
f 445/1/26 446/1/26 447/1/28
f 448/1/1 449/1/1 450/1/1
f 451/1/1 452/1/1 453/1/1
f 454/1/6 455/1/6 456/1/6
f 457/1/1 458/1/1 459/1/1
f 460/1/29 461/1/40 462/1/29
f 463/1/7 464/1/7 465/1/7
f 466/1/7 467/1/7 468/1/7
f 469/1/7 470/1/7 471/1/7
f 472/1/40 473/1/29 474/1/40
f 475/1/7 476/1/7 477/1/7
f 478/1/30 479/1/30 480/1/41
f 481/1/30 482/1/30 483/1/21
f 484/1/6 485/1/6 486/1/6
f 487/1/42 488/1/43 489/1/42
f 490/1/43 491/1/44 492/1/43
f 493/1/45 494/1/42 495/1/45
f 496/1/46 497/1/46 498/1/46
f 499/1/6 500/1/6 501/1/6
f 502/1/6 503/1/6 504/1/6
f 505/1/6 506/1/6 507/1/6
f 508/1/31 509/1/22 510/1/31
f 511/1/32 512/1/32 513/1/31
f 514/1/35 515/1/25 516/1/35
f 517/1/32 518/1/32 519/1/24
f 520/1/6 521/1/6 522/1/6
f 523/1/6 524/1/6 525/1/6
f 526/1/47 527/1/47 528/1/33
f 529/1/33 530/1/33 531/1/47
f 532/1/6 533/1/6 534/1/6
f 535/1/35 536/1/40 537/1/35
f 538/1/37 539/1/39 540/1/37
f 541/1/37 542/1/36 543/1/37
f 544/1/36 545/1/38 546/1/36
f 547/1/6 548/1/6 549/1/6
f 550/1/6 551/1/6 552/1/6
f 553/1/46 554/1/46 555/1/46
f 556/1/39 557/1/39 558/1/27
f 559/1/6 560/1/6 561/1/6
f 562/1/6 563/1/6 564/1/6
f 565/1/6 566/1/6 567/1/6
f 568/1/48 569/1/48 570/1/41
f 571/1/41 572/1/41 573/1/48
f 574/1/40 575/1/35 576/1/40
f 577/1/7 578/1/7 579/1/7
f 580/1/7 581/1/7 582/1/7
f 583/1/7 584/1/7 585/1/7
f 586/1/7 587/1/7 588/1/7
f 589/1/41 590/1/41 591/1/30
f 592/1/6 593/1/6 594/1/6
f 595/1/6 596/1/6 597/1/6
f 598/1/45 599/1/45 600/1/47
f 601/1/43 602/1/42 603/1/43
f 604/1/42 605/1/45 606/1/42
f 607/1/44 608/1/43 609/1/44
f 610/1/46 611/1/46 612/1/46
f 613/1/38 614/1/36 615/1/38
f 616/1/36 617/1/37 618/1/36
f 619/1/6 620/1/6 621/1/6
f 622/1/6 623/1/6 624/1/6
f 625/1/31 626/1/31 627/1/32
f 628/1/6 629/1/6 630/1/6
f 631/1/6 632/1/6 633/1/6
f 634/1/45 635/1/45 636/1/47
f 637/1/47 638/1/47 639/1/45
f 640/1/6 641/1/6 642/1/6
f 643/1/39 644/1/37 645/1/39
f 646/1/6 647/1/6 648/1/6
f 649/1/6 650/1/6 651/1/6
f 652/1/6 653/1/6 654/1/6
f 655/1/38 656/1/36 657/1/38
f 658/1/36 659/1/37 660/1/36
f 661/1/6 662/1/6 663/1/6
f 664/1/46 665/1/46 666/1/46
f 667/1/6 668/1/6 669/1/6
f 670/1/6 671/1/6 672/1/6
f 673/1/6 674/1/6 675/1/6
f 676/1/7 677/1/7 678/1/7
f 679/1/7 680/1/7 681/1/7
f 682/1/6 683/1/6 684/1/6
f 685/1/47 686/1/47 687/1/33
f 688/1/47 689/1/47 690/1/45
f 691/1/36 692/1/38 693/1/36
f 694/1/37 695/1/36 696/1/37
f 697/1/37 698/1/39 699/1/37
f 700/1/6 701/1/6 702/1/6
f 703/1/6 704/1/6 705/1/6
f 706/1/6 707/1/6 708/1/6
f 709/1/45 710/1/42 711/1/45
f 712/1/6 713/1/6 714/1/6
f 715/1/6 716/1/6 717/1/6
f 718/1/6 719/1/6 720/1/6
f 721/1/6 722/1/6 723/1/6
f 724/1/6 725/1/6 726/1/6
f 727/1/6 728/1/6 729/1/6
f 730/1/6 731/1/6 732/1/6
f 733/1/46 734/1/46 735/1/46
f 736/1/36 737/1/38 738/1/36
f 739/1/46 740/1/46 741/1/46
f 742/1/37 743/1/36 744/1/37
f 745/1/37 746/1/39 747/1/37
f 748/1/6 749/1/6 750/1/6
f 751/1/6 752/1/6 753/1/6
f 754/1/38 755/1/36 756/1/38
f 757/1/6 758/1/6 759/1/6
f 760/1/6 761/1/6 762/1/6
f 763/1/6 764/1/6 765/1/6
f 766/1/6 767/1/6 768/1/6
f 769/1/7 770/1/7 771/1/7
f 772/1/6 773/1/6 774/1/6
f 775/1/33 776/1/33 777/1/34
f 778/1/33 779/1/33 780/1/47
f 781/1/39 782/1/37 783/1/39
f 784/1/27 785/1/27 786/1/39
f 787/1/6 788/1/6 789/1/6
f 790/1/6 791/1/6 792/1/6
f 793/1/42 794/1/43 795/1/42
f 796/1/42 797/1/45 798/1/42
f 799/1/6 800/1/6 801/1/6
f 802/1/6 803/1/6 804/1/6
f 805/1/6 806/1/6 807/1/6
f 808/1/6 809/1/6 810/1/6
f 811/1/6 812/1/6 813/1/6
f 814/1/22 815/1/31 816/1/22
f 817/1/18 818/1/22 819/1/18
f 820/1/17 821/1/18 822/1/17
f 823/1/6 824/1/6 825/1/6
f 826/1/43 827/1/44 828/1/43
f 829/1/44 830/1/43 831/1/44
f 832/1/6 833/1/6 834/1/6
f 835/1/6 836/1/6 837/1/6
f 838/1/6 839/1/6 840/1/6
f 841/1/39 842/1/37 843/1/39
f 844/1/27 845/1/27 846/1/39
f 847/1/6 848/1/6 849/1/6
f 850/1/6 851/1/6 852/1/6
f 853/1/36 854/1/38 855/1/36
f 856/1/6 857/1/6 858/1/6
f 859/1/13 860/1/13 861/1/13
f 862/1/23 863/1/23 864/1/24
f 865/1/24 866/1/24 867/1/32
f 868/1/3 869/1/3 870/1/3
f 871/1/34 872/1/34 873/1/33
f 874/1/22 875/1/18 876/1/22
f 877/1/18 878/1/17 879/1/18
f 880/1/31 881/1/22 882/1/31
f 883/1/13 884/1/13 885/1/13
f 886/1/12 887/1/11 888/1/12
f 889/1/39 890/1/39 891/1/27
f 892/1/27 893/1/27 894/1/26
f 895/1/26 896/1/26 897/1/27
f 898/1/6 899/1/6 900/1/6
f 901/1/43 902/1/44 903/1/43
f 904/1/43 905/1/42 906/1/43
f 907/1/6 908/1/6 909/1/6
f 910/1/21 911/1/21 912/1/30
f 913/1/6 914/1/6 915/1/6
f 916/1/30 917/1/30 918/1/41
f 919/1/28 920/1/28 921/1/26
f 922/1/1 923/1/1 924/1/1
f 925/1/32 926/1/32 927/1/31
f 928/1/6 929/1/6 930/1/6
f 931/1/42 932/1/43 933/1/42
f 934/1/43 935/1/42 936/1/43
f 937/1/6 938/1/6 939/1/6
f 940/1/6 941/1/6 942/1/6
f 943/1/39 944/1/39 945/1/27
f 946/1/27 947/1/27 948/1/26
f 949/1/26 950/1/26 951/1/27
f 952/1/6 953/1/6 954/1/6
f 955/1/36 956/1/37 957/1/36
f 958/1/6 959/1/6 960/1/6
f 961/1/24 962/1/24 963/1/23
f 964/1/3 965/1/3 966/1/3
f 967/1/32 968/1/32 969/1/24
f 970/1/31 971/1/31 972/1/32
f 973/1/11 974/1/12 975/1/11
f 976/1/11 977/1/16 978/1/11
f 979/1/16 980/1/21 981/1/16
f 982/1/26 983/1/26 984/1/28
f 985/1/6 986/1/6 987/1/6
f 988/1/3 989/1/3 990/1/3
f 991/1/44 992/1/43 993/1/44
f 994/1/6 995/1/6 996/1/6
f 997/1/6 998/1/6 999/1/6
f 1000/1/30 1001/1/30 1002/1/21
f 1003/1/21 1004/1/16 1005/1/21
f 1006/1/41 1007/1/41 1008/1/48
f 1009/1/41 1010/1/41 1011/1/30
f 1012/1/1 1013/1/1 1014/1/1
f 1015/1/48 1016/1/48 1017/1/41
f 1018/1/6 1019/1/6 1020/1/6
f 1021/1/45 1022/1/42 1023/1/45
f 1024/1/42 1025/1/45 1026/1/42
f 1027/1/6 1028/1/6 1029/1/6
f 1030/1/6 1031/1/6 1032/1/6
f 1033/1/6 1034/1/6 1035/1/6
f 1036/1/26 1037/1/26 1038/1/28
f 1039/1/6 1040/1/6 1041/1/6
f 1042/1/37 1043/1/36 1044/1/37
f 1045/1/6 1046/1/6 1047/1/6
f 1048/1/6 1049/1/6 1050/1/6
f 1051/1/16 1052/1/11 1053/1/16
f 1054/1/6 1055/1/6 1056/1/6
f 1057/1/33 1058/1/33 1059/1/34
f 1060/1/3 1061/1/3 1062/1/3
f 1063/1/34 1064/1/34 1065/1/33
f 1066/1/6 1067/1/6 1068/1/6
f 1069/1/6 1070/1/6 1071/1/6
f 1072/1/45 1073/1/45 1074/1/47
f 1075/1/6 1076/1/6 1077/1/6
f 1078/1/6 1079/1/6 1080/1/6
f 1081/1/28 1082/1/28 1083/1/26
f 1084/1/6 1085/1/6 1086/1/6
f 1087/1/6 1088/1/6 1089/1/6
f 1090/1/37 1091/1/39 1092/1/37
f 1093/1/6 1094/1/6 1095/1/6
f 1096/1/6 1097/1/6 1098/1/6
f 1099/1/47 1100/1/47 1101/1/33
f 1102/1/33 1103/1/33 1104/1/47
f 1105/1/6 1106/1/6 1107/1/6
f 1108/1/47 1109/1/47 1110/1/45
f 1111/1/6 1112/1/6 1113/1/6
f 1114/1/6 1115/1/6 1116/1/6
f 1117/1/1 1118/1/1 1119/1/1
f 1120/1/6 1121/1/6 1122/1/6
f 1123/1/39 1124/1/37 1125/1/39
f 1126/1/27 1127/1/27 1128/1/39
f 1129/1/6 1130/1/6 1131/1/6
f 1132/1/6 1133/1/6 1134/1/6
f 1135/1/28 1136/1/28 1137/1/26
f 1138/1/1 1139/1/1 1140/1/1
f 1141/1/6 1142/1/6 1143/1/6
f 1144/1/39 1145/1/39 1146/1/27
f 1147/1/27 1148/1/27 1149/1/26
f 1150/1/26 1151/1/26 1152/1/27
f 1153/1/26 1154/1/26 1155/1/28
f 1156/1/6 1157/1/6 1158/1/6
usemtl material_1_0
f 1159/1/3 1160/1/3 1161/1/3
f 1162/1/49 1163/1/49 1164/1/49
f 1165/1/1 1166/1/1 1167/1/1
f 1168/1/1 1169/1/1 1170/1/1
f 1171/1/1 1172/1/1 1173/1/1
f 1174/1/3 1175/1/3 1176/1/3
f 1177/1/3 1178/1/3 1179/1/3
f 1180/1/49 1181/1/49 1182/1/49
f 1183/1/1 1184/1/1 1185/1/1
f 1186/1/1 1187/1/1 1188/1/1
f 1189/1/50 1190/1/51 1191/1/50
f 1192/1/52 1193/1/52 1194/1/52
f 1195/1/3 1196/1/3 1197/1/3
f 1198/1/3 1199/1/3 1200/1/3
f 1201/1/1 1202/1/1 1203/1/1
f 1204/1/1 1205/1/1 1206/1/1
f 1207/1/3 1208/1/3 1209/1/3
f 1210/1/3 1211/1/3 1212/1/3
f 1213/1/53 1214/1/53 1215/1/53
f 1216/1/53 1217/1/53 1218/1/53
f 1219/1/1 1220/1/1 1221/1/1
f 1222/1/53 1223/1/53 1224/1/53
f 1225/1/1 1226/1/1 1227/1/1
f 1228/1/51 1229/1/50 1230/1/51
f 1231/1/52 1232/1/52 1233/1/52
f 1234/1/52 1235/1/52 1236/1/52
f 1237/1/3 1238/1/3 1239/1/3
f 1240/1/3 1241/1/3 1242/1/3
f 1243/1/51 1244/1/54 1245/1/51
f 1246/1/1 1247/1/1 1248/1/1
f 1249/1/1 1250/1/1 1251/1/1
f 1252/1/3 1253/1/3 1254/1/3
f 1255/1/55 1256/1/56 1257/1/56
f 1258/1/53 1259/1/53 1260/1/53
f 1261/1/53 1262/1/53 1263/1/53
f 1264/1/53 1265/1/53 1266/1/53
f 1267/1/53 1268/1/53 1269/1/53
f 1270/1/1 1271/1/1 1272/1/1
f 1273/1/56 1274/1/55 1275/1/55
f 1276/1/53 1277/1/53 1278/1/53
f 1279/1/53 1280/1/53 1281/1/53
f 1282/1/52 1283/1/52 1284/1/52
f 1285/1/43 1286/1/44 1287/1/43
f 1288/1/46 1289/1/46 1290/1/46
f 1291/1/52 1292/1/52 1293/1/52
f 1294/1/3 1295/1/3 1296/1/3
f 1297/1/54 1298/1/51 1299/1/54
f 1300/1/3 1301/1/3 1302/1/3
f 1303/1/52 1304/1/52 1305/1/52
f 1306/1/54 1307/1/57 1308/1/54
f 1309/1/1 1310/1/1 1311/1/1
f 1312/1/46 1313/1/46 1314/1/46
f 1315/1/52 1316/1/52 1317/1/52
f 1318/1/3 1319/1/3 1320/1/3
f 1321/1/56 1322/1/58 1323/1/58
f 1324/1/58 1325/1/56 1326/1/56
f 1327/1/53 1328/1/53 1329/1/53
f 1330/1/53 1331/1/53 1332/1/53
f 1333/1/53 1334/1/53 1335/1/53
f 1336/1/53 1337/1/53 1338/1/53
f 1339/1/1 1340/1/1 1341/1/1
f 1342/1/53 1343/1/53 1344/1/53
f 1345/1/53 1346/1/53 1347/1/53
f 1348/1/52 1349/1/52 1350/1/52
f 1351/1/42 1352/1/43 1353/1/42
f 1354/1/44 1355/1/43 1356/1/44
f 1357/1/43 1358/1/42 1359/1/43
f 1360/1/46 1361/1/46 1362/1/46
f 1363/1/38 1364/1/36 1365/1/38
f 1366/1/52 1367/1/52 1368/1/52
f 1369/1/3 1370/1/3 1371/1/3
f 1372/1/57 1373/1/54 1374/1/57
f 1375/1/46 1376/1/46 1377/1/46
f 1378/1/52 1379/1/52 1380/1/52
f 1381/1/52 1382/1/52 1383/1/52
f 1384/1/57 1385/1/59 1386/1/57
f 1387/1/1 1388/1/1 1389/1/1
f 1390/1/52 1391/1/52 1392/1/52
f 1393/1/52 1394/1/52 1395/1/52
f 1396/1/52 1397/1/52 1398/1/52
f 1399/1/3 1400/1/3 1401/1/3
f 1402/1/58 1403/1/60 1404/1/60
f 1405/1/60 1406/1/58 1407/1/58
f 1408/1/53 1409/1/53 1410/1/53
f 1411/1/53 1412/1/53 1413/1/53
f 1414/1/53 1415/1/53 1416/1/53
f 1417/1/53 1418/1/53 1419/1/53
f 1420/1/53 1421/1/53 1422/1/53
f 1423/1/1 1424/1/1 1425/1/1
f 1426/1/53 1427/1/53 1428/1/53
f 1429/1/52 1430/1/52 1431/1/52
f 1432/1/45 1433/1/42 1434/1/45
f 1435/1/42 1436/1/45 1437/1/42
f 1438/1/52 1439/1/52 1440/1/52
f 1441/1/52 1442/1/52 1443/1/52
f 1444/1/52 1445/1/52 1446/1/52
f 1447/1/36 1448/1/38 1449/1/36
f 1450/1/36 1451/1/37 1452/1/36
f 1453/1/52 1454/1/52 1455/1/52
f 1456/1/3 1457/1/3 1458/1/3
f 1459/1/59 1460/1/57 1461/1/59
f 1462/1/52 1463/1/52 1464/1/52
f 1465/1/26 1466/1/28 1467/1/28
f 1468/1/52 1469/1/52 1470/1/52
f 1471/1/1 1472/1/1 1473/1/1
f 1474/1/59 1475/1/61 1476/1/59
f 1477/1/1 1478/1/1 1479/1/1
f 1480/1/52 1481/1/52 1482/1/52
f 1483/1/52 1484/1/52 1485/1/52
f 1486/1/52 1487/1/52 1488/1/52
f 1489/1/32 1490/1/24 1491/1/24
f 1492/1/24 1493/1/23 1494/1/23
f 1495/1/52 1496/1/52 1497/1/52
f 1498/1/3 1499/1/3 1500/1/3
f 1501/1/60 1502/1/62 1503/1/62
f 1504/1/62 1505/1/60 1506/1/60
f 1507/1/53 1508/1/53 1509/1/53
f 1510/1/53 1511/1/53 1512/1/53
f 1513/1/53 1514/1/53 1515/1/53
f 1516/1/1 1517/1/1 1518/1/1
f 1519/1/53 1520/1/53 1521/1/53
f 1522/1/52 1523/1/52 1524/1/52
f 1525/1/47 1526/1/45 1527/1/45
f 1528/1/52 1529/1/52 1530/1/52
f 1531/1/52 1532/1/52 1533/1/52
f 1534/1/52 1535/1/52 1536/1/52
f 1537/1/52 1538/1/52 1539/1/52
f 1540/1/52 1541/1/52 1542/1/52
f 1543/1/52 1544/1/52 1545/1/52
f 1546/1/37 1547/1/36 1548/1/37
f 1549/1/37 1550/1/39 1551/1/37
f 1552/1/52 1553/1/52 1554/1/52
f 1555/1/3 1556/1/3 1557/1/3
f 1558/1/61 1559/1/59 1560/1/61
f 1561/1/27 1562/1/26 1563/1/26
f 1564/1/28 1565/1/26 1566/1/26
f 1567/1/1 1568/1/1 1569/1/1
f 1570/1/52 1571/1/52 1572/1/52
f 1573/1/48 1574/1/41 1575/1/41
f 1576/1/41 1577/1/48 1578/1/48
f 1579/1/61 1580/1/63 1581/1/61
f 1582/1/1 1583/1/1 1584/1/1
f 1585/1/52 1586/1/52 1587/1/52
f 1588/1/18 1589/1/22 1590/1/18
f 1591/1/52 1592/1/52 1593/1/52
f 1594/1/17 1595/1/18 1596/1/17
f 1597/1/31 1598/1/32 1599/1/32
f 1600/1/24 1601/1/32 1602/1/32
f 1603/1/23 1604/1/24 1605/1/24
f 1606/1/3 1607/1/3 1608/1/3
f 1609/1/3 1610/1/3 1611/1/3
f 1612/1/52 1613/1/52 1614/1/52
f 1615/1/3 1616/1/3 1617/1/3
f 1618/1/62 1619/1/64 1620/1/62
f 1621/1/53 1622/1/53 1623/1/53
f 1624/1/53 1625/1/53 1626/1/53
f 1627/1/53 1628/1/53 1629/1/53
f 1630/1/64 1631/1/62 1632/1/64
f 1633/1/53 1634/1/53 1635/1/53
f 1636/1/33 1637/1/47 1638/1/47
f 1639/1/45 1640/1/47 1641/1/47
f 1642/1/52 1643/1/52 1644/1/52
f 1645/1/16 1646/1/11 1647/1/16
f 1648/1/11 1649/1/12 1650/1/11
f 1651/1/21 1652/1/16 1653/1/21
f 1654/1/13 1655/1/13 1656/1/13
f 1657/1/52 1658/1/52 1659/1/52
f 1660/1/52 1661/1/52 1662/1/52
f 1663/1/52 1664/1/52 1665/1/52
f 1666/1/39 1667/1/37 1668/1/39
f 1669/1/39 1670/1/27 1671/1/27
f 1672/1/63 1673/1/61 1674/1/63
f 1675/1/26 1676/1/27 1677/1/27
f 1678/1/52 1679/1/52 1680/1/52
f 1681/1/52 1682/1/52 1683/1/52
f 1684/1/41 1685/1/30 1686/1/30
f 1687/1/30 1688/1/41 1689/1/41
f 1690/1/52 1691/1/52 1692/1/52
f 1693/1/63 1694/1/64 1695/1/63
f 1696/1/22 1697/1/31 1698/1/22
f 1699/1/22 1700/1/18 1701/1/22
f 1702/1/18 1703/1/17 1704/1/18
f 1705/1/52 1706/1/52 1707/1/52
f 1708/1/52 1709/1/52 1710/1/52
f 1711/1/13 1712/1/13 1713/1/13
f 1714/1/32 1715/1/31 1716/1/31
f 1717/1/52 1718/1/52 1719/1/52
f 1720/1/52 1721/1/52 1722/1/52
f 1723/1/52 1724/1/52 1725/1/52
f 1726/1/33 1727/1/34 1728/1/34
f 1729/1/34 1730/1/33 1731/1/33
f 1732/1/64 1733/1/63 1734/1/64
f 1735/1/53 1736/1/53 1737/1/53
f 1738/1/53 1739/1/53 1740/1/53
f 1741/1/53 1742/1/53 1743/1/53
f 1744/1/53 1745/1/53 1746/1/53
f 1747/1/47 1748/1/33 1749/1/33
f 1750/1/52 1751/1/52 1752/1/52
f 1753/1/52 1754/1/52 1755/1/52
f 1756/1/30 1757/1/21 1758/1/21
f 1759/1/11 1760/1/16 1761/1/11
f 1762/1/16 1763/1/21 1764/1/16
f 1765/1/12 1766/1/11 1767/1/12
f 1768/1/13 1769/1/13 1770/1/13
f 1771/1/17 1772/1/18 1773/1/17
f 1774/1/18 1775/1/22 1776/1/18
f 1777/1/52 1778/1/52 1779/1/52
f 1780/1/52 1781/1/52 1782/1/52
f 1783/1/27 1784/1/39 1785/1/39
f 1786/1/52 1787/1/52 1788/1/52
f 1789/1/52 1790/1/52 1791/1/52
f 1792/1/30 1793/1/21 1794/1/21
f 1795/1/21 1796/1/30 1797/1/30
f 1798/1/52 1799/1/52 1800/1/52
f 1801/1/31 1802/1/22 1803/1/31
f 1804/1/52 1805/1/52 1806/1/52
f 1807/1/52 1808/1/52 1809/1/52
f 1810/1/52 1811/1/52 1812/1/52
f 1813/1/17 1814/1/18 1815/1/17
f 1816/1/18 1817/1/22 1818/1/18
f 1819/1/52 1820/1/52 1821/1/52
f 1822/1/13 1823/1/13 1824/1/13
f 1825/1/52 1826/1/52 1827/1/52
f 1828/1/52 1829/1/52 1830/1/52
f 1831/1/52 1832/1/52 1833/1/52
f 1834/1/53 1835/1/53 1836/1/53
f 1837/1/53 1838/1/53 1839/1/53
f 1840/1/52 1841/1/52 1842/1/52
f 1843/1/41 1844/1/30 1845/1/30
f 1846/1/21 1847/1/30 1848/1/30
f 1849/1/18 1850/1/17 1851/1/18
f 1852/1/22 1853/1/18 1854/1/22
f 1855/1/22 1856/1/31 1857/1/22
f 1858/1/52 1859/1/52 1860/1/52
f 1861/1/52 1862/1/52 1863/1/52
f 1864/1/52 1865/1/52 1866/1/52
f 1867/1/21 1868/1/16 1869/1/21
f 1870/1/52 1871/1/52 1872/1/52
f 1873/1/52 1874/1/52 1875/1/52
f 1876/1/52 1877/1/52 1878/1/52
f 1879/1/52 1880/1/52 1881/1/52
f 1882/1/52 1883/1/52 1884/1/52
f 1885/1/52 1886/1/52 1887/1/52
f 1888/1/52 1889/1/52 1890/1/52
f 1891/1/13 1892/1/13 1893/1/13
f 1894/1/18 1895/1/17 1896/1/18
f 1897/1/13 1898/1/13 1899/1/13
f 1900/1/22 1901/1/18 1902/1/22
f 1903/1/22 1904/1/31 1905/1/22
f 1906/1/52 1907/1/52 1908/1/52
f 1909/1/52 1910/1/52 1911/1/52
f 1912/1/17 1913/1/18 1914/1/17
f 1915/1/52 1916/1/52 1917/1/52
f 1918/1/52 1919/1/52 1920/1/52
f 1921/1/52 1922/1/52 1923/1/52
f 1924/1/52 1925/1/52 1926/1/52
f 1927/1/53 1928/1/53 1929/1/53
f 1930/1/52 1931/1/52 1932/1/52
f 1933/1/48 1934/1/41 1935/1/41
f 1936/1/30 1937/1/41 1938/1/41
f 1939/1/31 1940/1/22 1941/1/31
f 1942/1/31 1943/1/32 1944/1/32
f 1945/1/52 1946/1/52 1947/1/52
f 1948/1/52 1949/1/52 1950/1/52
f 1951/1/16 1952/1/11 1953/1/16
f 1954/1/16 1955/1/21 1956/1/16
f 1957/1/52 1958/1/52 1959/1/52
f 1960/1/52 1961/1/52 1962/1/52
f 1963/1/52 1964/1/52 1965/1/52
f 1966/1/52 1967/1/52 1968/1/52
f 1969/1/52 1970/1/52 1971/1/52
f 1972/1/37 1973/1/39 1974/1/37
f 1975/1/36 1976/1/37 1977/1/36
f 1978/1/38 1979/1/36 1980/1/38
f 1981/1/52 1982/1/52 1983/1/52
f 1984/1/11 1985/1/12 1986/1/11
f 1987/1/12 1988/1/11 1989/1/12
f 1990/1/52 1991/1/52 1992/1/52
f 1993/1/52 1994/1/52 1995/1/52
f 1996/1/52 1997/1/52 1998/1/52
f 1999/1/31 2000/1/22 2001/1/31
f 2002/1/31 2003/1/32 2004/1/32
f 2005/1/52 2006/1/52 2007/1/52
f 2008/1/52 2009/1/52 2010/1/52
f 2011/1/18 2012/1/17 2013/1/18
f 2014/1/52 2015/1/52 2016/1/52
f 2017/1/46 2018/1/46 2019/1/46
f 2020/1/26 2021/1/28 2022/1/28
f 2023/1/27 2024/1/26 2025/1/26
f 2026/1/1 2027/1/1 2028/1/1
f 2029/1/41 2030/1/48 2031/1/48
f 2032/1/37 2033/1/36 2034/1/37
f 2035/1/36 2036/1/38 2037/1/36
f 2038/1/39 2039/1/37 2040/1/39
f 2041/1/46 2042/1/46 2043/1/46
f 2044/1/44 2045/1/43 2046/1/44
f 2047/1/32 2048/1/31 2049/1/31
f 2050/1/24 2051/1/32 2052/1/32
f 2053/1/32 2054/1/24 2055/1/24
f 2056/1/52 2057/1/52 2058/1/52
f 2059/1/11 2060/1/12 2061/1/11
f 2062/1/11 2063/1/16 2064/1/11
f 2065/1/52 2066/1/52 2067/1/52
f 2068/1/47 2069/1/45 2070/1/45
f 2071/1/52 2072/1/52 2073/1/52
f 2074/1/33 2075/1/47 2076/1/47
f 2077/1/24 2078/1/23 2079/1/23
f 2080/1/3 2081/1/3 2082/1/3
f 2083/1/39 2084/1/27 2085/1/27
f 2086/1/52 2087/1/52 2088/1/52
f 2089/1/16 2090/1/11 2091/1/16
f 2092/1/11 2093/1/16 2094/1/11
f 2095/1/52 2096/1/52 2097/1/52
f 2098/1/52 2099/1/52 2100/1/52
f 2101/1/32 2102/1/31 2103/1/31
f 2104/1/24 2105/1/32 2106/1/32
f 2107/1/32 2108/1/24 2109/1/24
f 2110/1/52 2111/1/52 2112/1/52
f 2113/1/18 2114/1/22 2115/1/18
f 2116/1/52 2117/1/52 2118/1/52
f 2119/1/28 2120/1/26 2121/1/26
f 2122/1/1 2123/1/1 2124/1/1
f 2125/1/26 2126/1/27 2127/1/27
f 2128/1/27 2129/1/39 2130/1/39
f 2131/1/43 2132/1/44 2133/1/43
f 2134/1/43 2135/1/42 2136/1/43
f 2137/1/42 2138/1/45 2139/1/42
f 2140/1/23 2141/1/24 2142/1/24
f 2143/1/52 2144/1/52 2145/1/52
f 2146/1/1 2147/1/1 2148/1/1
f 2149/1/12 2150/1/11 2151/1/12
f 2152/1/52 2153/1/52 2154/1/52
f 2155/1/52 2156/1/52 2157/1/52
f 2158/1/45 2159/1/47 2160/1/47
f 2161/1/45 2162/1/42 2163/1/45
f 2164/1/34 2165/1/33 2166/1/33
f 2167/1/47 2168/1/33 2169/1/33
f 2170/1/3 2171/1/3 2172/1/3
f 2173/1/33 2174/1/34 2175/1/34
f 2176/1/52 2177/1/52 2178/1/52
f 2179/1/21 2180/1/16 2181/1/21
f 2182/1/16 2183/1/21 2184/1/16
f 2185/1/52 2186/1/52 2187/1/52
f 2188/1/52 2189/1/52 2190/1/52
f 2191/1/52 2192/1/52 2193/1/52
f 2194/1/23 2195/1/24 2196/1/24
f 2197/1/52 2198/1/52 2199/1/52
f 2200/1/22 2201/1/18 2202/1/22
f 2203/1/52 2204/1/52 2205/1/52
f 2206/1/52 2207/1/52 2208/1/52
f 2209/1/42 2210/1/43 2211/1/42
f 2212/1/52 2213/1/52 2214/1/52
f 2215/1/48 2216/1/41 2217/1/41
f 2218/1/1 2219/1/1 2220/1/1
f 2221/1/41 2222/1/48 2223/1/48
f 2224/1/52 2225/1/52 2226/1/52
f 2227/1/52 2228/1/52 2229/1/52
f 2230/1/30 2231/1/21 2232/1/21
f 2233/1/52 2234/1/52 2235/1/52
f 2236/1/52 2237/1/52 2238/1/52
f 2239/1/24 2240/1/23 2241/1/23
f 2242/1/52 2243/1/52 2244/1/52
f 2245/1/52 2246/1/52 2247/1/52
f 2248/1/22 2249/1/31 2250/1/22
f 2251/1/52 2252/1/52 2253/1/52
f 2254/1/52 2255/1/52 2256/1/52
f 2257/1/41 2258/1/30 2259/1/30
f 2260/1/30 2261/1/41 2262/1/41
f 2263/1/52 2264/1/52 2265/1/52
f 2266/1/21 2267/1/30 2268/1/30
f 2269/1/52 2270/1/52 2271/1/52
f 2272/1/52 2273/1/52 2274/1/52
f 2275/1/3 2276/1/3 2277/1/3
f 2278/1/52 2279/1/52 2280/1/52
f 2281/1/31 2282/1/22 2283/1/31
f 2284/1/31 2285/1/32 2286/1/32
f 2287/1/52 2288/1/52 2289/1/52
f 2290/1/52 2291/1/52 2292/1/52
f 2293/1/24 2294/1/23 2295/1/23
f 2296/1/3 2297/1/3 2298/1/3
f 2299/1/52 2300/1/52 2301/1/52
f 2302/1/32 2303/1/31 2304/1/31
f 2305/1/24 2306/1/32 2307/1/32
f 2308/1/32 2309/1/24 2310/1/24
f 2311/1/23 2312/1/24 2313/1/24
f 2314/1/52 2315/1/52 2316/1/52
