# SSTK version 0.8.0
# 52
mtllib original-52.mtl
o mesh26/mesh26-geometry/material_3/component_3#mesh26-geometry
v 0.434396 -0.669860 -0.338837
v 0.426042 -0.704457 -0.336599
v 0.435281 -0.669860 -0.332121
v 0.431804 -0.669860 -0.345095
v 0.424314 -0.704457 -0.340771
v 0.434396 -0.669860 -0.338837
v 0.426631 -0.704457 -0.332121
v 0.435281 -0.669860 -0.332121
v 0.426042 -0.704457 -0.336599
v 0.426042 -0.704457 -0.336599
v 0.434396 -0.669860 -0.338837
v 0.424314 -0.704457 -0.340771
v 0.434396 -0.669860 -0.325406
v 0.435281 -0.669860 -0.332121
v 0.426042 -0.704457 -0.327644
v 0.427681 -0.669860 -0.350469
v 0.421565 -0.704457 -0.344353
v 0.431804 -0.669860 -0.345095
v 0.424314 -0.704457 -0.340771
v 0.431804 -0.669860 -0.345095
v 0.421565 -0.704457 -0.344353
v 0.426631 -0.704457 -0.332121
v 0.426042 -0.704457 -0.327644
v 0.435281 -0.669860 -0.332121
v 0.426631 -0.704457 -0.332121
v 0.426042 -0.704457 -0.336599
v 0.426042 -0.704457 -0.327644
v 0.426042 -0.704457 -0.336599
v 0.424314 -0.704457 -0.340771
v 0.424314 -0.704457 -0.323472
v 0.426042 -0.704457 -0.327644
v 0.424314 -0.704457 -0.323472
v 0.434396 -0.669860 -0.325406
v 0.427681 -0.669860 -0.350469
v 0.422307 -0.669860 -0.354593
v 0.421565 -0.704457 -0.344353
v 0.424314 -0.704457 -0.340771
v 0.421565 -0.704457 -0.344353
v 0.421565 -0.704457 -0.319889
v 0.426042 -0.704457 -0.327644
v 0.426042 -0.704457 -0.336599
v 0.424314 -0.704457 -0.323472
v 0.424314 -0.704457 -0.323472
v 0.424314 -0.704457 -0.340771
v 0.421565 -0.704457 -0.319889
v 0.431804 -0.669860 -0.319147
v 0.434396 -0.669860 -0.325406
v 0.424314 -0.704457 -0.323472
v 0.422307 -0.669860 -0.354593
v 0.416048 -0.669860 -0.357185
v 0.417982 -0.704457 -0.347103
v 0.417982 -0.704457 -0.347103
v 0.421565 -0.704457 -0.344353
v 0.422307 -0.669860 -0.354593
v 0.421565 -0.704457 -0.319889
v 0.421565 -0.704457 -0.344353
v 0.417982 -0.704457 -0.317140
v 0.424314 -0.704457 -0.323472
v 0.421565 -0.704457 -0.319889
v 0.431804 -0.669860 -0.319147
v 0.416048 -0.669860 -0.357185
v 0.409333 -0.669860 -0.358069
v 0.413810 -0.704457 -0.348831
v 0.413810 -0.704457 -0.348831
v 0.417982 -0.704457 -0.347103
v 0.416048 -0.669860 -0.357185
v 0.421565 -0.704457 -0.344353
v 0.417982 -0.704457 -0.347103
v 0.417982 -0.704457 -0.317140
v 0.421565 -0.704457 -0.319889
v 0.417982 -0.704457 -0.317140
v 0.427681 -0.669860 -0.313773
v 0.427681 -0.669860 -0.313773
v 0.431804 -0.669860 -0.319147
v 0.421565 -0.704457 -0.319889
v 0.402617 -0.669860 -0.357185
v 0.396359 -0.669860 -0.354593
v 0.404855 -0.704457 -0.348831
v 0.396359 -0.669860 -0.354593
v 0.390985 -0.669860 -0.350469
v 0.400683 -0.704457 -0.347103
v 0.409333 -0.669860 -0.358069
v 0.402617 -0.669860 -0.357185
v 0.409333 -0.704457 -0.349420
v 0.409333 -0.704457 -0.349420
v 0.413810 -0.704457 -0.348831
v 0.409333 -0.669860 -0.358069
v 0.417982 -0.704457 -0.347103
v 0.413810 -0.704457 -0.348831
v 0.413810 -0.704457 -0.315412
v 0.417982 -0.704457 -0.317140
v 0.417982 -0.704457 -0.347103
v 0.413810 -0.704457 -0.315412
v 0.422307 -0.669860 -0.309650
v 0.427681 -0.669860 -0.313773
v 0.417982 -0.704457 -0.317140
v 0.400683 -0.704457 -0.347103
v 0.404855 -0.704457 -0.348831
v 0.396359 -0.669860 -0.354593
v 0.404855 -0.704457 -0.348831
v 0.409333 -0.704457 -0.349420
v 0.402617 -0.669860 -0.357185
v 0.397101 -0.704457 -0.344353
v 0.400683 -0.704457 -0.347103
v 0.390985 -0.669860 -0.350469
v 0.413810 -0.704457 -0.348831
v 0.409333 -0.704457 -0.349420
v 0.409333 -0.704457 -0.314823
v 0.413810 -0.704457 -0.315412
v 0.413810 -0.704457 -0.348831
v 0.409333 -0.704457 -0.314823
v 0.417982 -0.704457 -0.317140
v 0.413810 -0.704457 -0.315412
v 0.422307 -0.669860 -0.309650
v 0.404855 -0.704457 -0.348831
v 0.400683 -0.704457 -0.347103
v 0.400683 -0.704457 -0.317140
v 0.409333 -0.704457 -0.349420
v 0.404855 -0.704457 -0.348831
v 0.404855 -0.704457 -0.315412
v 0.400683 -0.704457 -0.347103
v 0.397101 -0.704457 -0.344353
v 0.397101 -0.704457 -0.319889
v 0.390985 -0.669860 -0.350469
v 0.386861 -0.669860 -0.345095
v 0.397101 -0.704457 -0.344353
v 0.409333 -0.704457 -0.314823
v 0.409333 -0.704457 -0.349420
v 0.404855 -0.704457 -0.315412
v 0.413810 -0.704457 -0.315412
v 0.409333 -0.704457 -0.314823
v 0.416048 -0.669860 -0.307058
v 0.416048 -0.669860 -0.307058
v 0.422307 -0.669860 -0.309650
v 0.413810 -0.704457 -0.315412
v 0.400683 -0.704457 -0.317140
v 0.400683 -0.704457 -0.347103
v 0.397101 -0.704457 -0.319889
v 0.404855 -0.704457 -0.315412
v 0.404855 -0.704457 -0.348831
v 0.400683 -0.704457 -0.317140
v 0.397101 -0.704457 -0.319889
v 0.397101 -0.704457 -0.344353
v 0.394351 -0.704457 -0.323472
v 0.394351 -0.704457 -0.340771
v 0.397101 -0.704457 -0.344353
v 0.386861 -0.669860 -0.345095
v 0.386861 -0.669860 -0.345095
v 0.384269 -0.669860 -0.338837
v 0.394351 -0.704457 -0.340771
v 0.409333 -0.704457 -0.314823
v 0.404855 -0.704457 -0.315412
v 0.409333 -0.669860 -0.306173
v 0.409333 -0.669860 -0.306173
v 0.416048 -0.669860 -0.307058
v 0.409333 -0.704457 -0.314823
v 0.400683 -0.704457 -0.317140
v 0.397101 -0.704457 -0.319889
v 0.396359 -0.669860 -0.309650
v 0.404855 -0.704457 -0.315412
v 0.400683 -0.704457 -0.317140
v 0.402617 -0.669860 -0.307058
v 0.397101 -0.704457 -0.344353
v 0.394351 -0.704457 -0.340771
v 0.394351 -0.704457 -0.323472
v 0.394351 -0.704457 -0.323472
v 0.386861 -0.669860 -0.319147
v 0.397101 -0.704457 -0.319889
v 0.392623 -0.704457 -0.336599
v 0.394351 -0.704457 -0.340771
v 0.384269 -0.669860 -0.338837
v 0.383385 -0.669860 -0.332121
v 0.392034 -0.704457 -0.332121
v 0.384269 -0.669860 -0.338837
v 0.402617 -0.669860 -0.307058
v 0.409333 -0.669860 -0.306173
v 0.404855 -0.704457 -0.315412
v 0.390985 -0.669860 -0.313773
v 0.396359 -0.669860 -0.309650
v 0.397101 -0.704457 -0.319889
v 0.396359 -0.669860 -0.309650
v 0.402617 -0.669860 -0.307058
v 0.400683 -0.704457 -0.317140
v 0.394351 -0.704457 -0.323472
v 0.394351 -0.704457 -0.340771
v 0.392623 -0.704457 -0.327644
v 0.390985 -0.669860 -0.313773
v 0.397101 -0.704457 -0.319889
v 0.386861 -0.669860 -0.319147
v 0.386861 -0.669860 -0.319147
v 0.394351 -0.704457 -0.323472
v 0.384269 -0.669860 -0.325406
v 0.394351 -0.704457 -0.340771
v 0.392623 -0.704457 -0.336599
v 0.392623 -0.704457 -0.327644
v 0.392623 -0.704457 -0.336599
v 0.384269 -0.669860 -0.338837
v 0.392034 -0.704457 -0.332121
v 0.392034 -0.704457 -0.332121
v 0.383385 -0.669860 -0.332121
v 0.392623 -0.704457 -0.327644
v 0.392623 -0.704457 -0.327644
v 0.384269 -0.669860 -0.325406
v 0.394351 -0.704457 -0.323472
v 0.392034 -0.704457 -0.332121
v 0.392623 -0.704457 -0.327644
v 0.392623 -0.704457 -0.336599
v 0.384269 -0.669860 -0.325406
v 0.392623 -0.704457 -0.327644
v 0.383385 -0.669860 -0.332121
v 0.435281 -0.669860 -0.332121
v 0.426042 -0.704457 -0.336599
v 0.434396 -0.669860 -0.338837
v 0.434396 -0.669860 -0.338837
v 0.424314 -0.704457 -0.340771
v 0.431804 -0.669860 -0.345095
v 0.426042 -0.704457 -0.336599
v 0.435281 -0.669860 -0.332121
v 0.426631 -0.704457 -0.332121
v 0.424314 -0.704457 -0.340771
v 0.434396 -0.669860 -0.338837
v 0.426042 -0.704457 -0.336599
v 0.426042 -0.704457 -0.327644
v 0.435281 -0.669860 -0.332121
v 0.434396 -0.669860 -0.325406
v 0.431804 -0.669860 -0.345095
v 0.421565 -0.704457 -0.344353
v 0.427681 -0.669860 -0.350469
v 0.421565 -0.704457 -0.344353
v 0.431804 -0.669860 -0.345095
v 0.424314 -0.704457 -0.340771
v 0.435281 -0.669860 -0.332121
v 0.426042 -0.704457 -0.327644
v 0.426631 -0.704457 -0.332121
v 0.426042 -0.704457 -0.327644
v 0.426042 -0.704457 -0.336599
v 0.426631 -0.704457 -0.332121
v 0.424314 -0.704457 -0.323472
v 0.424314 -0.704457 -0.340771
v 0.426042 -0.704457 -0.336599
v 0.434396 -0.669860 -0.325406
v 0.424314 -0.704457 -0.323472
v 0.426042 -0.704457 -0.327644
v 0.421565 -0.704457 -0.344353
v 0.422307 -0.669860 -0.354593
v 0.427681 -0.669860 -0.350469
v 0.421565 -0.704457 -0.319889
v 0.421565 -0.704457 -0.344353
v 0.424314 -0.704457 -0.340771
v 0.424314 -0.704457 -0.323472
v 0.426042 -0.704457 -0.336599
v 0.426042 -0.704457 -0.327644
v 0.421565 -0.704457 -0.319889
v 0.424314 -0.704457 -0.340771
v 0.424314 -0.704457 -0.323472
v 0.424314 -0.704457 -0.323472
v 0.434396 -0.669860 -0.325406
v 0.431804 -0.669860 -0.319147
v 0.417982 -0.704457 -0.347103
v 0.416048 -0.669860 -0.357185
v 0.422307 -0.669860 -0.354593
v 0.422307 -0.669860 -0.354593
v 0.421565 -0.704457 -0.344353
v 0.417982 -0.704457 -0.347103
v 0.417982 -0.704457 -0.317140
v 0.421565 -0.704457 -0.344353
v 0.421565 -0.704457 -0.319889
v 0.431804 -0.669860 -0.319147
v 0.421565 -0.704457 -0.319889
v 0.424314 -0.704457 -0.323472
v 0.413810 -0.704457 -0.348831
v 0.409333 -0.669860 -0.358069
v 0.416048 -0.669860 -0.357185
v 0.416048 -0.669860 -0.357185
v 0.417982 -0.704457 -0.347103
v 0.413810 -0.704457 -0.348831
v 0.417982 -0.704457 -0.317140
v 0.417982 -0.704457 -0.347103
v 0.421565 -0.704457 -0.344353
v 0.427681 -0.669860 -0.313773
v 0.417982 -0.704457 -0.317140
v 0.421565 -0.704457 -0.319889
v 0.421565 -0.704457 -0.319889
v 0.431804 -0.669860 -0.319147
v 0.427681 -0.669860 -0.313773
v 0.404855 -0.704457 -0.348831
v 0.396359 -0.669860 -0.354593
v 0.402617 -0.669860 -0.357185
v 0.400683 -0.704457 -0.347103
v 0.390985 -0.669860 -0.350469
v 0.396359 -0.669860 -0.354593
v 0.409333 -0.704457 -0.349420
v 0.402617 -0.669860 -0.357185
v 0.409333 -0.669860 -0.358069
v 0.409333 -0.669860 -0.358069
v 0.413810 -0.704457 -0.348831
v 0.409333 -0.704457 -0.349420
v 0.413810 -0.704457 -0.315412
v 0.413810 -0.704457 -0.348831
v 0.417982 -0.704457 -0.347103
v 0.413810 -0.704457 -0.315412
v 0.417982 -0.704457 -0.347103
v 0.417982 -0.704457 -0.317140
v 0.417982 -0.704457 -0.317140
v 0.427681 -0.669860 -0.313773
v 0.422307 -0.669860 -0.309650
v 0.396359 -0.669860 -0.354593
v 0.404855 -0.704457 -0.348831
v 0.400683 -0.704457 -0.347103
v 0.402617 -0.669860 -0.357185
v 0.409333 -0.704457 -0.349420
v 0.404855 -0.704457 -0.348831
v 0.390985 -0.669860 -0.350469
v 0.400683 -0.704457 -0.347103
v 0.397101 -0.704457 -0.344353
v 0.409333 -0.704457 -0.314823
v 0.409333 -0.704457 -0.349420
v 0.413810 -0.704457 -0.348831
v 0.409333 -0.704457 -0.314823
v 0.413810 -0.704457 -0.348831
v 0.413810 -0.704457 -0.315412
v 0.422307 -0.669860 -0.309650
v 0.413810 -0.704457 -0.315412
v 0.417982 -0.704457 -0.317140
v 0.400683 -0.704457 -0.317140
v 0.400683 -0.704457 -0.347103
v 0.404855 -0.704457 -0.348831
v 0.404855 -0.704457 -0.315412
v 0.404855 -0.704457 -0.348831
v 0.409333 -0.704457 -0.349420
v 0.397101 -0.704457 -0.319889
v 0.397101 -0.704457 -0.344353
v 0.400683 -0.704457 -0.347103
v 0.397101 -0.704457 -0.344353
v 0.386861 -0.669860 -0.345095
v 0.390985 -0.669860 -0.350469
v 0.404855 -0.704457 -0.315412
v 0.409333 -0.704457 -0.349420
v 0.409333 -0.704457 -0.314823
v 0.416048 -0.669860 -0.307058
v 0.409333 -0.704457 -0.314823
v 0.413810 -0.704457 -0.315412
v 0.413810 -0.704457 -0.315412
v 0.422307 -0.669860 -0.309650
v 0.416048 -0.669860 -0.307058
v 0.397101 -0.704457 -0.319889
v 0.400683 -0.704457 -0.347103
v 0.400683 -0.704457 -0.317140
v 0.400683 -0.704457 -0.317140
v 0.404855 -0.704457 -0.348831
v 0.404855 -0.704457 -0.315412
v 0.394351 -0.704457 -0.323472
v 0.397101 -0.704457 -0.344353
v 0.397101 -0.704457 -0.319889
v 0.386861 -0.669860 -0.345095
v 0.397101 -0.704457 -0.344353
v 0.394351 -0.704457 -0.340771
v 0.394351 -0.704457 -0.340771
v 0.384269 -0.669860 -0.338837
v 0.386861 -0.669860 -0.345095
v 0.409333 -0.669860 -0.306173
v 0.404855 -0.704457 -0.315412
v 0.409333 -0.704457 -0.314823
v 0.409333 -0.704457 -0.314823
v 0.416048 -0.669860 -0.307058
v 0.409333 -0.669860 -0.306173
v 0.396359 -0.669860 -0.309650
v 0.397101 -0.704457 -0.319889
v 0.400683 -0.704457 -0.317140
v 0.402617 -0.669860 -0.307058
v 0.400683 -0.704457 -0.317140
v 0.404855 -0.704457 -0.315412
v 0.394351 -0.704457 -0.323472
v 0.394351 -0.704457 -0.340771
v 0.397101 -0.704457 -0.344353
v 0.397101 -0.704457 -0.319889
v 0.386861 -0.669860 -0.319147
v 0.394351 -0.704457 -0.323472
v 0.384269 -0.669860 -0.338837
v 0.394351 -0.704457 -0.340771
v 0.392623 -0.704457 -0.336599
v 0.384269 -0.669860 -0.338837
v 0.392034 -0.704457 -0.332121
v 0.383385 -0.669860 -0.332121
v 0.404855 -0.704457 -0.315412
v 0.409333 -0.669860 -0.306173
v 0.402617 -0.669860 -0.307058
v 0.397101 -0.704457 -0.319889
v 0.396359 -0.669860 -0.309650
v 0.390985 -0.669860 -0.313773
v 0.400683 -0.704457 -0.317140
v 0.402617 -0.669860 -0.307058
v 0.396359 -0.669860 -0.309650
v 0.392623 -0.704457 -0.327644
v 0.394351 -0.704457 -0.340771
v 0.394351 -0.704457 -0.323472
v 0.386861 -0.669860 -0.319147
v 0.397101 -0.704457 -0.319889
v 0.390985 -0.669860 -0.313773
v 0.384269 -0.669860 -0.325406
v 0.394351 -0.704457 -0.323472
v 0.386861 -0.669860 -0.319147
v 0.392623 -0.704457 -0.327644
v 0.392623 -0.704457 -0.336599
v 0.394351 -0.704457 -0.340771
v 0.392034 -0.704457 -0.332121
v 0.384269 -0.669860 -0.338837
v 0.392623 -0.704457 -0.336599
v 0.392623 -0.704457 -0.327644
v 0.383385 -0.669860 -0.332121
v 0.392034 -0.704457 -0.332121
v 0.394351 -0.704457 -0.323472
v 0.384269 -0.669860 -0.325406
v 0.392623 -0.704457 -0.327644
v 0.392623 -0.704457 -0.336599
v 0.392623 -0.704457 -0.327644
v 0.392034 -0.704457 -0.332121
v 0.383385 -0.669860 -0.332121
v 0.392623 -0.704457 -0.327644
v 0.384269 -0.669860 -0.325406
vt 0 0
vn -0.9370857305310691 0.24253592730097653 0.25109093492857876
vn -0.9701424440468501 0.24253584943015005 0
vn -0.8401680608137553 0.24253601122371946 0.48507103897072834
vn -0.9370857305310691 0.24253592730097664 -0.25109093492857865
vn -0.6859942609478471 0.24253607544700292 0.6859942609478471
vn 0 1 0
vn -0.8401680608137553 0.24253601122371968 -0.48507103897072823
vn -0.4850710389707283 0.24253601122371937 0.8401680608137553
vn -0.2510909349285787 0.2425359273009764 0.9370857305310691
vn -0.685994260947847 0.24253607544700315 -0.685994260947847
vn 0 0.24253584943014983 0.9701424440468501
vn -0.4850710389707283 0.24253601122371976 -0.8401680608137553
vn 0.2510909349285787 0.2425359273009764 0.9370857305310691
vn 0.4850710389707283 0.24253601122371937 0.8401680608137553
vn 0.6859942609478471 0.24253607544700292 0.6859942609478471
vn -0.2510909349285787 0.24253592730097678 -0.9370857305310691
vn 0.8401680608137553 0.24253601122371946 0.48507103897072834
vn 0 0.24253584943015022 -0.9701424440468499
vn 0.9370857305310691 0.24253592730097653 0.25109093492857876
vn 0.2510909349285787 0.24253592730097678 -0.9370857305310691
vn 0.4850710389707283 0.24253601122371976 -0.8401680608137553
vn 0.685994260947847 0.24253607544700315 -0.685994260947847
vn 0.8401680608137553 0.24253601122371968 -0.48507103897072823
vn 0.9701424440468501 0.24253584943015005 0
vn 0.9370857305310691 0.24253592730097664 -0.25109093492857865
vn 0.9701424440468501 -0.24253584943015005 0
vn 0.9370857305310691 -0.24253592730097653 -0.25109093492857876
vn 0.8401680608137553 -0.24253601122371946 -0.48507103897072834
vn 0.9370857305310691 -0.24253592730097664 0.25109093492857865
vn 0.6859942609478471 -0.24253607544700292 -0.6859942609478471
vn 0 -1 0
vn 0.8401680608137553 -0.24253601122371968 0.48507103897072823
vn 0.4850710389707283 -0.24253601122371937 -0.8401680608137553
vn 0.2510909349285787 -0.2425359273009764 -0.9370857305310691
vn 0.685994260947847 -0.24253607544700315 0.685994260947847
vn 0 -0.24253584943014983 -0.9701424440468501
vn 0.4850710389707283 -0.24253601122371976 0.8401680608137553
vn -0.2510909349285787 -0.2425359273009764 -0.9370857305310691
vn -0.4850710389707283 -0.24253601122371937 -0.8401680608137553
vn -0.6859942609478471 -0.24253607544700292 -0.6859942609478471
vn 0.2510909349285787 -0.24253592730097678 0.9370857305310691
vn -0.8401680608137553 -0.24253601122371946 -0.48507103897072834
vn 0 -0.24253584943015022 0.9701424440468499
vn -0.9370857305310691 -0.24253592730097653 -0.25109093492857876
vn -0.2510909349285787 -0.24253592730097678 0.9370857305310691
vn -0.4850710389707283 -0.24253601122371976 0.8401680608137553
vn -0.685994260947847 -0.24253607544700315 0.685994260947847
vn -0.8401680608137553 -0.24253601122371968 0.48507103897072823
vn -0.9701424440468501 -0.24253584943015005 0
vn -0.9370857305310691 -0.24253592730097664 0.25109093492857865
usemtl material_0_0
f 1/1/1 2/1/1 3/1/2
f 4/1/3 5/1/3 6/1/1
f 7/1/2 8/1/2 9/1/1
f 10/1/1 11/1/1 12/1/3
f 13/1/4 14/1/2 15/1/4
f 16/1/5 17/1/5 18/1/3
f 19/1/3 20/1/3 21/1/5
f 22/1/2 23/1/4 24/1/2
f 25/1/6 26/1/6 27/1/6
f 28/1/6 29/1/6 30/1/6
f 31/1/4 32/1/7 33/1/4
f 34/1/5 35/1/8 36/1/5
f 37/1/6 38/1/6 39/1/6
f 40/1/6 41/1/6 42/1/6
f 43/1/6 44/1/6 45/1/6
f 46/1/7 47/1/4 48/1/7
f 49/1/8 50/1/9 51/1/8
f 52/1/8 53/1/5 54/1/8
f 55/1/6 56/1/6 57/1/6
f 58/1/7 59/1/10 60/1/7
f 61/1/9 62/1/11 63/1/9
f 64/1/9 65/1/8 66/1/9
f 67/1/6 68/1/6 69/1/6
f 70/1/10 71/1/12 72/1/10
f 73/1/10 74/1/7 75/1/10
f 76/1/13 77/1/14 78/1/13
f 79/1/14 80/1/15 81/1/14
f 82/1/11 83/1/13 84/1/11
f 85/1/11 86/1/9 87/1/11
f 88/1/6 89/1/6 90/1/6
f 91/1/6 92/1/6 93/1/6
f 94/1/12 95/1/10 96/1/12
f 97/1/14 98/1/13 99/1/14
f 100/1/13 101/1/11 102/1/13
f 103/1/15 104/1/14 105/1/15
f 106/1/6 107/1/6 108/1/6
f 109/1/6 110/1/6 111/1/6
f 112/1/12 113/1/16 114/1/12
f 115/1/6 116/1/6 117/1/6
f 118/1/6 119/1/6 120/1/6
f 121/1/6 122/1/6 123/1/6
f 124/1/15 125/1/17 126/1/15
f 127/1/6 128/1/6 129/1/6
f 130/1/16 131/1/18 132/1/16
f 133/1/16 134/1/12 135/1/16
f 136/1/6 137/1/6 138/1/6
f 139/1/6 140/1/6 141/1/6
f 142/1/6 143/1/6 144/1/6
f 145/1/17 146/1/15 147/1/17
f 148/1/17 149/1/19 150/1/17
f 151/1/18 152/1/20 153/1/18
f 154/1/18 155/1/16 156/1/18
f 157/1/21 158/1/22 159/1/21
f 160/1/20 161/1/21 162/1/20
f 163/1/6 164/1/6 165/1/6
f 166/1/23 167/1/23 168/1/22
f 169/1/19 170/1/17 171/1/19
f 172/1/24 173/1/24 174/1/19
f 175/1/20 176/1/18 177/1/20
f 178/1/22 179/1/21 180/1/22
f 181/1/21 182/1/20 183/1/21
f 184/1/6 185/1/6 186/1/6
f 187/1/22 188/1/22 189/1/23
f 190/1/23 191/1/23 192/1/25
f 193/1/6 194/1/6 195/1/6
f 196/1/19 197/1/19 198/1/24
f 199/1/24 200/1/24 201/1/25
f 202/1/25 203/1/25 204/1/23
f 205/1/6 206/1/6 207/1/6
f 208/1/25 209/1/25 210/1/24
usemtl material_1_0
f 211/1/26 212/1/27 213/1/27
f 214/1/27 215/1/28 216/1/28
f 217/1/27 218/1/26 219/1/26
f 220/1/28 221/1/27 222/1/27
f 223/1/29 224/1/26 225/1/29
f 226/1/28 227/1/30 228/1/30
f 229/1/30 230/1/28 231/1/28
f 232/1/26 233/1/29 234/1/26
f 235/1/31 236/1/31 237/1/31
f 238/1/31 239/1/31 240/1/31
f 241/1/29 242/1/32 243/1/29
f 244/1/30 245/1/33 246/1/30
f 247/1/31 248/1/31 249/1/31
f 250/1/31 251/1/31 252/1/31
f 253/1/31 254/1/31 255/1/31
f 256/1/32 257/1/29 258/1/32
f 259/1/33 260/1/34 261/1/33
f 262/1/33 263/1/30 264/1/33
f 265/1/31 266/1/31 267/1/31
f 268/1/32 269/1/35 270/1/32
f 271/1/34 272/1/36 273/1/34
f 274/1/34 275/1/33 276/1/34
f 277/1/31 278/1/31 279/1/31
f 280/1/35 281/1/37 282/1/35
f 283/1/35 284/1/32 285/1/35
f 286/1/38 287/1/39 288/1/38
f 289/1/39 290/1/40 291/1/39
f 292/1/36 293/1/38 294/1/36
f 295/1/36 296/1/34 297/1/36
f 298/1/31 299/1/31 300/1/31
f 301/1/31 302/1/31 303/1/31
f 304/1/37 305/1/35 306/1/37
f 307/1/39 308/1/38 309/1/39
f 310/1/38 311/1/36 312/1/38
f 313/1/40 314/1/39 315/1/40
f 316/1/31 317/1/31 318/1/31
f 319/1/31 320/1/31 321/1/31
f 322/1/37 323/1/41 324/1/37
f 325/1/31 326/1/31 327/1/31
f 328/1/31 329/1/31 330/1/31
f 331/1/31 332/1/31 333/1/31
f 334/1/40 335/1/42 336/1/40
f 337/1/31 338/1/31 339/1/31
f 340/1/41 341/1/43 342/1/41
f 343/1/41 344/1/37 345/1/41
f 346/1/31 347/1/31 348/1/31
f 349/1/31 350/1/31 351/1/31
f 352/1/31 353/1/31 354/1/31
f 355/1/42 356/1/40 357/1/42
f 358/1/42 359/1/44 360/1/42
f 361/1/43 362/1/45 363/1/43
f 364/1/43 365/1/41 366/1/43
f 367/1/46 368/1/47 369/1/46
f 370/1/45 371/1/46 372/1/45
f 373/1/31 374/1/31 375/1/31
f 376/1/47 377/1/48 378/1/48
f 379/1/44 380/1/42 381/1/44
f 382/1/44 383/1/49 384/1/49
f 385/1/45 386/1/43 387/1/45
f 388/1/47 389/1/46 390/1/47
f 391/1/46 392/1/45 393/1/46
f 394/1/31 395/1/31 396/1/31
f 397/1/48 398/1/47 399/1/47
f 400/1/50 401/1/48 402/1/48
f 403/1/31 404/1/31 405/1/31
f 406/1/49 407/1/44 408/1/44
f 409/1/50 410/1/49 411/1/49
f 412/1/48 413/1/50 414/1/50
f 415/1/31 416/1/31 417/1/31
f 418/1/49 419/1/50 420/1/50
