# SSTK version 0.8.0
# 23
mtllib original-23.mtl
o Group1/mesh7/mesh7-geometry/material_3#mesh7-geometry
v 0.302967 0.721897 -0.369316
v 0.301816 0.722339 -0.369496
v 0.319859 0.784710 -0.394879
v 0.319859 0.784710 -0.394879
v 0.301816 0.722339 -0.369496
v 0.299344 0.787211 -0.395897
v 0.329417 0.781043 -0.393387
v 0.302967 0.721897 -0.369316
v 0.319859 0.784710 -0.394879
v 0.299344 0.722640 -0.369619
v 0.299344 0.787211 -0.395897
v 0.301816 0.722339 -0.369496
v 0.299344 0.722640 -0.369619
v 0.296873 0.722339 -0.369496
v 0.299344 0.787211 -0.395897
v 0.296873 0.722339 -0.369496
v 0.295721 0.721897 -0.369316
v 0.299344 0.787211 -0.395897
v 0.299344 0.787211 -0.395897
v 0.295721 0.721897 -0.369316
v 0.278830 0.784710 -0.394879
v 0.269271 0.781043 -0.393387
v 0.278830 0.784710 -0.394879
v 0.295721 0.721897 -0.369316
v 0.319859 0.784710 -0.394879
v 0.301816 0.722339 -0.369496
v 0.302967 0.721897 -0.369316
v 0.299344 0.787211 -0.395897
v 0.301816 0.722339 -0.369496
v 0.319859 0.784710 -0.394879
v 0.319859 0.784710 -0.394879
v 0.302967 0.721897 -0.369316
v 0.329417 0.781043 -0.393387
v 0.301816 0.722339 -0.369496
v 0.299344 0.787211 -0.395897
v 0.299344 0.722640 -0.369619
v 0.299344 0.787211 -0.395897
v 0.296873 0.722339 -0.369496
v 0.299344 0.722640 -0.369619
v 0.299344 0.787211 -0.395897
v 0.295721 0.721897 -0.369316
v 0.296873 0.722339 -0.369496
v 0.278830 0.784710 -0.394879
v 0.295721 0.721897 -0.369316
v 0.299344 0.787211 -0.395897
v 0.295721 0.721897 -0.369316
v 0.278830 0.784710 -0.394879
v 0.269271 0.781043 -0.393387
vn 0 -0.37694901353048094 -0.926234009955582
vn 0 0.37694901353048094 0.926234009955582
usemtl material_0_0
f 1//1 2//1 3//1
f 4//1 5//1 6//1
f 7//1 8//1 9//1
f 10//1 11//1 12//1
f 13//1 14//1 15//1
f 16//1 17//1 18//1
f 19//1 20//1 21//1
f 22//1 23//1 24//1
usemtl material_1_0
f 25//2 26//2 27//2
f 28//2 29//2 30//2
f 31//2 32//2 33//2
f 34//2 35//2 36//2
f 37//2 38//2 39//2
f 40//2 41//2 42//2
f 43//2 44//2 45//2
f 46//2 47//2 48//2
