# SSTK version 0.8.0
# 28
mtllib original-28.mtl
o mesh9/mesh9-geometry/material_1/component_0#mesh9-geometry
v -0.169156 0.725385 -0.347803
v -0.170452 0.724800 -0.357309
v -0.169156 0.721913 -0.356101
v -0.169156 0.721913 -0.356101
v -0.170452 0.724800 -0.357309
v -0.169156 0.725385 -0.347803
v -0.170452 0.720928 -0.366565
v -0.169156 0.721913 -0.356101
v -0.170452 0.724800 -0.357309
v -0.170452 0.724800 -0.357309
v -0.169156 0.721913 -0.356101
v -0.170452 0.720928 -0.366565
v -0.168847 0.723225 -0.346899
v -0.169156 0.721913 -0.356101
v -0.168847 0.719753 -0.355198
v -0.168847 0.719753 -0.355198
v -0.169156 0.721913 -0.356101
v -0.168847 0.723225 -0.346899
v -0.169156 0.718041 -0.365358
v -0.168847 0.719753 -0.355198
v -0.169156 0.721913 -0.356101
v -0.169156 0.721913 -0.356101
v -0.168847 0.719753 -0.355198
v -0.169156 0.718041 -0.365358
v -0.170452 0.728271 -0.349010
v -0.172513 0.727279 -0.358346
v -0.170452 0.724800 -0.357309
v -0.170452 0.724800 -0.357309
v -0.172513 0.727279 -0.358346
v -0.170452 0.728271 -0.349010
v -0.172513 0.723407 -0.367602
v -0.170452 0.724800 -0.357309
v -0.172513 0.727279 -0.358346
v -0.172513 0.727279 -0.358346
v -0.170452 0.724800 -0.357309
v -0.172513 0.723407 -0.367602
v -0.170452 0.724800 -0.357309
v -0.169156 0.725385 -0.347803
v -0.170452 0.728271 -0.349010
v -0.170452 0.728271 -0.349010
v -0.169156 0.725385 -0.347803
v -0.170452 0.724800 -0.357309
v -0.169156 0.721913 -0.356101
v -0.168847 0.723225 -0.346899
v -0.169156 0.725385 -0.347803
v -0.169156 0.725385 -0.347803
v -0.168847 0.723225 -0.346899
v -0.169156 0.721913 -0.356101
v -0.169156 0.721913 -0.356101
v -0.170452 0.720928 -0.366565
v -0.169156 0.718041 -0.365358
v -0.169156 0.718041 -0.365358
v -0.170452 0.720928 -0.366565
v -0.169156 0.721913 -0.356101
v -0.170452 0.724800 -0.357309
v -0.172513 0.723407 -0.367602
v -0.170452 0.720928 -0.366565
v -0.170452 0.720928 -0.366565
v -0.172513 0.723407 -0.367602
v -0.170452 0.724800 -0.357309
v -0.168847 0.719753 -0.355198
v -0.169156 0.718041 -0.365358
v -0.168847 0.715882 -0.364454
v -0.168847 0.715882 -0.364454
v -0.169156 0.718041 -0.365358
v -0.168847 0.719753 -0.355198
v -0.172513 0.727279 -0.358346
v -0.170452 0.728271 -0.349010
v -0.172513 0.730750 -0.350047
v -0.172513 0.730750 -0.350047
v -0.170452 0.728271 -0.349010
v -0.172513 0.727279 -0.358346
v -0.172822 0.727497 -0.358437
v -0.172513 0.723407 -0.367602
v -0.172513 0.727279 -0.358346
v -0.172513 0.727279 -0.358346
v -0.172513 0.723407 -0.367602
v -0.172822 0.727497 -0.358437
v -0.152634 0.731760 -0.371096
v -0.169156 0.718041 -0.365358
v -0.170452 0.720928 -0.366565
v -0.170452 0.720928 -0.366565
v -0.169156 0.718041 -0.365358
v -0.152634 0.731760 -0.371096
v -0.152634 0.731760 -0.371096
v -0.170452 0.720928 -0.366565
v -0.172513 0.723407 -0.367602
v -0.172513 0.723407 -0.367602
v -0.170452 0.720928 -0.366565
v -0.152634 0.731760 -0.371096
v -0.169156 0.718041 -0.365358
v -0.152634 0.731760 -0.371096
v -0.168847 0.715882 -0.364454
v -0.168847 0.715882 -0.364454
v -0.152634 0.731760 -0.371096
v -0.169156 0.718041 -0.365358
v -0.172513 0.727279 -0.358346
v -0.172822 0.730969 -0.350139
v -0.172822 0.727497 -0.358437
v -0.172822 0.727497 -0.358437
v -0.172822 0.730969 -0.350139
v -0.172513 0.727279 -0.358346
v -0.172822 0.730969 -0.350139
v -0.172513 0.727279 -0.358346
v -0.172513 0.730750 -0.350047
v -0.172513 0.730750 -0.350047
v -0.172513 0.727279 -0.358346
v -0.172822 0.730969 -0.350139
v -0.172513 0.723407 -0.367602
v -0.172822 0.727497 -0.358437
v -0.172822 0.723626 -0.367693
v -0.172822 0.723626 -0.367693
v -0.172822 0.727497 -0.358437
v -0.172513 0.723407 -0.367602
v -0.152634 0.731760 -0.371096
v -0.172513 0.723407 -0.367602
v -0.172822 0.723626 -0.367693
v -0.172822 0.723626 -0.367693
v -0.172513 0.723407 -0.367602
v -0.152634 0.731760 -0.371096
v -0.172822 0.727497 -0.358437
v -0.175200 0.732652 -0.350843
v -0.175200 0.729181 -0.359142
v -0.175200 0.729181 -0.359142
v -0.175200 0.732652 -0.350843
v -0.172822 0.727497 -0.358437
v -0.175200 0.729181 -0.359142
v -0.172822 0.723626 -0.367693
v -0.172822 0.727497 -0.358437
v -0.172822 0.727497 -0.358437
v -0.172822 0.723626 -0.367693
v -0.175200 0.729181 -0.359142
v -0.175200 0.732652 -0.350843
v -0.172822 0.727497 -0.358437
v -0.172822 0.730969 -0.350139
v -0.172822 0.730969 -0.350139
v -0.172822 0.727497 -0.358437
v -0.175200 0.732652 -0.350843
v -0.152634 0.731760 -0.371096
v -0.172822 0.723626 -0.367693
v -0.175200 0.725309 -0.368398
v -0.175200 0.725309 -0.368398
v -0.172822 0.723626 -0.367693
v -0.152634 0.731760 -0.371096
v -0.178330 0.733848 -0.351343
v -0.175200 0.729181 -0.359142
v -0.175200 0.732652 -0.350843
v -0.175200 0.732652 -0.350843
v -0.175200 0.729181 -0.359142
v -0.178330 0.733848 -0.351343
v -0.172822 0.723626 -0.367693
v -0.175200 0.729181 -0.359142
v -0.175200 0.725309 -0.368398
v -0.175200 0.725309 -0.368398
v -0.175200 0.729181 -0.359142
v -0.172822 0.723626 -0.367693
v -0.165256 0.741184 -0.375038
v -0.181384 0.726876 -0.369053
v -0.165205 0.742720 -0.375681
v -0.165205 0.742720 -0.375681
v -0.181384 0.726876 -0.369053
v -0.165256 0.741184 -0.375038
v -0.152634 0.731760 -0.371096
v -0.175200 0.725309 -0.368398
v -0.178330 0.726505 -0.368898
v -0.178330 0.726505 -0.368898
v -0.175200 0.725309 -0.368398
v -0.152634 0.731760 -0.371096
v -0.152634 0.731760 -0.371096
v -0.181384 0.726876 -0.369053
v -0.154293 0.731626 -0.371040
v -0.154293 0.731626 -0.371040
v -0.181384 0.726876 -0.369053
v -0.152634 0.731760 -0.371096
v -0.175200 0.729181 -0.359142
v -0.178330 0.733848 -0.351343
v -0.178330 0.730377 -0.359642
v -0.178330 0.730377 -0.359642
v -0.178330 0.733848 -0.351343
v -0.175200 0.729181 -0.359142
v -0.178330 0.730377 -0.359642
v -0.175200 0.725309 -0.368398
v -0.175200 0.729181 -0.359142
v -0.175200 0.729181 -0.359142
v -0.175200 0.725309 -0.368398
v -0.178330 0.730377 -0.359642
v -0.178330 0.726505 -0.368898
v -0.181384 0.730748 -0.359797
v -0.181384 0.726876 -0.369053
v -0.181384 0.726876 -0.369053
v -0.181384 0.730748 -0.359797
v -0.178330 0.726505 -0.368898
v -0.165052 0.739659 -0.374400
v -0.181384 0.726876 -0.369053
v -0.165256 0.741184 -0.375038
v -0.165256 0.741184 -0.375038
v -0.181384 0.726876 -0.369053
v -0.165052 0.739659 -0.374400
v -0.175200 0.725309 -0.368398
v -0.178330 0.730377 -0.359642
v -0.178330 0.726505 -0.368898
v -0.178330 0.726505 -0.368898
v -0.178330 0.730377 -0.359642
v -0.175200 0.725309 -0.368398
v -0.152634 0.731760 -0.371096
v -0.178330 0.726505 -0.368898
v -0.181384 0.726876 -0.369053
v -0.181384 0.726876 -0.369053
v -0.178330 0.726505 -0.368898
v -0.152634 0.731760 -0.371096
v -0.181384 0.726876 -0.369053
v -0.155955 0.731728 -0.371083
v -0.154293 0.731626 -0.371040
v -0.154293 0.731626 -0.371040
v -0.155955 0.731728 -0.371083
v -0.181384 0.726876 -0.369053
v -0.181384 0.734219 -0.351498
v -0.178330 0.730377 -0.359642
v -0.178330 0.733848 -0.351343
v -0.178330 0.733848 -0.351343
v -0.178330 0.730377 -0.359642
v -0.181384 0.734219 -0.351498
v -0.181384 0.730748 -0.359797
v -0.178330 0.726505 -0.368898
v -0.178330 0.730377 -0.359642
v -0.178330 0.730377 -0.359642
v -0.178330 0.726505 -0.368898
v -0.181384 0.730748 -0.359797
v -0.164597 0.738181 -0.373782
v -0.181384 0.726876 -0.369053
v -0.165052 0.739659 -0.374400
v -0.165052 0.739659 -0.374400
v -0.181384 0.726876 -0.369053
v -0.164597 0.738181 -0.373782
v -0.155955 0.731728 -0.371083
v -0.181384 0.726876 -0.369053
v -0.157581 0.732064 -0.371223
v -0.157581 0.732064 -0.371223
v -0.181384 0.726876 -0.369053
v -0.155955 0.731728 -0.371083
v -0.178330 0.730377 -0.359642
v -0.181384 0.734219 -0.351498
v -0.181384 0.730748 -0.359797
v -0.181384 0.730748 -0.359797
v -0.181384 0.734219 -0.351498
v -0.178330 0.730377 -0.359642
v -0.163903 0.736784 -0.373198
v -0.181384 0.726876 -0.369053
v -0.164597 0.738181 -0.373782
v -0.164597 0.738181 -0.373782
v -0.181384 0.726876 -0.369053
v -0.163903 0.736784 -0.373198
v -0.157581 0.732064 -0.371223
v -0.181384 0.726876 -0.369053
v -0.159132 0.732624 -0.371458
v -0.159132 0.732624 -0.371458
v -0.181384 0.726876 -0.369053
v -0.157581 0.732064 -0.371223
v -0.162986 0.735502 -0.372661
v -0.181384 0.726876 -0.369053
v -0.163903 0.736784 -0.373198
v -0.163903 0.736784 -0.373198
v -0.181384 0.726876 -0.369053
v -0.162986 0.735502 -0.372661
v -0.159132 0.732624 -0.371458
v -0.181384 0.726876 -0.369053
v -0.160571 0.733397 -0.371781
v -0.160571 0.733397 -0.371781
v -0.181384 0.726876 -0.369053
v -0.159132 0.732624 -0.371458
v -0.161866 0.734364 -0.372185
v -0.181384 0.726876 -0.369053
v -0.162986 0.735502 -0.372661
v -0.162986 0.735502 -0.372661
v -0.181384 0.726876 -0.369053
v -0.161866 0.734364 -0.372185
v -0.160571 0.733397 -0.371781
v -0.181384 0.726876 -0.369053
v -0.161866 0.734364 -0.372185
v -0.161866 0.734364 -0.372185
v -0.181384 0.726876 -0.369053
v -0.160571 0.733397 -0.371781
vt 0 0
vn -0.9659259211884978 -0.2387699757967989 0.09987999516493733
vn -0.8660253195888886 -0.4612691768956365 0.19295308309790082
vn 0.9659259211884978 0.2387699757967989 -0.09987999516493733
vn 0.8660253195888886 0.4612691768956365 -0.19295308309790082
vn -0.99144490179943 -0.12041498958077726 0.050370993440467145
vn 0.99144490179943 0.12041498958077726 -0.050370993440467145
vn -0.7071068123755656 -0.6523328411510149 0.272876932421763
vn 0.7071068123755656 0.6523328411510149 -0.272876932421763
vn -0.6087609827976995 -0.7318989872805285 0.3061599879816364
vn 0.6087609827976995 0.7318989872805285 -0.3061599879816364
vn 0 -0.3859060536417149 -0.9225380847220769
vn 0 0.3859060536417149 0.9225380847220769
vn -0.5000002367084209 -0.7989413944293373 0.3342041465314714
vn 0.5000002367084209 0.7989413944293373 -0.3342041465314714
vn -0.25881905749370177 -0.8911031795696255 0.3727570506898235
vn 0.25881905749370177 0.8911031795696255 -0.3727570506898235
vn -0.13052594270980505 -0.914645584419527 0.3826048002594565
vn 0.13052594270980505 0.914645584419527 -0.3826048002594565
usemtl material_0_0
f 1/1/1 2/1/2 3/1/1
f 4/1/3 5/1/4 6/1/3
f 7/1/2 8/1/1 9/1/2
f 10/1/4 11/1/3 12/1/4
f 13/1/5 14/1/1 15/1/5
f 16/1/6 17/1/3 18/1/6
f 19/1/1 20/1/5 21/1/1
f 22/1/3 23/1/6 24/1/3
f 25/1/2 26/1/7 27/1/2
f 28/1/4 29/1/8 30/1/4
f 31/1/7 32/1/2 33/1/7
f 34/1/8 35/1/4 36/1/8
f 37/1/2 38/1/1 39/1/2
f 40/1/4 41/1/3 42/1/4
f 43/1/1 44/1/5 45/1/1
f 46/1/3 47/1/6 48/1/3
f 49/1/1 50/1/2 51/1/1
f 52/1/3 53/1/4 54/1/3
f 55/1/2 56/1/7 57/1/2
f 58/1/4 59/1/8 60/1/4
f 61/1/5 62/1/1 63/1/5
f 64/1/6 65/1/3 66/1/6
f 67/1/7 68/1/2 69/1/7
f 70/1/8 71/1/4 72/1/8
f 73/1/9 74/1/7 75/1/7
f 76/1/8 77/1/8 78/1/10
f 79/1/11 80/1/11 81/1/11
f 82/1/12 83/1/12 84/1/12
f 85/1/11 86/1/11 87/1/11
f 88/1/12 89/1/12 90/1/12
f 91/1/11 92/1/11 93/1/11
f 94/1/12 95/1/12 96/1/12
f 97/1/7 98/1/9 99/1/9
f 100/1/10 101/1/10 102/1/8
f 103/1/9 104/1/7 105/1/7
f 106/1/8 107/1/8 108/1/10
f 109/1/7 110/1/9 111/1/9
f 112/1/10 113/1/10 114/1/8
f 115/1/11 116/1/11 117/1/11
f 118/1/12 119/1/12 120/1/12
f 121/1/9 122/1/13 123/1/13
f 124/1/14 125/1/14 126/1/10
f 127/1/13 128/1/9 129/1/9
f 130/1/10 131/1/10 132/1/14
f 133/1/13 134/1/9 135/1/9
f 136/1/10 137/1/10 138/1/14
f 139/1/11 140/1/11 141/1/11
f 142/1/12 143/1/12 144/1/12
f 145/1/15 146/1/13 147/1/13
f 148/1/14 149/1/14 150/1/16
f 151/1/9 152/1/13 153/1/13
f 154/1/14 155/1/14 156/1/10
f 157/1/11 158/1/11 159/1/11
f 160/1/12 161/1/12 162/1/12
f 163/1/11 164/1/11 165/1/11
f 166/1/12 167/1/12 168/1/12
f 169/1/11 170/1/11 171/1/11
f 172/1/12 173/1/12 174/1/12
f 175/1/13 176/1/15 177/1/15
f 178/1/16 179/1/16 180/1/14
f 181/1/15 182/1/13 183/1/13
f 184/1/14 185/1/14 186/1/16
f 187/1/15 188/1/17 189/1/17
f 190/1/18 191/1/18 192/1/16
f 193/1/11 194/1/11 195/1/11
f 196/1/12 197/1/12 198/1/12
f 199/1/13 200/1/15 201/1/15
f 202/1/16 203/1/16 204/1/14
f 205/1/11 206/1/11 207/1/11
f 208/1/12 209/1/12 210/1/12
f 211/1/11 212/1/11 213/1/11
f 214/1/12 215/1/12 216/1/12
f 217/1/17 218/1/15 219/1/15
f 220/1/16 221/1/16 222/1/18
f 223/1/17 224/1/15 225/1/15
f 226/1/16 227/1/16 228/1/18
f 229/1/11 230/1/11 231/1/11
f 232/1/12 233/1/12 234/1/12
f 235/1/11 236/1/11 237/1/11
f 238/1/12 239/1/12 240/1/12
f 241/1/15 242/1/17 243/1/17
f 244/1/18 245/1/18 246/1/16
f 247/1/11 248/1/11 249/1/11
f 250/1/12 251/1/12 252/1/12
f 253/1/11 254/1/11 255/1/11
f 256/1/12 257/1/12 258/1/12
f 259/1/11 260/1/11 261/1/11
f 262/1/12 263/1/12 264/1/12
f 265/1/11 266/1/11 267/1/11
f 268/1/12 269/1/12 270/1/12
f 271/1/11 272/1/11 273/1/11
f 274/1/12 275/1/12 276/1/12
f 277/1/11 278/1/11 279/1/11
f 280/1/12 281/1/12 282/1/12
