# SSTK version 0.8.0
# 45
mtllib original-45.mtl
o mesh26/mesh26-geometry/material_0/component_0#mesh26-geometry
v 0.478527 0.786447 -0.435913
v -0.446952 0.558346 -0.343083
v 0.478527 0.558346 -0.343083
v -0.446952 0.558346 -0.343083
v 0.478527 0.786447 -0.435913
v -0.446952 0.786447 -0.435913
v 0.478527 0.558346 -0.343083
v -0.446952 0.558346 -0.343083
v 0.478527 0.786447 -0.435913
v -0.446952 0.786447 -0.435913
v 0.478527 0.786447 -0.435913
v -0.446952 0.558346 -0.343083
v -0.446952 0.558346 -0.255772
v 0.478527 0.558346 -0.343083
v -0.446952 0.558346 -0.343083
v -0.446952 0.558346 -0.343083
v 0.478527 0.558346 -0.343083
v -0.446952 0.558346 -0.255772
v 0.478527 0.558346 -0.401316
v -0.446952 0.558346 -0.343083
v 0.478527 0.558346 -0.343083
v 0.478527 0.558346 -0.343083
v -0.446952 0.558346 -0.343083
v 0.478527 0.558346 -0.401316
v 0.478527 0.558346 -0.343083
v -0.446952 0.558346 -0.255772
v 0.478527 0.558346 -0.255772
v 0.478527 0.558346 -0.255772
v -0.446952 0.558346 -0.255772
v 0.478527 0.558346 -0.343083
v -0.446952 0.558346 -0.343083
v 0.478527 0.558346 -0.401316
v -0.446952 0.558346 -0.401316
v -0.446952 0.558346 -0.401316
v 0.478527 0.558346 -0.401316
v -0.446952 0.558346 -0.343083
v 0.478527 0.515964 -0.401316
v -0.446952 0.558346 -0.401316
v 0.478527 0.558346 -0.401316
v 0.478527 0.558346 -0.401316
v -0.446952 0.558346 -0.401316
v 0.478527 0.515964 -0.401316
v -0.446952 0.558346 -0.401316
v 0.478527 0.515964 -0.401316
v -0.446952 0.515964 -0.401316
v -0.446952 0.515964 -0.401316
v 0.478527 0.515964 -0.401316
v -0.446952 0.558346 -0.401316
vt 0 0
vn 0 0.37694901353048094 0.926234009955582
vn 0 -0.37694901353048094 -0.926234009955582
vn 0 1 0
vn 0 -1 0
vn 0 0 -1
vn 0 0 1
usemtl material_0_0
f 1/1/1 2/1/1 3/1/1
f 4/1/1 5/1/1 6/1/1
f 7/1/2 8/1/2 9/1/2
f 10/1/2 11/1/2 12/1/2
f 13/1/3 14/1/3 15/1/3
f 16/1/4 17/1/4 18/1/4
f 19/1/3 20/1/3 21/1/3
f 22/1/4 23/1/4 24/1/4
f 25/1/3 26/1/3 27/1/3
f 28/1/4 29/1/4 30/1/4
f 31/1/3 32/1/3 33/1/3
f 34/1/4 35/1/4 36/1/4
f 37/1/5 38/1/5 39/1/5
f 40/1/6 41/1/6 42/1/6
f 43/1/5 44/1/5 45/1/5
f 46/1/6 47/1/6 48/1/6
