# SSTK version 0.8.0
# 17
mtllib original-17.mtl
o mesh2/mesh2-geometry/material_1/component_1#mesh2-geometry
v 0.279298 0.721568 -0.349331
v 0.279797 0.723695 -0.334425
v 0.279797 0.718072 -0.347869
v 0.279797 0.718072 -0.347869
v 0.279797 0.723695 -0.334425
v 0.279298 0.721568 -0.349331
v 0.279297 0.716205 -0.362155
v 0.279797 0.718072 -0.347869
v 0.279298 0.721568 -0.349331
v 0.279298 0.721568 -0.349331
v 0.279797 0.718072 -0.347869
v 0.279297 0.716205 -0.362155
v 0.279797 0.723695 -0.334425
v 0.281897 0.713395 -0.345912
v 0.279797 0.718072 -0.347869
v 0.279797 0.718072 -0.347869
v 0.281897 0.713395 -0.345912
v 0.279797 0.723695 -0.334425
v 0.279796 0.712708 -0.360692
v 0.281897 0.713395 -0.345912
v 0.279797 0.718072 -0.347869
v 0.279797 0.718072 -0.347869
v 0.281897 0.713395 -0.345912
v 0.279796 0.712708 -0.360692
v 0.279797 0.723695 -0.334425
v 0.279298 0.721568 -0.349331
v 0.279298 0.727192 -0.335888
v 0.279298 0.727192 -0.335888
v 0.279298 0.721568 -0.349331
v 0.279797 0.723695 -0.334425
v 0.279797 0.718072 -0.347869
v 0.279297 0.716205 -0.362155
v 0.279796 0.712708 -0.360692
v 0.279796 0.712708 -0.360692
v 0.279297 0.716205 -0.362155
v 0.279797 0.718072 -0.347869
v 0.281897 0.713395 -0.345912
v 0.279797 0.723695 -0.334425
v 0.281897 0.719019 -0.332469
v 0.281897 0.719019 -0.332469
v 0.279797 0.723695 -0.334425
v 0.281897 0.713395 -0.345912
v 0.281897 0.713395 -0.345912
v 0.279796 0.712708 -0.360692
v 0.281896 0.708032 -0.358736
v 0.281896 0.708032 -0.358736
v 0.279796 0.712708 -0.360692
v 0.281897 0.713395 -0.345912
v 0.261846 0.682158 -0.347891
v 0.279796 0.712708 -0.360692
v 0.279297 0.716205 -0.362155
v 0.279297 0.716205 -0.362155
v 0.279796 0.712708 -0.360692
v 0.261846 0.682158 -0.347891
v 0.281897 0.719019 -0.332469
v 0.285237 0.709379 -0.344233
v 0.281897 0.713395 -0.345912
v 0.281897 0.713395 -0.345912
v 0.285237 0.709379 -0.344233
v 0.281897 0.719019 -0.332469
v 0.281896 0.708032 -0.358736
v 0.285237 0.709379 -0.344233
v 0.281897 0.713395 -0.345912
v 0.281897 0.713395 -0.345912
v 0.285237 0.709379 -0.344233
v 0.281896 0.708032 -0.358736
v 0.261846 0.682158 -0.347891
v 0.281896 0.708032 -0.358736
v 0.279796 0.712708 -0.360692
v 0.279796 0.712708 -0.360692
v 0.281896 0.708032 -0.358736
v 0.261846 0.682158 -0.347891
v 0.285237 0.709379 -0.344233
v 0.281897 0.719019 -0.332469
v 0.285237 0.715003 -0.330789
v 0.285237 0.715003 -0.330789
v 0.281897 0.719019 -0.332469
v 0.285237 0.709379 -0.344233
v 0.285237 0.709379 -0.344233
v 0.281896 0.708032 -0.358736
v 0.285236 0.704016 -0.357056
v 0.285236 0.704016 -0.357056
v 0.281896 0.708032 -0.358736
v 0.285237 0.709379 -0.344233
v 0.261846 0.682158 -0.347891
v 0.285236 0.704016 -0.357056
v 0.281896 0.708032 -0.358736
v 0.281896 0.708032 -0.358736
v 0.285236 0.704016 -0.357056
v 0.261846 0.682158 -0.347891
v 0.285737 0.709025 -0.344084
v 0.285237 0.715003 -0.330789
v 0.285237 0.709379 -0.344233
v 0.285237 0.709379 -0.344233
v 0.285237 0.715003 -0.330789
v 0.285737 0.709025 -0.344084
v 0.285736 0.703662 -0.356908
v 0.285237 0.709379 -0.344233
v 0.285236 0.704016 -0.357056
v 0.285236 0.704016 -0.357056
v 0.285237 0.709379 -0.344233
v 0.285736 0.703662 -0.356908
v 0.261846 0.682158 -0.347891
v 0.289589 0.700935 -0.355767
v 0.285236 0.704016 -0.357056
v 0.285236 0.704016 -0.357056
v 0.289589 0.700935 -0.355767
v 0.261846 0.682158 -0.347891
v 0.299609 0.698396 -0.354705
v 0.261846 0.682158 -0.347891
v 0.263771 0.680258 -0.347138
v 0.263771 0.680258 -0.347138
v 0.261846 0.682158 -0.347891
v 0.299609 0.698396 -0.354705
v 0.289590 0.706298 -0.342944
v 0.285737 0.714649 -0.330641
v 0.285737 0.709025 -0.344084
v 0.285737 0.709025 -0.344084
v 0.285737 0.714649 -0.330641
v 0.289590 0.706298 -0.342944
v 0.285737 0.709025 -0.344084
v 0.289589 0.700935 -0.355767
v 0.289590 0.706298 -0.342944
v 0.289590 0.706298 -0.342944
v 0.289589 0.700935 -0.355767
v 0.285737 0.709025 -0.344084
v 0.285237 0.709379 -0.344233
v 0.285736 0.703662 -0.356908
v 0.285737 0.709025 -0.344084
v 0.285737 0.709025 -0.344084
v 0.285736 0.703662 -0.356908
v 0.285237 0.709379 -0.344233
v 0.285237 0.715003 -0.330789
v 0.285737 0.709025 -0.344084
v 0.285737 0.714649 -0.330641
v 0.285737 0.714649 -0.330641
v 0.285737 0.709025 -0.344084
v 0.285237 0.715003 -0.330789
v 0.285236 0.704016 -0.357056
v 0.289589 0.700935 -0.355767
v 0.285736 0.703662 -0.356908
v 0.285736 0.703662 -0.356908
v 0.289589 0.700935 -0.355767
v 0.285236 0.704016 -0.357056
v 0.261846 0.682158 -0.347891
v 0.294658 0.698998 -0.354957
v 0.289589 0.700935 -0.355767
v 0.289589 0.700935 -0.355767
v 0.294658 0.698998 -0.354957
v 0.261846 0.682158 -0.347891
v 0.261846 0.682158 -0.347891
v 0.299609 0.698396 -0.354705
v 0.294658 0.698998 -0.354957
v 0.294658 0.698998 -0.354957
v 0.299609 0.698396 -0.354705
v 0.261846 0.682158 -0.347891
v 0.294659 0.709985 -0.328690
v 0.299610 0.703760 -0.341882
v 0.299610 0.709383 -0.328438
v 0.299610 0.709383 -0.328438
v 0.299610 0.703760 -0.341882
v 0.294659 0.709985 -0.328690
v 0.289590 0.711922 -0.329500
v 0.294659 0.704361 -0.342133
v 0.294659 0.709985 -0.328690
v 0.294659 0.709985 -0.328690
v 0.294659 0.704361 -0.342133
v 0.289590 0.711922 -0.329500
v 0.285737 0.714649 -0.330641
v 0.289590 0.706298 -0.342944
v 0.289590 0.711922 -0.329500
v 0.289590 0.711922 -0.329500
v 0.289590 0.706298 -0.342944
v 0.285737 0.714649 -0.330641
v 0.289589 0.700935 -0.355767
v 0.285737 0.709025 -0.344084
v 0.285736 0.703662 -0.356908
v 0.285736 0.703662 -0.356908
v 0.285737 0.709025 -0.344084
v 0.289589 0.700935 -0.355767
v 0.294658 0.698998 -0.354957
v 0.289590 0.706298 -0.342944
v 0.289589 0.700935 -0.355767
v 0.289589 0.700935 -0.355767
v 0.289590 0.706298 -0.342944
v 0.294658 0.698998 -0.354957
v 0.294659 0.704361 -0.342133
v 0.289590 0.711922 -0.329500
v 0.289590 0.706298 -0.342944
v 0.289590 0.706298 -0.342944
v 0.289590 0.711922 -0.329500
v 0.294659 0.704361 -0.342133
v 0.289590 0.706298 -0.342944
v 0.294658 0.698998 -0.354957
v 0.294659 0.704361 -0.342133
v 0.294659 0.704361 -0.342133
v 0.294658 0.698998 -0.354957
v 0.289590 0.706298 -0.342944
v 0.299609 0.698396 -0.354705
v 0.294659 0.704361 -0.342133
v 0.294658 0.698998 -0.354957
v 0.294658 0.698998 -0.354957
v 0.294659 0.704361 -0.342133
v 0.299609 0.698396 -0.354705
v 0.299610 0.703760 -0.341882
v 0.294659 0.709985 -0.328690
v 0.294659 0.704361 -0.342133
v 0.294659 0.704361 -0.342133
v 0.294659 0.709985 -0.328690
v 0.299610 0.703760 -0.341882
v 0.294659 0.704361 -0.342133
v 0.299609 0.698396 -0.354705
v 0.299610 0.703760 -0.341882
v 0.299610 0.703760 -0.341882
v 0.299609 0.698396 -0.354705
v 0.294659 0.704361 -0.342133
vt 0 0
vn 0.99144490179943 0.12041498958077726 -0.050370993440467145
vn 0.9659259211884978 0.2387699757967989 -0.09987999516493733
vn -0.9659259211884978 -0.2387699757967989 0.09987999516493733
vn -0.99144490179943 -0.12041498958077726 0.050370993440467145
vn -0.9914448715243566 -0.12039598692578173 0.05041699178073798
vn -0.9659259420470193 -0.23875399200773434 0.09991799528087626
vn 0.9914448715243566 0.12039598692578173 -0.05041699178073798
vn 0.9659259420470193 0.23875399200773434 -0.09991799528087626
vn 0.8660253195888886 0.4612691768956365 -0.19295308309790082
vn -0.8660253195888886 -0.4612691768956365 0.19295308309790082
vn -0.8660254062855801 -0.46126022276682144 0.19297409816086306
vn 0.8660254062855801 0.46126022276682144 -0.19297409816086306
vn 0.00005800002386611637 0.3858551384493755 0.9225593795351117
vn -0.00005800002386611637 -0.3858551384493755 -0.9225593795351117
vn 0.7071068123755656 -0.6523328411510149 0.272876932421763
vn -0.7071068123755656 0.6523328411510149 -0.272876932421763
vn -0.707106894487695 -0.6523319036237679 0.27287896086462704
vn 0.707106894487695 0.6523319036237679 -0.27287896086462704
vn -0.6087609827976995 -0.7318989872805285 0.3061599879816364
vn 0.6087609827976995 0.7318989872805285 -0.3061599879816364
vn -0.6087611490902137 -0.7319021674430077 0.30615205478747026
vn 0.6087611490902137 0.7319021674430077 -0.30615205478747026
vn -0.5000002367084209 -0.7989413944293373 0.3342041465314714
vn 0.5000002367084209 0.7989413944293373 -0.3342041465314714
vn -0.49999988465598183 -0.798948818911628 0.33418692389697074
vn 0.49999988465598183 0.798948818911628 -0.33418692389697074
vn -0.25881905749370177 -0.8911031795696255 0.3727570506898235
vn -0.13052594270980505 -0.914645584419527 0.3826048002594565
vn 0.13052594270980505 0.914645584419527 -0.3826048002594565
vn 0.25881905749370177 0.8911031795696255 -0.3727570506898235
vn -0.2588190801034166 -0.8911182181835962 0.37272108203818305
vn 0.2588190801034166 0.8911182181835962 -0.37272108203818305
vn -0.13052599744247786 -0.9146639089493296 0.38256097246998255
vn 0.13052599744247786 0.9146639089493296 -0.38256097246998255
usemtl material_0_0
f 1/1/1 2/1/2 3/1/2
f 4/1/3 5/1/3 6/1/4
f 7/1/5 8/1/6 9/1/5
f 10/1/7 11/1/8 12/1/7
f 13/1/2 14/1/9 15/1/2
f 16/1/3 17/1/10 18/1/3
f 19/1/6 20/1/11 21/1/6
f 22/1/8 23/1/12 24/1/8
f 25/1/2 26/1/1 27/1/1
f 28/1/4 29/1/4 30/1/3
f 31/1/6 32/1/5 33/1/6
f 34/1/8 35/1/7 36/1/8
f 37/1/9 38/1/2 39/1/9
f 40/1/10 41/1/3 42/1/10
f 43/1/11 44/1/6 45/1/11
f 46/1/12 47/1/8 48/1/12
f 49/1/13 50/1/13 51/1/13
f 52/1/14 53/1/14 54/1/14
f 55/1/9 56/1/15 57/1/9
f 58/1/10 59/1/16 60/1/10
f 61/1/11 62/1/17 63/1/11
f 64/1/12 65/1/18 66/1/12
f 67/1/13 68/1/13 69/1/13
f 70/1/14 71/1/14 72/1/14
f 73/1/15 74/1/9 75/1/15
f 76/1/16 77/1/10 78/1/16
f 79/1/17 80/1/11 81/1/17
f 82/1/18 83/1/12 84/1/18
f 85/1/13 86/1/13 87/1/13
f 88/1/14 89/1/14 90/1/14
f 91/1/19 92/1/15 93/1/15
f 94/1/16 95/1/16 96/1/20
f 97/1/21 98/1/17 99/1/17
f 100/1/18 101/1/18 102/1/22
f 103/1/13 104/1/13 105/1/13
f 106/1/14 107/1/14 108/1/14
f 109/1/13 110/1/13 111/1/13
f 112/1/14 113/1/14 114/1/14
f 115/1/23 116/1/19 117/1/19
f 118/1/20 119/1/20 120/1/24
f 121/1/21 122/1/25 123/1/25
f 124/1/26 125/1/26 126/1/22
f 127/1/17 128/1/21 129/1/21
f 130/1/22 131/1/22 132/1/18
f 133/1/15 134/1/19 135/1/19
f 136/1/20 137/1/20 138/1/16
f 139/1/13 140/1/13 141/1/13
f 142/1/14 143/1/14 144/1/14
f 145/1/13 146/1/13 147/1/13
f 148/1/14 149/1/14 150/1/14
f 151/1/13 152/1/13 153/1/13
f 154/1/14 155/1/14 156/1/14
f 157/1/27 158/1/28 159/1/28
f 160/1/29 161/1/29 162/1/30
f 163/1/23 164/1/27 165/1/27
f 166/1/30 167/1/30 168/1/24
f 169/1/19 170/1/23 171/1/23
f 172/1/24 173/1/24 174/1/20
f 175/1/25 176/1/21 177/1/21
f 178/1/22 179/1/22 180/1/26
f 181/1/31 182/1/25 183/1/25
f 184/1/26 185/1/26 186/1/32
f 187/1/27 188/1/23 189/1/23
f 190/1/24 191/1/24 192/1/30
f 193/1/25 194/1/31 195/1/31
f 196/1/32 197/1/32 198/1/26
f 199/1/33 200/1/31 201/1/31
f 202/1/32 203/1/32 204/1/34
f 205/1/28 206/1/27 207/1/27
f 208/1/30 209/1/30 210/1/29
f 211/1/31 212/1/33 213/1/33
f 214/1/34 215/1/34 216/1/32
