# SSTK version 0.8.0
# 54
mtllib original-54.mtl
o mesh26/mesh26-geometry/material_4/component_1#mesh26-geometry
v -0.280253 0.347969 -0.401316
v -0.278564 0.345033 -0.401316
v -0.280253 0.347969 -0.470511
v -0.278564 0.345033 -0.401316
v -0.276173 0.342634 -0.401316
v -0.278564 0.345033 -0.470511
v -0.273203 0.364909 -0.401316
v -0.273203 0.364909 -0.470511
v -0.269931 0.365780 -0.401316
v -0.269931 0.365780 -0.401316
v -0.269931 0.365780 -0.470511
v -0.266544 0.365774 -0.401316
v -0.266586 0.340048 -0.401316
v -0.266586 0.340048 -0.470511
v -0.269973 0.340054 -0.401316
v -0.281124 0.351242 -0.401316
v -0.280253 0.347969 -0.401316
v -0.281124 0.351242 -0.470511
v -0.278564 0.345033 -0.470511
v -0.280253 0.347969 -0.470511
v -0.278564 0.345033 -0.401316
v -0.280253 0.347969 -0.470511
v -0.281124 0.351242 -0.470511
v -0.280253 0.347969 -0.401316
v -0.276173 0.342634 -0.470511
v -0.278564 0.345033 -0.470511
v -0.276173 0.342634 -0.401316
v -0.273243 0.340936 -0.401316
v -0.273243 0.340936 -0.470511
v -0.276173 0.342634 -0.401316
v -0.276139 0.363220 -0.401316
v -0.276139 0.363220 -0.470511
v -0.273203 0.364909 -0.401316
v -0.269931 0.365780 -0.470511
v -0.269931 0.365780 -0.401316
v -0.273203 0.364909 -0.470511
v -0.273203 0.364909 -0.470511
v -0.273203 0.364909 -0.401316
v -0.276139 0.363220 -0.470511
v -0.266544 0.365774 -0.470511
v -0.266544 0.365774 -0.401316
v -0.269931 0.365780 -0.470511
v -0.269973 0.340054 -0.401316
v -0.269973 0.340054 -0.470511
v -0.273243 0.340936 -0.401316
v -0.269973 0.340054 -0.470511
v -0.269973 0.340054 -0.401316
v -0.266586 0.340048 -0.470511
v -0.266586 0.340048 -0.470511
v -0.266586 0.340048 -0.401316
v -0.263313 0.340919 -0.470511
v -0.263313 0.340919 -0.401316
v -0.263313 0.340919 -0.470511
v -0.266586 0.340048 -0.401316
v -0.281119 0.354629 -0.401316
v -0.281124 0.351242 -0.401316
v -0.281119 0.354629 -0.470511
v -0.281124 0.351242 -0.470511
v -0.281119 0.354629 -0.470511
v -0.281124 0.351242 -0.401316
v -0.280253 0.347969 -0.470511
v -0.278564 0.345033 -0.470511
v -0.272583 0.345423 -0.470511
v -0.281124 0.351242 -0.470511
v -0.280253 0.347969 -0.470511
v -0.275749 0.348589 -0.470511
v -0.276173 0.342634 -0.470511
v -0.268258 0.344265 -0.470511
v -0.278564 0.345033 -0.470511
v -0.276173 0.342634 -0.470511
v -0.276173 0.342634 -0.401316
v -0.273243 0.340936 -0.470511
v -0.273243 0.340936 -0.470511
v -0.273243 0.340936 -0.401316
v -0.269973 0.340054 -0.470511
v -0.278538 0.360829 -0.401316
v -0.278538 0.360829 -0.470511
v -0.276139 0.363220 -0.401316
v -0.276139 0.363220 -0.470511
v -0.276139 0.363220 -0.401316
v -0.278538 0.360829 -0.470511
v -0.269931 0.365780 -0.470511
v -0.273203 0.364909 -0.470511
v -0.266544 0.365774 -0.470511
v -0.273203 0.364909 -0.470511
v -0.276139 0.363220 -0.470511
v -0.263274 0.364892 -0.470511
v -0.266544 0.365774 -0.401316
v -0.266544 0.365774 -0.470511
v -0.263274 0.364892 -0.401316
v -0.266586 0.340048 -0.470511
v -0.263313 0.340919 -0.470511
v -0.269973 0.340054 -0.470511
v -0.263313 0.340919 -0.470511
v -0.263313 0.340919 -0.401316
v -0.260377 0.342608 -0.470511
v -0.280237 0.357899 -0.401316
v -0.281119 0.354629 -0.401316
v -0.280237 0.357899 -0.470511
v -0.281119 0.354629 -0.470511
v -0.280237 0.357899 -0.470511
v -0.281119 0.354629 -0.401316
v -0.281119 0.354629 -0.470511
v -0.281124 0.351242 -0.470511
v -0.276908 0.352914 -0.470511
v -0.272583 0.345423 -0.470511
v -0.278564 0.345033 -0.470511
v -0.270497 0.344559 -0.470511
v -0.274374 0.346798 -0.470511
v -0.280253 0.347969 -0.470511
v -0.272583 0.345423 -0.470511
v -0.275749 0.348589 -0.470511
v -0.280253 0.347969 -0.470511
v -0.274374 0.346798 -0.470511
v -0.276613 0.350675 -0.470511
v -0.281124 0.351242 -0.470511
v -0.275749 0.348589 -0.470511
v -0.270497 0.344559 -0.470511
v -0.278564 0.345033 -0.470511
v -0.268258 0.344265 -0.470511
v -0.268258 0.344265 -0.470511
v -0.276173 0.342634 -0.470511
v -0.257978 0.344999 -0.470511
v -0.276173 0.342634 -0.470511
v -0.273243 0.340936 -0.470511
v -0.260377 0.342608 -0.470511
v -0.273243 0.340936 -0.470511
v -0.269973 0.340054 -0.470511
v -0.263313 0.340919 -0.470511
v -0.278538 0.360829 -0.401316
v -0.280237 0.357899 -0.401316
v -0.278538 0.360829 -0.470511
v -0.276139 0.363220 -0.470511
v -0.278538 0.360829 -0.470511
v -0.270497 0.361269 -0.470511
v -0.266544 0.365774 -0.470511
v -0.273203 0.364909 -0.470511
v -0.263274 0.364892 -0.470511
v -0.263274 0.364892 -0.470511
v -0.276139 0.363220 -0.470511
v -0.260343 0.363194 -0.470511
v -0.263274 0.364892 -0.470511
v -0.263274 0.364892 -0.401316
v -0.266544 0.365774 -0.470511
v -0.260377 0.342608 -0.401316
v -0.260377 0.342608 -0.470511
v -0.263313 0.340919 -0.401316
v -0.260377 0.342608 -0.470511
v -0.273243 0.340936 -0.470511
v -0.263313 0.340919 -0.470511
v -0.280237 0.357899 -0.470511
v -0.278538 0.360829 -0.470511
v -0.280237 0.357899 -0.401316
v -0.280237 0.357899 -0.470511
v -0.281119 0.354629 -0.470511
v -0.276613 0.355153 -0.470511
v -0.276908 0.352914 -0.470511
v -0.281124 0.351242 -0.470511
v -0.276613 0.350675 -0.470511
v -0.276613 0.355153 -0.470511
v -0.281119 0.354629 -0.470511
v -0.276908 0.352914 -0.470511
v -0.270497 0.344559 -0.470511
v -0.270497 0.344559 -0.401316
v -0.272583 0.345423 -0.470511
v -0.272583 0.345423 -0.470511
v -0.272583 0.345423 -0.401316
v -0.274374 0.346798 -0.470511
v -0.275749 0.348589 -0.470511
v -0.274374 0.346798 -0.470511
v -0.275749 0.348589 -0.401316
v -0.276613 0.350675 -0.470511
v -0.275749 0.348589 -0.470511
v -0.276613 0.350675 -0.401316
v -0.268258 0.344265 -0.470511
v -0.268258 0.344265 -0.401316
v -0.270497 0.344559 -0.470511
v -0.257978 0.344999 -0.470511
v -0.276173 0.342634 -0.470511
v -0.260377 0.342608 -0.470511
v -0.266020 0.344559 -0.470511
v -0.268258 0.344265 -0.470511
v -0.257978 0.344999 -0.470511
v -0.270497 0.361269 -0.470511
v -0.278538 0.360829 -0.470511
v -0.272583 0.360405 -0.470511
v -0.268258 0.361563 -0.470511
v -0.276139 0.363220 -0.470511
v -0.270497 0.361269 -0.470511
v -0.260343 0.363194 -0.470511
v -0.276139 0.363220 -0.470511
v -0.268258 0.361563 -0.470511
v -0.260343 0.363194 -0.470511
v -0.260343 0.363194 -0.401316
v -0.263274 0.364892 -0.470511
v -0.263274 0.364892 -0.401316
v -0.263274 0.364892 -0.470511
v -0.260343 0.363194 -0.401316
v -0.260377 0.342608 -0.470511
v -0.260377 0.342608 -0.401316
v -0.257978 0.344999 -0.470511
v -0.278538 0.360829 -0.470511
v -0.280237 0.357899 -0.470511
v -0.274374 0.359030 -0.470511
v -0.275749 0.357239 -0.470511
v -0.280237 0.357899 -0.470511
v -0.276613 0.355153 -0.470511
v -0.276908 0.352914 -0.470511
v -0.276613 0.350675 -0.470511
v -0.276908 0.352914 -0.401316
v -0.276613 0.355153 -0.470511
v -0.276908 0.352914 -0.470511
v -0.276613 0.355153 -0.401316
v -0.272583 0.345423 -0.401316
v -0.272583 0.345423 -0.470511
v -0.270497 0.344559 -0.401316
v -0.270497 0.344559 -0.401316
v -0.270497 0.344559 -0.470511
v -0.268258 0.344265 -0.401316
v -0.274374 0.346798 -0.401316
v -0.274374 0.346798 -0.470511
v -0.272583 0.345423 -0.401316
v -0.274374 0.346798 -0.401316
v -0.275749 0.348589 -0.401316
v -0.274374 0.346798 -0.470511
v -0.275749 0.348589 -0.401316
v -0.276613 0.350675 -0.401316
v -0.275749 0.348589 -0.470511
v -0.276613 0.350675 -0.401316
v -0.276908 0.352914 -0.401316
v -0.276613 0.350675 -0.470511
v -0.268258 0.344265 -0.401316
v -0.268258 0.344265 -0.470511
v -0.266020 0.344559 -0.401316
v -0.266020 0.344559 -0.470511
v -0.266020 0.344559 -0.401316
v -0.268258 0.344265 -0.470511
v -0.263934 0.345423 -0.470511
v -0.266020 0.344559 -0.470511
v -0.257978 0.344999 -0.470511
v -0.272583 0.360405 -0.470511
v -0.278538 0.360829 -0.470511
v -0.274374 0.359030 -0.470511
v -0.272583 0.360405 -0.470511
v -0.272583 0.360405 -0.401316
v -0.270497 0.361269 -0.470511
v -0.270497 0.361269 -0.470511
v -0.270497 0.361269 -0.401316
v -0.268258 0.361563 -0.470511
v -0.268258 0.361563 -0.470511
v -0.266020 0.361269 -0.470511
v -0.260343 0.363194 -0.470511
v -0.260343 0.363194 -0.470511
v -0.257952 0.360795 -0.470511
v -0.260343 0.363194 -0.401316
v -0.257978 0.344999 -0.401316
v -0.257978 0.344999 -0.470511
v -0.260377 0.342608 -0.401316
v -0.274374 0.359030 -0.470511
v -0.280237 0.357899 -0.470511
v -0.275749 0.357239 -0.470511
v -0.275749 0.357239 -0.470511
v -0.276613 0.355153 -0.470511
v -0.275749 0.357239 -0.401316
v -0.276908 0.352914 -0.401316
v -0.276613 0.355153 -0.401316
v -0.276908 0.352914 -0.470511
v -0.276613 0.355153 -0.401316
v -0.275749 0.357239 -0.401316
v -0.276613 0.355153 -0.470511
v -0.266020 0.344559 -0.401316
v -0.266020 0.344559 -0.470511
v -0.263934 0.345423 -0.401316
v -0.263934 0.345423 -0.470511
v -0.263934 0.345423 -0.401316
v -0.266020 0.344559 -0.470511
v -0.256280 0.347929 -0.470511
v -0.263934 0.345423 -0.470511
v -0.257978 0.344999 -0.470511
v -0.274374 0.359030 -0.470511
v -0.274374 0.359030 -0.401316
v -0.272583 0.360405 -0.470511
v -0.270497 0.361269 -0.401316
v -0.270497 0.361269 -0.470511
v -0.272583 0.360405 -0.401316
v -0.272583 0.360405 -0.401316
v -0.272583 0.360405 -0.470511
v -0.274374 0.359030 -0.401316
v -0.268258 0.361563 -0.401316
v -0.268258 0.361563 -0.470511
v -0.270497 0.361269 -0.401316
v -0.260343 0.363194 -0.470511
v -0.266020 0.361269 -0.470511
v -0.257952 0.360795 -0.470511
v -0.268258 0.361563 -0.470511
v -0.268258 0.361563 -0.401316
v -0.266020 0.361269 -0.470511
v -0.257952 0.360795 -0.401316
v -0.260343 0.363194 -0.401316
v -0.257952 0.360795 -0.470511
v -0.257978 0.344999 -0.401316
v -0.256280 0.347929 -0.401316
v -0.257978 0.344999 -0.470511
v -0.274374 0.359030 -0.470511
v -0.275749 0.357239 -0.470511
v -0.274374 0.359030 -0.401316
v -0.275749 0.357239 -0.401316
v -0.274374 0.359030 -0.401316
v -0.275749 0.357239 -0.470511
v -0.263934 0.345423 -0.401316
v -0.263934 0.345423 -0.470511
v -0.262142 0.346798 -0.401316
v -0.262142 0.346798 -0.470511
v -0.263934 0.345423 -0.470511
v -0.256280 0.347929 -0.470511
v -0.256280 0.347929 -0.470511
v -0.257978 0.344999 -0.470511
v -0.256280 0.347929 -0.401316
v -0.266020 0.361269 -0.470511
v -0.263934 0.360405 -0.470511
v -0.257952 0.360795 -0.470511
v -0.266020 0.361269 -0.401316
v -0.266020 0.361269 -0.470511
v -0.268258 0.361563 -0.401316
v -0.257952 0.360795 -0.470511
v -0.256264 0.357859 -0.470511
v -0.257952 0.360795 -0.401316
v -0.262142 0.346798 -0.470511
v -0.262142 0.346798 -0.401316
v -0.263934 0.345423 -0.470511
v -0.260768 0.348589 -0.470511
v -0.262142 0.346798 -0.470511
v -0.256280 0.347929 -0.470511
v -0.256280 0.347929 -0.401316
v -0.255398 0.351199 -0.401316
v -0.256280 0.347929 -0.470511
v -0.263934 0.360405 -0.470511
v -0.262142 0.359030 -0.470511
v -0.257952 0.360795 -0.470511
v -0.266020 0.361269 -0.470511
v -0.266020 0.361269 -0.401316
v -0.263934 0.360405 -0.470511
v -0.256264 0.357859 -0.401316
v -0.257952 0.360795 -0.401316
v -0.256264 0.357859 -0.470511
v -0.257952 0.360795 -0.470511
v -0.262142 0.359030 -0.470511
v -0.256264 0.357859 -0.470511
v -0.262142 0.346798 -0.470511
v -0.260768 0.348589 -0.470511
v -0.262142 0.346798 -0.401316
v -0.255398 0.351199 -0.470511
v -0.260768 0.348589 -0.470511
v -0.256280 0.347929 -0.470511
v -0.255398 0.351199 -0.470511
v -0.256280 0.347929 -0.470511
v -0.255398 0.351199 -0.401316
v -0.263934 0.360405 -0.470511
v -0.263934 0.360405 -0.401316
v -0.262142 0.359030 -0.470511
v -0.263934 0.360405 -0.401316
v -0.263934 0.360405 -0.470511
v -0.266020 0.361269 -0.401316
v -0.256264 0.357859 -0.470511
v -0.255393 0.354586 -0.470511
v -0.256264 0.357859 -0.401316
v -0.262142 0.359030 -0.470511
v -0.260768 0.357239 -0.470511
v -0.256264 0.357859 -0.470511
v -0.260768 0.348589 -0.401316
v -0.262142 0.346798 -0.401316
v -0.260768 0.348589 -0.470511
v -0.259904 0.350675 -0.470511
v -0.260768 0.348589 -0.470511
v -0.255398 0.351199 -0.470511
v -0.255398 0.351199 -0.401316
v -0.255393 0.354586 -0.401316
v -0.255398 0.351199 -0.470511
v -0.262142 0.359030 -0.401316
v -0.262142 0.359030 -0.470511
v -0.263934 0.360405 -0.401316
v -0.255393 0.354586 -0.401316
v -0.256264 0.357859 -0.401316
v -0.255393 0.354586 -0.470511
v -0.256264 0.357859 -0.470511
v -0.259904 0.355153 -0.470511
v -0.255393 0.354586 -0.470511
v -0.260768 0.357239 -0.470511
v -0.259904 0.355153 -0.470511
v -0.256264 0.357859 -0.470511
v -0.260768 0.357239 -0.470511
v -0.262142 0.359030 -0.470511
v -0.260768 0.357239 -0.401316
v -0.260768 0.348589 -0.470511
v -0.259904 0.350675 -0.470511
v -0.260768 0.348589 -0.401316
v -0.259609 0.352914 -0.470511
v -0.259904 0.350675 -0.470511
v -0.255398 0.351199 -0.470511
v -0.255393 0.354586 -0.470511
v -0.255398 0.351199 -0.470511
v -0.255393 0.354586 -0.401316
v -0.262142 0.359030 -0.401316
v -0.260768 0.357239 -0.401316
v -0.262142 0.359030 -0.470511
v -0.259904 0.355153 -0.470511
v -0.259609 0.352914 -0.470511
v -0.255393 0.354586 -0.470511
v -0.259904 0.355153 -0.470511
v -0.260768 0.357239 -0.470511
v -0.259904 0.355153 -0.401316
v -0.260768 0.357239 -0.401316
v -0.259904 0.355153 -0.401316
v -0.260768 0.357239 -0.470511
v -0.259904 0.350675 -0.401316
v -0.260768 0.348589 -0.401316
v -0.259904 0.350675 -0.470511
v -0.259904 0.350675 -0.470511
v -0.259609 0.352914 -0.470511
v -0.259904 0.350675 -0.401316
v -0.255393 0.354586 -0.470511
v -0.259609 0.352914 -0.470511
v -0.255398 0.351199 -0.470511
v -0.259609 0.352914 -0.470511
v -0.259904 0.355153 -0.470511
v -0.259609 0.352914 -0.401316
v -0.259904 0.355153 -0.401316
v -0.259609 0.352914 -0.401316
v -0.259904 0.355153 -0.470511
v -0.259609 0.352914 -0.401316
v -0.259904 0.350675 -0.401316
v -0.259609 0.352914 -0.470511
v -0.280253 0.347969 -0.470511
v -0.278564 0.345033 -0.401316
v -0.280253 0.347969 -0.401316
v -0.278564 0.345033 -0.470511
v -0.276173 0.342634 -0.401316
v -0.278564 0.345033 -0.401316
v -0.269931 0.365780 -0.401316
v -0.273203 0.364909 -0.470511
v -0.273203 0.364909 -0.401316
v -0.266544 0.365774 -0.401316
v -0.269931 0.365780 -0.470511
v -0.269931 0.365780 -0.401316
v -0.269973 0.340054 -0.401316
v -0.266586 0.340048 -0.470511
v -0.266586 0.340048 -0.401316
v -0.281124 0.351242 -0.470511
v -0.280253 0.347969 -0.401316
v -0.281124 0.351242 -0.401316
v -0.278564 0.345033 -0.401316
v -0.280253 0.347969 -0.470511
v -0.278564 0.345033 -0.470511
v -0.280253 0.347969 -0.401316
v -0.281124 0.351242 -0.470511
v -0.280253 0.347969 -0.470511
v -0.276173 0.342634 -0.401316
v -0.278564 0.345033 -0.470511
v -0.276173 0.342634 -0.470511
v -0.276173 0.342634 -0.401316
v -0.273243 0.340936 -0.470511
v -0.273243 0.340936 -0.401316
v -0.273203 0.364909 -0.401316
v -0.276139 0.363220 -0.470511
v -0.276139 0.363220 -0.401316
v -0.273203 0.364909 -0.470511
v -0.269931 0.365780 -0.401316
v -0.269931 0.365780 -0.470511
v -0.276139 0.363220 -0.470511
v -0.273203 0.364909 -0.401316
v -0.273203 0.364909 -0.470511
v -0.269931 0.365780 -0.470511
v -0.266544 0.365774 -0.401316
v -0.266544 0.365774 -0.470511
v -0.273243 0.340936 -0.401316
v -0.269973 0.340054 -0.470511
v -0.269973 0.340054 -0.401316
v -0.266586 0.340048 -0.470511
v -0.269973 0.340054 -0.401316
v -0.269973 0.340054 -0.470511
v -0.263313 0.340919 -0.470511
v -0.266586 0.340048 -0.401316
v -0.266586 0.340048 -0.470511
v -0.266586 0.340048 -0.401316
v -0.263313 0.340919 -0.470511
v -0.263313 0.340919 -0.401316
v -0.281119 0.354629 -0.470511
v -0.281124 0.351242 -0.401316
v -0.281119 0.354629 -0.401316
v -0.281124 0.351242 -0.401316
v -0.281119 0.354629 -0.470511
v -0.281124 0.351242 -0.470511
v -0.272583 0.345423 -0.470511
v -0.278564 0.345033 -0.470511
v -0.280253 0.347969 -0.470511
v -0.275749 0.348589 -0.470511
v -0.280253 0.347969 -0.470511
v -0.281124 0.351242 -0.470511
v -0.278564 0.345033 -0.470511
v -0.268258 0.344265 -0.470511
v -0.276173 0.342634 -0.470511
v -0.273243 0.340936 -0.470511
v -0.276173 0.342634 -0.401316
v -0.276173 0.342634 -0.470511
v -0.269973 0.340054 -0.470511
v -0.273243 0.340936 -0.401316
v -0.273243 0.340936 -0.470511
v -0.276139 0.363220 -0.401316
v -0.278538 0.360829 -0.470511
v -0.278538 0.360829 -0.401316
v -0.278538 0.360829 -0.470511
v -0.276139 0.363220 -0.401316
v -0.276139 0.363220 -0.470511
v -0.266544 0.365774 -0.470511
v -0.273203 0.364909 -0.470511
v -0.269931 0.365780 -0.470511
v -0.263274 0.364892 -0.470511
v -0.276139 0.363220 -0.470511
v -0.273203 0.364909 -0.470511
v -0.263274 0.364892 -0.401316
v -0.266544 0.365774 -0.470511
v -0.266544 0.365774 -0.401316
v -0.269973 0.340054 -0.470511
v -0.263313 0.340919 -0.470511
v -0.266586 0.340048 -0.470511
v -0.260377 0.342608 -0.470511
v -0.263313 0.340919 -0.401316
v -0.263313 0.340919 -0.470511
v -0.280237 0.357899 -0.470511
v -0.281119 0.354629 -0.401316
v -0.280237 0.357899 -0.401316
v -0.281119 0.354629 -0.401316
v -0.280237 0.357899 -0.470511
v -0.281119 0.354629 -0.470511
v -0.276908 0.352914 -0.470511
v -0.281124 0.351242 -0.470511
v -0.281119 0.354629 -0.470511
v -0.270497 0.344559 -0.470511
v -0.278564 0.345033 -0.470511
v -0.272583 0.345423 -0.470511
v -0.272583 0.345423 -0.470511
v -0.280253 0.347969 -0.470511
v -0.274374 0.346798 -0.470511
v -0.274374 0.346798 -0.470511
v -0.280253 0.347969 -0.470511
v -0.275749 0.348589 -0.470511
v -0.275749 0.348589 -0.470511
v -0.281124 0.351242 -0.470511
v -0.276613 0.350675 -0.470511
v -0.268258 0.344265 -0.470511
v -0.278564 0.345033 -0.470511
v -0.270497 0.344559 -0.470511
v -0.257978 0.344999 -0.470511
v -0.276173 0.342634 -0.470511
v -0.268258 0.344265 -0.470511
v -0.260377 0.342608 -0.470511
v -0.273243 0.340936 -0.470511
v -0.276173 0.342634 -0.470511
v -0.263313 0.340919 -0.470511
v -0.269973 0.340054 -0.470511
v -0.273243 0.340936 -0.470511
v -0.278538 0.360829 -0.470511
v -0.280237 0.357899 -0.401316
v -0.278538 0.360829 -0.401316
v -0.270497 0.361269 -0.470511
v -0.278538 0.360829 -0.470511
v -0.276139 0.363220 -0.470511
v -0.263274 0.364892 -0.470511
v -0.273203 0.364909 -0.470511
v -0.266544 0.365774 -0.470511
v -0.260343 0.363194 -0.470511
v -0.276139 0.363220 -0.470511
v -0.263274 0.364892 -0.470511
v -0.266544 0.365774 -0.470511
v -0.263274 0.364892 -0.401316
v -0.263274 0.364892 -0.470511
v -0.263313 0.340919 -0.401316
v -0.260377 0.342608 -0.470511
v -0.260377 0.342608 -0.401316
v -0.263313 0.340919 -0.470511
v -0.273243 0.340936 -0.470511
v -0.260377 0.342608 -0.470511
v -0.280237 0.357899 -0.401316
v -0.278538 0.360829 -0.470511
v -0.280237 0.357899 -0.470511
v -0.276613 0.355153 -0.470511
v -0.281119 0.354629 -0.470511
v -0.280237 0.357899 -0.470511
v -0.276613 0.350675 -0.470511
v -0.281124 0.351242 -0.470511
v -0.276908 0.352914 -0.470511
v -0.276908 0.352914 -0.470511
v -0.281119 0.354629 -0.470511
v -0.276613 0.355153 -0.470511
v -0.272583 0.345423 -0.470511
v -0.270497 0.344559 -0.401316
v -0.270497 0.344559 -0.470511
v -0.274374 0.346798 -0.470511
v -0.272583 0.345423 -0.401316
v -0.272583 0.345423 -0.470511
v -0.275749 0.348589 -0.401316
v -0.274374 0.346798 -0.470511
v -0.275749 0.348589 -0.470511
v -0.276613 0.350675 -0.401316
v -0.275749 0.348589 -0.470511
v -0.276613 0.350675 -0.470511
v -0.270497 0.344559 -0.470511
v -0.268258 0.344265 -0.401316
v -0.268258 0.344265 -0.470511
v -0.260377 0.342608 -0.470511
v -0.276173 0.342634 -0.470511
v -0.257978 0.344999 -0.470511
v -0.257978 0.344999 -0.470511
v -0.268258 0.344265 -0.470511
v -0.266020 0.344559 -0.470511
v -0.272583 0.360405 -0.470511
v -0.278538 0.360829 -0.470511
v -0.270497 0.361269 -0.470511
v -0.270497 0.361269 -0.470511
v -0.276139 0.363220 -0.470511
v -0.268258 0.361563 -0.470511
v -0.268258 0.361563 -0.470511
v -0.276139 0.363220 -0.470511
v -0.260343 0.363194 -0.470511
v -0.263274 0.364892 -0.470511
v -0.260343 0.363194 -0.401316
v -0.260343 0.363194 -0.470511
v -0.260343 0.363194 -0.401316
v -0.263274 0.364892 -0.470511
v -0.263274 0.364892 -0.401316
v -0.257978 0.344999 -0.470511
v -0.260377 0.342608 -0.401316
v -0.260377 0.342608 -0.470511
v -0.274374 0.359030 -0.470511
v -0.280237 0.357899 -0.470511
v -0.278538 0.360829 -0.470511
v -0.276613 0.355153 -0.470511
v -0.280237 0.357899 -0.470511
v -0.275749 0.357239 -0.470511
v -0.276908 0.352914 -0.401316
v -0.276613 0.350675 -0.470511
v -0.276908 0.352914 -0.470511
v -0.276613 0.355153 -0.401316
v -0.276908 0.352914 -0.470511
v -0.276613 0.355153 -0.470511
v -0.270497 0.344559 -0.401316
v -0.272583 0.345423 -0.470511
v -0.272583 0.345423 -0.401316
v -0.268258 0.344265 -0.401316
v -0.270497 0.344559 -0.470511
v -0.270497 0.344559 -0.401316
v -0.272583 0.345423 -0.401316
v -0.274374 0.346798 -0.470511
v -0.274374 0.346798 -0.401316
v -0.274374 0.346798 -0.470511
v -0.275749 0.348589 -0.401316
v -0.274374 0.346798 -0.401316
v -0.275749 0.348589 -0.470511
v -0.276613 0.350675 -0.401316
v -0.275749 0.348589 -0.401316
v -0.276613 0.350675 -0.470511
v -0.276908 0.352914 -0.401316
v -0.276613 0.350675 -0.401316
v -0.266020 0.344559 -0.401316
v -0.268258 0.344265 -0.470511
v -0.268258 0.344265 -0.401316
v -0.268258 0.344265 -0.470511
v -0.266020 0.344559 -0.401316
v -0.266020 0.344559 -0.470511
v -0.257978 0.344999 -0.470511
v -0.266020 0.344559 -0.470511
v -0.263934 0.345423 -0.470511
v -0.274374 0.359030 -0.470511
v -0.278538 0.360829 -0.470511
v -0.272583 0.360405 -0.470511
v -0.270497 0.361269 -0.470511
v -0.272583 0.360405 -0.401316
v -0.272583 0.360405 -0.470511
v -0.268258 0.361563 -0.470511
v -0.270497 0.361269 -0.401316
v -0.270497 0.361269 -0.470511
v -0.260343 0.363194 -0.470511
v -0.266020 0.361269 -0.470511
v -0.268258 0.361563 -0.470511
v -0.260343 0.363194 -0.401316
v -0.257952 0.360795 -0.470511
v -0.260343 0.363194 -0.470511
v -0.260377 0.342608 -0.401316
v -0.257978 0.344999 -0.470511
v -0.257978 0.344999 -0.401316
v -0.275749 0.357239 -0.470511
v -0.280237 0.357899 -0.470511
v -0.274374 0.359030 -0.470511
v -0.275749 0.357239 -0.401316
v -0.276613 0.355153 -0.470511
v -0.275749 0.357239 -0.470511
v -0.276908 0.352914 -0.470511
v -0.276613 0.355153 -0.401316
v -0.276908 0.352914 -0.401316
v -0.276613 0.355153 -0.470511
v -0.275749 0.357239 -0.401316
v -0.276613 0.355153 -0.401316
v -0.263934 0.345423 -0.401316
v -0.266020 0.344559 -0.470511
v -0.266020 0.344559 -0.401316
v -0.266020 0.344559 -0.470511
v -0.263934 0.345423 -0.401316
v -0.263934 0.345423 -0.470511
v -0.257978 0.344999 -0.470511
v -0.263934 0.345423 -0.470511
v -0.256280 0.347929 -0.470511
v -0.272583 0.360405 -0.470511
v -0.274374 0.359030 -0.401316
v -0.274374 0.359030 -0.470511
v -0.272583 0.360405 -0.401316
v -0.270497 0.361269 -0.470511
v -0.270497 0.361269 -0.401316
v -0.274374 0.359030 -0.401316
v -0.272583 0.360405 -0.470511
v -0.272583 0.360405 -0.401316
v -0.270497 0.361269 -0.401316
v -0.268258 0.361563 -0.470511
v -0.268258 0.361563 -0.401316
v -0.257952 0.360795 -0.470511
v -0.266020 0.361269 -0.470511
v -0.260343 0.363194 -0.470511
v -0.266020 0.361269 -0.470511
v -0.268258 0.361563 -0.401316
v -0.268258 0.361563 -0.470511
v -0.257952 0.360795 -0.470511
v -0.260343 0.363194 -0.401316
v -0.257952 0.360795 -0.401316
v -0.257978 0.344999 -0.470511
v -0.256280 0.347929 -0.401316
v -0.257978 0.344999 -0.401316
v -0.274374 0.359030 -0.401316
v -0.275749 0.357239 -0.470511
v -0.274374 0.359030 -0.470511
v -0.275749 0.357239 -0.470511
v -0.274374 0.359030 -0.401316
v -0.275749 0.357239 -0.401316
v -0.262142 0.346798 -0.401316
v -0.263934 0.345423 -0.470511
v -0.263934 0.345423 -0.401316
v -0.256280 0.347929 -0.470511
v -0.263934 0.345423 -0.470511
v -0.262142 0.346798 -0.470511
v -0.256280 0.347929 -0.401316
v -0.257978 0.344999 -0.470511
v -0.256280 0.347929 -0.470511
v -0.257952 0.360795 -0.470511
v -0.263934 0.360405 -0.470511
v -0.266020 0.361269 -0.470511
v -0.268258 0.361563 -0.401316
v -0.266020 0.361269 -0.470511
v -0.266020 0.361269 -0.401316
v -0.257952 0.360795 -0.401316
v -0.256264 0.357859 -0.470511
v -0.257952 0.360795 -0.470511
v -0.263934 0.345423 -0.470511
v -0.262142 0.346798 -0.401316
v -0.262142 0.346798 -0.470511
v -0.256280 0.347929 -0.470511
v -0.262142 0.346798 -0.470511
v -0.260768 0.348589 -0.470511
v -0.256280 0.347929 -0.470511
v -0.255398 0.351199 -0.401316
v -0.256280 0.347929 -0.401316
v -0.257952 0.360795 -0.470511
v -0.262142 0.359030 -0.470511
v -0.263934 0.360405 -0.470511
v -0.263934 0.360405 -0.470511
v -0.266020 0.361269 -0.401316
v -0.266020 0.361269 -0.470511
v -0.256264 0.357859 -0.470511
v -0.257952 0.360795 -0.401316
v -0.256264 0.357859 -0.401316
v -0.256264 0.357859 -0.470511
v -0.262142 0.359030 -0.470511
v -0.257952 0.360795 -0.470511
v -0.262142 0.346798 -0.401316
v -0.260768 0.348589 -0.470511
v -0.262142 0.346798 -0.470511
v -0.256280 0.347929 -0.470511
v -0.260768 0.348589 -0.470511
v -0.255398 0.351199 -0.470511
v -0.255398 0.351199 -0.401316
v -0.256280 0.347929 -0.470511
v -0.255398 0.351199 -0.470511
v -0.262142 0.359030 -0.470511
v -0.263934 0.360405 -0.401316
v -0.263934 0.360405 -0.470511
v -0.266020 0.361269 -0.401316
v -0.263934 0.360405 -0.470511
v -0.263934 0.360405 -0.401316
v -0.256264 0.357859 -0.401316
v -0.255393 0.354586 -0.470511
v -0.256264 0.357859 -0.470511
v -0.256264 0.357859 -0.470511
v -0.260768 0.357239 -0.470511
v -0.262142 0.359030 -0.470511
v -0.260768 0.348589 -0.470511
v -0.262142 0.346798 -0.401316
v -0.260768 0.348589 -0.401316
v -0.255398 0.351199 -0.470511
v -0.260768 0.348589 -0.470511
v -0.259904 0.350675 -0.470511
v -0.255398 0.351199 -0.470511
v -0.255393 0.354586 -0.401316
v -0.255398 0.351199 -0.401316
v -0.263934 0.360405 -0.401316
v -0.262142 0.359030 -0.470511
v -0.262142 0.359030 -0.401316
v -0.255393 0.354586 -0.470511
v -0.256264 0.357859 -0.401316
v -0.255393 0.354586 -0.401316
v -0.255393 0.354586 -0.470511
v -0.259904 0.355153 -0.470511
v -0.256264 0.357859 -0.470511
v -0.256264 0.357859 -0.470511
v -0.259904 0.355153 -0.470511
v -0.260768 0.357239 -0.470511
v -0.260768 0.357239 -0.401316
v -0.262142 0.359030 -0.470511
v -0.260768 0.357239 -0.470511
v -0.260768 0.348589 -0.401316
v -0.259904 0.350675 -0.470511
v -0.260768 0.348589 -0.470511
v -0.255398 0.351199 -0.470511
v -0.259904 0.350675 -0.470511
v -0.259609 0.352914 -0.470511
v -0.255393 0.354586 -0.401316
v -0.255398 0.351199 -0.470511
v -0.255393 0.354586 -0.470511
v -0.262142 0.359030 -0.470511
v -0.260768 0.357239 -0.401316
v -0.262142 0.359030 -0.401316
v -0.255393 0.354586 -0.470511
v -0.259609 0.352914 -0.470511
v -0.259904 0.355153 -0.470511
v -0.259904 0.355153 -0.401316
v -0.260768 0.357239 -0.470511
v -0.259904 0.355153 -0.470511
v -0.260768 0.357239 -0.470511
v -0.259904 0.355153 -0.401316
v -0.260768 0.357239 -0.401316
v -0.259904 0.350675 -0.470511
v -0.260768 0.348589 -0.401316
v -0.259904 0.350675 -0.401316
v -0.259904 0.350675 -0.401316
v -0.259609 0.352914 -0.470511
v -0.259904 0.350675 -0.470511
v -0.255398 0.351199 -0.470511
v -0.259609 0.352914 -0.470511
v -0.255393 0.354586 -0.470511
v -0.259609 0.352914 -0.401316
v -0.259904 0.355153 -0.470511
v -0.259609 0.352914 -0.470511
v -0.259904 0.355153 -0.470511
v -0.259609 0.352914 -0.401316
v -0.259904 0.355153 -0.401316
v -0.259609 0.352914 -0.470511
v -0.259904 0.350675 -0.401316
v -0.259609 0.352914 -0.401316
vt 0 0
vn 0.9245102744382397 0.3811571230583663 0
vn 0.794357948021945 0.6074499571276343 0
vn 0.6100708753982134 0.7923468476562885 0
vn 0.3811571230583663 -0.9245102744382397 0
vn 0.12888801803468236 -0.9916591545521534 0
vn -0.13216398557891873 -0.9912278652842118 0
vn -0.12888801803468236 0.9916591545521534 0
vn 0.13216398557891873 0.9912278652842118 0
vn 0.9916591545521534 0.12888801803468236 0
vn 0.3842090481973792 0.9232461249760349 0
vn 0.6074499571276343 -0.794357948021945 0
vn -0.3811571230583663 0.9245102744382397 0
vn 0.9912278652842118 -0.13216398557891873 0
vn 0 0 1
vn 0.7923468476562885 -0.6100708753982134 0
vn -0.3842090481973792 -0.9232461249760349 0
vn -0.6074499571276343 0.794357948021945 0
vn 0.9232461249760349 -0.3842090481973792 0
vn -0.25881897461707376 -0.9659258451755842 0
vn -0.5000001873976233 -0.8660252955903434 0
vn -0.7071067811865476 -0.7071067811865476 0
vn -0.8660252955903434 -0.5000001873976233 0
vn -0.9659258451755842 -0.25881897461707376 0
vn 0 -1 0
vn -0.6100708753982134 -0.7923468476562885 0
vn -0.7923468476562885 0.6100708753982134 0
vn -1 0 0
vn -0.9659258451755842 0.25881897461707376 0
vn 0.25881897461707376 -0.9659258451755842 0
vn -0.5000001873976233 0.8660252955903434 0
vn -0.25881897461707376 0.9659258451755842 0
vn 0 1 0
vn -0.794357948021945 -0.6074499571276343 0
vn -0.8660252955903434 0.5000001873976233 0
vn 0.5000001873976233 -0.8660252955903434 0
vn -0.7071067811865476 0.7071067811865476 0
vn 0.25881897461707376 0.9659258451755842 0
vn -0.9232461249760349 0.3842090481973792 0
vn 0.7071067811865476 -0.7071067811865476 0
vn -0.9245102744382397 -0.3811571230583663 0
vn -0.9912278652842118 0.13216398557891873 0
vn 0.5000001873976233 0.8660252955903434 0
vn 0.8660252955903434 -0.5000001873976233 0
vn 0.7071067811865476 0.7071067811865476 0
vn -0.9916591545521534 -0.12888801803468236 0
vn 0.8660252955903434 0.5000001873976233 0
vn 0.9659258451755842 -0.25881897461707376 0
vn 0.9659258451755842 0.25881897461707376 0
vn 1 0 0
vn 0 0 -1
usemtl material_0_0
f 1/1/1 2/1/2 3/1/1
f 4/1/2 5/1/3 6/1/2
f 7/1/4 8/1/4 9/1/5
f 10/1/5 11/1/5 12/1/6
f 13/1/7 14/1/7 15/1/8
f 16/1/9 17/1/1 18/1/9
f 19/1/2 20/1/1 21/1/2
f 22/1/1 23/1/9 24/1/1
f 25/1/3 26/1/2 27/1/3
f 28/1/10 29/1/10 30/1/3
f 31/1/11 32/1/11 33/1/4
f 34/1/5 35/1/5 36/1/4
f 37/1/4 38/1/4 39/1/11
f 40/1/6 41/1/6 42/1/5
f 43/1/8 44/1/8 45/1/10
f 46/1/8 47/1/8 48/1/7
f 49/1/7 50/1/7 51/1/12
f 52/1/12 53/1/12 54/1/7
f 55/1/13 56/1/9 57/1/13
f 58/1/9 59/1/13 60/1/9
f 61/1/14 62/1/14 63/1/14
f 64/1/14 65/1/14 66/1/14
f 67/1/14 68/1/14 69/1/14
f 70/1/3 71/1/3 72/1/10
f 73/1/10 74/1/10 75/1/8
f 76/1/15 77/1/15 78/1/11
f 79/1/11 80/1/11 81/1/15
f 82/1/14 83/1/14 84/1/14
f 85/1/14 86/1/14 87/1/14
f 88/1/6 89/1/6 90/1/16
f 91/1/14 92/1/14 93/1/14
f 94/1/12 95/1/12 96/1/17
f 97/1/18 98/1/13 99/1/18
f 100/1/13 101/1/18 102/1/13
f 103/1/14 104/1/14 105/1/14
f 106/1/14 107/1/14 108/1/14
f 109/1/14 110/1/14 111/1/14
f 112/1/14 113/1/14 114/1/14
f 115/1/14 116/1/14 117/1/14
f 118/1/14 119/1/14 120/1/14
f 121/1/14 122/1/14 123/1/14
f 124/1/14 125/1/14 126/1/14
f 127/1/14 128/1/14 129/1/14
f 130/1/15 131/1/18 132/1/15
f 133/1/14 134/1/14 135/1/14
f 136/1/14 137/1/14 138/1/14
f 139/1/14 140/1/14 141/1/14
f 142/1/16 143/1/16 144/1/6
f 145/1/17 146/1/17 147/1/12
f 148/1/14 149/1/14 150/1/14
f 151/1/18 152/1/15 153/1/18
f 154/1/14 155/1/14 156/1/14
f 157/1/14 158/1/14 159/1/14
f 160/1/14 161/1/14 162/1/14
f 163/1/19 164/1/19 165/1/20
f 166/1/20 167/1/20 168/1/21
f 169/1/22 170/1/21 171/1/22
f 172/1/23 173/1/22 174/1/23
f 175/1/24 176/1/24 177/1/19
f 178/1/14 179/1/14 180/1/14
f 181/1/14 182/1/14 183/1/14
f 184/1/14 185/1/14 186/1/14
f 187/1/14 188/1/14 189/1/14
f 190/1/14 191/1/14 192/1/14
f 193/1/25 194/1/25 195/1/16
f 196/1/16 197/1/16 198/1/25
f 199/1/17 200/1/17 201/1/26
f 202/1/14 203/1/14 204/1/14
f 205/1/14 206/1/14 207/1/14
f 208/1/27 209/1/23 210/1/27
f 211/1/28 212/1/27 213/1/28
f 214/1/20 215/1/20 216/1/19
f 217/1/19 218/1/19 219/1/24
f 220/1/21 221/1/21 222/1/20
f 223/1/21 224/1/22 225/1/21
f 226/1/22 227/1/23 228/1/22
f 229/1/23 230/1/27 231/1/23
f 232/1/24 233/1/24 234/1/29
f 235/1/29 236/1/29 237/1/24
f 238/1/14 239/1/14 240/1/14
f 241/1/14 242/1/14 243/1/14
f 244/1/30 245/1/30 246/1/31
f 247/1/31 248/1/31 249/1/32
f 250/1/14 251/1/14 252/1/14
f 253/1/25 254/1/33 255/1/25
f 256/1/26 257/1/26 258/1/17
f 259/1/14 260/1/14 261/1/14
f 262/1/34 263/1/28 264/1/34
f 265/1/27 266/1/28 267/1/27
f 268/1/28 269/1/34 270/1/28
f 271/1/29 272/1/29 273/1/35
f 274/1/35 275/1/35 276/1/29
f 277/1/14 278/1/14 279/1/14
f 280/1/36 281/1/36 282/1/30
f 283/1/31 284/1/31 285/1/30
f 286/1/30 287/1/30 288/1/36
f 289/1/32 290/1/32 291/1/31
f 292/1/14 293/1/14 294/1/14
f 295/1/32 296/1/32 297/1/37
f 298/1/33 299/1/25 300/1/33
f 301/1/26 302/1/38 303/1/26
f 304/1/36 305/1/34 306/1/36
f 307/1/34 308/1/36 309/1/34
f 310/1/35 311/1/35 312/1/39
f 313/1/14 314/1/14 315/1/14
f 316/1/38 317/1/26 318/1/38
f 319/1/14 320/1/14 321/1/14
f 322/1/37 323/1/37 324/1/32
f 325/1/33 326/1/40 327/1/33
f 328/1/39 329/1/39 330/1/35
f 331/1/14 332/1/14 333/1/14
f 334/1/38 335/1/41 336/1/38
f 337/1/14 338/1/14 339/1/14
f 340/1/37 341/1/37 342/1/42
f 343/1/40 344/1/33 345/1/40
f 346/1/14 347/1/14 348/1/14
f 349/1/39 350/1/43 351/1/39
f 352/1/14 353/1/14 354/1/14
f 355/1/41 356/1/38 357/1/41
f 358/1/42 359/1/42 360/1/44
f 361/1/42 362/1/42 363/1/37
f 364/1/40 365/1/45 366/1/40
f 367/1/14 368/1/14 369/1/14
f 370/1/43 371/1/39 372/1/43
f 373/1/14 374/1/14 375/1/14
f 376/1/41 377/1/45 378/1/41
f 379/1/44 380/1/44 381/1/42
f 382/1/45 383/1/40 384/1/45
f 385/1/14 386/1/14 387/1/14
f 388/1/14 389/1/14 390/1/14
f 391/1/46 392/1/44 393/1/46
f 394/1/43 395/1/47 396/1/43
f 397/1/14 398/1/14 399/1/14
f 400/1/45 401/1/41 402/1/45
f 403/1/44 404/1/46 405/1/44
f 406/1/14 407/1/14 408/1/14
f 409/1/48 410/1/46 411/1/48
f 412/1/46 413/1/48 414/1/46
f 415/1/47 416/1/43 417/1/47
f 418/1/47 419/1/49 420/1/47
f 421/1/14 422/1/14 423/1/14
f 424/1/49 425/1/48 426/1/49
f 427/1/48 428/1/49 429/1/48
f 430/1/49 431/1/47 432/1/49
usemtl material_1_0
f 433/1/40 434/1/33 435/1/40
f 436/1/33 437/1/25 438/1/33
f 439/1/7 440/1/12 441/1/12
f 442/1/8 443/1/7 444/1/7
f 445/1/6 446/1/5 447/1/5
f 448/1/45 449/1/40 450/1/45
f 451/1/33 452/1/40 453/1/33
f 454/1/40 455/1/45 456/1/40
f 457/1/25 458/1/33 459/1/25
f 460/1/25 461/1/16 462/1/16
f 463/1/12 464/1/17 465/1/17
f 466/1/12 467/1/7 468/1/7
f 469/1/17 470/1/12 471/1/12
f 472/1/7 473/1/8 474/1/8
f 475/1/16 476/1/6 477/1/6
f 478/1/5 479/1/6 480/1/6
f 481/1/4 482/1/5 483/1/5
f 484/1/5 485/1/4 486/1/4
f 487/1/41 488/1/45 489/1/41
f 490/1/45 491/1/41 492/1/45
f 493/1/50 494/1/50 495/1/50
f 496/1/50 497/1/50 498/1/50
f 499/1/50 500/1/50 501/1/50
f 502/1/16 503/1/25 504/1/25
f 505/1/6 506/1/16 507/1/16
f 508/1/17 509/1/26 510/1/26
f 511/1/26 512/1/17 513/1/17
f 514/1/50 515/1/50 516/1/50
f 517/1/50 518/1/50 519/1/50
f 520/1/10 521/1/8 522/1/8
f 523/1/50 524/1/50 525/1/50
f 526/1/11 527/1/4 528/1/4
f 529/1/38 530/1/41 531/1/38
f 532/1/41 533/1/38 534/1/41
f 535/1/50 536/1/50 537/1/50
f 538/1/50 539/1/50 540/1/50
f 541/1/50 542/1/50 543/1/50
f 544/1/50 545/1/50 546/1/50
f 547/1/50 548/1/50 549/1/50
f 550/1/50 551/1/50 552/1/50
f 553/1/50 554/1/50 555/1/50
f 556/1/50 557/1/50 558/1/50
f 559/1/50 560/1/50 561/1/50
f 562/1/26 563/1/38 564/1/26
f 565/1/50 566/1/50 567/1/50
f 568/1/50 569/1/50 570/1/50
f 571/1/50 572/1/50 573/1/50
f 574/1/8 575/1/10 576/1/10
f 577/1/4 578/1/11 579/1/11
f 580/1/50 581/1/50 582/1/50
f 583/1/38 584/1/26 585/1/38
f 586/1/50 587/1/50 588/1/50
f 589/1/50 590/1/50 591/1/50
f 592/1/50 593/1/50 594/1/50
f 595/1/42 596/1/37 597/1/37
f 598/1/44 599/1/42 600/1/42
f 601/1/46 602/1/44 603/1/46
f 604/1/48 605/1/46 606/1/48
f 607/1/37 608/1/32 609/1/32
f 610/1/50 611/1/50 612/1/50
f 613/1/50 614/1/50 615/1/50
f 616/1/50 617/1/50 618/1/50
f 619/1/50 620/1/50 621/1/50
f 622/1/50 623/1/50 624/1/50
f 625/1/10 626/1/3 627/1/3
f 628/1/3 629/1/10 630/1/10
f 631/1/15 632/1/11 633/1/11
f 634/1/50 635/1/50 636/1/50
f 637/1/50 638/1/50 639/1/50
f 640/1/49 641/1/48 642/1/49
f 643/1/47 644/1/49 645/1/47
f 646/1/37 647/1/42 648/1/42
f 649/1/32 650/1/37 651/1/37
f 652/1/42 653/1/44 654/1/44
f 655/1/44 656/1/46 657/1/44
f 658/1/46 659/1/48 660/1/46
f 661/1/48 662/1/49 663/1/48
f 664/1/31 665/1/32 666/1/32
f 667/1/32 668/1/31 669/1/31
f 670/1/50 671/1/50 672/1/50
f 673/1/50 674/1/50 675/1/50
f 676/1/29 677/1/35 678/1/35
f 679/1/24 680/1/29 681/1/29
f 682/1/50 683/1/50 684/1/50
f 685/1/3 686/1/2 687/1/3
f 688/1/11 689/1/15 690/1/15
f 691/1/50 692/1/50 693/1/50
f 694/1/43 695/1/47 696/1/43
f 697/1/49 698/1/47 699/1/49
f 700/1/47 701/1/43 702/1/47
f 703/1/30 704/1/31 705/1/31
f 706/1/31 707/1/30 708/1/30
f 709/1/50 710/1/50 711/1/50
f 712/1/35 713/1/39 714/1/39
f 715/1/35 716/1/29 717/1/29
f 718/1/39 719/1/35 720/1/35
f 721/1/29 722/1/24 723/1/24
f 724/1/50 725/1/50 726/1/50
f 727/1/19 728/1/24 729/1/24
f 730/1/2 731/1/3 732/1/2
f 733/1/15 734/1/18 735/1/15
f 736/1/39 737/1/43 738/1/39
f 739/1/43 740/1/39 741/1/43
f 742/1/36 743/1/30 744/1/30
f 745/1/50 746/1/50 747/1/50
f 748/1/18 749/1/15 750/1/18
f 751/1/50 752/1/50 753/1/50
f 754/1/24 755/1/19 756/1/19
f 757/1/2 758/1/1 759/1/2
f 760/1/30 761/1/36 762/1/36
f 763/1/50 764/1/50 765/1/50
f 766/1/18 767/1/13 768/1/18
f 769/1/50 770/1/50 771/1/50
f 772/1/20 773/1/19 774/1/19
f 775/1/1 776/1/2 777/1/1
f 778/1/50 779/1/50 780/1/50
f 781/1/36 782/1/34 783/1/36
f 784/1/50 785/1/50 786/1/50
f 787/1/13 788/1/18 789/1/13
f 790/1/21 791/1/20 792/1/20
f 793/1/19 794/1/20 795/1/20
f 796/1/1 797/1/9 798/1/1
f 799/1/50 800/1/50 801/1/50
f 802/1/34 803/1/36 804/1/34
f 805/1/50 806/1/50 807/1/50
f 808/1/13 809/1/9 810/1/13
f 811/1/20 812/1/21 813/1/21
f 814/1/9 815/1/1 816/1/9
f 817/1/50 818/1/50 819/1/50
f 820/1/50 821/1/50 822/1/50
f 823/1/22 824/1/21 825/1/22
f 826/1/34 827/1/28 828/1/34
f 829/1/50 830/1/50 831/1/50
f 832/1/9 833/1/13 834/1/9
f 835/1/21 836/1/22 837/1/21
f 838/1/50 839/1/50 840/1/50
f 841/1/23 842/1/22 843/1/23
f 844/1/22 845/1/23 846/1/22
f 847/1/28 848/1/34 849/1/28
f 850/1/28 851/1/27 852/1/28
f 853/1/50 854/1/50 855/1/50
f 856/1/27 857/1/23 858/1/27
f 859/1/23 860/1/27 861/1/23
f 862/1/27 863/1/28 864/1/27
