# SSTK version 0.8.0
# 44
mtllib original-44.mtl
o mesh21/mesh21-geometry/material_4#mesh21-geometry
v -0.006469 0.722575 -0.344791
v -0.006260 0.724884 -0.345756
v -0.006469 0.722055 -0.346035
v -0.006260 0.724884 -0.345756
v -0.005410 0.727063 -0.346668
v -0.006260 0.724363 -0.347001
v -0.005410 0.727063 -0.346668
v -0.003977 0.728966 -0.347464
v -0.005410 0.726543 -0.347913
v -0.002060 0.730461 -0.348089
v -0.002060 0.729940 -0.349334
v -0.003977 0.728966 -0.347464
v 0.000212 0.731448 -0.348502
v 0.000212 0.730927 -0.349747
v -0.002060 0.730461 -0.348089
v -0.006260 0.724363 -0.347001
v -0.006469 0.722055 -0.346035
v -0.006260 0.724884 -0.345756
v -0.006469 0.722055 -0.346035
v -0.006024 0.719775 -0.345082
v -0.006469 0.722575 -0.344791
v -0.005410 0.726543 -0.347913
v -0.006260 0.724363 -0.347001
v -0.005410 0.727063 -0.346668
v -0.003977 0.728445 -0.348708
v -0.005410 0.726543 -0.347913
v -0.003977 0.728966 -0.347464
v -0.003977 0.728445 -0.348708
v -0.003977 0.728966 -0.347464
v -0.002060 0.729940 -0.349334
v -0.002060 0.729940 -0.349334
v -0.002060 0.730461 -0.348089
v 0.000212 0.730927 -0.349747
v 0.000212 0.730927 -0.349747
v 0.000212 0.731448 -0.348502
v 0.002683 0.731338 -0.349918
v 0.002683 0.731859 -0.348674
v 0.002683 0.731338 -0.349918
v 0.000212 0.731448 -0.348502
v 0.011231 0.727791 -0.346972
v 0.012300 0.725695 -0.346095
v 0.011231 0.727270 -0.348217
v 0.009610 0.729560 -0.347712
v 0.011231 0.727791 -0.346972
v 0.009610 0.729039 -0.348957
v 0.009610 0.729560 -0.347712
v 0.009610 0.729039 -0.348957
v 0.007548 0.730881 -0.348265
v 0.012300 0.725695 -0.346095
v 0.012745 0.723416 -0.345142
v 0.012300 0.725174 -0.347340
v 0.012745 0.723416 -0.345142
v 0.012536 0.721107 -0.344176
v 0.012745 0.722895 -0.346387
v 0.012536 0.721107 -0.344176
v 0.011686 0.718928 -0.343265
v 0.012536 0.720587 -0.345421
v -0.006024 0.720296 -0.343837
v -0.006469 0.722575 -0.344791
v -0.006024 0.719775 -0.345082
v -0.006260 0.724363 -0.347001
v 0.012745 0.722895 -0.346387
v -0.006469 0.722055 -0.346035
v -0.006469 0.722055 -0.346035
v 0.012536 0.720587 -0.345421
v -0.006024 0.719775 -0.345082
v -0.005410 0.726543 -0.347913
v 0.012300 0.725174 -0.347340
v -0.006260 0.724363 -0.347001
v -0.003977 0.728445 -0.348708
v 0.011231 0.727270 -0.348217
v -0.005410 0.726543 -0.347913
v -0.002060 0.729940 -0.349334
v 0.009610 0.729039 -0.348957
v -0.003977 0.728445 -0.348708
v 0.000212 0.730927 -0.349747
v 0.007548 0.730360 -0.349510
v -0.002060 0.729940 -0.349334
v 0.007548 0.730881 -0.348265
v 0.007548 0.730360 -0.349510
v 0.005185 0.731665 -0.348593
v 0.002683 0.731338 -0.349918
v 0.005185 0.731145 -0.349838
v 0.000212 0.730927 -0.349747
v 0.005185 0.731665 -0.348593
v 0.005185 0.731145 -0.349838
v 0.002683 0.731859 -0.348674
v 0.002683 0.731338 -0.349918
v 0.002683 0.731859 -0.348674
v 0.005185 0.731145 -0.349838
v 0.012300 0.725174 -0.347340
v 0.011231 0.727270 -0.348217
v 0.012300 0.725695 -0.346095
v 0.011231 0.727270 -0.348217
v 0.009610 0.729039 -0.348957
v 0.011231 0.727791 -0.346972
v 0.007548 0.730360 -0.349510
v 0.007548 0.730881 -0.348265
v 0.009610 0.729039 -0.348957
v 0.012745 0.722895 -0.346387
v 0.012300 0.725174 -0.347340
v 0.012745 0.723416 -0.345142
v 0.012536 0.720587 -0.345421
v 0.012745 0.722895 -0.346387
v 0.012536 0.721107 -0.344176
v 0.010253 0.717025 -0.342469
v 0.010253 0.716505 -0.343714
v 0.011686 0.718928 -0.343265
v 0.011686 0.718407 -0.344509
v 0.012536 0.720587 -0.345421
v 0.011686 0.718928 -0.343265
v -0.006024 0.719775 -0.345082
v -0.004954 0.717679 -0.344205
v -0.006024 0.720296 -0.343837
v 0.012745 0.722895 -0.346387
v 0.012536 0.720587 -0.345421
v -0.006469 0.722055 -0.346035
v 0.012300 0.725174 -0.347340
v 0.012745 0.722895 -0.346387
v -0.006260 0.724363 -0.347001
v 0.012536 0.720587 -0.345421
v 0.011686 0.718407 -0.344509
v -0.006024 0.719775 -0.345082
v 0.011231 0.727270 -0.348217
v 0.012300 0.725174 -0.347340
v -0.005410 0.726543 -0.347913
v -0.004954 0.718200 -0.342960
v -0.006024 0.720296 -0.343837
v -0.004954 0.717679 -0.344205
v -0.003333 0.716431 -0.342220
v -0.004954 0.718200 -0.342960
v -0.003333 0.715911 -0.343465
v 0.009610 0.729039 -0.348957
v 0.011231 0.727270 -0.348217
v -0.003977 0.728445 -0.348708
v 0.007548 0.730360 -0.349510
v 0.009610 0.729039 -0.348957
v -0.002060 0.729940 -0.349334
v 0.005185 0.731145 -0.349838
v 0.007548 0.730360 -0.349510
v 0.000212 0.730927 -0.349747
v 0.005185 0.731145 -0.349838
v 0.005185 0.731665 -0.348593
v 0.007548 0.730360 -0.349510
v 0.011686 0.718407 -0.344509
v 0.011686 0.718928 -0.343265
v 0.010253 0.716505 -0.343714
v 0.010253 0.716505 -0.343714
v 0.010253 0.717025 -0.342469
v 0.008336 0.715009 -0.343088
v 0.008336 0.715530 -0.341843
v 0.008336 0.715009 -0.343088
v 0.010253 0.717025 -0.342469
v -0.006024 0.719775 -0.345082
v 0.011686 0.718407 -0.344509
v -0.004954 0.717679 -0.344205
v -0.004954 0.717679 -0.344205
v -0.003333 0.715911 -0.343465
v -0.004954 0.718200 -0.342960
v -0.003333 0.716431 -0.342220
v -0.003333 0.715911 -0.343465
v -0.001271 0.715110 -0.341668
v -0.001271 0.715110 -0.341668
v -0.001271 0.714589 -0.342912
v 0.001091 0.714326 -0.341340
v 0.011686 0.718407 -0.344509
v 0.010253 0.716505 -0.343714
v -0.004954 0.717679 -0.344205
v 0.010253 0.716505 -0.343714
v 0.008336 0.715009 -0.343088
v -0.003333 0.715911 -0.343465
v 0.006064 0.714543 -0.341430
v 0.006064 0.714022 -0.342675
v 0.008336 0.715530 -0.341843
v 0.008336 0.715009 -0.343088
v 0.008336 0.715530 -0.341843
v 0.006064 0.714022 -0.342675
v -0.004954 0.717679 -0.344205
v 0.010253 0.716505 -0.343714
v -0.003333 0.715911 -0.343465
v -0.001271 0.714589 -0.342912
v -0.001271 0.715110 -0.341668
v -0.003333 0.715911 -0.343465
v 0.001091 0.713805 -0.342584
v 0.001091 0.714326 -0.341340
v -0.001271 0.714589 -0.342912
v -0.003333 0.715911 -0.343465
v 0.008336 0.715009 -0.343088
v -0.001271 0.714589 -0.342912
v 0.006064 0.714022 -0.342675
v 0.006064 0.714543 -0.341430
v 0.003593 0.713612 -0.342503
v 0.008336 0.715009 -0.343088
v 0.006064 0.714022 -0.342675
v -0.001271 0.714589 -0.342912
v 0.003593 0.714132 -0.341259
v 0.003593 0.713612 -0.342503
v 0.006064 0.714543 -0.341430
v 0.001091 0.714326 -0.341340
v 0.001091 0.713805 -0.342584
v 0.003593 0.714132 -0.341259
v -0.001271 0.714589 -0.342912
v 0.006064 0.714022 -0.342675
v 0.001091 0.713805 -0.342584
v 0.003593 0.713612 -0.342503
v 0.001091 0.713805 -0.342584
v 0.006064 0.714022 -0.342675
v 0.003593 0.713612 -0.342503
v 0.003593 0.714132 -0.341259
v 0.001091 0.713805 -0.342584
v -0.006469 0.722055 -0.346035
v -0.006260 0.724884 -0.345756
v -0.006469 0.722575 -0.344791
v -0.006260 0.724363 -0.347001
v -0.005410 0.727063 -0.346668
v -0.006260 0.724884 -0.345756
v -0.005410 0.726543 -0.347913
v -0.003977 0.728966 -0.347464
v -0.005410 0.727063 -0.346668
v -0.003977 0.728966 -0.347464
v -0.002060 0.729940 -0.349334
v -0.002060 0.730461 -0.348089
v -0.002060 0.730461 -0.348089
v 0.000212 0.730927 -0.349747
v 0.000212 0.731448 -0.348502
v -0.006260 0.724884 -0.345756
v -0.006469 0.722055 -0.346035
v -0.006260 0.724363 -0.347001
v -0.006469 0.722575 -0.344791
v -0.006024 0.719775 -0.345082
v -0.006469 0.722055 -0.346035
v -0.005410 0.727063 -0.346668
v -0.006260 0.724363 -0.347001
v -0.005410 0.726543 -0.347913
v -0.003977 0.728966 -0.347464
v -0.005410 0.726543 -0.347913
v -0.003977 0.728445 -0.348708
v -0.002060 0.729940 -0.349334
v -0.003977 0.728966 -0.347464
v -0.003977 0.728445 -0.348708
v 0.000212 0.730927 -0.349747
v -0.002060 0.730461 -0.348089
v -0.002060 0.729940 -0.349334
v 0.002683 0.731338 -0.349918
v 0.000212 0.731448 -0.348502
v 0.000212 0.730927 -0.349747
v 0.000212 0.731448 -0.348502
v 0.002683 0.731338 -0.349918
v 0.002683 0.731859 -0.348674
v 0.011231 0.727270 -0.348217
v 0.012300 0.725695 -0.346095
v 0.011231 0.727791 -0.346972
v 0.009610 0.729039 -0.348957
v 0.011231 0.727791 -0.346972
v 0.009610 0.729560 -0.347712
v 0.007548 0.730881 -0.348265
v 0.009610 0.729039 -0.348957
v 0.009610 0.729560 -0.347712
v 0.012300 0.725174 -0.347340
v 0.012745 0.723416 -0.345142
v 0.012300 0.725695 -0.346095
v 0.012745 0.722895 -0.346387
v 0.012536 0.721107 -0.344176
v 0.012745 0.723416 -0.345142
v 0.012536 0.720587 -0.345421
v 0.011686 0.718928 -0.343265
v 0.012536 0.721107 -0.344176
v -0.006024 0.719775 -0.345082
v -0.006469 0.722575 -0.344791
v -0.006024 0.720296 -0.343837
v -0.006469 0.722055 -0.346035
v 0.012745 0.722895 -0.346387
v -0.006260 0.724363 -0.347001
v -0.006024 0.719775 -0.345082
v 0.012536 0.720587 -0.345421
v -0.006469 0.722055 -0.346035
v -0.006260 0.724363 -0.347001
v 0.012300 0.725174 -0.347340
v -0.005410 0.726543 -0.347913
v -0.005410 0.726543 -0.347913
v 0.011231 0.727270 -0.348217
v -0.003977 0.728445 -0.348708
v -0.003977 0.728445 -0.348708
v 0.009610 0.729039 -0.348957
v -0.002060 0.729940 -0.349334
v -0.002060 0.729940 -0.349334
v 0.007548 0.730360 -0.349510
v 0.000212 0.730927 -0.349747
v 0.005185 0.731665 -0.348593
v 0.007548 0.730360 -0.349510
v 0.007548 0.730881 -0.348265
v 0.000212 0.730927 -0.349747
v 0.005185 0.731145 -0.349838
v 0.002683 0.731338 -0.349918
v 0.002683 0.731859 -0.348674
v 0.005185 0.731145 -0.349838
v 0.005185 0.731665 -0.348593
v 0.005185 0.731145 -0.349838
v 0.002683 0.731859 -0.348674
v 0.002683 0.731338 -0.349918
v 0.012300 0.725695 -0.346095
v 0.011231 0.727270 -0.348217
v 0.012300 0.725174 -0.347340
v 0.011231 0.727791 -0.346972
v 0.009610 0.729039 -0.348957
v 0.011231 0.727270 -0.348217
v 0.009610 0.729039 -0.348957
v 0.007548 0.730881 -0.348265
v 0.007548 0.730360 -0.349510
v 0.012745 0.723416 -0.345142
v 0.012300 0.725174 -0.347340
v 0.012745 0.722895 -0.346387
v 0.012536 0.721107 -0.344176
v 0.012745 0.722895 -0.346387
v 0.012536 0.720587 -0.345421
v 0.011686 0.718928 -0.343265
v 0.010253 0.716505 -0.343714
v 0.010253 0.717025 -0.342469
v 0.011686 0.718928 -0.343265
v 0.012536 0.720587 -0.345421
v 0.011686 0.718407 -0.344509
v -0.006024 0.720296 -0.343837
v -0.004954 0.717679 -0.344205
v -0.006024 0.719775 -0.345082
v -0.006469 0.722055 -0.346035
v 0.012536 0.720587 -0.345421
v 0.012745 0.722895 -0.346387
v -0.006260 0.724363 -0.347001
v 0.012745 0.722895 -0.346387
v 0.012300 0.725174 -0.347340
v -0.006024 0.719775 -0.345082
v 0.011686 0.718407 -0.344509
v 0.012536 0.720587 -0.345421
v -0.005410 0.726543 -0.347913
v 0.012300 0.725174 -0.347340
v 0.011231 0.727270 -0.348217
v -0.004954 0.717679 -0.344205
v -0.006024 0.720296 -0.343837
v -0.004954 0.718200 -0.342960
v -0.003333 0.715911 -0.343465
v -0.004954 0.718200 -0.342960
v -0.003333 0.716431 -0.342220
v -0.003977 0.728445 -0.348708
v 0.011231 0.727270 -0.348217
v 0.009610 0.729039 -0.348957
v -0.002060 0.729940 -0.349334
v 0.009610 0.729039 -0.348957
v 0.007548 0.730360 -0.349510
v 0.000212 0.730927 -0.349747
v 0.007548 0.730360 -0.349510
v 0.005185 0.731145 -0.349838
v 0.007548 0.730360 -0.349510
v 0.005185 0.731665 -0.348593
v 0.005185 0.731145 -0.349838
v 0.010253 0.716505 -0.343714
v 0.011686 0.718928 -0.343265
v 0.011686 0.718407 -0.344509
v 0.008336 0.715009 -0.343088
v 0.010253 0.717025 -0.342469
v 0.010253 0.716505 -0.343714
v 0.010253 0.717025 -0.342469
v 0.008336 0.715009 -0.343088
v 0.008336 0.715530 -0.341843
v -0.004954 0.717679 -0.344205
v 0.011686 0.718407 -0.344509
v -0.006024 0.719775 -0.345082
v -0.004954 0.718200 -0.342960
v -0.003333 0.715911 -0.343465
v -0.004954 0.717679 -0.344205
v -0.001271 0.715110 -0.341668
v -0.003333 0.715911 -0.343465
v -0.003333 0.716431 -0.342220
v 0.001091 0.714326 -0.341340
v -0.001271 0.714589 -0.342912
v -0.001271 0.715110 -0.341668
v -0.004954 0.717679 -0.344205
v 0.010253 0.716505 -0.343714
v 0.011686 0.718407 -0.344509
v -0.003333 0.715911 -0.343465
v 0.008336 0.715009 -0.343088
v 0.010253 0.716505 -0.343714
v 0.008336 0.715530 -0.341843
v 0.006064 0.714022 -0.342675
v 0.006064 0.714543 -0.341430
v 0.006064 0.714022 -0.342675
v 0.008336 0.715530 -0.341843
v 0.008336 0.715009 -0.343088
v -0.003333 0.715911 -0.343465
v 0.010253 0.716505 -0.343714
v -0.004954 0.717679 -0.344205
v -0.003333 0.715911 -0.343465
v -0.001271 0.715110 -0.341668
v -0.001271 0.714589 -0.342912
v -0.001271 0.714589 -0.342912
v 0.001091 0.714326 -0.341340
v 0.001091 0.713805 -0.342584
v -0.001271 0.714589 -0.342912
v 0.008336 0.715009 -0.343088
v -0.003333 0.715911 -0.343465
v 0.003593 0.713612 -0.342503
v 0.006064 0.714543 -0.341430
v 0.006064 0.714022 -0.342675
v -0.001271 0.714589 -0.342912
v 0.006064 0.714022 -0.342675
v 0.008336 0.715009 -0.343088
v 0.006064 0.714543 -0.341430
v 0.003593 0.713612 -0.342503
v 0.003593 0.714132 -0.341259
v 0.003593 0.714132 -0.341259
v 0.001091 0.713805 -0.342584
v 0.001091 0.714326 -0.341340
v 0.001091 0.713805 -0.342584
v 0.006064 0.714022 -0.342675
v -0.001271 0.714589 -0.342912
v 0.006064 0.714022 -0.342675
v 0.001091 0.713805 -0.342584
v 0.003593 0.713612 -0.342503
v 0.001091 0.713805 -0.342584
v 0.003593 0.714132 -0.341259
v 0.003593 0.713612 -0.342503
vt 0 0
vt 0.018868999555706978 0
vt 0.02021699957549572 0.0007220000261440873
vt 0.018868999555706978 0.0007220000261440873
vt 0.02021699957549572 0
vt 0.021564999595284462 0.0007220000261440873
vt 0.021564999595284462 0
vt 0.022911999374628067 0.0007220000261440873
vt 0.02425999939441681 0
vt 0.02425999939441681 0.0007220000261440873
vt 0.02560799941420555 0
vt 0.02560799941420555 0.0007220000261440873
vt 0.017520999535918236 0
vt 0.022911999374628067 0
vt 0.026955999433994293 0
vt 0.026955999433994293 0.0007220000261440873
vt 0.001348000019788742 0.0007220000261440873
vt 0 0.0007220000261440873
vt 0.030998999252915382 0
vt 0.032347001135349274 0.0007220000261440873
vt 0.030998999252915382 0.0007220000261440873
vt 0.02965099923312664 0.0007220000261440873
vt 0.001348000019788742 0
vt 0.002696000039577484 0.0007220000261440873
vt 0.002696000039577484 0
vt 0.004042999818921089 0.0007220000261440873
vt 0.004042999818921089 0
vt 0.005390999838709831 0.0007220000261440873
vt 0.017520999535918236 0.0007220000261440873
vt 0.3939729928970337 0.21078500151634216
vt 0.40425801277160645 0.21127299964427948
vt 0.39408499002456665 0.2121250033378601
vt 0.3942109942436218 0.2094630002975464
vt 0.4041450023651123 0.20993299782276154
vt 0.40401899814605713 0.21259500086307526
vt 0.394540011882782 0.21338899433612823
vt 0.4034470021724701 0.213810995221138
vt 0.3953070044517517 0.2144930064678192
vt 0.40257900953292847 0.21483799815177917
vt 0.3963330090045929 0.21536099910736084
vt 0.4014750123023987 0.2156040072441101
vt 0.39754900336265564 0.21593299508094788
vt 0.028302999213337898 0.0007220000261440873
vt 0.02965099923312664 0
vt 0.40021100640296936 0.21605899930000305
vt 0.3988719880580902 0.216170996427536
vt 0.028302999213337898 0
vt 0.032347001135349274 0
vt 0.006738999858498573 0
vt 0.006738999858498573 0.0007220000261440873
vt 0.005390999838709831 0
vt 0.016172999516129494 0
vt 0.40369099378585815 0.2086690068244934
vt 0.016172999516129494 0.0007220000261440873
vt 0.014825999736785889 0
vt 0.014825999736785889 0.0007220000261440873
vt 0.008086999878287315 0
vt 0.008086999878287315 0.0007220000261440873
vt 0.39478400349617004 0.20824700593948364
vt 0.013477999716997147 0.0007220000261440873
vt 0.012129999697208405 0.0007220000261440873
vt 0.013477999716997147 0
vt 0.4029240012168884 0.20756499469280243
vt 0.3956510126590729 0.20722100138664246
vt 0.40189701318740845 0.2066970020532608
vt 0.00943399965763092 0
vt 0.00943399965763092 0.0007220000261440873
vt 0.012129999697208405 0
vt 0.39675500988960266 0.20645399391651154
vt 0.010781999677419662 0
vt 0.4006820023059845 0.20612500607967377
vt 0.010781999677419662 0.0007220000261440873
vt 0.3980199992656708 0.2059990018606186
vt 0.39935898780822754 0.20588700473308563
vn -0.9988792502457551 -0.04366500957025162 0.018265003906601466
vn -0.9770934165541415 0.19632608992590353 -0.08212503723567512
vn -0.8887204713180111 0.4229372415020224 -0.17691809859636218
vn -0.7397828621204486 0.6207258828604755 -0.2596549542372733
vn -0.5404297639344553 0.7762136510534703 -0.3246968404096201
vn -0.30424717266999135 0.8788035369794027 -0.36761120945206205
vn -0.9525929883534645 -0.2806799889395299 0.11741099756292787
vn -0.04733099957991307 0.9215039811749292 -0.38547397987091464
vn 0.8413891367670553 0.49856706592555844 -0.20855503183756915
vn 0.9525929883534645 0.2806799889395299 -0.11741099756292787
vn 0.6728457414985078 0.682477728908568 -0.2854868783168958
vn 0.45845000679487863 0.819878012966808 -0.34296302296803693
vn 0.9988792502457551 0.04366500957025162 -0.018265003906601466
vn 0.9770934165541415 -0.19632608992590353 0.08212503723567512
vn 0.8887204713180111 -0.4229372415020224 0.17691809859636218
vn 0 -0.3859060536417149 -0.9225380847220769
vn 0.2128109893691552 0.9014059739203525 -0.37706597961685995
vn 0.7397828621204486 -0.6207258828604755 0.2596549542372733
vn -0.8413891367670553 -0.49856706592555844 0.20855503183756915
vn -0.6728457414985078 -0.682477728908568 0.2854868783168958
vn 0.5404297639344553 -0.7762136510534703 0.3246968404096201
vn -0.45845000679487863 -0.819878012966808 0.34296302296803693
vn -0.2128109893691552 -0.9014059739203525 0.37706597961685995
vn 0.30424717266999135 -0.8788035369794027 0.36761120945206205
vn 0.04733099957991307 -0.9215039811749292 0.38547397987091464
vn 0 0.3859060536417149 0.9225380847220769
usemtl material_0_0
f 1/1/1 2/1/2 3/1/1
f 4/1/2 5/1/3 6/1/2
f 7/1/3 8/1/4 9/1/3
f 10/1/5 11/1/5 12/1/4
f 13/1/6 14/1/6 15/1/5
f 16/1/2 17/1/1 18/1/2
f 19/1/1 20/1/7 21/1/1
f 22/1/3 23/1/2 24/1/3
f 25/1/4 26/1/3 27/1/4
f 28/1/4 29/1/4 30/1/5
f 31/1/5 32/1/5 33/1/6
f 34/1/6 35/1/6 36/1/8
f 37/1/8 38/1/8 39/1/6
f 40/1/9 41/1/10 42/1/9
f 43/1/11 44/1/9 45/1/11
f 46/1/11 47/1/11 48/1/12
f 49/1/10 50/1/13 51/1/10
f 52/1/13 53/1/14 54/1/13
f 55/1/14 56/1/15 57/1/14
f 58/1/7 59/1/1 60/1/7
f 61/1/16 62/1/16 63/1/16
f 64/1/16 65/1/16 66/1/16
f 67/1/16 68/1/16 69/1/16
f 70/1/16 71/1/16 72/1/16
f 73/1/16 74/1/16 75/1/16
f 76/1/16 77/1/16 78/1/16
f 79/1/12 80/1/12 81/1/17
f 82/1/16 83/1/16 84/1/16
f 85/1/17 86/1/17 87/1/8
f 88/1/8 89/1/8 90/1/17
f 91/1/10 92/1/9 93/1/10
f 94/1/9 95/1/11 96/1/9
f 97/1/12 98/1/12 99/1/11
f 100/1/13 101/1/10 102/1/13
f 103/1/14 104/1/13 105/1/14
f 106/1/18 107/1/18 108/1/15
f 109/1/15 110/1/14 111/1/15
f 112/1/7 113/1/19 114/1/7
f 115/1/16 116/1/16 117/1/16
f 118/1/16 119/1/16 120/1/16
f 121/1/16 122/1/16 123/1/16
f 124/1/16 125/1/16 126/1/16
f 127/1/19 128/1/7 129/1/19
f 130/1/20 131/1/19 132/1/20
f 133/1/16 134/1/16 135/1/16
f 136/1/16 137/1/16 138/1/16
f 139/1/16 140/1/16 141/1/16
f 142/1/17 143/1/17 144/1/12
f 145/1/15 146/1/15 147/1/18
f 148/1/18 149/1/18 150/1/21
f 151/1/21 152/1/21 153/1/18
f 154/1/16 155/1/16 156/1/16
f 157/1/19 158/1/20 159/1/19
f 160/1/20 161/1/20 162/1/22
f 163/1/22 164/1/22 165/1/23
f 166/1/16 167/1/16 168/1/16
f 169/1/16 170/1/16 171/1/16
f 172/1/24 173/1/24 174/1/21
f 175/1/21 176/1/21 177/1/24
f 178/1/16 179/1/16 180/1/16
f 181/1/22 182/1/22 183/1/20
f 184/1/23 185/1/23 186/1/22
f 187/1/16 188/1/16 189/1/16
f 190/1/24 191/1/24 192/1/25
f 193/1/16 194/1/16 195/1/16
f 196/1/25 197/1/25 198/1/24
f 199/1/23 200/1/23 201/1/25
f 202/1/16 203/1/16 204/1/16
f 205/1/16 206/1/16 207/1/16
f 208/1/25 209/1/25 210/1/23
usemtl material_1_0
f 211/2/13 212/3/14 213/4/13
f 214/5/14 215/6/15 216/3/14
f 217/7/15 218/8/18 219/6/15
f 220/8/18 221/9/21 222/10/21
f 223/10/21 224/11/24 225/12/24
f 226/3/14 227/2/13 228/5/14
f 229/4/13 230/13/10 231/2/13
f 232/6/15 233/5/14 234/7/15
f 235/8/18 236/7/15 237/14/18
f 238/9/21 239/8/18 240/14/18
f 241/11/24 242/10/21 243/9/21
f 244/15/25 245/12/24 246/11/24
f 247/12/24 248/15/25 249/16/25
f 250/1/19 251/17/7 252/18/19
f 253/19/20 254/20/19 255/21/20
f 256/22/22 257/19/20 258/21/20
f 259/23/7 260/24/1 261/17/7
f 262/25/1 263/26/2 264/24/1
f 265/27/2 266/28/3 267/26/2
f 268/13/10 269/4/13 270/29/10
f 271/30/26 272/31/26 273/32/26
f 274/33/26 275/34/26 276/30/26
f 277/32/26 278/35/26 279/36/26
f 280/36/26 281/37/26 282/38/26
f 283/38/26 284/39/26 285/40/26
f 286/40/26 287/41/26 288/42/26
f 289/43/23 290/44/22 291/22/22
f 292/42/26 293/45/26 294/46/26
f 295/16/25 296/47/23 297/43/23
f 298/47/23 299/16/25 300/15/25
f 301/17/7 302/1/19 303/23/7
f 304/20/19 305/19/20 306/48/19
f 307/19/20 308/22/22 309/44/22
f 310/24/1 311/23/7 312/25/1
f 313/26/2 314/25/1 315/27/2
f 316/28/3 317/49/4 318/50/4
f 319/28/3 320/27/2 321/51/3
f 322/29/10 323/52/9 324/13/10
f 325/30/26 326/34/26 327/31/26
f 328/32/26 329/31/26 330/35/26
f 331/33/26 332/53/26 333/34/26
f 334/36/26 335/35/26 336/37/26
f 337/52/9 338/29/10 339/54/9
f 340/55/11 341/54/9 342/56/11
f 343/38/26 344/37/26 345/39/26
f 346/40/26 347/39/26 348/41/26
f 349/42/26 350/41/26 351/45/26
f 352/44/22 353/43/23 354/47/23
f 355/49/4 356/28/3 357/51/3
f 358/57/5 359/50/4 360/49/4
f 361/50/4 362/57/5 363/58/5
f 364/59/26 365/53/26 366/33/26
f 367/54/9 368/55/11 369/52/9
f 370/60/12 371/55/11 372/56/11
f 373/61/17 374/62/12 375/60/12
f 376/59/26 377/63/26 378/53/26
f 379/64/26 380/65/26 381/63/26
f 382/58/5 383/66/6 384/67/6
f 385/66/6 386/58/5 387/57/5
f 388/64/26 389/63/26 390/59/26
f 391/55/11 392/60/12 393/62/12
f 394/62/12 395/61/17 396/68/17
f 397/69/26 398/65/26 399/64/26
f 400/70/8 401/67/6 402/66/6
f 403/69/26 404/71/26 405/65/26
f 406/67/6 407/70/8 408/72/8
f 409/72/8 410/68/17 411/61/17
f 412/73/26 413/71/26 414/69/26
f 415/71/26 416/73/26 417/74/26
f 418/68/17 419/72/8 420/70/8
