# SSTK version 0.8.0
# 51
mtllib original-51.mtl
o mesh26/mesh26-geometry/material_3/component_2#mesh26-geometry
v 0.434396 -0.669860 0.375190
v 0.435281 -0.669860 0.368475
v 0.426042 -0.704457 0.372952
v 0.431804 -0.669860 0.381449
v 0.434396 -0.669860 0.375190
v 0.424314 -0.704457 0.377124
v 0.426631 -0.704457 0.368475
v 0.426042 -0.704457 0.372952
v 0.435281 -0.669860 0.368475
v 0.426042 -0.704457 0.372952
v 0.424314 -0.704457 0.377124
v 0.434396 -0.669860 0.375190
v 0.434396 -0.669860 0.361759
v 0.426042 -0.704457 0.363997
v 0.435281 -0.669860 0.368475
v 0.427681 -0.669860 0.386823
v 0.431804 -0.669860 0.381449
v 0.421565 -0.704457 0.380707
v 0.424314 -0.704457 0.377124
v 0.421565 -0.704457 0.380707
v 0.431804 -0.669860 0.381449
v 0.426631 -0.704457 0.368475
v 0.426042 -0.704457 0.363997
v 0.426042 -0.704457 0.372952
v 0.426631 -0.704457 0.368475
v 0.435281 -0.669860 0.368475
v 0.426042 -0.704457 0.363997
v 0.426042 -0.704457 0.372952
v 0.426042 -0.704457 0.363997
v 0.424314 -0.704457 0.377124
v 0.426042 -0.704457 0.363997
v 0.434396 -0.669860 0.361759
v 0.424314 -0.704457 0.359825
v 0.422307 -0.669860 0.390946
v 0.427681 -0.669860 0.386823
v 0.417982 -0.704457 0.383456
v 0.421565 -0.704457 0.380707
v 0.417982 -0.704457 0.383456
v 0.427681 -0.669860 0.386823
v 0.424314 -0.704457 0.377124
v 0.424314 -0.704457 0.359825
v 0.421565 -0.704457 0.380707
v 0.426042 -0.704457 0.363997
v 0.424314 -0.704457 0.359825
v 0.424314 -0.704457 0.377124
v 0.431804 -0.669860 0.355501
v 0.424314 -0.704457 0.359825
v 0.434396 -0.669860 0.361759
v 0.416048 -0.669860 0.393538
v 0.422307 -0.669860 0.390946
v 0.413810 -0.704457 0.385184
v 0.417982 -0.704457 0.383456
v 0.413810 -0.704457 0.385184
v 0.422307 -0.669860 0.390946
v 0.421565 -0.704457 0.380707
v 0.421565 -0.704457 0.356243
v 0.417982 -0.704457 0.383456
v 0.424314 -0.704457 0.359825
v 0.421565 -0.704457 0.356243
v 0.421565 -0.704457 0.380707
v 0.424314 -0.704457 0.359825
v 0.431804 -0.669860 0.355501
v 0.421565 -0.704457 0.356243
v 0.409333 -0.669860 0.394423
v 0.416048 -0.669860 0.393538
v 0.409333 -0.704457 0.385773
v 0.413810 -0.704457 0.385184
v 0.409333 -0.704457 0.385773
v 0.416048 -0.669860 0.393538
v 0.417982 -0.704457 0.383456
v 0.417982 -0.704457 0.353494
v 0.413810 -0.704457 0.385184
v 0.421565 -0.704457 0.356243
v 0.417982 -0.704457 0.353494
v 0.417982 -0.704457 0.383456
v 0.427681 -0.669860 0.350127
v 0.421565 -0.704457 0.356243
v 0.431804 -0.669860 0.355501
v 0.402617 -0.669860 0.393538
v 0.409333 -0.669860 0.394423
v 0.404855 -0.704457 0.385184
v 0.409333 -0.704457 0.385773
v 0.404855 -0.704457 0.385184
v 0.409333 -0.669860 0.394423
v 0.413810 -0.704457 0.385184
v 0.413810 -0.704457 0.351765
v 0.409333 -0.704457 0.385773
v 0.417982 -0.704457 0.353494
v 0.413810 -0.704457 0.351765
v 0.413810 -0.704457 0.385184
v 0.417982 -0.704457 0.353494
v 0.421565 -0.704457 0.356243
v 0.422307 -0.669860 0.346003
v 0.427681 -0.669860 0.350127
v 0.422307 -0.669860 0.346003
v 0.421565 -0.704457 0.356243
v 0.396359 -0.669860 0.390946
v 0.402617 -0.669860 0.393538
v 0.400683 -0.704457 0.383456
v 0.404855 -0.704457 0.385184
v 0.400683 -0.704457 0.383456
v 0.402617 -0.669860 0.393538
v 0.409333 -0.704457 0.385773
v 0.409333 -0.704457 0.351176
v 0.404855 -0.704457 0.385184
v 0.413810 -0.704457 0.351765
v 0.409333 -0.704457 0.351176
v 0.409333 -0.704457 0.385773
v 0.413810 -0.704457 0.351765
v 0.417982 -0.704457 0.353494
v 0.416048 -0.669860 0.343411
v 0.422307 -0.669860 0.346003
v 0.416048 -0.669860 0.343411
v 0.417982 -0.704457 0.353494
v 0.390985 -0.669860 0.386823
v 0.396359 -0.669860 0.390946
v 0.397101 -0.704457 0.380707
v 0.400683 -0.704457 0.383456
v 0.397101 -0.704457 0.380707
v 0.396359 -0.669860 0.390946
v 0.404855 -0.704457 0.385184
v 0.404855 -0.704457 0.351765
v 0.400683 -0.704457 0.383456
v 0.409333 -0.704457 0.351176
v 0.404855 -0.704457 0.351765
v 0.404855 -0.704457 0.385184
v 0.409333 -0.704457 0.351176
v 0.413810 -0.704457 0.351765
v 0.409333 -0.669860 0.342527
v 0.416048 -0.669860 0.343411
v 0.409333 -0.669860 0.342527
v 0.413810 -0.704457 0.351765
v 0.390985 -0.669860 0.386823
v 0.397101 -0.704457 0.380707
v 0.386861 -0.669860 0.381449
v 0.400683 -0.704457 0.383456
v 0.400683 -0.704457 0.353494
v 0.397101 -0.704457 0.380707
v 0.404855 -0.704457 0.351765
v 0.400683 -0.704457 0.353494
v 0.400683 -0.704457 0.383456
v 0.404855 -0.704457 0.351765
v 0.409333 -0.704457 0.351176
v 0.402617 -0.669860 0.343411
v 0.409333 -0.669860 0.342527
v 0.402617 -0.669860 0.343411
v 0.409333 -0.704457 0.351176
v 0.386861 -0.669860 0.381449
v 0.394351 -0.704457 0.377124
v 0.384269 -0.669860 0.375190
v 0.394351 -0.704457 0.377124
v 0.386861 -0.669860 0.381449
v 0.397101 -0.704457 0.380707
v 0.400683 -0.704457 0.353494
v 0.397101 -0.704457 0.356243
v 0.397101 -0.704457 0.380707
v 0.400683 -0.704457 0.353494
v 0.404855 -0.704457 0.351765
v 0.396359 -0.669860 0.346003
v 0.402617 -0.669860 0.343411
v 0.396359 -0.669860 0.346003
v 0.404855 -0.704457 0.351765
v 0.384269 -0.669860 0.375190
v 0.392623 -0.704457 0.372952
v 0.383385 -0.669860 0.368475
v 0.392623 -0.704457 0.372952
v 0.384269 -0.669860 0.375190
v 0.394351 -0.704457 0.377124
v 0.397101 -0.704457 0.380707
v 0.397101 -0.704457 0.356243
v 0.394351 -0.704457 0.377124
v 0.397101 -0.704457 0.356243
v 0.400683 -0.704457 0.353494
v 0.390985 -0.669860 0.350127
v 0.396359 -0.669860 0.346003
v 0.390985 -0.669860 0.350127
v 0.400683 -0.704457 0.353494
v 0.392034 -0.704457 0.368475
v 0.383385 -0.669860 0.368475
v 0.392623 -0.704457 0.372952
v 0.394351 -0.704457 0.377124
v 0.394351 -0.704457 0.359825
v 0.392623 -0.704457 0.372952
v 0.397101 -0.704457 0.356243
v 0.394351 -0.704457 0.359825
v 0.394351 -0.704457 0.377124
v 0.390985 -0.669860 0.350127
v 0.386861 -0.669860 0.355501
v 0.397101 -0.704457 0.356243
v 0.383385 -0.669860 0.368475
v 0.392034 -0.704457 0.368475
v 0.384269 -0.669860 0.361759
v 0.392034 -0.704457 0.368475
v 0.392623 -0.704457 0.372952
v 0.392623 -0.704457 0.363997
v 0.394351 -0.704457 0.359825
v 0.392623 -0.704457 0.363997
v 0.392623 -0.704457 0.372952
v 0.394351 -0.704457 0.359825
v 0.397101 -0.704457 0.356243
v 0.386861 -0.669860 0.355501
v 0.392623 -0.704457 0.363997
v 0.384269 -0.669860 0.361759
v 0.392034 -0.704457 0.368475
v 0.392623 -0.704457 0.363997
v 0.394351 -0.704457 0.359825
v 0.384269 -0.669860 0.361759
v 0.386861 -0.669860 0.355501
v 0.384269 -0.669860 0.361759
v 0.394351 -0.704457 0.359825
v 0.426042 -0.704457 0.372952
v 0.435281 -0.669860 0.368475
v 0.434396 -0.669860 0.375190
v 0.424314 -0.704457 0.377124
v 0.434396 -0.669860 0.375190
v 0.431804 -0.669860 0.381449
v 0.435281 -0.669860 0.368475
v 0.426042 -0.704457 0.372952
v 0.426631 -0.704457 0.368475
v 0.434396 -0.669860 0.375190
v 0.424314 -0.704457 0.377124
v 0.426042 -0.704457 0.372952
v 0.435281 -0.669860 0.368475
v 0.426042 -0.704457 0.363997
v 0.434396 -0.669860 0.361759
v 0.421565 -0.704457 0.380707
v 0.431804 -0.669860 0.381449
v 0.427681 -0.669860 0.386823
v 0.431804 -0.669860 0.381449
v 0.421565 -0.704457 0.380707
v 0.424314 -0.704457 0.377124
v 0.426042 -0.704457 0.372952
v 0.426042 -0.704457 0.363997
v 0.426631 -0.704457 0.368475
v 0.426042 -0.704457 0.363997
v 0.435281 -0.669860 0.368475
v 0.426631 -0.704457 0.368475
v 0.424314 -0.704457 0.377124
v 0.426042 -0.704457 0.363997
v 0.426042 -0.704457 0.372952
v 0.424314 -0.704457 0.359825
v 0.434396 -0.669860 0.361759
v 0.426042 -0.704457 0.363997
v 0.417982 -0.704457 0.383456
v 0.427681 -0.669860 0.386823
v 0.422307 -0.669860 0.390946
v 0.427681 -0.669860 0.386823
v 0.417982 -0.704457 0.383456
v 0.421565 -0.704457 0.380707
v 0.421565 -0.704457 0.380707
v 0.424314 -0.704457 0.359825
v 0.424314 -0.704457 0.377124
v 0.424314 -0.704457 0.377124
v 0.424314 -0.704457 0.359825
v 0.426042 -0.704457 0.363997
v 0.434396 -0.669860 0.361759
v 0.424314 -0.704457 0.359825
v 0.431804 -0.669860 0.355501
v 0.413810 -0.704457 0.385184
v 0.422307 -0.669860 0.390946
v 0.416048 -0.669860 0.393538
v 0.422307 -0.669860 0.390946
v 0.413810 -0.704457 0.385184
v 0.417982 -0.704457 0.383456
v 0.417982 -0.704457 0.383456
v 0.421565 -0.704457 0.356243
v 0.421565 -0.704457 0.380707
v 0.421565 -0.704457 0.380707
v 0.421565 -0.704457 0.356243
v 0.424314 -0.704457 0.359825
v 0.421565 -0.704457 0.356243
v 0.431804 -0.669860 0.355501
v 0.424314 -0.704457 0.359825
v 0.409333 -0.704457 0.385773
v 0.416048 -0.669860 0.393538
v 0.409333 -0.669860 0.394423
v 0.416048 -0.669860 0.393538
v 0.409333 -0.704457 0.385773
v 0.413810 -0.704457 0.385184
v 0.413810 -0.704457 0.385184
v 0.417982 -0.704457 0.353494
v 0.417982 -0.704457 0.383456
v 0.417982 -0.704457 0.383456
v 0.417982 -0.704457 0.353494
v 0.421565 -0.704457 0.356243
v 0.431804 -0.669860 0.355501
v 0.421565 -0.704457 0.356243
v 0.427681 -0.669860 0.350127
v 0.404855 -0.704457 0.385184
v 0.409333 -0.669860 0.394423
v 0.402617 -0.669860 0.393538
v 0.409333 -0.669860 0.394423
v 0.404855 -0.704457 0.385184
v 0.409333 -0.704457 0.385773
v 0.409333 -0.704457 0.385773
v 0.413810 -0.704457 0.351765
v 0.413810 -0.704457 0.385184
v 0.413810 -0.704457 0.385184
v 0.413810 -0.704457 0.351765
v 0.417982 -0.704457 0.353494
v 0.422307 -0.669860 0.346003
v 0.421565 -0.704457 0.356243
v 0.417982 -0.704457 0.353494
v 0.421565 -0.704457 0.356243
v 0.422307 -0.669860 0.346003
v 0.427681 -0.669860 0.350127
v 0.400683 -0.704457 0.383456
v 0.402617 -0.669860 0.393538
v 0.396359 -0.669860 0.390946
v 0.402617 -0.669860 0.393538
v 0.400683 -0.704457 0.383456
v 0.404855 -0.704457 0.385184
v 0.404855 -0.704457 0.385184
v 0.409333 -0.704457 0.351176
v 0.409333 -0.704457 0.385773
v 0.409333 -0.704457 0.385773
v 0.409333 -0.704457 0.351176
v 0.413810 -0.704457 0.351765
v 0.416048 -0.669860 0.343411
v 0.417982 -0.704457 0.353494
v 0.413810 -0.704457 0.351765
v 0.417982 -0.704457 0.353494
v 0.416048 -0.669860 0.343411
v 0.422307 -0.669860 0.346003
v 0.397101 -0.704457 0.380707
v 0.396359 -0.669860 0.390946
v 0.390985 -0.669860 0.386823
v 0.396359 -0.669860 0.390946
v 0.397101 -0.704457 0.380707
v 0.400683 -0.704457 0.383456
v 0.400683 -0.704457 0.383456
v 0.404855 -0.704457 0.351765
v 0.404855 -0.704457 0.385184
v 0.404855 -0.704457 0.385184
v 0.404855 -0.704457 0.351765
v 0.409333 -0.704457 0.351176
v 0.409333 -0.669860 0.342527
v 0.413810 -0.704457 0.351765
v 0.409333 -0.704457 0.351176
v 0.413810 -0.704457 0.351765
v 0.409333 -0.669860 0.342527
v 0.416048 -0.669860 0.343411
v 0.386861 -0.669860 0.381449
v 0.397101 -0.704457 0.380707
v 0.390985 -0.669860 0.386823
v 0.397101 -0.704457 0.380707
v 0.400683 -0.704457 0.353494
v 0.400683 -0.704457 0.383456
v 0.400683 -0.704457 0.383456
v 0.400683 -0.704457 0.353494
v 0.404855 -0.704457 0.351765
v 0.402617 -0.669860 0.343411
v 0.409333 -0.704457 0.351176
v 0.404855 -0.704457 0.351765
v 0.409333 -0.704457 0.351176
v 0.402617 -0.669860 0.343411
v 0.409333 -0.669860 0.342527
v 0.384269 -0.669860 0.375190
v 0.394351 -0.704457 0.377124
v 0.386861 -0.669860 0.381449
v 0.397101 -0.704457 0.380707
v 0.386861 -0.669860 0.381449
v 0.394351 -0.704457 0.377124
v 0.397101 -0.704457 0.380707
v 0.397101 -0.704457 0.356243
v 0.400683 -0.704457 0.353494
v 0.396359 -0.669860 0.346003
v 0.404855 -0.704457 0.351765
v 0.400683 -0.704457 0.353494
v 0.404855 -0.704457 0.351765
v 0.396359 -0.669860 0.346003
v 0.402617 -0.669860 0.343411
v 0.383385 -0.669860 0.368475
v 0.392623 -0.704457 0.372952
v 0.384269 -0.669860 0.375190
v 0.394351 -0.704457 0.377124
v 0.384269 -0.669860 0.375190
v 0.392623 -0.704457 0.372952
v 0.394351 -0.704457 0.377124
v 0.397101 -0.704457 0.356243
v 0.397101 -0.704457 0.380707
v 0.390985 -0.669860 0.350127
v 0.400683 -0.704457 0.353494
v 0.397101 -0.704457 0.356243
v 0.400683 -0.704457 0.353494
v 0.390985 -0.669860 0.350127
v 0.396359 -0.669860 0.346003
v 0.392623 -0.704457 0.372952
v 0.383385 -0.669860 0.368475
v 0.392034 -0.704457 0.368475
v 0.392623 -0.704457 0.372952
v 0.394351 -0.704457 0.359825
v 0.394351 -0.704457 0.377124
v 0.394351 -0.704457 0.377124
v 0.394351 -0.704457 0.359825
v 0.397101 -0.704457 0.356243
v 0.397101 -0.704457 0.356243
v 0.386861 -0.669860 0.355501
v 0.390985 -0.669860 0.350127
v 0.384269 -0.669860 0.361759
v 0.392034 -0.704457 0.368475
v 0.383385 -0.669860 0.368475
v 0.392623 -0.704457 0.363997
v 0.392623 -0.704457 0.372952
v 0.392034 -0.704457 0.368475
v 0.392623 -0.704457 0.372952
v 0.392623 -0.704457 0.363997
v 0.394351 -0.704457 0.359825
v 0.386861 -0.669860 0.355501
v 0.397101 -0.704457 0.356243
v 0.394351 -0.704457 0.359825
v 0.392034 -0.704457 0.368475
v 0.384269 -0.669860 0.361759
v 0.392623 -0.704457 0.363997
v 0.384269 -0.669860 0.361759
v 0.394351 -0.704457 0.359825
v 0.392623 -0.704457 0.363997
v 0.394351 -0.704457 0.359825
v 0.384269 -0.669860 0.361759
v 0.386861 -0.669860 0.355501
vt 0 0
vn -0.9370857305310691 0.24253592730097664 -0.25109093492857865
vn -0.9701424440468501 0.24253584943015005 0
vn -0.8401680608137553 0.24253601122371968 -0.48507103897072823
vn -0.9370857305310691 0.24253592730097653 0.25109093492857876
vn -0.685994260947847 0.24253607544700315 -0.685994260947847
vn 0 1 0
vn -0.8401680608137553 0.24253601122371946 0.48507103897072834
vn -0.4850710389707283 0.24253601122371976 -0.8401680608137553
vn -0.2510909349285787 0.24253592730097678 -0.9370857305310691
vn -0.6859942609478471 0.24253607544700292 0.6859942609478471
vn 0 0.24253584943015022 -0.9701424440468499
vn 0.2510909349285787 0.24253592730097678 -0.9370857305310691
vn -0.4850710389707283 0.24253601122371937 0.8401680608137553
vn 0.4850710389707283 0.24253601122371976 -0.8401680608137553
vn -0.2510909349285787 0.2425359273009764 0.9370857305310691
vn 0.685994260947847 0.24253607544700315 -0.685994260947847
vn 0 0.24253584943014983 0.9701424440468501
vn 0.8401680608137553 0.24253601122371968 -0.48507103897072823
vn 0.2510909349285787 0.2425359273009764 0.9370857305310691
vn 0.9370857305310691 0.24253592730097664 -0.25109093492857865
vn 0.4850710389707283 0.24253601122371937 0.8401680608137553
vn 0.9701424440468501 0.24253584943015005 0
vn 0.6859942609478471 0.24253607544700292 0.6859942609478471
vn 0.8401680608137553 0.24253601122371946 0.48507103897072834
vn 0.9370857305310691 0.24253592730097653 0.25109093492857876
vn 0.9370857305310691 -0.24253592730097664 0.25109093492857865
vn 0.9701424440468501 -0.24253584943015005 0
vn 0.8401680608137553 -0.24253601122371968 0.48507103897072823
vn 0.9370857305310691 -0.24253592730097653 -0.25109093492857876
vn 0.685994260947847 -0.24253607544700315 0.685994260947847
vn 0 -1 0
vn 0.8401680608137553 -0.24253601122371946 -0.48507103897072834
vn 0.4850710389707283 -0.24253601122371976 0.8401680608137553
vn 0.2510909349285787 -0.24253592730097678 0.9370857305310691
vn 0.6859942609478471 -0.24253607544700292 -0.6859942609478471
vn 0 -0.24253584943015022 0.9701424440468499
vn -0.2510909349285787 -0.24253592730097678 0.9370857305310691
vn 0.4850710389707283 -0.24253601122371937 -0.8401680608137553
vn -0.4850710389707283 -0.24253601122371976 0.8401680608137553
vn 0.2510909349285787 -0.2425359273009764 -0.9370857305310691
vn -0.685994260947847 -0.24253607544700315 0.685994260947847
vn 0 -0.24253584943014983 -0.9701424440468501
vn -0.8401680608137553 -0.24253601122371968 0.48507103897072823
vn -0.2510909349285787 -0.2425359273009764 -0.9370857305310691
vn -0.9370857305310691 -0.24253592730097664 0.25109093492857865
vn -0.4850710389707283 -0.24253601122371937 -0.8401680608137553
vn -0.9701424440468501 -0.24253584943015005 0
vn -0.6859942609478471 -0.24253607544700292 -0.6859942609478471
vn -0.8401680608137553 -0.24253601122371946 -0.48507103897072834
vn -0.9370857305310691 -0.24253592730097653 -0.25109093492857876
usemtl material_0_0
f 1/1/1 2/1/2 3/1/1
f 4/1/3 5/1/1 6/1/3
f 7/1/2 8/1/1 9/1/2
f 10/1/1 11/1/3 12/1/1
f 13/1/4 14/1/4 15/1/2
f 16/1/5 17/1/3 18/1/5
f 19/1/3 20/1/5 21/1/3
f 22/1/6 23/1/6 24/1/6
f 25/1/2 26/1/2 27/1/4
f 28/1/6 29/1/6 30/1/6
f 31/1/4 32/1/4 33/1/7
f 34/1/8 35/1/5 36/1/8
f 37/1/5 38/1/8 39/1/5
f 40/1/6 41/1/6 42/1/6
f 43/1/6 44/1/6 45/1/6
f 46/1/7 47/1/7 48/1/4
f 49/1/9 50/1/8 51/1/9
f 52/1/8 53/1/9 54/1/8
f 55/1/6 56/1/6 57/1/6
f 58/1/6 59/1/6 60/1/6
f 61/1/7 62/1/7 63/1/10
f 64/1/11 65/1/9 66/1/11
f 67/1/9 68/1/11 69/1/9
f 70/1/6 71/1/6 72/1/6
f 73/1/6 74/1/6 75/1/6
f 76/1/10 77/1/10 78/1/7
f 79/1/12 80/1/11 81/1/12
f 82/1/11 83/1/12 84/1/11
f 85/1/6 86/1/6 87/1/6
f 88/1/6 89/1/6 90/1/6
f 91/1/13 92/1/10 93/1/13
f 94/1/10 95/1/13 96/1/10
f 97/1/14 98/1/12 99/1/14
f 100/1/12 101/1/14 102/1/12
f 103/1/6 104/1/6 105/1/6
f 106/1/6 107/1/6 108/1/6
f 109/1/15 110/1/13 111/1/15
f 112/1/13 113/1/15 114/1/13
f 115/1/16 116/1/14 117/1/16
f 118/1/14 119/1/16 120/1/14
f 121/1/6 122/1/6 123/1/6
f 124/1/6 125/1/6 126/1/6
f 127/1/17 128/1/15 129/1/17
f 130/1/15 131/1/17 132/1/15
f 133/1/16 134/1/16 135/1/18
f 136/1/6 137/1/6 138/1/6
f 139/1/6 140/1/6 141/1/6
f 142/1/19 143/1/17 144/1/19
f 145/1/17 146/1/19 147/1/17
f 148/1/18 149/1/18 150/1/20
f 151/1/18 152/1/18 153/1/16
f 154/1/6 155/1/6 156/1/6
f 157/1/21 158/1/19 159/1/21
f 160/1/19 161/1/21 162/1/19
f 163/1/20 164/1/20 165/1/22
f 166/1/20 167/1/20 168/1/18
f 169/1/6 170/1/6 171/1/6
f 172/1/23 173/1/21 174/1/23
f 175/1/21 176/1/23 177/1/21
f 178/1/22 179/1/22 180/1/20
f 181/1/6 182/1/6 183/1/6
f 184/1/6 185/1/6 186/1/6
f 187/1/23 188/1/24 189/1/23
f 190/1/22 191/1/22 192/1/25
f 193/1/6 194/1/6 195/1/6
f 196/1/6 197/1/6 198/1/6
f 199/1/24 200/1/23 201/1/24
f 202/1/25 203/1/25 204/1/22
f 205/1/25 206/1/24 207/1/25
f 208/1/24 209/1/25 210/1/24
usemtl material_1_0
f 211/1/26 212/1/27 213/1/26
f 214/1/28 215/1/26 216/1/28
f 217/1/27 218/1/26 219/1/27
f 220/1/26 221/1/28 222/1/26
f 223/1/27 224/1/29 225/1/29
f 226/1/30 227/1/28 228/1/30
f 229/1/28 230/1/30 231/1/28
f 232/1/31 233/1/31 234/1/31
f 235/1/29 236/1/27 237/1/27
f 238/1/31 239/1/31 240/1/31
f 241/1/32 242/1/29 243/1/29
f 244/1/33 245/1/30 246/1/33
f 247/1/30 248/1/33 249/1/30
f 250/1/31 251/1/31 252/1/31
f 253/1/31 254/1/31 255/1/31
f 256/1/29 257/1/32 258/1/32
f 259/1/34 260/1/33 261/1/34
f 262/1/33 263/1/34 264/1/33
f 265/1/31 266/1/31 267/1/31
f 268/1/31 269/1/31 270/1/31
f 271/1/35 272/1/32 273/1/32
f 274/1/36 275/1/34 276/1/36
f 277/1/34 278/1/36 279/1/34
f 280/1/31 281/1/31 282/1/31
f 283/1/31 284/1/31 285/1/31
f 286/1/32 287/1/35 288/1/35
f 289/1/37 290/1/36 291/1/37
f 292/1/36 293/1/37 294/1/36
f 295/1/31 296/1/31 297/1/31
f 298/1/31 299/1/31 300/1/31
f 301/1/38 302/1/35 303/1/38
f 304/1/35 305/1/38 306/1/35
f 307/1/39 308/1/37 309/1/39
f 310/1/37 311/1/39 312/1/37
f 313/1/31 314/1/31 315/1/31
f 316/1/31 317/1/31 318/1/31
f 319/1/40 320/1/38 321/1/40
f 322/1/38 323/1/40 324/1/38
f 325/1/41 326/1/39 327/1/41
f 328/1/39 329/1/41 330/1/39
f 331/1/31 332/1/31 333/1/31
f 334/1/31 335/1/31 336/1/31
f 337/1/42 338/1/40 339/1/42
f 340/1/40 341/1/42 342/1/40
f 343/1/43 344/1/41 345/1/41
f 346/1/31 347/1/31 348/1/31
f 349/1/31 350/1/31 351/1/31
f 352/1/44 353/1/42 354/1/44
f 355/1/42 356/1/44 357/1/42
f 358/1/45 359/1/43 360/1/43
f 361/1/41 362/1/43 363/1/43
f 364/1/31 365/1/31 366/1/31
f 367/1/46 368/1/44 369/1/46
f 370/1/44 371/1/46 372/1/44
f 373/1/47 374/1/45 375/1/45
f 376/1/43 377/1/45 378/1/45
f 379/1/31 380/1/31 381/1/31
f 382/1/48 383/1/46 384/1/48
f 385/1/46 386/1/48 387/1/46
f 388/1/45 389/1/47 390/1/47
f 391/1/31 392/1/31 393/1/31
f 394/1/31 395/1/31 396/1/31
f 397/1/48 398/1/49 399/1/48
f 400/1/50 401/1/47 402/1/47
f 403/1/31 404/1/31 405/1/31
f 406/1/31 407/1/31 408/1/31
f 409/1/49 410/1/48 411/1/49
f 412/1/47 413/1/50 414/1/50
f 415/1/50 416/1/49 417/1/50
f 418/1/49 419/1/50 420/1/49
