# SSTK version 0.8.0
# 36
mtllib original-36.mtl
o mesh15/mesh15-geometry/material_2#mesh15-geometry
v -0.359729 0.719033 -0.365970
v -0.392502 0.725271 -0.368580
v -0.360848 0.718897 -0.365913
v -0.360848 0.718897 -0.365913
v -0.392502 0.725271 -0.368580
v -0.361891 0.718499 -0.365747
v -0.325804 0.721303 -0.366920
v -0.392502 0.725271 -0.368580
v -0.359729 0.719033 -0.365970
v -0.359729 0.719033 -0.365970
v -0.358610 0.718897 -0.365913
v -0.325804 0.721303 -0.366920
v -0.361891 0.718499 -0.365747
v -0.392502 0.725271 -0.368580
v -0.362787 0.717865 -0.365481
v -0.328716 0.729190 -0.370219
v -0.392502 0.725271 -0.368580
v -0.325804 0.721303 -0.366920
v -0.358610 0.718897 -0.365913
v -0.357567 0.718499 -0.365747
v -0.325804 0.721303 -0.366920
v -0.392502 0.725271 -0.368580
v -0.394255 0.717098 -0.365161
v -0.362787 0.717865 -0.365481
v -0.388516 0.732748 -0.371707
v -0.392502 0.725271 -0.368580
v -0.328716 0.729190 -0.370219
v -0.328716 0.729190 -0.370219
v -0.325804 0.721303 -0.366920
v -0.328716 0.730024 -0.368224
v -0.357567 0.718499 -0.365747
v -0.356671 0.717865 -0.365481
v -0.325804 0.721303 -0.366920
v -0.362787 0.717865 -0.365481
v -0.394255 0.717098 -0.365161
v -0.363474 0.717038 -0.365136
v -0.394255 0.717098 -0.365161
v -0.392502 0.725271 -0.368580
v -0.394255 0.717932 -0.363166
v -0.392502 0.725271 -0.368580
v -0.388516 0.732748 -0.371707
v -0.392502 0.726106 -0.366585
v -0.333741 0.736113 -0.373115
v -0.388516 0.732748 -0.371707
v -0.328716 0.729190 -0.370219
v -0.325804 0.722137 -0.364925
v -0.328716 0.730024 -0.368224
v -0.325804 0.721303 -0.366920
v -0.328716 0.730024 -0.368224
v -0.333741 0.736948 -0.371120
v -0.328716 0.729190 -0.370219
v -0.356671 0.717865 -0.365481
v -0.355984 0.717038 -0.365136
v -0.325804 0.721303 -0.366920
v -0.363474 0.717038 -0.365136
v -0.394255 0.717098 -0.365161
v -0.363906 0.716076 -0.364733
v -0.392502 0.726106 -0.366585
v -0.394255 0.717932 -0.363166
v -0.392502 0.725271 -0.368580
v -0.394255 0.717932 -0.363166
v -0.393655 0.709618 -0.359688
v -0.394255 0.717098 -0.365161
v -0.388516 0.733582 -0.369713
v -0.392502 0.726106 -0.366585
v -0.388516 0.732748 -0.371707
v -0.382568 0.739018 -0.374330
v -0.388516 0.732748 -0.371707
v -0.333741 0.736113 -0.373115
v -0.333741 0.736113 -0.373115
v -0.328716 0.729190 -0.370219
v -0.333741 0.736948 -0.371120
v -0.325804 0.722137 -0.364925
v -0.347232 0.722073 -0.356198
v -0.328716 0.730024 -0.368224
v -0.325804 0.721303 -0.366920
v -0.325203 0.712989 -0.363442
v -0.325804 0.722137 -0.364925
v -0.328716 0.730024 -0.368224
v -0.348528 0.724960 -0.357405
v -0.333741 0.736948 -0.371120
v -0.355984 0.717038 -0.365136
v -0.355552 0.716076 -0.364733
v -0.325804 0.721303 -0.366920
v -0.363906 0.716076 -0.364733
v -0.394255 0.717098 -0.365161
v -0.364054 0.715043 -0.364301
v -0.372296 0.722073 -0.356198
v -0.394255 0.717932 -0.363166
v -0.392502 0.726106 -0.366585
v -0.393655 0.708784 -0.361683
v -0.394255 0.717098 -0.365161
v -0.393655 0.709618 -0.359688
v -0.372738 0.718975 -0.354902
v -0.393655 0.709618 -0.359688
v -0.394255 0.717932 -0.363166
v -0.370999 0.724960 -0.357405
v -0.392502 0.726106 -0.366585
v -0.388516 0.733582 -0.369713
v -0.388516 0.732748 -0.371707
v -0.382568 0.739018 -0.374330
v -0.388516 0.733582 -0.369713
v -0.340538 0.741600 -0.375410
v -0.382568 0.739018 -0.374330
v -0.333741 0.736113 -0.373115
v -0.333741 0.736113 -0.373115
v -0.333741 0.736948 -0.371120
v -0.340538 0.741600 -0.375410
v -0.347232 0.722073 -0.356198
v -0.348528 0.724960 -0.357405
v -0.328716 0.730024 -0.368224
v -0.347232 0.722073 -0.356198
v -0.325804 0.722137 -0.364925
v -0.346924 0.719913 -0.355294
v -0.325203 0.713824 -0.361447
v -0.325804 0.722137 -0.364925
v -0.325203 0.712989 -0.363442
v -0.325804 0.721303 -0.366920
v -0.355984 0.713048 -0.363467
v -0.325203 0.712989 -0.363442
v -0.348528 0.724960 -0.357405
v -0.350590 0.727439 -0.358442
v -0.333741 0.736948 -0.371120
v -0.355552 0.716076 -0.364733
v -0.355404 0.715043 -0.364301
v -0.325804 0.721303 -0.366920
v -0.364054 0.715043 -0.364301
v -0.394255 0.717098 -0.365161
v -0.363906 0.714011 -0.363869
v -0.372738 0.718975 -0.354902
v -0.394255 0.717932 -0.363166
v -0.372296 0.722073 -0.356198
v -0.370999 0.724960 -0.357405
v -0.372296 0.722073 -0.356198
v -0.392502 0.726106 -0.366585
v -0.394255 0.717098 -0.365161
v -0.393655 0.708784 -0.361683
v -0.360848 0.711190 -0.362689
v -0.393655 0.709618 -0.359688
v -0.390742 0.701731 -0.356389
v -0.393655 0.708784 -0.361683
v -0.393655 0.709618 -0.359688
v -0.372738 0.718975 -0.354902
v -0.372296 0.715878 -0.353606
v -0.368938 0.727439 -0.358442
v -0.370999 0.724960 -0.357405
v -0.388516 0.733582 -0.369713
v -0.382568 0.739853 -0.372335
v -0.388516 0.733582 -0.369713
v -0.382568 0.739018 -0.374330
v -0.375064 0.743654 -0.376270
v -0.382568 0.739018 -0.374330
v -0.340538 0.741600 -0.375410
v -0.340538 0.742435 -0.373416
v -0.340538 0.741600 -0.375410
v -0.333741 0.736948 -0.371120
v -0.346790 0.718975 -0.354902
v -0.346924 0.719913 -0.355294
v -0.325804 0.722137 -0.364925
v -0.325203 0.713824 -0.361447
v -0.346790 0.718975 -0.354902
v -0.325804 0.722137 -0.364925
v -0.325203 0.712989 -0.363442
v -0.326956 0.704816 -0.360023
v -0.325203 0.713824 -0.361447
v -0.355984 0.713048 -0.363467
v -0.356671 0.712222 -0.363121
v -0.325203 0.712989 -0.363442
v -0.355552 0.714011 -0.363869
v -0.355984 0.713048 -0.363467
v -0.325804 0.721303 -0.366920
v -0.333741 0.736948 -0.371120
v -0.350590 0.727439 -0.358442
v -0.340538 0.742435 -0.373416
v -0.355404 0.715043 -0.364301
v -0.355552 0.714011 -0.363869
v -0.325804 0.721303 -0.366920
v -0.363906 0.714011 -0.363869
v -0.394255 0.717098 -0.365161
v -0.363474 0.713048 -0.363467
v -0.372738 0.718975 -0.354902
v -0.372296 0.722073 -0.356198
v -0.372738 0.723114 -0.345007
v -0.372296 0.722073 -0.356198
v -0.370999 0.724960 -0.357405
v -0.372296 0.726212 -0.346303
v -0.359729 0.711054 -0.362632
v -0.360848 0.711190 -0.362689
v -0.393655 0.708784 -0.361683
v -0.361891 0.711588 -0.362856
v -0.394255 0.717098 -0.365161
v -0.360848 0.711190 -0.362689
v -0.390742 0.700897 -0.358384
v -0.393655 0.708784 -0.361683
v -0.390742 0.701731 -0.356389
v -0.390742 0.701731 -0.356389
v -0.393655 0.709618 -0.359688
v -0.372296 0.715878 -0.353606
v -0.372604 0.718036 -0.354509
v -0.372296 0.715878 -0.353606
v -0.372738 0.718975 -0.354902
v -0.370999 0.724960 -0.357405
v -0.368938 0.727439 -0.358442
v -0.370999 0.729099 -0.347511
v -0.368938 0.727439 -0.358442
v -0.388516 0.733582 -0.369713
v -0.382568 0.739853 -0.372335
v -0.382568 0.739853 -0.372335
v -0.382568 0.739018 -0.374330
v -0.375064 0.744489 -0.374275
v -0.375064 0.743654 -0.376270
v -0.375064 0.744489 -0.374275
v -0.382568 0.739018 -0.374330
v -0.343276 0.742830 -0.375925
v -0.375064 0.743654 -0.376270
v -0.340538 0.741600 -0.375410
v -0.340538 0.741600 -0.375410
v -0.340538 0.742435 -0.373416
v -0.343276 0.742830 -0.375925
v -0.346924 0.719913 -0.355294
v -0.346790 0.718975 -0.354902
v -0.346924 0.723385 -0.346995
v -0.346924 0.723385 -0.346995
v -0.330710 0.739263 -0.353638
v -0.346924 0.719913 -0.355294
v -0.325203 0.713824 -0.361447
v -0.347232 0.715878 -0.353606
v -0.346790 0.718975 -0.354902
v -0.326956 0.705650 -0.358028
v -0.325203 0.713824 -0.361447
v -0.326956 0.704816 -0.360023
v -0.325203 0.712989 -0.363442
v -0.393655 0.708784 -0.361683
v -0.326956 0.704816 -0.360023
v -0.356671 0.712222 -0.363121
v -0.357567 0.711588 -0.362856
v -0.325203 0.712989 -0.363442
v -0.350590 0.727439 -0.358442
v -0.350899 0.727657 -0.358533
v -0.340538 0.742435 -0.373416
v -0.363474 0.713048 -0.363467
v -0.394255 0.717098 -0.365161
v -0.362787 0.712222 -0.363121
v -0.372296 0.726212 -0.346303
v -0.372738 0.723114 -0.345007
v -0.372296 0.722073 -0.356198
v -0.372738 0.723114 -0.345007
v -0.372604 0.721507 -0.346210
v -0.372738 0.718975 -0.354902
v -0.370999 0.729099 -0.347511
v -0.372296 0.726212 -0.346303
v -0.370999 0.724960 -0.357405
v -0.359729 0.711054 -0.362632
v -0.393655 0.708784 -0.361683
v -0.325203 0.712989 -0.363442
v -0.362787 0.712222 -0.363121
v -0.394255 0.717098 -0.365161
v -0.361891 0.711588 -0.362856
v -0.393655 0.708784 -0.361683
v -0.390742 0.700897 -0.358384
v -0.326956 0.704816 -0.360023
v -0.390742 0.701731 -0.356389
v -0.385717 0.694808 -0.353493
v -0.390742 0.700897 -0.358384
v -0.370999 0.712991 -0.352398
v -0.390742 0.701731 -0.356389
v -0.372296 0.715878 -0.353606
v -0.372604 0.718036 -0.354509
v -0.372738 0.718975 -0.354902
v -0.372604 0.721507 -0.346210
v -0.368938 0.731578 -0.348548
v -0.370999 0.729099 -0.347511
v -0.368938 0.727439 -0.358442
v -0.366251 0.729341 -0.359238
v -0.368938 0.727439 -0.358442
v -0.382568 0.739853 -0.372335
v -0.366251 0.729341 -0.359238
v -0.382568 0.739853 -0.372335
v -0.375064 0.744489 -0.374275
v -0.375064 0.744489 -0.374275
v -0.375064 0.743654 -0.376270
v -0.366514 0.747175 -0.375399
v -0.348642 0.745278 -0.376949
v -0.375064 0.743654 -0.376270
v -0.343276 0.742830 -0.375925
v -0.340538 0.742435 -0.373416
v -0.343276 0.743665 -0.373930
v -0.343276 0.742830 -0.375925
v -0.348528 0.728431 -0.349107
v -0.347232 0.725544 -0.347899
v -0.348528 0.729099 -0.347511
v -0.348528 0.728431 -0.349107
v -0.330710 0.739263 -0.353638
v -0.347232 0.725544 -0.347899
v -0.347232 0.725544 -0.347899
v -0.346924 0.723385 -0.346995
v -0.347232 0.726212 -0.346303
v -0.346924 0.723385 -0.346995
v -0.347232 0.725544 -0.347899
v -0.330710 0.739263 -0.353638
v -0.346924 0.723385 -0.346995
v -0.346790 0.718975 -0.354902
v -0.346924 0.724052 -0.345400
v -0.330710 0.731920 -0.371192
v -0.346924 0.719913 -0.355294
v -0.330710 0.739263 -0.353638
v -0.346924 0.716041 -0.364550
v -0.346924 0.719913 -0.355294
v -0.330710 0.731920 -0.371192
v -0.346790 0.718975 -0.354902
v -0.347232 0.715878 -0.353606
v -0.346790 0.723114 -0.345007
v -0.326956 0.705650 -0.358028
v -0.347232 0.715878 -0.353606
v -0.325203 0.713824 -0.361447
v -0.326956 0.704816 -0.360023
v -0.330942 0.697339 -0.356895
v -0.326956 0.705650 -0.358028
v -0.357567 0.711588 -0.362856
v -0.358610 0.711190 -0.362689
v -0.325203 0.712989 -0.363442
v -0.353277 0.729341 -0.359238
v -0.340538 0.742435 -0.373416
v -0.350899 0.727657 -0.358533
v -0.350590 0.730910 -0.350143
v -0.348528 0.728431 -0.349107
v -0.350590 0.731578 -0.348548
v -0.350590 0.730910 -0.350143
v -0.330710 0.739263 -0.353638
v -0.348528 0.728431 -0.349107
v -0.372296 0.726212 -0.346303
v -0.369161 0.725003 -0.345797
v -0.372738 0.723114 -0.345007
v -0.372604 0.721507 -0.346210
v -0.372738 0.723114 -0.345007
v -0.372296 0.719349 -0.345307
v -0.370999 0.729099 -0.347511
v -0.368311 0.727182 -0.346709
v -0.372296 0.726212 -0.346303
v -0.358610 0.711190 -0.362689
v -0.359729 0.711054 -0.362632
v -0.325203 0.712989 -0.363442
v -0.326956 0.704816 -0.360023
v -0.390742 0.700897 -0.358384
v -0.330942 0.697339 -0.356895
v -0.385717 0.693974 -0.355488
v -0.390742 0.700897 -0.358384
v -0.385717 0.694808 -0.353493
v -0.385717 0.694808 -0.353493
v -0.390742 0.701731 -0.356389
v -0.370999 0.712991 -0.352398
v -0.372604 0.718036 -0.354509
v -0.383377 0.693708 -0.353620
v -0.372604 0.714725 -0.362424
v -0.372604 0.721507 -0.346210
v -0.383377 0.693708 -0.353620
v -0.372604 0.718036 -0.354509
v -0.368938 0.731578 -0.348548
v -0.364962 0.730580 -0.348130
v -0.370999 0.729099 -0.347511
v -0.368938 0.731578 -0.348548
v -0.368938 0.727439 -0.358442
v -0.366251 0.733480 -0.349343
v -0.366251 0.729341 -0.359238
v -0.366251 0.733480 -0.349343
v -0.368938 0.727439 -0.358442
v -0.363122 0.730537 -0.359738
v -0.366251 0.729341 -0.359238
v -0.375064 0.744489 -0.374275
v -0.366514 0.746341 -0.377393
v -0.366514 0.747175 -0.375399
v -0.375064 0.743654 -0.376270
v -0.363122 0.730537 -0.359738
v -0.375064 0.744489 -0.374275
v -0.366514 0.747175 -0.375399
v -0.366514 0.746341 -0.377393
v -0.375064 0.743654 -0.376270
v -0.348642 0.745278 -0.376949
v -0.343281 0.742880 -0.375777
v -0.348642 0.745278 -0.376949
v -0.343276 0.742830 -0.375925
v -0.343281 0.742880 -0.375777
v -0.343276 0.742830 -0.375925
v -0.343276 0.743665 -0.373930
v -0.340538 0.742435 -0.373416
v -0.353277 0.729341 -0.359238
v -0.343276 0.743665 -0.373930
v -0.347232 0.726212 -0.346303
v -0.348528 0.729099 -0.347511
v -0.347232 0.725544 -0.347899
v -0.348528 0.729099 -0.347511
v -0.350590 0.731578 -0.348548
v -0.348528 0.728431 -0.349107
v -0.346924 0.724052 -0.345400
v -0.347232 0.726212 -0.346303
v -0.346924 0.723385 -0.346995
v -0.346790 0.723114 -0.345007
v -0.346924 0.724052 -0.345400
v -0.346790 0.718975 -0.354902
v -0.330710 0.739263 -0.353638
v -0.332369 0.739129 -0.353582
v -0.330710 0.731920 -0.371192
v -0.347232 0.720016 -0.343711
v -0.346790 0.723114 -0.345007
v -0.347232 0.715878 -0.353606
v -0.326956 0.705650 -0.358028
v -0.348528 0.712991 -0.352398
v -0.347232 0.715878 -0.353606
v -0.330942 0.698173 -0.354901
v -0.326956 0.705650 -0.358028
v -0.330942 0.697339 -0.356895
v -0.350590 0.730910 -0.350143
v -0.350590 0.731578 -0.348548
v -0.350899 0.731129 -0.350235
v -0.350899 0.731129 -0.350235
v -0.330710 0.739263 -0.353638
v -0.350590 0.730910 -0.350143
v -0.369161 0.725003 -0.345797
v -0.369371 0.722694 -0.344832
v -0.372738 0.723114 -0.345007
v -0.368311 0.727182 -0.346709
v -0.369161 0.725003 -0.345797
v -0.372296 0.726212 -0.346303
v -0.372296 0.719349 -0.345307
v -0.372738 0.723114 -0.345007
v -0.372296 0.720016 -0.343711
v -0.372604 0.721507 -0.346210
v -0.372296 0.719349 -0.345307
v -0.383376 0.700490 -0.337405
v -0.366879 0.729084 -0.347505
v -0.368311 0.727182 -0.346709
v -0.370999 0.729099 -0.347511
v -0.390742 0.700897 -0.358384
v -0.385717 0.693974 -0.355488
v -0.330942 0.697339 -0.356895
v -0.385717 0.693974 -0.355488
v -0.385717 0.694808 -0.353493
v -0.378920 0.688487 -0.353192
v -0.368938 0.710512 -0.351361
v -0.385717 0.694808 -0.353493
v -0.370999 0.712991 -0.352398
v -0.383377 0.693708 -0.353620
v -0.372604 0.721507 -0.346210
v -0.383376 0.700490 -0.337405
v -0.364962 0.730580 -0.348130
v -0.366879 0.729084 -0.347505
v -0.370999 0.729099 -0.347511
v -0.362690 0.731567 -0.348543
v -0.364962 0.730580 -0.348130
v -0.368938 0.731578 -0.348548
v -0.366251 0.733480 -0.349343
v -0.360219 0.731977 -0.348715
v -0.368938 0.731578 -0.348548
v -0.366251 0.733480 -0.349343
v -0.366251 0.729341 -0.359238
v -0.363122 0.734675 -0.349844
v -0.363122 0.730537 -0.359738
v -0.363122 0.734675 -0.349844
v -0.366251 0.729341 -0.359238
v -0.366514 0.747175 -0.375399
v -0.366514 0.746341 -0.377393
v -0.357502 0.747729 -0.375630
v -0.359764 0.730944 -0.359909
v -0.363122 0.730537 -0.359738
v -0.366514 0.747175 -0.375399
v -0.357502 0.746895 -0.377625
v -0.366514 0.746341 -0.377393
v -0.348642 0.745278 -0.376949
v -0.343281 0.742880 -0.375777
v -0.343276 0.743665 -0.373930
v -0.348642 0.745278 -0.376949
v -0.343281 0.742880 -0.375777
v -0.343276 0.743665 -0.373930
v -0.359460 0.727036 -0.369149
v -0.343281 0.742880 -0.375777
v -0.343332 0.741344 -0.375135
v -0.343276 0.743665 -0.373930
v -0.348642 0.746112 -0.374954
v -0.343276 0.743665 -0.373930
v -0.353277 0.729341 -0.359238
v -0.348528 0.729099 -0.347511
v -0.347232 0.726212 -0.346303
v -0.351671 0.727910 -0.347013
v -0.350590 0.731578 -0.348548
v -0.348528 0.729099 -0.347511
v -0.353292 0.729678 -0.347753
v -0.347232 0.726212 -0.346303
v -0.346924 0.724052 -0.345400
v -0.350602 0.725814 -0.346137
v -0.346924 0.724052 -0.345400
v -0.346790 0.723114 -0.345007
v -0.350156 0.723534 -0.345183
v -0.332369 0.731786 -0.371136
v -0.330710 0.731920 -0.371192
v -0.332369 0.739129 -0.353582
v -0.332369 0.739129 -0.353582
v -0.330710 0.739263 -0.353638
v -0.359460 0.734379 -0.351595
v -0.346790 0.723114 -0.345007
v -0.347232 0.720016 -0.343711
v -0.350366 0.721226 -0.344217
v -0.347232 0.715878 -0.353606
v -0.348528 0.712991 -0.352398
v -0.347232 0.720016 -0.343711
v -0.326956 0.705650 -0.358028
v -0.330942 0.698173 -0.354901
v -0.348528 0.712991 -0.352398
v -0.330942 0.697339 -0.356895
v -0.336890 0.691069 -0.354273
v -0.330942 0.698173 -0.354901
v -0.350899 0.731129 -0.350235
v -0.350899 0.731796 -0.348639
v -0.353277 0.732812 -0.350939
v -0.353277 0.732812 -0.350939
v -0.330710 0.739263 -0.353638
v -0.350899 0.731129 -0.350235
v -0.350899 0.731796 -0.348639
v -0.350899 0.731129 -0.350235
v -0.350590 0.731578 -0.348548
v -0.372738 0.723114 -0.345007
v -0.369371 0.722694 -0.344832
v -0.372604 0.722175 -0.344614
v -0.372604 0.722175 -0.344614
v -0.372296 0.720016 -0.343711
v -0.372738 0.723114 -0.345007
v -0.372296 0.720016 -0.343711
v -0.370999 0.717130 -0.342504
v -0.372296 0.719349 -0.345307
v -0.372296 0.719349 -0.345307
v -0.370999 0.716462 -0.344100
v -0.383376 0.700490 -0.337405
v -0.330942 0.697339 -0.356895
v -0.385717 0.693974 -0.355488
v -0.336890 0.691069 -0.354273
v -0.378920 0.689321 -0.351198
v -0.378920 0.688487 -0.353192
v -0.385717 0.694808 -0.353493
v -0.385717 0.693974 -0.355488
v -0.378920 0.688487 -0.353192
v -0.336890 0.691069 -0.354273
v -0.378920 0.689321 -0.351198
v -0.385717 0.694808 -0.353493
v -0.368938 0.710512 -0.351361
v -0.370999 0.716462 -0.344100
v -0.372296 0.719349 -0.345307
v -0.370999 0.717130 -0.342504
v -0.382188 0.699317 -0.336940
v -0.383377 0.693708 -0.353620
v -0.383376 0.700490 -0.337405
v -0.360219 0.731977 -0.348715
v -0.362690 0.731567 -0.348543
v -0.368938 0.731578 -0.348548
v -0.353277 0.733480 -0.349343
v -0.360219 0.731977 -0.348715
v -0.366251 0.733480 -0.349343
v -0.363122 0.734675 -0.349844
v -0.356406 0.734675 -0.349844
v -0.366251 0.733480 -0.349343
v -0.363122 0.734675 -0.349844
v -0.363122 0.730537 -0.359738
v -0.359764 0.735083 -0.350014
v -0.357502 0.746895 -0.377625
v -0.357502 0.747729 -0.375630
v -0.366514 0.746341 -0.377393
v -0.359764 0.730944 -0.359909
v -0.366514 0.747175 -0.375399
v -0.357502 0.747729 -0.375630
v -0.359764 0.730944 -0.359909
v -0.359764 0.735083 -0.350014
v -0.363122 0.730537 -0.359738
v -0.348642 0.745278 -0.376949
v -0.348642 0.746112 -0.374954
v -0.357502 0.746895 -0.377625
v -0.348642 0.746112 -0.374954
v -0.348642 0.745278 -0.376949
v -0.343276 0.743665 -0.373930
v -0.359460 0.727036 -0.369149
v -0.343276 0.743665 -0.373930
v -0.359460 0.730908 -0.359893
v -0.343276 0.743665 -0.373930
v -0.343332 0.741344 -0.375135
v -0.343281 0.750223 -0.358222
v -0.353277 0.729341 -0.359238
v -0.356406 0.730537 -0.359738
v -0.348642 0.746112 -0.374954
v -0.351671 0.727910 -0.347013
v -0.347232 0.726212 -0.346303
v -0.350602 0.725814 -0.346137
v -0.353292 0.729678 -0.347753
v -0.348528 0.729099 -0.347511
v -0.351671 0.727910 -0.347013
v -0.355354 0.731000 -0.348306
v -0.350590 0.731578 -0.348548
v -0.353292 0.729678 -0.347753
v -0.350602 0.725814 -0.346137
v -0.346924 0.724052 -0.345400
v -0.350156 0.723534 -0.345183
v -0.350156 0.723534 -0.345183
v -0.346790 0.723114 -0.345007
v -0.350366 0.721226 -0.344217
v -0.332369 0.739129 -0.353582
v -0.334031 0.739231 -0.353624
v -0.332369 0.731786 -0.371136
v -0.359460 0.734379 -0.351595
v -0.330710 0.739263 -0.353638
v -0.356406 0.734008 -0.351439
v -0.332369 0.739129 -0.353582
v -0.359460 0.734379 -0.351595
v -0.334031 0.739231 -0.353624
v -0.350366 0.721226 -0.344217
v -0.347232 0.720016 -0.343711
v -0.351216 0.719047 -0.343306
v -0.348528 0.717130 -0.342504
v -0.347232 0.720016 -0.343711
v -0.348528 0.712991 -0.352398
v -0.330942 0.698173 -0.354901
v -0.350590 0.710512 -0.351361
v -0.348528 0.712991 -0.352398
v -0.336890 0.691903 -0.352278
v -0.330942 0.698173 -0.354901
v -0.336890 0.691069 -0.354273
v -0.353277 0.732812 -0.350939
v -0.353277 0.733480 -0.349343
v -0.356406 0.734008 -0.351439
v -0.356406 0.734008 -0.351439
v -0.330710 0.739263 -0.353638
v -0.353277 0.732812 -0.350939
v -0.353277 0.733480 -0.349343
v -0.353277 0.732812 -0.350939
v -0.350899 0.731796 -0.348639
v -0.350899 0.731796 -0.348639
v -0.350590 0.731578 -0.348548
v -0.357717 0.731784 -0.348634
v -0.369371 0.722694 -0.344832
v -0.368926 0.720415 -0.343878
v -0.372604 0.722175 -0.344614
v -0.372604 0.722175 -0.344614
v -0.368926 0.720415 -0.343878
v -0.372296 0.720016 -0.343711
v -0.372296 0.720016 -0.343711
v -0.367856 0.718319 -0.343001
v -0.370999 0.717130 -0.342504
v -0.370999 0.716462 -0.344100
v -0.368938 0.713983 -0.343063
v -0.383376 0.700490 -0.337405
v -0.378920 0.688487 -0.353192
v -0.378920 0.689321 -0.351198
v -0.370816 0.684809 -0.351654
v -0.336890 0.691069 -0.354273
v -0.378920 0.688487 -0.353192
v -0.344395 0.686432 -0.352333
v -0.378920 0.689321 -0.351198
v -0.368938 0.710512 -0.351361
v -0.366251 0.708610 -0.350566
v -0.370999 0.717130 -0.342504
v -0.368938 0.714651 -0.341467
v -0.370999 0.716462 -0.344100
v -0.383377 0.693708 -0.353620
v -0.382188 0.699317 -0.336940
v -0.382189 0.692535 -0.353155
v -0.382188 0.699317 -0.336940
v -0.383376 0.700490 -0.337405
v -0.360065 0.710514 -0.341612
v -0.353277 0.733480 -0.349343
v -0.350899 0.731796 -0.348639
v -0.360219 0.731977 -0.348715
v -0.356406 0.734675 -0.349844
v -0.353277 0.733480 -0.349343
v -0.366251 0.733480 -0.349343
v -0.359460 0.735046 -0.349999
v -0.356406 0.734675 -0.349844
v -0.363122 0.734675 -0.349844
v -0.359764 0.735083 -0.350014
v -0.359460 0.735046 -0.349999
v -0.363122 0.734675 -0.349844
v -0.357502 0.747729 -0.375630
v -0.357502 0.746895 -0.377625
v -0.348642 0.746112 -0.374954
v -0.359764 0.730944 -0.359909
v -0.357502 0.747729 -0.375630
v -0.359460 0.730908 -0.359893
v -0.359764 0.735083 -0.350014
v -0.359764 0.730944 -0.359909
v -0.359460 0.735046 -0.349999
v -0.343276 0.743665 -0.373930
v -0.343281 0.750223 -0.358222
v -0.359460 0.730908 -0.359893
v -0.343332 0.748688 -0.357580
v -0.343281 0.750223 -0.358222
v -0.343332 0.741344 -0.375135
v -0.348642 0.746112 -0.374954
v -0.356406 0.730537 -0.359738
v -0.357502 0.747729 -0.375630
v -0.357717 0.731784 -0.348634
v -0.350590 0.731578 -0.348548
v -0.355354 0.731000 -0.348306
v -0.334031 0.731888 -0.371179
v -0.332369 0.731786 -0.371136
v -0.334031 0.739231 -0.353624
v -0.356406 0.734008 -0.351439
v -0.356406 0.734675 -0.349844
v -0.359460 0.734379 -0.351595
v -0.334031 0.739231 -0.353624
v -0.359460 0.734379 -0.351595
v -0.335657 0.739567 -0.353765
v -0.351216 0.719047 -0.343306
v -0.347232 0.720016 -0.343711
v -0.352648 0.717144 -0.342510
v -0.347232 0.720016 -0.343711
v -0.348528 0.717130 -0.342504
v -0.352648 0.717144 -0.342510
v -0.348528 0.712991 -0.352398
v -0.350590 0.710512 -0.351361
v -0.348528 0.717130 -0.342504
v -0.330942 0.698173 -0.354901
v -0.336890 0.691903 -0.352278
v -0.350590 0.710512 -0.351361
v -0.336890 0.691903 -0.352278
v -0.336890 0.691069 -0.354273
v -0.344395 0.687267 -0.350338
v -0.356406 0.734675 -0.349844
v -0.356406 0.734008 -0.351439
v -0.353277 0.733480 -0.349343
v -0.360219 0.731977 -0.348715
v -0.350899 0.731796 -0.348639
v -0.357717 0.731784 -0.348634
v -0.368926 0.720415 -0.343878
v -0.367856 0.718319 -0.343001
v -0.372296 0.720016 -0.343711
v -0.367856 0.718319 -0.343001
v -0.366235 0.716550 -0.342262
v -0.370999 0.717130 -0.342504
v -0.368938 0.713983 -0.343063
v -0.366251 0.712081 -0.342267
v -0.383376 0.700490 -0.337405
v -0.368938 0.713983 -0.343063
v -0.370999 0.716462 -0.344100
v -0.368938 0.714651 -0.341467
v -0.370816 0.685644 -0.349659
v -0.370816 0.684809 -0.351654
v -0.378920 0.689321 -0.351198
v -0.378920 0.688487 -0.353192
v -0.370816 0.684809 -0.351654
v -0.344395 0.686432 -0.352333
v -0.344395 0.686432 -0.352333
v -0.344395 0.687267 -0.350338
v -0.336890 0.691069 -0.354273
v -0.368629 0.710293 -0.351270
v -0.366251 0.708610 -0.350566
v -0.368938 0.710512 -0.351361
v -0.370816 0.685644 -0.349659
v -0.378920 0.689321 -0.351198
v -0.366251 0.708610 -0.350566
v -0.370999 0.717130 -0.342504
v -0.364173 0.715229 -0.341709
v -0.368938 0.714651 -0.341467
v -0.382188 0.699317 -0.336940
v -0.360066 0.703732 -0.357826
v -0.382189 0.692535 -0.353155
v -0.363122 0.710885 -0.341767
v -0.360065 0.710514 -0.341612
v -0.383376 0.700490 -0.337405
v -0.360066 0.703732 -0.357826
v -0.382188 0.699317 -0.336940
v -0.360065 0.710514 -0.341612
v -0.359460 0.735046 -0.349999
v -0.359460 0.734379 -0.351595
v -0.356406 0.734675 -0.349844
v -0.356406 0.730537 -0.359738
v -0.359460 0.730908 -0.359893
v -0.357502 0.747729 -0.375630
v -0.359460 0.730908 -0.359893
v -0.359460 0.735046 -0.349999
v -0.359764 0.730944 -0.359909
v -0.359460 0.734379 -0.351595
v -0.359460 0.730908 -0.359893
v -0.343281 0.750223 -0.358222
v -0.343332 0.741344 -0.375135
v -0.343128 0.739819 -0.374497
v -0.343332 0.748688 -0.357580
v -0.343281 0.750223 -0.358222
v -0.343332 0.748688 -0.357580
v -0.359460 0.734379 -0.351595
v -0.334031 0.739231 -0.353624
v -0.335657 0.739567 -0.353765
v -0.334031 0.731888 -0.371179
v -0.335657 0.739567 -0.353765
v -0.359460 0.734379 -0.351595
v -0.337208 0.740127 -0.353999
v -0.352648 0.717144 -0.342510
v -0.348528 0.717130 -0.342504
v -0.354566 0.715649 -0.341884
v -0.350590 0.714651 -0.341467
v -0.348528 0.717130 -0.342504
v -0.350590 0.710512 -0.351361
v -0.336890 0.691903 -0.352278
v -0.353277 0.708610 -0.350566
v -0.350590 0.710512 -0.351361
v -0.336890 0.691903 -0.352278
v -0.344395 0.687267 -0.350338
v -0.353277 0.708610 -0.350566
v -0.366235 0.716550 -0.342262
v -0.364173 0.715229 -0.341709
v -0.370999 0.717130 -0.342504
v -0.366251 0.712081 -0.342267
v -0.363122 0.710885 -0.341767
v -0.383376 0.700490 -0.337405
v -0.368629 0.713765 -0.342971
v -0.366251 0.712081 -0.342267
v -0.368938 0.713983 -0.343063
v -0.368938 0.713983 -0.343063
v -0.368938 0.714651 -0.341467
v -0.368629 0.713765 -0.342971
v -0.370816 0.684809 -0.351654
v -0.370816 0.685644 -0.349659
v -0.361956 0.683192 -0.350978
v -0.344395 0.686432 -0.352333
v -0.370816 0.684809 -0.351654
v -0.352944 0.683746 -0.351209
v -0.344395 0.687267 -0.350338
v -0.344395 0.686432 -0.352333
v -0.352944 0.684580 -0.349215
v -0.363122 0.707414 -0.350066
v -0.370816 0.685644 -0.349659
v -0.366251 0.708610 -0.350566
v -0.364173 0.715229 -0.341709
v -0.361811 0.714444 -0.341381
v -0.368938 0.714651 -0.341467
v -0.363122 0.710885 -0.341767
v -0.363122 0.711553 -0.340171
v -0.360065 0.710514 -0.341612
v -0.360066 0.703732 -0.357826
v -0.360065 0.710514 -0.341612
v -0.360065 0.707043 -0.349910
v -0.359460 0.734379 -0.351595
v -0.359460 0.735046 -0.349999
v -0.359460 0.730908 -0.359893
v -0.343128 0.739819 -0.374497
v -0.342674 0.738341 -0.373878
v -0.343128 0.747163 -0.356942
v -0.343128 0.747163 -0.356942
v -0.343332 0.748688 -0.357580
v -0.343128 0.739819 -0.374497
v -0.343128 0.747163 -0.356942
v -0.359460 0.734379 -0.351595
v -0.343332 0.748688 -0.357580
v -0.335657 0.732223 -0.371319
v -0.334031 0.731888 -0.371179
v -0.335657 0.739567 -0.353765
v -0.337208 0.740127 -0.353999
v -0.359460 0.734379 -0.351595
v -0.338648 0.740900 -0.354322
v -0.335657 0.739567 -0.353765
v -0.337208 0.740127 -0.353999
v -0.335657 0.732223 -0.371319
v -0.354566 0.715649 -0.341884
v -0.348528 0.717130 -0.342504
v -0.356837 0.714662 -0.341472
v -0.348528 0.717130 -0.342504
v -0.350590 0.714651 -0.341467
v -0.356837 0.714662 -0.341472
v -0.350590 0.714651 -0.341467
v -0.350590 0.710512 -0.351361
v -0.353277 0.712749 -0.340671
v -0.353277 0.708610 -0.350566
v -0.353277 0.712749 -0.340671
v -0.350590 0.710512 -0.351361
v -0.344395 0.687267 -0.350338
v -0.356406 0.707414 -0.350066
v -0.353277 0.708610 -0.350566
v -0.366251 0.712081 -0.342267
v -0.366251 0.712749 -0.340671
v -0.363122 0.710885 -0.341767
v -0.368629 0.713765 -0.342971
v -0.368629 0.714432 -0.341376
v -0.366251 0.712081 -0.342267
v -0.368629 0.714432 -0.341376
v -0.368629 0.713765 -0.342971
v -0.368938 0.714651 -0.341467
v -0.361956 0.684027 -0.348983
v -0.361956 0.683192 -0.350978
v -0.370816 0.685644 -0.349659
v -0.361956 0.683192 -0.350978
v -0.352944 0.683746 -0.351209
v -0.370816 0.684809 -0.351654
v -0.352944 0.683746 -0.351209
v -0.352944 0.684580 -0.349215
v -0.344395 0.686432 -0.352333
v -0.344395 0.687267 -0.350338
v -0.352944 0.684580 -0.349215
v -0.356406 0.707414 -0.350066
v -0.361956 0.684027 -0.348983
v -0.370816 0.685644 -0.349659
v -0.363122 0.707414 -0.350066
v -0.368938 0.714651 -0.341467
v -0.361811 0.714444 -0.341381
v -0.368629 0.714432 -0.341376
v -0.360065 0.711182 -0.340016
v -0.360065 0.710514 -0.341612
v -0.363122 0.711553 -0.340171
v -0.363122 0.711553 -0.340171
v -0.363122 0.710885 -0.341767
v -0.366251 0.712749 -0.340671
v -0.360065 0.707043 -0.349910
v -0.360065 0.710514 -0.341612
v -0.359764 0.707006 -0.349895
v -0.342674 0.738341 -0.373878
v -0.341979 0.736944 -0.373294
v -0.342674 0.745684 -0.356324
v -0.342674 0.745684 -0.356324
v -0.343128 0.747163 -0.356942
v -0.342674 0.738341 -0.373878
v -0.342674 0.745684 -0.356324
v -0.359460 0.734379 -0.351595
v -0.343128 0.747163 -0.356942
v -0.337208 0.732784 -0.371554
v -0.335657 0.732223 -0.371319
v -0.337208 0.740127 -0.353999
v -0.338648 0.740900 -0.354322
v -0.359460 0.734379 -0.351595
v -0.339942 0.741867 -0.354727
v -0.337208 0.740127 -0.353999
v -0.338648 0.740900 -0.354322
v -0.337208 0.732784 -0.371554
v -0.356837 0.714662 -0.341472
v -0.350590 0.714651 -0.341467
v -0.359308 0.714251 -0.341300
v -0.350590 0.714651 -0.341467
v -0.353277 0.712749 -0.340671
v -0.366251 0.712749 -0.340671
v -0.353277 0.712749 -0.340671
v -0.353277 0.708610 -0.350566
v -0.356406 0.711553 -0.340171
v -0.356406 0.707414 -0.350066
v -0.356406 0.711553 -0.340171
v -0.353277 0.708610 -0.350566
v -0.366251 0.712749 -0.340671
v -0.366251 0.712081 -0.342267
v -0.368629 0.714432 -0.341376
v -0.361956 0.683192 -0.350978
v -0.361956 0.684027 -0.348983
v -0.352944 0.683746 -0.351209
v -0.352944 0.684580 -0.349215
v -0.352944 0.683746 -0.351209
v -0.361956 0.684027 -0.348983
v -0.352944 0.684580 -0.349215
v -0.359764 0.707006 -0.349895
v -0.356406 0.707414 -0.350066
v -0.361956 0.684027 -0.348983
v -0.363122 0.707414 -0.350066
v -0.359764 0.707006 -0.349895
v -0.361811 0.714444 -0.341381
v -0.359308 0.714251 -0.341300
v -0.368629 0.714432 -0.341376
v -0.360065 0.711182 -0.340016
v -0.359764 0.707006 -0.349895
v -0.360065 0.710514 -0.341612
v -0.363122 0.711553 -0.340171
v -0.356406 0.711553 -0.340171
v -0.360065 0.711182 -0.340016
v -0.366251 0.712749 -0.340671
v -0.353277 0.712749 -0.340671
v -0.363122 0.711553 -0.340171
v -0.360065 0.707043 -0.349910
v -0.359764 0.707006 -0.349895
v -0.363122 0.707414 -0.350066
v -0.341979 0.736944 -0.373294
v -0.341062 0.735662 -0.372757
v -0.341979 0.744287 -0.355739
v -0.341979 0.744287 -0.355739
v -0.342674 0.745684 -0.356324
v -0.341979 0.736944 -0.373294
v -0.341979 0.744287 -0.355739
v -0.359460 0.734379 -0.351595
v -0.342674 0.745684 -0.356324
v -0.338648 0.733557 -0.371877
v -0.337208 0.732784 -0.371554
v -0.338648 0.740900 -0.354322
v -0.339942 0.741867 -0.354727
v -0.359460 0.734379 -0.351595
v -0.341062 0.743005 -0.355203
v -0.338648 0.740900 -0.354322
v -0.339942 0.741867 -0.354727
v -0.338648 0.733557 -0.371877
v -0.359308 0.714251 -0.341300
v -0.350590 0.714651 -0.341467
v -0.366251 0.712749 -0.340671
v -0.353277 0.712749 -0.340671
v -0.356406 0.711553 -0.340171
v -0.363122 0.711553 -0.340171
v -0.356406 0.711553 -0.340171
v -0.356406 0.707414 -0.350066
v -0.359764 0.711145 -0.340001
v -0.366251 0.712749 -0.340671
v -0.368629 0.714432 -0.341376
v -0.359308 0.714251 -0.341300
v -0.352944 0.684580 -0.349215
v -0.361956 0.684027 -0.348983
v -0.359764 0.707006 -0.349895
v -0.359764 0.707006 -0.349895
v -0.359764 0.711145 -0.340001
v -0.356406 0.707414 -0.350066
v -0.359764 0.711145 -0.340001
v -0.359764 0.707006 -0.349895
v -0.360065 0.711182 -0.340016
v -0.359764 0.711145 -0.340001
v -0.360065 0.711182 -0.340016
v -0.356406 0.711553 -0.340171
v -0.341062 0.735662 -0.372757
v -0.339942 0.734524 -0.372281
v -0.341062 0.743005 -0.355203
v -0.341062 0.743005 -0.355203
v -0.341979 0.744287 -0.355739
v -0.341062 0.735662 -0.372757
v -0.341062 0.743005 -0.355203
v -0.359460 0.734379 -0.351595
v -0.341979 0.744287 -0.355739
v -0.339942 0.734524 -0.372281
v -0.338648 0.733557 -0.371877
v -0.339942 0.741867 -0.354727
v -0.339942 0.741867 -0.354727
v -0.341062 0.743005 -0.355203
v -0.339942 0.734524 -0.372281
v -0.360848 0.718897 -0.365913
v -0.392502 0.725271 -0.368580
v -0.359729 0.719033 -0.365970
v -0.361891 0.718499 -0.365747
v -0.392502 0.725271 -0.368580
v -0.360848 0.718897 -0.365913
v -0.359729 0.719033 -0.365970
v -0.392502 0.725271 -0.368580
v -0.325804 0.721303 -0.366920
v -0.325804 0.721303 -0.366920
v -0.358610 0.718897 -0.365913
v -0.359729 0.719033 -0.365970
v -0.362787 0.717865 -0.365481
v -0.392502 0.725271 -0.368580
v -0.361891 0.718499 -0.365747
v -0.325804 0.721303 -0.366920
v -0.392502 0.725271 -0.368580
v -0.328716 0.729190 -0.370219
v -0.325804 0.721303 -0.366920
v -0.357567 0.718499 -0.365747
v -0.358610 0.718897 -0.365913
v -0.362787 0.717865 -0.365481
v -0.394255 0.717098 -0.365161
v -0.392502 0.725271 -0.368580
v -0.328716 0.729190 -0.370219
v -0.392502 0.725271 -0.368580
v -0.388516 0.732748 -0.371707
v -0.328716 0.730024 -0.368224
v -0.325804 0.721303 -0.366920
v -0.328716 0.729190 -0.370219
v -0.325804 0.721303 -0.366920
v -0.356671 0.717865 -0.365481
v -0.357567 0.718499 -0.365747
v -0.363474 0.717038 -0.365136
v -0.394255 0.717098 -0.365161
v -0.362787 0.717865 -0.365481
v -0.394255 0.717932 -0.363166
v -0.392502 0.725271 -0.368580
v -0.394255 0.717098 -0.365161
v -0.392502 0.726106 -0.366585
v -0.388516 0.732748 -0.371707
v -0.392502 0.725271 -0.368580
v -0.328716 0.729190 -0.370219
v -0.388516 0.732748 -0.371707
v -0.333741 0.736113 -0.373115
v -0.325804 0.721303 -0.366920
v -0.328716 0.730024 -0.368224
v -0.325804 0.722137 -0.364925
v -0.328716 0.729190 -0.370219
v -0.333741 0.736948 -0.371120
v -0.328716 0.730024 -0.368224
v -0.325804 0.721303 -0.366920
v -0.355984 0.717038 -0.365136
v -0.356671 0.717865 -0.365481
v -0.363906 0.716076 -0.364733
v -0.394255 0.717098 -0.365161
v -0.363474 0.717038 -0.365136
v -0.392502 0.725271 -0.368580
v -0.394255 0.717932 -0.363166
v -0.392502 0.726106 -0.366585
v -0.394255 0.717098 -0.365161
v -0.393655 0.709618 -0.359688
v -0.394255 0.717932 -0.363166
v -0.388516 0.732748 -0.371707
v -0.392502 0.726106 -0.366585
v -0.388516 0.733582 -0.369713
v -0.333741 0.736113 -0.373115
v -0.388516 0.732748 -0.371707
v -0.382568 0.739018 -0.374330
v -0.333741 0.736948 -0.371120
v -0.328716 0.729190 -0.370219
v -0.333741 0.736113 -0.373115
v -0.328716 0.730024 -0.368224
v -0.347232 0.722073 -0.356198
v -0.325804 0.722137 -0.364925
v -0.325804 0.722137 -0.364925
v -0.325203 0.712989 -0.363442
v -0.325804 0.721303 -0.366920
v -0.333741 0.736948 -0.371120
v -0.348528 0.724960 -0.357405
v -0.328716 0.730024 -0.368224
v -0.325804 0.721303 -0.366920
v -0.355552 0.716076 -0.364733
v -0.355984 0.717038 -0.365136
v -0.364054 0.715043 -0.364301
v -0.394255 0.717098 -0.365161
v -0.363906 0.716076 -0.364733
v -0.392502 0.726106 -0.366585
v -0.394255 0.717932 -0.363166
v -0.372296 0.722073 -0.356198
v -0.393655 0.709618 -0.359688
v -0.394255 0.717098 -0.365161
v -0.393655 0.708784 -0.361683
v -0.394255 0.717932 -0.363166
v -0.393655 0.709618 -0.359688
v -0.372738 0.718975 -0.354902
v -0.388516 0.733582 -0.369713
v -0.392502 0.726106 -0.366585
v -0.370999 0.724960 -0.357405
v -0.388516 0.733582 -0.369713
v -0.382568 0.739018 -0.374330
v -0.388516 0.732748 -0.371707
v -0.333741 0.736113 -0.373115
v -0.382568 0.739018 -0.374330
v -0.340538 0.741600 -0.375410
v -0.340538 0.741600 -0.375410
v -0.333741 0.736948 -0.371120
v -0.333741 0.736113 -0.373115
v -0.328716 0.730024 -0.368224
v -0.348528 0.724960 -0.357405
v -0.347232 0.722073 -0.356198
v -0.346924 0.719913 -0.355294
v -0.325804 0.722137 -0.364925
v -0.347232 0.722073 -0.356198
v -0.325203 0.712989 -0.363442
v -0.325804 0.722137 -0.364925
v -0.325203 0.713824 -0.361447
v -0.325203 0.712989 -0.363442
v -0.355984 0.713048 -0.363467
v -0.325804 0.721303 -0.366920
v -0.333741 0.736948 -0.371120
v -0.350590 0.727439 -0.358442
v -0.348528 0.724960 -0.357405
v -0.325804 0.721303 -0.366920
v -0.355404 0.715043 -0.364301
v -0.355552 0.716076 -0.364733
v -0.363906 0.714011 -0.363869
v -0.394255 0.717098 -0.365161
v -0.364054 0.715043 -0.364301
v -0.372296 0.722073 -0.356198
v -0.394255 0.717932 -0.363166
v -0.372738 0.718975 -0.354902
v -0.392502 0.726106 -0.366585
v -0.372296 0.722073 -0.356198
v -0.370999 0.724960 -0.357405
v -0.360848 0.711190 -0.362689
v -0.393655 0.708784 -0.361683
v -0.394255 0.717098 -0.365161
v -0.393655 0.708784 -0.361683
v -0.390742 0.701731 -0.356389
v -0.393655 0.709618 -0.359688
v -0.372296 0.715878 -0.353606
v -0.372738 0.718975 -0.354902
v -0.393655 0.709618 -0.359688
v -0.388516 0.733582 -0.369713
v -0.370999 0.724960 -0.357405
v -0.368938 0.727439 -0.358442
v -0.382568 0.739018 -0.374330
v -0.388516 0.733582 -0.369713
v -0.382568 0.739853 -0.372335
v -0.340538 0.741600 -0.375410
v -0.382568 0.739018 -0.374330
v -0.375064 0.743654 -0.376270
v -0.333741 0.736948 -0.371120
v -0.340538 0.741600 -0.375410
v -0.340538 0.742435 -0.373416
v -0.325804 0.722137 -0.364925
v -0.346924 0.719913 -0.355294
v -0.346790 0.718975 -0.354902
v -0.325804 0.722137 -0.364925
v -0.346790 0.718975 -0.354902
v -0.325203 0.713824 -0.361447
v -0.325203 0.713824 -0.361447
v -0.326956 0.704816 -0.360023
v -0.325203 0.712989 -0.363442
v -0.325203 0.712989 -0.363442
v -0.356671 0.712222 -0.363121
v -0.355984 0.713048 -0.363467
v -0.325804 0.721303 -0.366920
v -0.355984 0.713048 -0.363467
v -0.355552 0.714011 -0.363869
v -0.340538 0.742435 -0.373416
v -0.350590 0.727439 -0.358442
v -0.333741 0.736948 -0.371120
v -0.325804 0.721303 -0.366920
v -0.355552 0.714011 -0.363869
v -0.355404 0.715043 -0.364301
v -0.363474 0.713048 -0.363467
v -0.394255 0.717098 -0.365161
v -0.363906 0.714011 -0.363869
v -0.372738 0.723114 -0.345007
v -0.372296 0.722073 -0.356198
v -0.372738 0.718975 -0.354902
v -0.372296 0.726212 -0.346303
v -0.370999 0.724960 -0.357405
v -0.372296 0.722073 -0.356198
v -0.393655 0.708784 -0.361683
v -0.360848 0.711190 -0.362689
v -0.359729 0.711054 -0.362632
v -0.360848 0.711190 -0.362689
v -0.394255 0.717098 -0.365161
v -0.361891 0.711588 -0.362856
v -0.390742 0.701731 -0.356389
v -0.393655 0.708784 -0.361683
v -0.390742 0.700897 -0.358384
v -0.372296 0.715878 -0.353606
v -0.393655 0.709618 -0.359688
v -0.390742 0.701731 -0.356389
v -0.372738 0.718975 -0.354902
v -0.372296 0.715878 -0.353606
v -0.372604 0.718036 -0.354509
v -0.370999 0.729099 -0.347511
v -0.368938 0.727439 -0.358442
v -0.370999 0.724960 -0.357405
v -0.382568 0.739853 -0.372335
v -0.388516 0.733582 -0.369713
v -0.368938 0.727439 -0.358442
v -0.375064 0.744489 -0.374275
v -0.382568 0.739018 -0.374330
v -0.382568 0.739853 -0.372335
v -0.382568 0.739018 -0.374330
v -0.375064 0.744489 -0.374275
v -0.375064 0.743654 -0.376270
v -0.340538 0.741600 -0.375410
v -0.375064 0.743654 -0.376270
v -0.343276 0.742830 -0.375925
v -0.343276 0.742830 -0.375925
v -0.340538 0.742435 -0.373416
v -0.340538 0.741600 -0.375410
v -0.346924 0.723385 -0.346995
v -0.346790 0.718975 -0.354902
v -0.346924 0.719913 -0.355294
v -0.346924 0.719913 -0.355294
v -0.330710 0.739263 -0.353638
v -0.346924 0.723385 -0.346995
v -0.346790 0.718975 -0.354902
v -0.347232 0.715878 -0.353606
v -0.325203 0.713824 -0.361447
v -0.326956 0.704816 -0.360023
v -0.325203 0.713824 -0.361447
v -0.326956 0.705650 -0.358028
v -0.326956 0.704816 -0.360023
v -0.393655 0.708784 -0.361683
v -0.325203 0.712989 -0.363442
v -0.325203 0.712989 -0.363442
v -0.357567 0.711588 -0.362856
v -0.356671 0.712222 -0.363121
v -0.340538 0.742435 -0.373416
v -0.350899 0.727657 -0.358533
v -0.350590 0.727439 -0.358442
v -0.362787 0.712222 -0.363121
v -0.394255 0.717098 -0.365161
v -0.363474 0.713048 -0.363467
v -0.372296 0.722073 -0.356198
v -0.372738 0.723114 -0.345007
v -0.372296 0.726212 -0.346303
v -0.372738 0.718975 -0.354902
v -0.372604 0.721507 -0.346210
v -0.372738 0.723114 -0.345007
v -0.370999 0.724960 -0.357405
v -0.372296 0.726212 -0.346303
v -0.370999 0.729099 -0.347511
v -0.325203 0.712989 -0.363442
v -0.393655 0.708784 -0.361683
v -0.359729 0.711054 -0.362632
v -0.361891 0.711588 -0.362856
v -0.394255 0.717098 -0.365161
v -0.362787 0.712222 -0.363121
v -0.326956 0.704816 -0.360023
v -0.390742 0.700897 -0.358384
v -0.393655 0.708784 -0.361683
v -0.390742 0.700897 -0.358384
v -0.385717 0.694808 -0.353493
v -0.390742 0.701731 -0.356389
v -0.372296 0.715878 -0.353606
v -0.390742 0.701731 -0.356389
v -0.370999 0.712991 -0.352398
v -0.372604 0.721507 -0.346210
v -0.372738 0.718975 -0.354902
v -0.372604 0.718036 -0.354509
v -0.368938 0.727439 -0.358442
v -0.370999 0.729099 -0.347511
v -0.368938 0.731578 -0.348548
v -0.382568 0.739853 -0.372335
v -0.368938 0.727439 -0.358442
v -0.366251 0.729341 -0.359238
v -0.375064 0.744489 -0.374275
v -0.382568 0.739853 -0.372335
v -0.366251 0.729341 -0.359238
v -0.366514 0.747175 -0.375399
v -0.375064 0.743654 -0.376270
v -0.375064 0.744489 -0.374275
v -0.343276 0.742830 -0.375925
v -0.375064 0.743654 -0.376270
v -0.348642 0.745278 -0.376949
v -0.343276 0.742830 -0.375925
v -0.343276 0.743665 -0.373930
v -0.340538 0.742435 -0.373416
v -0.348528 0.729099 -0.347511
v -0.347232 0.725544 -0.347899
v -0.348528 0.728431 -0.349107
v -0.347232 0.725544 -0.347899
v -0.330710 0.739263 -0.353638
v -0.348528 0.728431 -0.349107
v -0.347232 0.726212 -0.346303
v -0.346924 0.723385 -0.346995
v -0.347232 0.725544 -0.347899
v -0.330710 0.739263 -0.353638
v -0.347232 0.725544 -0.347899
v -0.346924 0.723385 -0.346995
v -0.346924 0.724052 -0.345400
v -0.346790 0.718975 -0.354902
v -0.346924 0.723385 -0.346995
v -0.330710 0.739263 -0.353638
v -0.346924 0.719913 -0.355294
v -0.330710 0.731920 -0.371192
v -0.330710 0.731920 -0.371192
v -0.346924 0.719913 -0.355294
v -0.346924 0.716041 -0.364550
v -0.346790 0.723114 -0.345007
v -0.347232 0.715878 -0.353606
v -0.346790 0.718975 -0.354902
v -0.325203 0.713824 -0.361447
v -0.347232 0.715878 -0.353606
v -0.326956 0.705650 -0.358028
v -0.326956 0.705650 -0.358028
v -0.330942 0.697339 -0.356895
v -0.326956 0.704816 -0.360023
v -0.325203 0.712989 -0.363442
v -0.358610 0.711190 -0.362689
v -0.357567 0.711588 -0.362856
v -0.350899 0.727657 -0.358533
v -0.340538 0.742435 -0.373416
v -0.353277 0.729341 -0.359238
v -0.350590 0.731578 -0.348548
v -0.348528 0.728431 -0.349107
v -0.350590 0.730910 -0.350143
v -0.348528 0.728431 -0.349107
v -0.330710 0.739263 -0.353638
v -0.350590 0.730910 -0.350143
v -0.372738 0.723114 -0.345007
v -0.369161 0.725003 -0.345797
v -0.372296 0.726212 -0.346303
v -0.372296 0.719349 -0.345307
v -0.372738 0.723114 -0.345007
v -0.372604 0.721507 -0.346210
v -0.372296 0.726212 -0.346303
v -0.368311 0.727182 -0.346709
v -0.370999 0.729099 -0.347511
v -0.325203 0.712989 -0.363442
v -0.359729 0.711054 -0.362632
v -0.358610 0.711190 -0.362689
v -0.330942 0.697339 -0.356895
v -0.390742 0.700897 -0.358384
v -0.326956 0.704816 -0.360023
v -0.385717 0.694808 -0.353493
v -0.390742 0.700897 -0.358384
v -0.385717 0.693974 -0.355488
v -0.370999 0.712991 -0.352398
v -0.390742 0.701731 -0.356389
v -0.385717 0.694808 -0.353493
v -0.372604 0.714725 -0.362424
v -0.383377 0.693708 -0.353620
v -0.372604 0.718036 -0.354509
v -0.372604 0.718036 -0.354509
v -0.383377 0.693708 -0.353620
v -0.372604 0.721507 -0.346210
v -0.370999 0.729099 -0.347511
v -0.364962 0.730580 -0.348130
v -0.368938 0.731578 -0.348548
v -0.366251 0.733480 -0.349343
v -0.368938 0.727439 -0.358442
v -0.368938 0.731578 -0.348548
v -0.368938 0.727439 -0.358442
v -0.366251 0.733480 -0.349343
v -0.366251 0.729341 -0.359238
v -0.375064 0.744489 -0.374275
v -0.366251 0.729341 -0.359238
v -0.363122 0.730537 -0.359738
v -0.375064 0.743654 -0.376270
v -0.366514 0.747175 -0.375399
v -0.366514 0.746341 -0.377393
v -0.366514 0.747175 -0.375399
v -0.375064 0.744489 -0.374275
v -0.363122 0.730537 -0.359738
v -0.348642 0.745278 -0.376949
v -0.375064 0.743654 -0.376270
v -0.366514 0.746341 -0.377393
v -0.343276 0.742830 -0.375925
v -0.348642 0.745278 -0.376949
v -0.343281 0.742880 -0.375777
v -0.343276 0.743665 -0.373930
v -0.343276 0.742830 -0.375925
v -0.343281 0.742880 -0.375777
v -0.343276 0.743665 -0.373930
v -0.353277 0.729341 -0.359238
v -0.340538 0.742435 -0.373416
v -0.347232 0.725544 -0.347899
v -0.348528 0.729099 -0.347511
v -0.347232 0.726212 -0.346303
v -0.348528 0.728431 -0.349107
v -0.350590 0.731578 -0.348548
v -0.348528 0.729099 -0.347511
v -0.346924 0.723385 -0.346995
v -0.347232 0.726212 -0.346303
v -0.346924 0.724052 -0.345400
v -0.346790 0.718975 -0.354902
v -0.346924 0.724052 -0.345400
v -0.346790 0.723114 -0.345007
v -0.330710 0.731920 -0.371192
v -0.332369 0.739129 -0.353582
v -0.330710 0.739263 -0.353638
v -0.347232 0.715878 -0.353606
v -0.346790 0.723114 -0.345007
v -0.347232 0.720016 -0.343711
v -0.347232 0.715878 -0.353606
v -0.348528 0.712991 -0.352398
v -0.326956 0.705650 -0.358028
v -0.330942 0.697339 -0.356895
v -0.326956 0.705650 -0.358028
v -0.330942 0.698173 -0.354901
v -0.350899 0.731129 -0.350235
v -0.350590 0.731578 -0.348548
v -0.350590 0.730910 -0.350143
v -0.350590 0.730910 -0.350143
v -0.330710 0.739263 -0.353638
v -0.350899 0.731129 -0.350235
v -0.372738 0.723114 -0.345007
v -0.369371 0.722694 -0.344832
v -0.369161 0.725003 -0.345797
v -0.372296 0.726212 -0.346303
v -0.369161 0.725003 -0.345797
v -0.368311 0.727182 -0.346709
v -0.372296 0.720016 -0.343711
v -0.372738 0.723114 -0.345007
v -0.372296 0.719349 -0.345307
v -0.383376 0.700490 -0.337405
v -0.372296 0.719349 -0.345307
v -0.372604 0.721507 -0.346210
v -0.370999 0.729099 -0.347511
v -0.368311 0.727182 -0.346709
v -0.366879 0.729084 -0.347505
v -0.330942 0.697339 -0.356895
v -0.385717 0.693974 -0.355488
v -0.390742 0.700897 -0.358384
v -0.378920 0.688487 -0.353192
v -0.385717 0.694808 -0.353493
v -0.385717 0.693974 -0.355488
v -0.370999 0.712991 -0.352398
v -0.385717 0.694808 -0.353493
v -0.368938 0.710512 -0.351361
v -0.383376 0.700490 -0.337405
v -0.372604 0.721507 -0.346210
v -0.383377 0.693708 -0.353620
v -0.370999 0.729099 -0.347511
v -0.366879 0.729084 -0.347505
v -0.364962 0.730580 -0.348130
v -0.368938 0.731578 -0.348548
v -0.364962 0.730580 -0.348130
v -0.362690 0.731567 -0.348543
v -0.368938 0.731578 -0.348548
v -0.360219 0.731977 -0.348715
v -0.366251 0.733480 -0.349343
v -0.363122 0.734675 -0.349844
v -0.366251 0.729341 -0.359238
v -0.366251 0.733480 -0.349343
v -0.366251 0.729341 -0.359238
v -0.363122 0.734675 -0.349844
v -0.363122 0.730537 -0.359738
v -0.357502 0.747729 -0.375630
v -0.366514 0.746341 -0.377393
v -0.366514 0.747175 -0.375399
v -0.366514 0.747175 -0.375399
v -0.363122 0.730537 -0.359738
v -0.359764 0.730944 -0.359909
v -0.348642 0.745278 -0.376949
v -0.366514 0.746341 -0.377393
v -0.357502 0.746895 -0.377625
v -0.348642 0.745278 -0.376949
v -0.343276 0.743665 -0.373930
v -0.343281 0.742880 -0.375777
v -0.359460 0.727036 -0.369149
v -0.343276 0.743665 -0.373930
v -0.343281 0.742880 -0.375777
v -0.343276 0.743665 -0.373930
v -0.343332 0.741344 -0.375135
v -0.343281 0.742880 -0.375777
v -0.353277 0.729341 -0.359238
v -0.343276 0.743665 -0.373930
v -0.348642 0.746112 -0.374954
v -0.351671 0.727910 -0.347013
v -0.347232 0.726212 -0.346303
v -0.348528 0.729099 -0.347511
v -0.353292 0.729678 -0.347753
v -0.348528 0.729099 -0.347511
v -0.350590 0.731578 -0.348548
v -0.350602 0.725814 -0.346137
v -0.346924 0.724052 -0.345400
v -0.347232 0.726212 -0.346303
v -0.350156 0.723534 -0.345183
v -0.346790 0.723114 -0.345007
v -0.346924 0.724052 -0.345400
v -0.332369 0.739129 -0.353582
v -0.330710 0.731920 -0.371192
v -0.332369 0.731786 -0.371136
v -0.359460 0.734379 -0.351595
v -0.330710 0.739263 -0.353638
v -0.332369 0.739129 -0.353582
v -0.350366 0.721226 -0.344217
v -0.347232 0.720016 -0.343711
v -0.346790 0.723114 -0.345007
v -0.347232 0.720016 -0.343711
v -0.348528 0.712991 -0.352398
v -0.347232 0.715878 -0.353606
v -0.348528 0.712991 -0.352398
v -0.330942 0.698173 -0.354901
v -0.326956 0.705650 -0.358028
v -0.330942 0.698173 -0.354901
v -0.336890 0.691069 -0.354273
v -0.330942 0.697339 -0.356895
v -0.353277 0.732812 -0.350939
v -0.350899 0.731796 -0.348639
v -0.350899 0.731129 -0.350235
v -0.350899 0.731129 -0.350235
v -0.330710 0.739263 -0.353638
v -0.353277 0.732812 -0.350939
v -0.350590 0.731578 -0.348548
v -0.350899 0.731129 -0.350235
v -0.350899 0.731796 -0.348639
v -0.372604 0.722175 -0.344614
v -0.369371 0.722694 -0.344832
v -0.372738 0.723114 -0.345007
v -0.372738 0.723114 -0.345007
v -0.372296 0.720016 -0.343711
v -0.372604 0.722175 -0.344614
v -0.372296 0.719349 -0.345307
v -0.370999 0.717130 -0.342504
v -0.372296 0.720016 -0.343711
v -0.383376 0.700490 -0.337405
v -0.370999 0.716462 -0.344100
v -0.372296 0.719349 -0.345307
v -0.336890 0.691069 -0.354273
v -0.385717 0.693974 -0.355488
v -0.330942 0.697339 -0.356895
v -0.385717 0.694808 -0.353493
v -0.378920 0.688487 -0.353192
v -0.378920 0.689321 -0.351198
v -0.336890 0.691069 -0.354273
v -0.378920 0.688487 -0.353192
v -0.385717 0.693974 -0.355488
v -0.368938 0.710512 -0.351361
v -0.385717 0.694808 -0.353493
v -0.378920 0.689321 -0.351198
v -0.370999 0.717130 -0.342504
v -0.372296 0.719349 -0.345307
v -0.370999 0.716462 -0.344100
v -0.383376 0.700490 -0.337405
v -0.383377 0.693708 -0.353620
v -0.382188 0.699317 -0.336940
v -0.368938 0.731578 -0.348548
v -0.362690 0.731567 -0.348543
v -0.360219 0.731977 -0.348715
v -0.366251 0.733480 -0.349343
v -0.360219 0.731977 -0.348715
v -0.353277 0.733480 -0.349343
v -0.366251 0.733480 -0.349343
v -0.356406 0.734675 -0.349844
v -0.363122 0.734675 -0.349844
v -0.359764 0.735083 -0.350014
v -0.363122 0.730537 -0.359738
v -0.363122 0.734675 -0.349844
v -0.366514 0.746341 -0.377393
v -0.357502 0.747729 -0.375630
v -0.357502 0.746895 -0.377625
v -0.357502 0.747729 -0.375630
v -0.366514 0.747175 -0.375399
v -0.359764 0.730944 -0.359909
v -0.363122 0.730537 -0.359738
v -0.359764 0.735083 -0.350014
v -0.359764 0.730944 -0.359909
v -0.357502 0.746895 -0.377625
v -0.348642 0.746112 -0.374954
v -0.348642 0.745278 -0.376949
v -0.343276 0.743665 -0.373930
v -0.348642 0.745278 -0.376949
v -0.348642 0.746112 -0.374954
v -0.359460 0.730908 -0.359893
v -0.343276 0.743665 -0.373930
v -0.359460 0.727036 -0.369149
v -0.343281 0.750223 -0.358222
v -0.343332 0.741344 -0.375135
v -0.343276 0.743665 -0.373930
v -0.348642 0.746112 -0.374954
v -0.356406 0.730537 -0.359738
v -0.353277 0.729341 -0.359238
v -0.350602 0.725814 -0.346137
v -0.347232 0.726212 -0.346303
v -0.351671 0.727910 -0.347013
v -0.351671 0.727910 -0.347013
v -0.348528 0.729099 -0.347511
v -0.353292 0.729678 -0.347753
v -0.353292 0.729678 -0.347753
v -0.350590 0.731578 -0.348548
v -0.355354 0.731000 -0.348306
v -0.350156 0.723534 -0.345183
v -0.346924 0.724052 -0.345400
v -0.350602 0.725814 -0.346137
v -0.350366 0.721226 -0.344217
v -0.346790 0.723114 -0.345007
v -0.350156 0.723534 -0.345183
v -0.332369 0.731786 -0.371136
v -0.334031 0.739231 -0.353624
v -0.332369 0.739129 -0.353582
v -0.356406 0.734008 -0.351439
v -0.330710 0.739263 -0.353638
v -0.359460 0.734379 -0.351595
v -0.334031 0.739231 -0.353624
v -0.359460 0.734379 -0.351595
v -0.332369 0.739129 -0.353582
v -0.351216 0.719047 -0.343306
v -0.347232 0.720016 -0.343711
v -0.350366 0.721226 -0.344217
v -0.348528 0.712991 -0.352398
v -0.347232 0.720016 -0.343711
v -0.348528 0.717130 -0.342504
v -0.348528 0.712991 -0.352398
v -0.350590 0.710512 -0.351361
v -0.330942 0.698173 -0.354901
v -0.336890 0.691069 -0.354273
v -0.330942 0.698173 -0.354901
v -0.336890 0.691903 -0.352278
v -0.356406 0.734008 -0.351439
v -0.353277 0.733480 -0.349343
v -0.353277 0.732812 -0.350939
v -0.353277 0.732812 -0.350939
v -0.330710 0.739263 -0.353638
v -0.356406 0.734008 -0.351439
v -0.350899 0.731796 -0.348639
v -0.353277 0.732812 -0.350939
v -0.353277 0.733480 -0.349343
v -0.357717 0.731784 -0.348634
v -0.350590 0.731578 -0.348548
v -0.350899 0.731796 -0.348639
v -0.372604 0.722175 -0.344614
v -0.368926 0.720415 -0.343878
v -0.369371 0.722694 -0.344832
v -0.372296 0.720016 -0.343711
v -0.368926 0.720415 -0.343878
v -0.372604 0.722175 -0.344614
v -0.370999 0.717130 -0.342504
v -0.367856 0.718319 -0.343001
v -0.372296 0.720016 -0.343711
v -0.383376 0.700490 -0.337405
v -0.368938 0.713983 -0.343063
v -0.370999 0.716462 -0.344100
v -0.370816 0.684809 -0.351654
v -0.378920 0.689321 -0.351198
v -0.378920 0.688487 -0.353192
v -0.344395 0.686432 -0.352333
v -0.378920 0.688487 -0.353192
v -0.336890 0.691069 -0.354273
v -0.366251 0.708610 -0.350566
v -0.368938 0.710512 -0.351361
v -0.378920 0.689321 -0.351198
v -0.370999 0.716462 -0.344100
v -0.368938 0.714651 -0.341467
v -0.370999 0.717130 -0.342504
v -0.382189 0.692535 -0.353155
v -0.382188 0.699317 -0.336940
v -0.383377 0.693708 -0.353620
v -0.360065 0.710514 -0.341612
v -0.383376 0.700490 -0.337405
v -0.382188 0.699317 -0.336940
v -0.360219 0.731977 -0.348715
v -0.350899 0.731796 -0.348639
v -0.353277 0.733480 -0.349343
v -0.366251 0.733480 -0.349343
v -0.353277 0.733480 -0.349343
v -0.356406 0.734675 -0.349844
v -0.363122 0.734675 -0.349844
v -0.356406 0.734675 -0.349844
v -0.359460 0.735046 -0.349999
v -0.363122 0.734675 -0.349844
v -0.359460 0.735046 -0.349999
v -0.359764 0.735083 -0.350014
v -0.348642 0.746112 -0.374954
v -0.357502 0.746895 -0.377625
v -0.357502 0.747729 -0.375630
v -0.359460 0.730908 -0.359893
v -0.357502 0.747729 -0.375630
v -0.359764 0.730944 -0.359909
v -0.359460 0.735046 -0.349999
v -0.359764 0.730944 -0.359909
v -0.359764 0.735083 -0.350014
v -0.359460 0.730908 -0.359893
v -0.343281 0.750223 -0.358222
v -0.343276 0.743665 -0.373930
v -0.343332 0.741344 -0.375135
v -0.343281 0.750223 -0.358222
v -0.343332 0.748688 -0.357580
v -0.357502 0.747729 -0.375630
v -0.356406 0.730537 -0.359738
v -0.348642 0.746112 -0.374954
v -0.355354 0.731000 -0.348306
v -0.350590 0.731578 -0.348548
v -0.357717 0.731784 -0.348634
v -0.334031 0.739231 -0.353624
v -0.332369 0.731786 -0.371136
v -0.334031 0.731888 -0.371179
v -0.359460 0.734379 -0.351595
v -0.356406 0.734675 -0.349844
v -0.356406 0.734008 -0.351439
v -0.335657 0.739567 -0.353765
v -0.359460 0.734379 -0.351595
v -0.334031 0.739231 -0.353624
v -0.352648 0.717144 -0.342510
v -0.347232 0.720016 -0.343711
v -0.351216 0.719047 -0.343306
v -0.352648 0.717144 -0.342510
v -0.348528 0.717130 -0.342504
v -0.347232 0.720016 -0.343711
v -0.348528 0.717130 -0.342504
v -0.350590 0.710512 -0.351361
v -0.348528 0.712991 -0.352398
v -0.350590 0.710512 -0.351361
v -0.336890 0.691903 -0.352278
v -0.330942 0.698173 -0.354901
v -0.344395 0.687267 -0.350338
v -0.336890 0.691069 -0.354273
v -0.336890 0.691903 -0.352278
v -0.353277 0.733480 -0.349343
v -0.356406 0.734008 -0.351439
v -0.356406 0.734675 -0.349844
v -0.357717 0.731784 -0.348634
v -0.350899 0.731796 -0.348639
v -0.360219 0.731977 -0.348715
v -0.372296 0.720016 -0.343711
v -0.367856 0.718319 -0.343001
v -0.368926 0.720415 -0.343878
v -0.370999 0.717130 -0.342504
v -0.366235 0.716550 -0.342262
v -0.367856 0.718319 -0.343001
v -0.383376 0.700490 -0.337405
v -0.366251 0.712081 -0.342267
v -0.368938 0.713983 -0.343063
v -0.368938 0.714651 -0.341467
v -0.370999 0.716462 -0.344100
v -0.368938 0.713983 -0.343063
v -0.378920 0.689321 -0.351198
v -0.370816 0.684809 -0.351654
v -0.370816 0.685644 -0.349659
v -0.344395 0.686432 -0.352333
v -0.370816 0.684809 -0.351654
v -0.378920 0.688487 -0.353192
v -0.336890 0.691069 -0.354273
v -0.344395 0.687267 -0.350338
v -0.344395 0.686432 -0.352333
v -0.368938 0.710512 -0.351361
v -0.366251 0.708610 -0.350566
v -0.368629 0.710293 -0.351270
v -0.366251 0.708610 -0.350566
v -0.378920 0.689321 -0.351198
v -0.370816 0.685644 -0.349659
v -0.368938 0.714651 -0.341467
v -0.364173 0.715229 -0.341709
v -0.370999 0.717130 -0.342504
v -0.382189 0.692535 -0.353155
v -0.360066 0.703732 -0.357826
v -0.382188 0.699317 -0.336940
v -0.383376 0.700490 -0.337405
v -0.360065 0.710514 -0.341612
v -0.363122 0.710885 -0.341767
v -0.360065 0.710514 -0.341612
v -0.382188 0.699317 -0.336940
v -0.360066 0.703732 -0.357826
v -0.356406 0.734675 -0.349844
v -0.359460 0.734379 -0.351595
v -0.359460 0.735046 -0.349999
v -0.357502 0.747729 -0.375630
v -0.359460 0.730908 -0.359893
v -0.356406 0.730537 -0.359738
v -0.359764 0.730944 -0.359909
v -0.359460 0.735046 -0.349999
v -0.359460 0.730908 -0.359893
v -0.343281 0.750223 -0.358222
v -0.359460 0.730908 -0.359893
v -0.359460 0.734379 -0.351595
v -0.343332 0.748688 -0.357580
v -0.343128 0.739819 -0.374497
v -0.343332 0.741344 -0.375135
v -0.359460 0.734379 -0.351595
v -0.343332 0.748688 -0.357580
v -0.343281 0.750223 -0.358222
v -0.334031 0.731888 -0.371179
v -0.335657 0.739567 -0.353765
v -0.334031 0.739231 -0.353624
v -0.337208 0.740127 -0.353999
v -0.359460 0.734379 -0.351595
v -0.335657 0.739567 -0.353765
v -0.354566 0.715649 -0.341884
v -0.348528 0.717130 -0.342504
v -0.352648 0.717144 -0.342510
v -0.350590 0.710512 -0.351361
v -0.348528 0.717130 -0.342504
v -0.350590 0.714651 -0.341467
v -0.350590 0.710512 -0.351361
v -0.353277 0.708610 -0.350566
v -0.336890 0.691903 -0.352278
v -0.353277 0.708610 -0.350566
v -0.344395 0.687267 -0.350338
v -0.336890 0.691903 -0.352278
v -0.370999 0.717130 -0.342504
v -0.364173 0.715229 -0.341709
v -0.366235 0.716550 -0.342262
v -0.383376 0.700490 -0.337405
v -0.363122 0.710885 -0.341767
v -0.366251 0.712081 -0.342267
v -0.368938 0.713983 -0.343063
v -0.366251 0.712081 -0.342267
v -0.368629 0.713765 -0.342971
v -0.368629 0.713765 -0.342971
v -0.368938 0.714651 -0.341467
v -0.368938 0.713983 -0.343063
v -0.361956 0.683192 -0.350978
v -0.370816 0.685644 -0.349659
v -0.370816 0.684809 -0.351654
v -0.352944 0.683746 -0.351209
v -0.370816 0.684809 -0.351654
v -0.344395 0.686432 -0.352333
v -0.352944 0.684580 -0.349215
v -0.344395 0.686432 -0.352333
v -0.344395 0.687267 -0.350338
v -0.366251 0.708610 -0.350566
v -0.370816 0.685644 -0.349659
v -0.363122 0.707414 -0.350066
v -0.368938 0.714651 -0.341467
v -0.361811 0.714444 -0.341381
v -0.364173 0.715229 -0.341709
v -0.360065 0.710514 -0.341612
v -0.363122 0.711553 -0.340171
v -0.363122 0.710885 -0.341767
v -0.360065 0.707043 -0.349910
v -0.360065 0.710514 -0.341612
v -0.360066 0.703732 -0.357826
v -0.359460 0.730908 -0.359893
v -0.359460 0.735046 -0.349999
v -0.359460 0.734379 -0.351595
v -0.343128 0.747163 -0.356942
v -0.342674 0.738341 -0.373878
v -0.343128 0.739819 -0.374497
v -0.343128 0.739819 -0.374497
v -0.343332 0.748688 -0.357580
v -0.343128 0.747163 -0.356942
v -0.343332 0.748688 -0.357580
v -0.359460 0.734379 -0.351595
v -0.343128 0.747163 -0.356942
v -0.335657 0.739567 -0.353765
v -0.334031 0.731888 -0.371179
v -0.335657 0.732223 -0.371319
v -0.338648 0.740900 -0.354322
v -0.359460 0.734379 -0.351595
v -0.337208 0.740127 -0.353999
v -0.335657 0.732223 -0.371319
v -0.337208 0.740127 -0.353999
v -0.335657 0.739567 -0.353765
v -0.356837 0.714662 -0.341472
v -0.348528 0.717130 -0.342504
v -0.354566 0.715649 -0.341884
v -0.356837 0.714662 -0.341472
v -0.350590 0.714651 -0.341467
v -0.348528 0.717130 -0.342504
v -0.353277 0.712749 -0.340671
v -0.350590 0.710512 -0.351361
v -0.350590 0.714651 -0.341467
v -0.350590 0.710512 -0.351361
v -0.353277 0.712749 -0.340671
v -0.353277 0.708610 -0.350566
v -0.353277 0.708610 -0.350566
v -0.356406 0.707414 -0.350066
v -0.344395 0.687267 -0.350338
v -0.363122 0.710885 -0.341767
v -0.366251 0.712749 -0.340671
v -0.366251 0.712081 -0.342267
v -0.366251 0.712081 -0.342267
v -0.368629 0.714432 -0.341376
v -0.368629 0.713765 -0.342971
v -0.368938 0.714651 -0.341467
v -0.368629 0.713765 -0.342971
v -0.368629 0.714432 -0.341376
v -0.370816 0.685644 -0.349659
v -0.361956 0.683192 -0.350978
v -0.361956 0.684027 -0.348983
v -0.370816 0.684809 -0.351654
v -0.352944 0.683746 -0.351209
v -0.361956 0.683192 -0.350978
v -0.344395 0.686432 -0.352333
v -0.352944 0.684580 -0.349215
v -0.352944 0.683746 -0.351209
v -0.356406 0.707414 -0.350066
v -0.352944 0.684580 -0.349215
v -0.344395 0.687267 -0.350338
v -0.363122 0.707414 -0.350066
v -0.370816 0.685644 -0.349659
v -0.361956 0.684027 -0.348983
v -0.368629 0.714432 -0.341376
v -0.361811 0.714444 -0.341381
v -0.368938 0.714651 -0.341467
v -0.363122 0.711553 -0.340171
v -0.360065 0.710514 -0.341612
v -0.360065 0.711182 -0.340016
v -0.366251 0.712749 -0.340671
v -0.363122 0.710885 -0.341767
v -0.363122 0.711553 -0.340171
v -0.359764 0.707006 -0.349895
v -0.360065 0.710514 -0.341612
v -0.360065 0.707043 -0.349910
v -0.342674 0.745684 -0.356324
v -0.341979 0.736944 -0.373294
v -0.342674 0.738341 -0.373878
v -0.342674 0.738341 -0.373878
v -0.343128 0.747163 -0.356942
v -0.342674 0.745684 -0.356324
v -0.343128 0.747163 -0.356942
v -0.359460 0.734379 -0.351595
v -0.342674 0.745684 -0.356324
v -0.337208 0.740127 -0.353999
v -0.335657 0.732223 -0.371319
v -0.337208 0.732784 -0.371554
v -0.339942 0.741867 -0.354727
v -0.359460 0.734379 -0.351595
v -0.338648 0.740900 -0.354322
v -0.337208 0.732784 -0.371554
v -0.338648 0.740900 -0.354322
v -0.337208 0.740127 -0.353999
v -0.359308 0.714251 -0.341300
v -0.350590 0.714651 -0.341467
v -0.356837 0.714662 -0.341472
v -0.366251 0.712749 -0.340671
v -0.353277 0.712749 -0.340671
v -0.350590 0.714651 -0.341467
v -0.356406 0.711553 -0.340171
v -0.353277 0.708610 -0.350566
v -0.353277 0.712749 -0.340671
v -0.353277 0.708610 -0.350566
v -0.356406 0.711553 -0.340171
v -0.356406 0.707414 -0.350066
v -0.368629 0.714432 -0.341376
v -0.366251 0.712081 -0.342267
v -0.366251 0.712749 -0.340671
v -0.352944 0.683746 -0.351209
v -0.361956 0.684027 -0.348983
v -0.361956 0.683192 -0.350978
v -0.361956 0.684027 -0.348983
v -0.352944 0.683746 -0.351209
v -0.352944 0.684580 -0.349215
v -0.356406 0.707414 -0.350066
v -0.359764 0.707006 -0.349895
v -0.352944 0.684580 -0.349215
v -0.359764 0.707006 -0.349895
v -0.363122 0.707414 -0.350066
v -0.361956 0.684027 -0.348983
v -0.368629 0.714432 -0.341376
v -0.359308 0.714251 -0.341300
v -0.361811 0.714444 -0.341381
v -0.360065 0.710514 -0.341612
v -0.359764 0.707006 -0.349895
v -0.360065 0.711182 -0.340016
v -0.360065 0.711182 -0.340016
v -0.356406 0.711553 -0.340171
v -0.363122 0.711553 -0.340171
v -0.363122 0.711553 -0.340171
v -0.353277 0.712749 -0.340671
v -0.366251 0.712749 -0.340671
v -0.363122 0.707414 -0.350066
v -0.359764 0.707006 -0.349895
v -0.360065 0.707043 -0.349910
v -0.341979 0.744287 -0.355739
v -0.341062 0.735662 -0.372757
v -0.341979 0.736944 -0.373294
v -0.341979 0.736944 -0.373294
v -0.342674 0.745684 -0.356324
v -0.341979 0.744287 -0.355739
v -0.342674 0.745684 -0.356324
v -0.359460 0.734379 -0.351595
v -0.341979 0.744287 -0.355739
v -0.338648 0.740900 -0.354322
v -0.337208 0.732784 -0.371554
v -0.338648 0.733557 -0.371877
v -0.341062 0.743005 -0.355203
v -0.359460 0.734379 -0.351595
v -0.339942 0.741867 -0.354727
v -0.338648 0.733557 -0.371877
v -0.339942 0.741867 -0.354727
v -0.338648 0.740900 -0.354322
v -0.366251 0.712749 -0.340671
v -0.350590 0.714651 -0.341467
v -0.359308 0.714251 -0.341300
v -0.363122 0.711553 -0.340171
v -0.356406 0.711553 -0.340171
v -0.353277 0.712749 -0.340671
v -0.359764 0.711145 -0.340001
v -0.356406 0.707414 -0.350066
v -0.356406 0.711553 -0.340171
v -0.359308 0.714251 -0.341300
v -0.368629 0.714432 -0.341376
v -0.366251 0.712749 -0.340671
v -0.359764 0.707006 -0.349895
v -0.361956 0.684027 -0.348983
v -0.352944 0.684580 -0.349215
v -0.356406 0.707414 -0.350066
v -0.359764 0.711145 -0.340001
v -0.359764 0.707006 -0.349895
v -0.360065 0.711182 -0.340016
v -0.359764 0.707006 -0.349895
v -0.359764 0.711145 -0.340001
v -0.356406 0.711553 -0.340171
v -0.360065 0.711182 -0.340016
v -0.359764 0.711145 -0.340001
v -0.341062 0.743005 -0.355203
v -0.339942 0.734524 -0.372281
v -0.341062 0.735662 -0.372757
v -0.341062 0.735662 -0.372757
v -0.341979 0.744287 -0.355739
v -0.341062 0.743005 -0.355203
v -0.341979 0.744287 -0.355739
v -0.359460 0.734379 -0.351595
v -0.341062 0.743005 -0.355203
v -0.339942 0.741867 -0.354727
v -0.338648 0.733557 -0.371877
v -0.339942 0.734524 -0.372281
v -0.339942 0.734524 -0.372281
v -0.341062 0.743005 -0.355203
v -0.339942 0.741867 -0.354727
vt 0 0
vn 0 0.3859060536417149 0.9225380847220769
vn -0.8964098108229058 -0.4088929081562014 0.17104397305958036
vn -0.9805806478932239 -0.18092493443402008 0.075681973265441
vn 0.9979267775574904 -0.059373987043899776 0.024836994508875238
vn 0.9472659257760204 -0.29562599672853446 0.12366299334060821
vn 0.8320502714935503 -0.511732133546138 0.21406206857784751
vn -0.7511497400315377 -0.6089967668304256 0.25474890783012516
vn 0.9805806478932239 0.18092493443402008 -0.075681973265441
vn -0.3426550122581511 -0.417773019547953 -0.8414589988300988
vn -0.33267702947254413 -0.4516620348821572 -0.8278450339933394
vn -0.31530711418284907 -0.49769218284661954 -0.8080123234697916
vn -0.9979267775574904 0.059373987043899776 -0.024836994508875238
vn -0.2962258579327553 -0.5280577484310232 -0.7958676117382598
vn -0.26648495718855114 -0.568378881636041 -0.7784158364925389
vn 0.33762210331641845 -0.4378511627738589 -0.8332452667791022
vn 0.34765498431066455 -0.3894619784967742 -0.8529099478780453
vn 0.327980086832197 -0.4715181179120104 -0.818596192956124
vn 0.3474530948461739 -0.35464609597227825 -0.8680452139683954
vn 0.34360701288971085 -0.30550799167870546 -0.8880310173149664
vn 0.3047570006602233 -0.5158600238978391 -0.8006320042895521
vn 0.2859329967194161 -0.5460620094339697 -0.787437999616471
vn 0.6601320789560866 -0.6929641098167566 0.28987304262208485
vn -0.553043695337666 -0.7686145546181546 0.32151879801404254
vn -0.3440580853970396 -0.40371108313154336 -0.8477271938717545
vn -0.23959305222359714 -0.5931711317042662 -0.7685981901090194
vn 0.8964098108229058 0.4088929081562014 -0.17104397305958036
vn 0.3335749882112161 -0.27193899142093264 -0.9026499388937291
vn 0.251113956539697 -0.5833418896704612 -0.7724338292609112
vn -0.3464798618033793 -0.3691738436306967 -0.8623586136542322
vn -0.34668118424753824 -0.3340491651232188 -0.8764834920118034
vn -0.9472659257760204 0.29562599672853446 -0.12366299334060821
vn -0.199531944181152 -0.6250247925714854 -0.7546727846704564
vn 1 0 0
vn 0.9659259211884978 -0.2387699757967989 0.09987999516493733
vn 0.8660253195888886 -0.4612691768956365 0.19295308309790082
vn 0.31611392182225223 -0.22539993905874084 -0.9215567567450584
vn 0.34501791808468557 -0.31988193005209853 -0.8824047750475138
vn 0.7071068123755656 -0.6523328411510149 0.272876932421763
vn 0.22440094603355726 -0.6080018684782951 -0.7615628295460241
vn 0.44322689537971155 -0.8269718254550916 0.3459299338240848
vn -0.440473108047849 -0.8282232114858068 0.34645310367032967
vn -0.99144490179943 -0.12041498958077726 0.050370993440467145
vn -1 0 0
vn -0.7278989185731588 0.6325699445503399 -0.2646099574687351
vn -0.3367019461512082 -0.28619297662241405 -0.8970648692207221
vn -0.21137000591246768 -0.6160219899274286 -0.7588409771002186
vn 0.99144490179943 0.12041498958077726 -0.050370993440467145
vn 0.7511497400315377 0.6089967668304256 -0.25474890783012516
vn 0.2969398801139712 -0.1953879260449143 -0.9346926050599564
vn 0.18037209449303618 -0.6356893540949604 -0.7505764135772767
vn 0.14760193184985937 -0.653113689213559 -0.7427356048258655
vn 0.1961160146201408 -0.9046230375406235 0.3784120356969222
vn -0.42578403517376046 -0.8347530619022089 0.3491350469890369
vn -0.8660253195888886 -0.4612691768956365 0.19295308309790082
vn -0.9659259211884978 -0.2387699757967989 0.09987999516493733
vn 0 -0.3859060536417149 -0.9225380847220769
vn -0.9659259211884978 0.2387699757967989 -0.09987999516493733
vn -0.32711206679386823 -0.2522030474496422 -0.9107092393376481
vn -0.8320502714935503 0.511732133546138 -0.21406206857784751
vn -0.16665104247411458 -0.642569186178636 -0.7478851990887482
vn -0.7071068123755656 -0.6523328411510149 0.272876932421763
vn 0.9659259211884978 0.2387699757967989 -0.09987999516493733
vn 0.26706505407662556 -0.15461503778986105 -0.9511942214817587
vn 0.904064865414998 -0.39430993321879704 0.16488297573475919
vn 0.5000002367084209 -0.7989413944293373 0.3342041465314714
vn 0.09737800709093587 -0.6693410722359614 -0.7365460289438882
vn 0.060791971586231064 -0.6783326774233819 -0.7322356962961344
vn -0.3214071122482685 -0.8735893107294674 0.3654301361073587
vn -0.15529303751227502 -0.6523281605036343 -0.7418571584302167
vn 0.08692998565218849 -0.9190458405425723 0.3844449512945995
vn 0.010293000927172608 -0.9224890366898721 0.38588603410709854
vn -0.3040051283018796 -0.20835308787788898 -0.9296073755827813
vn -0.6087609827976995 -0.7318989872805285 0.3061599879816364
vn -0.0000700000278064918 -0.3858671426001416 -0.9225543579440716
vn 0.5547001646128429 0.7675981776484885 -0.3210930784822444
vn 0.24006294941543244 -0.13022597546871711 -0.9619828354140134
vn 0.25881905749370177 -0.8911031795696255 0.3727570506898235
vn -0.06435903244263191 -0.920625409498943 0.3851061805891356
vn 0.007804998788698421 -0.6820178709775484 -0.7312938572565482
vn 0.7279303403110942 -0.6325563087987255 0.26455611097365717
vn -0.998967535704112 -0.04192598056367197 0.01749499251295294
vn -0.11891197691930572 -0.6637718777514826 -0.7384218550743289
vn -0.8660253195888886 0.4612691768956365 -0.19295308309790082
vn -0.2852699081052676 -0.17779193711202576 -0.9418126706662879
vn -0.6601320789560866 0.6929641098167566 -0.28987304262208485
vn -0.5000002367084209 -0.7989413944293373 0.3342041465314714
vn 0.8660253195888886 0.4612691768956365 -0.19295308309790082
vn 0.19982396194488594 -0.09798897908765228 -0.9749197629600131
vn 0.7278990825009614 0.6325680604512968 -0.2646140105722734
vn 0 -0.9225380847220769 0.3859060536417149
vn -0.030098998459421135 -0.6819599340686114 -0.7307699354905586
vn -0.9994872252761818 0.02950900763841555 -0.012430003134158443
vn -0.08223602247001449 -0.6728791693581433 -0.7351672327111745
vn -0.14270993867653042 -0.9130956165517864 0.38195584618755885
vn -0.2505990730522648 -0.14094205014538946 -0.9577763011717089
vn -0.25881905749370177 -0.8911031795696255 0.3727570506898235
vn 0.3204488690898818 0.8738886866506606 -0.36555585844436933
vn 0.16684595783085052 -0.08089697951937973 -0.9826586920493539
vn 0.7071068123755656 0.6523328411510149 -0.272876932421763
vn -0.04535098745587391 -0.6796548478562253 -0.7321287972223934
vn -0.13052594270980505 -0.914645584419527 0.3826048002594565
vn -0.7071068123755656 0.6523328411510149 -0.272876932421763
vn -0.22398801135213067 -0.11587300915867543 -0.9676790875693406
vn -0.44322689537971155 0.8269718254550916 -0.3459299338240848
vn 0.2117320047426572 -0.1072520041077606 -0.9714250180958508
vn 0.11899903867006036 -0.059377020571160954 -0.9911173483617839
vn -0.4808438931155669 0.8089088342289762 -0.3383129444165328
vn -0.9801337490948281 -0.18297394703952868 0.07653998033767868
vn -0.2923568681723136 -0.8822316194093601 0.3690458390861688
vn -0.1801009565355954 -0.08854497712318765 -0.9796547516759246
vn -0.14741600687153567 -0.07066400889545894 -0.986547068702185
vn 0.6087609827976995 0.7318989872805285 -0.3061599879816364
vn 0.06435903244263191 0.920625409498943 -0.3851061805891356
vn -0.1961160146201408 0.9046230375406235 -0.3784120356969222
vn 0.08230200264871063 -0.0507570020607018 -0.9953140746024951
vn 0.25881905749370177 0.8911031795696255 -0.3727570506898235
vn 0.13052594270980505 0.914645584419527 -0.3826048002594565
vn -0.9382865958910239 -0.3190678704938349 0.13346894016872943
vn -0.43512985186195374 -0.8306237013362061 0.34745687329096725
vn -0.5000002367084209 0.7989413944293373 -0.3342041465314714
vn -0.09728996690616185 -0.054738978775105994 -0.9937496196437292
vn 0.5000002367084209 0.7989413944293373 -0.3342041465314714
vn -0.06074997512315929 -0.045254982969442456 -0.9971265852633612
vn 0.030118990078971463 -0.041397986332068794 -0.9986886667847357
vn 0 0.9225380847220769 -0.3859060536417149
vn -0.8743769967404741 -0.44765897791127157 0.18725999857562972
vn -0.5676713000302539 -0.7594843931812875 0.31769915271528987
vn -0.25881905749370177 0.8911031795696255 -0.3727570506898235
vn -0.007791998667472908 -0.04184299260654534 -0.9990938137765114
vn 0.045367980135297685 -0.04393898178149183 -0.998003563249375
vn -0.7899077668392628 -0.5657238540596327 0.23664792590454778
vn -0.686864879601019 -0.6704868963295153 0.2804709593185914
vn 0.31530711418284907 0.49769218284661954 0.8080123234697916
vn 0.33267702947254413 0.4516620348821572 0.8278450339933394
vn 0.3426550122581511 0.417773019547953 0.8414589988300988
vn 0.26648495718855114 0.568378881636041 0.7784158364925389
vn 0.2962258579327553 0.5280577484310232 0.7958676117382598
vn -0.327980086832197 0.4715181179120104 0.818596192956124
vn -0.34765498431066455 0.3894619784967742 0.8529099478780453
vn -0.33762210331641845 0.4378511627738589 0.8332452667791022
vn -0.34360701288971085 0.30550799167870546 0.8880310173149664
vn -0.3474530948461739 0.35464609597227825 0.8680452139683954
vn -0.2859329967194161 0.5460620094339697 0.787437999616471
vn -0.3047570006602233 0.5158600238978391 0.8006320042895521
vn 0.553043695337666 0.7686145546181546 -0.32151879801404254
vn 0.3440580853970396 0.40371108313154336 0.8477271938717545
vn 0.23959305222359714 0.5931711317042662 0.7685981901090194
vn -0.3335749882112161 0.27193899142093264 0.9026499388937291
vn -0.251113956539697 0.5833418896704612 0.7724338292609112
vn 0.3464798618033793 0.3691738436306967 0.8623586136542322
vn 0.34668118424753824 0.3340491651232188 0.8764834920118034
vn 0.199531944181152 0.6250247925714854 0.7546727846704564
vn -0.31611392182225223 0.22539993905874084 0.9215567567450584
vn -0.34501791808468557 0.31988193005209853 0.8824047750475138
vn -0.22440094603355726 0.6080018684782951 0.7615628295460241
vn 0.440473108047849 0.8282232114858068 -0.34645310367032967
vn 0.7278989185731588 -0.6325699445503399 0.2646099574687351
vn 0.3367019461512082 0.28619297662241405 0.8970648692207221
vn 0.21137000591246768 0.6160219899274286 0.7588409771002186
vn -0.2969398801139712 0.1953879260449143 0.9346926050599564
vn -0.18037209449303618 0.6356893540949604 0.7505764135772767
vn -0.14760193184985937 0.653113689213559 0.7427356048258655
vn 0.42578403517376046 0.8347530619022089 -0.3491350469890369
vn 0.32711206679386823 0.2522030474496422 0.9107092393376481
vn 0.16665104247411458 0.642569186178636 0.7478851990887482
vn -0.26706505407662556 0.15461503778986105 0.9511942214817587
vn -0.904064865414998 0.39430993321879704 -0.16488297573475919
vn -0.09737800709093587 0.6693410722359614 0.7365460289438882
vn -0.060791971586231064 0.6783326774233819 0.7322356962961344
vn 0.3214071122482685 0.8735893107294674 -0.3654301361073587
vn 0.15529303751227502 0.6523281605036343 0.7418571584302167
vn -0.08692998565218849 0.9190458405425723 -0.3844449512945995
vn -0.010293000927172608 0.9224890366898721 -0.38588603410709854
vn 0.3040051283018796 0.20835308787788898 0.9296073755827813
vn 0.0000700000278064918 0.3858671426001416 0.9225543579440716
vn -0.5547001646128429 -0.7675981776484885 0.3210930784822444
vn -0.24006294941543244 0.13022597546871711 0.9619828354140134
vn -0.007804998788698421 0.6820178709775484 0.7312938572565482
vn -0.7279303403110942 0.6325563087987255 -0.26455611097365717
vn 0.998967535704112 0.04192598056367197 -0.01749499251295294
vn 0.11891197691930572 0.6637718777514826 0.7384218550743289
vn 0.2852699081052676 0.17779193711202576 0.9418126706662879
vn -0.19982396194488594 0.09798897908765228 0.9749197629600131
vn -0.7278990825009614 -0.6325680604512968 0.2646140105722734
vn 0.030098998459421135 0.6819599340686114 0.7307699354905586
vn 0.9994872252761818 -0.02950900763841555 0.012430003134158443
vn 0.08223602247001449 0.6728791693581433 0.7351672327111745
vn 0.14270993867653042 0.9130956165517864 -0.38195584618755885
vn 0.2505990730522648 0.14094205014538946 0.9577763011717089
vn -0.3204488690898818 -0.8738886866506606 0.36555585844436933
vn -0.16684595783085052 0.08089697951937973 0.9826586920493539
vn 0.04535098745587391 0.6796548478562253 0.7321287972223934
vn 0.22398801135213067 0.11587300915867543 0.9676790875693406
vn -0.2117320047426572 0.1072520041077606 0.9714250180958508
vn -0.11899903867006036 0.059377020571160954 0.9911173483617839
vn 0.4808438931155669 -0.8089088342289762 0.3383129444165328
vn 0.9801337490948281 0.18297394703952868 -0.07653998033767868
vn 0.2923568681723136 0.8822316194093601 -0.3690458390861688
vn 0.1801009565355954 0.08854497712318765 0.9796547516759246
vn 0.14741600687153567 0.07066400889545894 0.986547068702185
vn -0.08230200264871063 0.0507570020607018 0.9953140746024951
vn 0.9382865958910239 0.3190678704938349 -0.13346894016872943
vn 0.43512985186195374 0.8306237013362061 -0.34745687329096725
vn 0.09728996690616185 0.054738978775105994 0.9937496196437292
vn 0.06074997512315929 0.045254982969442456 0.9971265852633612
vn -0.030118990078971463 0.041397986332068794 0.9986886667847357
vn 0.8743769967404741 0.44765897791127157 -0.18725999857562972
vn 0.5676713000302539 0.7594843931812875 -0.31769915271528987
vn 0.007791998667472908 0.04184299260654534 0.9990938137765114
vn -0.045367980135297685 0.04393898178149183 0.998003563249375
vn 0.7899077668392628 0.5657238540596327 -0.23664792590454778
vn 0.686864879601019 0.6704868963295153 -0.2804709593185914
usemtl material_0_0
f 1/1/1 2/1/1 3/1/1
f 4/1/1 5/1/1 6/1/1
f 7/1/1 8/1/1 9/1/1
f 10/1/1 11/1/1 12/1/1
f 13/1/1 14/1/1 15/1/1
f 16/1/1 17/1/1 18/1/1
f 19/1/1 20/1/1 21/1/1
f 22/1/1 23/1/1 24/1/1
f 25/1/1 26/1/1 27/1/1
f 28/1/2 29/1/3 30/1/2
f 31/1/1 32/1/1 33/1/1
f 34/1/1 35/1/1 36/1/1
f 37/1/4 38/1/5 39/1/4
f 40/1/5 41/1/6 42/1/5
f 43/1/1 44/1/1 45/1/1
f 46/1/3 47/1/2 48/1/3
f 49/1/2 50/1/7 51/1/2
f 52/1/1 53/1/1 54/1/1
f 55/1/1 56/1/1 57/1/1
f 58/1/5 59/1/4 60/1/5
f 61/1/4 62/1/8 63/1/4
f 64/1/6 65/1/5 66/1/6
f 67/1/1 68/1/1 69/1/1
f 70/1/7 71/1/2 72/1/7
f 73/1/9 74/1/10 75/1/11
f 76/1/3 77/1/12 78/1/3
f 79/1/11 80/1/13 81/1/14
f 82/1/1 83/1/1 84/1/1
f 85/1/1 86/1/1 87/1/1
f 88/1/15 89/1/16 90/1/17
f 91/1/8 92/1/4 93/1/8
f 94/1/18 95/1/19 96/1/16
f 97/1/20 98/1/17 99/1/21
f 100/1/6 101/1/22 102/1/6
f 103/1/1 104/1/1 105/1/1
f 106/1/7 107/1/7 108/1/23
f 109/1/10 110/1/13 111/1/11
f 112/1/10 113/1/9 114/1/24
f 115/1/12 116/1/3 117/1/12
f 118/1/1 119/1/1 120/1/1
f 121/1/13 122/1/25 123/1/14
f 124/1/1 125/1/1 126/1/1
f 127/1/1 128/1/1 129/1/1
f 130/1/18 131/1/16 132/1/15
f 133/1/20 134/1/15 135/1/17
f 136/1/1 137/1/1 138/1/1
f 139/1/8 140/1/26 141/1/8
f 142/1/19 143/1/18 144/1/27
f 145/1/28 146/1/20 147/1/21
f 148/1/22 149/1/6 150/1/22
f 151/1/1 152/1/1 153/1/1
f 154/1/23 155/1/23 156/1/7
f 157/1/29 158/1/24 159/1/9
f 160/1/30 161/1/29 162/1/9
f 163/1/12 164/1/31 165/1/12
f 166/1/1 167/1/1 168/1/1
f 169/1/1 170/1/1 171/1/1
f 172/1/14 173/1/25 174/1/32
f 175/1/1 176/1/1 177/1/1
f 178/1/1 179/1/1 180/1/1
f 181/1/33 182/1/34 183/1/33
f 184/1/34 185/1/35 186/1/34
f 187/1/1 188/1/1 189/1/1
f 190/1/1 191/1/1 192/1/1
f 193/1/26 194/1/8 195/1/26
f 196/1/36 197/1/19 198/1/27
f 199/1/37 200/1/27 201/1/18
f 202/1/35 203/1/38 204/1/35
f 205/1/28 206/1/21 207/1/39
f 208/1/22 209/1/22 210/1/40
f 211/1/40 212/1/40 213/1/22
f 214/1/1 215/1/1 216/1/1
f 217/1/23 218/1/23 219/1/41
f 220/1/42 221/1/43 222/1/42
f 223/1/44 224/1/44 225/1/44
f 226/1/30 227/1/45 228/1/29
f 229/1/31 230/1/12 231/1/31
f 232/1/1 233/1/1 234/1/1
f 235/1/1 236/1/1 237/1/1
f 238/1/25 239/1/46 240/1/32
f 241/1/1 242/1/1 243/1/1
f 244/1/34 245/1/33 246/1/34
f 247/1/33 248/1/47 249/1/33
f 250/1/35 251/1/34 252/1/35
f 253/1/1 254/1/1 255/1/1
f 256/1/1 257/1/1 258/1/1
f 259/1/1 260/1/1 261/1/1
f 262/1/26 263/1/48 264/1/26
f 265/1/49 266/1/36 267/1/27
f 268/1/47 269/1/33 270/1/47
f 271/1/38 272/1/35 273/1/38
f 274/1/50 275/1/28 276/1/39
f 277/1/50 278/1/39 279/1/51
f 280/1/40 281/1/40 282/1/52
f 283/1/1 284/1/1 285/1/1
f 286/1/23 287/1/53 288/1/41
f 289/1/54 290/1/55 291/1/54
f 292/1/56 293/1/56 294/1/56
f 295/1/55 296/1/42 297/1/55
f 298/1/56 299/1/56 300/1/56
f 301/1/42 302/1/43 303/1/42
f 304/1/44 305/1/44 306/1/44
f 307/1/44 308/1/44 309/1/44
f 310/1/43 311/1/57 312/1/43
f 313/1/58 314/1/45 315/1/30
f 316/1/31 317/1/59 318/1/31
f 319/1/1 320/1/1 321/1/1
f 322/1/60 323/1/32 324/1/46
f 325/1/61 326/1/54 327/1/61
f 328/1/56 329/1/56 330/1/56
f 331/1/56 332/1/56 333/1/56
f 334/1/47 335/1/33 336/1/62
f 337/1/56 338/1/56 339/1/56
f 340/1/1 341/1/1 342/1/1
f 343/1/1 344/1/1 345/1/1
f 346/1/48 347/1/26 348/1/48
f 349/1/63 350/1/36 351/1/49
f 352/1/64 353/1/64 354/1/64
f 355/1/64 356/1/64 357/1/64
f 358/1/56 359/1/56 360/1/56
f 361/1/38 362/1/38 363/1/65
f 364/1/65 365/1/65 366/1/38
f 367/1/66 368/1/50 369/1/51
f 370/1/52 371/1/52 372/1/40
f 373/1/66 374/1/51 375/1/67
f 376/1/1 377/1/1 378/1/1
f 379/1/53 380/1/68 381/1/41
f 382/1/53 383/1/41 384/1/53
f 385/1/32 386/1/60 387/1/69
f 388/1/55 389/1/54 390/1/55
f 391/1/54 392/1/61 393/1/54
f 394/1/42 395/1/55 396/1/42
f 397/1/43 398/1/42 399/1/43
f 400/1/70 401/1/71 402/1/70
f 403/1/57 404/1/43 405/1/57
f 406/1/58 407/1/72 408/1/45
f 409/1/59 410/1/31 411/1/59
f 412/1/61 413/1/61 414/1/73
f 415/1/56 416/1/56 417/1/56
f 418/1/56 419/1/56 420/1/56
f 421/1/56 422/1/56 423/1/56
f 424/1/62 425/1/33 426/1/62
f 427/1/74 428/1/74 429/1/74
f 430/1/56 431/1/56 432/1/56
f 433/1/1 434/1/1 435/1/1
f 436/1/48 437/1/48 438/1/75
f 439/1/76 440/1/63 441/1/49
f 442/1/64 443/1/64 444/1/64
f 445/1/56 446/1/56 447/1/56
f 448/1/56 449/1/56 450/1/56
f 451/1/56 452/1/56 453/1/56
f 454/1/65 455/1/65 456/1/77
f 457/1/77 458/1/77 459/1/65
f 460/1/52 461/1/52 462/1/78
f 463/1/79 464/1/66 465/1/67
f 466/1/1 467/1/1 468/1/1
f 469/1/53 470/1/53 471/1/68
f 472/1/53 473/1/53 474/1/80
f 475/1/53 476/1/81 477/1/53
f 478/1/82 479/1/69 480/1/60
f 481/1/56 482/1/56 483/1/56
f 484/1/56 485/1/56 486/1/56
f 487/1/56 488/1/56 489/1/56
f 490/1/56 491/1/56 492/1/56
f 493/1/71 494/1/70 495/1/71
f 496/1/56 497/1/56 498/1/56
f 499/1/56 500/1/56 501/1/56
f 502/1/57 503/1/83 504/1/57
f 505/1/58 506/1/84 507/1/72
f 508/1/59 509/1/85 510/1/59
f 511/1/73 512/1/73 513/1/86
f 514/1/56 515/1/56 516/1/56
f 517/1/73 518/1/73 519/1/61
f 520/1/56 521/1/56 522/1/56
f 523/1/47 524/1/62 525/1/33
f 526/1/62 527/1/87 528/1/62
f 529/1/74 530/1/74 531/1/74
f 532/1/1 533/1/1 534/1/1
f 535/1/75 536/1/75 537/1/48
f 538/1/1 539/1/1 540/1/1
f 541/1/88 542/1/63 543/1/76
f 544/1/87 545/1/62 546/1/87
f 547/1/89 548/1/89 549/1/89
f 550/1/56 551/1/56 552/1/56
f 553/1/56 554/1/56 555/1/56
f 556/1/56 557/1/56 558/1/56
f 559/1/77 560/1/77 561/1/90
f 562/1/78 563/1/78 564/1/52
f 565/1/79 566/1/67 567/1/91
f 568/1/90 569/1/90 570/1/77
f 571/1/68 572/1/68 573/1/78
f 574/1/68 575/1/68 576/1/53
f 577/1/80 578/1/53 579/1/80
f 580/1/53 581/1/81 582/1/92
f 583/1/60 584/1/93 585/1/82
f 586/1/56 587/1/56 588/1/56
f 589/1/56 590/1/56 591/1/56
f 592/1/56 593/1/56 594/1/56
f 595/1/56 596/1/56 597/1/56
f 598/1/56 599/1/56 600/1/56
f 601/1/71 602/1/94 603/1/71
f 604/1/56 605/1/56 606/1/56
f 607/1/56 608/1/56 609/1/56
f 610/1/56 611/1/56 612/1/56
f 613/1/83 614/1/57 615/1/83
f 616/1/84 617/1/95 618/1/72
f 619/1/85 620/1/59 621/1/85
f 622/1/86 623/1/86 624/1/96
f 625/1/56 626/1/56 627/1/56
f 628/1/86 629/1/86 630/1/73
f 631/1/56 632/1/56 633/1/56
f 634/1/56 635/1/56 636/1/56
f 637/1/56 638/1/56 639/1/56
f 640/1/56 641/1/56 642/1/56
f 643/1/74 644/1/74 645/1/74
f 646/1/75 647/1/75 648/1/97
f 649/1/1 650/1/1 651/1/1
f 652/1/88 653/1/76 654/1/98
f 655/1/87 656/1/99 657/1/87
f 658/1/89 659/1/89 660/1/89
f 661/1/74 662/1/74 663/1/74
f 664/1/56 665/1/56 666/1/56
f 667/1/56 668/1/56 669/1/56
f 670/1/56 671/1/56 672/1/56
f 673/1/56 674/1/56 675/1/56
f 676/1/78 677/1/78 678/1/68
f 679/1/79 680/1/91 681/1/100
f 682/1/90 683/1/90 684/1/101
f 685/1/53 686/1/80 687/1/80
f 688/1/81 689/1/92 690/1/81
f 691/1/82 692/1/93 693/1/91
f 694/1/56 695/1/56 696/1/56
f 697/1/94 698/1/71 699/1/94
f 700/1/96 701/1/96 702/1/101
f 703/1/56 704/1/56 705/1/56
f 706/1/56 707/1/56 708/1/56
f 709/1/56 710/1/56 711/1/56
f 712/1/83 713/1/102 714/1/83
f 715/1/84 716/1/103 717/1/95
f 718/1/85 719/1/85 720/1/104
f 721/1/96 722/1/96 723/1/86
f 724/1/56 725/1/56 726/1/56
f 727/1/56 728/1/56 729/1/56
f 730/1/56 731/1/56 732/1/56
f 733/1/74 734/1/74 735/1/74
f 736/1/99 737/1/87 738/1/99
f 739/1/97 740/1/97 741/1/75
f 742/1/1 743/1/1 744/1/1
f 745/1/104 746/1/104 747/1/85
f 748/1/105 749/1/98 750/1/76
f 751/1/106 752/1/88 753/1/98
f 754/1/56 755/1/56 756/1/56
f 757/1/107 758/1/107 759/1/107
f 760/1/74 761/1/74 762/1/74
f 763/1/107 764/1/107 765/1/107
f 766/1/101 767/1/101 768/1/96
f 769/1/93 770/1/100 771/1/91
f 772/1/101 773/1/101 774/1/90
f 775/1/80 776/1/80 777/1/80
f 778/1/81 779/1/108 780/1/81
f 781/1/56 782/1/56 783/1/56
f 784/1/94 785/1/109 786/1/94
f 787/1/56 788/1/56 789/1/56
f 790/1/56 791/1/56 792/1/56
f 793/1/102 794/1/83 795/1/102
f 796/1/103 797/1/110 798/1/95
f 799/1/103 800/1/111 801/1/110
f 802/1/56 803/1/56 804/1/56
f 805/1/74 806/1/74 807/1/74
f 808/1/74 809/1/74 810/1/74
f 811/1/99 812/1/99 813/1/112
f 814/1/97 815/1/97 816/1/113
f 817/1/1 818/1/1 819/1/1
f 820/1/104 821/1/104 822/1/114
f 823/1/115 824/1/106 825/1/98
f 826/1/56 827/1/56 828/1/56
f 829/1/116 830/1/116 831/1/117
f 832/1/107 833/1/107 834/1/107
f 835/1/101 836/1/101 837/1/101
f 838/1/108 839/1/118 840/1/108
f 841/1/108 842/1/81 843/1/108
f 844/1/56 845/1/56 846/1/56
f 847/1/109 848/1/94 849/1/109
f 850/1/56 851/1/56 852/1/56
f 853/1/109 854/1/119 855/1/109
f 856/1/56 857/1/56 858/1/56
f 859/1/56 860/1/56 861/1/56
f 862/1/102 863/1/102 864/1/120
f 865/1/120 866/1/120 867/1/102
f 868/1/111 869/1/121 870/1/110
f 871/1/122 872/1/122 873/1/116
f 874/1/112 875/1/112 876/1/122
f 877/1/112 878/1/112 879/1/99
f 880/1/113 881/1/113 882/1/97
f 883/1/1 884/1/1 885/1/1
f 886/1/114 887/1/114 888/1/104
f 889/1/111 890/1/123 891/1/121
f 892/1/124 893/1/106 894/1/115
f 895/1/56 896/1/56 897/1/56
f 898/1/117 899/1/117 900/1/116
f 901/1/116 902/1/116 903/1/122
f 904/1/117 905/1/117 906/1/125
f 907/1/118 908/1/126 909/1/118
f 910/1/118 911/1/108 912/1/118
f 913/1/56 914/1/56 915/1/56
f 916/1/119 917/1/109 918/1/119
f 919/1/56 920/1/56 921/1/56
f 922/1/119 923/1/127 924/1/119
f 925/1/56 926/1/56 927/1/56
f 928/1/56 929/1/56 930/1/56
f 931/1/120 932/1/120 933/1/128
f 934/1/128 935/1/128 936/1/120
f 937/1/122 938/1/122 939/1/112
f 940/1/113 941/1/113 942/1/114
f 943/1/114 944/1/114 945/1/113
f 946/1/123 947/1/129 948/1/121
f 949/1/124 950/1/115 951/1/129
f 952/1/56 953/1/56 954/1/56
f 955/1/117 956/1/125 957/1/117
f 958/1/56 959/1/56 960/1/56
f 961/1/56 962/1/56 963/1/56
f 964/1/130 965/1/129 966/1/115
f 967/1/126 968/1/131 969/1/126
f 970/1/126 971/1/118 972/1/126
f 973/1/56 974/1/56 975/1/56
f 976/1/127 977/1/119 978/1/127
f 979/1/56 980/1/56 981/1/56
f 982/1/127 983/1/132 984/1/127
f 985/1/56 986/1/56 987/1/56
f 988/1/56 989/1/56 990/1/56
f 991/1/128 992/1/128 993/1/125
f 994/1/56 995/1/56 996/1/56
f 997/1/123 998/1/124 999/1/129
f 1000/1/125 1001/1/125 1002/1/128
f 1003/1/125 1004/1/125 1005/1/117
f 1006/1/56 1007/1/56 1008/1/56
f 1009/1/131 1010/1/132 1011/1/131
f 1012/1/131 1013/1/126 1014/1/131
f 1015/1/56 1016/1/56 1017/1/56
f 1018/1/132 1019/1/127 1020/1/132
f 1021/1/132 1022/1/131 1023/1/132
usemtl material_1_0
f 1024/1/56 1025/1/56 1026/1/56
f 1027/1/56 1028/1/56 1029/1/56
f 1030/1/56 1031/1/56 1032/1/56
f 1033/1/56 1034/1/56 1035/1/56
f 1036/1/56 1037/1/56 1038/1/56
f 1039/1/56 1040/1/56 1041/1/56
f 1042/1/56 1043/1/56 1044/1/56
f 1045/1/56 1046/1/56 1047/1/56
f 1048/1/56 1049/1/56 1050/1/56
f 1051/1/26 1052/1/8 1053/1/26
f 1054/1/56 1055/1/56 1056/1/56
f 1057/1/56 1058/1/56 1059/1/56
f 1060/1/12 1061/1/31 1062/1/12
f 1063/1/31 1064/1/59 1065/1/31
f 1066/1/56 1067/1/56 1068/1/56
f 1069/1/8 1070/1/26 1071/1/8
f 1072/1/26 1073/1/48 1074/1/26
f 1075/1/56 1076/1/56 1077/1/56
f 1078/1/56 1079/1/56 1080/1/56
f 1081/1/31 1082/1/12 1083/1/31
f 1084/1/12 1085/1/3 1086/1/12
f 1087/1/59 1088/1/31 1089/1/59
f 1090/1/56 1091/1/56 1092/1/56
f 1093/1/48 1094/1/26 1095/1/48
f 1096/1/133 1097/1/134 1098/1/135
f 1099/1/8 1100/1/4 1101/1/8
f 1102/1/136 1103/1/137 1104/1/133
f 1105/1/56 1106/1/56 1107/1/56
f 1108/1/56 1109/1/56 1110/1/56
f 1111/1/138 1112/1/139 1113/1/140
f 1114/1/3 1115/1/12 1116/1/3
f 1117/1/139 1118/1/141 1119/1/142
f 1120/1/143 1121/1/138 1122/1/144
f 1123/1/59 1124/1/85 1125/1/59
f 1126/1/56 1127/1/56 1128/1/56
f 1129/1/145 1130/1/48 1131/1/48
f 1132/1/133 1133/1/137 1134/1/134
f 1135/1/146 1136/1/135 1137/1/134
f 1138/1/4 1139/1/8 1140/1/4
f 1141/1/56 1142/1/56 1143/1/56
f 1144/1/136 1145/1/147 1146/1/137
f 1147/1/56 1148/1/56 1149/1/56
f 1150/1/56 1151/1/56 1152/1/56
f 1153/1/140 1154/1/139 1155/1/142
f 1156/1/138 1157/1/140 1158/1/144
f 1159/1/56 1160/1/56 1161/1/56
f 1162/1/3 1163/1/2 1164/1/3
f 1165/1/148 1166/1/142 1167/1/141
f 1168/1/143 1169/1/144 1170/1/149
f 1171/1/85 1172/1/59 1173/1/85
f 1174/1/56 1175/1/56 1176/1/56
f 1177/1/48 1178/1/145 1179/1/145
f 1180/1/135 1181/1/146 1182/1/150
f 1183/1/135 1184/1/150 1185/1/151
f 1186/1/4 1187/1/5 1188/1/4
f 1189/1/56 1190/1/56 1191/1/56
f 1192/1/56 1193/1/56 1194/1/56
f 1195/1/152 1196/1/147 1197/1/136
f 1198/1/56 1199/1/56 1200/1/56
f 1201/1/56 1202/1/56 1203/1/56
f 1204/1/43 1205/1/57 1206/1/43
f 1207/1/57 1208/1/83 1209/1/57
f 1210/1/56 1211/1/56 1212/1/56
f 1213/1/56 1214/1/56 1215/1/56
f 1216/1/2 1217/1/3 1218/1/2
f 1219/1/148 1220/1/141 1221/1/153
f 1222/1/142 1223/1/148 1224/1/154
f 1225/1/83 1226/1/102 1227/1/83
f 1228/1/155 1229/1/143 1230/1/149
f 1231/1/104 1232/1/85 1233/1/85
f 1234/1/85 1235/1/104 1236/1/104
f 1237/1/56 1238/1/56 1239/1/56
f 1240/1/156 1241/1/145 1242/1/145
f 1243/1/47 1244/1/33 1245/1/47
f 1246/1/157 1247/1/157 1248/1/157
f 1249/1/150 1250/1/158 1251/1/151
f 1252/1/5 1253/1/4 1254/1/5
f 1255/1/56 1256/1/56 1257/1/56
f 1258/1/56 1259/1/56 1260/1/56
f 1261/1/152 1262/1/159 1263/1/147
f 1264/1/56 1265/1/56 1266/1/56
f 1267/1/57 1268/1/43 1269/1/57
f 1270/1/43 1271/1/42 1272/1/43
f 1273/1/83 1274/1/57 1275/1/83
f 1276/1/56 1277/1/56 1278/1/56
f 1279/1/56 1280/1/56 1281/1/56
f 1282/1/56 1283/1/56 1284/1/56
f 1285/1/2 1286/1/7 1287/1/2
f 1288/1/148 1289/1/153 1290/1/160
f 1291/1/42 1292/1/43 1293/1/42
f 1294/1/102 1295/1/83 1296/1/102
f 1297/1/155 1298/1/149 1299/1/161
f 1300/1/162 1301/1/155 1302/1/161
f 1303/1/114 1304/1/104 1305/1/104
f 1306/1/56 1307/1/56 1308/1/56
f 1309/1/156 1310/1/163 1311/1/145
f 1312/1/87 1313/1/62 1314/1/87
f 1315/1/1 1316/1/1 1317/1/1
f 1318/1/62 1319/1/47 1320/1/62
f 1321/1/1 1322/1/1 1323/1/1
f 1324/1/47 1325/1/33 1326/1/47
f 1327/1/157 1328/1/157 1329/1/157
f 1330/1/157 1331/1/157 1332/1/157
f 1333/1/33 1334/1/34 1335/1/33
f 1336/1/151 1337/1/158 1338/1/164
f 1339/1/5 1340/1/6 1341/1/5
f 1342/1/56 1343/1/56 1344/1/56
f 1345/1/159 1346/1/152 1347/1/165
f 1348/1/99 1349/1/87 1350/1/99
f 1351/1/1 1352/1/1 1353/1/1
f 1354/1/1 1355/1/1 1356/1/1
f 1357/1/55 1358/1/43 1359/1/42
f 1360/1/1 1361/1/1 1362/1/1
f 1363/1/56 1364/1/56 1365/1/56
f 1366/1/56 1367/1/56 1368/1/56
f 1369/1/7 1370/1/2 1371/1/7
f 1372/1/160 1373/1/153 1374/1/166
f 1375/1/167 1376/1/167 1377/1/167
f 1378/1/167 1379/1/167 1380/1/167
f 1381/1/1 1382/1/1 1383/1/1
f 1384/1/120 1385/1/102 1386/1/102
f 1387/1/102 1388/1/120 1389/1/120
f 1390/1/162 1391/1/161 1392/1/168
f 1393/1/104 1394/1/114 1395/1/114
f 1396/1/169 1397/1/162 1398/1/168
f 1399/1/56 1400/1/56 1401/1/56
f 1402/1/156 1403/1/170 1404/1/163
f 1405/1/163 1406/1/156 1407/1/163
f 1408/1/171 1409/1/165 1410/1/152
f 1411/1/62 1412/1/87 1413/1/62
f 1414/1/87 1415/1/99 1416/1/87
f 1417/1/47 1418/1/62 1419/1/47
f 1420/1/33 1421/1/47 1422/1/33
f 1423/1/172 1424/1/173 1425/1/172
f 1426/1/34 1427/1/33 1428/1/34
f 1429/1/158 1430/1/174 1431/1/164
f 1432/1/6 1433/1/5 1434/1/6
f 1435/1/112 1436/1/99 1437/1/99
f 1438/1/1 1439/1/1 1440/1/1
f 1441/1/1 1442/1/1 1443/1/1
f 1444/1/1 1445/1/1 1446/1/1
f 1447/1/55 1448/1/43 1449/1/55
f 1450/1/175 1451/1/175 1452/1/175
f 1453/1/1 1454/1/1 1455/1/1
f 1456/1/56 1457/1/56 1458/1/56
f 1459/1/176 1460/1/7 1461/1/7
f 1462/1/160 1463/1/166 1464/1/177
f 1465/1/167 1466/1/167 1467/1/167
f 1468/1/1 1469/1/1 1470/1/1
f 1471/1/1 1472/1/1 1473/1/1
f 1474/1/1 1475/1/1 1476/1/1
f 1477/1/128 1478/1/120 1479/1/120
f 1480/1/120 1481/1/128 1482/1/128
f 1483/1/113 1484/1/114 1485/1/114
f 1486/1/169 1487/1/168 1488/1/178
f 1489/1/56 1490/1/56 1491/1/56
f 1492/1/170 1493/1/163 1494/1/163
f 1495/1/179 1496/1/163 1497/1/163
f 1498/1/163 1499/1/180 1500/1/163
f 1501/1/165 1502/1/171 1503/1/181
f 1504/1/1 1505/1/1 1506/1/1
f 1507/1/1 1508/1/1 1509/1/1
f 1510/1/1 1511/1/1 1512/1/1
f 1513/1/1 1514/1/1 1515/1/1
f 1516/1/173 1517/1/172 1518/1/173
f 1519/1/1 1520/1/1 1521/1/1
f 1522/1/1 1523/1/1 1524/1/1
f 1525/1/34 1526/1/35 1527/1/34
f 1528/1/174 1529/1/182 1530/1/164
f 1531/1/6 1532/1/22 1533/1/6
f 1534/1/122 1535/1/112 1536/1/112
f 1537/1/1 1538/1/1 1539/1/1
f 1540/1/99 1541/1/112 1542/1/112
f 1543/1/1 1544/1/1 1545/1/1
f 1546/1/43 1547/1/55 1548/1/42
f 1549/1/55 1550/1/54 1551/1/55
f 1552/1/175 1553/1/175 1554/1/175
f 1555/1/56 1556/1/56 1557/1/56
f 1558/1/7 1559/1/176 1560/1/176
f 1561/1/56 1562/1/56 1563/1/56
f 1564/1/177 1565/1/166 1566/1/183
f 1567/1/54 1568/1/55 1569/1/54
f 1570/1/184 1571/1/184 1572/1/184
f 1573/1/1 1574/1/1 1575/1/1
f 1576/1/1 1577/1/1 1578/1/1
f 1579/1/1 1580/1/1 1581/1/1
f 1582/1/125 1583/1/128 1584/1/128
f 1585/1/114 1586/1/113 1587/1/113
f 1588/1/185 1589/1/169 1590/1/178
f 1591/1/128 1592/1/125 1593/1/125
f 1594/1/113 1595/1/170 1596/1/170
f 1597/1/163 1598/1/170 1599/1/170
f 1600/1/179 1601/1/163 1602/1/179
f 1603/1/186 1604/1/180 1605/1/163
f 1606/1/181 1607/1/187 1608/1/165
f 1609/1/1 1610/1/1 1611/1/1
f 1612/1/1 1613/1/1 1614/1/1
f 1615/1/1 1616/1/1 1617/1/1
f 1618/1/1 1619/1/1 1620/1/1
f 1621/1/1 1622/1/1 1623/1/1
f 1624/1/173 1625/1/188 1626/1/173
f 1627/1/1 1628/1/1 1629/1/1
f 1630/1/1 1631/1/1 1632/1/1
f 1633/1/1 1634/1/1 1635/1/1
f 1636/1/35 1637/1/34 1638/1/35
f 1639/1/174 1640/1/189 1641/1/182
f 1642/1/22 1643/1/6 1644/1/22
f 1645/1/116 1646/1/122 1647/1/122
f 1648/1/1 1649/1/1 1650/1/1
f 1651/1/112 1652/1/122 1653/1/122
f 1654/1/1 1655/1/1 1656/1/1
f 1657/1/1 1658/1/1 1659/1/1
f 1660/1/1 1661/1/1 1662/1/1
f 1663/1/1 1664/1/1 1665/1/1
f 1666/1/175 1667/1/175 1668/1/175
f 1669/1/190 1670/1/176 1671/1/176
f 1672/1/56 1673/1/56 1674/1/56
f 1675/1/191 1676/1/177 1677/1/183
f 1678/1/54 1679/1/61 1680/1/54
f 1681/1/184 1682/1/184 1683/1/184
f 1684/1/175 1685/1/175 1686/1/175
f 1687/1/1 1688/1/1 1689/1/1
f 1690/1/1 1691/1/1 1692/1/1
f 1693/1/1 1694/1/1 1695/1/1
f 1696/1/1 1697/1/1 1698/1/1
f 1699/1/170 1700/1/113 1701/1/113
f 1702/1/192 1703/1/185 1704/1/178
f 1705/1/117 1706/1/125 1707/1/125
f 1708/1/179 1709/1/179 1710/1/163
f 1711/1/180 1712/1/186 1713/1/180
f 1714/1/185 1715/1/187 1716/1/181
f 1717/1/1 1718/1/1 1719/1/1
f 1720/1/188 1721/1/173 1722/1/188
f 1723/1/117 1724/1/116 1725/1/116
f 1726/1/1 1727/1/1 1728/1/1
f 1729/1/1 1730/1/1 1731/1/1
f 1732/1/1 1733/1/1 1734/1/1
f 1735/1/35 1736/1/38 1737/1/35
f 1738/1/189 1739/1/193 1740/1/182
f 1741/1/40 1742/1/22 1743/1/22
f 1744/1/122 1745/1/116 1746/1/116
f 1747/1/1 1748/1/1 1749/1/1
f 1750/1/1 1751/1/1 1752/1/1
f 1753/1/1 1754/1/1 1755/1/1
f 1756/1/175 1757/1/175 1758/1/175
f 1759/1/61 1760/1/54 1761/1/61
f 1762/1/176 1763/1/190 1764/1/190
f 1765/1/56 1766/1/56 1767/1/56
f 1768/1/22 1769/1/40 1770/1/40
f 1771/1/177 1772/1/191 1773/1/194
f 1774/1/191 1775/1/183 1776/1/195
f 1777/1/1 1778/1/1 1779/1/1
f 1780/1/196 1781/1/196 1782/1/196
f 1783/1/175 1784/1/175 1785/1/175
f 1786/1/196 1787/1/196 1788/1/196
f 1789/1/116 1790/1/117 1791/1/117
f 1792/1/185 1793/1/192 1794/1/187
f 1795/1/125 1796/1/117 1797/1/117
f 1798/1/179 1799/1/179 1800/1/179
f 1801/1/180 1802/1/197 1803/1/180
f 1804/1/1 1805/1/1 1806/1/1
f 1807/1/188 1808/1/198 1809/1/188
f 1810/1/1 1811/1/1 1812/1/1
f 1813/1/1 1814/1/1 1815/1/1
f 1816/1/38 1817/1/35 1818/1/38
f 1819/1/189 1820/1/199 1821/1/193
f 1822/1/199 1823/1/200 1824/1/193
f 1825/1/1 1826/1/1 1827/1/1
f 1828/1/175 1829/1/175 1830/1/175
f 1831/1/175 1832/1/175 1833/1/175
f 1834/1/73 1835/1/61 1836/1/61
f 1837/1/78 1838/1/190 1839/1/190
f 1840/1/56 1841/1/56 1842/1/56
f 1843/1/52 1844/1/40 1845/1/40
f 1846/1/191 1847/1/195 1848/1/201
f 1849/1/1 1850/1/1 1851/1/1
f 1852/1/101 1853/1/96 1854/1/96
f 1855/1/196 1856/1/196 1857/1/196
f 1858/1/117 1859/1/117 1860/1/117
f 1861/1/197 1862/1/202 1863/1/197
f 1864/1/197 1865/1/180 1866/1/197
f 1867/1/1 1868/1/1 1869/1/1
f 1870/1/198 1871/1/188 1872/1/198
f 1873/1/1 1874/1/1 1875/1/1
f 1876/1/198 1877/1/203 1878/1/198
f 1879/1/1 1880/1/1 1881/1/1
f 1882/1/1 1883/1/1 1884/1/1
f 1885/1/65 1886/1/38 1887/1/38
f 1888/1/38 1889/1/65 1890/1/65
f 1891/1/199 1892/1/204 1893/1/200
f 1894/1/96 1895/1/86 1896/1/86
f 1897/1/86 1898/1/73 1899/1/73
f 1900/1/61 1901/1/73 1902/1/73
f 1903/1/190 1904/1/78 1905/1/78
f 1906/1/56 1907/1/56 1908/1/56
f 1909/1/40 1910/1/52 1911/1/52
f 1912/1/204 1913/1/205 1914/1/200
f 1915/1/201 1916/1/195 1917/1/206
f 1918/1/1 1919/1/1 1920/1/1
f 1921/1/96 1922/1/101 1923/1/101
f 1924/1/86 1925/1/96 1926/1/96
f 1927/1/90 1928/1/101 1929/1/101
f 1930/1/202 1931/1/207 1932/1/202
f 1933/1/202 1934/1/197 1935/1/202
f 1936/1/1 1937/1/1 1938/1/1
f 1939/1/203 1940/1/198 1941/1/203
f 1942/1/1 1943/1/1 1944/1/1
f 1945/1/203 1946/1/208 1947/1/203
f 1948/1/1 1949/1/1 1950/1/1
f 1951/1/1 1952/1/1 1953/1/1
f 1954/1/77 1955/1/65 1956/1/65
f 1957/1/65 1958/1/77 1959/1/77
f 1960/1/73 1961/1/86 1962/1/86
f 1963/1/52 1964/1/78 1965/1/78
f 1966/1/78 1967/1/52 1968/1/52
f 1969/1/204 1970/1/209 1971/1/205
f 1972/1/209 1973/1/201 1974/1/206
f 1975/1/1 1976/1/1 1977/1/1
f 1978/1/101 1979/1/90 1980/1/101
f 1981/1/1 1982/1/1 1983/1/1
f 1984/1/1 1985/1/1 1986/1/1
f 1987/1/201 1988/1/209 1989/1/210
f 1990/1/207 1991/1/211 1992/1/207
f 1993/1/207 1994/1/202 1995/1/207
f 1996/1/1 1997/1/1 1998/1/1
f 1999/1/208 2000/1/203 2001/1/208
f 2002/1/1 2003/1/1 2004/1/1
f 2005/1/208 2006/1/212 2007/1/208
f 2008/1/1 2009/1/1 2010/1/1
f 2011/1/1 2012/1/1 2013/1/1
f 2014/1/90 2015/1/77 2016/1/77
f 2017/1/1 2018/1/1 2019/1/1
f 2020/1/209 2021/1/206 2022/1/205
f 2023/1/77 2024/1/90 2025/1/90
f 2026/1/101 2027/1/90 2028/1/90
f 2029/1/1 2030/1/1 2031/1/1
f 2032/1/211 2033/1/212 2034/1/211
f 2035/1/211 2036/1/207 2037/1/211
f 2038/1/1 2039/1/1 2040/1/1
f 2041/1/212 2042/1/208 2043/1/212
f 2044/1/212 2045/1/211 2046/1/212
