# SSTK version 0.8.0
# 47
mtllib original-47.mtl
o mesh26/mesh26-geometry/material_1#mesh26-geometry
v 0.478527 0.558346 -0.343083
v 0.478527 0.786447 -0.435913
v 0.478527 0.558346 -0.401316
v -0.446952 0.515964 -0.435913
v 0.478527 0.786447 -0.435913
v -0.446952 0.786447 -0.435913
v -0.446952 0.558346 -0.401316
v -0.446952 0.786447 -0.435913
v -0.446952 0.558346 -0.343083
v 0.478527 0.515964 -0.435913
v 0.478527 0.558346 -0.401316
v 0.478527 0.786447 -0.435913
v 0.478527 0.786447 -0.435913
v -0.446952 0.515964 -0.435913
v 0.478527 0.515964 -0.435913
v -0.446952 0.786447 -0.435913
v -0.446952 0.558346 -0.401316
v -0.446952 0.515964 -0.435913
v 0.478527 0.515964 -0.401316
v 0.478527 0.558346 -0.401316
v 0.478527 0.515964 -0.435913
v -0.446952 0.515964 -0.435913
v 0.478527 0.515964 -0.401316
v 0.478527 0.515964 -0.435913
v -0.446952 0.515964 -0.435913
v -0.446952 0.558346 -0.401316
v -0.446952 0.515964 -0.401316
v -0.446952 -0.669860 0.437669
v -0.403705 -0.669860 -0.332121
v -0.446952 -0.669860 -0.401316
v 0.478527 0.515964 -0.401316
v -0.093462 0.340382 -0.401316
v 0.478527 -0.669860 -0.401316
v 0.478527 0.515964 -0.401316
v -0.446952 0.515964 -0.435913
v -0.446952 0.515964 -0.401316
v -0.446952 -0.669860 -0.401316
v 0.478527 -0.669860 -0.401316
v -0.446952 0.515964 -0.401316
v -0.402821 -0.669860 -0.338837
v -0.446952 -0.669860 -0.401316
v -0.403705 -0.669860 -0.332121
v -0.403705 -0.669860 -0.332121
v -0.446952 -0.669860 0.437669
v -0.403705 -0.669860 0.368475
v -0.446952 0.515964 -0.401316
v -0.096820 0.365888 -0.401316
v 0.478527 0.515964 -0.401316
v -0.096820 0.339940 -0.401316
v 0.478527 -0.669860 -0.401316
v -0.093462 0.340382 -0.401316
v -0.090333 0.341678 -0.401316
v -0.093462 0.340382 -0.401316
v 0.478527 0.515964 -0.401316
v -0.278564 0.345033 -0.401316
v -0.446952 0.515964 -0.401316
v 0.478527 -0.669860 -0.401316
v 0.478527 -0.669860 -0.401316
v -0.446952 -0.669860 -0.401316
v -0.377757 -0.669860 -0.358069
v 0.478527 -0.669860 -0.401316
v 0.435281 -0.669860 0.368475
v 0.478527 -0.669860 0.437669
v -0.400228 -0.669860 -0.345095
v -0.446952 -0.669860 -0.401316
v -0.402821 -0.669860 -0.338837
v -0.403705 -0.669860 0.368475
v -0.446952 -0.669860 0.437669
v -0.402821 -0.669860 0.375190
v -0.403705 -0.669860 -0.332121
v -0.403705 -0.669860 0.368475
v -0.402821 -0.669860 -0.325406
v -0.096820 0.365888 -0.401316
v -0.093462 0.365446 -0.401316
v 0.478527 0.515964 -0.401316
v -0.096820 0.365888 -0.401316
v -0.446952 0.515964 -0.401316
v -0.269931 0.365780 -0.401316
v -0.096820 0.339940 -0.401316
v -0.266586 0.340048 -0.401316
v 0.478527 -0.669860 -0.401316
v -0.087646 0.343740 -0.401316
v -0.090333 0.341678 -0.401316
v 0.478527 0.515964 -0.401316
v -0.280253 0.347969 -0.401316
v -0.446952 0.515964 -0.401316
v -0.278564 0.345033 -0.401316
v -0.276173 0.342634 -0.401316
v -0.278564 0.345033 -0.401316
v 0.478527 -0.669860 -0.401316
v -0.377757 -0.669860 -0.358069
v -0.446952 -0.669860 -0.401316
v -0.384473 -0.669860 -0.357185
v -0.371041 -0.669860 -0.357185
v 0.478527 -0.669860 -0.401316
v -0.377757 -0.669860 -0.358069
v 0.478527 -0.669860 0.437669
v -0.377757 -0.669860 0.394423
v -0.446952 -0.669860 0.437669
v 0.435281 -0.669860 0.368475
v 0.434396 -0.669860 0.375190
v 0.478527 -0.669860 0.437669
v 0.435281 -0.669860 0.368475
v 0.478527 -0.669860 -0.401316
v 0.435281 -0.669860 -0.332121
v -0.396105 -0.669860 -0.350469
v -0.446952 -0.669860 -0.401316
v -0.400228 -0.669860 -0.345095
v -0.402821 -0.669860 0.375190
v -0.446952 -0.669860 0.437669
v -0.400228 -0.669860 0.381449
v -0.402821 -0.669860 0.361759
v -0.402821 -0.669860 -0.325406
v -0.403705 -0.669860 0.368475
v -0.093462 0.365446 -0.401316
v -0.090333 0.364150 -0.401316
v 0.478527 0.515964 -0.401316
v -0.269931 0.365780 -0.401316
v -0.446952 0.515964 -0.401316
v -0.273203 0.364909 -0.401316
v -0.269931 0.365780 -0.401316
v -0.266544 0.365774 -0.401316
v -0.096820 0.365888 -0.401316
v -0.266586 0.340048 -0.401316
v -0.269973 0.340054 -0.401316
v 0.478527 -0.669860 -0.401316
v -0.096820 0.339940 -0.401316
v -0.100178 0.340382 -0.401316
v -0.266586 0.340048 -0.401316
v -0.085585 0.346427 -0.401316
v -0.087646 0.343740 -0.401316
v 0.478527 0.515964 -0.401316
v -0.281124 0.351242 -0.401316
v -0.446952 0.515964 -0.401316
v -0.280253 0.347969 -0.401316
v -0.273243 0.340936 -0.401316
v -0.276173 0.342634 -0.401316
v 0.478527 -0.669860 -0.401316
v -0.384473 -0.669860 -0.357185
v -0.446952 -0.669860 -0.401316
v -0.390731 -0.669860 -0.354593
v -0.364783 -0.669860 -0.354593
v 0.478527 -0.669860 -0.401316
v -0.371041 -0.669860 -0.357185
v -0.384473 -0.669860 0.393538
v -0.446952 -0.669860 0.437669
v -0.377757 -0.669860 0.394423
v -0.371041 -0.669860 0.393538
v -0.377757 -0.669860 0.394423
v 0.478527 -0.669860 0.437669
v 0.434396 -0.669860 0.375190
v 0.431804 -0.669860 0.381449
v 0.478527 -0.669860 0.437669
v 0.435281 -0.669860 -0.332121
v 0.478527 -0.669860 -0.401316
v 0.434396 -0.669860 -0.338837
v 0.435281 -0.669860 0.368475
v 0.435281 -0.669860 -0.332121
v 0.434396 -0.669860 0.361759
v -0.390731 -0.669860 -0.354593
v -0.446952 -0.669860 -0.401316
v -0.396105 -0.669860 -0.350469
v -0.400228 -0.669860 0.381449
v -0.446952 -0.669860 0.437669
v -0.396105 -0.669860 0.386823
v -0.400228 -0.669860 -0.319147
v -0.402821 -0.669860 -0.325406
v -0.402821 -0.669860 0.361759
v -0.090333 0.364150 -0.401316
v -0.087646 0.362088 -0.401316
v 0.478527 0.515964 -0.401316
v -0.273203 0.364909 -0.401316
v -0.446952 0.515964 -0.401316
v -0.276139 0.363220 -0.401316
v -0.096820 0.365888 -0.401316
v -0.266544 0.365774 -0.401316
v -0.100178 0.365446 -0.401316
v -0.269973 0.340054 -0.401316
v -0.273243 0.340936 -0.401316
v 0.478527 -0.669860 -0.401316
v -0.263313 0.340919 -0.401316
v -0.266586 0.340048 -0.401316
v -0.100178 0.340382 -0.401316
v -0.084288 0.349556 -0.401316
v -0.085585 0.346427 -0.401316
v 0.478527 0.515964 -0.401316
v -0.281119 0.354629 -0.401316
v -0.446952 0.515964 -0.401316
v -0.281124 0.351242 -0.401316
v -0.359409 -0.669860 -0.350469
v 0.478527 -0.669860 -0.401316
v -0.364783 -0.669860 -0.354593
v -0.390731 -0.669860 0.390946
v -0.446952 -0.669860 0.437669
v -0.384473 -0.669860 0.393538
v -0.364783 -0.669860 0.390946
v -0.371041 -0.669860 0.393538
v 0.478527 -0.669860 0.437669
v 0.431804 -0.669860 0.381449
v 0.427681 -0.669860 0.386823
v 0.478527 -0.669860 0.437669
v 0.434396 -0.669860 -0.338837
v 0.478527 -0.669860 -0.401316
v 0.431804 -0.669860 -0.345095
v 0.435281 -0.669860 -0.332121
v 0.434396 -0.669860 -0.325406
v 0.434396 -0.669860 0.361759
v -0.396105 -0.669860 0.386823
v -0.446952 -0.669860 0.437669
v -0.390731 -0.669860 0.390946
v -0.400228 -0.669860 0.355501
v -0.400228 -0.669860 -0.319147
v -0.402821 -0.669860 0.361759
v -0.087646 0.362088 -0.401316
v -0.085585 0.359401 -0.401316
v 0.478527 0.515964 -0.401316
v -0.276139 0.363220 -0.401316
v -0.446952 0.515964 -0.401316
v -0.278538 0.360829 -0.401316
v -0.266544 0.365774 -0.401316
v -0.263274 0.364892 -0.401316
v -0.100178 0.365446 -0.401316
v -0.103307 0.341678 -0.401316
v -0.263313 0.340919 -0.401316
v -0.100178 0.340382 -0.401316
v -0.083846 0.352914 -0.401316
v -0.084288 0.349556 -0.401316
v 0.478527 0.515964 -0.401316
v -0.280237 0.357899 -0.401316
v -0.446952 0.515964 -0.401316
v -0.281119 0.354629 -0.401316
v -0.355285 -0.669860 -0.345095
v 0.478527 -0.669860 -0.401316
v -0.359409 -0.669860 -0.350469
v -0.359409 -0.669860 0.386823
v -0.364783 -0.669860 0.390946
v 0.478527 -0.669860 0.437669
v 0.427681 -0.669860 0.386823
v 0.422307 -0.669860 0.390946
v 0.478527 -0.669860 0.437669
v 0.431804 -0.669860 -0.345095
v 0.478527 -0.669860 -0.401316
v 0.427681 -0.669860 -0.350469
v 0.434396 -0.669860 0.361759
v 0.434396 -0.669860 -0.325406
v 0.431804 -0.669860 0.355501
v -0.396105 -0.669860 -0.313773
v -0.400228 -0.669860 -0.319147
v -0.400228 -0.669860 0.355501
v -0.085585 0.359401 -0.401316
v -0.084288 0.356272 -0.401316
v 0.478527 0.515964 -0.401316
v -0.278538 0.360829 -0.401316
v -0.446952 0.515964 -0.401316
v -0.280237 0.357899 -0.401316
v -0.100178 0.365446 -0.401316
v -0.263274 0.364892 -0.401316
v -0.103307 0.364150 -0.401316
v -0.260377 0.342608 -0.401316
v -0.263313 0.340919 -0.401316
v -0.103307 0.341678 -0.401316
v -0.084288 0.356272 -0.401316
v -0.083846 0.352914 -0.401316
v 0.478527 0.515964 -0.401316
v -0.352693 -0.669860 -0.338837
v 0.478527 -0.669860 -0.401316
v -0.355285 -0.669860 -0.345095
v -0.355285 -0.669860 0.381449
v -0.359409 -0.669860 0.386823
v 0.478527 -0.669860 0.437669
v 0.422307 -0.669860 0.390946
v 0.416048 -0.669860 0.393538
v 0.478527 -0.669860 0.437669
v 0.427681 -0.669860 -0.350469
v 0.478527 -0.669860 -0.401316
v 0.422307 -0.669860 -0.354593
v 0.434396 -0.669860 -0.325406
v 0.431804 -0.669860 -0.319147
v 0.431804 -0.669860 0.355501
v -0.396105 -0.669860 0.350127
v -0.396105 -0.669860 -0.313773
v -0.400228 -0.669860 0.355501
v -0.263274 0.364892 -0.401316
v -0.260343 0.363194 -0.401316
v -0.103307 0.364150 -0.401316
v -0.105994 0.343740 -0.401316
v -0.260377 0.342608 -0.401316
v -0.103307 0.341678 -0.401316
v -0.351809 -0.669860 -0.332121
v 0.478527 -0.669860 -0.401316
v -0.352693 -0.669860 -0.338837
v -0.352693 -0.669860 0.375190
v -0.355285 -0.669860 0.381449
v 0.478527 -0.669860 0.437669
v 0.416048 -0.669860 0.393538
v 0.409333 -0.669860 0.394423
v 0.478527 -0.669860 0.437669
v 0.422307 -0.669860 -0.354593
v 0.478527 -0.669860 -0.401316
v 0.416048 -0.669860 -0.357185
v 0.431804 -0.669860 0.355501
v 0.431804 -0.669860 -0.319147
v 0.427681 -0.669860 0.350127
v -0.390731 -0.669860 -0.309650
v -0.396105 -0.669860 -0.313773
v -0.396105 -0.669860 0.350127
v -0.103307 0.364150 -0.401316
v -0.260343 0.363194 -0.401316
v -0.105994 0.362088 -0.401316
v -0.257978 0.344999 -0.401316
v -0.260377 0.342608 -0.401316
v -0.105994 0.343740 -0.401316
v 0.396359 -0.669860 -0.354593
v 0.478527 -0.669860 -0.401316
v -0.351809 -0.669860 -0.332121
v -0.351809 -0.669860 0.368475
v -0.352693 -0.669860 0.375190
v 0.478527 -0.669860 0.437669
v 0.409333 -0.669860 0.394423
v 0.402617 -0.669860 0.393538
v 0.478527 -0.669860 0.437669
v 0.416048 -0.669860 -0.357185
v 0.478527 -0.669860 -0.401316
v 0.409333 -0.669860 -0.358069
v 0.431804 -0.669860 -0.319147
v 0.427681 -0.669860 -0.313773
v 0.427681 -0.669860 0.350127
v -0.390731 -0.669860 0.346003
v -0.390731 -0.669860 -0.309650
v -0.396105 -0.669860 0.350127
v -0.260343 0.363194 -0.401316
v -0.257952 0.360795 -0.401316
v -0.105994 0.362088 -0.401316
v -0.108056 0.346427 -0.401316
v -0.257978 0.344999 -0.401316
v -0.105994 0.343740 -0.401316
v -0.384473 -0.669860 -0.307058
v -0.390731 -0.669860 -0.309650
v -0.390731 -0.669860 0.346003
v -0.377757 -0.669860 -0.306173
v -0.384473 -0.669860 -0.307058
v -0.384473 -0.669860 0.343411
v -0.371041 -0.669860 -0.307058
v -0.377757 -0.669860 -0.306173
v -0.377757 -0.669860 0.342527
v -0.364783 -0.669860 -0.309650
v -0.371041 -0.669860 -0.307058
v -0.371041 -0.669860 0.343411
v 0.402617 -0.669860 -0.357185
v 0.478527 -0.669860 -0.401316
v 0.396359 -0.669860 -0.354593
v 0.390985 -0.669860 -0.350469
v 0.396359 -0.669860 -0.354593
v -0.351809 -0.669860 -0.332121
v -0.359409 -0.669860 -0.313773
v -0.364783 -0.669860 -0.309650
v -0.364783 -0.669860 0.346003
v 0.396359 -0.669860 0.390946
v -0.351809 -0.669860 0.368475
v 0.478527 -0.669860 0.437669
v 0.402617 -0.669860 0.393538
v 0.396359 -0.669860 0.390946
v 0.478527 -0.669860 0.437669
v 0.409333 -0.669860 -0.358069
v 0.478527 -0.669860 -0.401316
v 0.402617 -0.669860 -0.357185
v 0.427681 -0.669860 0.350127
v 0.427681 -0.669860 -0.313773
v 0.422307 -0.669860 0.346003
v -0.105994 0.362088 -0.401316
v -0.257952 0.360795 -0.401316
v -0.108056 0.359401 -0.401316
v -0.256280 0.347929 -0.401316
v -0.257978 0.344999 -0.401316
v -0.108056 0.346427 -0.401316
v -0.384473 -0.669860 0.343411
v -0.384473 -0.669860 -0.307058
v -0.390731 -0.669860 0.346003
v -0.377757 -0.669860 0.342527
v -0.377757 -0.669860 -0.306173
v -0.384473 -0.669860 0.343411
v -0.371041 -0.669860 0.343411
v -0.371041 -0.669860 -0.307058
v -0.377757 -0.669860 0.342527
v -0.364783 -0.669860 0.346003
v -0.364783 -0.669860 -0.309650
v -0.371041 -0.669860 0.343411
v -0.351809 -0.669860 0.368475
v 0.390985 -0.669860 -0.350469
v -0.351809 -0.669860 -0.332121
v -0.355285 -0.669860 -0.319147
v -0.359409 -0.669860 -0.313773
v -0.359409 -0.669860 0.350127
v -0.359409 -0.669860 0.350127
v -0.359409 -0.669860 -0.313773
v -0.364783 -0.669860 0.346003
v 0.390985 -0.669860 0.386823
v -0.351809 -0.669860 0.368475
v 0.396359 -0.669860 0.390946
v 0.427681 -0.669860 -0.313773
v 0.422307 -0.669860 -0.309650
v 0.422307 -0.669860 0.346003
v -0.257952 0.360795 -0.401316
v -0.256264 0.357859 -0.401316
v -0.108056 0.359401 -0.401316
v -0.109352 0.349556 -0.401316
v -0.256280 0.347929 -0.401316
v -0.108056 0.346427 -0.401316
v 0.386861 -0.669860 -0.345095
v 0.390985 -0.669860 -0.350469
v -0.351809 -0.669860 0.368475
v -0.351809 -0.669860 0.368475
v -0.351809 -0.669860 -0.332121
v -0.352693 -0.669860 0.361759
v -0.355285 -0.669860 0.355501
v -0.355285 -0.669860 -0.319147
v -0.359409 -0.669860 0.350127
v 0.386861 -0.669860 0.381449
v -0.351809 -0.669860 0.368475
v 0.390985 -0.669860 0.386823
v 0.422307 -0.669860 0.346003
v 0.422307 -0.669860 -0.309650
v 0.416048 -0.669860 0.343411
v -0.108056 0.359401 -0.401316
v -0.256264 0.357859 -0.401316
v -0.109352 0.356272 -0.401316
v -0.255398 0.351199 -0.401316
v -0.256280 0.347929 -0.401316
v -0.109352 0.349556 -0.401316
v 0.384269 -0.669860 -0.338837
v 0.386861 -0.669860 -0.345095
v -0.351809 -0.669860 0.368475
v -0.351809 -0.669860 -0.332121
v -0.352693 -0.669860 -0.325406
v -0.352693 -0.669860 0.361759
v -0.352693 -0.669860 -0.325406
v -0.355285 -0.669860 -0.319147
v -0.355285 -0.669860 0.355501
v -0.352693 -0.669860 0.361759
v -0.352693 -0.669860 -0.325406
v -0.355285 -0.669860 0.355501
v 0.384269 -0.669860 0.375190
v -0.351809 -0.669860 0.368475
v 0.386861 -0.669860 0.381449
v 0.416048 -0.669860 0.343411
v 0.416048 -0.669860 -0.307058
v 0.409333 -0.669860 0.342527
v 0.422307 -0.669860 -0.309650
v 0.416048 -0.669860 -0.307058
v 0.416048 -0.669860 0.343411
v -0.256264 0.357859 -0.401316
v -0.255393 0.354586 -0.401316
v -0.109352 0.356272 -0.401316
v -0.109794 0.352914 -0.401316
v -0.255398 0.351199 -0.401316
v -0.109352 0.349556 -0.401316
v 0.383385 -0.669860 -0.332121
v 0.384269 -0.669860 -0.338837
v -0.351809 -0.669860 0.368475
v 0.383385 -0.669860 0.368475
v -0.351809 -0.669860 0.368475
v 0.384269 -0.669860 0.375190
v 0.409333 -0.669860 0.342527
v 0.409333 -0.669860 -0.306173
v 0.402617 -0.669860 0.343411
v 0.416048 -0.669860 -0.307058
v 0.409333 -0.669860 -0.306173
v 0.409333 -0.669860 0.342527
v -0.109352 0.356272 -0.401316
v -0.255393 0.354586 -0.401316
v -0.109794 0.352914 -0.401316
v -0.255393 0.354586 -0.401316
v -0.255398 0.351199 -0.401316
v -0.109794 0.352914 -0.401316
v 0.383385 -0.669860 -0.332121
v -0.351809 -0.669860 0.368475
v 0.383385 -0.669860 0.368475
v 0.402617 -0.669860 0.343411
v 0.402617 -0.669860 -0.307058
v 0.396359 -0.669860 0.346003
v 0.409333 -0.669860 -0.306173
v 0.402617 -0.669860 -0.307058
v 0.402617 -0.669860 0.343411
v 0.383385 -0.669860 -0.332121
v 0.383385 -0.669860 0.368475
v 0.384269 -0.669860 -0.325406
v 0.396359 -0.669860 0.346003
v 0.396359 -0.669860 -0.309650
v 0.390985 -0.669860 0.350127
v 0.402617 -0.669860 -0.307058
v 0.396359 -0.669860 -0.309650
v 0.396359 -0.669860 0.346003
v 0.396359 -0.669860 -0.309650
v 0.390985 -0.669860 -0.313773
v 0.390985 -0.669860 0.350127
v 0.390985 -0.669860 -0.313773
v 0.386861 -0.669860 -0.319147
v 0.386861 -0.669860 0.355501
v 0.386861 -0.669860 -0.319147
v 0.384269 -0.669860 -0.325406
v 0.384269 -0.669860 0.361759
v 0.384269 -0.669860 0.361759
v 0.384269 -0.669860 -0.325406
v 0.383385 -0.669860 0.368475
v 0.390985 -0.669860 0.350127
v 0.390985 -0.669860 -0.313773
v 0.386861 -0.669860 0.355501
v 0.386861 -0.669860 0.355501
v 0.386861 -0.669860 -0.319147
v 0.384269 -0.669860 0.361759
v 0.478527 0.558346 -0.401316
v 0.478527 0.786447 -0.435913
v 0.478527 0.558346 -0.343083
v -0.446952 0.786447 -0.435913
v 0.478527 0.786447 -0.435913
v -0.446952 0.515964 -0.435913
v -0.446952 0.558346 -0.343083
v -0.446952 0.786447 -0.435913
v -0.446952 0.558346 -0.401316
v 0.478527 0.786447 -0.435913
v 0.478527 0.558346 -0.401316
v 0.478527 0.515964 -0.435913
v 0.478527 0.515964 -0.435913
v -0.446952 0.515964 -0.435913
v 0.478527 0.786447 -0.435913
v -0.446952 0.515964 -0.435913
v -0.446952 0.558346 -0.401316
v -0.446952 0.786447 -0.435913
v 0.478527 0.515964 -0.435913
v 0.478527 0.558346 -0.401316
v 0.478527 0.515964 -0.401316
v 0.478527 0.515964 -0.435913
v 0.478527 0.515964 -0.401316
v -0.446952 0.515964 -0.435913
v -0.446952 0.515964 -0.401316
v -0.446952 0.558346 -0.401316
v -0.446952 0.515964 -0.435913
v -0.446952 -0.669860 -0.401316
v -0.403705 -0.669860 -0.332121
v -0.446952 -0.669860 0.437669
v 0.478527 -0.669860 -0.401316
v -0.093462 0.340382 -0.401316
v 0.478527 0.515964 -0.401316
v -0.446952 0.515964 -0.401316
v -0.446952 0.515964 -0.435913
v 0.478527 0.515964 -0.401316
v -0.446952 0.515964 -0.401316
v 0.478527 -0.669860 -0.401316
v -0.446952 -0.669860 -0.401316
v -0.403705 -0.669860 -0.332121
v -0.446952 -0.669860 -0.401316
v -0.402821 -0.669860 -0.338837
v -0.403705 -0.669860 0.368475
v -0.446952 -0.669860 0.437669
v -0.403705 -0.669860 -0.332121
v 0.478527 0.515964 -0.401316
v -0.096820 0.365888 -0.401316
v -0.446952 0.515964 -0.401316
v -0.093462 0.340382 -0.401316
v 0.478527 -0.669860 -0.401316
v -0.096820 0.339940 -0.401316
v 0.478527 0.515964 -0.401316
v -0.093462 0.340382 -0.401316
v -0.090333 0.341678 -0.401316
v 0.478527 -0.669860 -0.401316
v -0.446952 0.515964 -0.401316
v -0.278564 0.345033 -0.401316
v -0.377757 -0.669860 -0.358069
v -0.446952 -0.669860 -0.401316
v 0.478527 -0.669860 -0.401316
v 0.478527 -0.669860 0.437669
v 0.435281 -0.669860 0.368475
v 0.478527 -0.669860 -0.401316
v -0.402821 -0.669860 -0.338837
v -0.446952 -0.669860 -0.401316
v -0.400228 -0.669860 -0.345095
v -0.402821 -0.669860 0.375190
v -0.446952 -0.669860 0.437669
v -0.403705 -0.669860 0.368475
v -0.402821 -0.669860 -0.325406
v -0.403705 -0.669860 0.368475
v -0.403705 -0.669860 -0.332121
v 0.478527 0.515964 -0.401316
v -0.093462 0.365446 -0.401316
v -0.096820 0.365888 -0.401316
v -0.269931 0.365780 -0.401316
v -0.446952 0.515964 -0.401316
v -0.096820 0.365888 -0.401316
v 0.478527 -0.669860 -0.401316
v -0.266586 0.340048 -0.401316
v -0.096820 0.339940 -0.401316
v 0.478527 0.515964 -0.401316
v -0.090333 0.341678 -0.401316
v -0.087646 0.343740 -0.401316
v -0.278564 0.345033 -0.401316
v -0.446952 0.515964 -0.401316
v -0.280253 0.347969 -0.401316
v 0.478527 -0.669860 -0.401316
v -0.278564 0.345033 -0.401316
v -0.276173 0.342634 -0.401316
v -0.384473 -0.669860 -0.357185
v -0.446952 -0.669860 -0.401316
v -0.377757 -0.669860 -0.358069
v -0.377757 -0.669860 -0.358069
v 0.478527 -0.669860 -0.401316
v -0.371041 -0.669860 -0.357185
v -0.446952 -0.669860 0.437669
v -0.377757 -0.669860 0.394423
v 0.478527 -0.669860 0.437669
v 0.478527 -0.669860 0.437669
v 0.434396 -0.669860 0.375190
v 0.435281 -0.669860 0.368475
v 0.435281 -0.669860 -0.332121
v 0.478527 -0.669860 -0.401316
v 0.435281 -0.669860 0.368475
v -0.400228 -0.669860 -0.345095
v -0.446952 -0.669860 -0.401316
v -0.396105 -0.669860 -0.350469
v -0.400228 -0.669860 0.381449
v -0.446952 -0.669860 0.437669
v -0.402821 -0.669860 0.375190
v -0.403705 -0.669860 0.368475
v -0.402821 -0.669860 -0.325406
v -0.402821 -0.669860 0.361759
v 0.478527 0.515964 -0.401316
v -0.090333 0.364150 -0.401316
v -0.093462 0.365446 -0.401316
v -0.273203 0.364909 -0.401316
v -0.446952 0.515964 -0.401316
v -0.269931 0.365780 -0.401316
v -0.096820 0.365888 -0.401316
v -0.266544 0.365774 -0.401316
v -0.269931 0.365780 -0.401316
v 0.478527 -0.669860 -0.401316
v -0.269973 0.340054 -0.401316
v -0.266586 0.340048 -0.401316
v -0.266586 0.340048 -0.401316
v -0.100178 0.340382 -0.401316
v -0.096820 0.339940 -0.401316
v 0.478527 0.515964 -0.401316
v -0.087646 0.343740 -0.401316
v -0.085585 0.346427 -0.401316
v -0.280253 0.347969 -0.401316
v -0.446952 0.515964 -0.401316
v -0.281124 0.351242 -0.401316
v 0.478527 -0.669860 -0.401316
v -0.276173 0.342634 -0.401316
v -0.273243 0.340936 -0.401316
v -0.390731 -0.669860 -0.354593
v -0.446952 -0.669860 -0.401316
v -0.384473 -0.669860 -0.357185
v -0.371041 -0.669860 -0.357185
v 0.478527 -0.669860 -0.401316
v -0.364783 -0.669860 -0.354593
v -0.377757 -0.669860 0.394423
v -0.446952 -0.669860 0.437669
v -0.384473 -0.669860 0.393538
v 0.478527 -0.669860 0.437669
v -0.377757 -0.669860 0.394423
v -0.371041 -0.669860 0.393538
v 0.478527 -0.669860 0.437669
v 0.431804 -0.669860 0.381449
v 0.434396 -0.669860 0.375190
v 0.434396 -0.669860 -0.338837
v 0.478527 -0.669860 -0.401316
v 0.435281 -0.669860 -0.332121
v 0.434396 -0.669860 0.361759
v 0.435281 -0.669860 -0.332121
v 0.435281 -0.669860 0.368475
v -0.396105 -0.669860 -0.350469
v -0.446952 -0.669860 -0.401316
v -0.390731 -0.669860 -0.354593
v -0.396105 -0.669860 0.386823
v -0.446952 -0.669860 0.437669
v -0.400228 -0.669860 0.381449
v -0.402821 -0.669860 0.361759
v -0.402821 -0.669860 -0.325406
v -0.400228 -0.669860 -0.319147
v 0.478527 0.515964 -0.401316
v -0.087646 0.362088 -0.401316
v -0.090333 0.364150 -0.401316
v -0.276139 0.363220 -0.401316
v -0.446952 0.515964 -0.401316
v -0.273203 0.364909 -0.401316
v -0.100178 0.365446 -0.401316
v -0.266544 0.365774 -0.401316
v -0.096820 0.365888 -0.401316
v 0.478527 -0.669860 -0.401316
v -0.273243 0.340936 -0.401316
v -0.269973 0.340054 -0.401316
v -0.100178 0.340382 -0.401316
v -0.266586 0.340048 -0.401316
v -0.263313 0.340919 -0.401316
v 0.478527 0.515964 -0.401316
v -0.085585 0.346427 -0.401316
v -0.084288 0.349556 -0.401316
v -0.281124 0.351242 -0.401316
v -0.446952 0.515964 -0.401316
v -0.281119 0.354629 -0.401316
v -0.364783 -0.669860 -0.354593
v 0.478527 -0.669860 -0.401316
v -0.359409 -0.669860 -0.350469
v -0.384473 -0.669860 0.393538
v -0.446952 -0.669860 0.437669
v -0.390731 -0.669860 0.390946
v 0.478527 -0.669860 0.437669
v -0.371041 -0.669860 0.393538
v -0.364783 -0.669860 0.390946
v 0.478527 -0.669860 0.437669
v 0.427681 -0.669860 0.386823
v 0.431804 -0.669860 0.381449
v 0.431804 -0.669860 -0.345095
v 0.478527 -0.669860 -0.401316
v 0.434396 -0.669860 -0.338837
v 0.434396 -0.669860 0.361759
v 0.434396 -0.669860 -0.325406
v 0.435281 -0.669860 -0.332121
v -0.390731 -0.669860 0.390946
v -0.446952 -0.669860 0.437669
v -0.396105 -0.669860 0.386823
v -0.402821 -0.669860 0.361759
v -0.400228 -0.669860 -0.319147
v -0.400228 -0.669860 0.355501
v 0.478527 0.515964 -0.401316
v -0.085585 0.359401 -0.401316
v -0.087646 0.362088 -0.401316
v -0.278538 0.360829 -0.401316
v -0.446952 0.515964 -0.401316
v -0.276139 0.363220 -0.401316
v -0.100178 0.365446 -0.401316
v -0.263274 0.364892 -0.401316
v -0.266544 0.365774 -0.401316
v -0.100178 0.340382 -0.401316
v -0.263313 0.340919 -0.401316
v -0.103307 0.341678 -0.401316
v 0.478527 0.515964 -0.401316
v -0.084288 0.349556 -0.401316
v -0.083846 0.352914 -0.401316
v -0.281119 0.354629 -0.401316
v -0.446952 0.515964 -0.401316
v -0.280237 0.357899 -0.401316
v -0.359409 -0.669860 -0.350469
v 0.478527 -0.669860 -0.401316
v -0.355285 -0.669860 -0.345095
v 0.478527 -0.669860 0.437669
v -0.364783 -0.669860 0.390946
v -0.359409 -0.669860 0.386823
v 0.478527 -0.669860 0.437669
v 0.422307 -0.669860 0.390946
v 0.427681 -0.669860 0.386823
v 0.427681 -0.669860 -0.350469
v 0.478527 -0.669860 -0.401316
v 0.431804 -0.669860 -0.345095
v 0.431804 -0.669860 0.355501
v 0.434396 -0.669860 -0.325406
v 0.434396 -0.669860 0.361759
v -0.400228 -0.669860 0.355501
v -0.400228 -0.669860 -0.319147
v -0.396105 -0.669860 -0.313773
v 0.478527 0.515964 -0.401316
v -0.084288 0.356272 -0.401316
v -0.085585 0.359401 -0.401316
v -0.280237 0.357899 -0.401316
v -0.446952 0.515964 -0.401316
v -0.278538 0.360829 -0.401316
v -0.103307 0.364150 -0.401316
v -0.263274 0.364892 -0.401316
v -0.100178 0.365446 -0.401316
v -0.103307 0.341678 -0.401316
v -0.263313 0.340919 -0.401316
v -0.260377 0.342608 -0.401316
v 0.478527 0.515964 -0.401316
v -0.083846 0.352914 -0.401316
v -0.084288 0.356272 -0.401316
v -0.355285 -0.669860 -0.345095
v 0.478527 -0.669860 -0.401316
v -0.352693 -0.669860 -0.338837
v 0.478527 -0.669860 0.437669
v -0.359409 -0.669860 0.386823
v -0.355285 -0.669860 0.381449
v 0.478527 -0.669860 0.437669
v 0.416048 -0.669860 0.393538
v 0.422307 -0.669860 0.390946
v 0.422307 -0.669860 -0.354593
v 0.478527 -0.669860 -0.401316
v 0.427681 -0.669860 -0.350469
v 0.431804 -0.669860 0.355501
v 0.431804 -0.669860 -0.319147
v 0.434396 -0.669860 -0.325406
v -0.400228 -0.669860 0.355501
v -0.396105 -0.669860 -0.313773
v -0.396105 -0.669860 0.350127
v -0.103307 0.364150 -0.401316
v -0.260343 0.363194 -0.401316
v -0.263274 0.364892 -0.401316
v -0.103307 0.341678 -0.401316
v -0.260377 0.342608 -0.401316
v -0.105994 0.343740 -0.401316
v -0.352693 -0.669860 -0.338837
v 0.478527 -0.669860 -0.401316
v -0.351809 -0.669860 -0.332121
v 0.478527 -0.669860 0.437669
v -0.355285 -0.669860 0.381449
v -0.352693 -0.669860 0.375190
v 0.478527 -0.669860 0.437669
v 0.409333 -0.669860 0.394423
v 0.416048 -0.669860 0.393538
v 0.416048 -0.669860 -0.357185
v 0.478527 -0.669860 -0.401316
v 0.422307 -0.669860 -0.354593
v 0.427681 -0.669860 0.350127
v 0.431804 -0.669860 -0.319147
v 0.431804 -0.669860 0.355501
v -0.396105 -0.669860 0.350127
v -0.396105 -0.669860 -0.313773
v -0.390731 -0.669860 -0.309650
v -0.105994 0.362088 -0.401316
v -0.260343 0.363194 -0.401316
v -0.103307 0.364150 -0.401316
v -0.105994 0.343740 -0.401316
v -0.260377 0.342608 -0.401316
v -0.257978 0.344999 -0.401316
v -0.351809 -0.669860 -0.332121
v 0.478527 -0.669860 -0.401316
v 0.396359 -0.669860 -0.354593
v 0.478527 -0.669860 0.437669
v -0.352693 -0.669860 0.375190
v -0.351809 -0.669860 0.368475
v 0.478527 -0.669860 0.437669
v 0.402617 -0.669860 0.393538
v 0.409333 -0.669860 0.394423
v 0.409333 -0.669860 -0.358069
v 0.478527 -0.669860 -0.401316
v 0.416048 -0.669860 -0.357185
v 0.427681 -0.669860 0.350127
v 0.427681 -0.669860 -0.313773
v 0.431804 -0.669860 -0.319147
v -0.396105 -0.669860 0.350127
v -0.390731 -0.669860 -0.309650
v -0.390731 -0.669860 0.346003
v -0.105994 0.362088 -0.401316
v -0.257952 0.360795 -0.401316
v -0.260343 0.363194 -0.401316
v -0.105994 0.343740 -0.401316
v -0.257978 0.344999 -0.401316
v -0.108056 0.346427 -0.401316
v -0.390731 -0.669860 0.346003
v -0.390731 -0.669860 -0.309650
v -0.384473 -0.669860 -0.307058
v -0.384473 -0.669860 0.343411
v -0.384473 -0.669860 -0.307058
v -0.377757 -0.669860 -0.306173
v -0.377757 -0.669860 0.342527
v -0.377757 -0.669860 -0.306173
v -0.371041 -0.669860 -0.307058
v -0.371041 -0.669860 0.343411
v -0.371041 -0.669860 -0.307058
v -0.364783 -0.669860 -0.309650
v 0.396359 -0.669860 -0.354593
v 0.478527 -0.669860 -0.401316
v 0.402617 -0.669860 -0.357185
v -0.351809 -0.669860 -0.332121
v 0.396359 -0.669860 -0.354593
v 0.390985 -0.669860 -0.350469
v -0.364783 -0.669860 0.346003
v -0.364783 -0.669860 -0.309650
v -0.359409 -0.669860 -0.313773
v 0.478527 -0.669860 0.437669
v -0.351809 -0.669860 0.368475
v 0.396359 -0.669860 0.390946
v 0.478527 -0.669860 0.437669
v 0.396359 -0.669860 0.390946
v 0.402617 -0.669860 0.393538
v 0.402617 -0.669860 -0.357185
v 0.478527 -0.669860 -0.401316
v 0.409333 -0.669860 -0.358069
v 0.422307 -0.669860 0.346003
v 0.427681 -0.669860 -0.313773
v 0.427681 -0.669860 0.350127
v -0.108056 0.359401 -0.401316
v -0.257952 0.360795 -0.401316
v -0.105994 0.362088 -0.401316
v -0.108056 0.346427 -0.401316
v -0.257978 0.344999 -0.401316
v -0.256280 0.347929 -0.401316
v -0.390731 -0.669860 0.346003
v -0.384473 -0.669860 -0.307058
v -0.384473 -0.669860 0.343411
v -0.384473 -0.669860 0.343411
v -0.377757 -0.669860 -0.306173
v -0.377757 -0.669860 0.342527
v -0.377757 -0.669860 0.342527
v -0.371041 -0.669860 -0.307058
v -0.371041 -0.669860 0.343411
v -0.371041 -0.669860 0.343411
v -0.364783 -0.669860 -0.309650
v -0.364783 -0.669860 0.346003
v -0.351809 -0.669860 -0.332121
v 0.390985 -0.669860 -0.350469
v -0.351809 -0.669860 0.368475
v -0.359409 -0.669860 0.350127
v -0.359409 -0.669860 -0.313773
v -0.355285 -0.669860 -0.319147
v -0.364783 -0.669860 0.346003
v -0.359409 -0.669860 -0.313773
v -0.359409 -0.669860 0.350127
v 0.396359 -0.669860 0.390946
v -0.351809 -0.669860 0.368475
v 0.390985 -0.669860 0.386823
v 0.422307 -0.669860 0.346003
v 0.422307 -0.669860 -0.309650
v 0.427681 -0.669860 -0.313773
v -0.108056 0.359401 -0.401316
v -0.256264 0.357859 -0.401316
v -0.257952 0.360795 -0.401316
v -0.108056 0.346427 -0.401316
v -0.256280 0.347929 -0.401316
v -0.109352 0.349556 -0.401316
v -0.351809 -0.669860 0.368475
v 0.390985 -0.669860 -0.350469
v 0.386861 -0.669860 -0.345095
v -0.352693 -0.669860 0.361759
v -0.351809 -0.669860 -0.332121
v -0.351809 -0.669860 0.368475
v -0.359409 -0.669860 0.350127
v -0.355285 -0.669860 -0.319147
v -0.355285 -0.669860 0.355501
v 0.390985 -0.669860 0.386823
v -0.351809 -0.669860 0.368475
v 0.386861 -0.669860 0.381449
v 0.416048 -0.669860 0.343411
v 0.422307 -0.669860 -0.309650
v 0.422307 -0.669860 0.346003
v -0.109352 0.356272 -0.401316
v -0.256264 0.357859 -0.401316
v -0.108056 0.359401 -0.401316
v -0.109352 0.349556 -0.401316
v -0.256280 0.347929 -0.401316
v -0.255398 0.351199 -0.401316
v -0.351809 -0.669860 0.368475
v 0.386861 -0.669860 -0.345095
v 0.384269 -0.669860 -0.338837
v -0.352693 -0.669860 0.361759
v -0.352693 -0.669860 -0.325406
v -0.351809 -0.669860 -0.332121
v -0.355285 -0.669860 0.355501
v -0.355285 -0.669860 -0.319147
v -0.352693 -0.669860 -0.325406
v -0.355285 -0.669860 0.355501
v -0.352693 -0.669860 -0.325406
v -0.352693 -0.669860 0.361759
v 0.386861 -0.669860 0.381449
v -0.351809 -0.669860 0.368475
v 0.384269 -0.669860 0.375190
v 0.409333 -0.669860 0.342527
v 0.416048 -0.669860 -0.307058
v 0.416048 -0.669860 0.343411
v 0.416048 -0.669860 0.343411
v 0.416048 -0.669860 -0.307058
v 0.422307 -0.669860 -0.309650
v -0.109352 0.356272 -0.401316
v -0.255393 0.354586 -0.401316
v -0.256264 0.357859 -0.401316
v -0.109352 0.349556 -0.401316
v -0.255398 0.351199 -0.401316
v -0.109794 0.352914 -0.401316
v -0.351809 -0.669860 0.368475
v 0.384269 -0.669860 -0.338837
v 0.383385 -0.669860 -0.332121
v 0.384269 -0.669860 0.375190
v -0.351809 -0.669860 0.368475
v 0.383385 -0.669860 0.368475
v 0.402617 -0.669860 0.343411
v 0.409333 -0.669860 -0.306173
v 0.409333 -0.669860 0.342527
v 0.409333 -0.669860 0.342527
v 0.409333 -0.669860 -0.306173
v 0.416048 -0.669860 -0.307058
v -0.109794 0.352914 -0.401316
v -0.255393 0.354586 -0.401316
v -0.109352 0.356272 -0.401316
v -0.109794 0.352914 -0.401316
v -0.255398 0.351199 -0.401316
v -0.255393 0.354586 -0.401316
v 0.383385 -0.669860 0.368475
v -0.351809 -0.669860 0.368475
v 0.383385 -0.669860 -0.332121
v 0.396359 -0.669860 0.346003
v 0.402617 -0.669860 -0.307058
v 0.402617 -0.669860 0.343411
v 0.402617 -0.669860 0.343411
v 0.402617 -0.669860 -0.307058
v 0.409333 -0.669860 -0.306173
v 0.384269 -0.669860 -0.325406
v 0.383385 -0.669860 0.368475
v 0.383385 -0.669860 -0.332121
v 0.390985 -0.669860 0.350127
v 0.396359 -0.669860 -0.309650
v 0.396359 -0.669860 0.346003
v 0.396359 -0.669860 0.346003
v 0.396359 -0.669860 -0.309650
v 0.402617 -0.669860 -0.307058
v 0.390985 -0.669860 0.350127
v 0.390985 -0.669860 -0.313773
v 0.396359 -0.669860 -0.309650
v 0.386861 -0.669860 0.355501
v 0.386861 -0.669860 -0.319147
v 0.390985 -0.669860 -0.313773
v 0.384269 -0.669860 0.361759
v 0.384269 -0.669860 -0.325406
v 0.386861 -0.669860 -0.319147
v 0.383385 -0.669860 0.368475
v 0.384269 -0.669860 -0.325406
v 0.384269 -0.669860 0.361759
v 0.386861 -0.669860 0.355501
v 0.390985 -0.669860 -0.313773
v 0.390985 -0.669860 0.350127
v 0.384269 -0.669860 0.361759
v 0.386861 -0.669860 -0.319147
v 0.386861 -0.669860 0.355501
vt 0 0
vt 1.6642999649047852 1.5208330154418945
vt 1.7059669494628906 1.7955429553985596
vt 1.594167947769165 1.5208330154418945
vt 0.7692739963531494 1.7955429553985596
vt 1.8838579654693604 1.7955429553985596
vt 0.7692739963531494 1.4697920083999634
vt 1.7059669494628906 1.4697920083999634
vt 1.8838579654693604 1.4697920083999634
vt 1.6642999649047852 1.4697920083999634
vt 1.8838579654693604 1.7059669494628906
vt 1.8838579654693604 1.6642999649047852
vt 0.7692739963531494 1.7059669494628906
vt -0.7692739963531494 1.6642999649047852
vt -0.8213580250740051 1.5809669494628906
vt -0.7692739963531494 0.6538829803466797
vt -1.8838579654693604 0.04166699945926666
vt -1.194993019104004 1.2583329677581787
vt -1.8838579654693604 1.4697920083999634
vt 0.7692739963531494 1.6642999649047852
vt -0.7692739963531494 1.4697920083999634
vt -0.7692739963531494 0.04166699945926666
vt -0.822422981262207 1.5890549421310425
vt -0.8213580250740051 0.7372170090675354
vt -1.1909480094909668 1.2890499830245972
vt -1.1909480094909668 1.2577999830245972
vt -1.198760986328125 1.2598940134048462
vt -0.9720680117607117 1.2639340162277222
vt -0.8526080250740051 1.6122169494628906
vt -1.8838579654693604 1.6642999649047852
vt -1.8838579654693604 0.6538829803466797
vt -1.8317739963531494 0.7372170090675354
vt -0.825543999671936 1.5965919494628906
vt -0.822422981262207 0.7291280031204224
vt -0.822422981262207 1.5728780031204224
vt -1.194993019104004 1.288517951965332
vt -0.9824659824371338 1.2889200448989868
vt -0.9864940047264099 1.2579309940338135
vt -1.2019970417022705 1.2623770236968994
vt -0.9700350165367126 1.2674700021743774
vt -0.974947988986969 1.261044979095459
vt -0.8445199728012085 1.6111520528793335
vt -0.860696017742157 1.6111520528793335
vt -0.8526080250740051 0.7059670090675354
vt -1.8307100534439087 0.7291280031204224
vt -1.8317739963531494 1.5809669494628906
vt -0.8305109739303589 1.603063941001892
vt -0.825543999671936 0.7215920090675354
vt -0.822422981262207 0.7453050017356873
vt -1.198760986328125 1.286957025527954
vt -0.9785249829292297 1.28787100315094
vt -0.9865450263023376 1.2889130115509033
vt -0.9824150204658508 1.257936954498291
vt -1.186903953552246 1.2583329677581787
vt -1.2044800519943237 1.2656129598617554
vt -0.9689859747886658 1.2714120149612427
vt -0.9784770011901855 1.2589999437332153
vt -0.8369830250740051 1.6080299615859985
vt -0.8682330250740051 1.6080299615859985
vt -0.8445199728012085 0.7070310115814209
vt -0.860696017742157 0.7070310115814209
vt -1.8275879621505737 0.7215920090675354
vt -1.8307100534439087 1.5890549421310425
vt -1.8307100534439087 0.7453050017356873
vt -0.8305109739303589 0.7151190042495728
vt -0.825543999671936 1.5653419494628906
vt -1.2019970417022705 1.2844740152359009
vt -0.9749889969825745 1.2858370542526245
vt -1.186903953552246 1.288517951965332
vt -0.9904360175132751 1.2589800357818604
vt -1.2060409784317017 1.269381046295166
vt -0.9689919948577881 1.2754900455474854
vt -0.8747050166130066 1.603063941001892
vt -0.8369830250740051 0.7101529836654663
vt -0.8682330250740051 0.7101529836654663
vt -1.8226219415664673 0.7151190042495728
vt -1.8275879621505737 1.5965919494628906
vt -1.8307100534439087 1.5728780031204224
vt -0.825543999671936 0.7528420090675354
vt -1.2044800519943237 1.2812379598617554
vt -0.972100019454956 1.2829580307006836
vt -0.9904839992523193 1.2878509759902954
vt -1.183135986328125 1.2598940134048462
vt -1.2065730094909668 1.2734249830245972
vt -0.9700549840927124 1.2794289588928223
vt -0.8796709775924683 1.5965919494628906
vt -0.8747050166130066 0.7151190042495728
vt -1.8161489963531494 0.7101529836654663
vt -1.8226219415664673 1.603063941001892
vt -1.8275879621505737 0.7528420090675354
vt -0.8305109739303589 1.5588690042495728
vt -1.2060409784317017 1.2774690389633179
vt -1.183135986328125 1.286957025527954
vt -0.9939720034599304 1.2610139846801758
vt -0.8827930092811584 1.5890549421310425
vt -0.8796709775924683 0.7215920090675354
vt -1.8086129426956177 0.7070310115814209
vt -1.8161489963531494 1.6080299615859985
vt -1.8275879621505737 1.5653419494628906
vt -0.8305109739303589 0.7593140006065369
vt -0.9940130114555359 1.2858059406280518
vt -1.179900050163269 1.2623770236968994
vt -0.8838580250740051 1.5809669494628906
vt -0.8827930092811584 0.7291280031204224
vt -1.8005239963531494 0.7059670090675354
vt -1.8086129426956177 1.6111520528793335
vt -1.8226219415664673 0.7593140006065369
vt -0.8369830250740051 1.5539029836654663
vt -1.179900050163269 1.2844740152359009
vt -0.9968609809875488 1.2638930082321167
vt -1.7848989963531494 1.6080299615859985
vt -0.8838580250740051 0.7372170090675354
vt -1.7924360036849976 0.7070310115814209
vt -1.8005239963531494 1.6122169494628906
vt -1.8226219415664673 1.5588690042495728
vt -0.8369830250740051 0.7642800211906433
vt -0.996891975402832 1.2829170227050781
vt -1.1774170398712158 1.2656129598617554
vt -0.8445199728012085 1.550781011581421
vt -0.8445199728012085 0.7674019932746887
vt -0.8526080250740051 1.5497169494628906
vt -0.8526080250740051 0.7684670090675354
vt -0.860696017742157 1.550781011581421
vt -0.860696017742157 0.7674019932746887
vt -0.8682330250740051 1.5539029836654663
vt -1.7924360036849976 1.6111520528793335
vt -1.778427004814148 1.603063941001892
vt -0.8682330250740051 0.7642800211906433
vt -0.8747050166130066 1.5588690042495728
vt -1.7848989963531494 0.7101529836654663
vt -1.8161489963531494 0.7642800211906433
vt -1.1774170398712158 1.2812379598617554
vt -0.9989060163497925 1.2674219608306885
vt -0.8747050166130066 0.7593140006065369
vt -0.8796709775924683 1.5653419494628906
vt -1.778427004814148 0.7151190042495728
vt -1.8161489963531494 1.5539029836654663
vt -0.9989259839057922 1.2793810367584229
vt -1.1758559942245483 1.269381046295166
vt -1.7734609842300415 1.5965919494628906
vt -0.8827930092811584 0.7453050017356873
vt -0.8796709775924683 0.7528420090675354
vt -1.7734609842300415 0.7215920090675354
vt -1.8086129426956177 0.7674019932746887
vt -1.1758559942245483 1.2774690389633179
vt -0.9999679923057556 1.2713600397109985
vt -1.770339012145996 1.5890549421310425
vt -0.8827930092811584 1.5728780031204224
vt -1.770339012145996 0.7291280031204224
vt -1.8005239963531494 0.7684670090675354
vt -1.8086129426956177 1.550781011581421
vt -0.9999750256538391 1.2754390239715576
vt -1.1753230094909668 1.2734249830245972
vt -1.7692739963531494 1.5809669494628906
vt -1.7692739963531494 0.7372170090675354
vt -1.7924360036849976 0.7674019932746887
vt -1.8005239963531494 1.5497169494628906
vt -1.7848989963531494 0.7642800211906433
vt -1.7924360036849976 1.550781011581421
vt -1.770339012145996 1.5728780031204224
vt -1.778427004814148 0.7593140006065369
vt -1.7848989963531494 1.5539029836654663
vt -1.778427004814148 1.5588690042495728
vt -1.7734609842300415 0.7528420090675354
vt -1.7734609842300415 1.5653419494628906
vt -1.770339012145996 0.7453050017356873
vn -1 0 0
vn 0 0 1
vn 1 0 0
vn 0 1 0
vn 0 0 -1
vn 0 -1 0
usemtl material_0_0
f 1/1/1 2/1/1 3/1/1
f 4/1/2 5/1/2 6/1/2
f 7/1/3 8/1/3 9/1/3
f 10/1/1 11/1/1 12/1/1
f 13/1/2 14/1/2 15/1/2
f 16/1/3 17/1/3 18/1/3
f 19/1/1 20/1/1 21/1/1
f 22/1/4 23/1/4 24/1/4
f 25/1/3 26/1/3 27/1/3
f 28/1/4 29/1/4 30/1/4
f 31/1/2 32/1/2 33/1/2
f 34/1/4 35/1/4 36/1/4
f 37/1/2 38/1/2 39/1/2
f 40/1/4 41/1/4 42/1/4
f 43/1/4 44/1/4 45/1/4
f 46/1/2 47/1/2 48/1/2
f 49/1/2 50/1/2 51/1/2
f 52/1/2 53/1/2 54/1/2
f 55/1/2 56/1/2 57/1/2
f 58/1/4 59/1/4 60/1/4
f 61/1/4 62/1/4 63/1/4
f 64/1/4 65/1/4 66/1/4
f 67/1/4 68/1/4 69/1/4
f 70/1/4 71/1/4 72/1/4
f 73/1/2 74/1/2 75/1/2
f 76/1/2 77/1/2 78/1/2
f 79/1/2 80/1/2 81/1/2
f 82/1/2 83/1/2 84/1/2
f 85/1/2 86/1/2 87/1/2
f 88/1/2 89/1/2 90/1/2
f 91/1/4 92/1/4 93/1/4
f 94/1/4 95/1/4 96/1/4
f 97/1/4 98/1/4 99/1/4
f 100/1/4 101/1/4 102/1/4
f 103/1/4 104/1/4 105/1/4
f 106/1/4 107/1/4 108/1/4
f 109/1/4 110/1/4 111/1/4
f 112/1/4 113/1/4 114/1/4
f 115/1/2 116/1/2 117/1/2
f 118/1/2 119/1/2 120/1/2
f 121/1/2 122/1/2 123/1/2
f 124/1/2 125/1/2 126/1/2
f 127/1/2 128/1/2 129/1/2
f 130/1/2 131/1/2 132/1/2
f 133/1/2 134/1/2 135/1/2
f 136/1/2 137/1/2 138/1/2
f 139/1/4 140/1/4 141/1/4
f 142/1/4 143/1/4 144/1/4
f 145/1/4 146/1/4 147/1/4
f 148/1/4 149/1/4 150/1/4
f 151/1/4 152/1/4 153/1/4
f 154/1/4 155/1/4 156/1/4
f 157/1/4 158/1/4 159/1/4
f 160/1/4 161/1/4 162/1/4
f 163/1/4 164/1/4 165/1/4
f 166/1/4 167/1/4 168/1/4
f 169/1/2 170/1/2 171/1/2
f 172/1/2 173/1/2 174/1/2
f 175/1/2 176/1/2 177/1/2
f 178/1/2 179/1/2 180/1/2
f 181/1/2 182/1/2 183/1/2
f 184/1/2 185/1/2 186/1/2
f 187/1/2 188/1/2 189/1/2
f 190/1/4 191/1/4 192/1/4
f 193/1/4 194/1/4 195/1/4
f 196/1/4 197/1/4 198/1/4
f 199/1/4 200/1/4 201/1/4
f 202/1/4 203/1/4 204/1/4
f 205/1/4 206/1/4 207/1/4
f 208/1/4 209/1/4 210/1/4
f 211/1/4 212/1/4 213/1/4
f 214/1/2 215/1/2 216/1/2
f 217/1/2 218/1/2 219/1/2
f 220/1/2 221/1/2 222/1/2
f 223/1/2 224/1/2 225/1/2
f 226/1/2 227/1/2 228/1/2
f 229/1/2 230/1/2 231/1/2
f 232/1/4 233/1/4 234/1/4
f 235/1/4 236/1/4 237/1/4
f 238/1/4 239/1/4 240/1/4
f 241/1/4 242/1/4 243/1/4
f 244/1/4 245/1/4 246/1/4
f 247/1/4 248/1/4 249/1/4
f 250/1/2 251/1/2 252/1/2
f 253/1/2 254/1/2 255/1/2
f 256/1/2 257/1/2 258/1/2
f 259/1/2 260/1/2 261/1/2
f 262/1/2 263/1/2 264/1/2
f 265/1/4 266/1/4 267/1/4
f 268/1/4 269/1/4 270/1/4
f 271/1/4 272/1/4 273/1/4
f 274/1/4 275/1/4 276/1/4
f 277/1/4 278/1/4 279/1/4
f 280/1/4 281/1/4 282/1/4
f 283/1/2 284/1/2 285/1/2
f 286/1/2 287/1/2 288/1/2
f 289/1/4 290/1/4 291/1/4
f 292/1/4 293/1/4 294/1/4
f 295/1/4 296/1/4 297/1/4
f 298/1/4 299/1/4 300/1/4
f 301/1/4 302/1/4 303/1/4
f 304/1/4 305/1/4 306/1/4
f 307/1/2 308/1/2 309/1/2
f 310/1/2 311/1/2 312/1/2
f 313/1/4 314/1/4 315/1/4
f 316/1/4 317/1/4 318/1/4
f 319/1/4 320/1/4 321/1/4
f 322/1/4 323/1/4 324/1/4
f 325/1/4 326/1/4 327/1/4
f 328/1/4 329/1/4 330/1/4
f 331/1/2 332/1/2 333/1/2
f 334/1/2 335/1/2 336/1/2
f 337/1/4 338/1/4 339/1/4
f 340/1/4 341/1/4 342/1/4
f 343/1/4 344/1/4 345/1/4
f 346/1/4 347/1/4 348/1/4
f 349/1/4 350/1/4 351/1/4
f 352/1/4 353/1/4 354/1/4
f 355/1/4 356/1/4 357/1/4
f 358/1/4 359/1/4 360/1/4
f 361/1/4 362/1/4 363/1/4
f 364/1/4 365/1/4 366/1/4
f 367/1/4 368/1/4 369/1/4
f 370/1/2 371/1/2 372/1/2
f 373/1/2 374/1/2 375/1/2
f 376/1/4 377/1/4 378/1/4
f 379/1/4 380/1/4 381/1/4
f 382/1/4 383/1/4 384/1/4
f 385/1/4 386/1/4 387/1/4
f 388/1/4 389/1/4 390/1/4
f 391/1/4 392/1/4 393/1/4
f 394/1/4 395/1/4 396/1/4
f 397/1/4 398/1/4 399/1/4
f 400/1/4 401/1/4 402/1/4
f 403/1/2 404/1/2 405/1/2
f 406/1/2 407/1/2 408/1/2
f 409/1/4 410/1/4 411/1/4
f 412/1/4 413/1/4 414/1/4
f 415/1/4 416/1/4 417/1/4
f 418/1/4 419/1/4 420/1/4
f 421/1/4 422/1/4 423/1/4
f 424/1/2 425/1/2 426/1/2
f 427/1/2 428/1/2 429/1/2
f 430/1/4 431/1/4 432/1/4
f 433/1/4 434/1/4 435/1/4
f 436/1/4 437/1/4 438/1/4
f 439/1/4 440/1/4 441/1/4
f 442/1/4 443/1/4 444/1/4
f 445/1/4 446/1/4 447/1/4
f 448/1/4 449/1/4 450/1/4
f 451/1/2 452/1/2 453/1/2
f 454/1/2 455/1/2 456/1/2
f 457/1/4 458/1/4 459/1/4
f 460/1/4 461/1/4 462/1/4
f 463/1/4 464/1/4 465/1/4
f 466/1/4 467/1/4 468/1/4
f 469/1/2 470/1/2 471/1/2
f 472/1/2 473/1/2 474/1/2
f 475/1/4 476/1/4 477/1/4
f 478/1/4 479/1/4 480/1/4
f 481/1/4 482/1/4 483/1/4
f 484/1/4 485/1/4 486/1/4
f 487/1/4 488/1/4 489/1/4
f 490/1/4 491/1/4 492/1/4
f 493/1/4 494/1/4 495/1/4
f 496/1/4 497/1/4 498/1/4
f 499/1/4 500/1/4 501/1/4
f 502/1/4 503/1/4 504/1/4
f 505/1/4 506/1/4 507/1/4
f 508/1/4 509/1/4 510/1/4
usemtl material_1_0
f 511/2/3 512/3/3 513/4/3
f 514/5/5 515/6/5 516/7/5
f 517/4/1 518/3/1 519/2/1
f 520/3/3 521/2/3 522/8/3
f 523/9/5 524/7/5 525/6/5
f 526/8/1 527/2/1 528/3/1
f 529/8/3 530/2/3 531/10/3
f 532/11/6 533/12/6 534/13/6
f 535/10/1 536/2/1 537/8/1
f 538/14/6 539/15/6 540/16/6
f 541/17/5 542/18/5 543/19/5
f 544/20/6 545/13/6 546/12/6
f 547/21/5 548/17/5 549/22/5
f 550/15/6 551/14/6 552/23/6
f 553/24/6 554/16/6 555/15/6
f 556/19/5 557/25/5 558/21/5
f 559/18/5 560/17/5 561/26/5
f 562/19/5 563/18/5 564/27/5
f 565/17/5 566/21/5 567/28/5
f 568/29/6 569/14/6 570/30/6
f 571/31/6 572/32/6 573/30/6
f 574/23/6 575/14/6 576/33/6
f 577/34/6 578/16/6 579/24/6
f 580/35/6 581/24/6 582/15/6
f 583/19/5 584/36/5 585/25/5
f 586/37/5 587/21/5 588/25/5
f 589/17/5 590/38/5 591/26/5
f 592/19/5 593/27/5 594/39/5
f 595/28/5 596/21/5 597/40/5
f 598/17/5 599/28/5 600/41/5
f 601/42/6 602/14/6 603/29/6
f 604/29/6 605/30/6 606/43/6
f 607/16/6 608/44/6 609/31/6
f 610/31/6 611/45/6 612/32/6
f 613/46/6 614/30/6 615/32/6
f 616/33/6 617/14/6 618/47/6
f 619/48/6 620/16/6 621/34/6
f 622/24/6 623/35/6 624/49/6
f 625/19/5 626/50/5 627/36/5
f 628/51/5 629/21/5 630/37/5
f 631/25/5 632/52/5 633/37/5
f 634/17/5 635/53/5 636/38/5
f 637/38/5 638/54/5 639/26/5
f 640/19/5 641/39/5 642/55/5
f 643/40/5 644/21/5 645/56/5
f 646/17/5 647/41/5 648/57/5
f 649/58/6 650/14/6 651/42/6
f 652/43/6 653/30/6 654/59/6
f 655/44/6 656/16/6 657/60/6
f 658/31/6 659/44/6 660/61/6
f 661/31/6 662/62/6 663/45/6
f 664/63/6 665/30/6 666/46/6
f 667/64/6 668/46/6 669/32/6
f 670/47/6 671/14/6 672/58/6
f 673/65/6 674/16/6 675/48/6
f 676/49/6 677/35/6 678/66/6
f 679/19/5 680/67/5 681/50/5
f 682/68/5 683/21/5 684/51/5
f 685/69/5 686/52/5 687/25/5
f 688/17/5 689/57/5 690/53/5
f 691/54/5 692/38/5 693/70/5
f 694/19/5 695/55/5 696/71/5
f 697/56/5 698/21/5 699/72/5
f 700/59/6 701/30/6 702/73/6
f 703/60/6 704/16/6 705/74/6
f 706/31/6 707/61/6 708/75/6
f 709/31/6 710/76/6 711/62/6
f 712/77/6 713/30/6 714/63/6
f 715/64/6 716/78/6 717/46/6
f 718/74/6 719/16/6 720/65/6
f 721/49/6 722/66/6 723/79/6
f 724/19/5 725/80/5 726/67/5
f 727/81/5 728/21/5 729/68/5
f 730/69/5 731/82/5 732/52/5
f 733/54/5 734/70/5 735/83/5
f 736/19/5 737/71/5 738/84/5
f 739/72/5 740/21/5 741/85/5
f 742/73/6 743/30/6 744/86/6
f 745/31/6 746/75/6 747/87/6
f 748/31/6 749/88/6 750/76/6
f 751/89/6 752/30/6 753/77/6
f 754/90/6 755/78/6 756/64/6
f 757/79/6 758/66/6 759/91/6
f 760/19/5 761/92/5 762/80/5
f 763/85/5 764/21/5 765/81/5
f 766/93/5 767/82/5 768/69/5
f 769/83/5 770/70/5 771/94/5
f 772/19/5 773/84/5 774/92/5
f 775/86/6 776/30/6 777/95/6
f 778/31/6 779/87/6 780/96/6
f 781/31/6 782/97/6 783/88/6
f 784/98/6 785/30/6 786/89/6
f 787/90/6 788/99/6 789/78/6
f 790/79/6 791/91/6 792/100/6
f 793/93/5 794/101/5 795/82/5
f 796/83/5 797/94/5 798/102/5
f 799/95/6 800/30/6 801/103/6
f 802/31/6 803/96/6 804/104/6
f 805/31/6 806/105/6 807/97/6
f 808/106/6 809/30/6 810/98/6
f 811/107/6 812/99/6 813/90/6
f 814/100/6 815/91/6 816/108/6
f 817/109/5 818/101/5 819/93/5
f 820/102/5 821/94/5 822/110/5
f 823/103/6 824/30/6 825/111/6
f 826/31/6 827/104/6 828/112/6
f 829/31/6 830/113/6 831/105/6
f 832/114/6 833/30/6 834/106/6
f 835/107/6 836/115/6 837/99/6
f 838/100/6 839/108/6 840/116/6
f 841/109/5 842/117/5 843/101/5
f 844/102/5 845/110/5 846/118/5
f 847/116/6 848/108/6 849/119/6
f 850/120/6 851/119/6 852/121/6
f 853/122/6 854/121/6 855/123/6
f 856/124/6 857/123/6 858/125/6
f 859/111/6 860/30/6 861/126/6
f 862/103/6 863/111/6 864/127/6
f 865/128/6 866/125/6 867/129/6
f 868/31/6 869/112/6 870/130/6
f 871/31/6 872/130/6 873/113/6
f 874/126/6 875/30/6 876/114/6
f 877/131/6 878/115/6 879/107/6
f 880/132/5 881/117/5 882/109/5
f 883/118/5 884/110/5 885/133/5
f 886/116/6 887/119/6 888/120/6
f 889/120/6 890/121/6 891/122/6
f 892/122/6 893/123/6 894/124/6
f 895/124/6 896/125/6 897/128/6
f 898/103/6 899/127/6 900/112/6
f 901/134/6 902/129/6 903/135/6
f 904/128/6 905/129/6 906/134/6
f 907/130/6 908/112/6 909/136/6
f 910/131/6 911/137/6 912/115/6
f 913/132/5 914/138/5 915/117/5
f 916/118/5 917/133/5 918/139/5
f 919/112/6 920/127/6 921/140/6
f 922/141/6 923/103/6 924/112/6
f 925/134/6 926/135/6 927/142/6
f 928/136/6 929/112/6 930/143/6
f 931/144/6 932/137/6 933/131/6
f 934/145/5 935/138/5 936/132/5
f 937/139/5 938/133/5 939/146/5
f 940/112/6 941/140/6 942/147/6
f 943/141/6 944/148/6 945/103/6
f 946/142/6 947/135/6 948/148/6
f 949/142/6 950/148/6 951/141/6
f 952/143/6 953/112/6 954/149/6
f 955/150/6 956/151/6 957/144/6
f 958/144/6 959/151/6 960/137/6
f 961/145/5 962/152/5 963/138/5
f 964/139/5 965/146/5 966/153/5
f 967/112/6 968/147/6 969/154/6
f 970/149/6 971/112/6 972/155/6
f 973/156/6 974/157/6 975/150/6
f 976/150/6 977/157/6 978/151/6
f 979/153/5 980/152/5 981/145/5
f 982/153/5 983/146/5 984/152/5
f 985/155/6 986/112/6 987/154/6
f 988/158/6 989/159/6 990/156/6
f 991/156/6 992/159/6 993/157/6
f 994/160/6 995/155/6 996/154/6
f 997/161/6 998/162/6 999/158/6
f 1000/158/6 1001/162/6 1002/159/6
f 1003/161/6 1004/163/6 1005/162/6
f 1006/164/6 1007/165/6 1008/163/6
f 1009/166/6 1010/160/6 1011/165/6
f 1012/155/6 1013/160/6 1014/166/6
f 1015/164/6 1016/163/6 1017/161/6
f 1018/166/6 1019/165/6 1020/164/6
