# SSTK version 0.8.0
# 15
mtllib original-15.mtl
o Group8/mesh13/mesh13-geometry#mesh13-geometry
v 0.227823 0.373334 0.463944
v 0.260933 0.373334 0.463944
v 0.244377 0.370886 0.463944
v 0.212396 0.380513 0.463944
v 0.244377 0.370886 0.469267
v 0.227823 0.373334 0.469267
v 0.212396 0.380513 0.469267
v 0.276358 0.380513 0.463944
v 0.260933 0.373334 0.469267
v 0.199151 0.391935 0.469267
v 0.199151 0.391935 0.463944
v 0.244377 0.390617 0.463944
v 0.232367 0.392393 0.463944
v 0.221177 0.397602 0.463944
v 0.276358 0.380513 0.469267
v 0.256387 0.392393 0.463944
v 0.188986 0.406819 0.463944
v 0.211568 0.405888 0.463944
v 0.289606 0.391935 0.463944
v 0.244377 0.390617 0.477253
v 0.232367 0.392393 0.477253
v 0.221177 0.397602 0.477253
v 0.188986 0.406819 0.469267
v 0.211568 0.405888 0.477253
v 0.289606 0.391935 0.469267
v 0.267580 0.397602 0.463944
v 0.299771 0.406819 0.463944
v 0.256387 0.392393 0.477253
v 0.182595 0.424153 0.463944
v 0.204192 0.416684 0.463944
v 0.299771 0.406819 0.469267
v 0.267580 0.397602 0.477253
v 0.218965 0.397684 0.477253
v 0.217882 0.397956 0.477253
v 0.216838 0.398374 0.477253
v 0.215851 0.398938 0.477253
v 0.182595 0.424153 0.469267
v 0.204192 0.416684 0.477253
v 0.277189 0.405888 0.463944
v 0.306162 0.424153 0.469267
v 0.277189 0.405888 0.477253
v 0.220070 0.397564 0.504658
v 0.220070 0.397564 0.477253
v 0.218965 0.397684 0.505318
v 0.217882 0.397956 0.505843
v 0.216838 0.398374 0.506223
v 0.214930 0.399633 0.477253
v 0.214094 0.400450 0.477253
v 0.215851 0.398938 0.506455
v 0.214930 0.399633 0.506532
v 0.180415 0.442753 0.463944
v 0.199558 0.429258 0.463944
v 0.267580 0.487905 0.477253
v 0.284564 0.416684 0.463944
v 0.306162 0.424153 0.463944
v 0.277189 0.479619 0.477253
v 0.277189 0.479619 0.503870
v 0.221177 0.397602 0.503870
v 0.214094 0.400450 0.506455
v 0.213354 0.401379 0.506223
v 0.213354 0.401379 0.477253
v 0.212723 0.402404 0.505843
v 0.212723 0.402404 0.477253
v 0.212210 0.403508 0.477253
v 0.212210 0.403508 0.505318
v 0.180415 0.442753 0.469267
v 0.199558 0.429258 0.477253
v 0.211568 0.405888 0.503870
v 0.284564 0.416684 0.477253
v 0.308339 0.442753 0.469267
v 0.289199 0.429258 0.463944
v 0.276933 0.480833 0.504658
v 0.276544 0.481998 0.505318
v 0.276033 0.483103 0.505843
v 0.274663 0.485054 0.506455
v 0.211824 0.404674 0.504658
v 0.211824 0.404674 0.477253
v 0.273827 0.485874 0.506532
v 0.272906 0.486569 0.506455
v 0.271916 0.487130 0.506223
v 0.270872 0.487551 0.505843
v 0.182595 0.461354 0.463944
v 0.197977 0.442753 0.463944
v 0.197977 0.442753 0.477253
v 0.267580 0.487905 0.503870
v 0.289199 0.429258 0.477253
v 0.308339 0.442753 0.463944
v 0.276933 0.480833 0.477253
v 0.276544 0.481998 0.477253
v 0.276033 0.483103 0.477253
v 0.275403 0.484128 0.506223
v 0.269792 0.487822 0.505318
v 0.182595 0.461354 0.469267
v 0.199558 0.456246 0.477253
v 0.268687 0.487942 0.504658
v 0.269792 0.487822 0.477253
v 0.268687 0.487942 0.477253
v 0.199558 0.456246 0.463944
v 0.306162 0.461354 0.469267
v 0.290780 0.442753 0.463944
v 0.290780 0.442753 0.477253
v 0.275403 0.484128 0.477253
v 0.274663 0.485054 0.477253
v 0.273827 0.485874 0.477253
v 0.272906 0.486569 0.477253
v 0.271916 0.487130 0.477253
v 0.188986 0.478687 0.463944
v 0.204192 0.468823 0.477253
v 0.270872 0.487551 0.477253
v 0.306162 0.461354 0.463944
v 0.289199 0.456246 0.477253
v 0.267580 0.487905 0.463944
v 0.204192 0.468823 0.463944
v 0.188986 0.478687 0.469267
v 0.211568 0.479619 0.477253
v 0.289199 0.456246 0.463944
v 0.299771 0.478687 0.469267
v 0.284564 0.468823 0.477253
v 0.277189 0.479619 0.463944
v 0.256387 0.493114 0.463944
v 0.199151 0.493572 0.463944
v 0.211568 0.479619 0.463944
v 0.221177 0.487905 0.477253
v 0.284564 0.468823 0.463944
v 0.299771 0.478687 0.463944
v 0.289606 0.493572 0.463944
v 0.289606 0.493572 0.469267
v 0.256387 0.493114 0.477253
v 0.276358 0.504993 0.469267
v 0.199151 0.493572 0.469267
v 0.244377 0.494889 0.463944
v 0.260933 0.512172 0.469267
v 0.212396 0.504993 0.469267
v 0.221177 0.487905 0.463944
v 0.232367 0.493114 0.477253
v 0.276358 0.504993 0.463944
v 0.244377 0.494889 0.477253
v 0.260933 0.512172 0.463944
v 0.212396 0.504993 0.463944
v 0.232367 0.493114 0.463944
v 0.244377 0.514621 0.469267
v 0.244377 0.514621 0.463944
v 0.227823 0.512172 0.469267
v 0.227823 0.512172 0.463944
vn 0 0 -1
vn 0.2319699865887716 -0.972722943762511 0
vn 0 -1 0
vn -0.2319699865887716 -0.972722943762511 0
vn -0.4570360799813209 -0.8894481556534407 0
vn -0.6648271801887998 -0.7469972024594262 0
vn 0.4570360799813209 -0.8894481556534407 0
vn -0.0600319726332909 0.2517348852418955 0.9659325596613904
vn 0 0.26049200147959434 0.9654760054839038
vn 0.0600319726332909 0.2517348852418955 0.9659325596613904
vn 0.11612401910553807 0.22599103718163022 0.9671831591277568
vn 0.16451503206176193 0.184849036024585 0.9688991888253903
vn -0.8389384585135503 -0.5442262974415218 0
vn 0.6648271801887998 -0.7469972024594262 0
vn -0.11612401910553807 0.22599103718163022 0.9671831591277568
vn 0.20184792033780719 0.13093994832266076 0.9706246169289965
vn -0.9575446800604372 -0.2882849036768227 0
vn 0.8389384585135503 -0.5442262974415218 0
vn -0.16451503206176193 0.184849036024585 0.9688991888253903
vn 0 0 1
vn 0.22542706749264865 0.06786802031962023 0.971893290983923
vn -0.20184792033780719 0.13093994832266076 0.9706246169289965
vn 0.9575446800604372 -0.2882849036768227 0
vn 0.02584899635067773 -0.9996658588686836 0
vn -0.02945300489560525 -0.9995661661454031 0
vn -0.1398450563607855 -0.9901733990627343 0
vn -0.24938392225694347 -0.9684046981090821 0
vn -0.3572818528833322 -0.9339966154115619 0
vn -0.46255722360715423 -0.8865894285907321 0
vn -0.5639582197821744 -0.8258033218267654 0
vn -1 0 0
vn -0.22542706749264865 0.06786802031962023 0.971893290983923
vn 0.7573741657752115 -0.6529811429255077 0
vn -0.6599060838278752 -0.7513480954437547 0
vn -0.748467018085583 -0.6631720160245572 0
vn -0.8273858581231948 -0.561633903693273 0
vn -0.8941922676527992 -0.4476831340021026 0
vn -0.7573741657752115 0.6529811429255077 0
vn 0.2334909915987608 0 0.9723589650135528
vn 1 0 0
vn 0.45803681092725285 -0.39490283698828915 0.7964006712542329
vn 0.42049604129061074 -0.3625370355993261 0.8317150816702662
vn 0.3418559733350642 -0.29473597701044757 0.8923369303972759
vn 0.25946294285160665 -0.22369995072863746 0.9394877930717297
vn 0.17439603510906454 -0.1503580302697812 0.973128195908242
vn 0.0876150172364164 -0.07553901486071653 0.993286195408219
vn -0.9463989682005222 -0.3229999891470391 0
vn -0.9663113120717381 -0.25737608312000554 0
vn -0.0876150172364164 0.07553901486071608 0.993286195408219
vn -0.17439603510906454 0.15035803026978076 0.973128195908242
vn -0.25946294285160665 0.22369995072863702 0.9394877930717297
vn -0.3418559733350642 0.2947359770104471 0.8923369303972761
vn -0.9575446800604372 0.2882849036768227 0
vn -0.2334909915987608 0 0.9723589650135528
vn 0.9663113120717381 0.25737608312000554 0
vn 0.9463989682005222 0.3229999891470391 0
vn 0.8941922676527992 0.4476831340021026 0
vn 0.8273858581231948 0.561633903693273 0
vn -0.42049604129061074 0.36253703559932576 0.8317150816702664
vn -0.45803681092725285 0.3949028369882888 0.7964006712542331
vn 0.24938392225694347 0.9684046981090821 0
vn 0.1398450563607855 0.9901733990627343 0
vn 0.02945300489560525 0.9995661661454031 0
vn -0.02584899635067773 0.9996658588686836 0
vn 0.22542706749264865 -0.06786802031962068 0.971893290983923
vn 0.9575446800604372 0.2882849036768227 0
vn 0.748467018085583 0.6631720160245572 0
vn 0.6599060838278752 0.7513480954437547 0
vn 0.5639582197821744 0.8258033218267654 0
vn 0.46255722360715423 0.8865894285907321 0
vn 0.3572818528833322 0.9339966154115619 0
vn -0.8389384585135503 0.5442262974415218 0
vn -0.22542706749264865 -0.06786802031962068 0.971893290983923
vn 0.6648271801887998 0.7469972024594262 0
vn 0.4570360799813209 0.8894481556534407 0
vn 0.20184792033780719 -0.1309399483226612 0.9706246169289965
vn 0.8389384585135503 0.5442262974415218 0
vn 0.2319699865887716 0.972722943762511 0
vn -0.6648271801887998 0.7469972024594262 0
vn -0.20184792033780719 -0.1309399483226612 0.9706246169289965
vn -0.16451503206176193 -0.18484903602458544 0.9688991888253903
vn -0.11612401910553805 -0.2259910371816306 0.9671831591277565
vn -0.0600319726332909 -0.25173488524189597 0.9659325596613901
vn 0.16451503206176193 -0.18484903602458544 0.9688991888253903
vn -0.4570360799813209 0.8894481556534407 0
vn 0 1 0
vn 0 -0.2604920014795948 0.9654760054839036
vn 0.11612401910553805 -0.2259910371816306 0.9671831591277565
vn -0.2319699865887716 0.972722943762511 0
vn 0.0600319726332909 -0.25173488524189597 0.9659325596613901
vn 0 -0.26049200147959434 -0.9654760054839038
vn 0.0600319726332909 -0.2517348852418955 -0.9659325596613904
vn -0.0600319726332909 -0.2517348852418955 -0.9659325596613904
vn -0.11612401910553807 -0.22599103718163022 -0.9671831591277568
vn -0.16451503206176193 -0.184849036024585 -0.9688991888253903
vn 0.11612401910553807 -0.22599103718163022 -0.9671831591277568
vn -0.20184792033780719 -0.13093994832266076 -0.9706246169289965
vn 0.16451503206176193 -0.184849036024585 -0.9688991888253903
vn -0.22542706749264865 -0.06786802031962023 -0.971893290983923
vn 0.20184792033780719 -0.13093994832266076 -0.9706246169289965
vn 0.22542706749264865 -0.06786802031962023 -0.971893290983923
vn -0.2334909915987608 0 -0.9723589650135528
vn -0.42049604129061074 0.3625370355993261 -0.8317150816702662
vn -0.45803681092725285 0.39490283698828915 -0.7964006712542329
vn -0.3418559733350642 0.29473597701044757 -0.8923369303972759
vn -0.25946294285160665 0.22369995072863746 -0.9394877930717297
vn -0.17439603510906454 0.1503580302697812 -0.973128195908242
vn -0.0876150172364164 0.07553901486071653 -0.993286195408219
vn 0.0876150172364164 -0.07553901486071608 -0.993286195408219
vn 0.17439603510906454 -0.15035803026978076 -0.973128195908242
vn 0.25946294285160665 -0.22369995072863702 -0.9394877930717297
vn 0.2334909915987608 0 -0.9723589650135528
vn 0.3418559733350642 -0.2947359770104471 -0.8923369303972761
vn 0.42049604129061074 -0.36253703559932576 -0.8317150816702664
vn 0.45803681092725285 -0.3949028369882888 -0.7964006712542331
vn -0.22542706749264865 0.06786802031962068 -0.971893290983923
vn 0.22542706749264865 0.06786802031962068 -0.971893290983923
vn -0.20184792033780719 0.1309399483226612 -0.9706246169289965
vn 0.20184792033780719 0.1309399483226612 -0.9706246169289965
vn 0.16451503206176193 0.18484903602458544 -0.9688991888253903
vn 0.11612401910553805 0.2259910371816306 -0.9671831591277565
vn 0.0600319726332909 0.25173488524189597 -0.9659325596613901
vn -0.16451503206176193 0.18484903602458544 -0.9688991888253903
vn 0 0.2604920014795948 -0.9654760054839036
vn -0.11612401910553805 0.2259910371816306 -0.9671831591277565
vn -0.0600319726332909 0.25173488524189597 -0.9659325596613901
usemtl material_0_0
f 1//1 2//1 3//1
f 2//1 1//1 4//1
f 2//2 5//3 3//3
f 3//3 6//4 1//4
f 1//4 7//5 4//5
f 2//1 4//1 8//1
f 5//3 2//2 9//2
f 6//4 3//3 5//3
f 7//5 1//4 6//4
f 10//6 4//5 7//5
f 8//1 4//1 11//1
f 8//7 9//2 2//2
f 9//8 12//9 5//9
f 12//9 6//10 5//9
f 13//10 7//11 6//10
f 4//5 10//6 11//6
f 14//11 10//12 7//11
f 8//1 11//1 12//1
f 9//2 8//7 15//7
f 12//9 9//8 16//8
f 6//10 12//9 13//10
f 7//11 13//10 14//11
f 10//6 17//13 11//6
f 10//12 14//11 18//12
f 12//1 11//1 13//1
f 12//1 19//1 8//1
f 19//14 15//7 8//7
f 15//15 16//8 9//8
f 19//1 12//1 16//1
f 16//2 20//3 12//3
f 12//3 21//4 13//4
f 13//1 17//1 14//1
f 13//4 22//5 14//5
f 17//13 10//6 23//13
f 13//1 11//1 17//1
f 14//1 17//1 18//1
f 14//5 24//6 18//6
f 18//12 23//16 10//12
f 15//7 19//14 25//14
f 16//8 15//15 26//15
f 19//1 16//1 27//1
f 20//3 16//2 28//2
f 21//4 12//3 20//3
f 22//5 13//4 21//4
f 24//6 14//5 22//5
f 23//13 29//17 17//13
f 18//1 17//1 30//1
f 24//6 30//13 18//6
f 23//16 18//12 30//16
f 19//14 31//18 25//14
f 25//19 26//15 15//15
f 27//1 16//1 26//1
f 26//7 28//2 16//2
f 31//18 19//14 27//18
f 28//20 21//20 20//20
f 21//20 32//20 22//20
f 22//1 33//1 24//1
f 24//1 33//1 34//1
f 24//1 34//1 35//1
f 24//1 35//1 36//1
f 29//17 23//13 37//17
f 30//1 17//1 29//1
f 30//13 24//6 38//13
f 30//16 37//21 23//16
f 31//22 39//19 25//19
f 26//15 25//19 39//19
f 27//1 26//1 39//1
f 28//2 26//7 32//7
f 27//18 40//23 31//18
f 21//20 28//20 32//20
f 22//20 32//20 41//20
f 22//24 42//25 43//25
f 43//25 44//26 33//26
f 33//1 22//1 43//1
f 33//26 45//27 34//27
f 34//27 46//28 35//28
f 24//1 36//1 47//1
f 24//1 47//1 48//1
f 35//28 49//29 36//29
f 36//29 50//30 47//30
f 37//17 51//31 29//17
f 30//1 29//1 52//1
f 53//20 38//20 24//20
f 38//13 52//17 30//13
f 37//21 30//16 52//21
f 39//19 31//22 54//22
f 39//14 32//7 26//7
f 27//1 39//1 54//1
f 40//23 27//18 55//23
f 40//32 54//22 31//22
f 32//7 39//14 41//14
f 22//20 41//20 56//20
f 22//33 57//33 58//33
f 42//25 22//24 58//24
f 44//26 43//25 42//25
f 45//27 33//26 44//26
f 46//28 34//27 45//27
f 49//29 35//28 46//28
f 47//30 59//34 48//34
f 48//34 60//35 61//35
f 61//35 62//36 63//36
f 24//1 48//1 61//1
f 24//1 61//1 63//1
f 24//1 63//1 64//1
f 63//36 65//37 64//37
f 50//30 36//29 49//29
f 59//34 47//30 50//30
f 51//31 37//17 66//31
f 52//1 29//1 51//1
f 38//20 53//20 67//20
f 68//38 53//38 24//38
f 52//17 38//13 67//17
f 52//21 66//39 37//21
f 69//18 39//14 54//18
f 27//1 54//1 55//1
f 55//23 70//40 40//23
f 54//22 40//32 71//32
f 39//14 69//18 41//14
f 56//20 41//20 69//20
f 57//33 22//33 56//33
f 58//41 72//42 42//42
f 72//42 58//41 57//41
f 72//42 44//43 42//42
f 44//43 72//42 73//43
f 73//43 45//44 44//43
f 74//44 46//45 45//44
f 75//46 50//20 49//46
f 60//35 48//34 59//34
f 62//36 61//35 60//35
f 65//37 63//36 62//36
f 64//37 76//47 77//47
f 77//47 68//48 24//48
f 24//1 64//1 77//1
f 78//20 59//49 50//20
f 79//49 60//50 59//49
f 80//50 62//51 60//50
f 81//51 65//52 62//51
f 66//31 82//53 51//31
f 52//1 51//1 83//1
f 67//20 53//20 84//20
f 53//38 68//38 85//38
f 68//48 77//47 76//47
f 67//17 83//31 52//17
f 66//39 52//21 83//39
f 54//18 86//23 69//18
f 55//1 54//1 71//1
f 70//40 55//23 87//40
f 70//54 71//32 40//32
f 86//23 54//18 71//23
f 56//20 69//20 86//20
f 57//55 88//56 72//56
f 88//56 57//55 56//55
f 72//56 89//57 73//57
f 89//57 72//56 88//56
f 90//58 73//57 89//57
f 45//44 73//43 74//44
f 46//45 74//44 91//45
f 91//45 49//46 46//45
f 49//46 91//45 75//46
f 50//20 75//46 78//20
f 76//47 64//37 65//37
f 59//49 78//20 79//49
f 60//50 79//49 80//50
f 62//51 80//50 81//51
f 65//52 81//51 92//52
f 82//53 66//31 93//53
f 83//1 51//1 82//1
f 84//20 53//20 94//20
f 83//31 67//17 84//31
f 92//52 76//59 65//52
f 76//59 92//52 95//59
f 95//59 68//60 76//59
f 68//60 95//59 85//60
f 81//61 96//62 92//62
f 95//63 53//64 85//64
f 98//65 66//39 83//39
f 55//1 71//1 87//1
f 87//40 99//66 70//40
f 71//32 70//54 100//54
f 71//23 101//40 86//23
f 56//20 86//20 101//20
f 53//1 88//1 56//1
f 88//1 53//1 89//1
f 73//57 90//58 74//58
f 89//1 53//1 90//1
f 90//1 53//1 102//1
f 102//1 53//1 103//1
f 74//58 102//67 91//67
f 102//67 74//58 90//58
f 91//67 103//68 75//68
f 103//68 91//67 102//67
f 75//68 104//69 78//69
f 78//69 105//70 79//70
f 79//70 106//71 80//71
f 66//39 98//65 93//65
f 93//53 107//72 82//53
f 83//1 82//1 98//1
f 94//20 53//20 108//20
f 98//53 84//31 94//53
f 84//31 98//53 83//31
f 92//62 97//63 95//63
f 97//63 92//62 96//62
f 53//64 95//63 97//63
f 109//1 53//1 96//1
f 96//1 53//1 97//1
f 87//1 71//1 100//1
f 99//66 87//40 110//66
f 99//73 100//54 70//54
f 101//40 71//23 100//40
f 56//20 101//20 111//20
f 56//74 112//75 53//75
f 103//1 53//1 104//1
f 104//69 75//68 103//68
f 105//70 78//69 104//69
f 106//71 79//70 105//70
f 96//62 81//61 109//61
f 113//76 93//65 98//65
f 107//72 93//53 114//72
f 113//1 82//1 107//1
f 98//1 82//1 113//1
f 108//20 53//20 115//20
f 113//72 94//53 108//72
f 94//53 113//72 98//53
f 109//61 80//71 106//71
f 106//1 53//1 109//1
f 87//1 100//1 116//1
f 87//1 116//1 110//1
f 110//66 117//77 99//66
f 100//54 99//73 116//73
f 100//40 111//66 101//40
f 56//20 111//20 118//20
f 112//75 56//74 119//74
f 120//78 53//75 112//75
f 104//1 53//1 105//1
f 105//1 53//1 106//1
f 80//71 109//61 81//61
f 93//65 113//76 114//76
f 114//72 121//79 107//72
f 113//1 107//1 122//1
f 115//20 53//20 123//20
f 122//79 108//72 115//79
f 108//72 122//79 113//72
f 111//66 100//40 116//66
f 110//1 116//1 124//1
f 117//77 110//66 125//77
f 124//80 99//73 117//80
f 99//73 124//80 116//73
f 116//66 118//77 111//66
f 124//77 56//74 118//77
f 56//74 124//77 119//74
f 126//1 119//1 112//1
f 127//81 112//82 119//81
f 53//75 120//78 128//78
f 126//1 112//1 120//1
f 129//82 120//83 112//82
f 122//84 114//76 113//76
f 121//79 114//72 130//79
f 122//1 107//1 121//1
f 123//20 53//20 128//20
f 123//85 122//79 115//79
f 118//77 116//66 124//77
f 110//1 124//1 125//1
f 125//77 127//74 117//77
f 117//80 119//81 124//80
f 125//1 124//1 119//1
f 125//1 119//1 126//1
f 112//82 127//81 129//82
f 119//81 117//80 127//81
f 131//86 128//78 120//78
f 126//1 120//1 131//1
f 120//83 129//82 132//83
f 114//76 122//84 130//84
f 133//85 121//79 130//79
f 122//1 121//1 134//1
f 123//20 128//20 135//20
f 122//79 123//85 134//85
f 127//74 125//77 126//74
f 127//74 136//75 129//75
f 128//78 131//86 137//86
f 132//83 131//87 120//83
f 126//1 131//1 136//1
f 129//75 138//78 132//78
f 134//88 130//84 122//84
f 121//79 133//85 139//85
f 130//84 134//88 133//88
f 134//1 121//1 140//1
f 135//20 128//20 137//20
f 135//89 134//85 123//85
f 136//75 127//74 126//74
f 138//78 129//75 136//75
f 140//89 137//86 131//86
f 131//87 132//83 141//87
f 136//1 131//1 139//1
f 142//86 132//78 138//78
f 143//89 139//85 133//85
f 131//1 121//1 139//1
f 140//90 133//88 134//88
f 140//1 121//1 131//1
f 134//85 135//89 140//89
f 137//86 140//89 135//89
f 136//1 144//1 138//1
f 131//87 143//90 140//90
f 132//78 142//86 141//86
f 143//90 131//87 141//87
f 136//1 139//1 144//1
f 138//1 144//1 142//1
f 139//85 143//89 144//89
f 133//88 140//90 143//90
f 144//89 141//86 142//86
f 141//86 144//89 143//89
usemtl material_1_0
f 3//20 2//20 1//20
f 4//20 1//20 2//20
f 3//86 5//86 2//89
f 1//78 6//78 3//86
f 4//75 7//75 1//78
f 8//20 4//20 2//20
f 9//89 2//89 5//86
f 5//86 3//86 6//78
f 6//78 1//78 7//75
f 7//75 4//75 10//74
f 11//20 4//20 8//20
f 2//89 9//89 8//85
f 5//91 12//91 9//92
f 5//91 6//93 12//91
f 6//93 7//94 13//93
f 11//74 10//74 4//75
f 7//94 10//95 14//94
f 12//20 11//20 8//20
f 15//85 8//85 9//89
f 16//92 9//92 12//91
f 13//93 12//91 6//93
f 14//94 13//93 7//94
f 11//74 17//77 10//74
f 18//95 14//94 10//95
f 13//20 11//20 12//20
f 8//20 19//20 12//20
f 8//85 15//85 19//79
f 9//92 16//92 15//96
f 16//20 12//20 19//20
f 12//86 20//86 16//89
f 13//78 21//78 12//86
f 14//20 17//20 13//20
f 14//75 22//75 13//78
f 23//77 10//74 17//77
f 17//20 11//20 13//20
f 18//20 17//20 14//20
f 18//74 24//74 14//75
f 10//95 23//97 18//95
f 25//79 19//79 15//85
f 26//96 15//96 16//92
f 27//20 16//20 19//20
f 28//89 16//89 20//86
f 20//86 12//86 21//78
f 21//78 13//78 22//75
f 22//75 14//75 24//74
f 17//77 29//66 23//77
f 30//20 17//20 18//20
f 18//74 30//77 24//74
f 30//97 18//95 23//97
f 25//79 31//72 19//79
f 15//96 26//96 25//98
f 26//20 16//20 27//20
f 16//89 28//89 26//85
f 27//72 19//79 31//72
f 20//1 21//1 28//1
f 22//1 32//1 21//1
f 24//20 33//20 22//20
f 34//20 33//20 24//20
f 36//20 35//20 24//20
f 37//66 23//77 29//66
f 29//20 17//20 30//20
f 38//77 24//74 30//77
f 23//97 37//99 30//97
f 25//98 39//98 31//100
f 39//98 25//98 26//96
f 39//20 26//20 27//20
f 32//85 26//85 28//89
f 31//72 40//53 27//72
f 32//1 28//1 21//1
f 41//1 32//1 22//1
f 43//63 42//63 22//64
f 33//62 44//62 43//63
f 43//20 22//20 33//20
f 34//61 45//61 33//62
f 35//20 34//20 24//20
f 35//71 46//71 34//61
f 47//20 36//20 24//20
f 48//20 47//20 24//20
f 36//70 49//70 35//71
f 47//69 50//69 36//70
f 29//66 51//40 37//66
f 52//20 29//20 30//20
f 24//1 38//1 53//1
f 30//77 52//66 38//77
f 52//99 30//97 37//99
f 54//100 31//100 39//98
f 26//85 32//85 39//79
f 54//20 39//20 27//20
f 55//53 27//72 40//53
f 31//100 54//100 40//101
f 41//79 39//79 32//85
f 56//1 41//1 22//1
f 58//38 57//38 22//38
f 58//64 22//64 42//63
f 42//63 43//63 44//62
f 44//62 33//62 45//61
f 45//61 34//61 46//71
f 46//71 35//71 49//70
f 48//68 59//68 47//69
f 61//67 60//67 48//68
f 61//20 48//20 24//20
f 63//20 61//20 24//20
f 64//20 63//20 24//20
f 63//58 62//58 61//67
f 49//70 36//70 50//69
f 50//69 47//69 59//68
f 66//40 37//66 51//40
f 51//20 29//20 52//20
f 67//1 53//1 38//1
f 24//33 53//33 68//33
f 67//66 38//77 52//66
f 37//99 66//102 52//99
f 54//72 39//79 69//72
f 55//20 54//20 27//20
f 40//53 70//31 55//53
f 71//101 40//101 54//100
f 41//79 69//72 39//79
f 69//1 41//1 56//1
f 56//38 22//38 57//38
f 42//103 72//103 58//104
f 57//104 58//104 72//103
f 42//103 44//105 72//103
f 73//105 72//103 44//105
f 44//105 45//106 73//105
f 45//106 46//107 74//106
f 49//108 50//1 75//108
f 59//68 48//68 60//67
f 60//67 61//67 62//58
f 62//58 63//58 65//57
f 64//57 65//57 63//58
f 77//56 76//56 64//57
f 24//55 68//55 77//56
f 77//20 64//20 24//20
f 50//1 59//109 78//1
f 59//109 60//110 79//109
f 60//110 62//111 80//110
f 51//40 82//23 66//40
f 83//20 51//20 52//20
f 84//1 53//1 67//1
f 85//33 68//33 53//33
f 76//56 77//56 68//55
f 52//66 83//40 67//66
f 83//102 52//99 66//102
f 69//72 86//53 54//72
f 71//20 54//20 55//20
f 87//31 55//53 70//31
f 40//101 71//101 70//112
f 71//53 54//72 86//53
f 86//1 69//1 56//1
f 72//47 88//47 57//48
f 56//48 57//48 88//47
f 73//37 89//37 72//47
f 88//47 72//47 89//37
f 89//37 73//37 90//36
f 74//106 73//105 45//106
f 91//107 74//106 46//107
f 46//107 49//108 91//107
f 75//108 91//107 49//108
f 78//1 75//108 50//1
f 62//111 65//113 81//111
f 65//57 64//57 76//56
f 79//109 78//1 59//109
f 80//110 79//109 60//110
f 81//111 80//110 62//111
f 92//113 81//111 65//113
f 93//23 66//40 82//23
f 82//20 51//20 83//20
f 94//1 53//1 84//1
f 84//40 67//66 83//40
f 65//113 76//114 92//113
f 95//114 92//113 76//114
f 76//114 68//115 95//114
f 85//115 95//114 68//115
f 85//24 53//24 95//25
f 97//25 95//25 53//24
f 83//102 66//102 98//116
f 87//20 71//20 55//20
f 70//31 99//17 87//31
f 100//112 70//112 71//101
f 86//53 101//31 71//53
f 101//1 86//1 56//1
f 56//20 88//20 53//20
f 89//20 53//20 88//20
f 74//36 90//36 73//37
f 90//20 53//20 89//20
f 91//35 102//35 74//36
f 90//36 74//36 102//35
f 102//35 91//35 103//34
f 75//34 103//34 91//35
f 78//30 104//30 75//34
f 79//29 105//29 78//30
f 80//28 106//28 79//29
f 92//26 96//26 81//27
f 93//116 98//116 66//102
f 82//23 107//18 93//23
f 98//20 82//20 83//20
f 108//1 53//1 94//1
f 94//23 84//40 98//23
f 83//40 98//23 84//40
f 95//25 97//25 92//26
f 106//28 80//28 109//27
f 96//26 92//26 97//25
f 96//20 53//20 109//20
f 97//20 53//20 96//20
f 100//20 71//20 87//20
f 110//17 87//31 99//17
f 70//112 100//112 99//117
f 100//31 71//53 101//31
f 111//1 101//1 56//1
f 53//5 112//5 56//6
f 102//20 53//20 90//20
f 103//20 53//20 102//20
f 104//20 53//20 103//20
f 103//34 75//34 104//30
f 104//30 78//30 105//29
f 105//29 79//29 106//28
f 109//27 81//27 96//26
f 98//116 93//116 113//118
f 114//18 93//23 107//18
f 107//20 82//20 113//20
f 113//20 82//20 98//20
f 115//1 53//1 108//1
f 108//18 94//23 113//18
f 98//23 113//18 94//23
f 105//20 53//20 104//20
f 106//20 53//20 105//20
f 109//20 53//20 106//20
f 116//20 100//20 87//20
f 110//20 116//20 87//20
f 99//17 117//13 110//17
f 116//117 99//117 100//112
f 101//31 111//17 100//31
f 118//1 111//1 56//1
f 119//6 56//6 112//5
f 112//5 53//5 120//4
f 81//27 109//27 80//28
f 114//118 113//118 93//116
f 107//18 121//14 114//18
f 122//20 107//20 113//20
f 123//1 53//1 115//1
f 115//14 108//18 122//14
f 113//18 122//14 108//18
f 116//17 100//31 111//17
f 124//20 116//20 110//20
f 125//13 110//17 117//13
f 117//119 99//117 124//119
f 116//117 124//119 99//117
f 111//17 118//13 116//17
f 118//13 56//6 124//13
f 119//6 124//13 56//6
f 112//20 119//20 126//20
f 119//120 112//121 127//120
f 128//4 120//4 53//5
f 120//20 112//20 126//20
f 112//121 120//122 129//121
f 113//118 114//118 122//123
f 130//14 114//18 121//14
f 121//20 107//20 122//20
f 128//1 53//1 123//1
f 115//14 122//14 123//7
f 124//13 116//17 118//13
f 125//20 124//20 110//20
f 117//13 127//6 125//13
f 124//119 119//120 117//119
f 119//20 124//20 125//20
f 126//20 119//20 125//20
f 129//121 127//120 112//121
f 127//120 117//119 119//120
f 120//4 128//4 131//3
f 131//20 120//20 126//20
f 132//122 129//121 120//122
f 130//123 122//123 114//118
f 130//14 121//14 133//7
f 134//20 121//20 122//20
f 135//1 128//1 123//1
f 134//7 123//7 122//14
f 126//6 125//13 127//6
f 129//5 136//5 127//6
f 137//3 131//3 128//4
f 120//122 131//124 132//122
f 136//20 131//20 126//20
f 132//4 138//4 129//5
f 122//123 130//123 134//125
f 139//7 133//7 121//14
f 133//125 134//125 130//123
f 140//20 121//20 134//20
f 137//1 128//1 135//1
f 123//7 134//7 135//2
f 126//6 127//6 136//5
f 136//5 129//5 138//4
f 131//3 137//3 140//2
f 141//124 132//122 131//124
f 139//20 131//20 136//20
f 138//4 132//4 142//3
f 133//7 139//7 143//2
f 139//20 121//20 131//20
f 134//125 133//125 140//126
f 131//20 121//20 140//20
f 140//2 135//2 134//7
f 135//2 140//2 137//3
f 138//20 144//20 136//20
f 140//126 143//126 131//124
f 141//3 142//3 132//4
f 141//124 131//124 143//126
f 144//20 139//20 136//20
f 142//20 144//20 138//20
f 144//2 143//2 139//7
f 143//126 140//126 133//125
f 142//3 141//3 144//2
f 143//2 144//2 141//3
