# SSTK version 0.8.0
# 20
mtllib original-20.mtl
o mesh17/mesh17-geometry#mesh17-geometry
v 0.211930 -0.554092 0.631931
v -0.203306 -0.553717 0.630339
v -0.203306 -0.554092 0.631931
v 0.211930 -0.553717 0.630339
v 0.211930 -0.554614 0.633480
v -0.203306 -0.554614 0.633480
v -0.203306 -0.553488 0.628718
v 0.211930 -0.553488 0.628718
v 0.211930 -0.556075 0.636402
v -0.203306 -0.555277 0.634973
v -0.203306 -0.556075 0.636402
v 0.211930 -0.555277 0.634973
v -0.203306 -0.553414 0.627086
v 0.211930 -0.553414 0.627086
v -0.203306 -0.553488 0.625452
v 0.211930 -0.553488 0.625452
v -0.203306 -0.553717 0.623831
v 0.211930 -0.553717 0.623831
v -0.203306 -0.554092 0.622239
v 0.211930 -0.554092 0.622239
v -0.203306 -0.554614 0.620690
v 0.211930 -0.554614 0.620690
v -0.203306 -0.555277 0.619197
v -0.203306 -0.556075 0.617770
v 0.211930 -0.555277 0.619197
v 0.211930 -0.556075 0.617770
vn 0 0.9615239853766626 0.274720995821906
vn 0 0.9828379586790359 0.18447099224437866
vn 0 0.931941319487246 0.36260912430931896
vn 0 0.9957002250501817 0.09263402093732927
vn 0 0.8726389239595563 0.48836595744452505
vn 0 0.8943443756350014 0.4473791879044434
vn 0 1 0
vn 0 0.9957002250501817 -0.09263402093732882
vn 0 0.9828379586790361 -0.18447099224437827
vn 0 0.9615239853766626 -0.2747209958219055
vn 0 0.931941319487246 -0.36260912430931846
vn 0 0.8943443756350016 -0.447379187904443
vn 0 0.8726389239595566 -0.4883659574445247
vn 0 -0.9615239853766626 -0.274720995821906
vn 0 -0.9828379586790359 -0.18447099224437866
vn 0 -0.931941319487246 -0.36260912430931896
vn 0 -0.9957002250501817 -0.09263402093732927
vn 0 -0.8943443756350014 -0.4473791879044434
vn 0 -0.8726389239595563 -0.48836595744452505
vn 0 -1 0
vn 0 -0.9957002250501817 0.09263402093732882
vn 0 -0.9828379586790361 0.18447099224437827
vn 0 -0.9615239853766626 0.2747209958219055
vn 0 -0.931941319487246 0.36260912430931846
vn 0 -0.8943443756350016 0.447379187904443
vn 0 -0.8726389239595566 0.4883659574445247
usemtl material_0_0
f 1//1 2//2 3//1
f 2//2 1//1 4//2
f 3//1 5//3 1//1
f 4//2 7//4 2//2
f 7//4 4//2 8//4
f 9//5 10//6 11//5
f 12//6 6//3 10//6
f 6//3 12//6 5//3
f 5//3 3//1 6//3
f 10//6 9//5 12//6
f 8//4 13//7 7//4
f 14//7 15//8 13//7
f 13//7 8//4 14//7
f 15//8 14//7 16//8
f 16//8 17//9 15//8
f 17//9 16//8 18//9
f 18//9 19//10 17//9
f 19//10 18//9 20//10
f 20//10 21//11 19//10
f 21//11 20//10 22//11
f 22//11 23//12 21//11
f 23//12 22//11 25//12
f 25//12 24//13 23//12
f 24//13 25//12 26//13
usemtl material_1_0
f 3//14 2//15 1//14
f 4//15 1//14 2//15
f 6//16 3//14 5//16
f 1//14 5//16 3//14
f 2//15 7//17 4//15
f 8//17 4//15 7//17
f 10//18 6//16 12//18
f 5//16 12//18 6//16
f 11//19 10//18 9//19
f 12//18 9//19 10//18
f 7//17 13//20 8//17
f 14//20 8//17 13//20
f 13//20 15//21 14//20
f 16//21 14//20 15//21
f 15//21 17//22 16//21
f 18//22 16//21 17//22
f 17//22 19//23 18//22
f 20//23 18//22 19//23
f 19//23 21//24 20//23
f 22//24 20//23 21//24
f 23//25 24//26 25//25
f 21//24 23//25 22//24
f 25//25 22//24 23//25
f 26//26 25//25 24//26
