# SSTK version 0.8.0
# 17
mtllib original-17.mtl
o mesh14/mesh14-geometry#mesh14-geometry
v -0.302638 -0.609311 0.463944
v -0.289329 -0.556075 0.463944
v 0.301584 -0.609311 0.463944
v -0.302638 -0.542767 0.463944
v 0.288275 -0.556075 0.463944
v -0.243501 -0.609311 0.491139
v -0.302638 -0.609311 0.740768
v -0.289329 -0.542767 0.463944
v 0.301584 -0.542767 0.463944
v 0.288275 -0.556075 0.727459
v 0.242447 -0.609311 0.491139
v -0.302638 -0.542767 0.740768
v -0.302137 -0.541321 0.463944
v -0.289829 -0.541321 0.463944
v -0.290641 -0.540022 0.463944
v -0.289329 -0.542767 0.727459
v 0.288275 -0.542767 0.463944
v 0.301584 -0.542767 0.740768
v -0.289329 -0.556075 0.727459
v -0.243501 -0.609311 0.713572
v 0.242447 -0.609311 0.713572
v 0.242447 -0.649237 0.491139
v -0.302137 -0.541321 0.740267
v -0.301326 -0.540022 0.739455
v -0.301326 -0.540022 0.463944
v -0.300245 -0.538939 0.463944
v -0.291722 -0.538939 0.463944
v -0.298949 -0.538122 0.463944
v -0.289829 -0.541321 0.727959
v -0.290641 -0.540022 0.728771
v 0.288775 -0.541321 0.463944
v 0.301083 -0.541321 0.463944
v 0.289587 -0.540022 0.463944
v 0.301584 -0.609311 0.740768
v 0.301083 -0.541321 0.740267
v 0.288275 -0.542767 0.727459
v -0.243501 -0.649237 0.713572
v -0.243501 -0.649237 0.491139
v 0.300272 -0.540022 0.739455
v -0.300245 -0.538939 0.738375
v 0.299191 -0.538939 0.738375
v -0.298949 -0.538122 0.737078
v -0.293018 -0.538122 0.463944
v -0.297503 -0.537616 0.463944
v -0.297503 -0.537616 0.735633
v -0.291722 -0.538939 0.729852
v 0.300272 -0.540022 0.463944
v 0.299191 -0.538939 0.463944
v 0.288775 -0.541321 0.727959
v 0.242447 -0.649237 0.713572
v 0.202521 -0.689164 0.491139
v -0.294464 -0.537616 0.463944
v -0.295983 -0.537443 0.463944
v -0.294464 -0.537616 0.732593
v -0.295983 -0.537443 0.734113
v -0.293018 -0.538122 0.731148
v 0.291964 -0.538122 0.731148
v 0.289587 -0.540022 0.728771
v 0.297895 -0.538122 0.463944
v 0.290668 -0.538939 0.463944
v 0.290668 -0.538939 0.729852
v -0.203575 -0.689164 0.713572
v 0.202521 -0.689164 0.713572
v -0.203575 -0.689164 0.491139
v 0.297895 -0.538122 0.737078
v 0.296449 -0.537616 0.735633
v 0.293409 -0.537616 0.732593
v 0.291964 -0.538122 0.463944
v 0.294929 -0.537443 0.734113
v 0.293409 -0.537616 0.463944
v 0.296449 -0.537616 0.463944
v 0.294929 -0.537443 0.463944
vn 0 0 -1
vn 0 -1 0
vn -1 0 0
vn 0 1 0
vn 1 0 0
vn 0 0 1
vn -0.9020812963711909 0.4315661417874109 0
vn -0.9448137655633895 0.32760791871065725 0
vn -0.7831118501496039 0.62188088100155 0
vn 0.9020812963711909 0.4315661417874109 0
vn 0.9448137655633895 0.32760791871065725 0
vn 0.6246949256032116 0.7808689070039848 0
vn 0.7831118501496039 0.62188088100155 0
vn 0 0.43156614178741065 0.902081296371191
vn 0 0.32760791871065703 0.9448137655633896
vn -0.6246949256032116 0.7808689070039848 0
vn 0 0.6218808810015499 0.7831118501496043
vn 0 0.7808689070039847 0.6246949256032118
vn -0.43481008509582036 0.9005221762394112 0
vn -0.2230220894928724 0.9748133911668598 0
vn 0 0.4315661417874111 -0.9020812963711908
vn 0 0.3276079187106575 -0.9448137655633894
vn 0 0.9005221762394111 0.4348100850958206
vn 0.43481008509582036 0.9005221762394112 0
vn 0 0.6218808810015503 -0.7831118501496038
vn 0 0.9005221762394113 -0.43481008509582014
vn 0 0.780868907003985 -0.6246949256032115
vn -0.7071067811865476 -0.7071067811865476 0
vn 0.7071067811865476 -0.7071067811865476 0
vn 0 0.9748133911668596 0.22302208949287256
vn 0.2230220894928724 0.9748133911668598 0
vn 0 0.9748133911668598 -0.22302208949287217
vn 0.9448137655633895 -0.32760791871065725 0
vn 0.9020812963711909 -0.4315661417874109 0
vn 0.7831118501496039 -0.62188088100155 0
vn -0.9020812963711909 -0.4315661417874109 0
vn -0.7831118501496039 -0.62188088100155 0
vn -0.9448137655633895 -0.32760791871065725 0
vn -0.6246949256032116 -0.7808689070039848 0
vn 0 -0.32760791871065703 -0.9448137655633896
vn 0 -0.43156614178741065 -0.902081296371191
vn 0 -0.6218808810015499 -0.7831118501496043
vn 0.6246949256032116 -0.7808689070039848 0
vn 0 -0.7808689070039847 -0.6246949256032118
vn 0.43481008509582036 -0.9005221762394112 0
vn -0.43481008509582036 -0.9005221762394112 0
vn 0 -0.3276079187106575 0.9448137655633894
vn 0 -0.4315661417874111 0.9020812963711908
vn 0 -0.9005221762394111 -0.4348100850958206
vn -0.2230220894928724 -0.9748133911668598 0
vn 0.2230220894928724 -0.9748133911668598 0
vn 0 -0.6218808810015503 0.7831118501496038
vn 0 -0.9005221762394113 0.43481008509582014
vn 0 -0.780868907003985 0.6246949256032115
vn 0.7071067811865476 0.7071067811865476 0
vn -0.7071067811865476 0.7071067811865476 0
vn 0 -0.9748133911668596 -0.22302208949287256
vn 0 -0.9748133911668598 0.22302208949287217
usemtl material_0_0
f 1//1 2//1 3//1
f 2//1 1//1 4//1
f 5//1 3//1 2//1
f 6//2 1//2 3//2
f 7//3 4//3 1//3
f 2//1 4//1 8//1
f 3//1 5//1 9//1
f 2//4 10//4 5//4
f 1//2 6//2 7//2
f 6//2 3//2 11//2
f 4//3 7//3 12//3
f 13//1 8//1 4//1
f 8//1 13//1 14//1
f 14//1 13//1 15//1
f 16//5 2//5 8//5
f 9//1 5//1 17//1
f 18//5 3//5 9//5
f 10//4 2//4 19//4
f 10//3 17//3 5//3
f 20//2 7//2 6//2
f 11//2 3//2 21//2
f 22//1 6//1 11//1
f 7//6 18//6 12//6
f 23//7 4//8 12//8
f 4//8 23//7 13//7
f 24//9 13//7 23//7
f 15//1 13//1 25//1
f 15//1 25//1 26//1
f 15//1 26//1 27//1
f 27//1 26//1 28//1
f 14//10 16//11 8//11
f 27//12 30//13 15//13
f 15//13 29//10 14//10
f 2//5 16//5 19//5
f 16//11 14//10 29//10
f 31//1 9//1 17//1
f 9//1 31//1 32//1
f 32//1 31//1 33//1
f 3//5 18//5 34//5
f 9//11 35//10 18//11
f 16//1 10//1 19//1
f 17//3 10//3 36//3
f 7//2 20//2 34//2
f 6//3 37//3 20//3
f 34//2 21//2 3//2
f 21//5 22//5 11//5
f 22//1 38//1 6//1
f 18//6 7//6 34//6
f 35//14 12//15 18//15
f 12//15 35//14 23//14
f 13//7 24//9 25//9
f 40//16 25//9 24//9
f 23//14 39//17 24//17
f 24//17 41//18 40//18
f 25//9 40//16 26//16
f 27//1 28//1 43//1
f 26//16 42//19 28//19
f 28//19 45//20 44//20
f 29//10 15//13 30//13
f 30//13 27//12 46//12
f 29//21 36//22 16//22
f 36//8 31//7 17//8
f 41//12 47//13 48//12
f 32//1 33//1 47//1
f 49//7 33//9 31//7
f 35//10 9//11 32//10
f 39//13 32//10 47//13
f 41//18 24//17 39//17
f 32//10 39//13 35//10
f 10//1 16//1 36//1
f 34//2 20//2 21//2
f 37//3 6//3 38//3
f 37//6 21//6 20//6
f 22//5 21//5 50//5
f 51//1 38//1 22//1
f 39//17 23//14 35//14
f 41//18 42//23 40//18
f 42//19 26//16 40//16
f 43//1 44//1 52//1
f 43//24 46//12 27//12
f 52//1 44//1 53//1
f 45//20 28//19 42//19
f 55//4 44//20 45//20
f 30//25 49//21 29//21
f 46//12 43//24 56//24
f 57//26 46//27 56//26
f 46//27 58//25 30//25
f 49//21 30//25 58//25
f 36//22 29//21 49//21
f 31//7 36//8 49//7
f 47//13 41//12 39//13
f 59//24 41//12 48//12
f 33//9 49//7 58//9
f 60//16 58//9 61//16
f 38//28 62//28 37//28
f 37//6 50//6 21//6
f 63//29 22//29 50//29
f 38//1 51//1 64//1
f 22//29 63//29 51//29
f 42//23 41//18 65//23
f 65//23 45//30 42//23
f 45//30 65//23 66//30
f 43//1 28//1 44//1
f 53//4 54//31 52//31
f 52//31 56//24 43//24
f 44//20 55//4 53//4
f 56//24 52//31 54//31
f 54//31 53//4 55//4
f 56//26 67//32 57//26
f 46//27 57//26 61//27
f 58//25 46//27 61//27
f 41//12 59//24 65//24
f 47//1 60//1 48//1
f 58//9 60//16 33//9
f 62//28 38//28 64//28
f 62//6 50//6 37//6
f 50//6 62//6 63//6
f 51//2 62//2 64//2
f 62//2 51//2 63//2
f 55//4 66//30 69//4
f 66//30 55//4 45//30
f 69//4 54//32 55//4
f 67//32 56//26 54//32
f 54//32 69//4 67//32
f 69//4 70//20 67//20
f 67//20 68//19 57//19
f 57//19 60//16 61//16
f 71//31 65//24 59//24
f 47//1 33//1 60//1
f 48//1 60//1 68//1
f 48//1 68//1 59//1
f 59//1 68//1 70//1
f 59//1 70//1 71//1
f 71//1 70//1 72//1
f 60//16 57//19 68//19
f 65//24 71//31 66//31
f 66//31 72//4 69//4
f 70//20 69//4 72//4
f 68//19 67//20 70//20
f 72//4 66//31 71//31
usemtl material_1_0
f 3//6 2//6 1//6
f 4//6 1//6 2//6
f 2//6 3//6 5//6
f 3//4 1//4 6//4
f 1//5 4//5 7//5
f 8//6 4//6 2//6
f 9//6 5//6 3//6
f 5//2 10//2 2//2
f 7//4 6//4 1//4
f 11//4 3//4 6//4
f 12//5 7//5 4//5
f 4//6 8//6 13//6
f 14//6 13//6 8//6
f 15//6 13//6 14//6
f 8//3 2//3 16//3
f 17//6 5//6 9//6
f 9//3 3//3 18//3
f 19//2 2//2 10//2
f 5//5 17//5 10//5
f 6//4 7//4 20//4
f 21//4 3//4 11//4
f 11//6 6//6 22//6
f 12//1 18//1 7//1
f 12//33 4//33 23//34
f 13//34 23//34 4//33
f 23//34 13//34 24//35
f 25//35 24//35 13//34
f 25//6 13//6 15//6
f 26//6 25//6 15//6
f 27//6 26//6 15//6
f 28//6 26//6 27//6
f 14//36 29//36 15//37
f 8//38 16//38 14//36
f 15//37 30//37 27//39
f 19//3 16//3 2//3
f 29//36 14//36 16//38
f 17//6 9//6 31//6
f 32//6 31//6 9//6
f 33//6 31//6 32//6
f 34//3 18//3 3//3
f 19//6 10//6 16//6
f 36//5 10//5 17//5
f 34//4 20//4 7//4
f 20//5 37//5 6//5
f 3//4 21//4 34//4
f 11//3 22//3 21//3
f 6//6 38//6 22//6
f 34//1 7//1 18//1
f 18//40 12//40 35//41
f 23//41 35//41 12//40
f 35//41 23//41 39//42
f 24//35 25//35 40//43
f 24//42 39//42 23//41
f 40//44 41//44 24//42
f 26//43 40//43 25//35
f 40//43 26//43 42//45
f 44//6 28//6 43//6
f 28//45 42//45 26//43
f 30//37 15//37 29//36
f 27//39 46//39 43//46
f 46//39 27//39 30//37
f 16//47 36//47 29//48
f 17//33 31//34 36//33
f 47//37 32//36 39//37
f 48//39 47//37 41//39
f 31//34 33//35 49//34
f 32//36 9//38 35//36
f 39//42 24//42 41//44
f 18//38 35//36 9//38
f 36//6 16//6 10//6
f 49//34 36//33 31//34
f 21//4 20//4 34//4
f 38//5 6//5 37//5
f 20//1 21//1 37//1
f 50//3 21//3 22//3
f 22//6 38//6 51//6
f 40//44 42//49 41//44
f 43//6 28//6 27//6
f 52//6 44//6 43//6
f 53//6 44//6 52//6
f 52//50 54//50 53//2
f 42//45 28//45 45//51
f 44//51 45//51 28//45
f 45//51 44//51 55//2
f 29//48 49//48 30//52
f 56//46 43//46 46//39
f 56//53 46//54 57//53
f 30//52 58//52 46//54
f 58//52 30//52 49//48
f 49//48 29//48 36//47
f 35//36 39//37 32//36
f 39//37 41//39 47//37
f 48//39 41//39 59//46
f 58//35 49//34 33//35
f 61//43 58//35 60//43
f 37//55 62//55 38//55
f 21//1 50//1 37//1
f 50//56 22//56 63//56
f 64//6 51//6 38//6
f 51//56 63//56 22//56
f 65//49 41//44 42//49
f 42//49 45//57 65//49
f 66//57 65//49 45//57
f 43//46 56//46 52//50
f 53//2 55//2 44//51
f 54//50 52//50 56//46
f 55//2 53//2 54//50
f 45//57 55//2 66//57
f 54//58 56//53 67//58
f 57//53 67//58 56//53
f 61//54 57//53 46//54
f 61//54 46//54 58//52
f 65//46 59//46 41//39
f 47//6 33//6 32//6
f 48//6 60//6 47//6
f 59//6 68//6 48//6
f 61//43 60//43 57//45
f 68//45 57//45 60//43
f 33//35 60//43 58//35
f 64//55 38//55 62//55
f 37//1 50//1 62//1
f 63//1 62//1 50//1
f 64//4 62//4 51//4
f 63//4 51//4 62//4
f 55//2 54//58 69//2
f 69//2 66//57 55//2
f 67//58 69//2 54//58
f 67//51 70//51 69//2
f 57//45 68//45 67//51
f 60//6 33//6 47//6
f 68//6 60//6 48//6
f 70//6 68//6 59//6
f 71//6 70//6 59//6
f 66//50 71//50 65//46
f 69//2 72//2 66//50
f 72//2 69//2 70//51
f 59//46 65//46 71//50
f 71//50 66//50 72//2
f 70//51 67//51 68//45
f 72//6 70//6 71//6
