# SSTK version 0.8.0
# 19
mtllib original-19.mtl
o mesh16/mesh16-geometry#mesh16-geometry
v 0.211930 -0.553488 0.572821
v -0.203306 -0.553414 0.571189
v -0.203306 -0.553488 0.572821
v 0.211930 -0.553414 0.571189
v -0.203306 -0.553488 0.569555
v 0.211930 -0.553488 0.569555
v 0.211930 -0.553717 0.574442
v -0.203306 -0.553717 0.574442
v -0.203306 -0.553717 0.567934
v 0.211930 -0.553717 0.567934
v -0.203306 -0.554092 0.566342
v 0.211930 -0.554092 0.576033
v -0.203306 -0.554092 0.576033
v 0.211930 -0.554092 0.566342
v -0.203306 -0.554614 0.564793
v -0.203306 -0.555277 0.563300
v 0.211930 -0.554614 0.564793
v 0.211930 -0.554614 0.577583
v -0.203306 -0.554614 0.577583
v 0.211930 -0.555277 0.579076
v 0.211930 -0.555277 0.563300
v -0.203306 -0.556075 0.561873
v 0.211930 -0.556075 0.561873
v -0.203306 -0.555277 0.579076
v 0.211930 -0.556075 0.580505
v -0.203306 -0.556075 0.580505
vn 0 0.9957002250501817 0.09263402093732927
vn 0 1 0
vn 0 0.9957002250501817 -0.09263402093732882
vn 0 0.9828379586790359 0.18447099224437866
vn 0 0.9828379586790361 -0.18447099224437827
vn 0 0.9615239853766626 -0.2747209958219055
vn 0 0.9615239853766626 0.274720995821906
vn 0 0.931941319487246 0.36260912430931896
vn 0 0.8943443756350014 0.4473791879044434
vn 0 0.931941319487246 -0.36260912430931846
vn 0 0.8943443756350016 -0.447379187904443
vn 0 0.8726389239595566 -0.4883659574445247
vn 0 0.8726389239595563 0.48836595744452505
vn 0 -0.9957002250501817 -0.09263402093732927
vn 0 -1 0
vn 0 -0.9957002250501817 0.09263402093732882
vn 0 -0.9828379586790359 -0.18447099224437866
vn 0 -0.9828379586790361 0.18447099224437827
vn 0 -0.9615239853766626 0.2747209958219055
vn 0 -0.9615239853766626 -0.274720995821906
vn 0 -0.931941319487246 0.36260912430931846
vn 0 -0.8943443756350016 0.447379187904443
vn 0 -0.931941319487246 -0.36260912430931896
vn 0 -0.8726389239595566 0.4883659574445247
vn 0 -0.8943443756350014 -0.4473791879044434
vn 0 -0.8726389239595563 -0.48836595744452505
usemtl material_0_0
f 1//1 2//2 3//1
f 2//2 1//1 4//2
f 4//2 5//3 2//2
f 5//3 4//2 6//3
f 7//4 3//1 8//4
f 3//1 7//4 1//1
f 6//3 9//5 5//3
f 9//5 6//3 10//5
f 10//5 11//6 9//5
f 8//4 12//7 7//4
f 11//6 10//5 14//6
f 18//8 13//7 19//8
f 13//7 18//8 12//7
f 12//7 8//4 13//7
f 19//8 20//9 18//8
f 15//10 14//6 17//10
f 14//6 15//10 11//6
f 17//10 16//11 15//10
f 21//11 22//12 16//11
f 22//12 21//11 23//12
f 16//11 17//10 21//11
f 24//9 25//13 20//9
f 25//13 24//9 26//13
f 20//9 19//8 24//9
usemtl material_1_0
f 3//14 2//15 1//14
f 4//15 1//14 2//15
f 2//15 5//16 4//15
f 6//16 4//15 5//16
f 8//17 3//14 7//17
f 1//14 7//17 3//14
f 5//16 9//18 6//16
f 10//18 6//16 9//18
f 9//18 11//19 10//18
f 7//17 12//20 8//17
f 13//20 8//17 12//20
f 14//19 10//18 11//19
f 15//21 16//22 17//21
f 19//23 13//20 18//23
f 12//20 18//23 13//20
f 17//21 14//19 15//21
f 21//22 17//21 16//22
f 11//19 15//21 14//19
f 16//22 22//24 21//22
f 23//24 21//22 22//24
f 24//25 19//23 20//25
f 18//23 20//25 19//23
f 20//25 25//26 24//25
f 26//26 24//25 25//26
