# SSTK version 0.8.0
# 7
mtllib original-7.mtl
o mesh5/mesh5-geometry#mesh5-geometry
v -0.118976 0.527823 0.463944
v 0.117922 -0.177545 0.463944
v -0.118976 -0.177545 0.463944
v 0.117922 0.527823 0.463944
v -0.118976 -0.177545 0.530488
v -0.118976 0.525721 0.470729
v 0.117922 0.525721 0.470729
v 0.117922 -0.177545 0.530488
v -0.118976 0.483705 0.526586
v -0.118976 0.523197 0.477370
v 0.117922 0.523197 0.477370
v 0.117922 0.477769 0.530488
v -0.118976 0.477769 0.530488
v -0.118976 0.489385 0.522322
v -0.118976 0.520264 0.483840
v 0.117922 0.520264 0.483840
v 0.117922 0.483705 0.526586
v 0.117922 0.489385 0.522322
v -0.118976 0.494788 0.517709
v -0.118976 0.516932 0.490114
v 0.117922 0.516932 0.490114
v 0.117922 0.494788 0.517709
v -0.118976 0.499891 0.512766
v -0.118976 0.513213 0.496167
v 0.117922 0.513213 0.496167
v 0.117922 0.499891 0.512766
v -0.118976 0.504677 0.507517
v -0.118976 0.509122 0.501975
v 0.117922 0.509122 0.501975
v 0.117922 0.504677 0.507517
vn 0 0 -1
vn 0 -1 0
vn -1 0 0
vn 0 0.9552142516889586 0.2959150779705264
vn 0 0.9454797427534337 0.32568091138858707
vn 1 0 0
vn 0 0 1
vn 0 0.9232390599196015 0.3842260249368463
vn 0 0.5491710023776356 0.8357100036182066
vn 0 0.5750707671375037 0.8181036687265757
vn 0 0.6251531108355928 0.7805021383779684
vn 0 0.8973772701891194 0.4412641328591348
vn 0 0.6727839809679506 0.7398389790710656
vn 0 0.8679960806989012 0.4965710461669573
vn 0 0.7177760469238927 0.696274045518221
vn 0 0.8352100631164092 0.5499310415580156
vn 0 0.7599520977507446 0.6499790836051902
vn 0 0.7991481550906974 0.6011341166621095
vn 0 1 0
vn 0 -0.9552142516889586 -0.2959150779705264
vn 0 -0.9454797427534337 -0.32568091138858707
vn 0 -0.9232390599196015 -0.3842260249368463
vn 0 -0.5750707671375037 -0.8181036687265757
vn 0 -0.5491710023776356 -0.8357100036182066
vn 0 -0.6251531108355928 -0.7805021383779684
vn 0 -0.8973772701891194 -0.4412641328591348
vn 0 -0.6727839809679506 -0.7398389790710656
vn 0 -0.8679960806989012 -0.4965710461669573
vn 0 -0.7177760469238927 -0.696274045518221
vn 0 -0.8352100631164092 -0.5499310415580156
vn 0 -0.7599520977507446 -0.6499790836051902
vn 0 -0.7991481550906974 -0.6011341166621095
usemtl material_0_0
f 1//1 2//1 3//1
f 2//1 1//1 4//1
f 2//2 5//2 3//2
f 3//3 6//3 1//3
f 1//4 7//5 4//4
f 7//6 2//6 4//6
f 5//2 2//2 8//2
f 5//3 9//3 3//3
f 3//3 10//3 6//3
f 7//5 1//4 6//5
f 11//6 2//6 7//6
f 2//6 12//6 8//6
f 12//7 5//7 8//7
f 9//3 5//3 13//3
f 3//3 9//3 14//3
f 3//3 15//3 10//3
f 11//8 6//5 10//8
f 6//5 11//8 7//5
f 16//6 2//6 11//6
f 12//6 2//6 17//6
f 5//7 12//7 13//7
f 13//9 17//10 9//10
f 9//10 18//11 14//11
f 3//3 14//3 19//3
f 3//3 20//3 15//3
f 16//12 10//8 15//12
f 10//8 16//12 11//8
f 21//6 2//6 16//6
f 17//6 2//6 18//6
f 17//10 13//9 12//9
f 18//11 9//10 17//10
f 22//13 14//11 18//11
f 14//11 22//13 19//13
f 3//3 19//3 23//3
f 3//3 24//3 20//3
f 21//14 15//12 20//14
f 15//12 21//14 16//12
f 25//6 2//6 21//6
f 18//6 2//6 22//6
f 26//15 19//13 22//13
f 19//13 26//15 23//15
f 3//3 23//3 27//3
f 3//3 28//3 24//3
f 25//16 20//14 24//16
f 20//14 25//16 21//14
f 29//6 2//6 25//6
f 22//6 2//6 26//6
f 26//15 27//17 23//15
f 3//3 27//3 28//3
f 29//18 24//16 28//18
f 24//16 29//18 25//16
f 30//6 2//6 29//6
f 26//6 2//6 30//6
f 27//17 26//15 30//17
f 30//17 28//18 27//17
f 28//18 30//17 29//18
usemtl material_1_0
f 3//7 2//7 1//7
f 4//7 1//7 2//7
f 3//19 5//19 2//19
f 1//6 6//6 3//6
f 4//20 7//21 1//20
f 4//3 2//3 7//3
f 8//19 2//19 5//19
f 3//6 9//6 5//6
f 6//6 10//6 3//6
f 6//21 1//20 7//21
f 7//3 2//3 11//3
f 8//3 12//3 2//3
f 8//1 5//1 12//1
f 13//6 5//6 9//6
f 14//6 9//6 3//6
f 10//6 15//6 3//6
f 10//22 6//21 11//22
f 7//21 11//22 6//21
f 11//3 2//3 16//3
f 17//3 2//3 12//3
f 13//1 12//1 5//1
f 9//23 17//23 13//24
f 14//25 18//25 9//23
f 19//6 14//6 3//6
f 15//6 20//6 3//6
f 15//26 10//22 16//26
f 11//22 16//26 10//22
f 16//3 2//3 21//3
f 18//3 2//3 17//3
f 12//24 13//24 17//23
f 17//23 9//23 18//25
f 18//25 14//25 22//27
f 19//27 22//27 14//25
f 23//6 19//6 3//6
f 20//6 24//6 3//6
f 20//28 15//26 21//28
f 16//26 21//28 15//26
f 21//3 2//3 25//3
f 22//3 2//3 18//3
f 22//27 19//27 26//29
f 23//29 26//29 19//27
f 27//6 23//6 3//6
f 24//6 28//6 3//6
f 24//30 20//28 25//30
f 21//28 25//30 20//28
f 25//3 2//3 29//3
f 26//3 2//3 22//3
f 23//29 27//31 26//29
f 28//6 27//6 3//6
f 28//32 24//30 29//32
f 25//30 29//32 24//30
f 29//3 2//3 30//3
f 30//3 2//3 26//3
f 30//31 26//29 27//31
f 27//31 28//32 30//31
f 29//32 30//31 28//32
