# SSTK version 0.8.0
# 6
mtllib original-6.mtl
o Group4/mesh4/mesh4-geometry#mesh4-geometry
v -0.021712 0.157276 0.530488
v 0.018750 0.156701 0.530488
v -0.001515 0.153997 0.530488
v 0.037701 0.165208 0.530488
v -0.001515 0.153997 0.543797
v -0.021712 0.157276 0.543797
v -0.040467 0.166318 0.530488
v 0.018750 0.156701 0.543797
v -0.040467 0.166318 0.543797
v 0.054050 0.178935 0.530488
v 0.037701 0.165208 0.543797
v -0.001376 0.166259 0.551782
v -0.018755 0.169081 0.551782
v -0.056501 0.180505 0.543797
v -0.056501 0.180505 0.530488
v 0.016058 0.168586 0.551782
v -0.034890 0.176861 0.551782
v 0.066677 0.196950 0.530488
v 0.054050 0.178935 0.543797
v 0.032364 0.175906 0.551782
v -0.068719 0.198871 0.530488
v -0.048684 0.189068 0.551782
v 0.066677 0.196950 0.543797
v 0.046429 0.187716 0.551782
v -0.068719 0.198871 0.543797
v 0.074724 0.218023 0.530488
v 0.074724 0.218023 0.543797
v -0.076289 0.220166 0.530488
v 0.057292 0.203215 0.551782
v -0.059198 0.204871 0.551782
v -0.076289 0.220166 0.543797
v 0.077644 0.240717 0.530488
v 0.077644 0.240717 0.543797
v 0.064218 0.221345 0.551782
v -0.078698 0.242937 0.530488
v -0.065711 0.223192 0.551782
v -0.078698 0.242937 0.543797
v 0.075235 0.263486 0.530488
v 0.075235 0.263486 0.543797
v 0.066728 0.240871 0.551782
v -0.075778 0.265631 0.530488
v -0.067782 0.242783 0.551782
v -0.075778 0.265631 0.543797
v -0.065272 0.262307 0.551782
v 0.067665 0.284780 0.530488
v 0.067665 0.284780 0.543797
v 0.064657 0.260462 0.551782
v -0.067731 0.286704 0.530488
v 0.058144 0.278783 0.551782
v -0.058346 0.280439 0.551782
v -0.067731 0.286704 0.543797
v 0.055447 0.303149 0.530488
v 0.055447 0.303149 0.543797
v 0.047630 0.294586 0.551782
v -0.055104 0.304719 0.530488
v -0.047483 0.295938 0.551782
v -0.055104 0.304719 0.543797
v 0.039413 0.317336 0.530488
v 0.033836 0.306793 0.551782
v -0.038755 0.318446 0.543797
v -0.038755 0.318446 0.530488
v 0.039413 0.317336 0.543797
v -0.033419 0.307748 0.551782
v 0.020658 0.326378 0.530488
v 0.017701 0.314573 0.551782
v -0.019804 0.326953 0.543797
v -0.017113 0.315068 0.551782
v -0.019804 0.326953 0.530488
v 0.020658 0.326378 0.543797
v 0.000460 0.329657 0.530488
v 0.000322 0.317395 0.551782
v 0.000460 0.329657 0.543797
vn 0 0 -1
vn 0.2208669862946518 -0.9753039394799542 0
vn -0.011247997067236995 -0.9999367392800284 0
vn -0.24305794269812456 -0.9700117713158719 0
vn 0.44646383871496736 -0.8948016767529525 0
vn -0.467568825220468 -0.883956669572639 0
vn 0.11997396859531813 -0.5297798613235174 0.8396067802224587
vn -0.006137000592555051 -0.545591052679274 0.8380290809154824
vn -0.13190402042975793 -0.5264110815323972 0.8399361300922576
vn -0.25012996348790656 -0.4728809309723935 0.844877876671073
vn -0.6741648851270325 -0.7385808741509999 0
vn 0.6554122709524045 -0.7552713122348896 0
vn 0.23924892401228098 -0.4795028477053648 0.8442967318433797
vn -0.353343002033489 -0.3871040022277837 0.8516450049012169
vn -0.8461252285041869 -0.5329841439374509 0
vn 0.8316220466340392 -0.5553420311413606 0
vn 0.3442449539701497 -0.39669394695706434 0.8509578862163011
vn -0.43392818672606476 -0.2733361176207936 0.8584833694187797
vn 0.9534323045868697 -0.301607096352474 0
vn 0.42733790138238925 -0.2853679341450789 0.8578738020267698
vn -0.9614773677723747 -0.27488410514525197 0
vn 0.4814487303688063 -0.15230091470519133 0.8631405166056256
vn -0.48492191171294263 -0.13863797475894896 0.8634988427875292
vn 0.9998991890799547 -0.014199002685017463 0
vn -0.9998991890799547 0.014199002685017463 0
vn 0.5013338094074604 -0.007118997293564386 0.8652246710667341
vn -0.5013338094074604 0.007118997293564002 0.8652246710667341
vn 0.9614773677723747 0.27488410514525197 0
vn -0.9534323045868697 0.301607096352474 0
vn 0.48492191171294263 0.13863797475894857 0.8634988427875292
vn -0.4814487303688063 0.15230091470519094 0.8631405166056256
vn 0.8461252285041869 0.5329841439374509 0
vn -0.8316220466340392 0.5553420311413606 0
vn 0.43392818672606476 0.27333611762079324 0.8584833694187799
vn -0.42733790138238914 0.2853679341450785 0.8578738020267699
vn 0.6741648851270325 0.7385808741509999 0
vn 0.353343002033489 0.38710400222778335 0.8516450049012171
vn -0.6554122709524045 0.7552713122348896 0
vn -0.3442449539701497 0.396693946957064 0.8509578862163013
vn 0.467568825220468 0.883956669572639 0
vn 0.25012996348790656 0.47288093097239314 0.8448778766710732
vn -0.44646383871496736 0.8948016767529525 0
vn -0.23924892401228093 0.47950284770536433 0.8442967318433798
vn 0.24305794269812456 0.9700117713158719 0
vn 0.13190402042975793 0.5264110815323968 0.8399361300922579
vn -0.2208669862946518 0.9753039394799542 0
vn -0.11997396859531816 0.5297798613235171 0.839606780222459
vn 0.011247997067236995 0.9999367392800284 0
vn 0.006137000592555052 0.5455910526792737 0.8380290809154829
vn 0 0 1
vn 0.006137000592555051 0.545591052679274 -0.8380290809154824
vn -0.11997396859531813 0.5297798613235174 -0.8396067802224587
vn 0.13190402042975793 0.5264110815323972 -0.8399361300922576
vn 0.25012996348790656 0.4728809309723935 -0.844877876671073
vn -0.23924892401228098 0.4795028477053648 -0.8442967318433797
vn 0.353343002033489 0.3871040022277837 -0.8516450049012169
vn -0.3442449539701497 0.39669394695706434 -0.8509578862163011
vn 0.43392818672606476 0.2733361176207936 -0.8584833694187797
vn -0.42733790138238925 0.2853679341450789 -0.8578738020267698
vn -0.4814487303688063 0.15230091470519133 -0.8631405166056256
vn 0.48492191171294263 0.13863797475894896 -0.8634988427875292
vn -0.5013338094074604 0.007118997293564386 -0.8652246710667341
vn 0.5013338094074604 -0.007118997293564002 -0.8652246710667341
vn -0.48492191171294263 -0.13863797475894857 -0.8634988427875292
vn 0.4814487303688063 -0.15230091470519094 -0.8631405166056256
vn -0.43392818672606476 -0.27333611762079324 -0.8584833694187799
vn 0.42733790138238914 -0.2853679341450785 -0.8578738020267699
vn -0.353343002033489 -0.38710400222778335 -0.8516450049012171
vn 0.3442449539701497 -0.396693946957064 -0.8509578862163013
vn -0.25012996348790656 -0.47288093097239314 -0.8448778766710732
vn 0.23924892401228093 -0.47950284770536433 -0.8442967318433798
vn -0.13190402042975793 -0.5264110815323968 -0.8399361300922579
vn 0.11997396859531816 -0.5297798613235171 -0.839606780222459
vn -0.006137000592555052 -0.5455910526792737 -0.8380290809154829
usemtl material_0_0
f 1//1 2//1 3//1
f 2//1 1//1 4//1
f 2//2 5//3 3//3
f 3//3 6//4 1//4
f 4//1 1//1 7//1
f 4//5 8//2 2//2
f 5//3 2//2 8//2
f 6//4 3//3 5//3
f 9//6 1//4 6//4
f 1//4 9//6 7//6
f 4//1 7//1 10//1
f 8//2 4//5 11//5
f 8//7 12//8 5//8
f 12//8 6//9 5//8
f 13//9 9//10 6//9
f 14//11 7//6 9//6
f 10//1 7//1 15//1
f 10//12 11//5 4//5
f 11//13 16//7 8//7
f 12//8 8//7 16//7
f 6//9 12//8 13//9
f 9//10 13//9 17//10
f 7//6 14//11 15//11
f 17//10 14//14 9//10
f 10//1 15//1 18//1
f 11//5 10//12 19//12
f 16//7 11//13 20//13
f 14//11 21//15 15//11
f 14//14 17//10 22//14
f 18//1 15//1 21//1
f 23//16 10//12 18//16
f 10//12 23//16 19//12
f 19//17 20//13 11//13
f 21//15 14//11 25//15
f 22//14 25//18 14//14
f 18//1 21//1 26//1
f 18//16 27//19 23//16
f 23//20 24//17 19//17
f 20//13 19//17 24//17
f 25//15 28//21 21//15
f 25//18 22//14 30//18
f 26//1 21//1 28//1
f 27//19 18//16 26//19
f 27//22 29//20 23//20
f 24//17 23//20 29//20
f 28//21 25//15 31//21
f 30//18 31//23 25//18
f 26//1 28//1 32//1
f 26//19 33//24 27//19
f 29//20 27//22 34//22
f 31//21 35//25 28//21
f 31//23 30//18 36//23
f 32//1 28//1 35//1
f 33//24 26//19 32//24
f 33//26 34//22 27//22
f 35//25 31//21 37//25
f 36//23 37//27 31//23
f 32//1 35//1 38//1
f 32//24 39//28 33//24
f 34//22 33//26 40//26
f 37//25 41//29 35//25
f 37//27 36//23 42//27
f 38//1 35//1 41//1
f 39//28 32//24 38//28
f 39//30 40//26 33//26
f 41//29 37//25 43//29
f 44//31 37//27 42//27
f 38//1 41//1 45//1
f 38//28 46//32 39//28
f 40//26 39//30 47//30
f 37//27 44//31 43//31
f 43//29 48//33 41//29
f 45//1 41//1 48//1
f 46//32 38//28 45//32
f 49//34 39//30 46//34
f 39//30 49//34 47//30
f 50//35 43//31 44//31
f 48//33 43//29 51//33
f 45//1 48//1 52//1
f 45//32 53//36 46//32
f 46//34 54//37 49//34
f 43//31 50//35 51//35
f 51//33 55//38 48//33
f 52//1 48//1 55//1
f 53//36 45//32 52//36
f 54//37 46//34 53//37
f 56//39 51//35 50//35
f 55//38 51//33 57//38
f 52//1 55//1 58//1
f 58//40 53//36 52//36
f 53//37 59//41 54//37
f 51//35 56//39 57//39
f 60//42 55//38 57//38
f 58//1 55//1 61//1
f 53//36 58//40 62//40
f 59//41 53//37 62//41
f 63//43 57//39 56//39
f 55//38 60//42 61//42
f 57//39 63//43 60//43
f 58//1 61//1 64//1
f 64//44 62//40 58//40
f 62//41 65//45 59//41
f 66//46 61//42 60//42
f 67//47 60//43 63//43
f 64//1 61//1 68//1
f 62//40 64//44 69//44
f 65//45 62//41 69//45
f 61//42 66//46 68//46
f 60//43 67//47 66//47
f 64//1 68//1 70//1
f 70//48 69//44 64//44
f 69//45 71//49 65//45
f 72//48 68//46 66//46
f 71//49 66//47 67//47
f 68//46 72//48 70//48
f 69//44 70//48 72//48
f 71//49 69//45 72//49
f 66//47 71//49 72//49
usemtl material_1_0
f 3//50 2//50 1//50
f 4//50 1//50 2//50
f 3//48 5//48 2//46
f 1//44 6//44 3//48
f 7//50 1//50 4//50
f 2//46 8//46 4//42
f 8//46 2//46 5//48
f 5//48 3//48 6//44
f 6//44 1//44 9//40
f 7//40 9//40 1//44
f 10//50 7//50 4//50
f 11//42 4//42 8//46
f 5//51 12//51 8//52
f 5//51 6//53 12//51
f 6//53 9//54 13//53
f 9//40 7//40 14//36
f 15//50 7//50 10//50
f 4//42 11//42 10//38
f 8//52 16//52 11//55
f 16//52 8//52 12//51
f 13//53 12//51 6//53
f 17//54 13//53 9//54
f 15//36 14//36 7//40
f 9//54 14//56 17//54
f 18//50 15//50 10//50
f 19//38 10//38 11//42
f 20//55 11//55 16//52
f 12//1 13//1 16//1
f 17//1 20//1 13//1
f 15//36 21//32 14//36
f 22//56 17//54 14//56
f 21//50 15//50 18//50
f 18//33 10//38 23//33
f 19//38 23//33 10//38
f 11//55 20//55 19//57
f 20//1 16//1 13//1
f 24//1 20//1 17//1
f 25//32 14//36 21//32
f 22//1 24//1 17//1
f 14//56 25//58 22//56
f 26//50 21//50 18//50
f 23//33 27//29 18//33
f 19//57 24//57 23//59
f 24//57 19//57 20//55
f 21//32 28//28 25//32
f 29//1 24//1 22//1
f 30//58 22//56 25//58
f 28//50 21//50 26//50
f 26//29 18//33 27//29
f 23//59 29//59 27//60
f 29//59 23//59 24//57
f 31//28 25//32 28//28
f 30//1 29//1 22//1
f 25//58 31//61 30//58
f 32//50 28//50 26//50
f 27//29 33//25 26//29
f 34//60 27//60 29//59
f 28//28 35//24 31//28
f 34//1 29//1 30//1
f 36//61 30//58 31//61
f 35//50 28//50 32//50
f 32//25 26//29 33//25
f 27//60 34//60 33//62
f 37//24 31//28 35//24
f 36//1 34//1 30//1
f 31//61 37//63 36//61
f 38//50 35//50 32//50
f 33//25 39//21 32//25
f 40//62 33//62 34//60
f 35//24 41//19 37//24
f 40//1 34//1 36//1
f 42//63 36//61 37//63
f 41//50 35//50 38//50
f 38//21 32//25 39//21
f 33//62 40//62 39//64
f 43//19 37//24 41//19
f 42//1 40//1 36//1
f 42//63 37//63 44//65
f 45//50 41//50 38//50
f 39//21 46//15 38//21
f 47//64 39//64 40//62
f 43//65 44//65 37//63
f 41//19 48//16 43//19
f 47//1 40//1 42//1
f 44//1 47//1 42//1
f 48//50 41//50 45//50
f 45//15 38//21 46//15
f 46//66 39//64 49//66
f 47//64 49//66 39//64
f 44//65 43//65 50//67
f 51//16 43//19 48//16
f 49//1 47//1 44//1
f 52//50 48//50 45//50
f 46//15 53//11 45//15
f 49//66 54//68 46//66
f 51//67 50//67 43//65
f 50//1 49//1 44//1
f 48//16 55//12 51//16
f 55//50 48//50 52//50
f 52//11 45//15 53//11
f 53//68 46//66 54//68
f 54//1 49//1 50//1
f 50//67 51//67 56//69
f 57//12 51//16 55//12
f 58//50 55//50 52//50
f 52//11 53//11 58//6
f 54//68 59//70 53//68
f 56//1 54//1 50//1
f 57//69 56//69 51//67
f 57//12 55//12 60//5
f 61//50 55//50 58//50
f 62//6 58//6 53//11
f 62//70 53//68 59//70
f 59//1 54//1 56//1
f 56//69 57//69 63//71
f 61//5 60//5 55//12
f 60//71 63//71 57//69
f 64//50 61//50 58//50
f 58//6 62//6 64//4
f 59//70 65//72 62//70
f 63//1 59//1 56//1
f 60//5 61//5 66//2
f 63//71 60//71 67//73
f 68//50 61//50 64//50
f 69//4 64//4 62//6
f 69//72 62//70 65//72
f 65//1 59//1 63//1
f 68//2 66//2 61//5
f 66//73 67//73 60//71
f 67//1 65//1 63//1
f 70//50 68//50 64//50
f 64//4 69//4 70//3
f 65//72 71//74 69//72
f 66//2 68//2 72//3
f 67//73 66//73 71//74
f 71//1 65//1 67//1
f 70//3 72//3 68//2
f 72//3 70//3 69//4
f 72//74 69//72 71//74
f 72//74 71//74 66//73
usemtl material_2_0
f 16//50 13//50 12//50
f 13//50 20//50 17//50
f 13//50 16//50 20//50
f 17//50 20//50 24//50
f 17//50 24//50 22//50
f 22//50 24//50 29//50
f 22//50 29//50 30//50
f 30//50 29//50 34//50
f 30//50 34//50 36//50
f 36//50 34//50 40//50
f 36//50 40//50 42//50
f 42//50 40//50 47//50
f 42//50 47//50 44//50
f 44//50 47//50 49//50
f 44//50 49//50 50//50
f 50//50 49//50 54//50
f 50//50 54//50 56//50
f 56//50 54//50 59//50
f 56//50 59//50 63//50
f 63//50 59//50 65//50
f 63//50 65//50 67//50
f 67//50 65//50 71//50
