# SSTK version 0.8.0
# 18
mtllib original-18.mtl
o mesh15/mesh15-geometry#mesh15-geometry
v -0.203306 -0.555277 0.531164
v -0.203306 -0.556075 0.513961
v -0.203306 -0.556075 0.532593
v -0.203306 -0.554614 0.529671
v -0.203306 -0.554092 0.528122
v 0.211930 -0.554614 0.529671
v -0.203306 -0.553717 0.526530
v -0.203306 -0.553488 0.524909
v 0.211930 -0.556075 0.532593
v 0.211930 -0.555277 0.531164
v 0.211930 -0.556075 0.513961
v 0.211930 -0.554092 0.528122
v -0.203306 -0.553414 0.523277
v -0.203306 -0.553488 0.521643
v 0.211930 -0.553717 0.526530
v 0.211930 -0.553488 0.524909
v -0.203306 -0.555277 0.515388
v 0.211930 -0.554614 0.516881
v 0.211930 -0.555277 0.515388
v -0.203306 -0.553717 0.520022
v -0.203306 -0.554092 0.518430
v 0.211930 -0.553414 0.523277
v 0.211930 -0.553488 0.521643
v -0.203306 -0.554614 0.516881
v 0.211930 -0.554092 0.518430
v 0.211930 -0.553717 0.520022
vn -1 0 0
vn 0 0.8726389239595563 0.48836595744452505
vn 0 0.8943443756350014 0.4473791879044434
vn 0 0.931941319487246 0.36260912430931896
vn 0 -1 0
vn 0 0.9615239853766626 0.274720995821906
vn 0 0.9828379586790359 0.18447099224437866
vn 0 0.9957002250501817 0.09263402093732927
vn 0 1 0
vn 0 0.8943443756350016 -0.447379187904443
vn 0 0.931941319487246 -0.36260912430931846
vn 0 0.8726389239595566 -0.4883659574445247
vn 1 0 0
vn 0 0.9957002250501817 -0.09263402093732882
vn 0 0.9828379586790361 -0.18447099224437827
vn 0 0.9615239853766626 -0.2747209958219055
vn 0 -0.931941319487246 -0.36260912430931896
vn 0 -0.9615239853766626 -0.274720995821906
vn 0 -0.8726389239595563 -0.48836595744452505
vn 0 -0.8943443756350014 -0.4473791879044434
vn 0 -0.9828379586790359 -0.18447099224437866
vn 0 -0.9957002250501817 -0.09263402093732927
vn 0 -0.8943443756350016 0.447379187904443
vn 0 -0.8726389239595566 0.4883659574445247
vn 0 -0.9957002250501817 0.09263402093732882
vn 0 -0.931941319487246 0.36260912430931846
vn 0 -0.9615239853766626 0.2747209958219055
vn 0 -0.9828379586790361 0.18447099224437827
usemtl material_0_0
f 1//1 2//1 3//1
f 2//1 1//1 4//1
f 2//1 4//1 5//1
f 2//1 5//1 7//1
f 2//1 7//1 8//1
f 9//2 1//3 3//2
f 10//3 4//4 1//3
f 11//5 3//5 2//5
f 6//4 5//6 4//4
f 12//6 7//7 5//6
f 4//4 10//3 6//4
f 5//6 6//4 12//6
f 2//1 8//1 13//1
f 2//1 13//1 14//1
f 15//7 8//8 7//7
f 16//8 13//9 8//8
f 3//5 11//5 9//5
f 1//3 9//2 10//3
f 17//10 18//11 19//10
f 19//10 2//12 17//10
f 2//12 19//10 11//12
f 6//13 11//13 12//13
f 12//13 11//13 15//13
f 2//1 14//1 20//1
f 2//1 20//1 21//1
f 22//9 14//14 13//9
f 23//14 20//15 14//14
f 7//7 12//6 15//7
f 8//8 15//7 16//8
f 11//13 10//13 9//13
f 10//13 11//13 6//13
f 24//11 25//16 18//11
f 2//1 24//1 17//1
f 18//13 11//13 19//13
f 15//13 11//13 16//13
f 2//1 21//1 24//1
f 18//11 17//10 24//11
f 26//15 21//16 20//15
f 25//16 24//11 21//16
f 13//9 16//8 22//9
f 14//14 22//9 23//14
f 16//13 11//13 22//13
f 26//13 11//13 25//13
f 25//13 11//13 18//13
f 21//16 26//15 25//16
f 22//13 11//13 23//13
f 20//15 23//14 26//15
f 23//13 11//13 26//13
usemtl material_1_0
f 4//13 1//13 2//13
f 5//13 4//13 2//13
f 3//13 2//13 1//13
f 4//17 5//18 6//17
f 7//13 5//13 2//13
f 8//13 7//13 2//13
f 3//19 1//20 9//19
f 1//20 4//17 10//20
f 2//9 3//9 11//9
f 6//17 10//20 4//17
f 12//18 6//17 5//18
f 13//13 8//13 2//13
f 14//13 13//13 2//13
f 5//18 7//21 12//18
f 7//21 8//22 15//21
f 9//9 11//9 3//9
f 10//20 9//19 1//20
f 17//23 2//24 19//23
f 11//24 19//23 2//24
f 6//1 11//1 10//1
f 12//1 11//1 6//1
f 20//13 14//13 2//13
f 21//13 20//13 2//13
f 8//22 13//5 16//22
f 13//5 14//25 22//5
f 15//21 12//18 7//21
f 16//22 15//21 8//22
f 9//1 10//1 11//1
f 24//26 17//23 18//26
f 19//23 18//26 17//23
f 18//1 11//1 25//1
f 19//1 11//1 18//1
f 18//26 25//27 24//26
f 17//13 24//13 2//13
f 24//13 21//13 2//13
f 14//25 20//28 23//25
f 20//28 21//27 26//28
f 22//5 16//22 13//5
f 23//25 22//5 14//25
f 15//1 11//1 12//1
f 16//1 11//1 15//1
f 21//27 24//26 25//27
f 26//1 11//1 23//1
f 25//1 11//1 26//1
f 25//27 26//28 21//27
f 26//28 23//25 20//28
f 22//1 11//1 16//1
f 23//1 11//1 22//1
