# SSTK version 0.8.0
# 12
mtllib original-12.mtl
o Agrupar_7_3/Agrupar_7/mesh9/mesh9-geometry#mesh9-geometry
v -0.135101 0.726897 0.181707
v -0.135024 0.726897 0.183901
v -0.135191 0.726897 0.182810
v -0.134761 0.726897 0.180667
v -0.135191 0.729559 0.182810
v -0.135101 0.729559 0.181707
v -0.134761 0.729559 0.180667
v -0.134611 0.726897 0.184907
v -0.135024 0.729559 0.183901
v -0.134192 0.729559 0.179762
v -0.134192 0.726897 0.179762
v -0.134611 0.729559 0.184907
v -0.133980 0.726897 0.185759
v -0.133434 0.726897 0.179054
v -0.133980 0.729559 0.185759
v -0.133434 0.729559 0.179054
v -0.133175 0.726897 0.186398
v -0.132539 0.726897 0.178589
v -0.133175 0.729559 0.186398
v -0.132539 0.729559 0.178589
v -0.112559 0.726897 0.198573
v -0.112559 0.729559 0.198573
v -0.131567 0.726897 0.178401
v -0.131567 0.729559 0.178401
v -0.130585 0.726897 0.178502
v -0.090764 0.729559 0.208810
v -0.130585 0.729559 0.178502
v -0.129660 0.726897 0.178885
v -0.090764 0.726897 0.208810
v -0.109339 0.729559 0.190887
v -0.129660 0.729559 0.178885
v -0.109339 0.726897 0.190887
v -0.068253 0.729559 0.216855
v -0.088157 0.729559 0.200835
v -0.088157 0.726897 0.200835
v -0.068253 0.726897 0.216855
v -0.045199 0.729559 0.222647
v -0.066280 0.729559 0.208654
v -0.066280 0.726897 0.208654
v -0.045199 0.726897 0.222647
v -0.021782 0.729559 0.226140
v -0.043875 0.729559 0.214283
v -0.043875 0.726897 0.214283
v -0.021782 0.726897 0.226140
v 0.001818 0.729559 0.227307
v -0.021118 0.729559 0.217677
v -0.021118 0.726897 0.217677
v 0.001818 0.726897 0.227307
v 0.025418 0.729559 0.226140
v 0.001818 0.729559 0.218812
v 0.001818 0.726897 0.218812
v 0.025418 0.726897 0.226140
v 0.024753 0.729559 0.217677
v 0.024753 0.726897 0.217677
v 0.048835 0.729559 0.222647
v 0.047511 0.729559 0.214283
v 0.047511 0.726897 0.214283
v 0.048835 0.726897 0.222647
v 0.071888 0.729559 0.216855
v 0.069915 0.729559 0.208654
v 0.069915 0.726897 0.208654
v 0.071888 0.726897 0.216855
v 0.094400 0.729559 0.208810
v 0.091793 0.729559 0.200835
v 0.091793 0.726897 0.200835
v 0.094400 0.726897 0.208810
v 0.116195 0.729559 0.198573
v 0.112974 0.729559 0.190887
v 0.112974 0.726897 0.190887
v 0.116195 0.726897 0.198573
v 0.136810 0.729559 0.186398
v 0.133296 0.729559 0.178885
v 0.133296 0.726897 0.178885
v 0.136810 0.726897 0.186398
v 0.137616 0.729559 0.185759
v 0.134221 0.729559 0.178502
v 0.134221 0.726897 0.178502
v 0.137616 0.726897 0.185759
v 0.137070 0.729559 0.179054
v 0.135203 0.729559 0.178401
v 0.135203 0.726897 0.178401
v 0.137070 0.726897 0.179054
v 0.138246 0.726897 0.184907
v 0.136174 0.729559 0.178589
v 0.137827 0.729559 0.179762
v 0.136174 0.726897 0.178589
v 0.137827 0.726897 0.179762
v 0.138246 0.729559 0.184907
v 0.138659 0.726897 0.183901
v 0.138396 0.726897 0.180667
v 0.138396 0.729559 0.180667
v 0.138659 0.729559 0.183901
v 0.138827 0.726897 0.182810
v 0.138737 0.726897 0.181707
v 0.138737 0.729559 0.181707
v 0.138827 0.729559 0.182810
vn 0 -1 0
vn 0 1 0
vn -0.9637758944271321 0 0.26671337671961926
vn -0.9993768054421803 0 0.03529873573065063
vn 0.9993768054421803 0 -0.03529873573065063
vn 0.9637758944271321 0 -0.26671337671961926
vn -0.9803885302027252 0 -0.19707442717648654
vn 0.9803885302027252 0 0.19707442717648654
vn -0.90578841959396 0 -0.4237302667139512
vn 0.90578841959396 0 0.4237302667139512
vn -0.7724890099434376 0 -0.6350281328544488
vn 0.7724890099434376 0 0.6350281328544488
vn -0.8717467289589365 0 0.4899567741642057
vn 0.8717467289589365 0 -0.4899567741642057
vn -0.5786818127039679 0 -0.8155534069854957
vn 0.5786818127039679 0 0.8155534069854957
vn -0.7201048928742338 0 0.6938652198075562
vn 0.7201048928742338 0 -0.6938652198075562
vn -0.32982263907962467 0 -0.9440429157355886
vn 0.32982263907962467 0 0.9440429157355886
vn -0.6215431661351276 0 0.7833799158969553
vn 0.6215431661351276 0 -0.7833799158969553
vn -0.5085227188318424 0 0.8610485726321545
vn -0.4675235799592564 0 0.8839806005688591
vn 0.5085227188318424 0 -0.8610485726321545
vn 0.4675235799592564 0 -0.8839806005688591
vn -0.04454700687559476 0 -0.9990072893519976
vn 0.04454700687559476 0 0.9990072893519976
vn -0.38143401508827235 0 0.9243960688653103
vn 0.38143401508827235 0 -0.9243960688653103
vn 0.24597957914576976 0 -0.9692750108422635
vn -0.24597957914576976 0 0.9692750108422635
vn 0.3825241307699533 0 -0.9239455013033463
vn -0.3825241307699533 0 0.9239455013033463
vn -0.2905719531727533 0 0.9568531444424327
vn 0.2905719531727533 0 -0.9568531444424327
vn -0.1959203225576833 0 0.9806198178748444
vn 0.1959203225576833 0 -0.9806198178748444
vn -0.09863488957545093 0 0.9951236900800015
vn 0.09863488957545093 0 -0.9951236900800015
vn 0 0 1
vn 0 0 -1
vn 0.09863488957545093 0 0.9951236900800015
vn -0.09863488957545093 0 -0.9951236900800015
vn 0.1959203225576833 0 0.9806198178748444
vn -0.1959203225576833 0 -0.9806198178748444
vn 0.2905719531727533 0 0.9568531444424327
vn -0.2905719531727533 0 -0.9568531444424327
vn 0.38143401508827235 0 0.9243960688653103
vn -0.38143401508827235 0 -0.9243960688653103
vn 0.4675235799592564 0 0.8839806005688591
vn -0.4675235799592564 0 -0.8839806005688591
vn 0.5085227188318424 0 0.8610485726321545
vn -0.5085227188318424 0 -0.8610485726321545
vn 0.6215431661351276 0 0.7833799158969553
vn 0.7201048928742338 0 0.6938652198075562
vn -0.6215431661351276 0 -0.7833799158969553
vn -0.7201048928742338 0 -0.6938652198075562
vn -0.3825241307699533 0 -0.9239455013033463
vn -0.24597957914576976 0 -0.9692750108422635
vn 0.3825241307699533 0 0.9239455013033463
vn 0.24597957914576976 0 0.9692750108422635
vn 0.8717467289589365 0 0.4899567741642057
vn -0.8717467289589365 0 -0.4899567741642057
vn 0.04454700687559476 0 -0.9990072893519976
vn -0.04454700687559476 0 0.9990072893519976
vn 0.5786818127039679 0 -0.8155534069854957
vn 0.32982263907962467 0 -0.9440429157355886
vn -0.5786818127039679 0 0.8155534069854957
vn -0.32982263907962467 0 0.9440429157355886
vn 0.7724890099434376 0 -0.6350281328544488
vn -0.7724890099434376 0 0.6350281328544488
vn 0.9637758944271321 0 0.26671337671961926
vn -0.9637758944271321 0 -0.26671337671961926
vn 0.90578841959396 0 -0.4237302667139512
vn -0.90578841959396 0 0.4237302667139512
vn 0.9993768054421803 0 0.03529873573065063
vn -0.9993768054421803 0 -0.03529873573065063
vn 0.9803885302027252 0 -0.19707442717648654
vn -0.9803885302027252 0 0.19707442717648654
usemtl material_0_0
f 1//1 2//1 3//1
f 2//1 1//1 4//1
f 3//2 2//2 1//2
f 4//2 1//2 2//2
f 2//3 5//4 3//4
f 3//5 5//5 2//6
f 3//4 6//7 1//7
f 1//8 6//8 3//5
f 1//7 7//9 4//9
f 4//10 7//10 1//8
f 2//1 4//1 8//1
f 8//2 4//2 2//2
f 5//4 2//3 9//3
f 9//6 2//6 5//5
f 6//7 3//4 5//4
f 5//5 3//5 6//8
f 7//9 1//7 6//7
f 6//8 1//8 7//10
f 10//11 4//9 7//9
f 7//10 4//10 10//12
f 8//1 4//1 11//1
f 11//2 4//2 8//2
f 8//13 9//3 2//3
f 2//6 9//6 8//14
f 9//2 6//2 5//2
f 5//1 6//1 9//1
f 6//2 9//2 7//2
f 7//1 9//1 6//1
f 4//9 10//11 11//11
f 11//12 10//12 4//10
f 7//2 12//2 10//2
f 10//1 12//1 7//1
f 8//1 11//1 13//1
f 13//2 11//2 8//2
f 9//3 8//13 12//13
f 12//14 8//14 9//6
f 7//2 9//2 12//2
f 12//1 9//1 7//1
f 10//11 14//15 11//11
f 11//12 14//16 10//12
f 10//2 12//2 15//2
f 15//1 12//1 10//1
f 13//1 11//1 14//1
f 14//2 11//2 13//2
f 13//17 12//13 8//13
f 8//14 12//14 13//18
f 14//15 10//11 16//15
f 16//16 10//12 14//16
f 12//13 13//17 15//17
f 15//18 13//18 12//14
f 10//2 15//2 16//2
f 16//1 15//1 10//1
f 13//1 14//1 17//1
f 17//2 14//2 13//2
f 16//15 18//19 14//15
f 14//16 18//20 16//16
f 13//17 19//21 15//17
f 15//18 19//22 13//18
f 16//2 15//2 19//2
f 19//1 15//1 16//1
f 17//1 14//1 18//1
f 18//2 14//2 17//2
f 19//21 13//17 17//21
f 17//22 13//18 19//22
f 18//19 16//15 20//19
f 20//20 16//16 18//20
f 16//2 19//2 20//2
f 20//1 19//1 16//1
f 17//1 18//1 21//1
f 21//2 18//2 17//2
f 17//23 22//24 19//23
f 19//25 22//26 17//25
f 20//19 23//27 18//19
f 18//20 23//28 20//20
f 20//2 19//2 22//2
f 22//1 19//1 20//1
f 21//1 18//1 23//1
f 23//2 18//2 21//2
f 22//24 17//23 21//24
f 21//26 17//25 22//26
f 23//27 20//19 24//27
f 24//28 20//20 23//28
f 20//2 22//2 24//2
f 24//1 22//1 20//1
f 21//1 23//1 25//1
f 25//2 23//2 21//2
f 21//24 26//29 22//24
f 22//26 26//30 21//26
f 24//27 25//31 23//27
f 23//28 25//32 24//28
f 24//2 22//2 27//2
f 27//1 22//1 24//1
f 21//1 25//1 28//1
f 28//2 25//2 21//2
f 26//29 21//24 29//29
f 29//30 21//26 26//30
f 30//2 22//2 26//2
f 26//1 22//1 30//1
f 25//31 24//27 27//31
f 27//32 24//28 25//32
f 27//2 22//2 31//2
f 31//1 22//1 27//1
f 27//31 28//33 25//31
f 25//32 28//34 27//32
f 21//1 28//1 32//1
f 32//2 28//2 21//2
f 21//1 32//1 29//1
f 29//2 32//2 21//2
f 29//29 33//35 26//29
f 26//30 33//36 29//30
f 31//2 22//2 30//2
f 30//1 22//1 31//1
f 30//2 26//2 34//2
f 34//1 26//1 30//1
f 28//33 27//31 31//33
f 31//34 27//32 28//34
f 31//25 32//26 28//25
f 28//23 32//24 31//23
f 29//1 32//1 35//1
f 35//2 32//2 29//2
f 33//35 29//29 36//35
f 36//36 29//30 33//36
f 34//2 26//2 33//2
f 33//1 26//1 34//1
f 32//26 31//25 30//26
f 30//24 31//23 32//24
f 35//30 30//26 34//30
f 34//29 30//24 35//29
f 30//26 35//30 32//26
f 32//24 35//29 30//24
f 29//1 35//1 36//1
f 36//2 35//2 29//2
f 36//35 37//37 33//35
f 33//36 37//38 36//36
f 34//2 33//2 38//2
f 38//1 33//1 34//1
f 34//30 39//36 35//30
f 35//29 39//35 34//29
f 36//1 35//1 39//1
f 39//2 35//2 36//2
f 37//37 36//35 40//37
f 40//38 36//36 37//38
f 38//2 33//2 37//2
f 37//1 33//1 38//1
f 39//36 34//30 38//36
f 38//35 34//29 39//35
f 36//1 39//1 40//1
f 40//2 39//2 36//2
f 40//37 41//39 37//37
f 37//38 41//40 40//38
f 38//2 37//2 42//2
f 42//1 37//1 38//1
f 38//36 43//38 39//36
f 39//35 43//37 38//35
f 40//1 39//1 43//1
f 43//2 39//2 40//2
f 41//39 40//37 44//39
f 44//40 40//38 41//40
f 42//2 37//2 41//2
f 41//1 37//1 42//1
f 43//38 38//36 42//38
f 42//37 38//35 43//37
f 40//1 43//1 44//1
f 44//2 43//2 40//2
f 44//39 45//41 41//39
f 41//40 45//42 44//40
f 42//2 41//2 46//2
f 46//1 41//1 42//1
f 42//38 47//40 43//38
f 43//37 47//39 42//37
f 44//1 43//1 47//1
f 47//2 43//2 44//2
f 45//41 44//39 48//41
f 48//42 44//40 45//42
f 46//2 41//2 45//2
f 45//1 41//1 46//1
f 47//40 42//38 46//40
f 46//39 42//37 47//39
f 44//1 47//1 48//1
f 48//2 47//2 44//2
f 48//41 49//43 45//41
f 45//42 49//44 48//42
f 46//2 45//2 50//2
f 50//1 45//1 46//1
f 46//40 51//42 47//40
f 47//39 51//41 46//39
f 48//1 47//1 51//1
f 51//2 47//2 48//2
f 49//43 48//41 52//43
f 52//44 48//42 49//44
f 53//2 45//2 49//2
f 49//1 45//1 53//1
f 50//2 45//2 53//2
f 53//1 45//1 50//1
f 51//42 46//40 50//42
f 50//41 46//39 51//41
f 48//1 51//1 54//1
f 54//2 51//2 48//2
f 48//1 54//1 52//1
f 52//2 54//2 48//2
f 52//43 55//45 49//43
f 49//44 55//46 52//44
f 53//2 49//2 56//2
f 56//1 49//1 53//1
f 54//44 50//42 53//44
f 53//43 50//41 54//43
f 50//42 54//44 51//42
f 51//41 54//43 50//41
f 52//1 54//1 57//1
f 57//2 54//2 52//2
f 55//45 52//43 58//45
f 58//46 52//44 55//46
f 56//2 49//2 55//2
f 55//1 49//1 56//1
f 57//46 53//44 56//46
f 56//45 53//43 57//45
f 53//44 57//46 54//44
f 54//43 57//45 53//43
f 52//1 57//1 58//1
f 58//2 57//2 52//2
f 58//45 59//47 55//45
f 55//46 59//48 58//46
f 56//2 55//2 60//2
f 60//1 55//1 56//1
f 56//46 61//48 57//46
f 57//45 61//47 56//45
f 58//1 57//1 61//1
f 61//2 57//2 58//2
f 59//47 58//45 62//47
f 62//48 58//46 59//48
f 60//2 55//2 59//2
f 59//1 55//1 60//1
f 61//48 56//46 60//48
f 60//47 56//45 61//47
f 58//1 61//1 62//1
f 62//2 61//2 58//2
f 62//47 63//49 59//47
f 59//48 63//50 62//48
f 60//2 59//2 64//2
f 64//1 59//1 60//1
f 60//48 65//50 61//48
f 61//47 65//49 60//47
f 62//1 61//1 65//1
f 65//2 61//2 62//2
f 63//49 62//47 66//49
f 66//50 62//48 63//50
f 64//2 59//2 63//2
f 63//1 59//1 64//1
f 65//50 60//48 64//50
f 64//49 60//47 65//49
f 62//1 65//1 66//1
f 66//2 65//2 62//2
f 66//49 67//51 63//49
f 63//50 67//52 66//50
f 64//2 63//2 68//2
f 68//1 63//1 64//1
f 64//50 69//52 65//50
f 65//49 69//51 64//49
f 66//1 65//1 69//1
f 69//2 65//2 66//2
f 67//51 66//49 70//51
f 70//52 66//50 67//52
f 68//2 63//2 67//2
f 67//1 63//1 68//1
f 69//52 64//50 68//52
f 68//51 64//49 69//51
f 66//1 69//1 70//1
f 70//2 69//2 66//2
f 70//51 71//53 67//51
f 67//52 71//54 70//52
f 68//2 67//2 72//2
f 72//1 67//1 68//1
f 68//52 73//54 69//52
f 69//51 73//53 68//51
f 70//1 69//1 73//1
f 73//2 69//2 70//2
f 71//53 70//51 74//53
f 74//54 70//52 71//54
f 72//2 67//2 71//2
f 71//1 67//1 72//1
f 73//54 68//52 72//54
f 72//53 68//51 73//53
f 70//1 73//1 74//1
f 74//2 73//2 70//2
f 74//55 75//56 71//55
f 71//57 75//58 74//57
f 72//2 71//2 76//2
f 76//1 71//1 72//1
f 72//59 77//60 73//59
f 73//61 77//62 72//61
f 74//1 73//1 77//1
f 77//2 73//2 74//2
f 75//56 74//55 78//56
f 78//58 74//57 75//58
f 79//2 71//2 75//2
f 75//1 71//1 79//1
f 76//2 71//2 80//2
f 80//1 71//1 76//1
f 77//60 72//59 76//60
f 76//62 72//61 77//62
f 74//1 77//1 81//1
f 81//2 77//2 74//2
f 74//1 82//1 78//1
f 78//2 82//2 74//2
f 83//63 75//56 78//56
f 78//58 75//58 83//64
f 84//2 71//2 79//2
f 79//1 71//1 84//1
f 79//2 75//2 85//2
f 85//1 75//1 79//1
f 80//2 71//2 84//2
f 84//1 71//1 80//1
f 81//65 76//60 80//65
f 80//66 76//62 81//66
f 76//60 81//65 77//60
f 77//62 81//66 76//62
f 74//1 81//1 86//1
f 86//2 81//2 74//2
f 74//1 86//1 82//1
f 82//2 86//2 74//2
f 78//1 82//1 87//1
f 87//2 82//2 78//2
f 75//56 83//63 88//63
f 88//64 83//64 75//58
f 78//1 87//1 83//1
f 83//2 87//2 78//2
f 82//67 84//68 79//67
f 79//69 84//70 82//69
f 85//2 75//2 88//2
f 88//1 75//1 85//1
f 87//71 79//67 85//71
f 85//72 79//69 87//72
f 86//68 80//65 84//68
f 84//70 80//66 86//70
f 80//65 86//68 81//65
f 81//66 86//70 80//66
f 84//68 82//67 86//68
f 86//70 82//69 84//70
f 79//67 87//71 82//67
f 82//69 87//72 79//69
f 89//73 88//63 83//63
f 83//64 88//64 89//74
f 83//1 87//1 90//1
f 90//2 87//2 83//2
f 85//2 88//2 91//2
f 91//1 88//1 85//1
f 91//75 87//71 85//71
f 85//72 87//72 91//76
f 88//63 89//73 92//73
f 92//74 89//74 88//64
f 83//1 90//1 89//1
f 89//2 90//2 83//2
f 87//71 91//75 90//75
f 90//76 91//76 87//72
f 91//2 88//2 92//2
f 92//1 88//1 91//1
f 93//77 92//73 89//73
f 89//74 92//74 93//78
f 89//1 90//1 94//1
f 94//2 90//2 89//2
f 95//79 90//75 91//75
f 91//76 90//76 95//80
f 91//2 92//2 95//2
f 95//1 92//1 91//1
f 92//73 93//77 96//77
f 96//78 93//78 92//74
f 89//1 94//1 93//1
f 93//2 94//2 89//2
f 90//75 95//79 94//79
f 94//80 95//80 90//76
f 95//2 92//2 96//2
f 96//1 92//1 95//1
f 94//79 96//77 93//77
f 93//78 96//78 94//80
f 96//77 94//79 95//79
f 95//80 94//80 96//78
