# SSTK version 0.8.0
# 24
mtllib original-24.mtl
o Group13/mesh20/mesh20-geometry#mesh20-geometry
v 0.213138 -0.013117 0.521220
v 0.212595 -0.013117 0.535122
v 0.212052 -0.013117 0.530488
v 0.213138 -0.013117 0.539756
v 0.216325 -0.013117 0.548396
v 0.214318 -0.013117 0.530488
v 0.214821 -0.013117 0.534795
v 0.212052 0.197163 0.530488
v 0.214821 -0.018441 0.534795
v 0.216325 -0.013117 0.512582
v 0.215326 -0.013117 0.521877
v 0.213138 0.197163 0.521220
v 0.215326 -0.013117 0.539099
v 0.212595 0.197163 0.535122
v 0.214318 -0.018441 0.530488
v 0.215326 -0.018441 0.539099
v 0.218284 -0.013117 0.513852
v 0.216325 0.197163 0.512582
v 0.215326 -0.018441 0.521877
v 0.218284 -0.013117 0.547124
v 0.213138 0.197163 0.539756
v 0.218284 -0.018441 0.547124
v 0.212734 0.198352 0.535103
v 0.212194 0.198352 0.530488
v 0.216325 -0.018441 0.548396
v 0.221390 -0.013117 0.505164
v 0.221390 0.197163 0.505164
v 0.218284 -0.018441 0.513852
v 0.216444 0.198352 0.512659
v 0.213274 0.198352 0.521260
v 0.216798 0.199462 0.512888
v 0.213668 0.199462 0.521377
v 0.217363 0.200415 0.513253
v 0.221390 -0.013117 0.555812
v 0.216325 0.197163 0.548396
v 0.213274 0.198352 0.539716
v 0.213668 0.199462 0.539599
v 0.213136 0.199462 0.535042
v 0.214296 0.200415 0.539407
v 0.222990 -0.018441 0.554013
v 0.214296 0.200415 0.521568
v 0.212601 0.199462 0.530488
v 0.213253 0.200415 0.530488
v 0.214099 0.201145 0.530488
v 0.213775 0.200415 0.534949
v 0.212595 -0.018441 0.535122
v 0.213138 -0.018441 0.521220
v 0.212052 -0.018441 0.530488
v 0.216325 -0.018441 0.512580
v 0.213138 -0.018441 0.539756
v 0.222990 -0.013117 0.506963
v 0.221488 0.198352 0.505276
v 0.221776 0.199462 0.505600
v 0.222236 0.200415 0.506117
v 0.218095 0.201145 0.513729
v 0.215116 0.201145 0.521813
v 0.218952 0.201605 0.514286
v 0.222835 0.201145 0.506790
v 0.219867 0.201762 0.514879
v 0.223533 0.201605 0.507573
v 0.216069 0.201605 0.522101
v 0.217091 0.201762 0.522409
v 0.222990 -0.013117 0.554013
v 0.216444 0.198352 0.548316
v 0.216798 0.199462 0.548088
v 0.217363 0.200415 0.547723
v 0.215116 0.201145 0.539163
v 0.214608 0.201145 0.534824
v 0.222990 -0.018441 0.506963
v 0.221390 -0.018441 0.555812
v 0.215087 0.201605 0.530488
v 0.220528 -0.084985 0.523442
v 0.220115 -0.084985 0.534009
v 0.227991 -0.013117 0.499473
v 0.228265 0.199462 0.500005
v 0.228590 0.200415 0.500639
v 0.229013 0.201145 0.501464
v 0.221390 -0.018441 0.505164
v 0.224283 0.201762 0.508414
v 0.220786 0.201605 0.515476
v 0.218116 0.201605 0.522716
v 0.227991 -0.013117 0.561503
v 0.221390 0.197163 0.555812
v 0.229122 -0.013117 0.559302
v 0.218095 0.201145 0.547246
v 0.216069 0.201605 0.538875
v 0.229122 -0.018441 0.501674
v 0.227991 -0.018441 0.561503
v 0.219069 0.201145 0.523003
v 0.216146 0.201762 0.530488
v 0.217206 0.201605 0.530488
v 0.219702 -0.084985 0.530488
v 0.222950 -0.084985 0.516878
v 0.220528 -0.084985 0.537534
v 0.222950 -0.084985 0.544098
v 0.229122 -0.013117 0.501674
v 0.227991 0.197163 0.499473
v 0.226799 -0.084985 0.511241
v 0.228060 0.198352 0.499609
v 0.229508 0.201605 0.502422
v 0.225031 0.201605 0.509258
v 0.221640 0.201145 0.516029
v 0.222375 0.200415 0.516506
v 0.225729 0.201145 0.510040
v 0.227991 0.197163 0.561503
v 0.221488 0.198352 0.555700
v 0.221776 0.199462 0.555375
v 0.222236 0.200415 0.554859
v 0.229122 -0.018441 0.559302
v 0.218952 0.201605 0.546690
v 0.217091 0.201762 0.538566
v 0.219867 0.201762 0.546097
v 0.218116 0.201605 0.538260
v 0.215577 0.201605 0.534683
v 0.227991 -0.018441 0.499473
v 0.231816 -0.084985 0.506915
v 0.226799 -0.084985 0.549735
v 0.219889 0.200415 0.523251
v 0.218193 0.201145 0.530488
v 0.235678 -0.013117 0.495893
v 0.236264 -0.018441 0.498350
v 0.235819 0.199462 0.496489
v 0.235987 0.200415 0.497194
v 0.236208 0.201145 0.498115
v 0.230038 0.201762 0.503455
v 0.236464 0.201605 0.499185
v 0.230568 0.201605 0.504485
v 0.226330 0.200415 0.510714
v 0.231060 0.201145 0.505446
v 0.226788 0.199462 0.511230
v 0.235678 -0.013117 0.565083
v 0.235678 0.197163 0.565083
v 0.228060 0.198352 0.561367
v 0.228265 0.199462 0.560970
v 0.228590 0.200415 0.560337
v 0.222835 0.201145 0.554186
v 0.223533 0.201605 0.553403
v 0.236264 -0.013117 0.562626
v 0.220786 0.201605 0.545500
v 0.217661 0.201605 0.534374
v 0.216620 0.201762 0.534528
v 0.219040 0.200415 0.530488
v 0.235678 -0.018441 0.495893
v 0.237659 -0.084985 0.504198
v 0.235678 -0.018441 0.565083
v 0.231816 -0.084985 0.554061
v 0.222936 0.199462 0.516870
v 0.227078 0.198352 0.511555
v 0.223290 0.198352 0.517102
v 0.220517 0.199462 0.523440
v 0.227177 0.197163 0.511667
v 0.223413 0.197163 0.517179
v 0.236264 -0.013117 0.498350
v 0.235678 0.197163 0.495893
v 0.235713 0.198352 0.496045
v 0.236738 0.201762 0.500335
v 0.237012 0.201605 0.501485
v 0.231483 0.200415 0.506271
v 0.231808 0.199462 0.506902
v 0.235713 0.198352 0.564931
v 0.235819 0.199462 0.564487
v 0.235987 0.200415 0.563781
v 0.229013 0.201145 0.559512
v 0.229508 0.201605 0.558554
v 0.236264 -0.018441 0.562626
v 0.219069 0.201145 0.537973
v 0.221640 0.201145 0.544947
v 0.219889 0.200415 0.537725
v 0.222375 0.200415 0.544470
v 0.224283 0.201762 0.552562
v 0.218630 0.201145 0.534230
v 0.220911 0.198352 0.523559
v 0.227177 0.197163 0.549309
v 0.243927 -0.013117 0.494674
v 0.243927 -0.018441 0.497216
v 0.243927 -0.018441 0.494674
v 0.243927 -0.084985 0.503269
v 0.243927 0.199462 0.495289
v 0.243927 0.200415 0.496021
v 0.243927 0.201145 0.496974
v 0.243927 0.201605 0.498081
v 0.243927 0.201762 0.499273
v 0.237267 0.201145 0.502555
v 0.243927 0.201605 0.500463
v 0.237486 0.200415 0.503476
v 0.232013 0.198352 0.507301
v 0.232082 0.197163 0.507437
v 0.243927 -0.013117 0.566302
v 0.243927 0.197163 0.566302
v 0.243927 0.198352 0.566145
v 0.243927 0.199462 0.565687
v 0.236208 0.201145 0.562860
v 0.243927 0.200415 0.564955
v 0.225031 0.201605 0.551718
v 0.243927 -0.013117 0.563760
v 0.222936 0.199462 0.544106
v 0.220517 0.199462 0.537536
v 0.219689 0.199462 0.530488
v 0.220099 0.198352 0.530488
v 0.237659 -0.084985 0.556778
v 0.243927 -0.018441 0.566302
v 0.223413 0.197163 0.543797
v 0.243927 -0.013117 0.497216
v 0.243927 0.197163 0.494674
v 0.243927 0.198352 0.494831
v 0.243927 0.201145 0.501570
v 0.243927 0.200415 0.502523
v 0.237653 0.199462 0.504182
v 0.237760 0.198352 0.504626
v 0.232082 0.197163 0.553539
v 0.230038 0.201762 0.557521
v 0.230568 0.201605 0.556491
v 0.236464 0.201605 0.561790
v 0.236738 0.201762 0.560640
v 0.243927 0.201145 0.564002
v 0.225729 0.201145 0.550936
v 0.226330 0.200415 0.550262
v 0.231060 0.201145 0.555530
v 0.243927 -0.018441 0.563760
v 0.223290 0.198352 0.543874
v 0.226788 0.199462 0.549746
v 0.220911 0.198352 0.537416
v 0.221047 0.197163 0.537377
v 0.220237 0.197163 0.530488
v 0.221047 0.197163 0.523599
v 0.227078 0.198352 0.549421
v 0.252179 -0.013117 0.495893
v 0.251593 -0.018441 0.498350
v 0.250198 -0.084985 0.504198
v 0.243927 -0.084985 0.557707
v 0.252035 0.199462 0.496489
v 0.251649 0.201145 0.498115
v 0.251393 0.201605 0.499185
v 0.251119 0.201762 0.500335
v 0.250845 0.201605 0.501485
v 0.250590 0.201145 0.502555
v 0.250369 0.200415 0.503476
v 0.243927 0.199462 0.503255
v 0.243927 0.198352 0.503713
v 0.237797 0.197163 0.504778
v 0.232013 0.198352 0.553675
v 0.231808 0.199462 0.554074
v 0.237797 0.197163 0.556198
v 0.251593 -0.013117 0.562626
v 0.252179 0.197163 0.565083
v 0.252141 0.198352 0.564931
v 0.252035 0.199462 0.564487
v 0.237012 0.201605 0.559491
v 0.243927 0.201605 0.562895
v 0.243927 0.201762 0.561702
v 0.243927 0.201605 0.560513
v 0.231483 0.200415 0.554705
v 0.220642 0.197163 0.533932
v 0.252179 -0.018441 0.565083
v 0.251593 -0.013117 0.498350
v 0.252179 -0.018441 0.495893
v 0.252179 0.197163 0.495893
v 0.252141 0.198352 0.496045
v 0.251867 0.200415 0.497194
v 0.250201 0.199462 0.504182
v 0.250094 0.198352 0.504626
v 0.243927 0.197163 0.503870
v 0.243927 0.197163 0.557106
v 0.237760 0.198352 0.556350
v 0.252179 -0.013117 0.565083
v 0.251867 0.200415 0.563781
v 0.237267 0.201145 0.558421
v 0.237653 0.199462 0.556794
v 0.243927 0.201145 0.559405
v 0.237486 0.200415 0.557500
v 0.243927 0.199462 0.557720
v 0.251393 0.201605 0.561790
v 0.251119 0.201762 0.560640
v 0.251593 -0.018441 0.562626
v 0.258735 -0.013117 0.501674
v 0.258735 -0.018441 0.501674
v 0.256041 -0.084985 0.506915
v 0.250198 -0.084985 0.556778
v 0.259866 -0.013117 0.499473
v 0.259592 0.199462 0.500005
v 0.258841 0.201145 0.501464
v 0.258349 0.201605 0.502422
v 0.257819 0.201762 0.503455
v 0.257289 0.201605 0.504485
v 0.256797 0.201145 0.505446
v 0.256371 0.200415 0.506271
v 0.250060 0.197163 0.504778
v 0.250060 0.197163 0.556198
v 0.243927 0.198352 0.557263
v 0.258735 -0.013117 0.559302
v 0.259866 0.197163 0.561503
v 0.251649 0.201145 0.562860
v 0.259797 0.198352 0.561367
v 0.259592 0.199462 0.560970
v 0.259267 0.200415 0.560337
v 0.243927 0.200415 0.558452
v 0.250845 0.201605 0.559491
v 0.258735 -0.018441 0.559302
v 0.259866 -0.018441 0.499473
v 0.256041 -0.084985 0.554061
v 0.259866 0.197163 0.499473
v 0.259797 0.198352 0.499609
v 0.259267 0.200415 0.500639
v 0.256046 0.199462 0.506902
v 0.255772 0.197163 0.553539
v 0.250094 0.198352 0.556350
v 0.250201 0.199462 0.556794
v 0.259866 -0.013117 0.561503
v 0.258841 0.201145 0.559512
v 0.258349 0.201605 0.558554
v 0.250590 0.201145 0.558421
v 0.257819 0.201762 0.557521
v 0.257289 0.201605 0.556491
v 0.250369 0.200415 0.557500
v 0.259866 -0.018441 0.561503
v 0.264867 -0.013117 0.506963
v 0.264867 -0.018441 0.506963
v 0.264867 -0.018441 0.554013
v 0.261058 -0.084985 0.511241
v 0.266467 -0.013117 0.505164
v 0.266078 0.199462 0.505600
v 0.265019 0.201145 0.506790
v 0.264322 0.201605 0.507573
v 0.263574 0.201762 0.508414
v 0.262126 0.201145 0.510040
v 0.261527 0.200415 0.510714
v 0.255841 0.198352 0.507301
v 0.261066 0.199462 0.511230
v 0.255841 0.198352 0.553675
v 0.256046 0.199462 0.554074
v 0.255772 0.197163 0.507437
v 0.256797 0.201145 0.555530
v 0.256371 0.200415 0.554705
v 0.264867 -0.013117 0.554013
v 0.266467 0.197163 0.555812
v 0.266369 0.198352 0.555700
v 0.266078 0.199462 0.555375
v 0.265618 0.200415 0.554859
v 0.265019 0.201145 0.554186
v 0.264322 0.201605 0.553403
v 0.266467 -0.018441 0.505164
v 0.266467 -0.018441 0.555812
v 0.261058 -0.084985 0.549735
v 0.266467 0.197163 0.505164
v 0.266369 0.198352 0.505276
v 0.265618 0.200415 0.506117
v 0.262823 0.201605 0.509258
v 0.260779 0.198352 0.511555
v 0.260680 0.197163 0.511667
v 0.260680 0.197163 0.549309
v 0.262126 0.201145 0.550936
v 0.261527 0.200415 0.550262
v 0.261066 0.199462 0.549746
v 0.260779 0.198352 0.549421
v 0.266467 -0.013117 0.555812
v 0.263574 0.201762 0.552562
v 0.262823 0.201605 0.551718
v 0.269571 -0.013117 0.513852
v 0.269571 -0.018441 0.513852
v 0.271532 -0.018441 0.512582
v 0.269571 -0.018441 0.547124
v 0.264907 -0.084985 0.544098
v 0.271532 0.197163 0.512582
v 0.271056 0.199462 0.512888
v 0.269760 0.201145 0.513729
v 0.268905 0.201605 0.514286
v 0.267987 0.201762 0.514879
v 0.267071 0.201605 0.515476
v 0.266217 0.201145 0.516029
v 0.265482 0.200415 0.516506
v 0.264918 0.199462 0.516870
v 0.264564 0.198352 0.517102
v 0.264444 0.197163 0.543797
v 0.269571 -0.013117 0.547124
v 0.271532 -0.013117 0.548396
v 0.271532 0.197163 0.548396
v 0.271413 0.198352 0.548316
v 0.271056 0.199462 0.548088
v 0.269760 0.201145 0.547246
v 0.268905 0.201605 0.546690
v 0.267987 0.201762 0.546097
v 0.271532 -0.013117 0.512582
v 0.264907 -0.084985 0.516878
v 0.271532 -0.018441 0.548396
v 0.271413 0.198352 0.512659
v 0.270494 0.200415 0.513253
v 0.264444 0.197163 0.517179
v 0.264564 0.198352 0.543874
v 0.267071 0.201605 0.545500
v 0.266217 0.201145 0.544947
v 0.265482 0.200415 0.544470
v 0.264918 0.199462 0.544106
v 0.270494 0.200415 0.547723
v 0.272531 -0.013117 0.521877
v 0.274716 0.197163 0.521220
v 0.272531 -0.018441 0.521877
v 0.272531 -0.018441 0.539099
v 0.274716 -0.018441 0.521220
v 0.267327 -0.084985 0.523442
v 0.274716 -0.018441 0.539756
v 0.274186 0.199462 0.521377
v 0.272741 0.201145 0.521813
v 0.271785 0.201605 0.522101
v 0.270763 0.201762 0.522409
v 0.267968 0.200415 0.523251
v 0.269741 0.201605 0.522716
v 0.267340 0.199462 0.523440
v 0.266946 0.198352 0.523559
v 0.266810 0.197163 0.537377
v 0.267968 0.200415 0.537725
v 0.267340 0.199462 0.537536
v 0.266946 0.198352 0.537416
v 0.272531 -0.013117 0.539099
v 0.274716 -0.013117 0.539756
v 0.274716 0.197163 0.539756
v 0.274583 0.198352 0.539716
v 0.274186 0.199462 0.539599
v 0.272741 0.201145 0.539163
v 0.271785 0.201605 0.538875
v 0.270763 0.201762 0.538566
v 0.269741 0.201605 0.538260
v 0.274716 -0.013117 0.521220
v 0.274583 0.198352 0.521260
v 0.267327 -0.084985 0.537534
v 0.273558 0.200415 0.521568
v 0.268788 0.201145 0.523003
v 0.266810 0.197163 0.523599
v 0.268788 0.201145 0.537973
v 0.273558 0.200415 0.539407
v 0.273539 -0.013117 0.530488
v 0.275802 0.197163 0.530488
v 0.273755 0.201145 0.530488
v 0.272770 0.201605 0.530488
v 0.275254 0.199462 0.530488
v 0.274604 0.200415 0.530488
v 0.273539 -0.018441 0.530488
v 0.275802 -0.018441 0.530488
v 0.268152 -0.084985 0.530488
v 0.271711 0.201762 0.530488
v 0.270651 0.201605 0.530488
v 0.269664 0.201145 0.530488
v 0.268817 0.200415 0.530488
v 0.268165 0.199462 0.530488
v 0.267758 0.198352 0.530488
v 0.267617 0.197163 0.530488
v 0.275802 -0.013117 0.530488
v 0.275663 0.198352 0.530488
vn 0 -1 0
vn -0.9892355459805579 0 0.14633193283951149
vn -1 0 0
vn -0.9575446800604372 0 -0.2882849036768227
vn -0.9575446800604372 0 0.2882849036768227
vn -0.8389384585135503 0 -0.5442262974415218
vn -0.8389384585135503 0 0.5442262974415218
vn -0.9836314965298227 0.10629194559464097 0.1455029255245649
vn -0.9664073335197915 0.21359007371272376 0.14295504933565448
vn -0.994212109279327 0.10743501180877368 0
vn -0.976436037424353 0.21580700827134328 0
vn 0 1 0
vn -0.6648271801887998 0 -0.7469972024594262
vn -0.8203467439989435 0.20935793466683106 -0.532165833929961
vn -0.9520974335855039 0.10651393663354658 -0.2866448294714586
vn -0.9353575544752726 0.21402089805866026 -0.2816048658674102
vn -0.8343791024008503 0.10411201277735589 -0.5412690664283327
vn -0.7617478054983873 0.4189918930162998 -0.49415187382525316
vn -0.8658605305093341 0.4270017684692424 -0.26068185865194776
vn -0.6552319584779522 0.624499960425439 -0.42505397306433046
vn -0.9353575544752726 0.21402089805866015 0.2816048658674103
vn -0.9520974335855039 0.10651393663354644 0.2866448294714586
vn -0.8658605305093341 0.4270017684692423 0.260681858651948
vn -0.8948603561558348 0.42626616965460856 0.13237105268388807
vn -0.7410759474451187 0.6332669550906088 0.22311298417749717
vn -0.6648271801887998 0 0.7469972024594262
vn -0.741075947445119 0.633266955090609 -0.22311298417749695
vn -0.9028050584453443 0.43005002784036456 0
vn -0.7712194481858291 0.6365693699353946 0
vn -0.5729842599595799 0.8195663718324299 0
vn -0.766249161487411 0.6324671332927787 0.11334702388794464
vn -0.6509221805238533 0.2034540564250404 -0.7313732028357809
vn -0.6614222772795209 0.10107904237406196 -0.743171311550113
vn -0.6067538482942644 0.40874489780213924 -0.681745829544134
vn -0.5252218943426978 0.6130908766663602 -0.5901368812839459
vn -0.4909588194639196 0.8108787018225224 -0.31848888288481164
vn -0.5518699619427728 0.8172109436447268 -0.16614998854221394
vn -0.2663489509137573 0.9482638252416309 -0.17278296815731115
vn -0.39670517946113293 0.8024613630167511 -0.4457362016417426
vn -0.2168009529287242 0.945334794751295 -0.24359694711084537
vn -0.2977508352059751 0.9504254739748116 -0.08964295038595729
vn -0.8203467439989435 0.20935793466683084 0.532165833929961
vn -0.8343791024008503 0.10411201277735564 0.5412690664283327
vn -0.7617478054983873 0.4189918930162996 0.4941518738252534
vn -0.6552319584779522 0.6244999604254388 0.4250539730643307
vn -0.5518699619427728 0.8172109436447268 0.16614998854221433
vn -0.3085121322678178 0.9512204078149105 0
vn -0.9522996516007601 -0.10452596175913155 -0.28670489510888997
vn -0.9944267298993178 -0.10542997136369496 0
vn -0.9838392548434233 -0.1043080270188596 0.14553403769761386
vn -0.4570360799813209 0 -0.8894481556534407
vn -0.36484212922692266 0.6022862133295135 -0.7100292514920503
vn -0.27765996595264286 0.7943009026008435 -0.5403619337394725
vn 0.2977511181960517 0.9504253772833088 0.0896430355849308
vn -0.4570360799813209 0 0.8894481556534407
vn -0.4909588194639196 0.8108787018225222 0.318488882884812
vn -0.29775083520597506 0.9504254739748114 0.08964295038595768
vn -0.5709371918240809 0.8166382743749901 0.08445502837528984
vn 0.5518699619427728 0.8172109436447268 0.16614998854221433
vn 0.2663489509137573 0.9482638252416309 0.1727829681573116
vn 0.3085121322678178 0.9512204078149105 0
vn -0.8345484993055092 -0.10216806112655613 -0.5413783239034999
vn -0.9522996516007601 -0.10452596175913169 0.28670489510888997
vn -0.8345484993055092 -0.10216806112655638 0.5413783239034999
vn -0.6615490160524872 -0.09919000240684528 -0.7433130180364906
vn -0.4548220132412335 0.09829700286172088 -0.885141025769111
vn -0.4479850143402246 0.19802300633881575 -0.8718350279078757
vn -0.41903617965551504 0.39921517115755323 -0.8154973496323311
vn -0.15283094733186647 0.9424326752217347 -0.29742789750130766
vn 0.2168009529287242 0.945334794751295 0.2435969471108458
vn 0.4909588194639196 0.8108787018225222 0.318488882884812
vn 0.6552319584779522 0.6244999604254388 0.4250539730643307
vn 0.396705179461133 0.8024613630167511 0.44573620164174305
vn -0.6509221805238534 0.2034540564250401 0.7313732028357811
vn -0.6614222772795209 0.10107904237406162 0.743171311550113
vn -0.6067538482942644 0.4087448978021389 0.6817458295441342
vn -0.5252218943426978 0.61309087666636 0.5901368812839461
vn -0.2663489509137573 0.9482638252416309 0.1727829681573116
vn 0.2977511181960517 0.9504253772833088 -0.08964303558493038
vn -0.30819115366984906 0.9502314738031102 0.045589022731536
vn -0.45490482752127515 -0.09645896342725314 -0.8853006643352181
vn -0.6615490160524872 -0.09919000240684561 0.7433130180364906
vn -0.45490482752127515 -0.09645896342725353 0.8853006643352181
vn 0.7410759474451187 0.6332669550906088 0.22311298417749717
vn 0.532901146133771 0.8454882318523513 0.03414700936389682
vn -0.2319699865887716 0 -0.972722943762511
vn -0.18648706595871528 0.5947292103501092 -0.7819972765850566
vn -0.14267496038530403 0.788482781072267 -0.5982798338834391
vn -0.07893399865824044 0.9403249840158859 -0.3309959943735644
vn 0.1528309473318665 0.9424326752217347 0.2974278975013082
vn 0.5252218943426978 0.61309087666636 0.5901368812839461
vn 0.27765996595264286 0.7943009026008433 0.5403619337394729
vn 0.6067538482942644 0.4087448978021389 0.6817458295441342
vn -0.2319699865887716 0 0.972722943762511
vn -0.4479850143402246 0.19802300633881537 0.8718350279078757
vn -0.4548220132412335 0.0982970028617205 0.885141025769111
vn -0.41903617965551504 0.3992151711575529 0.8154973496323313
vn -0.36484212922692266 0.6022862133295133 0.7100292514920505
vn -0.396705179461133 0.8024613630167511 0.44573620164174305
vn -0.2168009529287242 0.945334794751295 0.2435969471108458
vn 0.2663489509137573 0.9482638252416309 -0.17278296815731115
vn 0.30819115366984906 0.9502314738031102 -0.04558902273153558
vn 0.766249161487411 0.6324671332927787 0.11334702388794464
vn -0.230929967250669 -0.09459698658472909 -0.968360862671914
vn 0.7617478054983873 0.4189918930162996 0.4941518738252534
vn 0.6509221805238534 0.2034540564250401 0.7313732028357811
vn 0.8203467439989435 0.20935793466683084 0.532165833929961
vn 0.8658605305093341 0.4270017684692423 0.260681858651948
vn 0.6614222772795209 0.10107904237406162 0.743171311550113
vn 0.8343791024008503 0.10411201277735564 0.5412690664283327
vn -0.23088990333230544 0.09639995963980377 -0.9681925946425345
vn -0.2275488978039446 0.19431191273123652 -0.9541825714604822
vn -0.21333998401891574 0.39264697058720943 -0.8946029329861913
vn 0.07893399865824045 0.9403249840158859 0.3309959943735649
vn 0.36484212922692266 0.6022862133295133 0.7100292514920505
vn 0.41903617965551504 0.3992151711575529 0.8154973496323313
vn -0.22754889780394466 0.1943119127312361 0.9541825714604825
vn -0.23088990333230544 0.09639995963980336 0.9681925946425345
vn -0.21333998401891574 0.392646970587209 0.8946029329861915
vn -0.18648706595871528 0.5947292103501087 0.7819972765850568
vn -0.27765996595264286 0.7943009026008433 0.5403619337394729
vn -0.1528309473318665 0.9424326752217347 0.2974278975013082
vn 0.5050868948777907 0.842501824652641 -0.18729096101969803
vn 0.4909588194639196 0.8108787018225224 -0.31848888288481164
vn 0.7068960952719278 0.6261470843889791 -0.32899504434030996
vn 0.6552319584779522 0.624499960425439 -0.42505397306433046
vn 0.44953110434225013 0.8907862067635282 -0.06649601543462448
vn -0.230929967250669 -0.09459698658472951 0.968360862671914
vn 0.9353575544752726 0.21402089805866015 0.2816048658674103
vn 0 0 -1
vn 0 -0.09394196930690882 -0.9955776747209331
vn 0 0.5920333443687278 -0.8059134687766294
vn 0 0.7863848547570901 -0.6177368859058607
vn 0 0.9395571701007341 -0.34239206198786265
vn 0.14267496038530403 0.7884827810722668 0.5982798338834395
vn 0 0.9395571701007339 0.3423920619878631
vn 0.18648706595871528 0.5947292103501087 0.7819972765850568
vn 0.4479850143402246 0.19802300633881537 0.8718350279078757
vn 0.4548220132412335 0.0982970028617205 0.885141025769111
vn 0 0 1
vn 0 0.1930049570343026 0.9811977815711709
vn 0 0.3903221476651414 0.9206783483074161
vn -0.14267496038530403 0.7884827810722668 0.5982798338834395
vn 0 0.5920333443687275 0.8059134687766298
vn 0.2168009529287242 0.945334794751295 -0.24359694711084537
vn 0.7617478054983873 0.4189918930162998 -0.49415187382525316
vn 0.8225743086673657 0.4204881577863187 -0.3828331436564412
vn 0.8948603561558348 0.42626616965460856 0.13237105268388807
vn 0.9664073335197915 0.21359007371272376 0.14295504933565448
vn 0 0.09573201381063658 -0.9954071436009287
vn 0 0.19300495703430298 -0.9811977815711707
vn 0 0.39032214766514184 -0.9206783483074159
vn 0 0.7863848547570896 0.6177368859058611
vn 0.21333998401891574 0.392646970587209 0.8946029329861915
vn 0.22754889780394466 0.1943119127312361 0.9541825714604825
vn 0 0.09573201381063613 0.9954071436009287
vn 0.15283094733186647 0.9424326752217347 -0.29742789750130766
vn -0.07893399865824045 0.9403249840158859 0.3309959943735649
vn 0.39670517946113293 0.8024613630167511 -0.4457362016417426
vn 0.5252218943426978 0.6130908766663602 -0.5901368812839459
vn 0.27765996595264286 0.7943009026008435 -0.5403619337394725
vn 0.8203467439989435 0.20935793466683106 -0.532165833929961
vn 0.6067538482942644 0.40874489780213924 -0.681745829544134
vn 0.8863597670708885 0.21022494475436346 -0.41251889159293714
vn 0.8343791024008503 0.10411201277735589 -0.5412690664283327
vn 0.9016502387750478 0.10455802768906065 -0.41963611112804966
vn 0.9836314965298227 0.10629194559464097 0.1455029255245649
vn 0 -0.09394196930690926 0.9955776747209331
vn 0.6614222772795209 0.10107904237406196 -0.743171311550113
vn 0.2319699865887716 0 -0.972722943762511
vn 0.230929967250669 -0.09459698658472909 -0.968360862671914
vn 0.14267496038530403 0.788482781072267 -0.5982798338834391
vn 0.07893399865824044 0.9403249840158859 -0.3309959943735644
vn 0.23088990333230544 0.09639995963980336 0.9681925946425345
vn 0.4479850143402246 0.19802300633881575 -0.8718350279078757
vn 0.6509221805238533 0.2034540564250404 -0.7313732028357809
vn 0.41903617965551504 0.39921517115755323 -0.8154973496323311
vn 0.4548220132412335 0.09829700286172088 -0.885141025769111
vn 0.2319699865887716 0 0.972722943762511
vn 0.36484212922692266 0.6022862133295135 -0.7100292514920503
vn 0.9520974335855039 0.10651393663354644 0.2866448294714586
vn 0.23088990333230544 0.09639995963980377 -0.9681925946425345
vn 0.2275488978039446 0.19431191273123652 -0.9541825714604822
vn 0.21333998401891574 0.39264697058720943 -0.8946029329861913
vn 0.18648706595871528 0.5947292103501092 -0.7819972765850566
vn 0.230929967250669 -0.09459698658472951 0.968360862671914
vn 0.4570360799813209 0 -0.8894481556534407
vn 0.45490482752127515 -0.09645896342725314 -0.8853006643352181
vn 0.4570360799813209 0 0.8894481556534407
vn 0.45490482752127515 -0.09645896342725353 0.8853006643352181
vn 0.6648271801887998 0 -0.7469972024594262
vn 0.6615490160524872 -0.09919000240684528 -0.7433130180364906
vn 0.6648271801887998 0 0.7469972024594262
vn 0.6615490160524872 -0.09919000240684561 0.7433130180364906
vn 0.8389384585135503 0 -0.5442262974415218
vn 0.8345484993055092 -0.10216806112655613 -0.5413783239034999
vn 0.8389384585135503 0 0.5442262974415218
vn 0.8345484993055092 -0.10216806112655638 0.5413783239034999
vn 0.9575446800604372 0 -0.2882849036768227
vn 0.9522996516007601 -0.10452596175913155 -0.28670489510888997
vn 0.9575446800604372 0 0.2882849036768227
vn 0.9522996516007601 -0.10452596175913169 0.28670489510888997
vn 0.5518699619427728 0.8172109436447268 -0.16614998854221394
vn 0.2977508352059751 0.9504254739748116 -0.08964295038595729
vn -0.2977511181960517 0.9504253772833088 0.0896430355849308
vn 0.29775083520597506 0.9504254739748114 0.08964295038595768
vn -0.2977511181960517 0.9504253772833088 -0.08964303558493038
vn 0.9520974335855039 0.10651393663354658 -0.2866448294714586
vn 0.9353575544752726 0.21402089805866026 -0.2816048658674102
vn 0.8658605305093341 0.4270017684692424 -0.26068185865194776
vn 0.741075947445119 0.633266955090609 -0.22311298417749695
vn 1 0 0
vn 0.9028050584453443 0.43005002784036456 0
vn 0.7712194481858291 0.6365693699353946 0
vn 0.5729842599595799 0.8195663718324299 0
vn 0.9944267298993178 -0.10542997136369496 0
vn 0.994212109279327 0.10743501180877368 0
vn 0.976436037424353 0.21580700827134328 0
vn 0.9892355459805579 0 -0.14633193283951149
vn 0.994212109279327 -0.10743501180877368 0
vn 0.9664073335197915 -0.21359007371272376 -0.14295504933565448
vn 0.9836314965298227 -0.10629194559464097 -0.1455029255245649
vn 0.9520974335855039 -0.10651393663354658 0.2866448294714586
vn 0.976436037424353 -0.21580700827134328 0
vn 0.9353575544752726 -0.21402089805866026 0.2816048658674102
vn 0.8203467439989435 -0.20935793466683106 0.532165833929961
vn 0.8343791024008503 -0.10411201277735589 0.5412690664283327
vn 0.8658605305093341 -0.4270017684692424 0.26068185865194776
vn 0.7617478054983873 -0.4189918930162998 0.49415187382525316
vn 0.6552319584779522 -0.624499960425439 0.42505397306433046
vn 0.9520974335855039 -0.10651393663354644 -0.2866448294714586
vn 0.9353575544752726 -0.21402089805866015 -0.2816048658674103
vn 0.8658605305093341 -0.4270017684692423 -0.260681858651948
vn 0.8948603561558348 -0.42626616965460856 -0.13237105268388807
vn 0.7410759474451187 -0.6332669550906088 -0.22311298417749717
vn 0.7712194481858291 -0.6365693699353946 0
vn 0.9028050584453443 -0.43005002784036456 0
vn 0.741075947445119 -0.633266955090609 0.22311298417749695
vn 0.6509221805238533 -0.2034540564250404 0.7313732028357809
vn 0.6614222772795209 -0.10107904237406196 0.743171311550113
vn 0.6067538482942644 -0.40874489780213924 0.681745829544134
vn 0.5252218943426978 -0.6130908766663602 0.5901368812839459
vn 0.5518699619427728 -0.8172109436447268 0.16614998854221394
vn 0.4909588194639196 -0.8108787018225224 0.31848888288481164
vn 0.39670517946113293 -0.8024613630167511 0.4457362016417426
vn 0.2663489509137573 -0.9482638252416309 0.17278296815731115
vn 0.2168009529287242 -0.945334794751295 0.24359694711084537
vn 0.2977508352059751 -0.9504254739748116 0.08964295038595729
vn 0.8343791024008503 -0.10411201277735564 -0.5412690664283327
vn 0.8203467439989435 -0.20935793466683084 -0.532165833929961
vn 0.7617478054983873 -0.4189918930162996 -0.4941518738252534
vn 0.6552319584779522 -0.6244999604254388 -0.4250539730643307
vn 0.5518699619427728 -0.8172109436447268 -0.16614998854221433
vn 0.5709371918240809 -0.8166382743749901 -0.08445502837528984
vn 0.766249161487411 -0.6324671332927787 -0.11334702388794464
vn 0.5729842599595799 -0.8195663718324299 0
vn 0.3085121322678178 -0.9512204078149105 0
vn 0.9522996516007601 0.10452596175913155 0.28670489510888997
vn 0.9944267298993178 0.10542997136369496 0
vn 0.9838392548434233 0.1043080270188596 -0.14553403769761386
vn 0.41903617965551504 -0.39921517115755323 0.8154973496323311
vn 0.36484212922692266 -0.6022862133295135 0.7100292514920503
vn 0.27765996595264286 -0.7943009026008435 0.5403619337394725
vn -0.2663489509137573 -0.9482638252416309 -0.1727829681573116
vn 0.4909588194639196 -0.8108787018225222 -0.318488882884812
vn -0.2977511181960517 -0.9504253772833088 -0.0896430355849308
vn 0.8345484993055092 0.10216806112655613 0.5413783239034999
vn 0.9522996516007601 0.10452596175913169 -0.28670489510888997
vn 0.8345484993055092 0.10216806112655638 -0.5413783239034999
vn 0.6615490160524872 0.09919000240684528 0.7433130180364906
vn 0.4548220132412335 -0.09829700286172088 0.885141025769111
vn 0.4479850143402246 -0.19802300633881575 0.8718350279078757
vn 0.15283094733186647 -0.9424326752217347 0.29742789750130766
vn -0.2168009529287242 -0.945334794751295 -0.2435969471108458
vn -0.4909588194639196 -0.8108787018225222 -0.318488882884812
vn -0.396705179461133 -0.8024613630167511 -0.44573620164174305
vn -0.6552319584779522 -0.6244999604254388 -0.4250539730643307
vn 0.6614222772795209 -0.10107904237406162 -0.743171311550113
vn 0.6509221805238534 -0.2034540564250401 -0.7313732028357811
vn 0.6067538482942644 -0.4087448978021389 -0.6817458295441342
vn 0.5252218943426978 -0.61309087666636 -0.5901368812839461
vn 0.2663489509137573 -0.9482638252416309 -0.1727829681573116
vn 0.29775083520597506 -0.9504254739748114 -0.08964295038595768
vn 0.30819115366984906 -0.9502314738031102 -0.045589022731536
vn 0.45490482752127515 0.09645896342725314 0.8853006643352181
vn 0.6615490160524872 0.09919000240684561 -0.7433130180364906
vn 0.45490482752127515 0.09645896342725353 -0.8853006643352181
vn -0.5518699619427728 -0.8172109436447268 -0.16614998854221433
vn -0.7410759474451187 -0.6332669550906088 -0.22311298417749717
vn -0.3085121322678178 -0.9512204078149105 0
vn 0.21333998401891574 -0.39264697058720943 0.8946029329861913
vn 0.18648706595871528 -0.5947292103501092 0.7819972765850566
vn 0.14267496038530403 -0.788482781072267 0.5982798338834391
vn 0.07893399865824044 -0.9403249840158859 0.3309959943735644
vn -0.1528309473318665 -0.9424326752217347 -0.2974278975013082
vn -0.27765996595264286 -0.7943009026008433 -0.5403619337394729
vn -0.5252218943426978 -0.61309087666636 -0.5901368812839461
vn 0.4548220132412335 -0.0982970028617205 -0.885141025769111
vn 0.4479850143402246 -0.19802300633881537 -0.8718350279078757
vn 0.41903617965551504 -0.3992151711575529 -0.8154973496323313
vn 0.36484212922692266 -0.6022862133295133 -0.7100292514920505
vn 0.396705179461133 -0.8024613630167511 -0.44573620164174305
vn -0.2977511181960517 -0.9504253772833088 0.08964303558493038
vn -0.2663489509137573 -0.9482638252416309 0.17278296815731115
vn -0.30819115366984906 -0.9502314738031102 0.04558902273153558
vn -0.532901146133771 -0.8454882318523513 -0.03414700936389682
vn 0.230929967250669 0.09459698658472909 0.968360862671914
vn -0.7617478054983873 -0.4189918930162996 -0.4941518738252534
vn -0.6067538482942644 -0.4087448978021389 -0.6817458295441342
vn -0.8203467439989435 -0.20935793466683084 -0.532165833929961
vn -0.6509221805238534 -0.2034540564250401 -0.7313732028357811
vn -0.8343791024008503 -0.10411201277735564 -0.5412690664283327
vn -0.6614222772795209 -0.10107904237406162 -0.743171311550113
vn -0.8658605305093341 -0.4270017684692423 -0.260681858651948
vn 0.23088990333230544 -0.09639995963980377 0.9681925946425345
vn 0.2275488978039446 -0.19431191273123652 0.9541825714604822
vn -0.36484212922692266 -0.6022862133295133 -0.7100292514920505
vn -0.41903617965551504 -0.3992151711575529 -0.8154973496323313
vn 0.23088990333230544 -0.09639995963980336 -0.9681925946425345
vn 0.22754889780394466 -0.1943119127312361 -0.9541825714604825
vn 0.21333998401891574 -0.392646970587209 -0.8946029329861915
vn 0.18648706595871528 -0.5947292103501087 -0.7819972765850568
vn 0.27765996595264286 -0.7943009026008433 -0.5403619337394729
vn 0.2168009529287242 -0.945334794751295 -0.2435969471108458
vn -0.4909588194639196 -0.8108787018225224 0.31848888288481164
vn -0.5050868948777907 -0.842501824652641 0.18729096101969803
vn -0.6552319584779522 -0.624499960425439 0.42505397306433046
vn -0.7068960952719278 -0.6261470843889791 0.32899504434030996
vn -0.44953110434225013 -0.8907862067635282 0.06649601543462448
vn -0.766249161487411 -0.6324671332927787 -0.11334702388794464
vn 0.230929967250669 0.09459698658472951 -0.968360862671914
vn -0.9353575544752726 -0.21402089805866015 -0.2816048658674103
vn 0 0.09394196930690882 0.9955776747209331
vn 0 -0.39032214766514184 0.9206783483074159
vn 0 -0.5920333443687278 0.8059134687766294
vn 0 -0.7863848547570901 0.6177368859058607
vn 0 -0.9395571701007341 0.34239206198786265
vn -0.07893399865824045 -0.9403249840158859 -0.3309959943735649
vn 0 -0.9395571701007339 -0.3423920619878631
vn -0.14267496038530403 -0.7884827810722668 -0.5982798338834395
vn -0.18648706595871528 -0.5947292103501087 -0.7819972765850568
vn -0.4479850143402246 -0.19802300633881537 -0.8718350279078757
vn -0.4548220132412335 -0.0982970028617205 -0.885141025769111
vn 0 -0.1930049570343026 -0.9811977815711709
vn 0 -0.3903221476651414 -0.9206783483074161
vn 0.14267496038530403 -0.7884827810722668 -0.5982798338834395
vn 0 -0.5920333443687275 -0.8059134687766298
vn 0.1528309473318665 -0.9424326752217347 -0.2974278975013082
vn -0.7617478054983873 -0.4189918930162998 0.49415187382525316
vn -0.2168009529287242 -0.945334794751295 0.24359694711084537
vn -0.8948603561558348 -0.42626616965460856 -0.13237105268388807
vn 0 -0.09573201381063658 0.9954071436009287
vn 0 -0.19300495703430298 0.9811977815711707
vn 0 -0.7863848547570896 -0.6177368859058611
vn -0.21333998401891574 -0.392646970587209 -0.8946029329861915
vn 0 -0.09573201381063613 -0.9954071436009287
vn -0.15283094733186647 -0.9424326752217347 0.29742789750130766
vn 0.07893399865824045 -0.9403249840158859 -0.3309959943735649
vn -0.39670517946113293 -0.8024613630167511 0.4457362016417426
vn -0.5252218943426978 -0.6130908766663602 0.5901368812839459
vn -0.27765996595264286 -0.7943009026008435 0.5403619337394725
vn -0.8225743086673657 -0.4204881577863187 0.3828331436564412
vn -0.8863597670708885 -0.21022494475436346 0.41251889159293714
vn -0.8203467439989435 -0.20935793466683106 0.532165833929961
vn -0.6067538482942644 -0.40874489780213924 0.681745829544134
vn -0.9664073335197915 -0.21359007371272376 -0.14295504933565448
vn -0.9836314965298227 -0.10629194559464097 -0.1455029255245649
vn 0 0.09394196930690926 -0.9955776747209331
vn -0.6509221805238533 -0.2034540564250404 0.7313732028357809
vn -0.6614222772795209 -0.10107904237406196 0.743171311550113
vn -0.8343791024008503 -0.10411201277735589 0.5412690664283327
vn -0.230929967250669 0.09459698658472909 0.968360862671914
vn -0.21333998401891574 -0.39264697058720943 0.8946029329861913
vn -0.14267496038530403 -0.788482781072267 0.5982798338834391
vn -0.07893399865824044 -0.9403249840158859 0.3309959943735644
vn -0.22754889780394466 -0.1943119127312361 -0.9541825714604825
vn -0.23088990333230544 -0.09639995963980336 -0.9681925946425345
vn -0.4479850143402246 -0.19802300633881575 0.8718350279078757
vn -0.41903617965551504 -0.39921517115755323 0.8154973496323311
vn -0.4548220132412335 -0.09829700286172088 0.885141025769111
vn -0.36484212922692266 -0.6022862133295135 0.7100292514920503
vn -0.9016502387750478 -0.10455802768906065 0.41963611112804966
vn -0.9520974335855039 -0.10651393663354644 -0.2866448294714586
vn -0.23088990333230544 -0.09639995963980377 0.9681925946425345
vn -0.2275488978039446 -0.19431191273123652 0.9541825714604822
vn -0.18648706595871528 -0.5947292103501092 0.7819972765850566
vn -0.230929967250669 0.09459698658472951 -0.968360862671914
vn -0.45490482752127515 0.09645896342725314 0.8853006643352181
vn -0.45490482752127515 0.09645896342725353 -0.8853006643352181
vn -0.6615490160524872 0.09919000240684528 0.7433130180364906
vn -0.6615490160524872 0.09919000240684561 -0.7433130180364906
vn -0.8345484993055092 0.10216806112655613 0.5413783239034999
vn -0.8345484993055092 0.10216806112655638 -0.5413783239034999
vn -0.9522996516007601 0.10452596175913155 0.28670489510888997
vn -0.9522996516007601 0.10452596175913169 -0.28670489510888997
vn -0.8658605305093341 -0.4270017684692424 0.26068185865194776
vn -0.5518699619427728 -0.8172109436447268 0.16614998854221394
vn -0.2977508352059751 -0.9504254739748116 0.08964295038595729
vn 0.2977511181960517 -0.9504253772833088 -0.0896430355849308
vn -0.29775083520597506 -0.9504254739748114 -0.08964295038595768
vn 0.2977511181960517 -0.9504253772833088 0.08964303558493038
vn -0.9353575544752726 -0.21402089805866026 0.2816048658674102
vn -0.9520974335855039 -0.10651393663354658 0.2866448294714586
vn -0.741075947445119 -0.633266955090609 0.22311298417749695
vn -0.5729842599595799 -0.8195663718324299 0
vn -0.9028050584453443 -0.43005002784036456 0
vn -0.7712194481858291 -0.6365693699353946 0
vn -0.9944267298993178 0.10542997136369496 0
vn -0.994212109279327 -0.10743501180877368 0
vn -0.976436037424353 -0.21580700827134328 0
usemtl material_0_0
f 1//1 2//1 3//1
f 2//1 1//1 4//1
f 5//1 6//1 7//1
f 2//2 8//3 3//3
f 6//3 9//2 7//2
f 6//1 10//1 11//1
f 3//3 12//4 1//4
f 4//1 1//1 10//1
f 5//1 7//1 13//1
f 6//1 5//1 4//1
f 8//3 2//2 14//2
f 12//4 3//3 8//3
f 9//2 6//3 15//3
f 16//5 7//2 9//2
f 4//1 10//1 6//1
f 11//1 10//1 17//1
f 1//4 18//6 10//6
f 17//6 19//4 11//4
f 18//6 1//4 12//4
f 5//1 13//1 20//1
f 4//5 14//2 2//2
f 14//2 4//5 21//5
f 5//7 21//5 4//5
f 7//2 16//5 13//5
f 13//5 22//7 20//7
f 14//8 23//9 8//10
f 8//10 23//9 24//11
f 11//4 15//3 6//3
f 19//1 9//1 15//1
f 15//12 25//12 9//12
f 9//1 19//1 16//1
f 9//12 25//12 16//12
f 17//1 10//1 26//1
f 27//13 10//6 18//6
f 19//4 17//6 28//6
f 15//3 11//4 19//4
f 29//14 12//15 30//16
f 12//15 29//14 18//17
f 31//18 30//16 32//19
f 30//16 31//18 29//14
f 32//19 33//20 31//18
f 5//1 20//1 34//1
f 21//5 5//7 35//7
f 36//21 14//8 21//22
f 14//8 36//21 23//9
f 37//23 23//9 36//21
f 23//9 37//23 38//24
f 39//25 38//24 37//23
f 22//7 13//5 16//5
f 40//26 20//7 22//7
f 23//9 38//24 24//11
f 41//27 42//28 43//29
f 44//30 41//27 43//29
f 24//11 38//24 42//28
f 42//28 45//31 43//29
f 24//11 12//15 8//10
f 12//15 24//11 30//16
f 32//19 24//11 42//28
f 24//11 32//19 30//16
f 42//28 41//27 32//19
f 46//12 47//12 48//12
f 47//12 25//12 15//12
f 15//12 49//12 47//12
f 49//12 15//12 19//12
f 16//1 19//1 28//1
f 47//12 50//12 25//12
f 16//12 25//12 22//12
f 17//1 26//1 51//1
f 10//6 27//13 26//13
f 51//13 28//6 17//6
f 52//32 18//17 29//14
f 18//17 52//32 27//33
f 53//34 29//14 31//18
f 29//14 53//34 52//32
f 31//18 54//35 53//34
f 49//12 19//12 28//12
f 33//20 32//19 41//27
f 55//36 54//35 33//20
f 56//37 33//20 41//27
f 33//20 56//37 55//36
f 57//38 58//39 55//36
f 59//12 60//40 57//38
f 55//36 61//41 57//38
f 57//38 62//12 59//12
f 34//1 20//1 63//1
f 34//26 35//7 5//7
f 20//7 40//26 63//26
f 64//42 21//22 35//43
f 21//22 64//42 36//21
f 65//44 36//21 64//42
f 36//21 65//44 37//23
f 38//24 39//25 45//31
f 37//23 66//45 39//25
f 66//45 67//46 39//25
f 16//1 28//1 22//1
f 22//1 69//1 40//1
f 22//12 25//12 70//12
f 22//12 70//12 40//12
f 41//27 44//30 56//37
f 71//47 56//37 44//30
f 56//37 71//47 61//41
f 38//24 45//31 42//28
f 45//31 44//30 43//29
f 61//41 55//36 56//37
f 62//12 57//38 61//41
f 72//48 48//49 47//48
f 48//49 73//50 46//50
f 47//12 46//12 50//12
f 51//1 26//1 74//1
f 27//13 74//51 26//13
f 28//6 51//13 69//13
f 54//35 31//18 33//20
f 58//39 76//52 54//35
f 60//40 77//53 58//39
f 49//12 28//12 78//12
f 54//35 55//36 58//39
f 58//39 57//38 60//40
f 60//40 59//12 79//12
f 81//54 59//12 62//12
f 34//1 63//1 82//1
f 35//7 34//26 83//26
f 40//26 84//55 63//26
f 66//45 37//23 65//44
f 67//46 66//45 85//56
f 85//56 86//57 67//46
f 44//30 45//31 39//25
f 44//30 39//25 68//58
f 68//58 39//25 67//46
f 71//47 68//58 67//46
f 22//1 28//1 69//1
f 40//1 69//1 87//1
f 40//12 70//12 88//12
f 68//58 71//47 44//30
f 89//59 80//60 81//54
f 61//41 90//12 62//12
f 62//12 91//61 81//54
f 48//49 72//48 92//49
f 47//48 93//62 72//48
f 73//50 48//49 92//49
f 94//63 46//50 73//50
f 50//63 95//64 25//64
f 46//50 94//63 50//63
f 51//1 74//1 96//1
f 87//51 51//13 96//51
f 74//51 27//13 97//51
f 51//13 87//51 69//13
f 78//12 28//12 69//12
f 98//65 49//62 78//65
f 52//32 97//66 27//33
f 97//66 52//32 99//67
f 53//34 99//67 52//32
f 99//67 53//34 75//68
f 54//35 75//68 53//34
f 75//68 54//35 76//52
f 76//52 58//39 77//53
f 77//53 60//40 100//69
f 79//12 100//69 60//40
f 80//60 79//12 59//12
f 79//12 80//60 101//70
f 102//71 101//70 80//60
f 103//72 104//73 102//71
f 82//1 63//1 84//1
f 105//55 34//26 82//55
f 34//26 105//55 83//26
f 106//74 35//43 83//75
f 35//43 106//74 64//42
f 107//76 64//42 106//74
f 64//42 107//76 65//44
f 108//77 65//44 107//76
f 84//55 40//26 109//55
f 86//57 85//56 110//78
f 65//44 108//77 66//45
f 108//77 85//56 66//45
f 110//78 111//12 86//57
f 112//12 113//79 111//12
f 114//80 67//46 86//57
f 71//47 67//46 114//80
f 114//80 90//12 71//47
f 78//12 69//12 115//12
f 115//12 69//12 87//12
f 116//81 78//65 115//81
f 40//1 87//1 109//1
f 40//12 88//12 109//12
f 117//82 88//83 70//82
f 59//12 81//54 80//60
f 80//60 89//59 102//71
f 118//84 102//71 89//59
f 102//71 118//84 103//72
f 90//12 61//41 71//47
f 91//61 62//12 90//12
f 119//85 81//54 91//61
f 72//1 73//1 92//1
f 93//62 47//48 49//62
f 94//1 72//1 93//1
f 73//1 72//1 94//1
f 95//64 50//63 94//63
f 117//82 25//64 95//64
f 96//1 74//1 120//1
f 96//51 121//86 87//51
f 97//51 120//86 74//51
f 49//62 98//65 93//62
f 78//65 116//81 98//65
f 77//53 123//87 76//52
f 100//69 124//88 77//53
f 125//12 126//89 100//69
f 100//69 79//12 125//12
f 101//70 125//12 79//12
f 104//73 127//90 101//70
f 128//91 129//92 104//73
f 101//70 102//71 104//73
f 104//73 103//72 128//91
f 103//72 130//93 128//91
f 82//1 84//1 131//1
f 82//55 132//94 105//55
f 133//95 83//75 105//96
f 83//75 133//95 106//74
f 134//97 106//74 133//95
f 106//74 134//97 107//76
f 135//98 107//76 134//97
f 85//56 108//77 136//99
f 136//99 110//78 85//56
f 110//78 136//99 137//100
f 109//55 138//94 84//55
f 111//12 110//78 112//12
f 113//79 112//12 139//101
f 119//85 140//102 113//79
f 90//12 114//80 86//57
f 141//12 91//61 90//12
f 91//61 141//12 111//12
f 142//103 89//59 119//85
f 140//102 119//85 91//61
f 115//12 87//12 143//12
f 115//81 144//104 116//81
f 109//1 87//1 121//1
f 109//12 88//12 145//12
f 88//83 117//82 146//83
f 25//64 117//82 70//82
f 130//93 103//72 147//105
f 148//106 147//105 149//107
f 147//105 118//84 150//108
f 151//109 149//107 152//110
f 118//84 147//105 103//72
f 150//108 149//107 147//105
f 94//1 93//1 95//1
f 95//1 93//1 117//1
f 96//1 120//1 153//1
f 121//86 96//51 153//86
f 143//12 87//12 121//12
f 144//104 115//81 143//104
f 120//86 97//51 154//86
f 117//1 93//1 98//1
f 117//1 98//1 116//1
f 99//67 154//111 97//66
f 154//111 99//67 155//112
f 75//68 155//112 99//67
f 155//112 75//68 122//113
f 76//52 122//113 75//68
f 122//113 76//52 123//87
f 123//87 77//53 124//88
f 124//88 100//69 126//89
f 126//89 125//12 156//12
f 127//90 156//12 125//12
f 129//92 157//114 127//90
f 125//12 101//70 127//90
f 127//90 104//73 129//92
f 129//92 128//91 158//115
f 158//115 130//93 159//116
f 130//93 158//115 128//91
f 148//106 159//116 130//93
f 147//105 148//106 130//93
f 131//1 84//1 138//1
f 132//94 82//55 131//94
f 160//117 105//96 132//118
f 105//96 160//117 133//95
f 161//119 133//95 160//117
f 133//95 161//119 134//97
f 162//120 134//97 161//119
f 107//76 135//98 108//77
f 135//98 136//99 108//77
f 136//99 135//98 163//121
f 163//121 137//100 136//99
f 137//100 163//121 164//122
f 137//100 112//12 110//78
f 138//94 109//55 165//94
f 139//101 166//123 113//79
f 141//12 86//57 111//12
f 166//123 139//101 167//124
f 168//125 167//124 169//126
f 90//12 86//57 141//12
f 91//61 111//12 140//102
f 140//102 111//12 113//79
f 119//85 113//79 171//127
f 171//127 113//79 166//123
f 81//54 119//85 89//59
f 89//59 142//103 118//84
f 142//103 150//108 118//84
f 146//1 116//1 144//1
f 109//1 121//1 165//1
f 109//12 145//12 165//12
f 146//83 145//128 88//83
f 117//1 116//1 146//1
f 149//107 151//109 148//106
f 149//107 150//108 172//129
f 152//12 173//12 151//12
f 153//1 120//1 174//1
f 153//86 175//130 121//86
f 143//12 121//12 176//12
f 143//104 177//131 144//104
f 154//86 174//130 120//86
f 124//88 179//132 123//87
f 126//89 180//133 124//88
f 156//12 181//134 126//89
f 157//114 182//12 156//12
f 183//135 184//136 157//114
f 156//12 127//90 157//114
f 157//114 129//92 183//135
f 158//115 183//135 129//92
f 183//135 158//115 185//137
f 159//116 185//137 158//115
f 159//116 148//106 186//138
f 186//138 151//109 187//139
f 151//109 186//138 148//106
f 151//12 173//12 187//12
f 131//1 138//1 188//1
f 131//94 189//140 132//94
f 132//118 190//141 160//117
f 160//117 191//142 161//119
f 134//97 162//120 135//98
f 162//120 163//121 135//98
f 163//121 162//120 192//143
f 192//143 164//122 163//121
f 161//119 193//144 162//120
f 193//144 192//143 162//120
f 112//12 137//100 170//12
f 139//101 170//12 194//145
f 164//122 170//12 137//100
f 165//94 195//140 138//94
f 170//12 139//101 112//12
f 167//124 168//125 166//123
f 196//146 168//125 169//126
f 168//125 196//146 197//147
f 150//108 142//103 198//148
f 172//129 198//148 199//149
f 146//1 144//1 200//1
f 165//1 121//1 175//1
f 165//12 145//12 201//12
f 145//128 146//83 200//128
f 152//12 202//12 173//12
f 153//1 174//1 203//1
f 175//130 153//86 203//130
f 176//12 121//12 175//12
f 177//131 143//104 176//131
f 200//1 144//1 177//1
f 174//130 154//86 204//130
f 155//112 204//150 154//111
f 204//150 155//112 205//151
f 122//113 205//151 155//112
f 205//151 122//113 178//152
f 123//87 178//152 122//113
f 178//152 123//87 179//132
f 179//132 124//88 180//133
f 180//133 126//89 181//134
f 181//134 156//12 182//12
f 182//12 157//114 184//136
f 184//136 183//135 206//153
f 185//137 206//153 183//135
f 206//153 185//137 207//144
f 208//154 207//144 185//137
f 185//137 159//116 208//154
f 208//154 186//138 209//155
f 187//12 173//12 210//12
f 188//1 138//1 195//1
f 189//140 131//94 188//140
f 190//141 132//118 189//156
f 191//142 160//117 190//141
f 193//144 161//119 191//142
f 170//12 164//122 211//12
f 194//145 211//12 212//157
f 213//158 211//12 164//122
f 214//12 212//157 211//12
f 192//143 193//144 215//153
f 215//153 213//158 192//143
f 211//12 194//145 170//12
f 167//124 194//145 216//159
f 169//126 216//159 217//160
f 212//157 216//159 194//145
f 218//161 217//160 216//159
f 195//140 165//94 219//140
f 220//162 197//147 196//146
f 194//145 167//124 139//101
f 216//159 169//126 167//124
f 169//126 221//163 196//146
f 197//147 220//162 222//164
f 222//164 202//165 223//166
f 221//163 169//126 217//160
f 224//167 172//129 199//149
f 198//148 172//129 150//108
f 165//1 175//1 219//1
f 165//12 201//12 219//12
f 200//128 201//168 145//128
f 225//12 202//12 152//12
f 220//162 173//169 202//165
f 203//1 174//1 227//1
f 203//130 228//170 175//130
f 176//12 175//12 228//12
f 176//131 229//171 177//131
f 200//1 177//1 230//1
f 204//130 227//170 174//130
f 232//172 179//132 180//133
f 233//173 180//133 181//134
f 234//12 181//134 182//12
f 235//158 182//12 184//136
f 236//143 184//136 206//153
f 237//120 206//153 207//144
f 238//142 237//120 207//144
f 207//144 208//154 238//142
f 238//142 209//155 239//141
f 209//155 238//142 208//154
f 240//174 239//141 209//155
f 186//138 208//154 159//116
f 187//139 209//155 186//138
f 221//163 241//175 226//176
f 241//175 221//163 242//177
f 226//176 210//178 173//169
f 210//178 226//176 241//175
f 187//12 210//12 243//12
f 188//1 195//1 244//1
f 188//140 245//179 189//140
f 189//156 246//155 190//141
f 164//122 192//143 213//158
f 216//159 212//157 218//161
f 211//12 213//158 214//12
f 212//157 214//12 248//173
f 248//173 218//161 212//157
f 213//158 215//153 249//136
f 249//136 214//12 213//158
f 214//12 249//136 250//12
f 250//12 248//173 214//12
f 248//173 250//12 251//134
f 217//160 218//161 252//180
f 219//140 244//179 195//140
f 202//165 222//164 220//162
f 226//176 196//146 221//163
f 196//146 226//176 220//162
f 217//160 242//177 221//163
f 172//129 224//167 225//181
f 253//12 225//12 224//12
f 152//110 172//129 225//181
f 219//1 175//1 228//1
f 219//12 201//12 254//12
f 201//168 200//128 230//168
f 225//12 223//12 202//12
f 172//129 152//110 149//107
f 173//169 220//162 226//176
f 203//1 227//1 255//1
f 228//170 203//130 255//170
f 176//12 228//12 256//12
f 229//171 176//131 256//171
f 230//1 177//1 229//1
f 227//170 204//130 257//170
f 205//151 257//182 204//150
f 257//182 205//151 258//183
f 178//152 258//183 205//151
f 258//183 178//152 231//184
f 179//132 231//184 178//152
f 231//184 179//132 259//185
f 179//132 232//172 259//185
f 180//133 233//173 232//172
f 181//134 234//12 233//173
f 182//12 235//158 234//12
f 184//136 236//143 235//158
f 206//153 237//120 236//143
f 237//120 238//142 260//119
f 260//119 239//141 261//117
f 239//141 260//119 238//142
f 262//156 261//117 239//141
f 239//141 240//174 262//156
f 240//12 263//12 262//12
f 209//155 187//139 240//174
f 187//12 243//12 240//12
f 242//177 264//183 241//175
f 241//175 243//182 210//178
f 243//182 241//175 264//183
f 188//1 244//1 265//1
f 245//179 188//140 265//179
f 246//155 189//156 245//174
f 247//154 190//141 246//155
f 190//141 247//154 191//142
f 242//177 217//160 252//180
f 267//172 252//180 218//161
f 252//180 268//184 242//177
f 251//134 267//172 248//173
f 269//133 270//185 267//172
f 270//185 271//152 268//184
f 218//161 248//173 267//172
f 252//180 267//172 270//185
f 191//142 266//137 193//144
f 266//137 215//153 193//144
f 215//153 272//114 249//136
f 267//172 251//134 269//133
f 272//114 250//12 249//136
f 244//179 219//140 274//179
f 225//12 253//12 223//12
f 219//1 228//1 274//1
f 219//12 254//12 274//12
f 230//168 254//186 201//168
f 255//1 227//1 275//1
f 255//170 276//187 228//170
f 256//12 228//12 276//12
f 256//171 277//188 229//171
f 230//1 229//1 278//1
f 257//170 279//187 227//170
f 281//161 259//185 232//172
f 282//157 232//172 233//173
f 283//12 233//173 234//12
f 284//122 234//12 235//158
f 285//121 235//158 236//143
f 286//98 236//143 237//120
f 260//119 286//98 237//120
f 261//117 262//156 287//118
f 262//12 288//12 287//12
f 240//12 243//12 263//12
f 262//12 263//12 288//12
f 268//184 252//180 270//185
f 264//183 242//177 268//184
f 268//184 289//151 264//183
f 264//183 263//150 243//182
f 265//1 244//1 290//1
f 265//179 291//189 245//179
f 266//137 191//142 247//154
f 215//153 266//137 292//135
f 272//114 215//153 292//135
f 245//174 293//138 246//155
f 246//155 294//116 247//154
f 270//185 269//133 296//132
f 271//152 270//185 296//132
f 289//151 268//184 271//152
f 250//12 272//114 273//12
f 273//12 251//134 250//12
f 251//134 273//12 297//89
f 297//89 269//133 251//134
f 274//179 290//189 244//179
f 274//1 228//1 298//1
f 274//12 254//12 298//12
f 254//186 230//168 278//186
f 275//1 227//1 279//1
f 276//187 255//170 275//187
f 298//1 228//1 276//1
f 256//12 276//12 299//12
f 277//188 256//171 299//188
f 300//1 229//1 277//1
f 278//1 229//1 300//1
f 279//187 257//170 301//187
f 258//183 301//178 257//182
f 301//178 258//183 302//175
f 231//184 302//175 258//183
f 302//175 231//184 280//177
f 259//185 280//177 231//184
f 280//177 259//185 303//180
f 259//185 281//161 303//180
f 232//172 282//157 281//161
f 233//173 283//12 282//157
f 234//12 284//122 283//12
f 235//158 285//121 284//122
f 236//143 286//98 285//121
f 286//98 260//119 304//97
f 287//12 288//12 305//12
f 263//150 264//183 289//151
f 271//152 306//112 289//151
f 306//112 271//152 307//113
f 289//151 288//111 263//150
f 288//111 289//151 306//112
f 265//1 290//1 308//1
f 291//189 265//179 308//189
f 293//138 245//174 291//139
f 294//116 246//155 293//138
f 295//115 247//154 294//116
f 247//154 295//115 266//137
f 266//137 309//92 292//135
f 292//135 310//90 272//114
f 309//92 266//137 295//115
f 310//90 292//135 309//92
f 311//88 296//132 269//133
f 296//132 307//113 271//152
f 269//133 297//89 311//88
f 272//114 312//12 273//12
f 296//132 311//88 314//87
f 307//113 296//132 314//87
f 290//189 274//179 298//189
f 298//12 254//12 315//12
f 278//186 315//190 254//186
f 275//1 279//1 316//1
f 275//187 317//191 276//187
f 298//1 276//1 318//1
f 299//12 276//12 317//12
f 299//188 319//192 277//188
f 300//1 277//1 319//1
f 315//190 278//186 300//190
f 301//187 320//191 279//187
f 322//159 303//180 281//161
f 323//145 281//161 282//157
f 324//12 282//157 283//12
f 326//77 285//121 286//98
f 304//97 326//77 286//98
f 327//95 328//76 304//97
f 306//112 305//66 288//111
f 305//66 306//112 329//67
f 287//12 305//12 331//12
f 297//89 332//53 311//88
f 311//88 333//52 314//87
f 314//87 330//68 307//113
f 307//113 329//67 306//112
f 308//1 290//1 334//1
f 308//189 335//193 291//189
f 291//139 336//106 293//138
f 293//138 337//93 294//116
f 294//116 338//91 295//115
f 295//115 339//73 309//92
f 309//92 340//70 310//90
f 312//12 272//114 310//90
f 273//12 313//69 297//89
f 313//69 273//12 312//12
f 332//53 297//89 313//69
f 298//189 334//193 290//189
f 298//12 315//12 318//12
f 316//1 279//1 320//1
f 317//191 275//187 316//191
f 318//1 276//1 317//1
f 299//12 317//12 341//12
f 319//192 299//188 341//192
f 334//193 298//189 318//193
f 318//12 315//12 342//12
f 300//190 342//194 315//190
f 300//1 319//1 343//1
f 320//191 301//187 344//191
f 302//175 344//169 301//178
f 344//169 302//175 345//176
f 280//177 345//176 302//175
f 345//176 280//177 321//163
f 303//180 321//163 280//177
f 321//163 303//180 346//160
f 303//180 322//159 346//160
f 281//161 323//145 322//159
f 282//157 324//12 323//145
f 347//100 283//12 284//122
f 283//12 347//100 324//12
f 284//122 325//99 347//100
f 325//99 284//122 285//121
f 285//121 326//77 325//99
f 326//77 304//97 328//76
f 328//76 327//95 348//74
f 348//74 331//96 349//75
f 331//96 348//74 327//95
f 331//12 350//12 349//12
f 304//97 261//117 327//95
f 329//67 307//113 330//68
f 313//69 351//39 332//53
f 332//53 352//35 333//52
f 333//52 353//34 330//68
f 330//68 354//32 329//67
f 329//67 350//33 305//66
f 331//12 305//12 350//12
f 261//117 304//97 260//119
f 327//95 287//118 331//96
f 287//118 327//95 261//117
f 333//52 311//88 332//53
f 330//68 314//87 333//52
f 308//1 334//1 355//1
f 335//193 308//189 355//193
f 336//106 291//139 335//109
f 337//93 293//138 336//106
f 338//91 294//116 337//93
f 339//73 295//115 338//91
f 340//70 309//92 339//73
f 310//90 356//12 312//12
f 356//12 310//90 340//70
f 312//12 357//40 313//69
f 316//1 320//1 358//1
f 358//195 317//191 316//191
f 318//1 317//1 359//1
f 341//12 317//12 359//12
f 360//196 319//192 341//192
f 361//197 334//193 318//193
f 318//12 342//12 361//12
f 342//194 300//190 343//194
f 343//1 319//1 362//1
f 363//195 320//191 344//191
f 365//124 346//160 322//159
f 366//101 322//159 323//145
f 367//12 323//145 324//12
f 368//78 324//12 347//100
f 369//56 347//100 325//99
f 370//45 325//99 326//77
f 348//74 371//44 328//76
f 349//75 372//42 348//74
f 349//12 350//12 373//12
f 357//40 312//12 356//12
f 351//39 313//69 357//40
f 352//35 332//53 351//39
f 353//34 333//52 352//35
f 354//32 330//68 353//34
f 350//33 329//67 354//32
f 355//1 334//1 374//1
f 375//197 335//193 355//193
f 376//110 336//106 335//109
f 377//107 337//93 336//106
f 378//105 338//91 337//93
f 338//91 379//71 339//73
f 339//73 380//60 340//70
f 358//1 320//1 382//1
f 317//191 358//195 359//195
f 320//191 363//195 382//195
f 341//12 359//12 360//12
f 318//1 359//1 361//1
f 319//192 360//196 383//196
f 334//193 361//197 374//197
f 361//12 342//12 384//12
f 343//194 384//198 342//194
f 362//1 319//1 383//1
f 384//198 343//194 362//198
f 363//165 345//176 385//162
f 345//176 363//165 344//169
f 385//162 321//163 364//146
f 321//163 385//162 345//176
f 346//160 364//146 321//163
f 364//146 346//160 386//126
f 346//160 365//124 386//126
f 322//159 366//101 365//124
f 323//145 367//12 366//101
f 324//12 368//78 367//12
f 325//99 370//45 369//56
f 347//100 369//56 368//78
f 370//45 328//76 371//44
f 328//76 370//45 326//77
f 371//44 348//74 372//42
f 372//42 349//75 387//43
f 349//12 373//12 387//12
f 340//70 381//12 356//12
f 356//12 389//38 357//40
f 357//40 390//36 351//39
f 351//39 391//20 352//35
f 391//20 353//34 352//35
f 392//18 354//32 353//34
f 388//14 350//33 354//32
f 355//1 374//1 375//1
f 335//193 375//197 376//197
f 336//106 376//110 377//107
f 337//93 377//107 378//105
f 338//91 378//105 393//72
f 379//71 338//91 393//72
f 380//60 339//73 379//71
f 381//12 340//70 380//60
f 358//1 382//1 394//1
f 394//199 359//195 358//195
f 395//199 382//195 363//195
f 360//12 359//12 396//12
f 361//1 359//1 397//1
f 398//200 383//196 360//196
f 397//201 374//197 361//197
f 361//12 384//12 397//12
f 362//1 383//1 399//1
f 362//198 400//202 384//198
f 402//203 386//126 365//124
f 403//204 365//124 366//101
f 404//12 366//101 367//12
f 371//44 405//25 370//45
f 406//205 367//12 368//78
f 372//42 407//23 371//44
f 387//43 408//21 372//42
f 387//12 373//12 409//12
f 350//33 388//14 373//17
f 390//36 410//27 391//20
f 410//27 392//18 391//20
f 411//19 388//14 392//18
f 412//16 373//17 388//14
f 354//32 392//18 388//14
f 389//38 356//12 381//12
f 390//36 357//40 389//38
f 391//20 351//39 390//36
f 353//34 391//20 392//18
f 375//1 374//1 413//1
f 414//201 376//197 375//197
f 415//181 377//107 376//110
f 416//129 378//105 377//107
f 417//108 393//72 378//105
f 393//72 418//59 379//71
f 379//71 419//206 380//60
f 380//60 420//12 381//12
f 381//12 421//207 389//38
f 394//1 382//1 422//1
f 359//195 394//199 396//199
f 382//195 395//199 422//199
f 395//208 385//162 423//209
f 385//162 395//208 363//165
f 423//209 364//146 401//210
f 364//146 423//209 385//162
f 397//1 359//1 396//1
f 360//12 396//12 398//12
f 397//12 384//12 400//12
f 383//196 398//200 399//200
f 374//197 397//201 413//201
f 362//1 399//1 424//1
f 400//202 362//198 424//202
f 386//126 401//210 364//146
f 401//210 386//126 425//211
f 386//126 402//203 425//211
f 365//124 403//204 402//203
f 366//101 404//12 403//204
f 367//12 406//205 404//12
f 405//25 369//56 370//45
f 369//56 405//25 426//46
f 405//25 371//44 407//23
f 368//78 426//46 406//205
f 407//23 372//42 408//21
f 408//21 387//43 427//22
f 387//12 409//12 427//12
f 373//17 412//16 409//15
f 389//38 428//37 390//36
f 428//37 389//38 421//207
f 410//27 390//36 428//37
f 392//18 410//27 411//19
f 388//14 411//19 412//16
f 375//1 413//1 414//1
f 376//197 414//201 415//201
f 377//107 415//181 416//129
f 378//105 416//129 417//108
f 393//72 417//108 429//84
f 418//59 393//72 429//84
f 419//206 379//71 418//59
f 420//12 380//60 419//206
f 421//207 381//12 420//12
f 394//1 422//1 430//1
f 430//212 396//199 394//199
f 431//212 422//199 395//199
f 433//61 402//203 403//204
f 434//213 423//209 401//210
f 435//214 401//210 425//211
f 432//215 425//211 402//203
f 397//1 396//1 436//1
f 398//12 436//12 400//12
f 398//12 396//12 436//12
f 397//12 400//12 436//12
f 437//216 399//200 398//200
f 436//212 413//201 397//201
f 424//1 399//1 438//1
f 424//202 437//216 400//202
f 439//12 403//204 404//12
f 440//47 404//12 406//205
f 441//30 406//205 426//46
f 442//29 426//46 405//25
f 443//28 405//25 407//23
f 426//46 368//78 369//56
f 444//11 407//23 408//21
f 427//22 444//11 408//21
f 427//12 409//12 445//12
f 443//28 412//16 411//19
f 444//11 409//15 412//16
f 419//206 439//12 420//12
f 420//12 440//47 421//207
f 421//207 441//30 428//37
f 428//37 442//29 410//27
f 442//29 411//19 410//27
f 414//1 413//1 430//1
f 446//212 415//201 414//201
f 431//217 416//129 415//181
f 447//218 417//108 416//129
f 434//213 429//84 417//108
f 418//59 433//61 419//206
f 414//1 430//1 422//1
f 414//1 422//1 446//1
f 396//199 430//212 436//212
f 422//199 431//212 446//212
f 431//217 423//209 447//218
f 423//209 431//217 395//208
f 425//211 432//215 435//214
f 402//203 433//61 432//215
f 403//204 439//12 433//61
f 423//209 434//213 447//218
f 401//210 435//214 434//213
f 398//12 400//12 437//12
f 399//200 437//216 438//216
f 413//201 436//212 430//212
f 437//216 424//202 438//216
f 404//12 440//47 439//12
f 406//205 441//30 440//47
f 426//46 442//29 441//30
f 405//25 443//28 442//29
f 407//23 444//11 443//28
f 444//11 427//22 445//10
f 411//19 442//29 443//28
f 412//16 443//28 444//11
f 409//15 444//11 445//10
f 433//61 418//59 432//215
f 439//12 419//206 433//61
f 440//47 420//12 439//12
f 441//30 421//207 440//47
f 442//29 428//37 441//30
f 415//201 446//212 431//212
f 416//129 431//217 447//218
f 417//108 447//218 434//213
f 429//84 434//213 435//214
f 429//84 432//215 418//59
f 432//215 429//84 435//214
usemtl material_1_0
f 3//12 2//12 1//12
f 4//12 1//12 2//12
f 7//12 6//12 5//12
f 3//212 8//212 2//219
f 11//12 10//12 6//12
f 1//201 12//201 3//212
f 10//12 1//12 4//12
f 2//219 14//219 4//199
f 4//12 5//12 6//12
f 13//12 7//12 5//12
f 14//219 2//219 8//212
f 8//212 3//212 12//201
f 7//219 9//219 6//212
f 15//212 6//212 9//219
f 9//219 7//219 16//199
f 6//12 10//12 4//12
f 17//12 10//12 11//12
f 10//197 18//197 1//201
f 11//201 19//201 17//197
f 12//201 1//201 18//197
f 4//199 21//199 5//195
f 21//199 4//199 14//219
f 13//199 16//199 7//219
f 20//12 13//12 5//12
f 20//195 22//195 13//199
f 8//220 23//221 14//222
f 8//220 12//223 24//224
f 6//212 15//212 11//201
f 15//12 9//12 19//12
f 9//1 25//1 15//1
f 16//12 19//12 9//12
f 16//1 25//1 9//1
f 26//12 10//12 17//12
f 18//197 10//197 27//193
f 28//197 17//197 19//201
f 19//201 11//201 15//212
f 30//225 12//223 29//226
f 18//227 29//226 12//223
f 32//228 30//225 31//229
f 29//226 31//229 30//225
f 31//229 33//230 32//228
f 34//12 20//12 5//12
f 35//195 5//195 21//199
f 21//231 14//222 36//232
f 23//221 36//232 14//222
f 36//232 23//221 37//233
f 38//234 37//233 23//221
f 37//233 38//234 39//235
f 16//199 13//199 22//195
f 22//195 20//195 40//191
f 24//224 38//234 23//221
f 43//236 42//237 41//238
f 42//237 38//234 24//224
f 30//225 24//224 12//223
f 42//237 24//224 32//228
f 30//225 32//228 24//224
f 32//228 41//238 42//237
f 24//224 23//221 8//220
f 15//1 25//1 47//1
f 47//1 49//1 15//1
f 19//1 15//1 49//1
f 28//12 19//12 16//12
f 22//1 25//1 16//1
f 51//12 26//12 17//12
f 26//193 27//193 10//197
f 17//197 28//197 51//193
f 29//226 18//227 52//239
f 27//240 52//239 18//227
f 31//229 29//226 53//241
f 52//239 53//241 29//226
f 53//241 54//242 31//229
f 28//1 19//1 49//1
f 33//230 31//229 54//242
f 41//238 32//228 33//230
f 41//238 33//230 56//243
f 33//230 54//242 55//244
f 55//244 58//245 57//246
f 57//246 60//247 59//1
f 55//244 56//243 33//230
f 57//246 61//248 55//244
f 59//1 62//1 57//246
f 63//12 20//12 34//12
f 5//195 35//195 34//191
f 63//191 40//191 20//195
f 35//249 21//231 64//250
f 36//232 64//250 21//231
f 64//250 36//232 65//251
f 37//233 65//251 36//232
f 39//235 66//252 37//233
f 39//235 67//253 66//252
f 67//253 39//235 68//254
f 22//12 28//12 16//12
f 40//12 69//12 22//12
f 70//1 25//1 22//1
f 40//1 70//1 22//1
f 42//237 45//255 38//234
f 43//236 41//238 44//256
f 56//243 44//256 41//238
f 44//256 56//243 71//257
f 43//236 45//255 42//237
f 56//243 55//244 61//248
f 61//248 57//246 62//1
f 61//248 71//257 56//243
f 48//1 47//1 46//1
f 47//258 48//259 72//258
f 46//260 73//260 48//259
f 25//1 50//1 47//1
f 50//1 46//1 47//1
f 74//12 26//12 51//12
f 26//193 74//189 27//193
f 69//193 51//193 28//197
f 53//241 75//261 54//242
f 54//242 76//262 58//245
f 58//245 77//263 60//247
f 78//1 28//1 49//1
f 58//245 55//244 54//242
f 60//247 57//246 58//245
f 79//1 59//1 60//247
f 59//1 79//1 80//264
f 82//12 63//12 34//12
f 83//191 34//191 35//195
f 63//191 84//187 40//191
f 65//251 37//233 66//252
f 45//255 39//235 38//234
f 85//265 66//252 67//253
f 39//235 45//255 44//256
f 68//254 39//235 44//256
f 67//253 68//254 71//257
f 69//12 28//12 22//12
f 87//12 69//12 40//12
f 88//1 70//1 40//1
f 43//236 44//256 45//255
f 44//256 71//257 68//254
f 62//1 59//1 81//266
f 62//1 90//1 61//248
f 71//257 61//248 90//1
f 92//259 72//258 48//259
f 72//258 93//267 47//258
f 92//259 48//259 73//260
f 73//260 46//260 94//268
f 25//269 95//269 50//268
f 50//268 94//268 46//260
f 96//12 74//12 51//12
f 96//189 51//193 87//189
f 97//189 27//193 74//189
f 69//193 87//189 51//193
f 69//1 28//1 78//1
f 78//270 49//267 98//270
f 27//240 97//271 52//239
f 99//272 52//239 97//271
f 52//239 99//272 53//241
f 75//261 53//241 99//272
f 76//262 54//242 75//261
f 77//263 58//245 76//262
f 60//247 100//273 79//1
f 80//264 101//274 102//275
f 102//275 104//276 103//277
f 80//264 81//266 59//1
f 84//12 63//12 82//12
f 82//187 34//191 105//187
f 83//191 105//187 34//191
f 83//278 35//249 106//279
f 64//250 106//279 35//249
f 106//279 64//250 107//280
f 65//251 107//280 64//250
f 107//280 65//251 108//281
f 109//187 40//191 84//187
f 110//282 85//265 86//283
f 66//252 85//265 108//281
f 67//253 86//283 85//265
f 86//283 111//1 110//282
f 114//284 67//253 71//257
f 71//257 90//1 114//284
f 115//1 69//1 78//1
f 87//1 69//1 115//1
f 115//285 78//270 116//285
f 109//12 87//12 40//12
f 109//1 88//1 40//1
f 70//286 88//287 117//286
f 81//266 80//264 89//288
f 102//275 89//288 80//264
f 89//288 102//275 118//289
f 90//1 62//1 91//290
f 81//266 91//290 62//1
f 92//12 73//12 72//12
f 49//267 47//258 93//267
f 93//12 72//12 94//12
f 94//12 72//12 73//12
f 94//268 50//268 95//269
f 95//269 25//269 117//286
f 120//12 74//12 96//12
f 87//189 121//179 96//189
f 74//189 120//179 97//189
f 93//267 98//270 49//267
f 98//270 116//285 78//270
f 75//261 122//291 76//262
f 76//262 123//292 77//263
f 77//263 124//293 100//273
f 100//273 126//294 125//1
f 100//273 60//247 77//263
f 125//1 79//1 100//273
f 79//1 125//1 101//274
f 101//274 127//295 104//276
f 104//276 129//296 128//297
f 101//274 80//264 79//1
f 104//276 102//275 101//274
f 128//297 103//277 104//276
f 131//12 84//12 82//12
f 105//187 132//170 82//187
f 105//298 83//278 133//299
f 106//279 133//299 83//278
f 133//299 106//279 134//300
f 107//280 134//300 106//279
f 134//300 107//280 135//301
f 66//252 108//281 65//251
f 136//302 108//281 85//265
f 108//281 135//301 107//280
f 84//187 138//170 109//187
f 112//1 110//282 111//1
f 111//1 113//303 112//1
f 139//304 112//1 113//303
f 86//283 67//253 114//284
f 113//303 140//305 119//306
f 86//283 114//284 90//1
f 141//1 86//283 90//1
f 90//1 91//290 141//1
f 140//305 111//1 91//290
f 91//290 81//266 119//306
f 143//1 87//1 115//1
f 116//285 144//307 115//285
f 121//12 87//12 109//12
f 145//1 88//1 109//1
f 146//287 117//286 88//287
f 70//286 117//286 25//269
f 147//308 103//277 130//309
f 103//277 118//289 102//275
f 89//288 119//306 81//266
f 149//310 147//308 148//311
f 152//312 149//310 151//313
f 103//277 147//308 118//289
f 147//308 149//310 150//314
f 95//12 93//12 94//12
f 117//12 93//12 95//12
f 153//12 120//12 96//12
f 153//179 96//189 121//179
f 121//1 87//1 143//1
f 143//307 115//285 144//307
f 154//179 97//189 120//179
f 98//12 93//12 117//12
f 116//12 98//12 117//12
f 97//271 154//315 99//272
f 155//316 99//272 154//315
f 99//272 155//316 75//261
f 122//291 75//261 155//316
f 123//292 76//262 122//291
f 124//293 77//263 123//292
f 126//294 100//273 124//293
f 156//1 125//1 126//294
f 125//1 156//1 127//295
f 127//295 101//274 125//1
f 129//296 104//276 127//295
f 158//317 128//297 129//296
f 128//297 158//317 130//309
f 130//309 159//318 148//311
f 128//297 130//309 103//277
f 130//309 148//311 147//308
f 138//12 84//12 131//12
f 131//170 82//187 132//170
f 132//319 105//298 160//320
f 133//299 160//320 105//298
f 160//320 133//299 161//321
f 134//300 161//321 133//299
f 161//321 134//300 162//322
f 108//281 136//302 135//301
f 163//323 135//301 136//302
f 135//301 162//322 134//300
f 85//265 110//282 136//302
f 137//324 136//302 110//282
f 165//170 109//187 138//170
f 110//282 112//1 137//324
f 111//1 86//283 141//1
f 113//303 111//1 140//305
f 167//325 139//304 166//326
f 169//327 167//325 168//328
f 112//1 139//304 170//1
f 111//1 141//1 91//290
f 91//290 119//306 140//305
f 171//329 113//303 119//306
f 166//326 113//303 171//329
f 119//306 89//288 142//330
f 118//289 142//330 89//288
f 144//12 116//12 146//12
f 165//12 121//12 109//12
f 165//1 145//1 109//1
f 88//287 145//331 146//287
f 146//12 116//12 117//12
f 150//314 118//289 147//308
f 172//332 150//314 149//310
f 148//311 151//313 149//310
f 151//1 173//1 152//1
f 174//12 120//12 153//12
f 121//179 175//140 153//179
f 176//1 121//1 143//1
f 144//307 177//333 143//307
f 120//179 174//140 154//179
f 122//291 178//334 123//292
f 123//292 179//335 124//293
f 124//293 180//336 126//294
f 126//294 181//337 156//1
f 156//1 182//1 157//338
f 157//338 184//339 183//340
f 157//338 127//295 156//1
f 127//295 157//338 129//296
f 183//340 129//296 157//338
f 129//296 183//340 158//317
f 158//317 185//341 159//318
f 159//318 130//309 158//317
f 186//342 148//311 159//318
f 187//343 151//313 186//342
f 148//311 186//342 151//313
f 187//1 173//1 151//1
f 188//12 138//12 131//12
f 132//170 189//130 131//170
f 160//320 190//344 132//319
f 161//321 191//345 160//320
f 135//301 163//323 162//322
f 192//346 162//322 163//323
f 162//322 193//347 161//321
f 162//322 192//346 193//347
f 136//302 137//324 163//323
f 170//1 137//324 112//1
f 137//324 170//1 164//348
f 164//348 163//323 137//324
f 138//170 195//130 165//170
f 113//303 166//326 139//304
f 166//326 168//328 167//325
f 169//327 168//328 196//349
f 194//350 170//1 139//304
f 139//304 167//325 194//350
f 198//351 142//330 150//314
f 118//289 150//314 142//330
f 200//12 144//12 146//12
f 175//12 121//12 165//12
f 201//1 145//1 165//1
f 200//331 146//287 145//331
f 173//1 202//1 152//1
f 203//12 174//12 153//12
f 203//140 153//179 175//140
f 175//1 121//1 176//1
f 176//333 143//307 177//333
f 177//12 144//12 200//12
f 204//140 154//179 174//140
f 154//315 204//352 155//316
f 205//353 155//316 204//352
f 155//316 205//353 122//291
f 178//334 122//291 205//353
f 179//335 123//292 178//334
f 180//336 124//293 179//335
f 181//337 126//294 180//336
f 182//1 156//1 181//337
f 184//339 157//338 182//1
f 206//354 183//340 184//339
f 183//340 206//354 185//341
f 185//341 207//347 208//355
f 185//341 158//317 183//340
f 208//355 159//318 185//341
f 159//318 208//355 186//342
f 210//1 173//1 187//1
f 195//12 138//12 188//12
f 188//130 131//170 189//130
f 189//356 132//319 190//344
f 190//344 160//320 191//345
f 191//345 161//321 193//347
f 163//323 164//348 192//346
f 211//1 164//348 170//1
f 212//357 211//1 194//350
f 164//348 211//1 213//358
f 211//1 212//357 214//1
f 215//354 193//347 192//346
f 192//346 213//358 215//354
f 216//359 194//350 167//325
f 217//360 216//359 169//327
f 170//1 194//350 211//1
f 194//350 216//359 212//357
f 216//359 217//360 218//361
f 219//130 165//170 195//130
f 167//325 169//327 216//359
f 197//362 196//349 168//328
f 222//363 220//364 197//362
f 217//360 169//327 221//365
f 199//366 198//351 172//332
f 199//366 172//332 224//367
f 150//314 172//332 198//351
f 219//12 175//12 165//12
f 219//1 201//1 165//1
f 145//331 201//368 200//331
f 152//1 202//1 225//1
f 226//369 220//364 173//370
f 202//371 173//370 220//364
f 227//12 174//12 203//12
f 175//140 228//94 203//140
f 228//1 175//1 176//1
f 177//333 229//372 176//333
f 230//12 177//12 200//12
f 174//140 227//94 204//140
f 178//334 231//373 179//335
f 180//336 179//335 232//374
f 181//337 180//336 233//375
f 182//1 181//337 234//1
f 184//339 182//1 235//358
f 206//354 184//339 236//346
f 207//347 206//354 237//322
f 207//347 237//322 238//345
f 207//347 185//341 206//354
f 238//345 208//355 207//347
f 208//355 238//345 209//376
f 209//376 239//344 240//377
f 209//376 186//342 208//355
f 186//342 209//376 187//343
f 226//369 241//378 221//365
f 242//379 221//365 241//378
f 173//370 210//380 226//369
f 241//378 226//369 210//380
f 243//1 210//1 187//1
f 244//12 195//12 188//12
f 189//130 245//86 188//130
f 190//344 246//376 189//356
f 191//345 247//355 190//344
f 213//358 192//346 164//348
f 218//361 212//357 216//359
f 214//1 213//358 211//1
f 248//375 214//1 212//357
f 212//357 218//361 248//375
f 249//339 215//354 213//358
f 213//358 214//1 249//339
f 250//1 249//339 214//1
f 214//1 248//375 250//1
f 251//337 250//1 248//375
f 252//381 218//361 217//360
f 195//130 244//86 219//130
f 196//349 197//362 220//364
f 220//364 222//363 202//371
f 223//382 202//371 222//363
f 196//349 221//365 169//327
f 221//365 196//349 226//369
f 221//365 242//379 217//360
f 225//383 224//367 172//332
f 224//1 225//1 253//1
f 225//383 172//332 152//312
f 228//12 175//12 219//12
f 254//1 201//1 219//1
f 230//368 200//331 201//368
f 202//1 223//1 225//1
f 149//310 152//312 172//332
f 220//364 226//369 196//349
f 255//12 227//12 203//12
f 255//94 203//140 228//94
f 256//1 228//1 176//1
f 256//372 176//333 229//372
f 229//12 177//12 230//12
f 257//94 204//140 227//94
f 204//352 257//384 205//353
f 258//385 205//353 257//384
f 205//353 258//385 178//334
f 231//373 178//334 258//385
f 259//386 179//335 231//373
f 259//386 232//374 179//335
f 232//374 233//375 180//336
f 233//375 234//1 181//337
f 234//1 235//358 182//1
f 235//358 236//346 184//339
f 236//346 237//322 206//354
f 260//321 238//345 237//322
f 238//345 260//321 239//344
f 239//344 261//320 262//356
f 239//344 209//376 238//345
f 262//356 240//377 239//344
f 240//377 187//343 209//376
f 252//381 217//360 242//379
f 241//378 264//385 242//379
f 210//380 243//384 241//378
f 264//385 241//378 243//384
f 240//1 243//1 187//1
f 265//12 244//12 188//12
f 265//86 188//130 245//86
f 245//377 189//356 246//376
f 246//376 190//344 247//355
f 247//355 191//345 266//341
f 218//361 252//381 267//374
f 242//379 268//373 252//381
f 248//375 267//374 251//337
f 267//374 270//386 269//336
f 267//374 248//375 218//361
f 270//386 267//374 252//381
f 193//347 266//341 191//345
f 193//347 215//354 266//341
f 249//339 272//338 215//354
f 249//339 250//1 272//338
f 250//1 251//337 273//1
f 274//86 219//130 244//86
f 223//1 253//1 225//1
f 274//12 228//12 219//12
f 274//1 254//1 219//1
f 201//368 254//387 230//368
f 275//12 227//12 255//12
f 228//94 276//55 255//94
f 276//1 228//1 256//1
f 229//372 277//388 256//372
f 278//12 229//12 230//12
f 227//94 279//55 257//94
f 231//373 280//379 259//386
f 232//374 259//386 281//361
f 233//375 232//374 282//357
f 234//1 233//375 283//1
f 235//358 234//1 284//348
f 236//346 235//358 285//323
f 237//322 236//346 286//301
f 237//322 286//301 260//321
f 261//320 239//344 260//321
f 287//319 262//356 261//320
f 263//1 243//1 240//1
f 262//1 263//1 240//1
f 288//1 263//1 262//1
f 270//386 252//381 268//373
f 268//373 242//379 264//385
f 264//385 289//353 268//373
f 243//384 263//352 264//385
f 290//12 244//12 265//12
f 245//86 291//51 265//86
f 292//340 266//341 215//354
f 246//376 293//342 245//377
f 247//355 294//318 246//376
f 266//341 295//317 247//355
f 269//336 251//337 267//374
f 296//335 269//336 270//386
f 268//373 271//334 270//386
f 296//335 270//386 271//334
f 271//334 268//373 289//353
f 292//340 215//354 272//338
f 273//1 272//338 250//1
f 297//294 273//1 251//337
f 251//337 269//336 297//294
f 244//86 290//51 274//86
f 298//12 228//12 274//12
f 298//1 254//1 274//1
f 278//387 230//368 254//387
f 279//12 227//12 275//12
f 275//55 255//94 276//55
f 276//12 228//12 298//12
f 299//1 276//1 256//1
f 299//388 256//372 277//388
f 277//12 229//12 300//12
f 300//12 229//12 278//12
f 301//55 257//94 279//55
f 257//384 301//380 258//385
f 302//378 258//385 301//380
f 258//385 302//378 231//373
f 280//379 231//373 302//378
f 303//381 259//386 280//379
f 303//381 281//361 259//386
f 281//361 282//357 232//374
f 282//357 283//1 233//375
f 283//1 284//348 234//1
f 284//348 285//323 235//358
f 285//323 286//301 236//346
f 287//1 288//1 262//1
f 305//1 288//1 287//1
f 289//353 264//385 263//352
f 289//353 306//316 271//334
f 307//291 271//334 306//316
f 263//352 288//315 289//353
f 306//316 289//353 288//315
f 308//12 290//12 265//12
f 308//51 265//86 291//51
f 291//343 245//377 293//342
f 293//342 246//376 294//318
f 294//318 247//355 295//317
f 292//340 309//296 266//341
f 295//317 266//341 309//296
f 272//338 310//295 292//340
f 309//296 292//340 310//295
f 269//336 296//335 311//293
f 271//334 307//291 296//335
f 273//1 312//1 272//338
f 297//294 313//273 273//1
f 311//293 297//294 269//336
f 314//292 311//293 296//335
f 298//51 274//86 290//51
f 315//1 254//1 298//1
f 254//387 315//389 278//387
f 316//12 279//12 275//12
f 276//55 317//26 275//55
f 318//12 276//12 298//12
f 317//1 276//1 299//1
f 277//388 319//390 299//388
f 319//12 277//12 300//12
f 300//389 278//387 315//389
f 279//55 320//26 301//55
f 280//379 321//365 303//381
f 281//361 303//381 322//359
f 282//357 281//361 323//350
f 283//1 282//357 324//1
f 285//323 284//348 325//302
f 286//301 285//323 326//281
f 286//301 326//281 304//300
f 304//300 328//280 327//299
f 304//300 260//321 286//301
f 306//316 329//272 307//291
f 330//261 307//291 329//272
f 288//315 305//271 306//316
f 329//272 306//316 305//271
f 331//1 305//1 287//1
f 314//292 296//335 307//291
f 314//292 333//262 311//293
f 307//291 330//261 314//292
f 334//12 290//12 308//12
f 291//51 335//13 308//51
f 293//342 336//311 291//343
f 294//318 337//309 293//342
f 295//317 338//297 294//318
f 309//296 339//276 295//317
f 310//295 340//274 309//296
f 310//295 272//338 312//1
f 312//1 273//1 313//273
f 313//273 297//294 332//263
f 311//293 332//263 297//294
f 290//51 334//13 298//51
f 318//1 315//1 298//1
f 320//12 279//12 316//12
f 316//26 275//55 317//26
f 317//12 276//12 318//12
f 341//1 317//1 299//1
f 341//390 299//388 319//390
f 318//13 298//51 334//13
f 342//1 315//1 318//1
f 315//389 342//391 300//389
f 343//12 319//12 300//12
f 344//26 301//55 320//26
f 301//380 344//370 302//378
f 345//369 302//378 344//370
f 302//378 345//369 280//379
f 321//365 280//379 345//369
f 346//360 303//381 321//365
f 346//360 322//359 303//381
f 322//359 323//350 281//361
f 323//350 324//1 282//357
f 284//348 283//1 347//324
f 324//1 347//324 283//1
f 347//324 325//302 284//348
f 325//302 326//281 285//323
f 328//280 304//300 326//281
f 348//279 327//299 328//280
f 349//278 331//298 348//279
f 327//299 348//279 331//298
f 349//1 350//1 331//1
f 260//321 304//300 261//320
f 333//262 314//292 330//261
f 333//262 352//242 332//263
f 330//261 353//241 333//262
f 329//272 354//239 330//261
f 305//271 350//240 329//272
f 350//1 305//1 331//1
f 327//299 261//320 304//300
f 331//298 287//319 327//299
f 261//320 327//299 287//319
f 332//263 311//293 333//262
f 355//12 334//12 308//12
f 355//13 308//51 335//13
f 335//313 291//343 336//311
f 336//311 293//342 337//309
f 337//309 294//318 338//297
f 338//297 295//317 339//276
f 339//276 309//296 340//274
f 340//274 310//295 356//1
f 312//1 356//1 310//295
f 313//273 357//247 312//1
f 332//263 351//245 313//273
f 358//12 320//12 316//12
f 316//26 317//26 358//7
f 359//12 317//12 318//12
f 359//1 317//1 341//1
f 341//390 319//390 360//392
f 318//13 334//13 361//6
f 361//1 342//1 318//1
f 343//391 300//389 342//391
f 362//12 319//12 343//12
f 344//26 320//26 363//7
f 321//365 364//349 346//360
f 322//359 346//360 365//325
f 323//350 322//359 366//304
f 324//1 323//350 367//1
f 347//324 324//1 368//282
f 325//302 347//324 369//265
f 326//281 370//252 328//280
f 328//280 371//251 348//279
f 348//279 372//250 349//278
f 373//1 350//1 349//1
f 356//1 312//1 357//247
f 357//247 313//273 351//245
f 351//245 332//263 352//242
f 352//242 333//262 353//241
f 353//241 330//261 354//239
f 354//239 329//272 350//240
f 374//12 334//12 355//12
f 355//13 335//13 375//6
f 335//313 336//311 376//312
f 336//311 337//309 377//310
f 337//309 338//297 378//308
f 339//276 379//275 338//297
f 340//274 380//264 339//276
f 356//1 381//1 340//274
f 359//7 358//7 317//26
f 382//12 320//12 358//12
f 382//7 363//7 320//26
f 360//1 359//1 341//1
f 361//12 359//12 318//12
f 383//392 360//392 319//390
f 374//6 361//6 334//13
f 384//1 342//1 361//1
f 342//391 384//393 343//391
f 383//12 319//12 362//12
f 362//393 343//391 384//393
f 385//364 345//369 363//371
f 344//370 363//371 345//369
f 364//349 321//365 385//364
f 345//369 385//364 321//365
f 386//327 365//325 346//360
f 365//325 366//304 322//359
f 366//304 367//1 323//350
f 367//1 368//282 324//1
f 368//282 369//265 347//324
f 369//265 370//252 325//302
f 326//281 325//302 370//252
f 371//251 328//280 370//252
f 372//250 348//279 371//251
f 387//249 349//278 372//250
f 387//1 373//1 349//1
f 373//227 388//226 350//240
f 357//247 389//246 356//1
f 351//245 390//244 357//247
f 352//242 391//230 351//245
f 352//242 353//241 391//230
f 353//241 354//239 392//229
f 354//239 350//240 388//226
f 375//12 374//12 355//12
f 376//6 375//6 335//13
f 377//310 376//312 336//311
f 378//308 377//310 337//309
f 393//277 378//308 338//297
f 393//277 338//297 379//275
f 379//275 339//276 380//264
f 380//264 340//274 381//1
f 381//1 356//1 389//246
f 358//7 359//7 394//5
f 394//12 382//12 358//12
f 363//7 382//7 395//5
f 396//1 359//1 360//1
f 397//12 359//12 361//12
f 360//392 383//392 398//394
f 361//6 374//6 397//4
f 397//1 384//1 361//1
f 399//12 383//12 362//12
f 384//393 400//395 362//393
f 364//349 401//396 386//327
f 386//327 346//360 364//349
f 365//325 386//327 402//397
f 366//304 365//325 403//398
f 367//1 366//304 404//1
f 370//252 405//235 371//251
f 368//282 367//1 406//399
f 371//251 407//233 372//250
f 372//250 408//232 387//249
f 409//1 373//1 387//1
f 388//226 392//229 354//239
f 391//230 392//229 410//238
f 392//229 388//226 411//228
f 388//226 373//227 412//225
f 389//246 357//247 390//244
f 390//244 351//245 391//230
f 392//229 391//230 353//241
f 413//12 374//12 375//12
f 375//6 376//6 414//4
f 376//312 377//310 415//383
f 377//310 378//308 416//332
f 378//308 393//277 417//314
f 379//275 418//288 393//277
f 380//264 419//400 379//275
f 381//1 420//1 380//264
f 389//246 421//401 381//1
f 422//12 382//12 394//12
f 396//5 394//5 359//7
f 422//5 395//5 382//7
f 423//402 385//364 395//403
f 363//371 395//403 385//364
f 401//396 364//349 423//402
f 385//364 423//402 364//349
f 396//12 359//12 397//12
f 398//1 396//1 360//1
f 400//1 384//1 397//1
f 399//394 398//394 383//392
f 413//4 397//4 374//6
f 424//12 399//12 362//12
f 424//395 362//393 400//395
f 425//404 402//397 386//327
f 402//397 403//398 365//325
f 403//398 404//1 366//304
f 370//252 369//265 405//235
f 426//253 405//235 369//265
f 407//233 371//251 405//235
f 404//1 406//399 367//1
f 408//232 372//250 407//233
f 427//231 387//249 408//232
f 427//1 409//1 387//1
f 409//223 412//225 373//227
f 390//244 428//243 389//246
f 421//401 389//246 428//243
f 391//230 410//238 390//244
f 428//243 390//244 410//238
f 411//228 410//238 392//229
f 412//225 411//228 388//226
f 414//12 413//12 375//12
f 415//4 414//4 376//6
f 416//332 415//383 377//310
f 417//314 416//332 378//308
f 429//289 417//314 393//277
f 429//289 393//277 418//288
f 418//288 379//275 419//400
f 419//400 380//264 420//1
f 420//1 381//1 421//401
f 394//5 396//5 430//3
f 395//5 422//5 431//3
f 402//397 425//404 432//405
f 403//398 402//397 433//290
f 401//396 423//402 434//406
f 425//404 401//396 435//407
f 425//404 386//327 401//396
f 436//12 396//12 397//12
f 436//1 396//1 398//1
f 436//1 400//1 397//1
f 398//394 399//394 437//408
f 397//4 413//4 436//3
f 438//12 399//12 424//12
f 400//395 437//408 424//395
f 404//1 403//398 439//1
f 406//399 404//1 440//257
f 426//253 406//399 441//256
f 405//235 426//253 442//236
f 369//265 368//282 426//253
f 407//233 405//235 443//237
f 408//232 407//233 444//224
f 408//232 444//224 427//231
f 445//1 409//1 427//1
f 411//228 412//225 443//237
f 412//225 409//223 444//224
f 420//1 439//1 419//400
f 421//401 440//257 420//1
f 428//243 441//256 421//401
f 410//238 442//236 428//243
f 410//238 411//228 442//236
f 430//12 413//12 414//12
f 414//4 415//4 446//3
f 415//383 416//332 431//409
f 416//332 417//314 447//410
f 417//314 429//289 434//406
f 430//12 422//12 394//12
f 436//3 430//3 396//5
f 422//12 430//12 414//12
f 446//3 431//3 422//5
f 395//403 431//409 423//402
f 434//406 435//407 401//396
f 435//407 432//405 425//404
f 432//405 433//290 402//397
f 447//410 423//402 431//409
f 447//410 434//406 423//402
f 400//1 436//1 398//1
f 438//408 437//408 399//394
f 437//1 400//1 398//1
f 430//3 436//3 413//4
f 438//408 424//395 437//408
f 433//290 439//1 403//398
f 439//1 440//257 404//1
f 440//257 441//256 406//399
f 441//256 442//236 426//253
f 442//236 443//237 405//235
f 443//237 444//224 407//233
f 406//399 426//253 368//282
f 445//220 427//231 444//224
f 445//220 444//224 409//223
f 443//237 442//236 411//228
f 444//224 443//237 412//225
f 419//400 433//290 418//288
f 433//290 419//400 439//1
f 439//1 420//1 440//257
f 440//257 421//401 441//256
f 441//256 428//243 442//236
f 446//12 422//12 414//12
f 431//3 446//3 415//4
f 447//410 431//409 416//332
f 434//406 447//410 417//314
f 435//407 434//406 429//289
f 418//288 432//405 429//289
f 435//407 429//289 432//405
f 432//405 418//288 433//290
