# SSTK version 0.8.0
# 13
mtllib original-13.mtl
o mesh11/mesh11-geometry#mesh11-geometry
v -0.137712 0.721574 0.081235
v -0.118470 0.721574 0.366983
v -0.158743 0.721574 0.056336
v -0.113607 0.721574 0.102329
v -0.158743 0.726897 0.056336
v -0.137712 0.726897 0.081235
v 0.120464 0.721574 0.366983
v -0.118470 0.726897 0.366983
v -0.113607 0.726897 0.102329
v -0.086973 0.721574 0.119143
v 0.120464 0.721574 0.368072
v -0.118470 0.721574 0.368072
v -0.118470 0.713306 0.380846
v 0.120464 0.726897 0.366983
v -0.135191 0.726897 0.182810
v -0.134193 0.726897 0.131851
v -0.058402 0.721574 0.131305
v 0.120464 0.713306 0.380846
v -0.118470 0.726897 0.369645
v 0.160736 0.721574 0.051873
v 0.120464 0.726897 0.369645
v -0.003641 0.726897 0.366653
v -0.135024 0.726897 0.183902
v -0.135191 0.726897 0.134898
v -0.134760 0.726897 0.132756
v -0.135101 0.726897 0.133796
v -0.133434 0.726897 0.131143
v -0.132540 0.726897 0.130677
v -0.131569 0.726897 0.130491
v -0.130586 0.726897 0.130592
v -0.086973 0.726897 0.119143
v -0.028537 0.721574 0.138537
v -0.118470 0.703141 0.393913
v -0.118470 0.717650 0.383931
v 0.160736 0.726897 0.051873
v 0.140265 0.721574 0.077351
v -0.017067 0.726897 0.364173
v 0.009896 0.726897 0.365144
v -0.134611 0.726897 0.184908
v -0.133980 0.726897 0.185760
v -0.133176 0.726897 0.186398
v -0.112558 0.726897 0.198573
v -0.135101 0.726897 0.181708
v -0.135191 0.726897 0.158854
v -0.135024 0.726897 0.159946
v -0.134760 0.726897 0.180668
v -0.134611 0.726897 0.160952
v -0.134193 0.726897 0.179763
v -0.129660 0.726897 0.130975
v -0.109340 0.726897 0.142974
v -0.058402 0.726897 0.131305
v 0.001956 0.721574 0.140680
v 0.120464 0.717650 0.383931
v 0.120464 0.703141 0.393913
v 0.138660 0.726897 0.183902
v 0.116633 0.721574 0.099111
v -0.029463 0.726897 0.357875
v 0.022628 0.726897 0.359749
v -0.047920 0.726897 0.335764
v -0.133980 0.726897 0.161804
v -0.133434 0.726897 0.179055
v -0.133176 0.726897 0.162442
v -0.132540 0.726897 0.178589
v -0.112558 0.726897 0.174617
v -0.135101 0.726897 0.157752
v -0.135024 0.726897 0.135990
v -0.088158 0.726897 0.152924
v -0.066281 0.726897 0.160744
v -0.028537 0.726897 0.138537
v 0.032391 0.721574 0.137685
v -0.118470 0.691882 0.406053
v -0.118470 0.707200 0.397362
v 0.120464 0.707200 0.397362
v 0.140265 0.726897 0.077351
v 0.116194 0.726897 0.198573
v 0.136810 0.726897 0.186398
v 0.137616 0.726897 0.185760
v 0.138247 0.726897 0.184908
v 0.138827 0.726897 0.182810
v 0.138827 0.726897 0.158854
v 0.090380 0.721574 0.116665
v 0.116633 0.726897 0.099111
v -0.039988 0.726897 0.348183
v 0.033679 0.726897 0.350837
v -0.090764 0.726897 0.208810
v -0.134760 0.726897 0.156712
v -0.134611 0.726897 0.136996
v -0.134193 0.726897 0.155807
v -0.133980 0.726897 0.137848
v -0.133434 0.726897 0.155099
v -0.133176 0.726897 0.138487
v -0.132540 0.726897 0.154633
v -0.112558 0.726897 0.150661
v -0.131569 0.726897 0.178402
v -0.130586 0.726897 0.178504
v -0.129660 0.726897 0.178887
v -0.043877 0.726897 0.166371
v 0.001956 0.726897 0.140680
v 0.062088 0.721574 0.129620
v 0.120464 0.691882 0.406053
v 0.138827 0.726897 0.134898
v 0.094400 0.726897 0.208810
v 0.138737 0.726897 0.181708
v 0.138660 0.726897 0.159946
v 0.138396 0.726897 0.180668
v 0.137070 0.726897 0.179055
v 0.136173 0.726897 0.178589
v 0.136810 0.726897 0.162442
v 0.137616 0.726897 0.161804
v 0.137826 0.726897 0.179763
v 0.138247 0.726897 0.160952
v 0.090380 0.726897 0.116665
v 0.042303 0.726897 0.339014
v -0.052722 0.726897 0.321462
v -0.131569 0.726897 0.154446
v -0.130586 0.726897 0.154548
v -0.129660 0.726897 0.154931
v -0.109340 0.726897 0.190886
v -0.021118 0.726897 0.169765
v 0.032391 0.726897 0.137685
v 0.120464 0.679616 0.417171
v -0.118470 0.695629 0.409841
v 0.120464 0.695629 0.409841
v 0.133296 0.726897 0.130975
v 0.137826 0.726897 0.131851
v 0.138396 0.726897 0.132756
v 0.138737 0.726897 0.133796
v 0.071889 0.726897 0.216857
v 0.138247 0.726897 0.136996
v 0.137826 0.726897 0.155807
v 0.138396 0.726897 0.156712
v 0.138660 0.726897 0.135990
v 0.138737 0.726897 0.157752
v 0.137070 0.726897 0.155099
v 0.136173 0.726897 0.154633
v 0.136810 0.726897 0.138487
v 0.137616 0.726897 0.137848
v 0.135202 0.726897 0.178402
v 0.062088 0.726897 0.129620
v 0.091794 0.726897 0.152924
v 0.047909 0.726897 0.325085
v -0.068253 0.726897 0.216857
v -0.090764 0.726897 0.184855
v 0.001818 0.726897 0.170902
v 0.024752 0.726897 0.169765
v -0.118470 0.679616 0.417171
v 0.112973 0.726897 0.142974
v 0.134220 0.726897 0.130592
v 0.135202 0.726897 0.130491
v 0.136173 0.726897 0.130677
v 0.137070 0.726897 0.131143
v 0.050118 0.726897 0.310000
v 0.135202 0.726897 0.154446
v 0.134220 0.726897 0.154548
v 0.134220 0.726897 0.178504
v 0.133296 0.726897 0.178887
v 0.116194 0.726897 0.174617
v 0.069914 0.726897 0.160744
v -0.054063 0.726897 0.306247
v -0.109340 0.726897 0.166930
v -0.088158 0.726897 0.200836
v 0.047510 0.726897 0.166371
v 0.120464 0.666432 0.427187
v 0.120464 0.683021 0.421270
v -0.118470 0.683021 0.421270
v 0.048835 0.726897 0.222646
v 0.133296 0.726897 0.154931
v 0.116194 0.726897 0.150661
v 0.112973 0.726897 0.190886
v -0.045199 0.726897 0.222646
v -0.090764 0.726897 0.160899
v -0.068253 0.726897 0.192901
v -0.118470 0.666432 0.427187
v 0.048774 0.726897 0.294788
v 0.112973 0.726897 0.166930
v 0.094400 0.726897 0.184855
v -0.051857 0.726897 0.291163
v -0.088158 0.726897 0.176880
v -0.066281 0.726897 0.208656
v 0.120464 0.652434 0.436027
v 0.120464 0.669470 0.431566
v -0.118470 0.669470 0.431566
v 0.043972 0.726897 0.280484
v 0.094400 0.726897 0.160899
v 0.091794 0.726897 0.200836
v -0.046251 0.726897 0.277234
v -0.068253 0.726897 0.168945
v -0.045199 0.726897 0.198690
v -0.118470 0.652434 0.436027
v 0.036040 0.726897 0.268064
v 0.091794 0.726897 0.176880
v 0.071889 0.726897 0.192901
v -0.037627 0.726897 0.265410
v -0.066281 0.726897 0.184700
v -0.043877 0.726897 0.214283
v 0.120464 0.637723 0.443621
v 0.120464 0.655080 0.440651
v -0.118470 0.655080 0.440651
v 0.025518 0.726897 0.258375
v 0.071889 0.726897 0.168945
v 0.069914 0.726897 0.208656
v -0.021781 0.726897 0.226141
v -0.045199 0.726897 0.174734
v -0.021781 0.726897 0.202185
v -0.118470 0.637723 0.443621
v 0.025417 0.726897 0.226141
v 0.069914 0.726897 0.184700
v 0.048835 0.726897 0.198690
v -0.026572 0.726897 0.256499
v -0.043877 0.726897 0.190327
v -0.021118 0.726897 0.217677
v 0.120464 0.622407 0.449913
v 0.120464 0.639958 0.448458
v -0.118470 0.639958 0.448458
v 0.013120 0.726897 0.252075
v 0.048835 0.726897 0.174734
v 0.047510 0.726897 0.214283
v -0.013844 0.726897 0.251103
v -0.021781 0.726897 0.178229
v 0.001818 0.726897 0.203351
v -0.118470 0.622407 0.449913
v 0.001818 0.726897 0.227307
v 0.047510 0.726897 0.190327
v 0.025417 0.726897 0.202185
v -0.021118 0.726897 0.193721
v 0.001818 0.726897 0.218813
v 0.120464 0.606607 0.454856
v -0.118470 0.606607 0.454856
v 0.120464 0.624217 0.454926
v -0.000303 0.726897 0.249594
v 0.025417 0.726897 0.178229
v 0.024752 0.726897 0.217677
v 0.001818 0.726897 0.179395
v -0.118470 0.624217 0.454926
v 0.024752 0.726897 0.193721
v 0.001818 0.726897 0.194857
v 0.120464 0.602313 0.455801
v -0.118470 0.602313 0.455801
v 0.120464 0.607977 0.460007
v -0.118470 0.607977 0.460007
v 0.120464 0.603458 0.461000
v -0.118470 0.603458 0.461000
vn 0 -1 0
vn -0.9868697724160141 0 0.16151796275202385
vn 0.6840490299281718 0 -0.7294360319139213
vn 0.628085966041905 0 -0.7781439579288698
vn 0.5093007617690221 0 -0.8605885974503112
vn 0 -0.8394739342372934 -0.543399957431136
vn 0 -0.8151541405113919 -0.5792440998466313
vn -1 0 0
vn 0 0 1
vn 0 1 0
vn 0.3838841158145922 0 -0.923381278576325
vn 0.987232153629131 0 0.15928802478776724
vn 0.2542268959508 0 -0.967144604170039
vn 1 0 0
vn 0 -0.7619765486989492 -0.6476046164387943
vn 0.12211795016489592 0 -0.9925155949643937
vn 0 0.8151541405113919 0.5792440998466313
vn 0 0.8394739342372934 0.543399957431136
vn -0.6469610449476202 0 -0.762523052976291
vn -0.7020191076458632 0 -0.7121581092005524
vn -0.011068997086186524 0 -0.9999387367751618
vn 0 -0.703082897155502 -0.7111078959816335
vn 0 0.7619765486989492 0.6476046164387943
vn -0.5295578796738722 0 -0.8482738072552474
vn -0.1441620143325882 0 -0.9895540983814735
vn -0.4050579967504222 0 -0.9142909926651005
vn -0.27596702939352585 0 -0.9611671023748748
vn 0 -0.6389157579196569 -0.7692767085268801
vn 0 0.703082897155502 0.7111078959816335
vn 0 -0.5699561004373876 -0.821675144795196
vn 0 0.6389157579196569 0.7692767085268801
vn 0 -0.4967199348499691 -0.8679108861643818
vn 0 0.5699561004373876 0.821675144795196
vn 0 -0.4197588475064654 -0.9076356702664589
vn 0 0.4967199348499691 0.8679108861643818
vn 0 -0.33964908356981793 -0.9405522314205538
vn 0 0.4197588475064654 0.9076356702664589
vn 0 -0.256991883395099 -0.9664135615092744
vn 0 0.33964908356981793 0.9405522314205538
vn 0 -0.21490001219600569 -0.9766360554260511
vn 0 0.256991883395099 0.9664135615092744
vn 0 -0.9766360554260511 0.21490001219600569
vn 0 0.21490001219600569 0.9766360554260511
vn 0.9868697724160141 0 -0.16151796275202385
vn -0.628085966041905 0 0.7781439579288698
vn -0.6840490299281718 0 0.7294360319139213
vn -0.5093007617690221 0 0.8605885974503112
vn 0 0 -1
vn -0.3838841158145922 0 0.923381278576325
vn -0.987232153629131 0 -0.15928802478776724
vn -0.2542268959508 0 0.967144604170039
vn -0.12211795016489592 0 0.9925155949643937
vn 0.7020191076458632 0 0.7121581092005524
vn 0.6469610449476202 0 0.762523052976291
vn 0.011068997086186524 0 0.9999387367751618
vn 0.5295578796738722 0 0.8482738072552474
vn 0.1441620143325882 0 0.9895540983814735
vn 0.4050579967504222 0 0.9142909926651005
vn 0.27596702939352585 0 0.9611671023748748
vn 0 0.9766360554260511 -0.21490001219600569
usemtl material_0_0
f 1//1 2//1 3//1
f 2//1 1//1 4//1
f 2//2 5//2 3//2
f 3//3 6//4 1//4
f 6//4 4//5 1//4
f 2//1 4//1 7//1
f 5//2 2//2 8//2
f 6//4 3//3 5//3
f 4//5 6//4 9//5
f 7//1 4//1 10//1
f 2//1 11//1 12//1
f 11//1 2//1 7//1
f 11//6 13//7 12//6
f 12//8 8//8 2//8
f 2//9 14//9 8//9
f 15//10 5//10 8//10
f 5//10 15//10 6//10
f 6//10 16//10 9//10
f 9//5 10//11 4//5
f 7//1 10//1 17//1
f 13//7 11//6 18//7
f 13//8 19//8 12//8
f 14//9 2//9 7//9
f 20//12 14//12 7//12
f 12//8 19//8 8//8
f 8//10 21//10 14//10
f 22//10 8//10 14//10
f 15//10 8//10 23//10
f 24//10 6//10 15//10
f 16//10 6//10 25//10
f 25//10 6//10 26//10
f 9//10 16//10 27//10
f 9//10 27//10 28//10
f 9//10 28//10 29//10
f 9//10 29//10 30//10
f 10//11 9//5 31//11
f 31//11 17//13 10//11
f 7//1 17//1 32//1
f 21//14 18//14 11//14
f 18//7 33//15 13//7
f 13//8 34//8 19//8
f 14//14 11//14 7//14
f 21//14 11//14 14//14
f 14//12 20//12 35//12
f 7//1 36//1 20//1
f 21//10 8//10 19//10
f 37//10 8//10 22//10
f 22//10 14//10 38//10
f 23//10 8//10 39//10
f 39//10 8//10 40//10
f 40//10 8//10 41//10
f 41//10 8//10 42//10
f 43//10 44//10 15//10
f 45//10 43//10 46//10
f 47//10 46//10 48//10
f 26//10 6//10 24//10
f 24//10 15//10 44//10
f 9//10 30//10 49//10
f 9//10 49//10 50//10
f 9//10 50//10 31//10
f 17//13 31//11 51//13
f 51//13 32//16 17//13
f 7//1 32//1 52//1
f 53//14 18//14 21//14
f 33//15 18//7 54//15
f 33//8 34//8 13//8
f 53//17 19//18 34//17
f 36//19 35//20 20//20
f 55//10 14//10 35//10
f 7//1 56//1 36//1
f 19//18 53//17 21//18
f 57//10 8//10 37//10
f 38//10 14//10 58//10
f 42//10 8//10 59//10
f 44//10 43//10 45//10
f 45//10 46//10 47//10
f 47//10 48//10 60//10
f 60//10 48//10 61//10
f 60//10 61//10 62//10
f 62//10 61//10 63//10
f 62//10 63//10 64//10
f 65//10 24//10 44//10
f 24//10 65//10 66//10
f 31//10 50//10 67//10
f 31//10 68//10 51//10
f 32//16 51//13 69//16
f 69//16 52//21 32//16
f 7//1 52//1 70//1
f 53//14 54//14 18//14
f 54//15 71//22 33//15
f 33//8 72//8 34//8
f 34//17 73//23 53//17
f 35//20 36//19 74//19
f 75//10 14//10 76//10
f 76//10 14//10 77//10
f 77//10 14//10 78//10
f 78//10 14//10 55//10
f 55//10 35//10 79//10
f 79//10 35//10 80//10
f 7//1 81//1 56//1
f 82//24 36//19 56//24
f 83//10 8//10 57//10
f 58//10 14//10 84//10
f 59//10 8//10 83//10
f 42//10 59//10 85//10
f 64//10 63//10 94//10
f 64//10 94//10 95//10
f 64//10 95//10 96//10
f 66//10 65//10 86//10
f 66//10 86//10 87//10
f 87//10 88//10 89//10
f 31//10 67//10 68//10
f 51//10 68//10 97//10
f 51//10 97//10 69//10
f 52//21 69//16 98//21
f 98//21 70//25 52//21
f 7//1 70//1 99//1
f 73//14 54//14 53//14
f 71//22 54//15 100//22
f 71//8 72//8 33//8
f 73//23 34//17 72//23
f 36//19 82//24 74//19
f 101//10 35//10 74//10
f 102//10 14//10 75//10
f 80//10 103//10 79//10
f 80//10 35//10 101//10
f 104//10 105//10 103//10
f 104//10 103//10 80//10
f 7//1 99//1 81//1
f 112//26 56//24 81//26
f 56//24 112//26 82//24
f 84//10 14//10 113//10
f 85//10 59//10 114//10
f 87//10 86//10 88//10
f 89//10 88//10 90//10
f 89//10 90//10 91//10
f 91//10 90//10 92//10
f 91//10 92//10 93//10
f 93//10 115//10 116//10
f 93//10 116//10 117//10
f 64//10 96//10 118//10
f 69//10 97//10 119//10
f 69//10 119//10 98//10
f 70//25 98//21 120//25
f 120//25 99//27 70//25
f 73//14 100//14 54//14
f 121//28 71//22 100//22
f 71//8 122//8 72//8
f 72//23 123//29 73//23
f 82//10 124//10 74//10
f 74//10 125//10 126//10
f 74//10 126//10 127//10
f 74//10 127//10 101//10
f 128//10 14//10 102//10
f 129//10 130//10 131//10
f 129//10 131//10 132//10
f 132//10 131//10 133//10
f 101//10 133//10 80//10
f 132//10 133//10 101//10
f 108//10 138//10 107//10
f 108//10 107//10 106//10
f 108//10 106//10 109//10
f 109//10 106//10 110//10
f 109//10 110//10 111//10
f 111//10 105//10 104//10
f 111//10 110//10 105//10
f 139//27 81//26 99//27
f 81//26 139//27 112//26
f 112//10 140//10 82//10
f 113//10 14//10 141//10
f 85//10 114//10 142//10
f 93//10 92//10 115//10
f 64//10 118//10 143//10
f 98//10 119//10 144//10
f 98//10 145//10 120//10
f 99//27 120//25 139//27
f 123//14 100//14 73//14
f 71//22 121//28 146//28
f 123//14 121//14 100//14
f 146//8 122//8 71//8
f 123//29 72//23 122//29
f 82//10 147//10 124//10
f 74//10 124//10 148//10
f 74//10 148//10 149//10
f 74//10 149//10 150//10
f 74//10 150//10 151//10
f 74//10 151//10 125//10
f 152//10 14//10 128//10
f 136//10 153//10 135//10
f 136//10 135//10 134//10
f 136//10 134//10 137//10
f 137//10 134//10 130//10
f 137//10 130//10 129//10
f 108//10 155//10 138//10
f 139//10 158//10 112//10
f 112//10 158//10 140//10
f 82//10 140//10 147//10
f 141//10 14//10 152//10
f 142//10 114//10 159//10
f 93//10 117//10 160//10
f 143//10 118//10 161//10
f 98//10 144//10 145//10
f 120//10 145//10 162//10
f 120//10 162//10 139//10
f 163//30 146//28 121//28
f 164//14 121//14 123//14
f 146//8 165//8 122//8
f 122//29 164//31 123//29
f 166//10 152//10 128//10
f 136//10 154//10 153//10
f 136//10 167//10 154//10
f 108//10 156//10 155//10
f 157//10 169//10 156//10
f 157//10 156//10 108//10
f 139//10 162//10 158//10
f 159//10 170//10 142//10
f 93//10 160//10 171//10
f 143//10 161//10 172//10
f 146//28 163//30 173//30
f 164//14 163//14 121//14
f 173//8 165//8 146//8
f 164//31 122//29 165//31
f 166//10 174//10 152//10
f 168//10 175//10 167//10
f 168//10 167//10 136//10
f 176//10 169//10 157//10
f 170//10 159//10 177//10
f 171//10 160//10 178//10
f 172//10 161//10 179//10
f 180//32 173//30 163//30
f 181//14 163//14 164//14
f 173//8 182//8 165//8
f 165//31 181//33 164//31
f 166//10 183//10 174//10
f 184//10 175//10 168//10
f 176//10 185//10 169//10
f 170//10 177//10 186//10
f 171//10 178//10 187//10
f 172//10 179//10 188//10
f 173//30 180//32 189//32
f 181//14 180//14 163//14
f 189//8 182//8 173//8
f 181//33 165//31 182//33
f 166//10 190//10 183//10
f 184//10 191//10 175//10
f 192//10 185//10 176//10
f 170//10 186//10 193//10
f 187//10 178//10 194//10
f 188//10 179//10 195//10
f 196//34 189//32 180//32
f 197//14 180//14 181//14
f 189//8 198//8 182//8
f 182//33 197//35 181//33
f 166//10 199//10 190//10
f 200//10 191//10 184//10
f 192//10 201//10 185//10
f 170//10 193//10 202//10
f 187//10 194//10 203//10
f 188//10 195//10 204//10
f 189//32 196//34 205//34
f 197//14 196//14 180//14
f 205//8 198//8 189//8
f 197//35 182//33 198//35
f 206//10 199//10 166//10
f 200//10 207//10 191//10
f 208//10 201//10 192//10
f 202//10 193//10 209//10
f 203//10 194//10 210//10
f 204//10 195//10 211//10
f 212//36 205//34 196//34
f 213//14 196//14 197//14
f 205//8 214//8 198//8
f 198//35 213//37 197//35
f 206//10 215//10 199//10
f 216//10 207//10 200//10
f 208//10 217//10 201//10
f 202//10 209//10 218//10
f 203//10 210//10 219//10
f 204//10 211//10 220//10
f 205//34 212//36 221//36
f 213//14 212//14 196//14
f 221//8 214//8 205//8
f 213//37 198//35 214//37
f 222//10 215//10 206//10
f 216//10 223//10 207//10
f 224//10 217//10 208//10
f 202//10 218//10 222//10
f 219//10 210//10 225//10
f 220//10 211//10 226//10
f 227//38 221//36 212//36
f 213//14 227//14 212//14
f 228//8 214//8 221//8
f 214//37 229//39 213//37
f 222//10 230//10 215//10
f 231//10 223//10 216//10
f 224//10 232//10 217//10
f 222//10 218//10 230//10
f 219//10 225//10 233//10
f 220//10 226//10 232//10
f 221//36 227//38 228//38
f 229//14 227//14 213//14
f 228//8 234//8 214//8
f 229//39 214//37 234//39
f 231//10 235//10 223//10
f 220//10 232//10 224//10
f 233//10 225//10 236//10
f 237//40 228//38 227//38
f 229//14 237//14 227//14
f 238//8 234//8 228//8
f 234//39 239//41 229//39
f 233//10 235//10 231//10
f 233//10 236//10 235//10
f 228//38 237//40 238//40
f 239//14 237//14 229//14
f 238//8 240//8 234//8
f 239//41 234//39 240//41
f 241//42 238//42 237//42
f 237//14 239//14 241//14
f 240//8 238//8 242//8
f 240//41 241//43 239//41
f 238//42 241//42 242//42
f 241//43 240//41 242//43
usemtl material_1_0
f 3//10 2//10 1//10
f 4//10 1//10 2//10
f 3//44 5//44 2//44
f 1//45 6//45 3//46
f 1//45 4//47 6//45
f 7//10 4//10 2//10
f 8//44 2//44 5//44
f 5//46 3//46 6//45
f 9//47 6//45 4//47
f 10//10 4//10 7//10
f 12//10 11//10 2//10
f 7//10 2//10 11//10
f 7//48 2//48 14//48
f 8//1 5//1 15//1
f 6//1 15//1 5//1
f 9//1 16//1 6//1
f 4//47 10//49 9//47
f 17//10 10//10 7//10
f 12//18 13//17 11//18
f 18//17 11//18 13//17
f 12//14 19//14 13//14
f 8//48 14//48 2//48
f 7//8 11//8 14//8
f 7//50 14//50 20//50
f 8//14 19//14 12//14
f 2//14 8//14 12//14
f 14//1 21//1 8//1
f 14//1 8//1 22//1
f 23//1 8//1 15//1
f 25//1 6//1 16//1
f 26//1 6//1 25//1
f 27//1 16//1 9//1
f 28//1 27//1 9//1
f 29//1 28//1 9//1
f 31//49 9//47 10//49
f 10//49 17//51 31//49
f 32//10 17//10 7//10
f 11//8 18//8 21//8
f 13//17 33//23 18//17
f 19//14 34//14 13//14
f 14//8 11//8 21//8
f 35//50 20//50 14//50
f 20//10 36//10 7//10
f 19//1 8//1 21//1
f 22//1 8//1 37//1
f 38//1 14//1 22//1
f 39//1 8//1 23//1
f 40//1 8//1 39//1
f 41//1 8//1 40//1
f 42//1 8//1 41//1
f 15//1 44//1 43//1
f 46//1 43//1 45//1
f 30//1 29//1 9//1
f 49//1 30//1 9//1
f 50//1 49//1 9//1
f 31//1 50//1 9//1
f 51//51 31//49 17//51
f 17//51 32//52 51//51
f 52//10 32//10 7//10
f 21//8 18//8 53//8
f 54//23 18//17 33//23
f 13//14 34//14 33//14
f 34//7 19//6 53//7
f 20//53 35//53 36//54
f 35//1 14//1 55//1
f 36//10 56//10 7//10
f 21//6 53//7 19//6
f 37//1 8//1 57//1
f 58//1 14//1 38//1
f 59//1 8//1 42//1
f 44//1 15//1 24//1
f 45//1 43//1 44//1
f 47//1 46//1 45//1
f 48//1 46//1 47//1
f 60//1 48//1 47//1
f 61//1 48//1 60//1
f 62//1 61//1 60//1
f 63//1 61//1 62//1
f 64//1 63//1 62//1
f 67//1 50//1 31//1
f 51//1 68//1 31//1
f 69//52 51//51 32//52
f 32//52 52//55 69//52
f 70//10 52//10 7//10
f 18//8 54//8 53//8
f 33//23 71//29 54//23
f 34//14 72//14 33//14
f 53//7 73//15 34//7
f 74//54 36//54 35//53
f 76//1 14//1 75//1
f 79//1 35//1 55//1
f 80//1 35//1 79//1
f 77//1 14//1 76//1
f 78//1 14//1 77//1
f 55//1 14//1 78//1
f 56//10 81//10 7//10
f 56//56 36//54 82//56
f 57//1 8//1 83//1
f 84//1 14//1 58//1
f 83//1 8//1 59//1
f 85//1 59//1 42//1
f 44//1 24//1 65//1
f 15//1 6//1 24//1
f 66//1 65//1 24//1
f 86//1 65//1 66//1
f 87//1 86//1 66//1
f 88//1 86//1 87//1
f 89//1 88//1 87//1
f 90//1 88//1 89//1
f 91//1 90//1 89//1
f 92//1 90//1 91//1
f 93//1 92//1 91//1
f 94//1 63//1 64//1
f 95//1 94//1 64//1
f 96//1 95//1 64//1
f 24//1 6//1 26//1
f 68//1 67//1 31//1
f 97//1 68//1 51//1
f 69//1 97//1 51//1
f 98//55 69//52 52//55
f 52//55 70//57 98//55
f 99//10 70//10 7//10
f 53//8 54//8 73//8
f 100//29 54//23 71//29
f 33//14 72//14 71//14
f 72//15 34//7 73//15
f 74//54 82//56 36//54
f 74//1 35//1 101//1
f 75//1 14//1 102//1
f 79//1 103//1 80//1
f 101//1 35//1 80//1
f 80//1 103//1 104//1
f 106//1 107//1 108//1
f 109//1 106//1 108//1
f 110//1 106//1 109//1
f 105//1 110//1 111//1
f 104//1 105//1 111//1
f 103//1 105//1 104//1
f 81//10 99//10 7//10
f 81//58 56//56 112//58
f 82//56 112//58 56//56
f 113//1 14//1 84//1
f 114//1 59//1 85//1
f 115//1 92//1 93//1
f 118//1 96//1 64//1
f 119//1 97//1 69//1
f 98//1 119//1 69//1
f 120//57 98//55 70//57
f 70//57 99//59 120//57
f 54//8 100//8 73//8
f 100//29 71//29 121//31
f 72//14 122//14 71//14
f 73//15 123//22 72//15
f 74//1 124//1 82//1
f 126//1 125//1 74//1
f 127//1 126//1 74//1
f 101//1 127//1 74//1
f 102//1 14//1 128//1
f 101//1 133//1 132//1
f 80//1 133//1 101//1
f 134//1 135//1 136//1
f 137//1 134//1 136//1
f 130//1 134//1 137//1
f 129//1 130//1 137//1
f 131//1 130//1 129//1
f 132//1 131//1 129//1
f 133//1 131//1 132//1
f 107//1 138//1 108//1
f 111//1 110//1 109//1
f 99//59 81//58 139//59
f 112//58 139//59 81//58
f 82//1 140//1 112//1
f 141//1 14//1 113//1
f 142//1 114//1 85//1
f 117//1 116//1 93//1
f 116//1 115//1 93//1
f 143//1 118//1 64//1
f 144//1 119//1 98//1
f 120//1 145//1 98//1
f 139//59 120//57 99//59
f 73//8 100//8 123//8
f 146//31 121//31 71//29
f 100//8 121//8 123//8
f 71//14 122//14 146//14
f 122//22 72//15 123//22
f 124//1 147//1 82//1
f 148//1 124//1 74//1
f 149//1 148//1 74//1
f 150//1 149//1 74//1
f 151//1 150//1 74//1
f 125//1 151//1 74//1
f 128//1 14//1 152//1
f 135//1 153//1 136//1
f 153//1 154//1 136//1
f 108//1 156//1 157//1
f 155//1 156//1 108//1
f 138//1 155//1 108//1
f 112//1 158//1 139//1
f 140//1 158//1 112//1
f 147//1 140//1 82//1
f 152//1 14//1 141//1
f 159//1 114//1 142//1
f 160//1 117//1 93//1
f 161//1 118//1 143//1
f 145//1 144//1 98//1
f 162//1 145//1 120//1
f 139//1 162//1 120//1
f 121//31 146//31 163//33
f 123//8 121//8 164//8
f 122//14 165//14 146//14
f 123//22 164//28 122//22
f 128//1 152//1 166//1
f 136//1 167//1 168//1
f 154//1 167//1 136//1
f 156//1 169//1 157//1
f 158//1 162//1 139//1
f 142//1 170//1 159//1
f 171//1 160//1 93//1
f 172//1 161//1 143//1
f 173//33 163//33 146//31
f 121//8 163//8 164//8
f 146//14 165//14 173//14
f 165//28 122//22 164//28
f 152//1 174//1 166//1
f 167//1 175//1 168//1
f 157//1 169//1 176//1
f 177//1 159//1 170//1
f 178//1 160//1 171//1
f 179//1 161//1 172//1
f 163//33 173//33 180//35
f 164//8 163//8 181//8
f 165//14 182//14 173//14
f 164//28 181//30 165//28
f 174//1 183//1 166//1
f 168//1 175//1 184//1
f 169//1 185//1 176//1
f 186//1 177//1 170//1
f 187//1 178//1 171//1
f 188//1 179//1 172//1
f 189//35 180//35 173//33
f 163//8 180//8 181//8
f 173//14 182//14 189//14
f 182//30 165//28 181//30
f 183//1 190//1 166//1
f 175//1 191//1 184//1
f 176//1 185//1 192//1
f 193//1 186//1 170//1
f 194//1 178//1 187//1
f 195//1 179//1 188//1
f 180//35 189//35 196//37
f 181//8 180//8 197//8
f 182//14 198//14 189//14
f 181//30 197//32 182//30
f 190//1 199//1 166//1
f 184//1 191//1 200//1
f 185//1 201//1 192//1
f 202//1 193//1 170//1
f 203//1 194//1 187//1
f 204//1 195//1 188//1
f 205//37 196//37 189//35
f 180//8 196//8 197//8
f 189//14 198//14 205//14
f 198//32 182//30 197//32
f 166//1 199//1 206//1
f 191//1 207//1 200//1
f 192//1 201//1 208//1
f 209//1 193//1 202//1
f 210//1 194//1 203//1
f 211//1 195//1 204//1
f 196//37 205//37 212//39
f 197//8 196//8 213//8
f 198//14 214//14 205//14
f 197//32 213//34 198//32
f 199//1 215//1 206//1
f 200//1 207//1 216//1
f 201//1 217//1 208//1
f 218//1 209//1 202//1
f 219//1 210//1 203//1
f 220//1 211//1 204//1
f 221//39 212//39 205//37
f 196//8 212//8 213//8
f 205//14 214//14 221//14
f 214//34 198//32 213//34
f 206//1 215//1 222//1
f 207//1 223//1 216//1
f 208//1 217//1 224//1
f 222//1 218//1 202//1
f 225//1 210//1 219//1
f 226//1 211//1 220//1
f 212//39 221//39 227//41
f 212//8 227//8 213//8
f 221//14 214//14 228//14
f 213//34 229//36 214//34
f 215//1 230//1 222//1
f 216//1 223//1 231//1
f 217//1 232//1 224//1
f 230//1 218//1 222//1
f 233//1 225//1 219//1
f 232//1 226//1 220//1
f 228//41 227//41 221//39
f 213//8 227//8 229//8
f 214//14 234//14 228//14
f 234//36 214//34 229//36
f 223//1 235//1 231//1
f 224//1 232//1 220//1
f 236//1 225//1 233//1
f 227//41 228//41 237//43
f 227//8 237//8 229//8
f 228//14 234//14 238//14
f 229//36 239//38 234//36
f 231//1 235//1 233//1
f 235//1 236//1 233//1
f 238//43 237//43 228//41
f 229//8 237//8 239//8
f 234//14 240//14 238//14
f 240//38 234//36 239//38
f 237//60 238//60 241//60
f 241//8 239//8 237//8
f 242//14 238//14 240//14
f 239//38 241//40 240//38
f 242//60 241//60 238//60
f 242//40 240//38 241//40
