# SSTK version 0.8.0
# 3
mtllib original-3.mtl
o mesh5/mesh5-geometry#mesh5-geometry
v 0.003048 0.424910 -0.020664
v -0.004328 0.424910 -0.020222
v -0.000671 0.424910 -0.020923
v 0.006583 0.424910 -0.019445
v -0.007696 0.424910 -0.018592
v 0.009677 0.424910 -0.017357
v -0.010515 0.424910 -0.016138
v 0.012115 0.424910 -0.014538
v -0.012603 0.424910 -0.013060
v 0.013746 0.424910 -0.011170
v -0.013822 0.424910 -0.009524
v 0.014447 0.424910 -0.007513
v -0.014081 0.424910 -0.005806
v 0.014188 0.424910 -0.003795
v -0.013380 0.424910 -0.002133
v 0.012968 0.424910 -0.000259
v 0.009677 -0.641212 -0.017357
v 0.012115 -0.641212 -0.014538
v 0.013746 -0.641212 -0.011170
v 0.014447 -0.641212 -0.007513
v 0.014188 -0.641212 -0.003795
v -0.011749 0.424910 0.001219
v 0.003048 -0.641212 -0.020664
v -0.013380 -0.641212 -0.002133
v -0.010515 0.302952 -0.016138
v 0.006583 -0.641212 -0.019445
v 0.012968 -0.641212 -0.000259
v 0.010881 0.302952 0.002834
v 0.010881 0.424910 0.002834
v 0.008061 -0.641212 0.005273
v 0.008061 0.424910 0.005273
v 0.010881 -0.641212 0.002834
v 0.004709 -0.641212 0.006903
v 0.004709 0.424910 0.006903
v 0.001036 -0.641212 0.007604
v -0.009296 0.424910 0.004038
v -0.006218 0.424910 0.006126
v 0.001036 0.424910 0.007604
v -0.002682 0.424910 0.007345
v -0.002682 -0.641212 0.007345
v -0.006218 -0.641212 0.006126
v -0.009296 -0.641212 0.004038
v -0.011749 -0.641212 0.001219
v -0.014081 -0.641212 -0.005806
v -0.012603 -0.641212 -0.013060
v -0.007696 -0.641212 -0.018592
v -0.000671 -0.641212 -0.020923
v 0.024459 -0.957818 -0.008107
v 0.024017 -0.957818 -0.001783
v 0.013578 -0.957818 0.013639
v 0.021929 -0.957818 0.004221
v 0.001646 -0.957818 0.017616
v 0.007879 -0.957818 0.016412
v -0.004694 -0.957818 0.017174
v -0.010698 -0.957818 0.015087
v -0.015955 -0.957818 0.011536
v -0.013822 -0.641212 -0.009524
v -0.022889 -0.957818 0.001036
v -0.020116 -0.957818 0.006736
v -0.010515 -0.641212 -0.016138
v -0.004328 -0.641212 -0.020222
v 0.005059 -0.957818 -0.030478
v 0.020481 -0.957818 -0.020055
v 0.023255 -0.957818 -0.014340
v 0.018378 -0.957818 0.009479
v -0.007498 -0.957818 -0.029731
v -0.001265 -0.957818 -0.030935
v -0.024093 -0.957818 -0.005197
v 0.011064 -0.957818 -0.028406
v 0.003246 -1.000030 -0.006035
v 0.015010 -0.957818 -0.007543
v 0.014736 -0.957818 -0.003673
v 0.002987 -1.000030 -0.005257
v 0.013456 -0.957818 -0.000015
v 0.055074 -0.762774 -0.009951
v 0.016321 -0.957818 -0.024855
v 0.024779 -0.762774 -0.055836
v 0.011216 -0.762774 -0.060529
v 0.014264 -0.957818 -0.011353
v 0.003307 -1.000030 -0.006842
v 0.052346 -0.762774 -0.024047
v 0.046068 -0.762774 -0.036955
v 0.036665 -0.762774 -0.047790
v 0.030478 -0.762774 0.039225
v 0.054053 -0.762774 0.004374
v 0.049359 -0.762774 0.017936
v -0.024413 -0.762774 0.042517
v -0.010850 -0.762774 0.047210
v 0.003474 -0.762774 0.048232
v 0.002530 -1.000030 -0.004587
v 0.011292 -0.957818 0.003200
v 0.008366 -0.957818 0.005730
v 0.017571 -0.762774 0.045504
v -0.023636 -0.957818 -0.011536
v -0.051980 -0.762774 0.010728
v -0.013212 -0.957818 -0.026958
v -0.018013 -0.957818 -0.022798
v -0.021563 -0.957818 -0.017540
v -0.003109 -0.762774 -0.061550
v -0.017205 -0.762774 -0.058823
v 0.002789 -1.000030 -0.008381
v 0.010043 -0.957818 -0.017769
v 0.012572 -0.957818 -0.014843
v 0.002255 -1.000030 -0.009006
v 0.003154 -1.000030 -0.007650
v -0.030112 -0.762774 -0.052544
v 0.001585 -1.000030 -0.009463
v 0.003170 -0.957818 -0.021197
v 0.006827 -0.957818 -0.019933
v 0.000808 -1.000030 -0.009722
v 0.041313 -0.762774 0.029823
v -0.036299 -0.762774 0.034486
v 0.001905 -1.000030 -0.004038
v 0.004876 -0.957818 0.007421
v 0.001173 -1.000030 -0.003688
v -0.054708 -0.762774 -0.003368
v -0.053687 -0.762774 -0.017693
v -0.045702 -0.762774 0.023636
v -0.048993 -0.762774 -0.031255
v -0.040947 -0.762774 -0.043142
v 0.000396 -1.003932 -0.007086
v 0.000671 -1.003932 -0.006690
v 0.000457 -1.003932 -0.006248
v 0.000000 -1.000030 -0.009783
v 0.082443 -0.659194 -0.011582
v 0.080919 -0.659194 0.009875
v 0.037046 -0.659194 -0.080371
v 0.054876 -0.659194 -0.068317
v -0.004739 -0.659194 -0.088920
v 0.016717 -0.659194 -0.087396
v -0.025861 -0.659194 -0.084851
v -0.000701 -0.957818 -0.021472
v 0.078374 -0.659194 -0.032703
v 0.068957 -0.659194 -0.052057
v 0.026242 -0.659194 0.071532
v 0.005105 -0.659194 0.075601
v 0.001067 -0.957818 0.008168
v 0.045580 -0.659194 0.062130
v 0.073894 -0.659194 0.030204
v -0.016351 -0.659194 0.074077
v -0.036680 -0.659194 0.067052
v 0.000366 -1.000030 -0.003535
v -0.000442 -1.000030 -0.003596
v -0.002789 -0.957818 0.007894
v -0.001219 -1.000030 -0.003855
v -0.006461 -0.957818 0.006614
v -0.001890 -1.000030 -0.004313
v -0.009662 -0.957818 0.004450
v -0.002423 -1.000030 -0.004937
v -0.012206 -0.957818 0.001524
v -0.002789 -1.000030 -0.005669
v -0.078009 -0.659194 0.019399
v -0.082077 -0.659194 -0.001737
v -0.068591 -0.659194 0.038738
v -0.045214 -0.659194 -0.075433
v -0.073528 -0.659194 -0.043523
v -0.002941 -1.000030 -0.006477
v -0.013898 -0.957818 -0.001966
v -0.014629 -0.957818 -0.005776
v -0.002880 -1.000030 -0.007284
v -0.014355 -0.957818 -0.009631
v -0.002621 -1.000030 -0.008061
v -0.013090 -0.957818 -0.013304
v -0.002164 -1.000030 -0.008732
v -0.008000 -0.957818 -0.019049
v -0.001539 -1.000030 -0.009265
v -0.004511 -0.957818 -0.020740
v -0.000808 -1.000030 -0.009631
v -0.000030 -1.003932 -0.006218
v -0.000305 -1.003932 -0.006629
v -0.000076 -1.003932 -0.007071
v -0.010926 -0.957818 -0.016504
v 0.061840 -0.659194 0.048033
v -0.054495 -0.659194 0.054998
v -0.080553 -0.659194 -0.023194
v -0.061474 -0.659194 -0.061337
v 0.083708 -0.233172 -0.011658
v 0.082169 -0.233172 0.010134
v 0.037610 -0.233172 -0.081498
v 0.055714 -0.233172 -0.069261
v 0.016976 -0.233172 -0.088630
v -0.004816 -0.233172 -0.090185
v -0.026272 -0.233172 -0.086040
v 0.079578 -0.233172 -0.033114
v 0.070023 -0.233172 -0.052758
v 0.026638 -0.233172 0.072736
v 0.005181 -0.233172 0.076866
v 0.046281 -0.233172 0.063181
v 0.075022 -0.233172 0.030768
v -0.016595 -0.233172 0.075326
v -0.037244 -0.233172 0.068179
v -0.079197 -0.233172 0.019795
v -0.069658 -0.233172 0.039439
v -0.083342 -0.233172 -0.001661
v -0.055348 -0.233172 0.055942
v -0.045915 -0.233172 -0.076500
v -0.074656 -0.233172 -0.044086
v 0.062785 -0.233172 0.048872
v -0.081788 -0.233172 -0.023438
v -0.062419 -0.233172 -0.062190
v 0.081194 0.565749 -0.011505
v 0.077170 0.565749 -0.032307
v 0.079685 0.565749 0.009616
v 0.054038 0.565749 -0.067372
v 0.036482 0.565749 -0.079228
v -0.025464 0.565749 -0.083647
v -0.004663 0.565749 -0.087655
v -0.044513 0.565749 -0.074382
v 0.067905 0.565749 -0.051356
v 0.025830 0.565749 0.070328
v -0.016092 0.565749 0.072843
v 0.060895 0.565749 0.047195
v 0.072766 0.565749 0.029640
v -0.036116 0.565749 0.065924
v -0.053657 0.565749 0.054053
v -0.076805 0.565749 0.018988
v -0.067539 0.565749 0.038052
v -0.080813 0.565749 -0.001813
v -0.060529 0.565749 -0.060499
v -0.072385 0.565749 -0.042959
v -0.079319 0.565749 -0.022935
v 0.016458 0.565749 -0.086161
v 0.005029 0.565749 0.074351
v 0.044894 0.565749 0.061063
v 0.001524 0.565749 0.074351
v 0.064629 0.750613 -0.010515
v 0.061429 0.750613 -0.027065
v 0.054068 0.750613 -0.042227
v 0.063425 0.750613 0.006294
v 0.043020 0.750613 -0.054952
v 0.029061 0.750613 -0.064400
v -0.020222 0.750613 -0.067905
v -0.035385 0.750613 -0.060545
v -0.003673 0.750613 -0.071105
v -0.048110 0.750613 -0.049496
v 0.020588 0.750613 0.054586
v 0.035751 0.750613 0.047226
v -0.012770 0.750613 0.056582
v -0.028695 0.750613 0.051081
v 0.048475 0.750613 0.036177
v 0.057924 0.750613 0.022218
v -0.042654 0.750613 0.041633
v -0.061063 0.750613 0.013746
v -0.053702 0.750613 0.028908
v -0.064263 0.750613 -0.002804
v -0.057558 0.750613 -0.035537
v -0.063059 0.750613 -0.019613
v 0.013136 0.750613 -0.069901
v 0.004282 0.704896 0.061809
v 0.007376 0.704896 0.061733
v 0.007376 0.565749 0.074351
v 0.007376 0.565749 0.094665
v 0.004038 0.750613 0.057786
v 0.055577 0.750613 -0.009982
v 0.054556 0.750613 0.004480
v 0.049816 0.750613 0.018165
v 0.055577 0.302952 -0.009982
v 0.054556 0.302952 0.004480
v 0.052834 0.750613 -0.024200
v 0.046494 0.750613 -0.037229
v 0.052834 0.302952 -0.024200
v 0.037016 0.750613 -0.048171
v 0.046494 0.302952 -0.037229
v 0.025007 0.750613 -0.056293
v 0.037016 0.302952 -0.048171
v 0.011323 0.750613 -0.061032
v -0.003139 0.750613 -0.062053
v -0.017357 0.750613 -0.059310
v -0.030387 0.750613 -0.052971
v -0.017357 0.302952 -0.059310
v -0.041328 0.750613 -0.043477
v -0.030387 0.302952 -0.052971
v 0.003505 0.750613 0.048734
v 0.001524 0.565749 0.094665
v 0.001524 0.704896 0.094665
v 0.001524 0.704896 0.061733
v 0.017723 0.750613 0.045991
v 0.030752 0.750613 0.039652
v 0.017723 0.302952 0.045991
v 0.041694 0.750613 0.030173
v 0.030752 0.302952 0.039652
v -0.036635 0.750613 0.034867
v -0.024642 0.750613 0.042974
v -0.010942 0.750613 0.047713
v -0.052468 0.750613 0.010881
v -0.046129 0.750613 0.023910
v -0.055211 0.750613 -0.003337
v -0.052468 0.302952 0.010881
v -0.046129 0.302952 0.023910
v -0.054190 0.750613 -0.017784
v -0.055211 0.302952 -0.003337
v -0.049451 0.750613 -0.031484
v -0.054190 0.302952 -0.017784
v 0.049816 0.302952 0.018165
v 0.041694 0.302952 0.030173
v 0.025007 0.302952 -0.056293
v -0.003139 0.302952 -0.062053
v 0.011323 0.302952 -0.061032
v -0.049451 0.302952 -0.031484
v 0.007376 0.704896 0.094665
v -0.036635 0.302952 0.034867
v -0.024642 0.302952 0.042974
v -0.041328 0.302952 -0.043477
v -0.010942 0.302952 0.047713
v 0.003505 0.302952 0.048734
vt 0.018188 0.00614
vt 0.0183 0.008234
vt 0.018114 0.008234
vt 0.022789 0.004707
vt 0.022901 0.006802
vt 0.022716 0.006802
vt 0.025836 0.003007
vt 0.025948 0.005102
vt 0.025762 0.005102
vt 0.027047 0.003251
vt 0.02716 0.001156
vt 0.027233 0.003251
vt 0.018227 0.00614
vt 0.022828 0.004707
vt -0.001411 0.007988
vt -0.001299 0.010082
vt -0.001484 0.010082
vt 0.005773 0.009933
vt 0.005661 0.007838
vt 0.0057 0.007838
vt 0.005588 0.009933
vt 0.012458 0.009302
vt 0.012346 0.007208
vt 0.012385 0.007208
vt 0.012272 0.009302
vt 0.025875 0.003007
vt -0.014794 0.006838
vt -0.014682 0.008933
vt -0.014868 0.008933
vt -0.008275 0.009741
vt -0.008388 0.007647
vt -0.008349 0.007647
vt -0.008461 0.009741
vt -0.001372 0.007988
vt 0.027121 0.001156
vt 0.026595 -0.00072
vt 0.026483 0.001374
vt 0.026556 -0.00072
vt 0.026668 0.001374
vt -0.001411 0.015841
vt -0.001382 0.015615
vt -0.001372 0.015841
vt 0.005661 0.01589
vt 0.005695 0.015663
vt 0.0057 0.01589
vt 0.010149 0.015011
vt 0.010137 0.014785
vt 0.01016 0.014781
vt 0.01011 0.015009
vt 0.018188 0.011962
vt 0.01821 0.011737
vt 0.018227 0.011962
vt 0.022789 0.009024
vt 0.022817 0.008798
vt 0.022828 0.009024
vt -0.014755 0.006838
vt -0.014794 0.013429
vt -0.014778 0.013204
vt -0.014755 0.013429
vt -0.008388 0.015126
vt -0.008365 0.014901
vt -0.008349 0.015126
vt 0.025836 0.005498
vt 0.025869 0.00527
vt 0.025875 0.005498
vt 0.026745 0.003446
vt 0.026738 0.00322
vt 0.026761 0.003217
vt -0.020194 0.010952
vt -0.020184 0.010726
vt -0.020155 0.010952
vt 0.024107 -0.000399
vt 0.024219 -0.002494
vt 0.024292 -0.000399
vt 0.02418 -0.002494
vt 0.020267 -0.001949
vt 0.020155 -0.004044
vt 0.020194 -0.004044
vt 0.014868 -0.00317
vt 0.014755 -0.005265
vt 0.014794 -0.005265
vt 0.008461 -0.003979
vt 0.008349 -0.006073
vt 0.008388 -0.006073
vt 0.001484 -0.004319
vt 0.001372 -0.006414
vt 0.001411 -0.006414
vt -0.005588 -0.00417
vt -0.0057 -0.006264
vt -0.005661 -0.006264
vt 0.026706 0.003444
vt 0.026595 -0.002437
vt 0.026556 -0.002437
vt 0.026578 -0.002662
vt -0.018114 -0.002471
vt -0.018227 -0.004566
vt -0.018188 -0.004566
vt -0.022716 -0.001039
vt -0.022828 -0.003133
vt -0.022789 -0.003133
vt -0.025762 0.000661
vt -0.025875 -0.001433
vt -0.025836 -0.001433
vt -0.027121 0.000418
vt -0.027233 0.002512
vt -0.02716 0.000418
vt -0.026556 0.002294
vt -0.026668 0.004389
vt -0.026595 0.002294
vt -0.02418 0.004068
vt -0.024292 0.006162
vt -0.024219 0.004068
vt 0.024219 -0.006221
vt 0.02418 -0.006221
vt 0.024208 -0.006447
vt 0.020189 -0.009899
vt 0.020194 -0.009671
vt 0.020155 -0.009671
vt 0.0171 -0.011449
vt 0.017109 -0.011223
vt 0.01707 -0.011225
vt 0.017122 -0.011452
vt 0.008371 -0.013898
vt 0.008388 -0.013673
vt 0.008349 -0.013673
vt 0.001372 -0.014388
vt 0.0014 -0.014614
vt 0.001411 -0.014388
vt -0.0057 -0.014448
vt -0.005666 -0.014676
vt -0.005661 -0.014448
vt -0.010136 -0.013564
vt -0.010148 -0.01379
vt -0.010125 -0.013794
vt -0.010175 -0.013566
vt -0.018227 -0.010509
vt -0.018204 -0.010734
vt -0.018188 -0.010509
vt -0.022828 -0.007574
vt -0.022799 -0.0078
vt -0.022789 -0.007574
vt -0.025875 -0.004055
vt -0.025841 -0.004283
vt -0.025836 -0.004055
vt -0.026744 -0.001997
vt -0.02675 -0.002224
vt -0.026728 -0.002227
vt -0.026782 -0.002
vt -0.025795 0.005565
vt -0.025786 0.005339
vt -0.025756 0.005563
vt -0.025809 0.005336
vt -0.024214 0.007552
vt -0.02418 0.007779
vt -0.024219 0.007779
vt -0.020267 0.007712
vt -0.020155 0.005618
vt -0.020082 0.007712
vt -0.020194 0.005618
vt -0.026483 0.004389
vt -0.024107 0.006162
vt 0.020082 -0.001949
vt 0.014682 -0.00317
vt 0.008275 -0.003979
vt 0.001299 -0.004319
vt -0.005773 -0.00417
vt -0.012385 -0.005634
vt -0.012272 -0.003539
vt -0.012458 -0.003539
vt -0.0183 -0.002471
vt -0.022901 -0.001039
vt -0.025948 0.000661
vt -0.027047 0.002512
vt -0.012346 -0.005634
vt -0.194825 0.214596
vt -0.201511 0.087105
vt -0.197411 0.087105
vt 0.171565 0.217489
vt 0.16488 0.089997
vt 0.16898 0.089997
vt 0.081323 0.222429
vt 0.074637 0.094937
vt 0.078737 0.094937
vt -0.108335 0.220931
vt -0.115021 0.09344
vt -0.11092 0.09344
vt -0.014146 0.223603
vt -0.020832 0.096112
vt -0.016731 0.096112
vt 0.312548 0.197892
vt 0.305863 0.0704
vt 0.309963 0.0704
vt 0.353681 0.18457
vt 0.346995 0.057078
vt 0.351095 0.057078
vt 0.250432 0.20912
vt 0.243746 0.081628
vt 0.247847 0.081628
vt 0.117606 0.113408
vt 0.11092 -0.014084
vt 0.115021 -0.014084
vt 0.204096 0.119743
vt 0.197411 -0.007748
vt 0.201511 -0.007748
vt 0.276994 0.129311
vt 0.270308 0.001819
vt 0.274408 0.001819
vt 0.328745 0.013967
vt 0.322059 0.141458
vt 0.324644 0.013967
vt 0.360818 0.027866
vt 0.354132 0.155358
vt 0.356717 0.027866
vt -0.324644 0.06539
vt -0.33133 0.192881
vt -0.328745 0.06539
vt -0.270308 0.077537
vt -0.276994 0.205028
vt -0.274408 0.077537
vt -0.356717 0.05149
vt -0.363403 0.178981
vt -0.360818 0.05149
vt 0.241161 0.20912
vt -0.117606 0.220931
vt -0.023417 0.223603
vt -0.204096 0.214596
vt -0.267723 0.205028
vt -0.354132 0.178981
vt -0.322059 0.192881
vt 0.162294 0.217489
vt 0.072052 0.222429
vt 0.368441 0.042571
vt 0.361755 0.170062
vt 0.36434 0.042571
vt 0.371026 0.170062
vt 0.303277 0.197892
vt 0.34441 0.18457
vt 0.194825 0.119743
vt 0.267723 0.129311
vt 0.33133 0.141458
vt 0.108335 0.113408
vt 0.363403 0.155358
vt -0.16898 -0.010641
vt -0.162294 0.11685
vt -0.171565 0.11685
vt -0.241161 0.125219
vt -0.247847 -0.002272
vt -0.243746 -0.002272
vt -0.16488 -0.010641
vt -0.078737 -0.015581
vt -0.072052 0.11191
vt -0.081323 0.11191
vt -0.36434 0.036785
vt -0.371026 0.164277
vt -0.368441 0.036785
vt -0.34441 0.149769
vt -0.351095 0.022278
vt -0.346995 0.022278
vt -0.303277 0.136447
vt -0.309963 0.008956
vt -0.305863 0.008956
vt -0.353681 0.149769
vt 0.023417 0.110736
vt 0.016731 -0.016755
vt 0.020832 -0.016755
vt -0.250432 0.125219
vt 0.014146 0.110736
vt -0.074637 -0.015581
vt -0.361755 0.164277
vt -0.312548 0.136447
vn 0 -1 0
vn 0 1 0
vn -0.4473231921895432 0 0.8943723842613639
vn -0.6635616500615663 0 0.7481216054677018
vn -0.8345798901822297 0 0.5508869275118239
vn 0.6635616500615663 0 -0.7481216054677018
vn 0.8345798901822297 0 -0.5508869275118239
vn -0.9487221908805523 0 0.31611106360076213
vn 0.9487221908805523 0 -0.31611106360076213
vn -0.9982107986758754 0 0.059792987940652444
vn 0.9982107986758754 0 -0.059792987940652444
vn -0.9796730254078203 0 -0.20060100520258714
vn 0.9796730254078203 0 0.20060100520258714
vn 0.8943723842613639 0 0.4473231921895432
vn 0.20060100520258714 0 -0.9796730254078203
vn -0.059792987940652444 0 -0.9982107986758754
vn -0.7481216054677018 0 -0.6635616500615663
vn -0.8943723842613639 0 -0.4473231921895432
vn 0.059792987940652444 0 0.9982107986758754
vn -0.20060100520258714 0 0.9796730254078203
vn 0.4473231921895432 0 -0.8943723842613639
vn 0.7481216054677018 0 0.6635616500615663
vn -0.5508869275118239 0 -0.8345798901822297
vn 0.5508869275118239 0 0.8345798901822297
vn -0.31611106360076213 0 -0.9487221908805523
vn 0.31611106360076213 0 0.9487221908805523
vn -0.9977107115668636 -0.03164999085014722 0.05976298272282301
vn -0.9791823125432938 -0.03165001010230503 -0.20050006399722464
vn 0.9791823125432938 0.03165001010230503 0.20050006399722464
vn 0.8939242878092508 0.03165001019008639 0.4470991439487342
vn -0.8939242878092508 -0.03165001019008639 -0.4470991439487342
vn -0.7477469981493262 -0.03164999992166625 -0.6632289983585082
vn -0.5506113386971062 -0.03165001946885081 -0.8341615131170952
vn 0.5506113386971062 0.03165001946885081 0.8341615131170952
vn 0.7477469981493262 0.03164999992166625 0.6632289983585082
vn -0.3159529378018267 -0.031649993769414485 -0.9482468133290989
vn -0.05976298272282301 -0.03164999085014722 -0.9977107115668636
vn 0.05976298272282301 0.03164999085014722 0.9977107115668636
vn 0.3159529378018267 0.031649993769414485 0.9482468133290989
vn 0.20050006399722464 -0.03165001010230503 -0.9791823125432938
vn 0.4470991439487342 -0.03165001019008639 -0.8939242878092508
vn -0.20050006399722464 0.03165001010230503 0.9791823125432938
vn -0.4470991439487342 0.03165001019008639 0.8939242878092508
vn 0.6632289983585082 -0.03164999992166625 -0.7477469981493262
vn -0.6632289983585082 0.03164999992166625 0.7477469981493262
vn 0.8341615131170954 -0.031650019468850814 -0.5506113386971063
vn -0.8341615131170954 0.031650019468850814 0.5506113386971063
vn -0.9482468133290991 0.03164999376941449 0.31595293780182676
vn -0.9977107115668636 0.03164999085014722 0.05976298272282301
vn 0.9482468133290991 -0.03164999376941449 -0.31595293780182676
vn 0.20050006399722464 0.03165001010230503 -0.9791823125432938
vn -0.05976298272282301 0.03164999085014722 -0.9977107115668636
vn 0.9977107115668636 0.03164999085014722 -0.05976298272282301
vn -0.9482468133290991 -0.03164999376941449 0.31595293780182676
vn -0.8341615131170954 -0.031650019468850814 0.5506113386971063
vn 0.9482468133290991 0.03164999376941449 -0.31595293780182676
vn 0.8341615131170954 0.031650019468850814 -0.5506113386971063
vn 0.5506113386971062 -0.03165001946885081 0.8341615131170952
vn 0.3159529378018267 -0.031649993769414485 0.9482468133290989
vn -0.3159529378018267 0.031649993769414485 -0.9482468133290989
vn -0.5506113386971062 0.03165001946885081 -0.8341615131170952
vn 0.05976298272282301 -0.03164999085014722 0.9977107115668636
vn 0.9977107115668636 -0.03164999085014722 -0.05976298272282301
vn -0.20050006399722464 -0.03165001010230503 0.9791823125432938
vn -0.4470991439487342 -0.03165001019008639 0.8939242878092508
vn 0.4470991439487342 0.03165001019008639 -0.8939242878092508
vn 0.6632289983585082 0.03164999992166625 -0.7477469981493262
vn -0.6632289983585082 -0.03164999992166625 0.7477469981493262
vn -0.9439850465030645 0.26745101317530584 -0.1932930095220971
vn -0.9618474706329625 0.26745085280445186 0.0576149682907467
vn -0.9141615781780632 0.26745087659003675 0.30459585945021267
vn -0.8617917304966543 0.267450916361559 -0.4310278652070475
vn -0.7208688392884375 0.2674509403740928 -0.6393888574537049
vn 0.9791823125432938 -0.03165001010230503 0.20050006399722464
vn 0.7477469981493262 -0.03164999992166625 0.6632289983585082
vn -0.7477469981493262 0.03164999992166625 -0.6632289983585082
vn 0.8939242878092508 -0.03165001019008639 0.4470991439487342
vn -0.8939242878092508 0.03165001019008639 -0.4470991439487342
vn -0.9791823125432938 0.03165001010230503 -0.20050006399722464
vn -0.639388857453705 0.26745094037409284 0.7208688392884377
vn -0.8041767759845277 0.26745092549754335 0.5308198521321885
vn -0.1932930095220971 0.26745101317530584 0.9439850465030645
vn -0.43102786520704744 0.26745091636155893 0.861791730496654
vn -0.5308198521321885 0.26745092549754335 -0.8041767759845277
vn -0.30459585945021267 0.26745087659003675 -0.9141615781780632
vn -0.5496583264251376 0.560217332695806 0.6197033680227289
vn -0.35024200872277733 0.6262010155955365 0.696565017347952
vn -0.687011116806327 0.5671810964327054 0.4542260772279784
vn -0.7669822932737599 0.5701772180207001 0.2943401125478805
vn -0.773351729277061 0.5898467935156133 -0.23239591864645318
vn -0.8187131615116549 0.567800112012778 0.08550901686879296
vn -0.8099568903468286 0.5626149238323528 -0.16563297757636056
vn -0.7353100560023189 0.5695640433788535 -0.3673090279748076
vn -0.1660479806626345 0.5626149344798377 0.809871905685158
vn -0.3705382339330887 0.5602173536838143 0.7408494677228648
vn -0.6488798593926163 0.5684118768294227 -0.505828890390685
vn -0.18730406483222276 0.5921342049575203 -0.7837692712888481
vn 0.04873699180570405 0.5695639042375202 0.8205008620467403
vn 0.0576149682907467 0.26745085280445186 0.9618474706329625
vn -0.0576149682907467 0.26745085280445186 -0.9618474706329625
vn 0.1932930095220971 0.26745101317530584 -0.9439850465030645
vn 0.43102786520704744 0.26745091636155893 -0.861791730496654
vn 0.639388857453705 0.26745094037409284 -0.7208688392884377
vn 0.8041767759845277 0.26745092549754335 -0.5308198521321885
vn 0.9141615781780632 0.26745087659003675 -0.30459585945021267
vn -0.49578680283504767 0.5679227741479481 -0.6570077387205574
vn -0.2615361442892691 0.5626153103943897 -0.7842594326752641
vn 0.9618474706329625 0.26745085280445186 -0.0576149682907467
vn 0.9439850465030645 0.26745101317530584 0.1932930095220971
vn 0.8617917304966543 0.267450916361559 0.4310278652070475
vn 0.7208688392884375 0.2674509403740928 0.6393888574537049
vn 0.5308198521321885 0.26745092549754335 0.8041767759845277
vn 0.30459585945021267 0.26745087659003675 0.9141615781780632
vn -0.04955598930740446 0.5695638771063546 -0.8204518229727702
vn 0.12214297560151556 0.5694328862537993 -0.8129128376178317
vn 0.3291909782724086 0.5678699625188801 -0.7544249502056917
vn 0.5894300903404833 0.5912390906177443 -0.5504620843679541
vn 0.5496583264251376 0.560217332695806 -0.6197033680227289
vn 0.687011116806327 0.5671810964327054 -0.4542260772279784
vn 0.7669822932737599 0.5701772180207001 -0.2943401125478805
vn 0.773351729277061 0.5898467935156133 0.23239591864645318
vn 0.8187131615116549 0.567800112012778 -0.08550901686879296
vn 0.8099568903468286 0.5626149238323528 0.16563297757636056
vn 0.7353100560023189 0.5695640433788535 0.3673090279748076
vn 0.6488798593926163 0.5684118768294227 0.505828890390685
vn 0.455909163389895 0.5769752067778541 0.6776772428677079
vn 0.21678903875863176 0.5692471017728521 0.793070141789058
vn -0.9982063633921016 0.002975001083034466 0.059793021767354564
vn -0.979668725601686 0.002974999166723675 -0.2005999438133678
vn -0.8943684261264099 0.0029750014174546374 -0.4473212131284793
vn -0.4473212131284793 0.0029750014174546374 0.8943684261264099
vn -0.663559020228597 0.002975000090692879 0.7481180228063783
vn -0.8345759025106909 0.0029749996524813865 0.5508849356494818
vn -0.2005999438133678 0.002974999166723675 0.979668725601686
vn 0.059793021767354564 0.002975001083034466 0.9982063633921016
vn 0.31610996424022036 0.00297499966345467 0.9487178926767688
vn 0.5508849356494818 0.0029749996524813865 0.8345759025106909
vn -0.9487178926767688 0.00297499966345467 0.31610996424022036
vn -0.31610996424022036 0.00297499966345467 -0.9487178926767688
vn -0.5508849356494818 0.0029749996524813865 -0.8345759025106909
vn -0.059793021767354564 0.002975001083034466 -0.9982063633921016
vn 0.2005999438133678 0.002974999166723675 -0.979668725601686
vn -0.7481180228063783 0.002975000090692879 -0.663559020228597
vn 0.4473212131284793 0.0029750014174546374 -0.8943684261264099
vn 0.663559020228597 0.002975000090692879 -0.7481180228063783
vn 0.9487178926767688 0.00297499966345467 -0.31610996424022036
vn 0.9982063633921016 0.002975001083034466 -0.059793021767354564
vn 0.8345759025106909 0.0029749996524813865 -0.5508849356494818
vn 0.979668725601686 0.002974999166723675 0.2005999438133678
vn 0.7481180228063783 0.002975000090692879 0.663559020228597
vn 0.8943684261264099 0.0029750014174546374 0.4473212131284793
vn 0.9837849872250601 -0.018788999756015445 -0.17836499768384131
vn -0.014736001606452673 -0.09000700981215973 -0.9958321085611413
vn 0.014736001606452673 0.09000700981215973 0.9958321085611413
vn -0.9837849872250601 0.018788999756015445 0.17836499768384131
vn 0.00991900156730652 -0.0899470142125738 -0.9958971573622201
vn -0.00991900156730652 0.0899470142125738 0.9958971573622201
vn 0 0 1
vn 0.00001399999565893802 0.7070837807503237 0.7071297807360603
vn 0 0 -1
vn -0.00001399999565893802 -0.7070837807503237 -0.7071297807360603
vn 0.9439850465030645 -0.26745101317530584 0.1932930095220971
vn 0.9618474706329625 -0.26745085280445186 -0.0576149682907467
vn 0.8617917304966543 -0.267450916361559 0.4310278652070475
vn 0.7208688392884375 -0.2674509403740928 0.6393888574537049
vn 0.5308198521321885 -0.26745092549754335 0.8041767759845277
vn 0.8041767759845277 -0.26745092549754335 -0.5308198521321885
vn 0.639388857453705 -0.26745094037409284 -0.7208688392884377
vn 0.9141615781780632 -0.26745087659003675 -0.30459585945021267
vn 0.43102786520704744 -0.26745091636155893 -0.861791730496654
vn 0.1932930095220971 -0.26745101317530584 -0.9439850465030645
vn 0.30459585945021267 -0.26745087659003675 0.9141615781780632
vn 0.687011116806327 -0.5671810964327054 -0.4542260772279784
vn 0.35024200872277733 -0.6262010155955365 -0.696565017347952
vn 0.5496583264251376 -0.560217332695806 -0.6197033680227289
vn 0.7669822932737599 -0.5701772180207001 -0.2943401125478805
vn 0.773351729277061 -0.5898467935156133 0.23239591864645318
vn 0.8187131615116549 -0.567800112012778 -0.08550901686879296
vn 0.8099568903468286 -0.5626149238323528 0.16563297757636056
vn 0.7353100560023189 -0.5695640433788535 0.3673090279748076
vn 0.3705382339330887 -0.5602173536838143 -0.7408494677228648
vn 0.1660479806626345 -0.5626149344798377 -0.809871905685158
vn 0.6488798593926163 -0.5684118768294227 0.505828890390685
vn 0.18730406483222276 -0.5921342049575203 0.7837692712888481
vn -0.04873699180570405 -0.5695639042375202 -0.8205008620467403
vn 0.0576149682907467 -0.26745085280445186 0.9618474706329625
vn -0.1932930095220971 -0.26745101317530584 0.9439850465030645
vn -0.43102786520704744 -0.26745091636155893 0.861791730496654
vn -0.639388857453705 -0.26745094037409284 0.7208688392884377
vn -0.8041767759845277 -0.26745092549754335 0.5308198521321885
vn -0.9141615781780632 -0.26745087659003675 0.30459585945021267
vn 0.49578680283504767 -0.5679227741479481 0.6570077387205574
vn 0.2615361442892691 -0.5626153103943897 0.7842594326752641
vn -0.9618474706329625 -0.26745085280445186 0.0576149682907467
vn -0.9439850465030645 -0.26745101317530584 -0.1932930095220971
vn -0.8617917304966543 -0.267450916361559 -0.4310278652070475
vn -0.7208688392884375 -0.2674509403740928 -0.6393888574537049
vn -0.5308198521321885 -0.26745092549754335 -0.8041767759845277
vn -0.30459585945021267 -0.26745087659003675 -0.9141615781780632
vn -0.0576149682907467 -0.26745085280445186 -0.9618474706329625
vn 0.04955598930740446 -0.5695638771063546 0.8204518229727702
vn -0.12214297560151556 -0.5694328862537993 0.8129128376178317
vn -0.5894300903404833 -0.5912390906177443 0.5504620843679541
vn -0.3291909782724086 -0.5678699625188801 0.7544249502056917
vn -0.5496583264251376 -0.560217332695806 0.6197033680227289
vn -0.687011116806327 -0.5671810964327054 0.4542260772279784
vn -0.7669822932737599 -0.5701772180207001 0.2943401125478805
vn -0.773351729277061 -0.5898467935156133 -0.23239591864645318
vn -0.8187131615116549 -0.567800112012778 0.08550901686879296
vn -0.8099568903468286 -0.5626149238323528 -0.16563297757636056
vn -0.7353100560023189 -0.5695640433788535 -0.3673090279748076
vn -0.6488798593926163 -0.5684118768294227 -0.505828890390685
vn -0.455909163389895 -0.5769752067778541 -0.6776772428677079
vn -0.21678903875863176 -0.5692471017728521 -0.793070141789058
vn -0.9860962632709738 0.1553230414686171 0.05906701576989118
vn -0.9677835797202323 0.15532293254784707 -0.19816591394240818
vn -0.4418948935744885 0.1553229625921775 0.8835177872144853
vn -0.6555088816236282 0.15532297195069297 0.7390418665386584
vn -0.19816591394240818 0.15532293254784707 0.9677835797202323
vn -0.9372081193918872 0.15532301978675608 0.31227503978103216
vn -0.8244507928427486 0.15532296097247045 0.5442018632600475
vn -0.5442018632600476 0.15532296097247048 -0.8244507928427488
vn -0.7390418665386584 0.15532297195069297 -0.6555088816236282
vn -0.8835177872144853 0.1553229625921775 -0.4418948935744885
vn 0.19816591394240818 0.15532293254784707 -0.9677835797202323
vn 0.4418948935744885 0.1553229625921775 -0.8835177872144853
vn -0.05906701576989118 0.1553230414686171 -0.9860962632709738
vn -0.31227503978103216 0.15532301978675608 -0.9372081193918872
vn 0.6555088816236282 0.15532297195069297 -0.7390418665386584
vn 0.9372081193918872 0.15532301978675608 -0.31227503978103216
vn 0.9860962632709738 0.1553230414686171 -0.05906701576989118
vn 0.05906701576989118 0.1553230414686171 0.9860962632709738
vn 0.31227503978103216 0.15532301978675608 0.9372081193918872
vn 0.5442018632600476 0.15532296097247048 0.8244507928427488
vn 0.9677835797202323 0.15532293254784707 0.19816591394240818
vn 0.7390418665386584 0.15532297195069297 0.6555088816236282
vn 0.8835177872144853 0.1553229625921775 0.4418948935744885
vn 0.8244507928427486 0.15532296097247045 -0.5442018632600475
vn 0.19816591394240818 -0.15532293254784707 -0.9677835797202323
vn 0.4418948935744885 -0.1553229625921775 -0.8835177872144853
vn 0.9372081193918872 -0.15532301978675608 -0.31227503978103216
vn 0.9860962632709738 -0.1553230414686171 -0.05906701576989118
vn 0.8244507928427486 -0.15532296097247045 -0.5442018632600475
vn 0.6555088816236282 -0.15532297195069297 -0.7390418665386584
vn 0.9677835797202323 -0.15532293254784707 0.19816591394240818
vn 0.8835177872144853 -0.1553229625921775 0.4418948935744885
vn 0.7390418665386584 -0.15532297195069297 0.6555088816236282
vn -0.4418948935744885 -0.1553229625921775 0.8835177872144853
vn -0.6555088816236282 -0.15532297195069297 0.7390418665386584
vn -0.19816591394240818 -0.15532293254784707 0.9677835797202323
vn 0.05906701576989118 -0.1553230414686171 0.9860962632709738
vn 0.31227503978103216 -0.15532301978675608 0.9372081193918872
vn 0.5442018632600476 -0.15532296097247048 0.8244507928427488
vn -0.31227503978103216 -0.15532301978675608 -0.9372081193918872
vn -0.05906701576989118 -0.1553230414686171 -0.9860962632709738
vn -0.5442018632600476 -0.15532296097247048 -0.8244507928427488
vn -0.9860962632709738 -0.1553230414686171 0.05906701576989118
vn -0.9372081193918872 -0.15532301978675608 0.31227503978103216
vn -0.9677835797202323 -0.15532293254784707 -0.19816591394240818
vn -0.8244507928427486 -0.15532296097247045 0.5442018632600475
vn -0.7390418665386584 -0.15532297195069297 -0.6555088816236282
vn -0.8835177872144853 -0.1553229625921775 -0.4418948935744885
vn 0.9649543114651081 -0.25597308262223706 -0.05780101865684241
vn 0.9470342951082437 -0.2559730797645517 0.19391706042708634
vn -0.9649543114651081 0.25597308262223706 0.05780101865684241
vn -0.9470342951082437 0.2559730797645517 -0.19391706042708634
vn 0.8645753614989194 -0.2559731070282658 0.4324201808048611
vn -0.4324201808048611 0.2559731070282658 0.8645753614989194
vn -0.6414542207712614 0.2559730880990408 0.7231972489050095
vn 0.6414542207712614 -0.2559730880990408 -0.7231972489050095
vn 0.8067747827718852 -0.2559729310780178 -0.5325338566126158
vn -0.8067747827718852 0.2559729310780178 0.5325338566126158
vn 0.4324201808048611 -0.2559731070282658 -0.8645753614989194
vn -0.3055800913493622 -0.255973076519963 -0.9171142741598892
vn -0.05780101865684241 -0.25597308262223706 -0.9649543114651081
vn 0.19391706042708634 -0.2559730797645517 -0.9470342951082437
vn -0.19391706042708634 0.2559730797645517 0.9470342951082437
vn 0.05780101865684241 0.25597308262223706 0.9649543114651081
vn 0.3055800913493622 0.255973076519963 0.9171142741598892
vn -0.5325338566126157 -0.2559729310780177 -0.8067747827718851
vn 0.5325338566126157 0.2559729310780177 0.8067747827718851
vn 0.9171142741598892 -0.255973076519963 -0.3055800913493622
vn -0.9171142741598892 0.255973076519963 0.3055800913493622
vn 0.5325338566126157 -0.2559729310780177 0.8067747827718851
vn 0.3055800913493622 -0.255973076519963 0.9171142741598892
vn -0.3055800913493622 0.255973076519963 -0.9171142741598892
vn -0.5325338566126157 0.2559729310780177 -0.8067747827718851
vn 0.05780101865684241 -0.25597308262223706 0.9649543114651081
vn 0.7231972489050096 -0.25597308809904085 0.6414542207712616
vn -0.7231972489050096 0.25597308809904085 -0.6414542207712616
vn -0.8645753614989194 0.2559731070282658 -0.4324201808048611
vn -0.19391706042708634 -0.2559730797645517 0.9470342951082437
vn -0.4324201808048611 -0.2559731070282658 0.8645753614989194
vn 0.19391706042708634 0.2559730797645517 -0.9470342951082437
vn 0.4324201808048611 0.2559731070282658 -0.8645753614989194
vn -0.6414542207712614 -0.2559730880990408 0.7231972489050095
vn 0.6414542207712614 0.2559730880990408 -0.7231972489050095
vn -0.05780101865684241 0.25597308262223706 -0.9649543114651081
vn -0.9171142741598892 -0.255973076519963 0.3055800913493622
vn -0.9649543114651081 -0.25597308262223706 0.05780101865684241
vn 0.9171142741598892 0.255973076519963 -0.3055800913493622
vn 0.9649543114651081 0.25597308262223706 -0.05780101865684241
vn -0.9470342951082437 -0.2559730797645517 -0.19391706042708634
vn 0.9470342951082437 0.2559730797645517 0.19391706042708634
vn -0.8067747827718852 -0.2559729310780178 0.5325338566126158
vn -0.7231972489050096 -0.25597308809904085 -0.6414542207712616
vn 0.7231972489050096 0.25597308809904085 0.6414542207712616
vn -0.8645753614989194 -0.2559731070282658 -0.4324201808048611
vn 0.8645753614989194 0.2559731070282658 0.4324201808048611
vn 0.8067747827718852 0.2559729310780178 -0.5325338566126158
vn 0.9982058250145341 0.003169999444299146 -0.05979198951846515
vn 0.9796680983959093 0.0031700003183885075 0.20060002014786582
vn -0.9982058250145341 -0.003169999444299146 0.05979198951846515
vn -0.9796680983959093 -0.0031700003183885075 -0.20060002014786582
vn 0.9487172243294321 0.0031700007495642007 -0.3161100747459746
vn -0.9487172243294321 -0.0031700007495642007 0.3161100747459746
vn 0.894367890276718 0.0031699996110965464 0.4473209451215515
vn -0.894367890276718 -0.0031699996110965464 -0.4473209451215515
vn 0.4473209451215515 0.0031699996110965464 -0.894367890276718
vn 0.6635580629756447 0.0031700003008520634 -0.7481180710008971
vn -0.6635580629756447 -0.0031700003008520634 0.7481180710008971
vn -0.4473209451215515 -0.0031699996110965464 0.894367890276718
vn 0.20060002014786582 0.0031700003183885075 -0.9796680983959093
vn -0.20060002014786582 -0.0031700003183885075 0.9796680983959093
vn 0.834575099001477 0.003170000376041317 -0.5508850653487447
vn -0.834575099001477 -0.003170000376041317 0.5508850653487447
vn -0.1895729253251541 0.0031429987619384582 -0.9818616132339861
vn -0.05979198951846515 0.003169999444299146 -0.9982058250145341
vn 0.1895729253251541 -0.0031429987619384582 0.9818616132339861
vn 0.05979198951846515 -0.003169999444299146 0.9982058250145341
vn -0.5508850653487447 0.003170000376041317 -0.834575099001477
vn -0.4372381349551015 0.0031430009700983996 -0.8993402775845672
vn 0.5508850653487447 -0.003170000376041317 0.834575099001477
vn 0.4372381349551015 -0.0031430009700983996 0.8993402775845672
vn 0.3161100747459746 0.0031700007495642007 0.9487172243294321
vn 0.05860900797967559 0.0031210004249273577 0.9982761359163035
vn -0.3161100747459746 -0.0031700007495642007 -0.9487172243294321
vn -0.05860900797967559 -0.0031210004249273577 -0.9982761359163035
vn -0.20176096364055918 0.0031199994377433924 0.9794298234964779
vn 0.20176096364055918 -0.0031199994377433924 -0.9794298234964779
vn 0.7481180710008971 0.0031700003008520634 0.6635580629756447
vn 0.5508850653487447 0.003170000376041317 0.834575099001477
vn -0.7481180710008971 -0.0031700003008520634 -0.6635580629756447
vn -0.5508850653487447 -0.003170000376041317 -0.834575099001477
vn -0.32675584760094484 0.003142998534104254 0.9451035592033303
vn 0.32675584760094484 -0.003142998534104254 -0.9451035592033303
vn -0.5602330490262762 0.003143000275045537 0.8283290724874943
vn -0.6635580629756447 0.0031700003008520634 0.7481180710008971
vn 0.6635580629756447 -0.0031700003008520634 -0.7481180710008971
vn 0.5602330490262762 -0.003143000275045537 -0.8283290724874943
vn -0.9487172243294321 0.0031700007495642007 0.3161100747459746
vn -0.9982058250145341 0.003169999444299146 0.05979198951846515
vn 0.9487172243294321 -0.0031700007495642007 -0.3161100747459746
vn 0.9982058250145341 -0.003169999444299146 -0.05979198951846515
vn -0.834575099001477 0.003170000376041317 0.5508850653487447
vn 0.834575099001477 -0.003170000376041317 -0.5508850653487447
vn -0.9796680983959093 0.0031700003183885075 -0.20060002014786582
vn 0.9796680983959093 -0.0031700003183885075 0.20060002014786582
vn -0.7481180710008971 0.0031700003008520634 -0.6635580629756447
vn 0.7481180710008971 -0.0031700003008520634 0.6635580629756447
vn -0.894367890276718 0.0031699996110965464 -0.4473209451215515
vn 0.894367890276718 -0.0031699996110965464 0.4473209451215515
vn -0.07337498339340875 0.003044999310840609 0.9972997742861541
vn 0.07337498339340875 -0.003044999310840609 -0.9972997742861541
vn 0.8574550565105774 0.5119890337426384 -0.05136200338501295
vn 0.9757530117217211 0.08936900107358983 0.19979800240017345
vn 0.9942165326358195 0.089368957989182 -0.05955397200469676
vn -0.9942165326358195 -0.089368957989182 0.05955397200469676
vn -0.9757530117217211 -0.08936900107358983 -0.19979800240017345
vn -0.8574550565105774 -0.5119890337426384 0.05136200338501295
vn 0.814944824169561 0.5119888895345691 -0.27153694141387463
vn 0.9449260154244999 0.0893690014588149 -0.3148460051393888
vn -0.9449260154244999 -0.0893690014588149 0.3148460051393888
vn -0.814944824169561 -0.5119888895345691 0.27153694141387463
vn 0.7168970516187403 0.511989036864748 -0.4732080340723993
vn 0.8312400871763088 0.08936900937257537 -0.5486830575431388
vn -0.8312400871763088 -0.08936900937257537 0.5486830575431388
vn -0.7168970516187403 -0.511989036864748 0.4732080340723993
vn 0.8415315970154399 0.5119887548237477 0.17231391748396793
vn 0.8907938117369834 0.08936898111249343 0.4455329058397491
vn -0.8907938117369834 -0.08936898111249343 -0.4455329058397491
vn -0.8415315970154399 -0.5119887548237477 -0.17231391748396793
vn 0.4455329058397491 0.08936898111249343 -0.8907938117369834
vn 0.569993857980918 0.5119888724333804 -0.6426308398827624
vn 0.660906796046177 0.08936897242100747 -0.745127770055841
vn -0.660906796046177 -0.08936897242100747 0.745127770055841
vn -0.569993857980918 -0.5119888724333804 0.6426308398827624
vn -0.4455329058397491 -0.08936898111249343 0.8907938117369834
vn 0.19979800240017345 0.08936900107358983 -0.9757530117217211
vn 0.3842469261840592 0.5119889016441255 -0.7682588524132632
vn -0.3842469261840592 -0.5119889016441255 0.7682588524132632
vn -0.19979800240017345 -0.08936900107358983 0.9757530117217211
vn -0.27153694141387463 0.5119888895345691 -0.814944824169561
vn -0.05955397200469676 0.089368957989182 -0.9942165326358195
vn -0.3148460051393888 0.0893690014588149 -0.9449260154244999
vn 0.3148460051393888 -0.0893690014588149 0.9449260154244999
vn 0.05955397200469676 -0.089368957989182 0.9942165326358195
vn 0.27153694141387463 -0.5119888895345691 0.814944824169561
vn -0.4732080340723993 0.511989036864748 -0.7168970516187403
vn -0.5486830575431388 0.08936900937257537 -0.8312400871763088
vn 0.5486830575431388 -0.08936900937257537 0.8312400871763088
vn 0.4732080340723993 -0.511989036864748 0.7168970516187403
vn -0.05136200338501295 0.5119890337426384 -0.8574550565105774
vn 0.05136200338501295 -0.5119890337426384 0.8574550565105774
vn -0.6426308398827624 0.5119888724333804 -0.569993857980918
vn -0.745127770055841 0.08936897242100747 -0.660906796046177
vn 0.745127770055841 -0.08936897242100747 0.660906796046177
vn 0.6426308398827624 -0.5119888724333804 0.569993857980918
vn 0.27106801640395256 0.5120380309864945 0.8150700493247806
vn 0.3143120542199341 0.08940701542302441 0.9451001630331
vn -0.3143120542199341 -0.08940701542302441 -0.9451001630331
vn -0.27106801640395256 -0.5120380309864945 -0.8150700493247806
vn 0.4732080340723993 0.511989036864748 0.7168970516187403
vn 0.5486830575431388 0.08936900937257537 0.8312400871763088
vn -0.5486830575431388 -0.08936900937257537 -0.8312400871763088
vn -0.4732080340723993 -0.511989036864748 -0.7168970516187403
vn -0.07200399244559351 0.08916399064522665 0.9934108957748111
vn -0.17283794643061517 0.5121438412661625 0.841329739238301
vn -0.20042201533579213 0.089641006859106 0.9756000746504816
vn 0.20042201533579213 -0.089641006859106 -0.9756000746504816
vn 0.17283794643061517 -0.5121438412661625 -0.841329739238301
vn 0.07200399244559351 -0.08916399064522665 -0.9934108957748111
vn -0.3842469261840592 0.5119889016441255 0.7682588524132632
vn -0.4455329058397491 0.08936898111249343 0.8907938117369834
vn 0.4455329058397491 -0.08936898111249343 -0.8907938117369834
vn 0.3842469261840592 -0.5119889016441255 -0.7682588524132632
vn 0.6426308398827624 0.5119888724333804 0.569993857980918
vn 0.745127770055841 0.08936897242100747 0.660906796046177
vn -0.745127770055841 -0.08936897242100747 -0.660906796046177
vn -0.6426308398827624 -0.5119888724333804 -0.569993857980918
vn 0.7682588524132632 0.5119889016441255 0.3842469261840592
vn -0.7682588524132632 -0.5119889016441255 -0.3842469261840592
vn -0.569993857980918 0.5119888724333804 0.6426308398827624
vn -0.660906796046177 0.08936897242100747 0.745127770055841
vn 0.660906796046177 -0.08936897242100747 -0.745127770055841
vn 0.569993857980918 -0.5119888724333804 -0.6426308398827624
vn -0.814944824169561 0.5119888895345691 0.27153694141387463
vn -0.9942165326358195 0.089368957989182 0.05955397200469676
vn -0.9449260154244999 0.0893690014588149 0.3148460051393888
vn 0.9449260154244999 -0.0893690014588149 -0.3148460051393888
vn 0.9942165326358195 -0.089368957989182 -0.05955397200469676
vn 0.814944824169561 -0.5119888895345691 -0.27153694141387463
vn -0.7168970516187403 0.511989036864748 0.4732080340723993
vn -0.8312400871763088 0.08936900937257537 0.5486830575431388
vn 0.8312400871763088 -0.08936900937257537 -0.5486830575431388
vn -0.8574550565105774 0.5119890337426384 0.05136200338501295
vn -0.9757530117217211 0.08936900107358983 -0.19979800240017345
vn 0.9757530117217211 -0.08936900107358983 0.19979800240017345
vn 0.8574550565105774 -0.5119890337426384 -0.05136200338501295
vn -0.7682588524132632 0.5119889016441255 -0.3842469261840592
vn -0.8907938117369834 0.08936898111249343 -0.4455329058397491
vn 0.8907938117369834 -0.08936898111249343 0.4455329058397491
vn 0.7682588524132632 -0.5119889016441255 0.3842469261840592
vn -0.8415315970154399 0.5119887548237477 -0.17231391748396793
vn 0.8415315970154399 -0.5119887548237477 0.17231391748396793
vn 0.17231391748396793 0.5119887548237477 -0.8415315970154399
vn -0.17231391748396793 -0.5119887548237477 0.8415315970154399
vn 0.050322031305747986 0.5122003186440148 0.8573905333896757
vn -0.050322031305747986 -0.5122003186440148 -0.8573905333896757
vn 0.7168970516187403 -0.511989036864748 -0.4732080340723993
vn 1 0 0
vn -1 0 0
vn 0.000019999999953750004 0.9999999976875 0.00006499999984968749
vn -0.000019999999953750004 -0.9999999976875 -0.00006499999984968749
vn 0.9982063633921016 -0.002975001083034466 -0.059793021767354564
vn 0.979668725601686 -0.002974999166723675 0.2005999438133678
vn 0.8943684261264099 -0.0029750014174546374 0.4473212131284793
vn 0.4473212131284793 -0.0029750014174546374 -0.8943684261264099
vn 0.663559020228597 -0.002975000090692879 -0.7481180228063783
vn 0.8345759025106909 -0.0029749996524813865 -0.5508849356494818
vn 0.2005999438133678 -0.002974999166723675 -0.979668725601686
vn -0.31610996424022036 -0.00297499966345467 -0.9487178926767688
vn -0.059793021767354564 -0.002975001083034466 -0.9982063633921016
vn -0.5508849356494818 -0.0029749996524813865 -0.8345759025106909
vn 0.9487178926767688 -0.00297499966345467 -0.31610996424022036
vn 0.5508849356494818 -0.0029749996524813865 0.8345759025106909
vn 0.31610996424022036 -0.00297499966345467 0.9487178926767688
vn 0.059793021767354564 -0.002975001083034466 0.9982063633921016
vn -0.2005999438133678 -0.002974999166723675 0.979668725601686
vn 0.7481180228063783 -0.002975000090692879 0.663559020228597
vn -0.4473212131284793 -0.0029750014174546374 0.8943684261264099
vn -0.663559020228597 -0.002975000090692879 0.7481180228063783
vn -0.9487178926767688 -0.00297499966345467 0.31610996424022036
vn -0.9982063633921016 -0.002975001083034466 0.059793021767354564
vn -0.8345759025106909 -0.0029749996524813865 0.5508849356494818
vn -0.979668725601686 -0.002974999166723675 -0.2005999438133678
vn -0.7481180228063783 -0.002975000090692879 -0.663559020228597
vn -0.8943684261264099 -0.0029750014174546374 -0.4473212131284793
usemtl material_0_0
f 1//1 2//1 3//1
f 2//1 1//1 4//1
f 2//1 4//1 5//1
f 5//1 4//1 6//1
f 5//1 6//1 7//1
f 7//1 6//1 8//1
f 9//1 8//1 10//1
f 11//1 10//1 12//1
f 13//1 12//1 14//1
f 15//1 14//1 16//1
f 3//2 2//2 1//2
f 6//2 4//2 5//2
f 8//2 6//2 7//2
f 10//2 8//2 9//2
f 12//2 10//2 11//2
f 14//2 12//2 13//2
f 4//3 17//4 6//4
f 17//4 8//5 6//4
f 6//6 8//7 17//6
f 18//5 10//8 8//5
f 8//7 10//9 18//7
f 19//8 12//10 10//8
f 10//9 12//11 19//9
f 20//10 14//12 12//10
f 12//11 14//13 20//11
f 14//13 16//14 21//13
f 9//1 10//1 11//1
f 11//1 12//1 13//1
f 13//1 14//1 15//1
f 7//2 6//2 5//2
f 9//2 8//2 7//2
f 11//2 10//2 9//2
f 13//2 12//2 11//2
f 15//2 14//2 13//2
f 16//2 14//2 15//2
f 15//1 16//1 22//1
f 4//2 1//2 2//2
f 5//2 4//2 2//2
f 7//1 8//1 9//1
f 1//15 23//15 3//16
f 24//9 13//11 15//9
f 15//8 13//10 24//8
f 7//17 25//17 9//18
f 3//19 23//20 1//20
f 1//20 26//3 4//3
f 4//21 26//21 1//15
f 6//6 17//6 4//21
f 17//4 4//3 26//3
f 26//21 4//21 17//6
f 8//5 17//4 18//5
f 18//7 17//6 8//7
f 10//8 18//5 19//8
f 19//9 18//7 10//9
f 12//10 19//8 20//10
f 20//11 19//9 12//11
f 14//12 20//10 21//12
f 21//13 20//11 14//13
f 21//12 16//18 14//12
f 16//18 21//12 27//18
f 27//14 21//13 16//14
f 27//18 28//17 16//18
f 16//14 28//22 27//14
f 29//17 30//23 31//23
f 30//23 29//17 32//17
f 32//17 29//17 28//17
f 31//24 30//24 29//22
f 32//22 29//22 30//24
f 28//22 29//22 32//22
f 31//23 33//25 34//25
f 33//25 31//23 30//23
f 34//26 33//26 31//24
f 30//24 31//24 33//26
f 35//16 34//25 33//25
f 33//26 34//26 35//19
f 22//1 16//1 29//1
f 36//1 29//1 31//1
f 37//1 31//1 34//1
f 29//2 16//2 22//2
f 31//2 29//2 36//2
f 34//2 31//2 37//2
f 16//18 28//17 29//17
f 29//22 28//22 16//14
f 34//25 35//16 38//16
f 38//19 35//19 34//26
f 22//1 29//1 36//1
f 36//1 31//1 37//1
f 37//1 34//1 39//1
f 39//1 34//1 38//1
f 22//2 16//2 15//2
f 36//2 29//2 22//2
f 37//2 31//2 36//2
f 39//2 34//2 37//2
f 38//2 34//2 39//2
f 38//16 40//15 39//15
f 39//15 41//21 37//21
f 37//3 41//3 39//20
f 37//21 42//6 36//6
f 36//4 42//4 37//3
f 42//6 22//7 36//6
f 36//4 22//5 42//4
f 43//7 15//9 22//7
f 22//5 15//8 43//5
f 23//15 1//15 26//21
f 15//9 43//7 24//9
f 24//8 43//5 15//8
f 13//11 24//9 44//11
f 44//10 24//8 13//10
f 45//14 25//22 9//14
f 9//14 25//22 7//22
f 9//18 25//17 45//18
f 25//22 46//24 7//22
f 7//17 46//23 25//17
f 23//20 3//19 47//19
f 26//3 1//20 23//20
f 48//27 21//28 20//27
f 28//17 27//18 32//17
f 32//22 27//14 28//22
f 21//29 27//30 49//29
f 40//15 38//16 35//16
f 35//19 38//19 40//20
f 41//21 39//15 40//15
f 40//20 39//20 41//3
f 42//6 37//21 41//21
f 41//3 37//3 42//4
f 49//28 27//31 21//28
f 32//32 50//33 30//33
f 30//34 50//34 32//35
f 51//31 32//32 27//31
f 27//30 32//35 51//30
f 33//36 52//37 35//37
f 35//38 52//38 33//39
f 30//33 53//36 33//36
f 33//39 53//39 30//34
f 39//20 40//20 38//19
f 22//7 42//6 43//7
f 43//5 42//4 22//5
f 54//40 41//41 40//40
f 40//42 41//43 54//42
f 55//41 42//44 41//41
f 41//43 42//45 55//43
f 52//37 40//40 35//37
f 35//38 40//42 52//38
f 56//44 43//46 42//44
f 42//45 43//47 56//45
f 11//13 44//11 57//13
f 44//11 11//13 13//11
f 57//12 44//10 11//12
f 13//10 11//12 44//10
f 9//14 57//13 45//14
f 57//13 9//14 11//13
f 45//18 57//12 9//18
f 11//12 9//18 57//12
f 24//48 44//49 58//48
f 59//46 24//50 43//46
f 25//22 45//14 60//22
f 60//17 45//18 25//17
f 46//24 25//22 60//22
f 60//17 25//17 46//23
f 7//22 46//24 5//24
f 5//23 46//23 7//17
f 61//26 5//24 46//24
f 5//24 61//26 2//26
f 46//23 5//23 61//25
f 2//25 61//25 5//23
f 47//19 2//26 61//26
f 2//26 47//19 3//19
f 61//25 2//25 47//16
f 3//16 47//16 2//25
f 47//16 3//16 23//15
f 23//51 62//51 47//52
f 21//28 48//27 49//28
f 49//29 48//53 21//29
f 20//53 21//29 48//53
f 19//54 63//55 64//54
f 63//55 19//54 18//55
f 64//56 63//57 19//56
f 18//57 19//56 63//57
f 20//27 64//54 48//27
f 64//54 20//27 19//54
f 48//53 64//56 20//53
f 19//56 20//53 64//56
f 27//31 49//28 51//31
f 51//30 49//29 27//30
f 65//35 32//35 50//34
f 32//32 51//31 65//32
f 65//35 51//30 32//35
f 50//33 32//32 65//32
f 52//37 33//36 53//36
f 53//39 33//39 52//38
f 53//36 30//33 50//33
f 50//34 30//34 53//39
f 55//43 54//42 41//43
f 42//44 55//41 56//44
f 56//45 55//43 42//45
f 40//40 52//37 54//40
f 54//42 52//38 40//42
f 41//41 54//40 55//41
f 43//46 56//44 59//46
f 59//47 56//45 43//47
f 46//58 66//59 61//59
f 61//60 66//60 46//61
f 61//59 67//62 47//62
f 47//52 67//52 61//60
f 58//50 44//63 24//50
f 44//63 58//50 68//63
f 68//49 58//48 44//49
f 24//50 59//46 58//50
f 58//48 59//47 24//48
f 43//47 24//48 59//47
f 62//64 26//65 23//64
f 26//65 62//64 69//65
f 23//51 26//66 62//51
f 69//66 62//51 26//66
f 62//64 47//62 67//62
f 47//62 62//64 23//64
f 67//52 47//52 62//51
f 63//57 76//67 18//57
f 17//67 18//57 76//67
f 76//67 69//66 17//67
f 18//55 76//68 63//55
f 69//65 17//68 26//65
f 26//66 17//67 69//66
f 76//68 18//55 17//68
f 72//69 71//70 70//69
f 71//70 79//71 80//70
f 74//72 72//69 73//72
f 91//73 74//72 90//73
f 57//74 68//63 94//74
f 66//59 46//58 96//58
f 67//62 61//59 66//59
f 66//60 61//60 67//52
f 96//61 46//61 66//60
f 96//58 60//75 97//75
f 60//75 96//58 46//58
f 97//76 60//76 96//61
f 46//61 96//61 60//76
f 45//77 94//74 98//77
f 98//78 94//79 45//78
f 60//75 98//77 97//75
f 98//77 60//75 45//77
f 97//76 98//78 60//76
f 45//78 60//76 98//78
f 17//68 69//65 76//68
f 80//70 70//69 71//70
f 104//80 101//81 102//80
f 103//81 102//80 101//81
f 101//81 105//71 103//81
f 79//71 103//81 105//71
f 105//71 80//70 79//71
f 70//69 73//72 72//69
f 110//82 107//83 108//82
f 109//83 108//82 107//83
f 107//83 104//80 109//83
f 102//80 109//83 104//80
f 73//72 90//73 74//72
f 91//73 90//73 92//84
f 113//84 92//84 90//73
f 92//84 113//84 114//85
f 68//63 57//74 44//63
f 94//79 68//49 57//79
f 44//49 57//79 68//49
f 94//74 45//77 57//74
f 57//79 45//78 94//79
f 104//86 121//87 101//88
f 101//88 121//87 105//89
f 121//87 122//90 105//89
f 80//91 105//89 122//90
f 80//91 122//90 70//92
f 70//92 122//90 73//93
f 110//94 121//87 107//95
f 107//95 121//87 104//86
f 73//93 122//90 90//96
f 122//90 123//97 90//96
f 124//98 121//87 110//94
f 132//99 124//99 108//82
f 115//85 114//85 113//84
f 142//100 137//100 115//85
f 142//100 143//101 137//100
f 143//101 145//102 144//101
f 145//102 147//103 146//102
f 147//103 149//104 148//103
f 149//104 151//105 150//104
f 113//106 90//96 123//97
f 123//97 115//107 113//106
f 114//85 115//85 137//100
f 151//105 157//108 158//105
f 157//108 160//109 159//108
f 160//109 162//110 161//109
f 162//110 164//111 163//110
f 166//112 165//112 164//111
f 168//113 167//113 166//112
f 124//99 132//99 168//113
f 110//82 108//82 124//99
f 123//97 142//114 115//107
f 143//115 142//114 123//97
f 145//116 143//115 169//117
f 123//97 169//117 143//115
f 147//118 145//116 169//117
f 147//118 169//117 149//119
f 149//119 169//117 151//120
f 169//117 170//121 151//120
f 157//122 151//120 170//121
f 157//122 170//121 160//123
f 160//123 170//121 162//124
f 162//124 170//121 164//125
f 170//121 171//126 164//125
f 166//126 164//125 171//126
f 166//126 171//126 168//127
f 121//87 168//127 171//126
f 124//98 168//127 121//87
f 172//111 164//111 165//112
f 165//112 166//112 167//113
f 167//113 168//113 132//99
f 144//101 137//100 143//101
f 146//102 144//101 145//102
f 148//103 146//102 147//103
f 150//104 148//103 149//104
f 158//105 150//104 151//105
f 159//108 158//105 157//108
f 161//109 159//108 160//109
f 163//110 161//109 162//110
f 172//111 163//110 164//111
f 122//1 171//1 121//1
f 171//1 122//1 170//1
f 170//1 122//1 123//1
f 170//1 123//1 169//1
f 121//2 171//2 122//2
f 170//2 122//2 171//2
f 123//2 122//2 170//2
f 169//2 123//2 170//2
f 125//128 126//129 177//128
f 126//129 139//130 178//129
f 127//131 128//132 179//131
f 128//132 134//133 180//132
f 130//134 127//131 181//134
f 129//135 182//135 131//136
f 130//134 181//134 129//135
f 131//136 183//136 155//137
f 133//138 125//128 184//138
f 134//133 133//138 185//133
f 135//139 186//139 138//140
f 136//141 187//141 135//139
f 136//141 140//142 187//141
f 138//140 188//140 173//143
f 139//130 173//143 189//130
f 140//142 141//144 190//142
f 141//144 174//145 191//144
f 152//146 153//147 192//146
f 154//148 152//146 193//148
f 153//147 175//149 194//147
f 174//145 154//148 195//145
f 155//137 196//137 176//150
f 156//151 176//150 197//151
f 178//129 177//128 126//129
f 177//128 184//138 125//128
f 189//130 178//129 139//130
f 180//132 179//131 128//132
f 179//131 181//134 127//131
f 185//133 180//132 134//133
f 183//136 131//136 182//135
f 182//135 129//135 181//134
f 196//137 155//137 183//136
f 184//138 185//133 133//138
f 188//140 138//140 186//139
f 186//139 135//139 187//141
f 190//142 187//141 140//142
f 198//143 173//143 188//140
f 198//143 189//130 173//143
f 191//144 190//142 141//144
f 195//145 191//144 174//145
f 194//147 192//146 153//147
f 192//146 193//148 152//146
f 193//148 195//145 154//148
f 175//149 156//151 199//149
f 199//149 194//147 175//149
f 200//150 176//150 196//137
f 200//150 197//151 176//150
f 197//151 199//149 156//151
f 223//152 250//153 251//153
f 251//154 250//154 223//155
f 252//1 223//1 251//1
f 223//1 252//1 225//1
f 251//2 223//2 252//2
f 225//2 252//2 223//2
f 225//156 249//152 223//152
f 223//155 249//155 225//157
f 257//10 255//12 254//10
f 258//12 256//18 255//12
f 261//8 254//10 259//8
f 259//9 254//11 261//9
f 263//5 259//8 260//5
f 264//3 265//4 262//4
f 262//6 265//6 264//21
f 265//4 260//5 262//4
f 268//25 270//25 269//23
f 269//23 272//23 271//17
f 250//153 223//152 249//152
f 249//155 223//155 250//154
f 225//1 252//1 274//1
f 274//2 252//2 225//2
f 249//152 225//156 276//156
f 276//157 225//157 249//155
f 278//23 279//25 277//25
f 280//17 281//23 278//23
f 285//8 287//10 288//8
f 286//5 285//8 289//5
f 289//7 285//9 286//7
f 291//11 290//13 287//11
f 287//10 290//12 291//10
f 293//13 292//14 290//13
f 290//12 292//18 293//12
f 254//11 255//13 257//11
f 255//13 256//14 258//13
f 255//12 257//10 258//12
f 258//13 257//11 255//13
f 254//10 261//8 257//10
f 257//11 261//9 254//11
f 294//18 280//17 256//18
f 295//22 294//14 280//22
f 256//14 280//22 294//14
f 256//18 258//12 294//18
f 294//14 258//13 256//14
f 262//6 260//7 265//6
f 260//7 259//9 263//7
f 259//8 263//5 261//8
f 261//9 263//7 259//9
f 263//7 265//6 260//7
f 265//4 264//3 296//3
f 296//21 264//21 265//6
f 260//5 265//4 263//5
f 266//20 296//3 264//3
f 268//26 297//19 267//19
f 267//16 297//16 268//25
f 270//25 268//25 297//16
f 298//20 267//19 297//19
f 270//26 269//24 272//24
f 269//24 270//26 268//26
f 271//22 272//24 269//24
f 299//14 271//22 292//14
f 292//18 271//17 299//18
f 272//23 269//23 270//25
f 252//158 275//159 274//158
f 274//160 275//161 252//160
f 275//159 252//158 300//159
f 300//161 252//160 275//161
f 279//25 278//23 281//23
f 277//26 279//26 278//24
f 281//24 278//24 279//26
f 281//23 280//17 295//17
f 278//24 281//24 280//22
f 295//22 280//22 281//24
f 301//6 286//7 282//6
f 288//9 287//11 285//9
f 287//11 288//9 291//11
f 291//10 288//8 287//10
f 285//9 289//7 288//9
f 288//8 289//5 285//8
f 286//7 301//6 289//7
f 289//5 301//4 286//5
f 284//15 302//21 283//21
f 283//3 302//3 284//20
f 290//13 291//11 293//13
f 293//12 291//10 290//12
f 292//14 293//13 299//14
f 299//18 293//12 292//18
f 257//2 28//2 258//2
f 258//2 295//2 294//2
f 258//1 28//1 257//1
f 261//2 25//2 257//2
f 257//1 25//1 261//1
f 280//17 294//18 295//17
f 258//2 28//2 295//2
f 295//1 28//1 258//1
f 294//1 295//1 258//1
f 263//2 25//2 261//2
f 261//1 25//1 263//1
f 263//1 303//1 265//1
f 264//21 296//21 266//15
f 296//2 272//2 265//2
f 265//2 303//2 263//2
f 265//1 272//1 296//1
f 296//3 266//20 298//20
f 297//19 268//26 270//26
f 270//2 298//2 297//2
f 298//2 270//2 296//2
f 297//1 298//1 270//1
f 297//16 267//16 298//15
f 296//1 270//1 298//1
f 298//15 266//15 296//21
f 296//2 270//2 272//2
f 272//1 270//1 296//1
f 272//24 271//22 303//22
f 303//17 271//17 272//23
f 271//22 299//14 303//22
f 303//17 299//18 271//17
f 273//16 304//15 284//15
f 281//2 302//2 279//2
f 279//2 304//2 305//2
f 279//1 302//1 281//1
f 277//25 305//16 273//16
f 305//16 277//25 279//25
f 273//19 305//19 277//26
f 279//26 277//26 305//19
f 304//15 273//16 305//16
f 305//19 273//19 304//20
f 295//2 301//2 281//2
f 281//1 301//1 295//1
f 282//4 286//5 301//4
f 282//4 301//4 283//3
f 28//2 291//2 288//2
f 288//1 291//1 28//1
f 295//2 288//2 289//2
f 289//1 288//1 295//1
f 295//2 289//2 301//2
f 301//1 289//1 295//1
f 302//21 284//15 304//15
f 304//20 284//20 302//3
f 302//3 283//3 301//4
f 25//2 293//2 291//2
f 291//1 293//1 25//1
f 25//2 299//2 293//2
f 293//1 299//1 25//1
f 257//2 25//2 28//2
f 28//1 25//1 257//1
f 28//2 288//2 295//2
f 295//1 288//1 28//1
f 263//2 303//2 25//2
f 25//1 303//1 263//1
f 265//2 272//2 303//2
f 303//1 272//1 265//1
f 267//19 298//20 266//20
f 266//15 298//15 267//16
f 299//2 25//2 303//2
f 303//1 25//1 299//1
f 284//20 304//20 273//19
f 281//2 301//2 302//2
f 302//1 301//1 281//1
f 279//2 302//2 304//2
f 304//1 302//1 279//1
f 305//1 304//1 279//1
f 283//21 301//6 282//6
f 25//2 291//2 28//2
f 28//1 291//1 25//1
f 301//6 283//21 302//21
usemtl material_1_0
f 70/1/162 71/2/163 72/3/162
f 73/4/164 72/5/162 74/6/164
f 90/7/165 74/8/164 91/9/165
f 92/10/166 90/11/165 91/12/165
f 71/2/163 70/1/162 80/13/163
f 72/5/162 73/4/164 70/14/162
f 101/15/167 102/16/168 103/17/167
f 103/18/167 105/19/169 101/20/167
f 105/19/169 103/18/167 79/21/169
f 79/22/169 80/23/163 105/24/169
f 80/23/163 79/22/169 71/25/163
f 74/8/164 90/7/165 73/26/164
f 107/27/170 108/28/171 109/29/170
f 109/30/170 104/31/168 107/32/170
f 104/31/168 109/30/170 102/33/168
f 102/16/168 101/15/167 104/34/168
f 90/11/165 92/10/166 113/35/166
f 113/36/166 114/37/172 115/38/172
f 114/37/172 113/36/166 92/39/166
f 101/40/173 121/41/174 104/42/175
f 105/43/176 121/44/174 101/45/173
f 105/46/176 122/47/177 121/48/174
f 122/47/177 105/46/176 80/49/178
f 70/50/179 122/51/177 80/52/178
f 73/53/180 122/54/177 70/55/179
f 108/28/171 107/27/170 110/56/171
f 107/57/181 121/58/174 110/59/182
f 104/60/175 121/61/174 107/62/181
f 90/63/183 122/64/177 73/65/180
f 90/66/183 123/67/184 122/68/177
f 110/69/182 121/70/174 124/71/185
f 137/72/186 115/73/172 114/74/172
f 115/73/172 137/72/186 142/75/186
f 137/76/186 143/77/187 142/78/186
f 144/79/187 145/80/188 143/81/187
f 146/82/188 147/83/189 145/84/188
f 148/85/189 149/86/190 147/87/189
f 150/88/190 151/89/191 149/90/190
f 123/67/184 90/66/183 113/91/192
f 113/92/192 115/93/193 123/94/184
f 159/95/194 160/96/195 157/97/194
f 161/98/195 162/99/196 160/100/195
f 163/101/196 164/102/197 162/103/196
f 164/104/197 165/105/198 166/106/198
f 166/107/198 167/108/199 168/109/199
f 168/110/199 132/111/200 124/112/200
f 115/113/193 142/114/201 123/115/184
f 123/116/184 142/117/201 143/118/202
f 169/119/203 143/120/202 145/121/204
f 143/120/202 169/119/203 123/122/184
f 169/123/203 145/124/204 147/125/205
f 149/126/206 169/127/203 147/128/205
f 151/129/207 169/130/203 149/131/206
f 151/132/207 170/133/208 169/134/203
f 170/133/208 151/132/207 157/135/209
f 160/136/210 170/137/208 157/138/209
f 162/139/211 170/140/208 160/141/210
f 164/142/212 170/143/208 162/144/211
f 164/145/212 171/146/213 170/147/208
f 171/146/213 164/145/212 166/148/213
f 168/149/214 171/150/213 166/151/213
f 171/150/213 168/149/214 121/152/174
f 121/153/174 168/154/214 124/155/185
f 108/156/171 124/157/200 132/158/200
f 124/157/200 108/156/171 110/159/171
f 167/108/199 166/107/198 165/160/198
f 132/111/200 168/110/199 167/161/199
f 143/77/187 137/76/186 144/162/187
f 145/80/188 144/79/187 146/163/188
f 147/83/189 146/82/188 148/164/189
f 149/86/190 148/85/189 150/165/190
f 151/89/191 150/88/190 158/166/191
f 157/167/194 158/168/191 159/169/194
f 160/96/195 159/95/194 161/170/195
f 162/99/196 161/98/195 163/171/196
f 164/102/197 163/101/196 172/172/197
f 165/105/198 164/104/197 172/173/197
f 158/168/191 157/167/194 151/174/191
usemtl material_2_0
f 48//215 49//216 75//215
f 69//217 76//218 77//217
f 62//219 69//217 78//219
f 64//220 48//215 81//220
f 63//221 64//220 82//221
f 76//218 63//221 83//218
f 50//222 84//222 65//223
f 49//216 51//224 85//216
f 51//224 65//223 86//224
f 54//225 55//226 88//225
f 52//227 54//225 89//227
f 52//227 89//227 53//228
f 55//226 56//229 87//226
f 58//230 68//231 95//230
f 67//232 99//232 66//233
f 62//219 78//219 67//232
f 85//216 75//215 49//216
f 83//218 77//217 76//218
f 77//217 78//219 69//217
f 100//233 66//233 99//232
f 99//232 67//232 78//219
f 66//233 100//233 96//234
f 75//215 81//220 48//215
f 81//220 82//221 64//220
f 82//221 83//218 63//221
f 84//222 50//222 93//228
f 86//224 85//216 51//224
f 111//223 86//224 65//223
f 87//226 88//225 55//226
f 112//229 87//226 56//229
f 88//225 89//227 54//225
f 93//228 53//228 89//227
f 116//231 95//230 68//231
f 68//231 94//235 116//231
f 117//235 116//231 94//235
f 96//234 106//234 97//236
f 98//237 97//236 119//237
f 94//235 98//237 117//235
f 120//236 97//236 106//234
f 120//236 119//237 97//236
f 106//234 96//234 100//233
f 53//228 93//228 50//222
f 111//223 65//223 84//222
f 56//229 59//238 112//229
f 118//238 112//229 59//238
f 119//237 117//235 98//237
f 59//238 58//230 118//238
f 95//230 118//238 58//230
usemtl material_3_0
f 78/175/239 69/176/240 62/177/239
f 81/178/241 48/179/242 64/180/241
f 82/181/243 64/182/241 63/183/243
f 77/184/240 76/185/244 69/186/240
f 83/187/244 63/188/243 76/189/244
f 85/190/245 51/191/246 49/192/245
f 86/193/246 65/194/247 51/195/246
f 75/196/242 49/197/245 48/198/242
f 87/199/248 56/200/249 55/201/248
f 88/202/250 55/203/248 54/204/250
f 89/205/251 54/206/250 52/207/251
f 53/208/252 89/209/251 52/210/251
f 50/211/253 93/212/252 53/213/252
f 66/214/254 99/215/255 67/216/255
f 67/217/255 78/218/239 62/219/239
f 96/220/256 100/221/254 66/222/254
f 49/197/245 75/196/242 85/223/245
f 76/185/244 77/184/240 83/224/244
f 63/188/243 83/187/244 82/225/243
f 69/176/240 78/175/239 77/226/240
f 78/218/239 67/217/255 99/227/255
f 100/221/254 96/220/256 106/228/256
f 99/215/255 66/214/254 100/229/254
f 48/179/242 81/178/241 75/230/242
f 64/182/241 82/181/243 81/231/241
f 65/232/247 84/233/253 50/234/253
f 84/233/253 65/232/247 111/235/247
f 51/191/246 85/190/245 86/236/246
f 65/194/247 86/193/246 111/237/247
f 55/203/248 88/202/250 87/238/248
f 54/206/250 89/205/251 88/239/250
f 89/209/251 53/208/252 93/240/252
f 56/200/249 87/199/248 112/241/249
f 93/212/252 50/211/253 84/242/253
f 68/243/257 95/244/258 116/245/257
f 116/246/257 94/247/259 68/248/257
f 95/244/258 68/243/257 58/249/258
f 58/250/258 118/251/260 95/252/258
f 97/253/261 106/254/256 96/255/256
f 119/256/262 97/257/261 98/258/262
f 117/259/259 98/260/262 94/261/259
f 97/257/261 119/256/262 120/262/261
f 112/263/249 59/264/260 56/265/249
f 94/247/259 116/246/257 117/266/259
f 59/264/260 112/263/249 118/267/260
f 118/251/260 58/250/258 59/268/260
f 106/254/256 97/253/261 120/269/261
f 98/260/262 117/259/259 119/270/262
usemtl material_4_0
f 125//263 85//264 75//263
f 75//265 85//266 125//265
f 126//264 86//267 85//264
f 77//268 83//269 127//268
f 128//270 82//271 83//270
f 83//269 82//272 128//269
f 127//273 83//270 77//273
f 100//274 129//275 99//275
f 99//275 130//276 78//276
f 78//277 130//277 99//278
f 130//276 77//273 78//276
f 78//277 77//268 130//277
f 99//278 129//278 100//279
f 106//280 131//274 100//274
f 100//279 131//279 106//281
f 133//282 75//263 81//282
f 81//283 75//265 133//283
f 134//271 81//282 82//271
f 82//272 81//283 134//272
f 84//284 135//285 93//285
f 93//286 135//286 84//287
f 93//285 136//288 89//288
f 111//289 138//284 84//284
f 84//287 138//287 111//290
f 139//267 111//289 86//267
f 86//291 111//290 139//291
f 85//266 86//291 126//266
f 140//292 87//293 88//292
f 88//294 87//295 140//294
f 141//293 112//296 87//293
f 87//295 112//297 141//295
f 136//288 88//292 89//288
f 89//298 88//294 136//298
f 89//298 136//298 93//286
f 152//299 116//300 95//299
f 95//301 116//302 152//301
f 153//300 117//303 116//300
f 116//302 117//304 153//302
f 154//305 95//299 118//305
f 120//306 155//280 106//280
f 106//281 155//281 120//307
f 156//308 120//306 119//308
f 119//309 120//307 156//309
f 85//264 125//263 126//264
f 126//266 125//265 85//266
f 86//267 126//264 139//267
f 139//291 126//266 86//291
f 83//270 127//273 128//270
f 128//269 127//268 83//269
f 82//271 128//270 134//271
f 134//272 128//269 82//272
f 77//273 130//276 127//273
f 127//268 130//277 77//268
f 129//275 100//274 131//274
f 131//279 100//279 129//278
f 130//276 99//275 129//275
f 129//278 99//278 130//277
f 155//281 106//281 131//279
f 131//274 106//280 155//280
f 75//263 133//282 125//263
f 125//265 133//283 75//265
f 81//282 134//271 133//282
f 133//283 134//272 81//283
f 135//285 84//284 138//284
f 138//287 84//287 135//286
f 136//288 93//285 135//285
f 135//286 93//286 136//298
f 140//294 136//298 88//294
f 138//284 111//289 173//289
f 173//290 111//290 138//287
f 111//289 139//267 173//289
f 173//290 139//291 111//290
f 87//293 140//292 141//293
f 141//295 140//294 87//295
f 88//292 136//288 140//292
f 112//296 141//293 174//296
f 174//297 141//295 112//297
f 116//300 152//299 153//300
f 153//302 152//301 116//302
f 95//299 154//305 152//299
f 152//301 154//310 95//301
f 175//303 119//308 117//303
f 117//304 119//309 175//304
f 117//303 153//300 175//303
f 175//304 153//302 117//304
f 118//305 174//296 154//305
f 154//310 174//297 118//310
f 155//280 120//306 176//306
f 176//307 120//307 155//281
f 120//306 156//308 176//306
f 176//307 156//309 120//307
f 174//296 118//305 112//296
f 112//297 118//310 174//297
f 118//310 95//301 154//310
f 119//308 175//303 156//308
f 156//309 175//304 119//309
f 201//311 178//312 177//311
f 177//313 178//314 201//313
f 202//315 177//311 184//315
f 184//316 177//313 202//316
f 203//312 189//317 178//312
f 178//314 189//318 203//314
f 179//319 204//320 180//320
f 180//321 204//321 179//322
f 181//323 205//319 179//319
f 179//322 205//322 181//324
f 204//320 185//325 180//320
f 180//321 185//326 204//321
f 206//327 182//328 183//327
f 183//329 182//330 206//329
f 207//328 181//323 182//328
f 182//330 181//324 207//330
f 208//331 183//332 196//331
f 196//333 183//334 208//333
f 209//325 184//315 185//325
f 185//326 184//316 209//326
f 210//335 187//336 186//335
f 186//337 187//338 210//337
f 187//336 211//339 190//339
f 190//340 211//340 187//338
f 212//341 188//342 198//341
f 198//343 188//344 212//343
f 213//317 198//341 189//317
f 189//318 198//343 213//318
f 190//339 214//345 191//345
f 191//346 214//346 190//340
f 191//347 215//348 195//348
f 195//349 215//349 191//350
f 216//351 194//352 192//351
f 192//353 194//354 216//353
f 217//355 192//351 193//355
f 193//356 192//353 217//356
f 215//348 193//355 195//348
f 195//349 193//356 215//349
f 218//352 199//357 194//352
f 194//354 199//358 218//354
f 219//359 196//331 200//359
f 200//360 196//333 219//360
f 220//361 200//359 197//361
f 197//362 200//360 220//362
f 221//357 197//361 199//357
f 199//358 197//362 221//358
f 178//312 201//311 203//312
f 203//314 201//313 178//314
f 177//311 202//315 201//311
f 201//313 202//316 177//313
f 184//315 209//325 202//315
f 202//316 209//326 184//316
f 189//317 203//312 213//317
f 213//318 203//314 189//318
f 204//320 179//319 205//319
f 205//322 179//322 204//321
f 205//319 181//323 222//323
f 222//324 181//324 205//322
f 185//325 204//320 209//325
f 209//326 204//321 185//326
f 182//328 206//327 207//328
f 207//330 206//329 182//330
f 183//332 208//331 206//332
f 206//334 208//333 183//334
f 181//323 207//328 222//323
f 222//324 207//330 181//324
f 196//331 219//359 208//331
f 208//333 219//360 196//333
f 187//336 210//335 223//336
f 223//338 210//337 187//338
f 186//335 224//342 210//335
f 210//337 224//344 186//337
f 211//339 187//336 225//363
f 225//364 187//338 211//340
f 214//345 190//339 211//339
f 211//340 190//340 214//346
f 188//342 212//341 224//342
f 224//344 212//343 188//344
f 198//341 213//317 212//341
f 212//343 213//318 198//343
f 215//348 191//347 214//347
f 214//350 191//350 215//349
f 194//352 216//351 218//352
f 218//354 216//353 194//354
f 192//351 217//355 216//351
f 216//353 217//356 192//353
f 193//355 215//348 217//355
f 217//356 215//349 193//356
f 199//357 218//352 221//357
f 221//358 218//354 199//358
f 200//359 220//361 219//359
f 219//360 220//362 200//360
f 197//361 221//357 220//361
f 220//362 221//358 197//362
f 226//365 203//366 201//367
f 201//368 203//369 226//370
f 227//371 201//367 202//372
f 202//373 201//368 227//374
f 228//375 202//372 209//376
f 209//377 202//373 228//378
f 229//379 213//380 203//366
f 203//369 213//381 229//382
f 205//383 230//384 204//385
f 204//386 230//387 205//388
f 222//389 231//390 205//383
f 205//388 231//391 222//392
f 230//384 209//376 204//385
f 204//386 209//377 230//387
f 232//393 207//394 206//395
f 206//396 207//397 232//398
f 233//399 206//395 208//400
f 208//401 206//396 233//402
f 234//403 222//389 207//394
f 207//397 222//392 234//404
f 235//405 208//400 219//406
f 219//407 208//401 235//408
f 236//409 223//152 210//410
f 210//411 223//155 236//412
f 225//363 187//336 223//336
f 223//338 187//338 225//364
f 224//342 186//335 188//342
f 188//344 186//337 224//344
f 237//413 210//410 224//414
f 224//415 210//411 237//416
f 225//417 238//418 211//419
f 211//420 238//421 225//422
f 211//419 239//423 214//424
f 214//425 239//426 211//420
f 240//427 224//414 212//428
f 212//429 224//415 240//430
f 241//431 212//428 213//380
f 213//381 212//429 241//432
f 214//424 242//433 215//434
f 215//435 242//436 214//425
f 243//437 218//438 216//439
f 216//440 218//441 243//442
f 244//443 216//439 217//444
f 242//433 217//444 215//434
f 215//435 217//445 242//436
f 245//446 221//447 218//438
f 218//441 221//448 245//449
f 246//450 219//406 220//451
f 220//452 219//407 246//453
f 247//454 220//451 221//447
f 221//448 220//452 247//455
f 203//366 226//365 229//379
f 229//382 226//370 203//369
f 201//367 227//371 226//365
f 226//370 227//374 201//368
f 202//372 228//375 227//371
f 227//374 228//378 202//373
f 209//376 230//384 228//375
f 228//378 230//387 209//377
f 213//380 229//379 241//431
f 241//432 229//382 213//381
f 230//384 205//383 231//390
f 231//391 205//388 230//387
f 231//390 222//389 248//456
f 248//457 222//392 231//391
f 207//394 232//393 234//403
f 234//404 232//398 207//397
f 206//395 233//399 232//393
f 232//398 233//402 206//396
f 208//400 235//405 233//399
f 233//402 235//408 208//401
f 222//389 234//403 248//456
f 248//457 234//404 222//392
f 219//406 246//450 235//405
f 235//408 246//453 219//407
f 236//409 249//152 223//152
f 223//155 249//155 236//412
f 236//412 237//416 210//411
f 249//152 225//417 223//152
f 223//155 225//422 249//155
f 210//410 237//413 236//409
f 237//416 240//430 224//415
f 238//418 225//417 253//458
f 253//459 225//422 238//421
f 239//423 211//419 238//418
f 238//421 211//420 239//426
f 242//433 214//424 239//423
f 239//426 214//425 242//436
f 224//414 240//427 237//413
f 212//428 241//431 240//427
f 240//430 241//432 212//429
f 218//438 243//437 245//446
f 245//449 243//442 218//441
f 216//439 244//443 243//437
f 243//442 244//460 216//440
f 217//445 216//440 244//460
f 217//444 242//433 244//443
f 244//460 242//436 217//445
f 221//447 245//446 247//454
f 247//455 245//449 221//448
f 220//451 247//454 246//450
f 246//453 247//455 220//452
f 226//365 254//2 229//379
f 229//379 254//2 255//2
f 229//382 254//1 226//370
f 255//1 254//1 229//382
f 229//379 255//2 256//2
f 227//371 259//2 226//365
f 226//365 259//2 254//2
f 259//1 260//1 227//374
f 226//370 259//1 227//374
f 254//1 259//1 226//370
f 228//375 260//2 227//371
f 227//371 260//2 259//2
f 260//1 262//1 228//378
f 227//374 260//1 228//378
f 230//384 262//2 228//375
f 228//375 262//2 260//2
f 228//378 262//1 230//387
f 241//432 256//1 229//382
f 262//1 264//1 230//387
f 231//390 266//2 230//384
f 248//456 232//393 231//390
f 231//391 232//398 248//457
f 230//384 266//2 264//2
f 230//384 264//2 262//2
f 230//387 266//1 231//391
f 264//1 266//1 230//387
f 267//1 233//402 231//391
f 268//1 233//402 267//1
f 235//408 233//402 268//1
f 269//1 235//408 268//1
f 268//2 235//405 269//2
f 231//390 232//393 233//399
f 268//2 233//399 235//405
f 233//402 232//398 231//391
f 246//453 235//408 271//1
f 232//393 248//456 234//403
f 234//404 248//457 232//398
f 249//152 236//409 253//458
f 253//459 236//412 249//155
f 253//458 225//417 249//152
f 249//155 225//422 253//459
f 250//461 252//461 251//461
f 251//462 252//462 250//462
f 237//413 273//2 236//409
f 236//409 273//2 239//423
f 275//462 225//462 274//462
f 274//461 225//461 275//461
f 273//1 277//1 237//416
f 236//412 273//1 237//416
f 237//416 278//1 240//430
f 236//409 238//418 253//458
f 253//459 238//421 236//412
f 238//421 239//426 236//412
f 242//436 244//460 282//1
f 239//426 242//436 283//1
f 283//2 239//423 284//2
f 241//431 280//2 240//427
f 280//1 256//1 241//432
f 240//430 280//1 241//432
f 285//2 243//437 286//2
f 285//1 245//449 287//1
f 243//442 245//449 285//1
f 286//1 243//442 285//1
f 285//2 245//446 243//437
f 286//2 244//443 282//2
f 244//460 243//442 286//1
f 282//1 244//460 286//1
f 286//2 243//437 244//443
f 283//1 242//436 282//1
f 284//1 239//426 283//1
f 290//2 247//454 245//446
f 290//2 245//446 287//2
f 245//449 247//455 290//1
f 287//1 245//449 290//1
f 292//2 247//454 290//2
f 247//455 246//453 292//1
f 290//1 247//455 292//1
f 292//2 246//450 247//454
f 229//379 256//2 241//431
f 256//1 255//1 229//382
f 241//431 256//2 280//2
f 231//390 233//399 267//2
f 266//2 231//390 267//2
f 267//1 231//391 266//1
f 269//2 235//405 271//2
f 271//2 235//405 246//450
f 271//1 235//408 269//1
f 271//2 246//450 292//2
f 292//1 246//453 271//1
f 267//2 233//399 268//2
f 239//426 273//1 236//412
f 252//461 250//461 300//461
f 300//462 250//462 252//462
f 275//159 249//463 276//463
f 249//463 300//159 250//463
f 237//413 277//2 273//2
f 277//1 278//1 237//416
f 236//409 239//423 238//418
f 273//1 239//426 284//1
f 225//462 275//462 276//462
f 276//461 275//461 225//461
f 276//464 249//464 275//161
f 250//464 300//161 249//464
f 237//413 278//2 277//2
f 278//1 280//1 240//430
f 282//2 244//443 242//433
f 282//2 242//433 283//2
f 284//2 239//423 273//2
f 283//2 242//433 239//423
f 240//427 280//2 278//2
f 240//427 278//2 237//413
f 287//2 245//446 285//2
f 300//159 249//463 275//159
f 275//161 249//464 300//161
usemtl material_5_0
f 177//465 126//466 125//465
f 178//466 139//467 126//466
f 179//468 128//469 127//468
f 180//469 134//470 128//469
f 181//471 127//468 130//471
f 131//472 182//473 129//473
f 129//473 181//471 130//471
f 155//474 183//472 131//472
f 184//475 125//465 133//475
f 185//470 133//475 134//470
f 138//476 186//477 135//477
f 135//477 187//478 136//478
f 187//478 140//479 136//478
f 173//480 188//476 138//476
f 189//467 173//480 139//467
f 190//479 141//481 140//479
f 191//481 174//482 141//481
f 192//483 153//484 152//483
f 193//485 152//483 154//485
f 194//484 175//486 153//484
f 195//482 154//485 174//482
f 176//487 196//474 155//474
f 197//488 176//487 156//488
f 126//466 177//465 178//466
f 125//465 184//475 177//465
f 139//467 178//466 189//467
f 128//469 179//468 180//469
f 127//468 181//471 179//468
f 134//470 180//469 185//470
f 182//473 131//472 183//472
f 181//471 129//473 182//473
f 183//472 155//474 196//474
f 133//475 185//470 184//475
f 186//477 138//476 188//476
f 187//478 135//477 186//477
f 140//479 187//478 190//479
f 188//476 173//480 198//480
f 173//480 189//467 198//480
f 141//481 190//479 191//481
f 174//482 191//481 195//482
f 153//484 192//483 194//484
f 152//483 193//485 192//483
f 154//485 195//482 193//485
f 199//486 156//488 175//486
f 175//486 194//484 199//486
f 196//474 176//487 200//487
f 176//487 197//488 200//487
f 156//488 199//486 197//488
