# SSTK version 0.8.0
# 2
mtllib original-2.mtl
o Componente_1_1/Componente_1/mesh3/mesh3-geometry#mesh3-geometry
v 0.040719 0.680328 0.102558
v 0.038087 0.704896 0.094660
v 0.038087 0.704896 0.099926
v 0.040719 0.680328 0.092028
v -0.031135 0.704896 0.099926
v -0.033767 0.680328 0.102558
v 0.040719 0.639494 0.093637
v -0.033767 0.680328 0.092028
v -0.031135 0.704896 0.094660
v 0.040719 0.150702 0.102558
v 0.040719 0.598649 0.094953
v -0.033767 0.639494 0.093637
v -0.033767 0.150702 0.102558
v 0.040719 0.516937 0.096708
v 0.040719 0.557797 0.095977
v -0.033767 0.598649 0.094953
v -0.033767 0.516937 0.096708
v -0.033767 0.150702 0.092028
v 0.040719 0.476074 0.097147
v -0.033767 0.557797 0.095977
v -0.033767 0.476074 0.097147
v 0.040719 0.150702 0.092028
v -0.033767 0.190089 0.092028
v 0.040719 0.435209 0.097293
v -0.033767 0.435209 0.097293
v 0.040719 0.190089 0.092028
v -0.033767 0.230923 0.093637
v 0.040719 0.394343 0.097147
v -0.033767 0.394343 0.097147
v 0.040719 0.230923 0.093637
v -0.033767 0.271768 0.094953
v 0.040719 0.353480 0.096708
v -0.033767 0.353480 0.096708
v 0.040719 0.271768 0.094953
v -0.033767 0.312621 0.095977
v 0.040719 0.312621 0.095977
vn 0.9985766236240593 0.053335979897006267 0
vn 0.9943105649290672 0.10651995339108614 0
vn -0.9943105649290672 -0.10651995339108614 0
vn -0.9985766236240593 -0.053335979897006267 0
vn 0 1 0
vn 0 -1 0
vn 0 0.10651995339108614 0.9943105649290672
vn 0 0.053335979897006267 0.9985766236240593
vn 0 -0.053335979897006267 -0.9985766236240593
vn 0 -0.10651995339108614 -0.9943105649290672
vn 1 0 0
vn -1 0 0
vn 0 0.03367000016180119 -0.9994330048027754
vn 0 0.10651995339108614 -0.9943105649290672
vn 0 -0.03367000016180119 0.9994330048027754
vn 0 -0.10651995339108614 0.9943105649290672
vn 0 0 1
vn 0 0 -1
vn 0 -0.035782985101954067 -0.9993595839222204
vn 0 0.035782985101954067 0.9993595839222204
vn -0.9985766236240593 0.053335979897006267 0
vn -0.9943105649290672 0.10651995339108614 0
vn 0.9943105649290672 -0.10651995339108614 0
vn 0.9985766236240593 -0.053335979897006267 0
vn 0 -0.028629003038381947 -0.9995901060860038
vn 0 0.028629003038381947 0.9995901060860038
vn 0 -0.021473009200220126 -0.9997694283563022
vn 0 0.021473009200220126 0.9997694283563022
vn 0 -0.01431599314077985 -0.9998975209192156
vn 0 0.01431599314077985 0.9998975209192156
vn 0 -0.007158002728488001 -0.9999743811703073
vn 0 0.007158002728488001 0.9999743811703073
vn 0 0.035782985101954067 -0.9993595839222204
vn 0 0.039360003734772525 -0.9992250948139757
vn 0 -0.035782985101954067 0.9993595839222204
vn 0 -0.039360003734772525 0.9992250948139757
vn 0 0.007158002728488001 -0.9999743811703073
vn 0 -0.007158002728488001 0.9999743811703073
vn 0 0.028629003038381947 -0.9995901060860038
vn 0 -0.028629003038381947 0.9995901060860038
vn 0 0.01431599314077985 -0.9998975209192156
vn 0 -0.01431599314077985 0.9998975209192156
vn 0 0.021473009200220126 -0.9997694283563022
vn 0 -0.021473009200220126 0.9997694283563022
usemtl material_0_0
f 1//1 2//2 3//2
f 2//2 1//1 4//1
f 3//3 2//3 1//4
f 4//4 1//4 2//3
f 2//5 5//5 3//5
f 3//6 5//6 2//6
f 3//7 6//8 1//8
f 1//9 6//9 3//10
f 1//1 7//11 4//1
f 4//4 7//12 1//4
f 8//13 2//14 4//13
f 4//15 2//16 8//15
f 5//5 2//5 9//5
f 9//6 2//6 5//6
f 6//8 3//7 5//7
f 5//10 3//10 6//9
f 6//8 10//17 1//8
f 1//9 10//18 6//9
f 7//11 1//1 11//11
f 11//12 1//4 7//12
f 12//19 4//13 7//19
f 7//20 4//15 12//20
f 2//14 8//13 9//14
f 9//16 8//15 2//16
f 4//13 12//19 8//13
f 8//15 12//20 4//15
f 8//21 5//22 9//22
f 9//23 5//23 8//24
f 5//22 8//21 6//21
f 6//24 8//24 5//23
f 10//17 6//8 13//17
f 13//18 6//9 10//18
f 14//11 1//1 10//11
f 10//12 1//4 14//12
f 11//11 1//1 15//11
f 15//12 1//4 11//12
f 16//25 7//19 11//25
f 11//26 7//20 16//26
f 7//19 16//25 12//19
f 12//20 16//26 7//20
f 12//12 6//21 8//21
f 8//24 6//24 12//11
f 6//21 17//12 13//12
f 13//11 17//11 6//24
f 18//6 10//6 13//6
f 13//5 10//5 18//5
f 15//11 1//1 14//11
f 14//12 1//4 15//12
f 14//11 10//11 19//11
f 19//12 10//12 14//12
f 20//27 11//25 15//27
f 15//28 11//26 20//28
f 11//25 20//27 16//25
f 16//26 20//28 11//26
f 6//21 12//12 16//12
f 16//11 12//11 6//24
f 6//21 20//12 17//12
f 17//11 20//11 6//24
f 13//12 17//12 21//12
f 21//11 17//11 13//11
f 10//6 18//6 22//6
f 22//5 18//5 10//5
f 13//12 23//12 18//12
f 18//11 23//11 13//11
f 17//29 15//27 14//29
f 14//30 15//28 17//30
f 19//11 10//11 24//11
f 24//12 10//12 19//12
f 21//31 14//29 19//31
f 19//32 14//30 21//32
f 15//27 17//29 20//27
f 20//28 17//30 15//28
f 6//21 16//12 20//12
f 20//11 16//11 6//24
f 14//29 21//31 17//29
f 17//30 21//32 14//30
f 13//12 21//12 25//12
f 25//11 21//11 13//11
f 18//18 26//18 22//18
f 22//17 26//17 18//17
f 26//11 10//11 22//11
f 22//12 10//12 26//12
f 13//12 27//12 23//12
f 23//11 27//11 13//11
f 26//18 18//18 23//18
f 23//17 18//17 26//17
f 24//11 10//11 28//11
f 28//12 10//12 24//12
f 25//18 19//31 24//18
f 24//17 19//32 25//17
f 19//31 25//18 21//31
f 21//32 25//17 19//32
f 13//12 25//12 29//12
f 29//11 25//11 13//11
f 30//11 10//11 26//11
f 26//12 10//12 30//12
f 13//12 31//12 27//12
f 27//11 31//11 13//11
f 30//33 23//34 27//33
f 27//35 23//36 30//35
f 23//34 30//33 26//34
f 26//36 30//35 23//36
f 28//11 10//11 32//11
f 32//12 10//12 28//12
f 29//37 24//18 28//37
f 28//38 24//17 29//38
f 24//18 29//37 25//18
f 25//17 29//38 24//17
f 13//12 29//12 33//12
f 33//11 29//11 13//11
f 34//11 10//11 30//11
f 30//12 10//12 34//12
f 13//12 35//12 31//12
f 31//11 35//11 13//11
f 34//39 27//33 31//39
f 31//40 27//35 34//40
f 27//33 34//39 30//33
f 30//35 34//40 27//35
f 32//11 10//11 36//11
f 36//12 10//12 32//12
f 33//41 28//37 32//41
f 32//42 28//38 33//42
f 28//37 33//41 29//37
f 29//38 33//42 28//38
f 13//12 33//12 35//12
f 35//11 33//11 13//11
f 36//11 10//11 34//11
f 34//12 10//12 36//12
f 36//43 31//39 35//43
f 35//44 31//40 36//44
f 31//39 36//43 34//39
f 34//40 36//44 31//40
f 35//43 32//41 36//43
f 36//44 32//42 35//44
f 32//41 35//43 33//41
f 33//42 35//44 32//42
